%TF.GenerationSoftware,KiCad,Pcbnew,8.0.8*%
%TF.CreationDate,2025-03-07T20:00:01-05:00*%
%TF.ProjectId,Stardust,53746172-6475-4737-942e-6b696361645f,rev?*%
%TF.SameCoordinates,Original*%
%TF.FileFunction,Copper,L1,Top*%
%TF.FilePolarity,Positive*%
%FSLAX46Y46*%
G04 Gerber Fmt 4.6, Leading zero omitted, Abs format (unit mm)*
G04 Created by KiCad (PCBNEW 8.0.8) date 2025-03-07 20:00:01*
%MOMM*%
%LPD*%
G01*
G04 APERTURE LIST*
G04 Aperture macros list*
%AMRoundRect*
0 Rectangle with rounded corners*
0 $1 Rounding radius*
0 $2 $3 $4 $5 $6 $7 $8 $9 X,Y pos of 4 corners*
0 Add a 4 corners polygon primitive as box body*
4,1,4,$2,$3,$4,$5,$6,$7,$8,$9,$2,$3,0*
0 Add four circle primitives for the rounded corners*
1,1,$1+$1,$2,$3*
1,1,$1+$1,$4,$5*
1,1,$1+$1,$6,$7*
1,1,$1+$1,$8,$9*
0 Add four rect primitives between the rounded corners*
20,1,$1+$1,$2,$3,$4,$5,0*
20,1,$1+$1,$4,$5,$6,$7,0*
20,1,$1+$1,$6,$7,$8,$9,0*
20,1,$1+$1,$8,$9,$2,$3,0*%
G04 Aperture macros list end*
%TA.AperFunction,SMDPad,CuDef*%
%ADD10RoundRect,0.250000X-0.337500X-0.475000X0.337500X-0.475000X0.337500X0.475000X-0.337500X0.475000X0*%
%TD*%
%TA.AperFunction,SMDPad,CuDef*%
%ADD11RoundRect,0.250000X-0.350000X-0.450000X0.350000X-0.450000X0.350000X0.450000X-0.350000X0.450000X0*%
%TD*%
%TA.AperFunction,SMDPad,CuDef*%
%ADD12RoundRect,0.237500X0.237500X-0.287500X0.237500X0.287500X-0.237500X0.287500X-0.237500X-0.287500X0*%
%TD*%
%TA.AperFunction,ComponentPad*%
%ADD13R,1.700000X1.700000*%
%TD*%
%TA.AperFunction,ComponentPad*%
%ADD14O,1.700000X1.700000*%
%TD*%
%TA.AperFunction,SMDPad,CuDef*%
%ADD15R,0.760000X5.000000*%
%TD*%
%TA.AperFunction,SMDPad,CuDef*%
%ADD16R,8.800000X4.500000*%
%TD*%
%TA.AperFunction,SMDPad,CuDef*%
%ADD17RoundRect,0.250000X-0.450000X0.350000X-0.450000X-0.350000X0.450000X-0.350000X0.450000X0.350000X0*%
%TD*%
%TA.AperFunction,ComponentPad*%
%ADD18R,1.150000X1.150000*%
%TD*%
%TA.AperFunction,ComponentPad*%
%ADD19C,1.150000*%
%TD*%
%TA.AperFunction,SMDPad,CuDef*%
%ADD20R,2.150000X4.000000*%
%TD*%
%TA.AperFunction,SMDPad,CuDef*%
%ADD21RoundRect,0.250000X-0.475000X0.337500X-0.475000X-0.337500X0.475000X-0.337500X0.475000X0.337500X0*%
%TD*%
%TA.AperFunction,SMDPad,CuDef*%
%ADD22RoundRect,0.250000X0.650000X-0.412500X0.650000X0.412500X-0.650000X0.412500X-0.650000X-0.412500X0*%
%TD*%
%TA.AperFunction,ComponentPad*%
%ADD23R,5.385000X5.385000*%
%TD*%
%TA.AperFunction,ComponentPad*%
%ADD24C,4.005000*%
%TD*%
%TA.AperFunction,ComponentPad*%
%ADD25C,4.200000*%
%TD*%
%TA.AperFunction,ComponentPad*%
%ADD26C,1.508000*%
%TD*%
%TA.AperFunction,ComponentPad*%
%ADD27R,1.508000X1.508000*%
%TD*%
%TA.AperFunction,ComponentPad*%
%ADD28R,2.000000X2.000000*%
%TD*%
%TA.AperFunction,ComponentPad*%
%ADD29O,2.000000X1.600000*%
%TD*%
%TA.AperFunction,ComponentPad*%
%ADD30R,1.530000X1.530000*%
%TD*%
%TA.AperFunction,ComponentPad*%
%ADD31C,1.530000*%
%TD*%
%TA.AperFunction,ViaPad*%
%ADD32C,0.600000*%
%TD*%
%TA.AperFunction,ViaPad*%
%ADD33C,0.800000*%
%TD*%
%TA.AperFunction,Conductor*%
%ADD34C,0.508000*%
%TD*%
%TA.AperFunction,Conductor*%
%ADD35C,0.500000*%
%TD*%
%TA.AperFunction,Conductor*%
%ADD36C,0.381000*%
%TD*%
%TA.AperFunction,Conductor*%
%ADD37C,0.190500*%
%TD*%
G04 APERTURE END LIST*
D10*
%TO.P,C6,1*%
%TO.N,GND*%
X186462500Y-105000000D03*
%TO.P,C6,2*%
%TO.N,/AUX4*%
X188537500Y-105000000D03*
%TD*%
D11*
%TO.P,R1,1*%
%TO.N,/EN*%
X159500000Y-99750000D03*
%TO.P,R1,2*%
%TO.N,+3.3V*%
X161500000Y-99750000D03*
%TD*%
D12*
%TO.P,D2,1,K*%
%TO.N,Net-(D2-K)*%
X187000000Y-118875000D03*
%TO.P,D2,2,A*%
%TO.N,/STA*%
X187000000Y-117125000D03*
%TD*%
D13*
%TO.P,J7,1,Pin_1*%
%TO.N,+5V*%
X135500000Y-88000000D03*
D14*
%TO.P,J7,2,Pin_2*%
%TO.N,Net-(J7-Pin_2)*%
X138040000Y-88000000D03*
%TD*%
D15*
%TO.P,J2,1,1*%
%TO.N,/RA+*%
X140425000Y-77550000D03*
%TO.P,J2,2,2*%
%TO.N,/DE+*%
X139155000Y-77550000D03*
%TO.P,J2,3,3*%
%TO.N,/DE-*%
X137885000Y-77550000D03*
%TO.P,J2,4,4*%
%TO.N,/RA-*%
X136615000Y-77550000D03*
%TO.P,J2,5,5*%
%TO.N,GND*%
X135345000Y-77550000D03*
%TO.P,J2,6,6*%
%TO.N,Net-(J7-Pin_2)*%
X134075000Y-77550000D03*
D16*
%TO.P,J2,MP1,MP1*%
%TO.N,unconnected-(J2-PadMP1)*%
X137250000Y-61500000D03*
%TD*%
D17*
%TO.P,R14,1*%
%TO.N,/RA+*%
X142000000Y-83250000D03*
%TO.P,R14,2*%
%TO.N,+3.3V*%
X142000000Y-85250000D03*
%TD*%
D18*
%TO.P,U8,1,1*%
%TO.N,Net-(J1-Pad1)*%
X195275000Y-53450000D03*
D19*
%TO.P,U8,2,2*%
%TO.N,Net-(J3-Pin_1)*%
X190195000Y-53450000D03*
%TD*%
D20*
%TO.P,C7,1*%
%TO.N,+12V*%
X172250000Y-53550000D03*
%TO.P,C7,2*%
%TO.N,GND*%
X172250000Y-60250000D03*
%TD*%
D11*
%TO.P,R15,1*%
%TO.N,/AUX8*%
X185000000Y-97000000D03*
%TO.P,R15,2*%
%TO.N,+3.3V*%
X187000000Y-97000000D03*
%TD*%
D12*
%TO.P,D1,1,K*%
%TO.N,Net-(D1-K)*%
X190000000Y-118875000D03*
%TO.P,D1,2,A*%
%TO.N,+5V*%
X190000000Y-117125000D03*
%TD*%
D21*
%TO.P,C5,1*%
%TO.N,GND*%
X176750000Y-100712500D03*
%TO.P,C5,2*%
%TO.N,/AUX3*%
X176750000Y-102787500D03*
%TD*%
D11*
%TO.P,R3,1*%
%TO.N,/UART_TX*%
X159500000Y-105000000D03*
%TO.P,R3,2*%
%TO.N,+3.3V*%
X161500000Y-105000000D03*
%TD*%
D13*
%TO.P,J3,1,Pin_1*%
%TO.N,Net-(J3-Pin_1)*%
X191460000Y-58000000D03*
D14*
%TO.P,J3,2,Pin_2*%
%TO.N,+12V*%
X194000000Y-58000000D03*
%TD*%
D17*
%TO.P,R13,1*%
%TO.N,/DE+*%
X138750000Y-83250000D03*
%TO.P,R13,2*%
%TO.N,+3.3V*%
X138750000Y-85250000D03*
%TD*%
%TO.P,R9,1*%
%TO.N,Net-(D1-K)*%
X190000000Y-122250000D03*
%TO.P,R9,2*%
%TO.N,GND*%
X190000000Y-124250000D03*
%TD*%
%TO.P,R10,1*%
%TO.N,Net-(D2-K)*%
X187000000Y-122250000D03*
%TO.P,R10,2*%
%TO.N,GND*%
X187000000Y-124250000D03*
%TD*%
%TO.P,R12,1*%
%TO.N,/DE-*%
X135500000Y-83250000D03*
%TO.P,R12,2*%
%TO.N,+3.3V*%
X135500000Y-85250000D03*
%TD*%
D22*
%TO.P,C9,1*%
%TO.N,+5V*%
X168250000Y-67562500D03*
%TO.P,C9,2*%
%TO.N,GND*%
X168250000Y-64437500D03*
%TD*%
D11*
%TO.P,R2,1*%
%TO.N,/UART_TX*%
X159500000Y-107500000D03*
%TO.P,R2,2*%
%TO.N,/UART_RX*%
X161500000Y-107500000D03*
%TD*%
D21*
%TO.P,C8,1*%
%TO.N,+12V*%
X175000000Y-109175000D03*
%TO.P,C8,2*%
%TO.N,GND*%
X175000000Y-111250000D03*
%TD*%
%TO.P,C4,1*%
%TO.N,GND*%
X176250000Y-78212500D03*
%TO.P,C4,2*%
%TO.N,/PEC*%
X176250000Y-80287500D03*
%TD*%
D23*
%TO.P,J1,1*%
%TO.N,Net-(J1-Pad1)*%
X190000000Y-66700000D03*
D24*
%TO.P,J1,2*%
%TO.N,GND*%
X192300000Y-72000000D03*
D25*
%TO.P,J1,3,switch*%
%TO.N,unconnected-(J1-switch-Pad3)*%
X196000000Y-69500000D03*
%TD*%
D17*
%TO.P,R11,1*%
%TO.N,/RA-*%
X132000000Y-83250000D03*
%TO.P,R11,2*%
%TO.N,+3.3V*%
X132000000Y-85250000D03*
%TD*%
D26*
%TO.P,U2,16,VM*%
%TO.N,+12V*%
X144890000Y-93300000D03*
%TO.P,U2,15,GND*%
%TO.N,GND*%
X142350000Y-93300000D03*
%TO.P,U2,14,A2*%
%TO.N,/A2_1*%
X139810000Y-93300000D03*
%TO.P,U2,13,A1*%
%TO.N,/A1_1*%
X137270000Y-93300000D03*
%TO.P,U2,12,B1*%
%TO.N,/B1_1*%
X134730000Y-93300000D03*
%TO.P,U2,11,B2*%
%TO.N,/B2_1*%
X132190000Y-93300000D03*
%TO.P,U2,10,VDD*%
%TO.N,+3.3V*%
X129650000Y-93300000D03*
%TO.P,U2,9,GND*%
%TO.N,GND*%
X127110000Y-93300000D03*
%TO.P,U2,8,DIR*%
%TO.N,/DIR1*%
X127110000Y-106000000D03*
%TO.P,U2,7,STEP*%
%TO.N,/STEP1*%
X129650000Y-106000000D03*
%TO.P,U2,6,CLK*%
%TO.N,unconnected-(U2-CLK-Pad6)*%
X132190000Y-106000000D03*
%TO.P,U2,5,PDN*%
%TO.N,unconnected-(U2-PDN-Pad5)*%
X134730000Y-106000000D03*
%TO.P,U2,4,PDN*%
%TO.N,/UART_RX*%
X137270000Y-106000000D03*
%TO.P,U2,3,MS2*%
%TO.N,GND*%
X139810000Y-106000000D03*
%TO.P,U2,2,MS1*%
X142350000Y-106000000D03*
D27*
%TO.P,U2,1,~{EN}*%
%TO.N,/EN*%
X144890000Y-106000000D03*
%TD*%
D26*
%TO.P,U3,16,VM*%
%TO.N,+12V*%
X144780000Y-110000000D03*
%TO.P,U3,15,GND*%
%TO.N,GND*%
X142240000Y-110000000D03*
%TO.P,U3,14,A2*%
%TO.N,/A2_2*%
X139700000Y-110000000D03*
%TO.P,U3,13,A1*%
%TO.N,/A1_2*%
X137160000Y-110000000D03*
%TO.P,U3,12,B1*%
%TO.N,/B1_2*%
X134620000Y-110000000D03*
%TO.P,U3,11,B2*%
%TO.N,/B2_2*%
X132080000Y-110000000D03*
%TO.P,U3,10,VDD*%
%TO.N,+3.3V*%
X129540000Y-110000000D03*
%TO.P,U3,9,GND*%
%TO.N,GND*%
X127000000Y-110000000D03*
%TO.P,U3,8,DIR*%
%TO.N,/DIR2*%
X127000000Y-122700000D03*
%TO.P,U3,7,STEP*%
%TO.N,/STEP2*%
X129540000Y-122700000D03*
%TO.P,U3,6,CLK*%
%TO.N,unconnected-(U3-CLK-Pad6)*%
X132080000Y-122700000D03*
%TO.P,U3,5,PDN*%
%TO.N,unconnected-(U3-PDN-Pad5)*%
X134620000Y-122700000D03*
%TO.P,U3,4,PDN*%
%TO.N,/UART_RX*%
X137160000Y-122700000D03*
%TO.P,U3,3,MS2*%
%TO.N,+3.3V*%
X139700000Y-122700000D03*
%TO.P,U3,2,MS1*%
%TO.N,GND*%
X142240000Y-122700000D03*
D27*
%TO.P,U3,1,~{EN}*%
%TO.N,/EN*%
X144780000Y-122700000D03*
%TD*%
D13*
%TO.P,J5,1,Pin_1*%
%TO.N,/B2_2*%
X151000000Y-120080000D03*
D14*
%TO.P,J5,2,Pin_2*%
%TO.N,/B1_2*%
X151000000Y-117540000D03*
%TO.P,J5,3,Pin_3*%
%TO.N,/A1_2*%
X151000000Y-115000000D03*
%TO.P,J5,4,Pin_4*%
%TO.N,/A2_2*%
X151000000Y-112460000D03*
%TD*%
D13*
%TO.P,J6,1,Pin_1*%
%TO.N,GND*%
X153000000Y-67460000D03*
D14*
%TO.P,J6,2,Pin_2*%
%TO.N,/PUL*%
X153000000Y-70000000D03*
%TO.P,J6,3,Pin_3*%
%TO.N,+3.3V*%
X153000000Y-72540000D03*
%TD*%
D13*
%TO.P,J8,1,Pin_1*%
%TO.N,GND*%
X195000000Y-77420000D03*
D14*
%TO.P,J8,2,Pin_2*%
%TO.N,+5V*%
X195000000Y-79960000D03*
%TO.P,J8,3,Pin_3*%
%TO.N,/EN1_B*%
X195000000Y-82500000D03*
%TO.P,J8,4,Pin_4*%
%TO.N,/EN1_A*%
X195000000Y-85040000D03*
%TO.P,J8,5,Pin_5*%
%TO.N,/EN2_B*%
X195000000Y-87580000D03*
%TO.P,J8,6,Pin_6*%
%TO.N,/EN2_A*%
X195000000Y-90120000D03*
%TO.P,J8,7,Pin_7*%
%TO.N,/AUX3*%
X195000000Y-92660000D03*
%TO.P,J8,8,Pin_8*%
%TO.N,/AUX4*%
X195000000Y-95200000D03*
%TO.P,J8,9,Pin_9*%
%TO.N,/TX0*%
X195000000Y-97740000D03*
%TO.P,J8,10,Pin_10*%
%TO.N,/RX0*%
X195000000Y-100280000D03*
%TO.P,J8,11,Pin_11*%
%TO.N,/SCL*%
X195000000Y-102820000D03*
%TO.P,J8,12,Pin_12*%
%TO.N,/SDA*%
X195000000Y-105360000D03*
%TO.P,J8,13,Pin_13*%
%TO.N,/PEC*%
X195000000Y-107900000D03*
%TO.P,J8,14,Pin_14*%
%TO.N,/AUX7*%
X195000000Y-110440000D03*
%TO.P,J8,15,Pin_15*%
%TO.N,+3.3V*%
X195000000Y-112980000D03*
%TO.P,J8,16,Pin_16*%
X195000000Y-115520000D03*
%TO.P,J8,17,Pin_17*%
%TO.N,/LIMIT*%
X195000000Y-118060000D03*
%TO.P,J8,18,Pin_18*%
%TO.N,/AUX8*%
X195000000Y-120600000D03*
%TO.P,J8,19,Pin_19*%
%TO.N,/PPS*%
X195000000Y-123140000D03*
%TD*%
D13*
%TO.P,J10,1,Pin_1*%
%TO.N,+12V*%
X154000000Y-60000000D03*
D14*
%TO.P,J10,2,Pin_2*%
%TO.N,GND*%
X156540000Y-60000000D03*
%TD*%
D13*
%TO.P,J4,1,Pin_1*%
%TO.N,/B2_1*%
X151000000Y-103300000D03*
D14*
%TO.P,J4,2,Pin_2*%
%TO.N,/B1_1*%
X151000000Y-100760000D03*
%TO.P,J4,3,Pin_3*%
%TO.N,/A1_1*%
X151000000Y-98220000D03*
%TO.P,J4,4,Pin_4*%
%TO.N,/A2_1*%
X151000000Y-95680000D03*
%TD*%
D28*
%TO.P,U4,1,~{RST}*%
%TO.N,unconnected-(U4-~{RST}-Pad1)*%
X148445000Y-59610000D03*
D29*
%TO.P,U4,2,A0*%
%TO.N,unconnected-(U4-A0-Pad2)*%
X148445000Y-62150000D03*
%TO.P,U4,3,D0*%
%TO.N,unconnected-(U4-D0-Pad3)*%
X148445000Y-64690000D03*
%TO.P,U4,4,SCK/D5*%
%TO.N,/EN1_A*%
X148445000Y-67230000D03*
%TO.P,U4,5,MISO/D6*%
%TO.N,/EN1_B*%
X148445000Y-69770000D03*
%TO.P,U4,6,MOSI/D7*%
%TO.N,/TX2*%
X148445000Y-72310000D03*
%TO.P,U4,7,CS/D8*%
%TO.N,/RX2*%
X148445000Y-74850000D03*
%TO.P,U4,8,3V3*%
%TO.N,unconnected-(U4-3V3-Pad8)*%
X148445000Y-77390000D03*
%TO.P,U4,9,5V*%
%TO.N,+5V*%
X125585000Y-77390000D03*
%TO.P,U4,10,GND*%
%TO.N,GND*%
X125585000Y-74850000D03*
%TO.P,U4,11,D4*%
%TO.N,unconnected-(U4-D4-Pad11)*%
X125585000Y-72310000D03*
%TO.P,U4,12,D3*%
%TO.N,unconnected-(U4-D3-Pad12)*%
X125585000Y-69770000D03*
%TO.P,U4,13,SDA/D2*%
%TO.N,/EN2_B*%
X125585000Y-67230000D03*
%TO.P,U4,14,SCL/D1*%
%TO.N,/EN2_A*%
X125585000Y-64690000D03*
%TO.P,U4,15,RX*%
%TO.N,unconnected-(U4-RX-Pad15)*%
X125585000Y-62150000D03*
%TO.P,U4,16,TX*%
%TO.N,unconnected-(U4-TX-Pad16)*%
X125585000Y-59610000D03*
%TD*%
D13*
%TO.P,J9,1,Pin_1*%
%TO.N,+5V*%
X162750000Y-60250000D03*
D14*
%TO.P,J9,2,Pin_2*%
%TO.N,GND*%
X165290000Y-60250000D03*
%TD*%
D30*
%TO.P,U1,1,EN*%
%TO.N,unconnected-(U1-EN-Pad1)*%
X182400000Y-76860000D03*
D31*
%TO.P,U1,2,VP*%
%TO.N,/PEC*%
X182400000Y-79400000D03*
%TO.P,U1,3,VN*%
%TO.N,/UART_RX*%
X182400000Y-81940000D03*
%TO.P,U1,4,D34*%
%TO.N,/RA-*%
X182400000Y-84480000D03*
%TO.P,U1,5,D35*%
%TO.N,/RA+*%
X182400000Y-87020000D03*
%TO.P,U1,6,D32*%
%TO.N,/DE-*%
X182400000Y-89560000D03*
%TO.P,U1,7,D33*%
%TO.N,/DE+*%
X182400000Y-92100000D03*
%TO.P,U1,8,D25*%
%TO.N,/AUX8*%
X182400000Y-94640000D03*
%TO.P,U1,9,D26*%
%TO.N,/DIR2*%
X182400000Y-97180000D03*
%TO.P,U1,10,D27*%
%TO.N,/STEP2*%
X182400000Y-99720000D03*
%TO.P,U1,11,D14*%
%TO.N,/AUX3*%
X182400000Y-102260000D03*
%TO.P,U1,12,D12*%
%TO.N,/STA*%
X182400000Y-104800000D03*
%TO.P,U1,13,D13*%
%TO.N,/AUX4*%
X182400000Y-107340000D03*
%TO.P,U1,14,GND*%
%TO.N,GND*%
X182400000Y-109880000D03*
%TO.P,U1,15,VIN*%
%TO.N,+5V*%
X182400000Y-112420000D03*
%TO.P,U1,16,3V3*%
%TO.N,+3.3V*%
X157000000Y-112420000D03*
%TO.P,U1,17,GND*%
%TO.N,GND*%
X157000000Y-109880000D03*
%TO.P,U1,18,D15*%
%TO.N,unconnected-(U1-D15-Pad18)*%
X157000000Y-107340000D03*
%TO.P,U1,19,D2*%
%TO.N,/DIR1*%
X157000000Y-104800000D03*
%TO.P,U1,20,D4*%
%TO.N,/UART_TX*%
X157000000Y-102260000D03*
%TO.P,U1,21,RX2*%
%TO.N,/RX2*%
X157000000Y-99720000D03*
%TO.P,U1,22,TX2*%
%TO.N,/TX2*%
X157000000Y-97180000D03*
%TO.P,U1,23,D5*%
%TO.N,/EN*%
X157000000Y-94640000D03*
%TO.P,U1,24,D18*%
%TO.N,/STEP1*%
X157000000Y-92100000D03*
%TO.P,U1,25,D19*%
%TO.N,unconnected-(U1-D19-Pad25)*%
X157000000Y-89560000D03*
%TO.P,U1,26,D21*%
%TO.N,/SDA*%
X157000000Y-87020000D03*
%TO.P,U1,27,RX0*%
%TO.N,/TX0*%
X157000000Y-84480000D03*
%TO.P,U1,28,TX0*%
%TO.N,/RX0*%
X157000000Y-81940000D03*
%TO.P,U1,29,D22*%
%TO.N,/SCL*%
X157000000Y-79400000D03*
%TO.P,U1,30,D23*%
%TO.N,/AUX7*%
X157000000Y-76860000D03*
%TD*%
D32*
%TO.N,+12V*%
X154000000Y-100000000D03*
X154000000Y-101000000D03*
X154000000Y-105500000D03*
X154250000Y-104500000D03*
%TO.N,GND*%
X150750000Y-73000000D03*
X150750000Y-71000000D03*
X150750000Y-72000000D03*
X158250000Y-123000000D03*
X158250000Y-121000000D03*
X158250000Y-122000000D03*
X162750000Y-121000000D03*
X162750000Y-122000000D03*
X162750000Y-123000000D03*
%TO.N,/DIR2*%
X170000000Y-101750000D03*
%TO.N,/STEP2*%
X161500000Y-113500000D03*
%TO.N,/STA*%
X185000000Y-115250000D03*
%TO.N,/TX0*%
X159750000Y-87000000D03*
%TO.N,/AUX4*%
X188750000Y-108250000D03*
%TO.N,GND*%
X185000000Y-105000000D03*
X180000000Y-108750000D03*
X172500000Y-111000000D03*
D33*
X170500000Y-72000000D03*
D32*
X165250000Y-81500000D03*
X165250000Y-67250000D03*
D33*
X171500000Y-72000000D03*
D32*
X171750000Y-102500000D03*
X161250000Y-95000000D03*
D33*
X170500000Y-67250000D03*
X171500000Y-67250000D03*
D32*
X135345000Y-73845000D03*
X172500000Y-76500000D03*
X188500000Y-124250000D03*
%TO.N,+12V*%
X143500000Y-90750000D03*
X148000000Y-91500000D03*
X147750000Y-110500000D03*
X182250000Y-125250000D03*
X179250000Y-125250000D03*
X171500000Y-125250000D03*
X180750000Y-125250000D03*
X146500000Y-91500000D03*
X147250000Y-91500000D03*
X178000000Y-125250000D03*
X149250000Y-110750000D03*
X173000000Y-125250000D03*
X198750000Y-122000000D03*
X174500000Y-125250000D03*
X198750000Y-119000000D03*
X198750000Y-120000000D03*
X198000000Y-125250000D03*
X144000000Y-90000000D03*
X198750000Y-121000000D03*
X176250000Y-125250000D03*
X142000000Y-90750000D03*
X198750000Y-124000000D03*
X198750000Y-123000000D03*
X148750000Y-91500000D03*
X142750000Y-90750000D03*
%TO.N,/DE+*%
X145250000Y-89250000D03*
X140250000Y-82750000D03*
X143500000Y-87500000D03*
%TO.N,/RA-*%
X132750000Y-81250000D03*
%TO.N,/DE-*%
X137000000Y-82750000D03*
%TO.N,/RA+*%
X144500000Y-82750000D03*
%TO.N,/EN*%
X146750000Y-121750000D03*
X146768008Y-108791492D03*
%TO.N,/EN1_B*%
X150500000Y-69750000D03*
X163250000Y-67500000D03*
%TO.N,/EN2_A*%
X129250000Y-72500000D03*
X129250000Y-67500000D03*
%TO.N,/RX2*%
X152500000Y-79000000D03*
X151000000Y-77500000D03*
%TO.N,/TX2*%
X153065687Y-78434313D03*
X151569361Y-76938011D03*
%TO.N,/RX0*%
X190250000Y-94500000D03*
X162750000Y-89750000D03*
X179250000Y-93250000D03*
%TO.N,/SDA*%
X160000000Y-91250000D03*
%TO.N,/PEC*%
X193000000Y-93000000D03*
%TO.N,/SCL*%
X160750000Y-82500000D03*
X160750000Y-90250000D03*
%TO.N,/TX0*%
X179250000Y-91000000D03*
X163750000Y-89750000D03*
X191500000Y-92750000D03*
X163750000Y-87491500D03*
%TO.N,/AUX4*%
X197000000Y-95200000D03*
%TO.N,/AUX7*%
X190500000Y-110500000D03*
X179750000Y-94750000D03*
X161750000Y-89750000D03*
X161750000Y-82559500D03*
%TO.N,+12V*%
X151750000Y-108771500D03*
X152824152Y-108771500D03*
%TD*%
D34*
%TO.N,+5V*%
X162750000Y-62062500D02*
X168250000Y-67562500D01*
X162750000Y-60250000D02*
X162750000Y-62062500D01*
D35*
X169412500Y-66400000D02*
X175500000Y-66400000D01*
X181600000Y-72500000D02*
X187540000Y-72500000D01*
X187540000Y-72500000D02*
X195000000Y-79960000D01*
X168250000Y-67562500D02*
X169412500Y-66400000D01*
X175500000Y-66400000D02*
X181600000Y-72500000D01*
D36*
%TO.N,/AUX7*%
X179750000Y-96164124D02*
X179750000Y-94750000D01*
X182085876Y-98500000D02*
X179750000Y-96164124D01*
X184500000Y-99250000D02*
X183750000Y-98500000D01*
X190500000Y-100750000D02*
X189000000Y-99250000D01*
X190500000Y-110500000D02*
X190500000Y-100750000D01*
X189000000Y-99250000D02*
X184500000Y-99250000D01*
X183750000Y-98500000D02*
X182085876Y-98500000D01*
%TO.N,/AUX8*%
X189250000Y-98500000D02*
X186500000Y-98500000D01*
X191250000Y-113750000D02*
X191250000Y-100500000D01*
X192250000Y-117850000D02*
X192250000Y-114750000D01*
X191250000Y-100500000D02*
X189250000Y-98500000D01*
X186500000Y-98500000D02*
X185000000Y-97000000D01*
X195000000Y-120600000D02*
X192250000Y-117850000D01*
X192250000Y-114750000D02*
X191250000Y-113750000D01*
%TO.N,GND*%
X138190000Y-71000000D02*
X135345000Y-73845000D01*
X150750000Y-71000000D02*
X138190000Y-71000000D01*
D37*
X150750000Y-73000000D02*
X150750000Y-72000000D01*
X150750000Y-72000000D02*
X150750000Y-71000000D01*
X162750000Y-123000000D02*
X158250000Y-123000000D01*
X158250000Y-122000000D02*
X162750000Y-122000000D01*
X162750000Y-121000000D02*
X158250000Y-121000000D01*
D36*
%TO.N,/UART_RX*%
X169250000Y-95090000D02*
X182400000Y-81940000D01*
X169250000Y-102490658D02*
X169250000Y-95090000D01*
X164240658Y-107500000D02*
X169250000Y-102490658D01*
X161500000Y-107500000D02*
X164240658Y-107500000D01*
%TO.N,+3.3V*%
X168419000Y-102500000D02*
X168419000Y-74581000D01*
X165919000Y-105000000D02*
X168419000Y-102500000D01*
X161500000Y-105000000D02*
X165919000Y-105000000D01*
X168419000Y-74581000D02*
X170000000Y-73000000D01*
X130135500Y-92814500D02*
X129650000Y-93300000D01*
X130935500Y-92814500D02*
X130135500Y-92814500D01*
X183750000Y-74750000D02*
X180290000Y-74750000D01*
X185860000Y-76860000D02*
X183750000Y-74750000D01*
X180290000Y-74750000D02*
X178540000Y-73000000D01*
X178540000Y-73000000D02*
X170000000Y-73000000D01*
X192250000Y-79000000D02*
X190110000Y-76860000D01*
X190110000Y-76860000D02*
X185860000Y-76860000D01*
X192250000Y-94000000D02*
X192250000Y-79000000D01*
%TO.N,/UART_RX*%
X160809500Y-112440500D02*
X153000000Y-120250000D01*
X161500000Y-107500000D02*
X160809500Y-108190500D01*
X160809500Y-108190500D02*
X160809500Y-112440500D01*
X153000000Y-122000000D02*
X153000000Y-120250000D01*
X153000000Y-120250000D02*
X153000000Y-111500000D01*
%TO.N,/UART_TX*%
X159500000Y-105000000D02*
X159500000Y-107500000D01*
X159500000Y-103000000D02*
X159500000Y-105000000D01*
X157000000Y-102260000D02*
X158760000Y-102260000D01*
X158760000Y-102260000D02*
X159500000Y-103000000D01*
%TO.N,/EN*%
X152000000Y-106000000D02*
X144890000Y-106000000D01*
X153000000Y-103720000D02*
X153000000Y-105000000D01*
X155720000Y-101000000D02*
X153000000Y-103720000D01*
X158250000Y-101000000D02*
X155720000Y-101000000D01*
X159500000Y-99750000D02*
X158250000Y-101000000D01*
X153000000Y-105000000D02*
X152000000Y-106000000D01*
X159500000Y-97140000D02*
X159500000Y-99750000D01*
X157000000Y-94640000D02*
X159500000Y-97140000D01*
%TO.N,/PEC*%
X176250000Y-80287500D02*
X181512500Y-80287500D01*
X181512500Y-80287500D02*
X182400000Y-79400000D01*
%TO.N,/AUX8*%
X182640000Y-94640000D02*
X185000000Y-97000000D01*
X182400000Y-94640000D02*
X182640000Y-94640000D01*
%TO.N,/DIR2*%
X180534624Y-93940500D02*
X177809500Y-93940500D01*
X177809500Y-93940500D02*
X170000000Y-101750000D01*
X181000000Y-95780000D02*
X181000000Y-95750000D01*
X182400000Y-97180000D02*
X181000000Y-95780000D01*
X181000000Y-95750000D02*
X181000000Y-94405876D01*
X181000000Y-94405876D02*
X180534624Y-93940500D01*
%TO.N,/STEP2*%
X169581000Y-105419000D02*
X161500000Y-113500000D01*
X169581000Y-103692485D02*
X169581000Y-105419000D01*
X173553485Y-99720000D02*
X169581000Y-103692485D01*
X182400000Y-99720000D02*
X173553485Y-99720000D01*
%TO.N,/STA*%
X185125000Y-115250000D02*
X187000000Y-117125000D01*
X185000000Y-115250000D02*
X185125000Y-115250000D01*
%TO.N,+5V*%
X182400000Y-122580000D02*
X182400000Y-112420000D01*
%TO.N,/EN*%
X144890000Y-106913484D02*
X144890000Y-106000000D01*
X146768008Y-108791492D02*
X144890000Y-106913484D01*
%TO.N,/RX2*%
X154250000Y-80750000D02*
X154250000Y-96970000D01*
X154250000Y-96970000D02*
X157000000Y-99720000D01*
X152500000Y-79000000D02*
X154250000Y-80750000D01*
%TO.N,/TX2*%
X155250000Y-80618626D02*
X153065687Y-78434313D01*
X155250000Y-95430000D02*
X155250000Y-80618626D01*
X157000000Y-97180000D02*
X155250000Y-95430000D01*
%TO.N,/SDA*%
X159000000Y-89020000D02*
X157000000Y-87020000D01*
X159000000Y-90250000D02*
X159000000Y-89020000D01*
X160000000Y-91250000D02*
X159000000Y-90250000D01*
%TO.N,/TX0*%
X159750000Y-87000000D02*
X159520000Y-87000000D01*
X159520000Y-87000000D02*
X157000000Y-84480000D01*
%TO.N,/RX0*%
X161425000Y-81175000D02*
X157765000Y-81175000D01*
X157765000Y-81175000D02*
X157000000Y-81940000D01*
X162750000Y-82500000D02*
X161425000Y-81175000D01*
X162750000Y-82500000D02*
X162750000Y-89750000D01*
%TO.N,/AUX3*%
X181872500Y-102787500D02*
X182400000Y-102260000D01*
X176750000Y-102787500D02*
X181872500Y-102787500D01*
%TO.N,/AUX4*%
X188750000Y-105212500D02*
X188537500Y-105000000D01*
X188750000Y-108250000D02*
X188750000Y-105212500D01*
X186197500Y-107340000D02*
X182400000Y-107340000D01*
X188537500Y-105000000D02*
X186197500Y-107340000D01*
%TO.N,GND*%
X186462500Y-105000000D02*
X185000000Y-105000000D01*
%TO.N,/AUX4*%
X182560000Y-107500000D02*
X182400000Y-107340000D01*
%TO.N,GND*%
X181130000Y-109880000D02*
X180000000Y-108750000D01*
X182400000Y-109880000D02*
X181130000Y-109880000D01*
X172750000Y-111250000D02*
X172500000Y-111000000D01*
X175000000Y-111250000D02*
X172750000Y-111250000D01*
X181030000Y-111250000D02*
X182400000Y-109880000D01*
X175000000Y-111250000D02*
X181030000Y-111250000D01*
D34*
X176750000Y-100712500D02*
X173537500Y-100712500D01*
D36*
X165250000Y-91000000D02*
X165250000Y-81500000D01*
X164309500Y-68190500D02*
X165250000Y-67250000D01*
D34*
X173537500Y-100712500D02*
X171750000Y-102500000D01*
D36*
X153000000Y-67460000D02*
X153730500Y-68190500D01*
X187000000Y-124250000D02*
X188500000Y-124250000D01*
D34*
X172500000Y-76500000D02*
X174537500Y-76500000D01*
D36*
X177537500Y-64437500D02*
X183650000Y-70550000D01*
D34*
X183650000Y-70550000D02*
X190850000Y-70550000D01*
D36*
X161250000Y-95000000D02*
X165250000Y-91000000D01*
X190000000Y-124250000D02*
X188500000Y-124250000D01*
X153730500Y-68190500D02*
X164309500Y-68190500D01*
X135345000Y-73845000D02*
X135345000Y-77550000D01*
D34*
X190850000Y-70550000D02*
X192300000Y-72000000D01*
D36*
X168250000Y-64437500D02*
X177537500Y-64437500D01*
X168250000Y-64437500D02*
X168250000Y-64250000D01*
D35*
X170500000Y-67250000D02*
X170500000Y-72000000D01*
D34*
X174537500Y-76500000D02*
X176250000Y-78212500D01*
D35*
X171500000Y-67250000D02*
X171500000Y-72000000D01*
D36*
X168250000Y-64250000D02*
X172250000Y-60250000D01*
D35*
%TO.N,Net-(J1-Pad1)*%
X197500000Y-55675000D02*
X195275000Y-53450000D01*
X190000000Y-66700000D02*
X192300000Y-66700000D01*
X197500000Y-61500000D02*
X197500000Y-55675000D01*
X192300000Y-66700000D02*
X197500000Y-61500000D01*
%TO.N,Net-(J3-Pin_1)*%
X191500000Y-56500000D02*
X191460000Y-56540000D01*
X191460000Y-56540000D02*
X191460000Y-58000000D01*
X190195000Y-53450000D02*
X191500000Y-54755000D01*
X191500000Y-54755000D02*
X191500000Y-56500000D01*
D36*
%TO.N,+5V*%
X130750000Y-88000000D02*
X135500000Y-88000000D01*
X125585000Y-82835000D02*
X130750000Y-88000000D01*
X148979121Y-63499500D02*
X145250500Y-63499500D01*
D34*
X196196000Y-125304000D02*
X197750000Y-123750000D01*
X193250000Y-125304000D02*
X196196000Y-125304000D01*
D36*
X128750000Y-64500000D02*
X128000000Y-65250000D01*
X162750000Y-60250000D02*
X160000000Y-63000000D01*
X125585000Y-77390000D02*
X125585000Y-82835000D01*
X160000000Y-63000000D02*
X149478621Y-63000000D01*
X126121000Y-77390000D02*
X125585000Y-77390000D01*
D34*
X197750000Y-123750000D02*
X197750000Y-95516318D01*
D36*
X128000000Y-75250000D02*
X125860000Y-77390000D01*
D34*
X197750000Y-95516318D02*
X197754000Y-95512318D01*
D36*
X144250000Y-64500000D02*
X128750000Y-64500000D01*
X128000000Y-65250000D02*
X128000000Y-75250000D01*
D34*
X185124000Y-125304000D02*
X193250000Y-125304000D01*
D36*
X167562500Y-67562500D02*
X168250000Y-67562500D01*
X149478621Y-63000000D02*
X148979121Y-63499500D01*
X125860000Y-77390000D02*
X125585000Y-77390000D01*
X190000000Y-117125000D02*
X191750000Y-118875000D01*
X145250500Y-63499500D02*
X144250000Y-64500000D01*
D34*
X197754000Y-95512318D02*
X197754000Y-82714000D01*
X197754000Y-82714000D02*
X195000000Y-79960000D01*
X182400000Y-122580000D02*
X185124000Y-125304000D01*
D36*
X191750000Y-118875000D02*
X191750000Y-123804000D01*
X191750000Y-123804000D02*
X193250000Y-125304000D01*
%TO.N,/DE+*%
X138750000Y-83250000D02*
X139750000Y-83250000D01*
X139155000Y-82845000D02*
X138750000Y-83250000D01*
X143500000Y-87500000D02*
X145250000Y-89250000D01*
X139750000Y-83250000D02*
X140250000Y-82750000D01*
X139155000Y-77550000D02*
X139155000Y-82845000D01*
%TO.N,Net-(J7-Pin_2)*%
X136540000Y-86500000D02*
X138040000Y-88000000D01*
X130500000Y-86500000D02*
X136540000Y-86500000D01*
X134075000Y-77925000D02*
X134075000Y-77550000D01*
X130000000Y-82000000D02*
X134075000Y-77925000D01*
X130000000Y-86000000D02*
X130500000Y-86500000D01*
X130000000Y-82000000D02*
X130000000Y-86000000D01*
%TO.N,/RA-*%
X136615000Y-77550000D02*
X136615000Y-80431000D01*
X132000000Y-82750000D02*
X132000000Y-82000000D01*
X135796000Y-81250000D02*
X132750000Y-81250000D01*
X132000000Y-82000000D02*
X132750000Y-81250000D01*
X136615000Y-80431000D02*
X135796000Y-81250000D01*
%TO.N,/DE-*%
X137885000Y-80365000D02*
X135500000Y-82750000D01*
X136500000Y-83250000D02*
X137000000Y-82750000D01*
X135500000Y-83250000D02*
X136500000Y-83250000D01*
X137885000Y-77550000D02*
X137885000Y-80365000D01*
%TO.N,/RA+*%
X140425000Y-77550000D02*
X140425000Y-81175000D01*
X140425000Y-81175000D02*
X142000000Y-82750000D01*
X142000000Y-82750000D02*
X144500000Y-82750000D01*
%TO.N,/EN*%
X145730000Y-121750000D02*
X144780000Y-122700000D01*
X146750000Y-121750000D02*
X145730000Y-121750000D01*
%TO.N,/RX2*%
X157030000Y-99750000D02*
X157000000Y-99720000D01*
%TO.N,+3.3V*%
X142000000Y-85250000D02*
X138750000Y-85250000D01*
X189500000Y-96750000D02*
X192250000Y-94000000D01*
X153000000Y-72540000D02*
X153000000Y-77000000D01*
X150250000Y-81500000D02*
X150250000Y-85750000D01*
X130935500Y-110935500D02*
X139700000Y-119700000D01*
X169875000Y-73125000D02*
X156875000Y-73125000D01*
X187000000Y-97000000D02*
X187250000Y-96750000D01*
X192250000Y-112250000D02*
X193000000Y-113000000D01*
X130935500Y-92814500D02*
X130935500Y-107750000D01*
X150250000Y-79750000D02*
X150250000Y-81500000D01*
X146500000Y-85250000D02*
X142000000Y-85250000D01*
X138750000Y-85250000D02*
X135500000Y-85250000D01*
X187250000Y-96750000D02*
X189500000Y-96750000D01*
X193020000Y-112980000D02*
X195000000Y-112980000D01*
X152000000Y-78000000D02*
X150250000Y-79750000D01*
X132000000Y-85250000D02*
X135500000Y-85250000D01*
X130935500Y-108604500D02*
X130935500Y-107750000D01*
X130935500Y-107750000D02*
X130935500Y-110935500D01*
X129540000Y-110000000D02*
X130935500Y-108604500D01*
X150250000Y-85750000D02*
X144000000Y-92000000D01*
X131750000Y-92000000D02*
X130935500Y-92814500D01*
X170000000Y-73000000D02*
X169875000Y-73125000D01*
X153000000Y-77000000D02*
X152000000Y-78000000D01*
X139700000Y-119700000D02*
X139700000Y-122700000D01*
X144000000Y-92000000D02*
X140500000Y-92000000D01*
X195000000Y-115520000D02*
X195000000Y-112980000D01*
X156875000Y-73125000D02*
X152000000Y-78000000D01*
X150250000Y-81500000D02*
X146500000Y-85250000D01*
X193000000Y-113000000D02*
X193020000Y-112980000D01*
X161500000Y-99750000D02*
X161500000Y-105000000D01*
X140500000Y-92000000D02*
X131750000Y-92000000D01*
X192250000Y-94000000D02*
X192250000Y-112250000D01*
%TO.N,/UART_RX*%
X145000000Y-108000000D02*
X139270000Y-108000000D01*
X153000000Y-111500000D02*
X151000000Y-109500000D01*
X137160000Y-122700000D02*
X138960000Y-124500000D01*
X139270000Y-108000000D02*
X137270000Y-106000000D01*
X151000000Y-109500000D02*
X146500000Y-109500000D01*
X138960000Y-124500000D02*
X150500000Y-124500000D01*
X150500000Y-124500000D02*
X153000000Y-122000000D01*
X146500000Y-109500000D02*
X145000000Y-108000000D01*
%TO.N,unconnected-(U1-D15-Pad18)*%
X157160000Y-107500000D02*
X157000000Y-107340000D01*
%TO.N,/EN1_B*%
X150500000Y-69750000D02*
X150500000Y-64500000D01*
X159500000Y-63750000D02*
X163250000Y-67500000D01*
X151250000Y-63750000D02*
X159500000Y-63750000D01*
X150500000Y-64500000D02*
X151250000Y-63750000D01*
%TO.N,/EN2_A*%
X129250000Y-72500000D02*
X129250000Y-67500000D01*
D35*
%TO.N,/DIR2*%
X182580000Y-97000000D02*
X182400000Y-97180000D01*
D36*
%TO.N,Net-(D1-K)*%
X190000000Y-118875000D02*
X190000000Y-122250000D01*
%TO.N,Net-(D2-K)*%
X187000000Y-122250000D02*
X187000000Y-118875000D01*
%TO.N,/B1_1*%
X142190000Y-100760000D02*
X151000000Y-100760000D01*
X134730000Y-93300000D02*
X142190000Y-100760000D01*
%TO.N,/A2_1*%
X142190000Y-95680000D02*
X151000000Y-95680000D01*
X139810000Y-93300000D02*
X142190000Y-95680000D01*
X139810000Y-93300000D02*
X140050000Y-93300000D01*
%TO.N,/B2_1*%
X142190000Y-103300000D02*
X151000000Y-103300000D01*
X150950000Y-103250000D02*
X151000000Y-103300000D01*
X132190000Y-93300000D02*
X142190000Y-103300000D01*
%TO.N,/A1_1*%
X137270000Y-93300000D02*
X142190000Y-98220000D01*
X142190000Y-98220000D02*
X151000000Y-98220000D01*
%TO.N,/A1_2*%
X137160000Y-110000000D02*
X142160000Y-115000000D01*
X142160000Y-115000000D02*
X144250000Y-115000000D01*
X144250000Y-115000000D02*
X151000000Y-115000000D01*
%TO.N,/B2_2*%
X132080000Y-110821658D02*
X132080000Y-110000000D01*
X146670000Y-120080000D02*
X146500000Y-120250000D01*
X151000000Y-120080000D02*
X146670000Y-120080000D01*
X141508342Y-120250000D02*
X132080000Y-110821658D01*
X146500000Y-120250000D02*
X141508342Y-120250000D01*
%TO.N,/A2_2*%
X139700000Y-110000000D02*
X142160000Y-112460000D01*
X142160000Y-112460000D02*
X151000000Y-112460000D01*
X139700000Y-110000000D02*
X139700000Y-110200000D01*
%TO.N,/B1_2*%
X141093683Y-117540000D02*
X143250000Y-117540000D01*
X134620000Y-111066317D02*
X141093683Y-117540000D01*
X143250000Y-117540000D02*
X151000000Y-117540000D01*
X134620000Y-110000000D02*
X134620000Y-111066317D01*
%TO.N,/RX2*%
X151000000Y-77405000D02*
X148445000Y-74850000D01*
X151000000Y-77500000D02*
X151000000Y-77405000D01*
%TO.N,/TX2*%
X151569361Y-75434361D02*
X148445000Y-72310000D01*
X151569361Y-76938011D02*
X151569361Y-75434361D01*
%TO.N,/RX0*%
X189005500Y-93255500D02*
X190250000Y-94500000D01*
X179250000Y-93250000D02*
X179255500Y-93255500D01*
X179255500Y-93255500D02*
X189005500Y-93255500D01*
%TO.N,/PEC*%
X193000000Y-105900000D02*
X195000000Y-107900000D01*
X193000000Y-93000000D02*
X193000000Y-105900000D01*
%TO.N,/SCL*%
X160750000Y-82500000D02*
X160750000Y-90250000D01*
%TO.N,/TX0*%
X179305500Y-90944500D02*
X189694500Y-90944500D01*
X189694500Y-90944500D02*
X191500000Y-92750000D01*
X163750000Y-87491500D02*
X163750000Y-89750000D01*
X179250000Y-91000000D02*
X179305500Y-90944500D01*
%TO.N,/AUX4*%
X197000000Y-95200000D02*
X195000000Y-95200000D01*
%TO.N,/AUX7*%
X161750000Y-82559500D02*
X161750000Y-89750000D01*
%TD*%
%TA.AperFunction,Conductor*%
%TO.N,+12V*%
G36*
X124055703Y-77496786D02*
G01*
X124093477Y-77555564D01*
X124096973Y-77571101D01*
X124116523Y-77694534D01*
X124179781Y-77889223D01*
X124227333Y-77982547D01*
X124271279Y-78068796D01*
X124272715Y-78071613D01*
X124393028Y-78237213D01*
X124537786Y-78381971D01*
X124703388Y-78502286D01*
X124703390Y-78502287D01*
X124826295Y-78564910D01*
X124877090Y-78612883D01*
X124894000Y-78675394D01*
X124894000Y-82903058D01*
X124895989Y-82913057D01*
X124895989Y-82913058D01*
X124920553Y-83036549D01*
X124920556Y-83036561D01*
X124972642Y-83162309D01*
X124972644Y-83162312D01*
X125048263Y-83275485D01*
X125048269Y-83275492D01*
X130309507Y-88536730D01*
X130309514Y-88536736D01*
X130422687Y-88612355D01*
X130422690Y-88612357D01*
X130516266Y-88651117D01*
X130548443Y-88664445D01*
X130548447Y-88664445D01*
X130548448Y-88664446D01*
X130681939Y-88691000D01*
X130681942Y-88691000D01*
X130681943Y-88691000D01*
X130818057Y-88691000D01*
X134025501Y-88691000D01*
X134092540Y-88710685D01*
X134138295Y-88763489D01*
X134149501Y-88815000D01*
X134149501Y-88897876D01*
X134155908Y-88957483D01*
X134206202Y-89092328D01*
X134206206Y-89092335D01*
X134292452Y-89207544D01*
X134292455Y-89207547D01*
X134407664Y-89293793D01*
X134407671Y-89293797D01*
X134542517Y-89344091D01*
X134542516Y-89344091D01*
X134549444Y-89344835D01*
X134602127Y-89350500D01*
X136397872Y-89350499D01*
X136457483Y-89344091D01*
X136592331Y-89293796D01*
X136707546Y-89207546D01*
X136793796Y-89092331D01*
X136842810Y-88960916D01*
X136884681Y-88904984D01*
X136950145Y-88880566D01*
X137018418Y-88895417D01*
X137046673Y-88916569D01*
X137168599Y-89038495D01*
X137265384Y-89106265D01*
X137362165Y-89174032D01*
X137362167Y-89174033D01*
X137362170Y-89174035D01*
X137576337Y-89273903D01*
X137804592Y-89335063D01*
X137981034Y-89350500D01*
X138039999Y-89355659D01*
X138040000Y-89355659D01*
X138040001Y-89355659D01*
X138098966Y-89350500D01*
X138275408Y-89335063D01*
X138503663Y-89273903D01*
X138717830Y-89174035D01*
X138911401Y-89038495D01*
X139078495Y-88871401D01*
X139203634Y-88692684D01*
X139214034Y-88677832D01*
X139214034Y-88677831D01*
X139214035Y-88677830D01*
X139313903Y-88463663D01*
X139375063Y-88235408D01*
X139395659Y-88000000D01*
X139375063Y-87764592D01*
X139313903Y-87536337D01*
X139214035Y-87322171D01*
X139176871Y-87269094D01*
X139078494Y-87128597D01*
X138911402Y-86961506D01*
X138911395Y-86961501D01*
X138875117Y-86936099D01*
X138872521Y-86934281D01*
X138717834Y-86825967D01*
X138717830Y-86825965D01*
X138660891Y-86799414D01*
X138503663Y-86726097D01*
X138503659Y-86726096D01*
X138503655Y-86726094D01*
X138275413Y-86664938D01*
X138275403Y-86664936D01*
X138040001Y-86644341D01*
X138039999Y-86644341D01*
X137804597Y-86664936D01*
X137804593Y-86664936D01*
X137804592Y-86664937D01*
X137804587Y-86664938D01*
X137804584Y-86664939D01*
X137777182Y-86672281D01*
X137707332Y-86670617D01*
X137657409Y-86640187D01*
X137169904Y-86152681D01*
X137136419Y-86091358D01*
X137141403Y-86021666D01*
X137183275Y-85965733D01*
X137248739Y-85941316D01*
X137257585Y-85941000D01*
X137559343Y-85941000D01*
X137626382Y-85960685D01*
X137664880Y-85999900D01*
X137707288Y-86068656D01*
X137831344Y-86192712D01*
X137980666Y-86284814D01*
X138147203Y-86339999D01*
X138249991Y-86350500D01*
X139250008Y-86350499D01*
X139250016Y-86350498D01*
X139250019Y-86350498D01*
X139306302Y-86344748D01*
X139352797Y-86339999D01*
X139519334Y-86284814D01*
X139668656Y-86192712D01*
X139792712Y-86068656D01*
X139835119Y-85999901D01*
X139887066Y-85953179D01*
X139940657Y-85941000D01*
X140809343Y-85941000D01*
X140876382Y-85960685D01*
X140914880Y-85999900D01*
X140957288Y-86068656D01*
X141081344Y-86192712D01*
X141230666Y-86284814D01*
X141397203Y-86339999D01*
X141499991Y-86350500D01*
X142500008Y-86350499D01*
X142500016Y-86350498D01*
X142500019Y-86350498D01*
X142556302Y-86344748D01*
X142602797Y-86339999D01*
X142769334Y-86284814D01*
X142918656Y-86192712D01*
X143042712Y-86068656D01*
X143085119Y-85999901D01*
X143137066Y-85953179D01*
X143190657Y-85941000D01*
X146568060Y-85941000D01*
X146674354Y-85919856D01*
X146701557Y-85914445D01*
X146785393Y-85879719D01*
X146827309Y-85862357D01*
X146827312Y-85862355D01*
X146940487Y-85786735D01*
X149347319Y-83379901D01*
X149408642Y-83346417D01*
X149478334Y-83351401D01*
X149534267Y-83393273D01*
X149558684Y-83458737D01*
X149559000Y-83467583D01*
X149559000Y-85412415D01*
X149539315Y-85479454D01*
X149522681Y-85500096D01*
X146142272Y-88880504D01*
X146080949Y-88913989D01*
X146011257Y-88909005D01*
X145955324Y-88867133D01*
X145949606Y-88858808D01*
X145879816Y-88747738D01*
X145752262Y-88620184D01*
X145687528Y-88579509D01*
X145599519Y-88524209D01*
X145475345Y-88480758D01*
X145428619Y-88451398D01*
X144298599Y-87321377D01*
X144269238Y-87274650D01*
X144257320Y-87240591D01*
X144225789Y-87150478D01*
X144212041Y-87128599D01*
X144143803Y-87019998D01*
X144129816Y-86997738D01*
X144002262Y-86870184D01*
X143988734Y-86861684D01*
X143849523Y-86774211D01*
X143679254Y-86714631D01*
X143679249Y-86714630D01*
X143500004Y-86694435D01*
X143499996Y-86694435D01*
X143320750Y-86714630D01*
X143320745Y-86714631D01*
X143150476Y-86774211D01*
X142997737Y-86870184D01*
X142870184Y-86997737D01*
X142774211Y-87150476D01*
X142714631Y-87320745D01*
X142714630Y-87320750D01*
X142694435Y-87499996D01*
X142694435Y-87500003D01*
X142714630Y-87679249D01*
X142714631Y-87679254D01*
X142774211Y-87849523D01*
X142823089Y-87927311D01*
X142870184Y-88002262D01*
X142997738Y-88129816D01*
X143073814Y-88177618D01*
X143147296Y-88223790D01*
X143150478Y-88225789D01*
X143274651Y-88269238D01*
X143321377Y-88298599D01*
X144451398Y-89428619D01*
X144480758Y-89475345D01*
X144524209Y-89599519D01*
X144524211Y-89599522D01*
X144620184Y-89752262D01*
X144747738Y-89879816D01*
X144858796Y-89949598D01*
X144905086Y-90001931D01*
X144915735Y-90070985D01*
X144887360Y-90134833D01*
X144880504Y-90142272D01*
X143750097Y-91272681D01*
X143688774Y-91306166D01*
X143662416Y-91309000D01*
X131681940Y-91309000D01*
X131589888Y-91327311D01*
X131589887Y-91327311D01*
X131548450Y-91335553D01*
X131548438Y-91335556D01*
X131422695Y-91387640D01*
X131422682Y-91387647D01*
X131309514Y-91463264D01*
X131309510Y-91463267D01*
X130685597Y-92087181D01*
X130624274Y-92120666D01*
X130597916Y-92123500D01*
X130121381Y-92123500D01*
X130086137Y-92117286D01*
X130085932Y-92118054D01*
X129868675Y-92059839D01*
X129868668Y-92059838D01*
X129650002Y-92040708D01*
X129649998Y-92040708D01*
X129431331Y-92059838D01*
X129431324Y-92059839D01*
X129329286Y-92087181D01*
X129219297Y-92116653D01*
X129219295Y-92116653D01*
X129219291Y-92116655D01*
X129020357Y-92209419D01*
X129020349Y-92209423D01*
X128840547Y-92335322D01*
X128840541Y-92335327D01*
X128685327Y-92490541D01*
X128685322Y-92490547D01*
X128559423Y-92670349D01*
X128559419Y-92670357D01*
X128492382Y-92814120D01*
X128446210Y-92866560D01*
X128379017Y-92885712D01*
X128312135Y-92865496D01*
X128267618Y-92814120D01*
X128240032Y-92754963D01*
X128200579Y-92670354D01*
X128200577Y-92670351D01*
X128200576Y-92670349D01*
X128074677Y-92490547D01*
X128074672Y-92490541D01*
X127919458Y-92335327D01*
X127919452Y-92335322D01*
X127739650Y-92209423D01*
X127739642Y-92209419D01*
X127540708Y-92116655D01*
X127540706Y-92116654D01*
X127540703Y-92116653D01*
X127386785Y-92075410D01*
X127328675Y-92059839D01*
X127328668Y-92059838D01*
X127110002Y-92040708D01*
X127109998Y-92040708D01*
X126891331Y-92059838D01*
X126891324Y-92059839D01*
X126789286Y-92087181D01*
X126679297Y-92116653D01*
X126679295Y-92116653D01*
X126679291Y-92116655D01*
X126480357Y-92209419D01*
X126480349Y-92209423D01*
X126300547Y-92335322D01*
X126300541Y-92335327D01*
X126145327Y-92490541D01*
X126145322Y-92490547D01*
X126019423Y-92670349D01*
X126019419Y-92670357D01*
X125926655Y-92869291D01*
X125926653Y-92869295D01*
X125926653Y-92869297D01*
X125905394Y-92948634D01*
X125869839Y-93081324D01*
X125869838Y-93081331D01*
X125850708Y-93299997D01*
X125850708Y-93300002D01*
X125869838Y-93518668D01*
X125869839Y-93518675D01*
X125874312Y-93535368D01*
X125926653Y-93730703D01*
X125926654Y-93730706D01*
X125926655Y-93730708D01*
X126019419Y-93929642D01*
X126019423Y-93929650D01*
X126145322Y-94109452D01*
X126145327Y-94109458D01*
X126300541Y-94264672D01*
X126300547Y-94264677D01*
X126480349Y-94390576D01*
X126480351Y-94390577D01*
X126480354Y-94390579D01*
X126679297Y-94483347D01*
X126891326Y-94540161D01*
X127047521Y-94553826D01*
X127109998Y-94559292D01*
X127110000Y-94559292D01*
X127110002Y-94559292D01*
X127164668Y-94554509D01*
X127328674Y-94540161D01*
X127540703Y-94483347D01*
X127739646Y-94390579D01*
X127919457Y-94264674D01*
X128074674Y-94109457D01*
X128200579Y-93929646D01*
X128267618Y-93785878D01*
X128313790Y-93733439D01*
X128380983Y-93714287D01*
X128447864Y-93734502D01*
X128492381Y-93785878D01*
X128509899Y-93823444D01*
X128559419Y-93929642D01*
X128559423Y-93929650D01*
X128685322Y-94109452D01*
X128685327Y-94109458D01*
X128840541Y-94264672D01*
X128840547Y-94264677D01*
X129020349Y-94390576D01*
X129020351Y-94390577D01*
X129020354Y-94390579D01*
X129219297Y-94483347D01*
X129431326Y-94540161D01*
X129587521Y-94553826D01*
X129649998Y-94559292D01*
X129650000Y-94559292D01*
X129650002Y-94559292D01*
X129704668Y-94554509D01*
X129868674Y-94540161D01*
X130080703Y-94483347D01*
X130080707Y-94483344D01*
X130085932Y-94481945D01*
X130086421Y-94483772D01*
X130147795Y-94479860D01*
X130208857Y-94513819D01*
X130241867Y-94575400D01*
X130244500Y-94600819D01*
X130244500Y-104699180D01*
X130224815Y-104766219D01*
X130172011Y-104811974D01*
X130102853Y-104821918D01*
X130086028Y-104817696D01*
X130085932Y-104818055D01*
X130080707Y-104816654D01*
X130080703Y-104816653D01*
X129905046Y-104769585D01*
X129868675Y-104759839D01*
X129868668Y-104759838D01*
X129650002Y-104740708D01*
X129649998Y-104740708D01*
X129431331Y-104759838D01*
X129431324Y-104759839D01*
X129308902Y-104792642D01*
X129219297Y-104816653D01*
X129219295Y-104816653D01*
X129219291Y-104816655D01*
X129020357Y-104909419D01*
X129020349Y-104909423D01*
X128840547Y-105035322D01*
X128840541Y-105035327D01*
X128685327Y-105190541D01*
X128685322Y-105190547D01*
X128559423Y-105370349D01*
X128559419Y-105370357D01*
X128492382Y-105514120D01*
X128446210Y-105566560D01*
X128379017Y-105585712D01*
X128312135Y-105565496D01*
X128267618Y-105514120D01*
X128233281Y-105440485D01*
X128200579Y-105370354D01*
X128200577Y-105370351D01*
X128200576Y-105370349D01*
X128074677Y-105190547D01*
X128074672Y-105190541D01*
X127919458Y-105035327D01*
X127919452Y-105035322D01*
X127739650Y-104909423D01*
X127739642Y-104909419D01*
X127540708Y-104816655D01*
X127540706Y-104816654D01*
X127540703Y-104816653D01*
X127365046Y-104769585D01*
X127328675Y-104759839D01*
X127328668Y-104759838D01*
X127110002Y-104740708D01*
X127109998Y-104740708D01*
X126891331Y-104759838D01*
X126891324Y-104759839D01*
X126768902Y-104792642D01*
X126679297Y-104816653D01*
X126679295Y-104816653D01*
X126679291Y-104816655D01*
X126480357Y-104909419D01*
X126480349Y-104909423D01*
X126300547Y-105035322D01*
X126300541Y-105035327D01*
X126145327Y-105190541D01*
X126145322Y-105190547D01*
X126019423Y-105370349D01*
X126019419Y-105370357D01*
X125926655Y-105569291D01*
X125926653Y-105569295D01*
X125926653Y-105569297D01*
X125912917Y-105620559D01*
X125869839Y-105781324D01*
X125869838Y-105781331D01*
X125850708Y-105999997D01*
X125850708Y-106000002D01*
X125869838Y-106218668D01*
X125869839Y-106218675D01*
X125875515Y-106239856D01*
X125926653Y-106430703D01*
X125926654Y-106430706D01*
X125926655Y-106430708D01*
X126019419Y-106629642D01*
X126019423Y-106629650D01*
X126145322Y-106809452D01*
X126145327Y-106809458D01*
X126300541Y-106964672D01*
X126300547Y-106964677D01*
X126480349Y-107090576D01*
X126480351Y-107090577D01*
X126480354Y-107090579D01*
X126679297Y-107183347D01*
X126891326Y-107240161D01*
X127047521Y-107253826D01*
X127109998Y-107259292D01*
X127110000Y-107259292D01*
X127110002Y-107259292D01*
X127164786Y-107254499D01*
X127328674Y-107240161D01*
X127540703Y-107183347D01*
X127739646Y-107090579D01*
X127919457Y-106964674D01*
X128074674Y-106809457D01*
X128200579Y-106629646D01*
X128267618Y-106485878D01*
X128313790Y-106433439D01*
X128380983Y-106414287D01*
X128447864Y-106434502D01*
X128492382Y-106485879D01*
X128559419Y-106629642D01*
X128559423Y-106629650D01*
X128685322Y-106809452D01*
X128685327Y-106809458D01*
X128840541Y-106964672D01*
X128840547Y-106964677D01*
X129020349Y-107090576D01*
X129020351Y-107090577D01*
X129020354Y-107090579D01*
X129219297Y-107183347D01*
X129431326Y-107240161D01*
X129587521Y-107253826D01*
X129649998Y-107259292D01*
X129650000Y-107259292D01*
X129650002Y-107259292D01*
X129704786Y-107254499D01*
X129868674Y-107240161D01*
X130080703Y-107183347D01*
X130080707Y-107183344D01*
X130085932Y-107181945D01*
X130086421Y-107183772D01*
X130147795Y-107179860D01*
X130208857Y-107213819D01*
X130241867Y-107275400D01*
X130244500Y-107300819D01*
X130244500Y-108266915D01*
X130224815Y-108333954D01*
X130208181Y-108354596D01*
X129840263Y-108722513D01*
X129778940Y-108755998D01*
X129741775Y-108758360D01*
X129540002Y-108740708D01*
X129539998Y-108740708D01*
X129321331Y-108759838D01*
X129321324Y-108759839D01*
X129218047Y-108787513D01*
X129109297Y-108816653D01*
X129109295Y-108816653D01*
X129109291Y-108816655D01*
X128910357Y-108909419D01*
X128910349Y-108909423D01*
X128730547Y-109035322D01*
X128730541Y-109035327D01*
X128575327Y-109190541D01*
X128575322Y-109190547D01*
X128449423Y-109370349D01*
X128449419Y-109370357D01*
X128382382Y-109514120D01*
X128336210Y-109566560D01*
X128269017Y-109585712D01*
X128202135Y-109565496D01*
X128157618Y-109514120D01*
X128094991Y-109379816D01*
X128090579Y-109370354D01*
X128090577Y-109370351D01*
X128090576Y-109370349D01*
X127964677Y-109190547D01*
X127964672Y-109190541D01*
X127809458Y-109035327D01*
X127809452Y-109035322D01*
X127629650Y-108909423D01*
X127629642Y-108909419D01*
X127430708Y-108816655D01*
X127430706Y-108816654D01*
X127430703Y-108816653D01*
X127261827Y-108771402D01*
X127218675Y-108759839D01*
X127218668Y-108759838D01*
X127000002Y-108740708D01*
X126999998Y-108740708D01*
X126781331Y-108759838D01*
X126781324Y-108759839D01*
X126678047Y-108787513D01*
X126569297Y-108816653D01*
X126569295Y-108816653D01*
X126569291Y-108816655D01*
X126370357Y-108909419D01*
X126370349Y-108909423D01*
X126190547Y-109035322D01*
X126190541Y-109035327D01*
X126035327Y-109190541D01*
X126035322Y-109190547D01*
X125909423Y-109370349D01*
X125909419Y-109370357D01*
X125816655Y-109569291D01*
X125816653Y-109569295D01*
X125816653Y-109569297D01*
X125808453Y-109599901D01*
X125759839Y-109781324D01*
X125759838Y-109781331D01*
X125740708Y-109999997D01*
X125740708Y-110000002D01*
X125759831Y-110218589D01*
X125759839Y-110218674D01*
X125816653Y-110430703D01*
X125816654Y-110430706D01*
X125816655Y-110430708D01*
X125909419Y-110629642D01*
X125909423Y-110629650D01*
X126035322Y-110809452D01*
X126035327Y-110809458D01*
X126190541Y-110964672D01*
X126190547Y-110964677D01*
X126370349Y-111090576D01*
X126370351Y-111090577D01*
X126370354Y-111090579D01*
X126569297Y-111183347D01*
X126781326Y-111240161D01*
X126937521Y-111253826D01*
X126999998Y-111259292D01*
X127000000Y-111259292D01*
X127000002Y-111259292D01*
X127054668Y-111254509D01*
X127218674Y-111240161D01*
X127430703Y-111183347D01*
X127629646Y-111090579D01*
X127809457Y-110964674D01*
X127964674Y-110809457D01*
X128090579Y-110629646D01*
X128157618Y-110485878D01*
X128203790Y-110433439D01*
X128270983Y-110414287D01*
X128337864Y-110434502D01*
X128382381Y-110485878D01*
X128388968Y-110500003D01*
X128449419Y-110629642D01*
X128449423Y-110629650D01*
X128575322Y-110809452D01*
X128575327Y-110809458D01*
X128730541Y-110964672D01*
X128730547Y-110964677D01*
X128910349Y-111090576D01*
X128910351Y-111090577D01*
X128910354Y-111090579D01*
X129109297Y-111183347D01*
X129321326Y-111240161D01*
X129477521Y-111253826D01*
X129539998Y-111259292D01*
X129540000Y-111259292D01*
X129540002Y-111259292D01*
X129594668Y-111254509D01*
X129758674Y-111240161D01*
X129970703Y-111183347D01*
X130121110Y-111113211D01*
X130190183Y-111102720D01*
X130253967Y-111131239D01*
X130288072Y-111178141D01*
X130323144Y-111262812D01*
X130398763Y-111375985D01*
X130398769Y-111375992D01*
X138972681Y-119949902D01*
X139006166Y-120011225D01*
X139009000Y-120037583D01*
X139009000Y-121587830D01*
X138989315Y-121654869D01*
X138956125Y-121689404D01*
X138890545Y-121735324D01*
X138890539Y-121735329D01*
X138735327Y-121890541D01*
X138735322Y-121890547D01*
X138609423Y-122070349D01*
X138609419Y-122070357D01*
X138542382Y-122214120D01*
X138496210Y-122266560D01*
X138429017Y-122285712D01*
X138362135Y-122265496D01*
X138317618Y-122214120D01*
X138265103Y-122101501D01*
X138250579Y-122070354D01*
X138250577Y-122070351D01*
X138250576Y-122070349D01*
X138124677Y-121890547D01*
X138124672Y-121890541D01*
X137969458Y-121735327D01*
X137969452Y-121735322D01*
X137789650Y-121609423D01*
X137789642Y-121609419D01*
X137590708Y-121516655D01*
X137590706Y-121516654D01*
X137590703Y-121516653D01*
X137421827Y-121471402D01*
X137378675Y-121459839D01*
X137378668Y-121459838D01*
X137160002Y-121440708D01*
X137159998Y-121440708D01*
X136941331Y-121459838D01*
X136941324Y-121459839D01*
X136818902Y-121492642D01*
X136729297Y-121516653D01*
X136729295Y-121516653D01*
X136729291Y-121516655D01*
X136530357Y-121609419D01*
X136530349Y-121609423D01*
X136350547Y-121735322D01*
X136350541Y-121735327D01*
X136195327Y-121890541D01*
X136195322Y-121890547D01*
X136069423Y-122070349D01*
X136069419Y-122070357D01*
X136002382Y-122214120D01*
X135956210Y-122266560D01*
X135889017Y-122285712D01*
X135822135Y-122265496D01*
X135777618Y-122214120D01*
X135725103Y-122101501D01*
X135710579Y-122070354D01*
X135710577Y-122070351D01*
X135710576Y-122070349D01*
X135584677Y-121890547D01*
X135584672Y-121890541D01*
X135429458Y-121735327D01*
X135429452Y-121735322D01*
X135249650Y-121609423D01*
X135249642Y-121609419D01*
X135050708Y-121516655D01*
X135050706Y-121516654D01*
X135050703Y-121516653D01*
X134881827Y-121471402D01*
X134838675Y-121459839D01*
X134838668Y-121459838D01*
X134620002Y-121440708D01*
X134619998Y-121440708D01*
X134401331Y-121459838D01*
X134401324Y-121459839D01*
X134278902Y-121492642D01*
X134189297Y-121516653D01*
X134189295Y-121516653D01*
X134189291Y-121516655D01*
X133990357Y-121609419D01*
X133990349Y-121609423D01*
X133810547Y-121735322D01*
X133810541Y-121735327D01*
X133655327Y-121890541D01*
X133655322Y-121890547D01*
X133529423Y-122070349D01*
X133529419Y-122070357D01*
X133462382Y-122214120D01*
X133416210Y-122266560D01*
X133349017Y-122285712D01*
X133282135Y-122265496D01*
X133237618Y-122214120D01*
X133185103Y-122101501D01*
X133170579Y-122070354D01*
X133170577Y-122070351D01*
X133170576Y-122070349D01*
X133044677Y-121890547D01*
X133044672Y-121890541D01*
X132889458Y-121735327D01*
X132889452Y-121735322D01*
X132709650Y-121609423D01*
X132709642Y-121609419D01*
X132510708Y-121516655D01*
X132510706Y-121516654D01*
X132510703Y-121516653D01*
X132341827Y-121471402D01*
X132298675Y-121459839D01*
X132298668Y-121459838D01*
X132080002Y-121440708D01*
X132079998Y-121440708D01*
X131861331Y-121459838D01*
X131861324Y-121459839D01*
X131738902Y-121492642D01*
X131649297Y-121516653D01*
X131649295Y-121516653D01*
X131649291Y-121516655D01*
X131450357Y-121609419D01*
X131450349Y-121609423D01*
X131270547Y-121735322D01*
X131270541Y-121735327D01*
X131115327Y-121890541D01*
X131115322Y-121890547D01*
X130989423Y-122070349D01*
X130989419Y-122070357D01*
X130922382Y-122214120D01*
X130876210Y-122266560D01*
X130809017Y-122285712D01*
X130742135Y-122265496D01*
X130697618Y-122214120D01*
X130645103Y-122101501D01*
X130630579Y-122070354D01*
X130630577Y-122070351D01*
X130630576Y-122070349D01*
X130504677Y-121890547D01*
X130504672Y-121890541D01*
X130349458Y-121735327D01*
X130349452Y-121735322D01*
X130169650Y-121609423D01*
X130169642Y-121609419D01*
X129970708Y-121516655D01*
X129970706Y-121516654D01*
X129970703Y-121516653D01*
X129801827Y-121471402D01*
X129758675Y-121459839D01*
X129758668Y-121459838D01*
X129540002Y-121440708D01*
X129539998Y-121440708D01*
X129321331Y-121459838D01*
X129321324Y-121459839D01*
X129198902Y-121492642D01*
X129109297Y-121516653D01*
X129109295Y-121516653D01*
X129109291Y-121516655D01*
X128910357Y-121609419D01*
X128910349Y-121609423D01*
X128730547Y-121735322D01*
X128730541Y-121735327D01*
X128575327Y-121890541D01*
X128575322Y-121890547D01*
X128449423Y-122070349D01*
X128449419Y-122070357D01*
X128382382Y-122214120D01*
X128336210Y-122266560D01*
X128269017Y-122285712D01*
X128202135Y-122265496D01*
X128157618Y-122214120D01*
X128105103Y-122101501D01*
X128090579Y-122070354D01*
X128090577Y-122070351D01*
X128090576Y-122070349D01*
X127964677Y-121890547D01*
X127964672Y-121890541D01*
X127809458Y-121735327D01*
X127809452Y-121735322D01*
X127629650Y-121609423D01*
X127629642Y-121609419D01*
X127430708Y-121516655D01*
X127430706Y-121516654D01*
X127430703Y-121516653D01*
X127261827Y-121471402D01*
X127218675Y-121459839D01*
X127218668Y-121459838D01*
X127000002Y-121440708D01*
X126999998Y-121440708D01*
X126781331Y-121459838D01*
X126781324Y-121459839D01*
X126658902Y-121492642D01*
X126569297Y-121516653D01*
X126569295Y-121516653D01*
X126569291Y-121516655D01*
X126370357Y-121609419D01*
X126370349Y-121609423D01*
X126190547Y-121735322D01*
X126190541Y-121735327D01*
X126035327Y-121890541D01*
X126035322Y-121890547D01*
X125909423Y-122070349D01*
X125909419Y-122070357D01*
X125816655Y-122269291D01*
X125816653Y-122269295D01*
X125816653Y-122269297D01*
X125801110Y-122327304D01*
X125759839Y-122481324D01*
X125759838Y-122481331D01*
X125740708Y-122699997D01*
X125740708Y-122700002D01*
X125759838Y-122918668D01*
X125759839Y-122918675D01*
X125769193Y-122953584D01*
X125816653Y-123130703D01*
X125816654Y-123130706D01*
X125816655Y-123130708D01*
X125909419Y-123329642D01*
X125909423Y-123329650D01*
X126035322Y-123509452D01*
X126035327Y-123509458D01*
X126190541Y-123664672D01*
X126190547Y-123664677D01*
X126370349Y-123790576D01*
X126370351Y-123790577D01*
X126370354Y-123790579D01*
X126569297Y-123883347D01*
X126781326Y-123940161D01*
X126937521Y-123953826D01*
X126999998Y-123959292D01*
X127000000Y-123959292D01*
X127000002Y-123959292D01*
X127054668Y-123954509D01*
X127218674Y-123940161D01*
X127430703Y-123883347D01*
X127629646Y-123790579D01*
X127809457Y-123664674D01*
X127964674Y-123509457D01*
X128090579Y-123329646D01*
X128157618Y-123185878D01*
X128203790Y-123133439D01*
X128270983Y-123114287D01*
X128337864Y-123134502D01*
X128382382Y-123185879D01*
X128449419Y-123329642D01*
X128449423Y-123329650D01*
X128575322Y-123509452D01*
X128575327Y-123509458D01*
X128730541Y-123664672D01*
X128730547Y-123664677D01*
X128910349Y-123790576D01*
X128910351Y-123790577D01*
X128910354Y-123790579D01*
X129109297Y-123883347D01*
X129321326Y-123940161D01*
X129477521Y-123953826D01*
X129539998Y-123959292D01*
X129540000Y-123959292D01*
X129540002Y-123959292D01*
X129594668Y-123954509D01*
X129758674Y-123940161D01*
X129970703Y-123883347D01*
X130169646Y-123790579D01*
X130349457Y-123664674D01*
X130504674Y-123509457D01*
X130630579Y-123329646D01*
X130697618Y-123185878D01*
X130743790Y-123133439D01*
X130810983Y-123114287D01*
X130877864Y-123134502D01*
X130922382Y-123185879D01*
X130989419Y-123329642D01*
X130989423Y-123329650D01*
X131115322Y-123509452D01*
X131115327Y-123509458D01*
X131270541Y-123664672D01*
X131270547Y-123664677D01*
X131450349Y-123790576D01*
X131450351Y-123790577D01*
X131450354Y-123790579D01*
X131649297Y-123883347D01*
X131861326Y-123940161D01*
X132017521Y-123953826D01*
X132079998Y-123959292D01*
X132080000Y-123959292D01*
X132080002Y-123959292D01*
X132134668Y-123954509D01*
X132298674Y-123940161D01*
X132510703Y-123883347D01*
X132709646Y-123790579D01*
X132889457Y-123664674D01*
X133044674Y-123509457D01*
X133170579Y-123329646D01*
X133237618Y-123185878D01*
X133283790Y-123133439D01*
X133350983Y-123114287D01*
X133417864Y-123134502D01*
X133462382Y-123185879D01*
X133529419Y-123329642D01*
X133529423Y-123329650D01*
X133655322Y-123509452D01*
X133655327Y-123509458D01*
X133810541Y-123664672D01*
X133810547Y-123664677D01*
X133990349Y-123790576D01*
X133990351Y-123790577D01*
X133990354Y-123790579D01*
X134189297Y-123883347D01*
X134401326Y-123940161D01*
X134557521Y-123953826D01*
X134619998Y-123959292D01*
X134620000Y-123959292D01*
X134620002Y-123959292D01*
X134674668Y-123954509D01*
X134838674Y-123940161D01*
X135050703Y-123883347D01*
X135249646Y-123790579D01*
X135429457Y-123664674D01*
X135584674Y-123509457D01*
X135710579Y-123329646D01*
X135777618Y-123185878D01*
X135823790Y-123133439D01*
X135890983Y-123114287D01*
X135957864Y-123134502D01*
X136002382Y-123185879D01*
X136069419Y-123329642D01*
X136069423Y-123329650D01*
X136195322Y-123509452D01*
X136195327Y-123509458D01*
X136350541Y-123664672D01*
X136350547Y-123664677D01*
X136530349Y-123790576D01*
X136530351Y-123790577D01*
X136530354Y-123790579D01*
X136729297Y-123883347D01*
X136941326Y-123940161D01*
X137097521Y-123953826D01*
X137159998Y-123959292D01*
X137160000Y-123959292D01*
X137160002Y-123959292D01*
X137227885Y-123953352D01*
X137361777Y-123941639D01*
X137430276Y-123955406D01*
X137460264Y-123977486D01*
X138519509Y-125036732D01*
X138519513Y-125036735D01*
X138632681Y-125112352D01*
X138632685Y-125112354D01*
X138632688Y-125112356D01*
X138758442Y-125164445D01*
X138777439Y-125168223D01*
X138833905Y-125179455D01*
X138891941Y-125191000D01*
X138891942Y-125191000D01*
X150568060Y-125191000D01*
X150657870Y-125173134D01*
X150701557Y-125164445D01*
X150827311Y-125112356D01*
X150869867Y-125083921D01*
X150940487Y-125036735D01*
X153536735Y-122440486D01*
X153612356Y-122327311D01*
X153664445Y-122201557D01*
X153684741Y-122099522D01*
X153691000Y-122068059D01*
X153691000Y-120999996D01*
X157444435Y-120999996D01*
X157444435Y-121000003D01*
X157464630Y-121179249D01*
X157464633Y-121179262D01*
X157524209Y-121349520D01*
X157577309Y-121434029D01*
X157596309Y-121501266D01*
X157577309Y-121565971D01*
X157524209Y-121650479D01*
X157464633Y-121820737D01*
X157464630Y-121820750D01*
X157444435Y-121999996D01*
X157444435Y-122000003D01*
X157464630Y-122179249D01*
X157464633Y-122179262D01*
X157524209Y-122349520D01*
X157577309Y-122434029D01*
X157596309Y-122501266D01*
X157577309Y-122565971D01*
X157524209Y-122650479D01*
X157464633Y-122820737D01*
X157464630Y-122820750D01*
X157444435Y-122999996D01*
X157444435Y-123000003D01*
X157464630Y-123179249D01*
X157464631Y-123179254D01*
X157524211Y-123349523D01*
X157614222Y-123492774D01*
X157620184Y-123502262D01*
X157747738Y-123629816D01*
X157900478Y-123725789D01*
X157931120Y-123736511D01*
X158070745Y-123785368D01*
X158070750Y-123785369D01*
X158249996Y-123805565D01*
X158250000Y-123805565D01*
X158250004Y-123805565D01*
X158429249Y-123785369D01*
X158429252Y-123785368D01*
X158429255Y-123785368D01*
X158599522Y-123725789D01*
X158752262Y-123629816D01*
X158752266Y-123629811D01*
X158757705Y-123625475D01*
X158759033Y-123627141D01*
X158811332Y-123598584D01*
X158837690Y-123595750D01*
X162162310Y-123595750D01*
X162229349Y-123615435D01*
X162242104Y-123625713D01*
X162242295Y-123625475D01*
X162247737Y-123629815D01*
X162247738Y-123629816D01*
X162400478Y-123725789D01*
X162431120Y-123736511D01*
X162570745Y-123785368D01*
X162570750Y-123785369D01*
X162749996Y-123805565D01*
X162750000Y-123805565D01*
X162750004Y-123805565D01*
X162929249Y-123785369D01*
X162929252Y-123785368D01*
X162929255Y-123785368D01*
X163099522Y-123725789D01*
X163252262Y-123629816D01*
X163379816Y-123502262D01*
X163475789Y-123349522D01*
X163535368Y-123179255D01*
X163535369Y-123179249D01*
X163555565Y-123000003D01*
X163555565Y-122999996D01*
X163535369Y-122820750D01*
X163535368Y-122820745D01*
X163475788Y-122650475D01*
X163422691Y-122565973D01*
X163403690Y-122498736D01*
X163422691Y-122434027D01*
X163475788Y-122349524D01*
X163475789Y-122349522D01*
X163535368Y-122179255D01*
X163544128Y-122101506D01*
X163555565Y-122000003D01*
X163555565Y-121999996D01*
X163535369Y-121820750D01*
X163535368Y-121820745D01*
X163475788Y-121650475D01*
X163422691Y-121565973D01*
X163403690Y-121498736D01*
X163422691Y-121434027D01*
X163475788Y-121349524D01*
X163475789Y-121349522D01*
X163535368Y-121179255D01*
X163535369Y-121179249D01*
X163555565Y-121000003D01*
X163555565Y-120999996D01*
X163535369Y-120820750D01*
X163535368Y-120820745D01*
X163475789Y-120650478D01*
X163379816Y-120497738D01*
X163252262Y-120370184D01*
X163199740Y-120337182D01*
X163099523Y-120274211D01*
X162929254Y-120214631D01*
X162929249Y-120214630D01*
X162750004Y-120194435D01*
X162749996Y-120194435D01*
X162570750Y-120214630D01*
X162570745Y-120214631D01*
X162400476Y-120274211D01*
X162247737Y-120370184D01*
X162242295Y-120374525D01*
X162240966Y-120372858D01*
X162188668Y-120401416D01*
X162162310Y-120404250D01*
X158837690Y-120404250D01*
X158770651Y-120384565D01*
X158757895Y-120374286D01*
X158757705Y-120374525D01*
X158752262Y-120370184D01*
X158599523Y-120274211D01*
X158429254Y-120214631D01*
X158429249Y-120214630D01*
X158250004Y-120194435D01*
X158249996Y-120194435D01*
X158070750Y-120214630D01*
X158070745Y-120214631D01*
X157900476Y-120274211D01*
X157747737Y-120370184D01*
X157620184Y-120497737D01*
X157524211Y-120650476D01*
X157464631Y-120820745D01*
X157464630Y-120820750D01*
X157444435Y-120999996D01*
X153691000Y-120999996D01*
X153691000Y-120587582D01*
X153710685Y-120520543D01*
X153727314Y-120499906D01*
X155848509Y-118378711D01*
X166149500Y-118378711D01*
X166149500Y-118621288D01*
X166181161Y-118861785D01*
X166243947Y-119096104D01*
X166333686Y-119312752D01*
X166336776Y-119320212D01*
X166458064Y-119530289D01*
X166458066Y-119530292D01*
X166458067Y-119530293D01*
X166605733Y-119722736D01*
X166605739Y-119722743D01*
X166777256Y-119894260D01*
X166777262Y-119894265D01*
X166969711Y-120041936D01*
X167179788Y-120163224D01*
X167403900Y-120256054D01*
X167638211Y-120318838D01*
X167815689Y-120342203D01*
X167878711Y-120350500D01*
X167878712Y-120350500D01*
X168121289Y-120350500D01*
X168184311Y-120342203D01*
X168361789Y-120318838D01*
X168596100Y-120256054D01*
X168820212Y-120163224D01*
X169030289Y-120041936D01*
X169222738Y-119894265D01*
X169394265Y-119722738D01*
X169541936Y-119530289D01*
X169663224Y-119320212D01*
X169756054Y-119096100D01*
X169818838Y-118861789D01*
X169850500Y-118621288D01*
X169850500Y-118378712D01*
X169818838Y-118138211D01*
X169756054Y-117903900D01*
X169663224Y-117679788D01*
X169541936Y-117469711D01*
X169394265Y-117277262D01*
X169394260Y-117277256D01*
X169222743Y-117105739D01*
X169222736Y-117105733D01*
X169030293Y-116958067D01*
X169030292Y-116958066D01*
X169030289Y-116958064D01*
X168820212Y-116836776D01*
X168802200Y-116829315D01*
X168596104Y-116743947D01*
X168409831Y-116694035D01*
X168361789Y-116681162D01*
X168361788Y-116681161D01*
X168361785Y-116681161D01*
X168121289Y-116649500D01*
X168121288Y-116649500D01*
X167878712Y-116649500D01*
X167878711Y-116649500D01*
X167638214Y-116681161D01*
X167403895Y-116743947D01*
X167179794Y-116836773D01*
X167179785Y-116836777D01*
X166969706Y-116958067D01*
X166777263Y-117105733D01*
X166777256Y-117105739D01*
X166605739Y-117277256D01*
X166605733Y-117277263D01*
X166458067Y-117469706D01*
X166336777Y-117679785D01*
X166336773Y-117679794D01*
X166243947Y-117903895D01*
X166181161Y-118138214D01*
X166149500Y-118378711D01*
X155848509Y-118378711D01*
X160531888Y-113695331D01*
X160593209Y-113661848D01*
X160662901Y-113666832D01*
X160718834Y-113708704D01*
X160736607Y-113742056D01*
X160740262Y-113752500D01*
X160774210Y-113849521D01*
X160784962Y-113866632D01*
X160870184Y-114002262D01*
X160997738Y-114129816D01*
X161150478Y-114225789D01*
X161237168Y-114256123D01*
X161320745Y-114285368D01*
X161320750Y-114285369D01*
X161499996Y-114305565D01*
X161500000Y-114305565D01*
X161500004Y-114305565D01*
X161679249Y-114285369D01*
X161679252Y-114285368D01*
X161679255Y-114285368D01*
X161849522Y-114225789D01*
X162002262Y-114129816D01*
X162129816Y-114002262D01*
X162225789Y-113849522D01*
X162269239Y-113725345D01*
X162298597Y-113678623D01*
X167189708Y-108787513D01*
X173775000Y-108787513D01*
X173775000Y-108925000D01*
X174750000Y-108925000D01*
X175250000Y-108925000D01*
X176224999Y-108925000D01*
X176224999Y-108787528D01*
X176224998Y-108787513D01*
X176214505Y-108684802D01*
X176159358Y-108518380D01*
X176159356Y-108518375D01*
X176067315Y-108369154D01*
X175943345Y-108245184D01*
X175794124Y-108153143D01*
X175794119Y-108153141D01*
X175627697Y-108097994D01*
X175627690Y-108097993D01*
X175524986Y-108087500D01*
X175250000Y-108087500D01*
X175250000Y-108925000D01*
X174750000Y-108925000D01*
X174750000Y-108087500D01*
X174475029Y-108087500D01*
X174475012Y-108087501D01*
X174372302Y-108097994D01*
X174205880Y-108153141D01*
X174205875Y-108153143D01*
X174056654Y-108245184D01*
X173932684Y-108369154D01*
X173840643Y-108518375D01*
X173840641Y-108518380D01*
X173785494Y-108684802D01*
X173785493Y-108684809D01*
X173775000Y-108787513D01*
X167189708Y-108787513D01*
X170117735Y-105859486D01*
X170193356Y-105746311D01*
X170201857Y-105725789D01*
X170245444Y-105620559D01*
X170245445Y-105620557D01*
X170248978Y-105602797D01*
X170272000Y-105487058D01*
X170272000Y-104030068D01*
X170291685Y-103963029D01*
X170308315Y-103942391D01*
X171099916Y-103150789D01*
X171161237Y-103117306D01*
X171230928Y-103122290D01*
X171253567Y-103133479D01*
X171400473Y-103225787D01*
X171400477Y-103225788D01*
X171400478Y-103225789D01*
X171549108Y-103277797D01*
X171570745Y-103285368D01*
X171570750Y-103285369D01*
X171749996Y-103305565D01*
X171750000Y-103305565D01*
X171750004Y-103305565D01*
X171929249Y-103285369D01*
X171929252Y-103285368D01*
X171929255Y-103285368D01*
X172099522Y-103225789D01*
X172252262Y-103129816D01*
X172379816Y-103002262D01*
X172475789Y-102849522D01*
X172475789Y-102849520D01*
X172479494Y-102843625D01*
X172480299Y-102844131D01*
X172498382Y-102818641D01*
X173813705Y-101503319D01*
X173875028Y-101469834D01*
X173901386Y-101467000D01*
X175581411Y-101467000D01*
X175648450Y-101486685D01*
X175678678Y-101514090D01*
X175682289Y-101518657D01*
X175806346Y-101642714D01*
X175809182Y-101644463D01*
X175810717Y-101646170D01*
X175812011Y-101647193D01*
X175811836Y-101647414D01*
X175855905Y-101696411D01*
X175867126Y-101765374D01*
X175839282Y-101829456D01*
X175809182Y-101855537D01*
X175806346Y-101857285D01*
X175682289Y-101981342D01*
X175590187Y-102130663D01*
X175590185Y-102130668D01*
X175583576Y-102150613D01*
X175535001Y-102297203D01*
X175535001Y-102297204D01*
X175535000Y-102297204D01*
X175524500Y-102399983D01*
X175524500Y-103175001D01*
X175524501Y-103175019D01*
X175535000Y-103277796D01*
X175535001Y-103277799D01*
X175581333Y-103417618D01*
X175590186Y-103444334D01*
X175682288Y-103593656D01*
X175806344Y-103717712D01*
X175955666Y-103809814D01*
X176122203Y-103864999D01*
X176224991Y-103875500D01*
X177275008Y-103875499D01*
X177275016Y-103875498D01*
X177275019Y-103875498D01*
X177331302Y-103869748D01*
X177377797Y-103864999D01*
X177544334Y-103809814D01*
X177693656Y-103717712D01*
X177817712Y-103593656D01*
X177852409Y-103537401D01*
X177904356Y-103490679D01*
X177957947Y-103478500D01*
X181687687Y-103478500D01*
X181754726Y-103498185D01*
X181800481Y-103550989D01*
X181810425Y-103620147D01*
X181781400Y-103683703D01*
X181758811Y-103704075D01*
X181583444Y-103826868D01*
X181426868Y-103983444D01*
X181299857Y-104164834D01*
X181299856Y-104164836D01*
X181206279Y-104365513D01*
X181206275Y-104365524D01*
X181148965Y-104579407D01*
X181148964Y-104579414D01*
X181129666Y-104799998D01*
X181129666Y-104800001D01*
X181148964Y-105020585D01*
X181148965Y-105020592D01*
X181206275Y-105234475D01*
X181206279Y-105234486D01*
X181269633Y-105370349D01*
X181299858Y-105435167D01*
X181426868Y-105616555D01*
X181583445Y-105773132D01*
X181764833Y-105900142D01*
X181797906Y-105915564D01*
X181888091Y-105957618D01*
X181940531Y-106003790D01*
X181959683Y-106070983D01*
X181939467Y-106137865D01*
X181888091Y-106182382D01*
X181764836Y-106239856D01*
X181764834Y-106239857D01*
X181583444Y-106366868D01*
X181426868Y-106523444D01*
X181299857Y-106704834D01*
X181299856Y-106704836D01*
X181206279Y-106905513D01*
X181206275Y-106905524D01*
X181148965Y-107119407D01*
X181148964Y-107119414D01*
X181129666Y-107339998D01*
X181129666Y-107340001D01*
X181148964Y-107560585D01*
X181148965Y-107560592D01*
X181206275Y-107774475D01*
X181206279Y-107774486D01*
X181294945Y-107964631D01*
X181299858Y-107975167D01*
X181426868Y-108156555D01*
X181583445Y-108313132D01*
X181764833Y-108440142D01*
X181826828Y-108469050D01*
X181888091Y-108497618D01*
X181940531Y-108543790D01*
X181959683Y-108610983D01*
X181939467Y-108677865D01*
X181888091Y-108722382D01*
X181764836Y-108779856D01*
X181764834Y-108779857D01*
X181583446Y-108906867D01*
X181446448Y-109043865D01*
X181385125Y-109077349D01*
X181315433Y-109072365D01*
X181271086Y-109043864D01*
X180798599Y-108571377D01*
X180769238Y-108524650D01*
X180767042Y-108518375D01*
X180725789Y-108400478D01*
X180629816Y-108247738D01*
X180502262Y-108120184D01*
X180472619Y-108101558D01*
X180349523Y-108024211D01*
X180179254Y-107964631D01*
X180179249Y-107964630D01*
X180000004Y-107944435D01*
X179999996Y-107944435D01*
X179820750Y-107964630D01*
X179820745Y-107964631D01*
X179650476Y-108024211D01*
X179497737Y-108120184D01*
X179370184Y-108247737D01*
X179274211Y-108400476D01*
X179214631Y-108570745D01*
X179214630Y-108570750D01*
X179194435Y-108749996D01*
X179194435Y-108750003D01*
X179214630Y-108929249D01*
X179214631Y-108929254D01*
X179274211Y-109099523D01*
X179318495Y-109170000D01*
X179370184Y-109252262D01*
X179497738Y-109379816D01*
X179569648Y-109425000D01*
X179602311Y-109445524D01*
X179650478Y-109475789D01*
X179774651Y-109519238D01*
X179821377Y-109548599D01*
X180620096Y-110347319D01*
X180653581Y-110408642D01*
X180648597Y-110478334D01*
X180606725Y-110534267D01*
X180541261Y-110558684D01*
X180532415Y-110559000D01*
X176207947Y-110559000D01*
X176140908Y-110539315D01*
X176102409Y-110500099D01*
X176067712Y-110443844D01*
X175943656Y-110319788D01*
X175940342Y-110317743D01*
X175938546Y-110315748D01*
X175937989Y-110315307D01*
X175938064Y-110315211D01*
X175893618Y-110265797D01*
X175882397Y-110196834D01*
X175910240Y-110132752D01*
X175940348Y-110106665D01*
X175943342Y-110104818D01*
X176067315Y-109980845D01*
X176159356Y-109831624D01*
X176159358Y-109831619D01*
X176214505Y-109665197D01*
X176214506Y-109665190D01*
X176224999Y-109562486D01*
X176225000Y-109562473D01*
X176225000Y-109425000D01*
X173775001Y-109425000D01*
X173775001Y-109562486D01*
X173785494Y-109665197D01*
X173840641Y-109831619D01*
X173840643Y-109831624D01*
X173932684Y-109980845D01*
X174056655Y-110104816D01*
X174056659Y-110104819D01*
X174059656Y-110106668D01*
X174061279Y-110108472D01*
X174062323Y-110109298D01*
X174062181Y-110109476D01*
X174106381Y-110158616D01*
X174117602Y-110227579D01*
X174089759Y-110291661D01*
X174059661Y-110317741D01*
X174056349Y-110319783D01*
X174056343Y-110319788D01*
X173932290Y-110443841D01*
X173932288Y-110443843D01*
X173932288Y-110443844D01*
X173897590Y-110500098D01*
X173845644Y-110546821D01*
X173792053Y-110559000D01*
X173236842Y-110559000D01*
X173169803Y-110539315D01*
X173131846Y-110500969D01*
X173129815Y-110497737D01*
X173002262Y-110370184D01*
X172849523Y-110274211D01*
X172679254Y-110214631D01*
X172679249Y-110214630D01*
X172500004Y-110194435D01*
X172499996Y-110194435D01*
X172320750Y-110214630D01*
X172320745Y-110214631D01*
X172150476Y-110274211D01*
X171997737Y-110370184D01*
X171870184Y-110497737D01*
X171774211Y-110650476D01*
X171714631Y-110820745D01*
X171714630Y-110820750D01*
X171694435Y-110999996D01*
X171694435Y-111000003D01*
X171714630Y-111179249D01*
X171714631Y-111179254D01*
X171774211Y-111349523D01*
X171850524Y-111470973D01*
X171870184Y-111502262D01*
X171997738Y-111629816D01*
X172050553Y-111663002D01*
X172135094Y-111716123D01*
X172150478Y-111725789D01*
X172278017Y-111770416D01*
X172305951Y-111784355D01*
X172422681Y-111862352D01*
X172422685Y-111862354D01*
X172422688Y-111862356D01*
X172548442Y-111914445D01*
X172567439Y-111918223D01*
X172623905Y-111929455D01*
X172681941Y-111941000D01*
X172681942Y-111941000D01*
X173792053Y-111941000D01*
X173859092Y-111960685D01*
X173897590Y-111999900D01*
X173932288Y-112056156D01*
X174056344Y-112180212D01*
X174205666Y-112272314D01*
X174372203Y-112327499D01*
X174474991Y-112338000D01*
X175525008Y-112337999D01*
X175525016Y-112337998D01*
X175525019Y-112337998D01*
X175581302Y-112332248D01*
X175627797Y-112327499D01*
X175794334Y-112272314D01*
X175943656Y-112180212D01*
X176067712Y-112056156D01*
X176102409Y-111999901D01*
X176154356Y-111953179D01*
X176207947Y-111941000D01*
X181056606Y-111941000D01*
X181123645Y-111960685D01*
X181169400Y-112013489D01*
X181179344Y-112082647D01*
X181176382Y-112097086D01*
X181173298Y-112108599D01*
X181148965Y-112199407D01*
X181148964Y-112199414D01*
X181129666Y-112419998D01*
X181129666Y-112420001D01*
X181148964Y-112640585D01*
X181148965Y-112640592D01*
X181206275Y-112854475D01*
X181206279Y-112854486D01*
X181272611Y-112996735D01*
X181299858Y-113055167D01*
X181426868Y-113236555D01*
X181583445Y-113393132D01*
X181656125Y-113444023D01*
X181699748Y-113498599D01*
X181709000Y-113545597D01*
X181709000Y-122251953D01*
X181699562Y-122299400D01*
X181674495Y-122359921D01*
X181674493Y-122359927D01*
X181645499Y-122505685D01*
X181645499Y-122505688D01*
X181645499Y-122654312D01*
X181645499Y-122654314D01*
X181645498Y-122654314D01*
X181674493Y-122800073D01*
X181674496Y-122800083D01*
X181731366Y-122937381D01*
X181731372Y-122937392D01*
X181813942Y-123060968D01*
X181813943Y-123060969D01*
X184533600Y-125780624D01*
X184533621Y-125780647D01*
X184643031Y-125890057D01*
X184682392Y-125916357D01*
X184691433Y-125922398D01*
X184736238Y-125976010D01*
X184744945Y-126045335D01*
X184714791Y-126108362D01*
X184655348Y-126145082D01*
X184622542Y-126149500D01*
X125005412Y-126149500D01*
X124994605Y-126149028D01*
X124811201Y-126132982D01*
X124789914Y-126129229D01*
X124617325Y-126082984D01*
X124597014Y-126075591D01*
X124435084Y-126000081D01*
X124416366Y-125989274D01*
X124269999Y-125886787D01*
X124253441Y-125872893D01*
X124127106Y-125746558D01*
X124113212Y-125730000D01*
X124010725Y-125583633D01*
X123999918Y-125564915D01*
X123924408Y-125402985D01*
X123917015Y-125382674D01*
X123870770Y-125210085D01*
X123867017Y-125188798D01*
X123864886Y-125164445D01*
X123850972Y-125005395D01*
X123850500Y-124994588D01*
X123850500Y-116878711D01*
X127649500Y-116878711D01*
X127649500Y-117121288D01*
X127681161Y-117361785D01*
X127743947Y-117596104D01*
X127836773Y-117820205D01*
X127836776Y-117820212D01*
X127958064Y-118030289D01*
X127958066Y-118030292D01*
X127958067Y-118030293D01*
X128105733Y-118222736D01*
X128105739Y-118222743D01*
X128277256Y-118394260D01*
X128277263Y-118394266D01*
X128299594Y-118411401D01*
X128469711Y-118541936D01*
X128679788Y-118663224D01*
X128903900Y-118756054D01*
X129138211Y-118818838D01*
X129318586Y-118842584D01*
X129378711Y-118850500D01*
X129378712Y-118850500D01*
X129621289Y-118850500D01*
X129669388Y-118844167D01*
X129861789Y-118818838D01*
X130096100Y-118756054D01*
X130320212Y-118663224D01*
X130530289Y-118541936D01*
X130722738Y-118394265D01*
X130894265Y-118222738D01*
X131041936Y-118030289D01*
X131163224Y-117820212D01*
X131256054Y-117596100D01*
X131318838Y-117361789D01*
X131350500Y-117121288D01*
X131350500Y-116878712D01*
X131318838Y-116638211D01*
X131256054Y-116403900D01*
X131163224Y-116179788D01*
X131041936Y-115969711D01*
X130894265Y-115777262D01*
X130894260Y-115777256D01*
X130722743Y-115605739D01*
X130722736Y-115605733D01*
X130530293Y-115458067D01*
X130530292Y-115458066D01*
X130530289Y-115458064D01*
X130320212Y-115336776D01*
X130310316Y-115332677D01*
X130096104Y-115243947D01*
X129861785Y-115181161D01*
X129621289Y-115149500D01*
X129621288Y-115149500D01*
X129378712Y-115149500D01*
X129378711Y-115149500D01*
X129138214Y-115181161D01*
X128903895Y-115243947D01*
X128679794Y-115336773D01*
X128679785Y-115336777D01*
X128469706Y-115458067D01*
X128277263Y-115605733D01*
X128277256Y-115605739D01*
X128105739Y-115777256D01*
X128105733Y-115777263D01*
X127958067Y-115969706D01*
X127958064Y-115969710D01*
X127958064Y-115969711D01*
X127954555Y-115975789D01*
X127836777Y-116179785D01*
X127836773Y-116179794D01*
X127743947Y-116403895D01*
X127681161Y-116638214D01*
X127649500Y-116878711D01*
X123850500Y-116878711D01*
X123850500Y-77590499D01*
X123870185Y-77523460D01*
X123922989Y-77477705D01*
X123992147Y-77467761D01*
X124055703Y-77496786D01*
G37*
%TD.AperFunction*%
%TA.AperFunction,Conductor*%
G36*
X170999420Y-50870185D02*
G01*
X171045175Y-50922989D01*
X171055119Y-50992147D01*
X171026094Y-51055703D01*
X170975714Y-51090682D01*
X170932913Y-51106645D01*
X170932906Y-51106649D01*
X170817812Y-51192809D01*
X170817809Y-51192812D01*
X170731649Y-51307906D01*
X170731645Y-51307913D01*
X170681403Y-51442620D01*
X170681401Y-51442627D01*
X170675000Y-51502155D01*
X170675000Y-53300000D01*
X173825000Y-53300000D01*
X173825000Y-51502172D01*
X173824999Y-51502155D01*
X173818598Y-51442627D01*
X173818596Y-51442620D01*
X173768354Y-51307913D01*
X173768350Y-51307906D01*
X173682190Y-51192812D01*
X173682187Y-51192809D01*
X173567093Y-51106649D01*
X173567086Y-51106645D01*
X173524286Y-51090682D01*
X173468352Y-51048811D01*
X173443935Y-50983346D01*
X173458787Y-50915073D01*
X173508192Y-50865668D01*
X173567619Y-50850500D01*
X197910609Y-50850500D01*
X197994588Y-50850500D01*
X198005395Y-50850972D01*
X198188800Y-50867017D01*
X198210084Y-50870769D01*
X198382678Y-50917016D01*
X198402985Y-50924408D01*
X198564915Y-50999918D01*
X198583633Y-51010725D01*
X198730000Y-51113212D01*
X198746558Y-51127106D01*
X198872893Y-51253441D01*
X198886787Y-51269999D01*
X198989274Y-51416366D01*
X199000081Y-51435084D01*
X199075591Y-51597014D01*
X199082984Y-51617325D01*
X199129229Y-51789914D01*
X199132982Y-51811200D01*
X199149028Y-51994603D01*
X199149500Y-52005411D01*
X199149500Y-124994588D01*
X199149028Y-125005396D01*
X199132982Y-125188799D01*
X199129229Y-125210085D01*
X199082984Y-125382674D01*
X199075591Y-125402985D01*
X199000081Y-125564915D01*
X198989274Y-125583633D01*
X198886787Y-125730000D01*
X198872893Y-125746558D01*
X198746558Y-125872893D01*
X198730000Y-125886787D01*
X198583633Y-125989274D01*
X198564915Y-126000081D01*
X198402985Y-126075591D01*
X198382674Y-126082984D01*
X198210085Y-126129229D01*
X198188799Y-126132982D01*
X198022537Y-126147528D01*
X198005394Y-126149028D01*
X197994588Y-126149500D01*
X196697458Y-126149500D01*
X196630419Y-126129815D01*
X196584664Y-126077011D01*
X196574720Y-126007853D01*
X196603745Y-125944297D01*
X196628568Y-125922397D01*
X196676966Y-125890059D01*
X198230963Y-124336060D01*
X198230966Y-124336059D01*
X198336059Y-124230966D01*
X198418629Y-124107390D01*
X198418630Y-124107389D01*
X198418633Y-124107385D01*
X198475503Y-123970083D01*
X198475505Y-123970079D01*
X198492758Y-123883347D01*
X198504501Y-123824314D01*
X198504501Y-123670578D01*
X198504500Y-123670552D01*
X198504500Y-95618957D01*
X198506884Y-95594761D01*
X198508501Y-95586633D01*
X198508501Y-95432896D01*
X198508500Y-95432870D01*
X198508500Y-82794446D01*
X198508501Y-82794425D01*
X198508501Y-82639686D01*
X198495666Y-82575165D01*
X198479505Y-82493921D01*
X198478481Y-82491450D01*
X198478480Y-82491439D01*
X198478478Y-82491441D01*
X198422630Y-82356611D01*
X198422628Y-82356608D01*
X198340060Y-82233035D01*
X198340054Y-82233028D01*
X198230647Y-82123621D01*
X198230624Y-82123600D01*
X196373324Y-80266299D01*
X196339839Y-80204976D01*
X196337477Y-80167813D01*
X196355659Y-79960000D01*
X196335063Y-79724592D01*
X196273903Y-79496337D01*
X196174035Y-79282171D01*
X196159721Y-79261729D01*
X196038496Y-79088600D01*
X196038495Y-79088599D01*
X195916567Y-78966671D01*
X195883084Y-78905351D01*
X195888068Y-78835659D01*
X195929939Y-78779725D01*
X195960915Y-78762810D01*
X196092331Y-78713796D01*
X196207546Y-78627546D01*
X196293796Y-78512331D01*
X196344091Y-78377483D01*
X196350500Y-78317873D01*
X196350499Y-76522128D01*
X196344091Y-76462517D01*
X196330289Y-76425513D01*
X196293797Y-76327671D01*
X196293793Y-76327664D01*
X196207547Y-76212455D01*
X196207544Y-76212452D01*
X196092335Y-76126206D01*
X196092328Y-76126202D01*
X195957482Y-76075908D01*
X195957483Y-76075908D01*
X195897883Y-76069501D01*
X195897881Y-76069500D01*
X195897873Y-76069500D01*
X195897864Y-76069500D01*
X194102129Y-76069500D01*
X194102123Y-76069501D01*
X194042516Y-76075908D01*
X193907671Y-76126202D01*
X193907664Y-76126206D01*
X193792455Y-76212452D01*
X193792452Y-76212455D01*
X193706206Y-76327664D01*
X193706202Y-76327671D01*
X193655908Y-76462517D01*
X193649501Y-76522116D01*
X193649501Y-76522123D01*
X193649500Y-76522135D01*
X193649500Y-77248770D01*
X193629815Y-77315809D01*
X193577011Y-77361564D01*
X193507853Y-77371508D01*
X193444297Y-77342483D01*
X193437819Y-77336451D01*
X188018421Y-71917052D01*
X188018420Y-71917051D01*
X187932690Y-71859769D01*
X187932689Y-71859768D01*
X187895500Y-71834919D01*
X187895488Y-71834912D01*
X187758917Y-71778343D01*
X187758907Y-71778340D01*
X187613920Y-71749500D01*
X187613918Y-71749500D01*
X181962230Y-71749500D01*
X181895191Y-71729815D01*
X181874549Y-71713181D01*
X175978421Y-65817052D01*
X175978414Y-65817046D01*
X175904729Y-65767812D01*
X175904729Y-65767813D01*
X175855491Y-65734913D01*
X175718917Y-65678343D01*
X175718907Y-65678340D01*
X175573920Y-65649500D01*
X175573918Y-65649500D01*
X169486417Y-65649500D01*
X169461230Y-65649500D01*
X169394191Y-65629815D01*
X169348436Y-65577011D01*
X169338492Y-65507853D01*
X169367517Y-65444297D01*
X169373549Y-65437819D01*
X169492712Y-65318656D01*
X169573669Y-65187402D01*
X169625617Y-65140679D01*
X169679208Y-65128500D01*
X177199916Y-65128500D01*
X177266955Y-65148185D01*
X177287597Y-65164819D01*
X182929423Y-70806645D01*
X182956303Y-70846872D01*
X182981372Y-70907393D01*
X183063939Y-71030964D01*
X183063945Y-71030971D01*
X183169028Y-71136054D01*
X183169035Y-71136060D01*
X183292608Y-71218628D01*
X183292609Y-71218628D01*
X183292610Y-71218629D01*
X183429920Y-71275505D01*
X183575683Y-71304499D01*
X183575687Y-71304500D01*
X183575688Y-71304500D01*
X189734649Y-71304500D01*
X189801688Y-71324185D01*
X189847443Y-71376989D01*
X189857387Y-71446147D01*
X189856455Y-71451719D01*
X189841966Y-71527677D01*
X189811826Y-71685674D01*
X189811825Y-71685681D01*
X189792051Y-71999994D01*
X189792051Y-72000005D01*
X189811825Y-72314318D01*
X189811826Y-72314325D01*
X189870844Y-72623706D01*
X189968168Y-72923239D01*
X189968170Y-72923244D01*
X190102265Y-73208209D01*
X190102267Y-73208212D01*
X190102268Y-73208214D01*
X190271027Y-73474135D01*
X190459801Y-73702324D01*
X190471785Y-73716810D01*
X190701371Y-73932406D01*
X190701381Y-73932414D01*
X190956162Y-74117523D01*
X190956167Y-74117525D01*
X190956174Y-74117531D01*
X191232167Y-74269260D01*
X191232172Y-74269262D01*
X191232174Y-74269263D01*
X191232175Y-74269264D01*
X191524997Y-74385200D01*
X191525000Y-74385201D01*
X191830053Y-74463525D01*
X191830057Y-74463526D01*
X191895609Y-74471807D01*
X192142513Y-74502999D01*
X192142522Y-74502999D01*
X192142525Y-74503000D01*
X192142527Y-74503000D01*
X192457473Y-74503000D01*
X192457475Y-74503000D01*
X192457478Y-74502999D01*
X192457486Y-74502999D01*
X192643936Y-74479444D01*
X192769943Y-74463526D01*
X193074999Y-74385201D01*
X193075002Y-74385200D01*
X193367824Y-74269264D01*
X193367825Y-74269263D01*
X193367823Y-74269263D01*
X193367833Y-74269260D01*
X193643826Y-74117531D01*
X193898627Y-73932408D01*
X194128216Y-73716809D01*
X194328973Y-73474135D01*
X194497732Y-73208214D01*
X194631832Y-72923238D01*
X194729157Y-72623702D01*
X194788173Y-72314329D01*
X194788509Y-72309000D01*
X194807605Y-72005465D01*
X194807949Y-72000000D01*
X194807949Y-71999994D01*
X194808002Y-71999154D01*
X194831857Y-71933483D01*
X194887429Y-71891134D01*
X194957076Y-71885552D01*
X194982643Y-71893863D01*
X195034167Y-71917052D01*
X195076160Y-71935952D01*
X195076162Y-71935953D01*
X195076165Y-71935954D01*
X195076168Y-71935955D01*
X195076182Y-71935960D01*
X195281696Y-72000000D01*
X195376522Y-72029549D01*
X195685971Y-72086258D01*
X196000000Y-72105253D01*
X196314029Y-72086258D01*
X196623478Y-72029549D01*
X196923835Y-71935954D01*
X197210721Y-71806837D01*
X197479952Y-71644081D01*
X197495738Y-71631714D01*
X197628531Y-71527677D01*
X197727602Y-71450060D01*
X197950060Y-71227602D01*
X198095843Y-71041523D01*
X198144075Y-70979960D01*
X198144075Y-70979958D01*
X198144081Y-70979952D01*
X198306837Y-70710721D01*
X198435954Y-70423835D01*
X198529549Y-70123478D01*
X198586258Y-69814029D01*
X198605253Y-69500000D01*
X198586258Y-69185971D01*
X198529549Y-68876522D01*
X198482488Y-68725498D01*
X198435960Y-68576183D01*
X198435956Y-68576172D01*
X198435954Y-68576165D01*
X198306837Y-68289279D01*
X198144081Y-68020048D01*
X198144078Y-68020044D01*
X198144075Y-68020039D01*
X197950057Y-67772394D01*
X197727605Y-67549942D01*
X197479960Y-67355924D01*
X197448302Y-67336786D01*
X197210721Y-67193163D01*
X196923835Y-67064046D01*
X196923830Y-67064044D01*
X196923827Y-67064043D01*
X196923816Y-67064039D01*
X196623486Y-66970453D01*
X196623482Y-66970452D01*
X196623478Y-66970451D01*
X196314029Y-66913742D01*
X196314028Y-66913741D01*
X196314023Y-66913741D01*
X196000000Y-66894747D01*
X195685976Y-66913741D01*
X195685971Y-66913742D01*
X195376522Y-66970451D01*
X195376519Y-66970451D01*
X195376513Y-66970453D01*
X195076183Y-67064039D01*
X195076172Y-67064043D01*
X195076166Y-67064045D01*
X195076165Y-67064046D01*
X195027510Y-67085944D01*
X194789283Y-67193161D01*
X194789281Y-67193162D01*
X194520039Y-67355924D01*
X194272394Y-67549942D01*
X194049942Y-67772394D01*
X193855924Y-68020039D01*
X193693162Y-68289281D01*
X193693161Y-68289283D01*
X193623683Y-68443657D01*
X193567851Y-68567712D01*
X193564043Y-68576172D01*
X193564039Y-68576183D01*
X193470453Y-68876513D01*
X193470451Y-68876519D01*
X193470451Y-68876522D01*
X193462815Y-68918191D01*
X193438968Y-69048316D01*
X193407521Y-69110709D01*
X193347334Y-69146196D01*
X193277516Y-69143510D01*
X193220234Y-69103504D01*
X193193673Y-69038880D01*
X193192999Y-69025980D01*
X193192999Y-66919728D01*
X193212684Y-66852690D01*
X193229313Y-66832053D01*
X198082952Y-61978415D01*
X198118132Y-61925762D01*
X198153555Y-61872750D01*
X198157398Y-61866997D01*
X198165084Y-61855495D01*
X198191411Y-61791936D01*
X198221659Y-61718912D01*
X198250500Y-61573917D01*
X198250500Y-61426082D01*
X198250500Y-55601082D01*
X198250500Y-55601079D01*
X198221659Y-55456092D01*
X198221658Y-55456091D01*
X198221658Y-55456087D01*
X198221656Y-55456082D01*
X198165087Y-55319511D01*
X198165080Y-55319498D01*
X198082952Y-55196585D01*
X198082951Y-55196584D01*
X197978416Y-55092049D01*
X196386818Y-53500450D01*
X196353333Y-53439127D01*
X196350499Y-53412769D01*
X196350499Y-52827129D01*
X196350498Y-52827123D01*
X196350497Y-52827116D01*
X196344091Y-52767517D01*
X196327238Y-52722333D01*
X196293797Y-52632671D01*
X196293793Y-52632664D01*
X196207547Y-52517455D01*
X196207544Y-52517452D01*
X196092335Y-52431206D01*
X196092328Y-52431202D01*
X195957482Y-52380908D01*
X195957483Y-52380908D01*
X195897883Y-52374501D01*
X195897881Y-52374500D01*
X195897873Y-52374500D01*
X195897864Y-52374500D01*
X194652129Y-52374500D01*
X194652123Y-52374501D01*
X194592516Y-52380908D01*
X194457671Y-52431202D01*
X194457664Y-52431206D01*
X194342455Y-52517452D01*
X194342452Y-52517455D01*
X194256206Y-52632664D01*
X194256202Y-52632671D01*
X194205908Y-52767517D01*
X194199501Y-52827116D01*
X194199501Y-52827123D01*
X194199500Y-52827135D01*
X194199500Y-54072870D01*
X194199501Y-54072876D01*
X194205908Y-54132483D01*
X194256202Y-54267328D01*
X194256206Y-54267335D01*
X194342452Y-54382544D01*
X194342455Y-54382547D01*
X194457664Y-54468793D01*
X194457671Y-54468797D01*
X194502618Y-54485561D01*
X194592517Y-54519091D01*
X194652127Y-54525500D01*
X195237769Y-54525499D01*
X195304808Y-54545183D01*
X195325450Y-54561818D01*
X196713181Y-55949548D01*
X196746666Y-56010871D01*
X196749500Y-56037229D01*
X196749500Y-61137770D01*
X196729815Y-61204809D01*
X196713181Y-61225451D01*
X193404680Y-64533952D01*
X193343357Y-64567437D01*
X193273665Y-64562453D01*
X193217732Y-64520581D01*
X193193315Y-64455117D01*
X193192999Y-64446271D01*
X193192999Y-63959629D01*
X193192998Y-63959623D01*
X193192997Y-63959616D01*
X193186672Y-63900769D01*
X193186591Y-63900016D01*
X193136296Y-63765169D01*
X193136293Y-63765164D01*
X193050047Y-63649955D01*
X193050044Y-63649952D01*
X192934835Y-63563706D01*
X192934828Y-63563702D01*
X192799982Y-63513408D01*
X192799983Y-63513408D01*
X192740383Y-63507001D01*
X192740381Y-63507000D01*
X192740373Y-63507000D01*
X192740364Y-63507000D01*
X187259629Y-63507000D01*
X187259623Y-63507001D01*
X187200016Y-63513408D01*
X187065171Y-63563702D01*
X187065164Y-63563706D01*
X186949955Y-63649952D01*
X186949952Y-63649955D01*
X186863706Y-63765164D01*
X186863704Y-63765169D01*
X186813408Y-63900017D01*
X186807001Y-63959616D01*
X186807001Y-63959623D01*
X186807000Y-63959635D01*
X186807000Y-69440370D01*
X186807001Y-69440376D01*
X186813408Y-69499983D01*
X186861218Y-69628167D01*
X186866202Y-69697859D01*
X186832717Y-69759182D01*
X186771393Y-69792666D01*
X186745036Y-69795500D01*
X183924084Y-69795500D01*
X183857045Y-69775815D01*
X183836403Y-69759181D01*
X177977992Y-63900769D01*
X177977985Y-63900763D01*
X177864812Y-63825144D01*
X177864809Y-63825142D01*
X177739061Y-63773056D01*
X177739049Y-63773053D01*
X177699413Y-63765169D01*
X177699412Y-63765169D01*
X177605560Y-63746500D01*
X177605558Y-63746500D01*
X170030084Y-63746500D01*
X169963045Y-63726815D01*
X169917290Y-63674011D01*
X169907346Y-63604853D01*
X169936371Y-63541297D01*
X169942403Y-63534819D01*
X170137037Y-63340185D01*
X170771343Y-62705877D01*
X170832664Y-62672394D01*
X170902355Y-62677378D01*
X170924831Y-62689650D01*
X170924888Y-62689547D01*
X170932670Y-62693797D01*
X171067517Y-62744091D01*
X171067516Y-62744091D01*
X171074444Y-62744835D01*
X171127127Y-62750500D01*
X173372872Y-62750499D01*
X173432483Y-62744091D01*
X173567331Y-62693796D01*
X173682546Y-62607546D01*
X173768796Y-62492331D01*
X173819091Y-62357483D01*
X173825500Y-62297873D01*
X173825499Y-60128711D01*
X179899500Y-60128711D01*
X179899500Y-60371288D01*
X179929868Y-60601966D01*
X179931162Y-60611789D01*
X179943510Y-60657872D01*
X179993947Y-60846104D01*
X180086773Y-61070205D01*
X180086776Y-61070212D01*
X180208064Y-61280289D01*
X180208066Y-61280292D01*
X180208067Y-61280293D01*
X180355733Y-61472736D01*
X180355739Y-61472743D01*
X180527256Y-61644260D01*
X180527262Y-61644265D01*
X180719711Y-61791936D01*
X180929788Y-61913224D01*
X181153900Y-62006054D01*
X181388211Y-62068838D01*
X181568586Y-62092584D01*
X181628711Y-62100500D01*
X181628712Y-62100500D01*
X181871289Y-62100500D01*
X181919388Y-62094167D01*
X182111789Y-62068838D01*
X182346100Y-62006054D01*
X182570212Y-61913224D01*
X182780289Y-61791936D01*
X182972738Y-61644265D01*
X183144265Y-61472738D01*
X183291936Y-61280289D01*
X183413224Y-61070212D01*
X183506054Y-60846100D01*
X183568838Y-60611789D01*
X183600500Y-60371288D01*
X183600500Y-60128712D01*
X183568838Y-59888211D01*
X183506054Y-59653900D01*
X183413224Y-59429788D01*
X183291936Y-59219711D01*
X183144265Y-59027262D01*
X183144260Y-59027256D01*
X182972743Y-58855739D01*
X182972736Y-58855733D01*
X182780293Y-58708067D01*
X182780292Y-58708066D01*
X182780289Y-58708064D01*
X182570212Y-58586776D01*
X182535720Y-58572489D01*
X182346104Y-58493947D01*
X182111785Y-58431161D01*
X181871289Y-58399500D01*
X181871288Y-58399500D01*
X181628712Y-58399500D01*
X181628711Y-58399500D01*
X181388214Y-58431161D01*
X181153895Y-58493947D01*
X180929794Y-58586773D01*
X180929785Y-58586777D01*
X180809194Y-58656401D01*
X180724667Y-58705203D01*
X180719706Y-58708067D01*
X180527263Y-58855733D01*
X180527256Y-58855739D01*
X180355739Y-59027256D01*
X180355733Y-59027263D01*
X180208067Y-59219706D01*
X180086777Y-59429785D01*
X180086773Y-59429794D01*
X179993947Y-59653895D01*
X179931161Y-59888214D01*
X179899500Y-60128711D01*
X173825499Y-60128711D01*
X173825499Y-58202128D01*
X173819091Y-58142517D01*
X173768796Y-58007669D01*
X173768795Y-58007668D01*
X173768793Y-58007664D01*
X173682547Y-57892455D01*
X173682544Y-57892452D01*
X173567335Y-57806206D01*
X173567328Y-57806202D01*
X173432482Y-57755908D01*
X173432483Y-57755908D01*
X173372883Y-57749501D01*
X173372881Y-57749500D01*
X173372873Y-57749500D01*
X173372864Y-57749500D01*
X171127129Y-57749500D01*
X171127123Y-57749501D01*
X171067516Y-57755908D01*
X170932671Y-57806202D01*
X170932664Y-57806206D01*
X170817455Y-57892452D01*
X170817452Y-57892455D01*
X170731206Y-58007664D01*
X170731202Y-58007671D01*
X170680908Y-58142517D01*
X170675482Y-58192993D01*
X170674501Y-58202123D01*
X170674500Y-58202135D01*
X170674500Y-60796915D01*
X170654815Y-60863954D01*
X170638181Y-60884596D01*
X168284595Y-63238181D01*
X168223272Y-63271666D01*
X168196914Y-63274500D01*
X167549998Y-63274500D01*
X167549980Y-63274501D01*
X167447203Y-63285000D01*
X167447200Y-63285001D01*
X167280668Y-63340185D01*
X167280663Y-63340187D01*
X167131342Y-63432289D01*
X167007289Y-63556342D01*
X166915187Y-63705663D01*
X166915186Y-63705666D01*
X166860001Y-63872203D01*
X166860001Y-63872204D01*
X166860000Y-63872204D01*
X166849500Y-63974983D01*
X166849500Y-64795613D01*
X166829815Y-64862652D01*
X166777011Y-64908407D01*
X166707853Y-64918351D01*
X166644297Y-64889326D01*
X166637819Y-64883294D01*
X163566542Y-61812017D01*
X163533057Y-61750694D01*
X163538041Y-61681002D01*
X163579913Y-61625069D01*
X163644581Y-61600948D01*
X163644571Y-61600854D01*
X163644942Y-61600814D01*
X163645377Y-61600652D01*
X163647621Y-61600512D01*
X163647862Y-61600499D01*
X163647872Y-61600499D01*
X163707483Y-61594091D01*
X163842331Y-61543796D01*
X163957546Y-61457546D01*
X164043796Y-61342331D01*
X164092810Y-61210916D01*
X164134681Y-61154984D01*
X164200145Y-61130566D01*
X164268418Y-61145417D01*
X164296673Y-61166569D01*
X164418599Y-61288495D01*
X164497291Y-61343596D01*
X164612165Y-61424032D01*
X164612167Y-61424033D01*
X164612170Y-61424035D01*
X164826337Y-61523903D01*
X165054592Y-61585063D01*
X165231171Y-61600512D01*
X165289999Y-61605659D01*
X165290000Y-61605659D01*
X165290001Y-61605659D01*
X165329234Y-61602226D01*
X165525408Y-61585063D01*
X165753663Y-61523903D01*
X165967830Y-61424035D01*
X166161401Y-61288495D01*
X166328495Y-61121401D01*
X166464035Y-60927830D01*
X166563903Y-60713663D01*
X166625063Y-60485408D01*
X166645659Y-60250000D01*
X166625063Y-60014592D01*
X166570377Y-59810499D01*
X166563905Y-59786344D01*
X166563904Y-59786343D01*
X166563903Y-59786337D01*
X166464035Y-59572171D01*
X166438943Y-59536335D01*
X166328494Y-59378597D01*
X166161402Y-59211506D01*
X166161395Y-59211501D01*
X165967834Y-59075967D01*
X165967830Y-59075965D01*
X165955997Y-59070447D01*
X165753663Y-58976097D01*
X165753659Y-58976096D01*
X165753655Y-58976094D01*
X165525413Y-58914938D01*
X165525403Y-58914936D01*
X165290001Y-58894341D01*
X165289999Y-58894341D01*
X165054596Y-58914936D01*
X165054586Y-58914938D01*
X164826344Y-58976094D01*
X164826335Y-58976098D01*
X164612171Y-59075964D01*
X164612169Y-59075965D01*
X164418600Y-59211503D01*
X164296673Y-59333430D01*
X164235350Y-59366914D01*
X164165658Y-59361930D01*
X164109725Y-59320058D01*
X164092810Y-59289081D01*
X164043797Y-59157671D01*
X164043793Y-59157664D01*
X163957547Y-59042455D01*
X163957544Y-59042452D01*
X163842335Y-58956206D01*
X163842328Y-58956202D01*
X163707482Y-58905908D01*
X163707483Y-58905908D01*
X163647883Y-58899501D01*
X163647881Y-58899500D01*
X163647873Y-58899500D01*
X163647864Y-58899500D01*
X161852129Y-58899500D01*
X161852123Y-58899501D01*
X161792516Y-58905908D01*
X161657671Y-58956202D01*
X161657664Y-58956206D01*
X161542455Y-59042452D01*
X161542452Y-59042455D01*
X161456206Y-59157664D01*
X161456202Y-59157671D01*
X161405908Y-59292517D01*
X161399501Y-59352116D01*
X161399500Y-59352135D01*
X161399500Y-60571915D01*
X161379815Y-60638954D01*
X161363181Y-60659596D01*
X159750097Y-62272681D01*
X159688774Y-62306166D01*
X159662416Y-62309000D01*
X150069500Y-62309000D01*
X150002461Y-62289315D01*
X149956706Y-62236511D01*
X149945500Y-62185000D01*
X149945500Y-62047648D01*
X149913477Y-61845465D01*
X149872357Y-61718912D01*
X149850220Y-61650781D01*
X149850218Y-61650778D01*
X149850218Y-61650776D01*
X149795708Y-61543796D01*
X149757287Y-61468390D01*
X149726549Y-61426082D01*
X149636971Y-61302786D01*
X149605736Y-61271551D01*
X149572251Y-61210228D01*
X149577235Y-61140536D01*
X149619107Y-61084603D01*
X149650080Y-61067689D01*
X149687331Y-61053796D01*
X149802546Y-60967546D01*
X149888796Y-60852331D01*
X149939091Y-60717483D01*
X149945500Y-60657873D01*
X149945499Y-59102155D01*
X152650000Y-59102155D01*
X152650000Y-59750000D01*
X153566988Y-59750000D01*
X153534075Y-59807007D01*
X153500000Y-59934174D01*
X153500000Y-60065826D01*
X153534075Y-60192993D01*
X153566988Y-60250000D01*
X152650000Y-60250000D01*
X152650000Y-60897844D01*
X152656401Y-60957372D01*
X152656403Y-60957379D01*
X152706645Y-61092086D01*
X152706649Y-61092093D01*
X152792809Y-61207187D01*
X152792812Y-61207190D01*
X152907906Y-61293350D01*
X152907913Y-61293354D01*
X153042620Y-61343596D01*
X153042627Y-61343598D01*
X153102155Y-61349999D01*
X153102172Y-61350000D01*
X153750000Y-61350000D01*
X153750000Y-60433012D01*
X153807007Y-60465925D01*
X153934174Y-60500000D01*
X154065826Y-60500000D01*
X154192993Y-60465925D01*
X154250000Y-60433012D01*
X154250000Y-61350000D01*
X154897828Y-61350000D01*
X154897844Y-61349999D01*
X154957372Y-61343598D01*
X154957379Y-61343596D01*
X155092086Y-61293354D01*
X155092093Y-61293350D01*
X155207187Y-61207190D01*
X155207190Y-61207187D01*
X155293350Y-61092093D01*
X155293354Y-61092086D01*
X155342422Y-60960529D01*
X155384293Y-60904595D01*
X155449757Y-60880178D01*
X155518030Y-60895030D01*
X155546285Y-60916181D01*
X155668599Y-61038495D01*
X155734448Y-61084603D01*
X155862165Y-61174032D01*
X155862167Y-61174033D01*
X155862170Y-61174035D01*
X156076337Y-61273903D01*
X156304592Y-61335063D01*
X156475319Y-61350000D01*
X156539999Y-61355659D01*
X156540000Y-61355659D01*
X156540001Y-61355659D01*
X156604681Y-61350000D01*
X156775408Y-61335063D01*
X157003663Y-61273903D01*
X157217830Y-61174035D01*
X157411401Y-61038495D01*
X157578495Y-60871401D01*
X157714035Y-60677830D01*
X157813903Y-60463663D01*
X157875063Y-60235408D01*
X157895659Y-60000000D01*
X157875063Y-59764592D01*
X157813903Y-59536337D01*
X157714035Y-59322171D01*
X157712556Y-59320058D01*
X157578494Y-59128597D01*
X157411402Y-58961506D01*
X157411395Y-58961501D01*
X157409825Y-58960402D01*
X157346489Y-58916053D01*
X157217834Y-58825967D01*
X157217830Y-58825965D01*
X157175457Y-58806206D01*
X157003663Y-58726097D01*
X157003659Y-58726096D01*
X157003655Y-58726094D01*
X156775413Y-58664938D01*
X156775403Y-58664936D01*
X156540001Y-58644341D01*
X156539999Y-58644341D01*
X156304596Y-58664936D01*
X156304586Y-58664938D01*
X156076344Y-58726094D01*
X156076335Y-58726098D01*
X155862171Y-58825964D01*
X155862169Y-58825965D01*
X155668600Y-58961503D01*
X155546284Y-59083819D01*
X155484961Y-59117303D01*
X155415269Y-59112319D01*
X155359336Y-59070447D01*
X155342421Y-59039470D01*
X155293354Y-58907913D01*
X155293350Y-58907906D01*
X155207190Y-58792812D01*
X155207187Y-58792809D01*
X155092093Y-58706649D01*
X155092086Y-58706645D01*
X154957379Y-58656403D01*
X154957372Y-58656401D01*
X154897844Y-58650000D01*
X154250000Y-58650000D01*
X154250000Y-59566988D01*
X154192993Y-59534075D01*
X154065826Y-59500000D01*
X153934174Y-59500000D01*
X153807007Y-59534075D01*
X153750000Y-59566988D01*
X153750000Y-58650000D01*
X153102155Y-58650000D01*
X153042627Y-58656401D01*
X153042620Y-58656403D01*
X152907913Y-58706645D01*
X152907906Y-58706649D01*
X152792812Y-58792809D01*
X152792809Y-58792812D01*
X152706649Y-58907906D01*
X152706645Y-58907913D01*
X152656403Y-59042620D01*
X152656401Y-59042627D01*
X152650000Y-59102155D01*
X149945499Y-59102155D01*
X149945499Y-58605861D01*
X149965184Y-58538823D01*
X149981819Y-58518180D01*
X149999999Y-58500000D01*
X150000000Y-58500000D01*
X150000000Y-55597844D01*
X170675000Y-55597844D01*
X170681401Y-55657372D01*
X170681403Y-55657379D01*
X170731645Y-55792086D01*
X170731649Y-55792093D01*
X170817809Y-55907187D01*
X170817812Y-55907190D01*
X170932906Y-55993350D01*
X170932913Y-55993354D01*
X171067620Y-56043596D01*
X171067627Y-56043598D01*
X171127155Y-56049999D01*
X171127172Y-56050000D01*
X172000000Y-56050000D01*
X172500000Y-56050000D01*
X173372828Y-56050000D01*
X173372844Y-56049999D01*
X173432372Y-56043598D01*
X173432379Y-56043596D01*
X173567086Y-55993354D01*
X173567093Y-55993350D01*
X173682187Y-55907190D01*
X173682190Y-55907187D01*
X173768350Y-55792093D01*
X173768354Y-55792086D01*
X173818596Y-55657379D01*
X173818598Y-55657372D01*
X173824999Y-55597844D01*
X173825000Y-55597827D01*
X173825000Y-53800000D01*
X172500000Y-53800000D01*
X172500000Y-56050000D01*
X172000000Y-56050000D01*
X172000000Y-53800000D01*
X170675000Y-53800000D01*
X170675000Y-55597844D01*
X150000000Y-55597844D01*
X150000000Y-53449999D01*
X189114892Y-53449999D01*
X189114892Y-53450000D01*
X189133282Y-53648464D01*
X189187830Y-53840183D01*
X189276670Y-54018598D01*
X189276675Y-54018606D01*
X189396792Y-54177666D01*
X189505301Y-54276584D01*
X189544090Y-54311945D01*
X189658111Y-54382544D01*
X189687149Y-54400524D01*
X189713554Y-54416873D01*
X189899414Y-54488876D01*
X190095340Y-54525500D01*
X190157770Y-54525500D01*
X190224809Y-54545185D01*
X190245451Y-54561819D01*
X190713181Y-55029549D01*
X190746666Y-55090872D01*
X190749500Y-55117230D01*
X190749500Y-56269484D01*
X190740062Y-56316935D01*
X190738342Y-56321087D01*
X190738340Y-56321092D01*
X190709500Y-56466079D01*
X190709500Y-56525500D01*
X190689815Y-56592539D01*
X190637011Y-56638294D01*
X190585505Y-56649500D01*
X190562132Y-56649500D01*
X190562123Y-56649501D01*
X190502516Y-56655908D01*
X190367671Y-56706202D01*
X190367664Y-56706206D01*
X190252455Y-56792452D01*
X190252452Y-56792455D01*
X190166206Y-56907664D01*
X190166202Y-56907671D01*
X190115908Y-57042517D01*
X190109501Y-57102116D01*
X190109500Y-57102135D01*
X190109500Y-58897870D01*
X190109501Y-58897876D01*
X190115908Y-58957483D01*
X190166202Y-59092328D01*
X190166206Y-59092335D01*
X190252452Y-59207544D01*
X190252455Y-59207547D01*
X190367664Y-59293793D01*
X190367671Y-59293797D01*
X190502517Y-59344091D01*
X190502516Y-59344091D01*
X190509444Y-59344835D01*
X190562127Y-59350500D01*
X192357872Y-59350499D01*
X192417483Y-59344091D01*
X192552331Y-59293796D01*
X192667546Y-59207546D01*
X192753796Y-59092331D01*
X192759901Y-59075964D01*
X192797148Y-58976097D01*
X192803002Y-58960401D01*
X192844872Y-58904468D01*
X192910337Y-58880050D01*
X192978610Y-58894901D01*
X193006865Y-58916053D01*
X193128917Y-59038105D01*
X193322421Y-59173600D01*
X193536507Y-59273429D01*
X193536516Y-59273433D01*
X193750000Y-59330634D01*
X193750000Y-58433012D01*
X193807007Y-58465925D01*
X193934174Y-58500000D01*
X194065826Y-58500000D01*
X194192993Y-58465925D01*
X194250000Y-58433012D01*
X194250000Y-59330633D01*
X194463483Y-59273433D01*
X194463492Y-59273429D01*
X194677578Y-59173600D01*
X194871082Y-59038105D01*
X195038105Y-58871082D01*
X195173600Y-58677578D01*
X195273429Y-58463492D01*
X195273432Y-58463486D01*
X195330636Y-58250000D01*
X194433012Y-58250000D01*
X194465925Y-58192993D01*
X194500000Y-58065826D01*
X194500000Y-57934174D01*
X194465925Y-57807007D01*
X194433012Y-57750000D01*
X195330636Y-57750000D01*
X195330635Y-57749999D01*
X195273432Y-57536513D01*
X195273429Y-57536507D01*
X195173600Y-57322422D01*
X195173599Y-57322420D01*
X195038113Y-57128926D01*
X195038108Y-57128920D01*
X194871082Y-56961894D01*
X194677578Y-56826399D01*
X194463492Y-56726570D01*
X194463486Y-56726567D01*
X194250000Y-56669364D01*
X194250000Y-57566988D01*
X194192993Y-57534075D01*
X194065826Y-57500000D01*
X193934174Y-57500000D01*
X193807007Y-57534075D01*
X193750000Y-57566988D01*
X193750000Y-56669364D01*
X193749999Y-56669364D01*
X193536513Y-56726567D01*
X193536507Y-56726570D01*
X193322422Y-56826399D01*
X193322420Y-56826400D01*
X193128926Y-56961886D01*
X193006865Y-57083947D01*
X192945542Y-57117431D01*
X192875850Y-57112447D01*
X192819917Y-57070575D01*
X192803002Y-57039598D01*
X192753797Y-56907671D01*
X192753793Y-56907664D01*
X192667547Y-56792455D01*
X192667544Y-56792452D01*
X192552335Y-56706206D01*
X192552328Y-56706202D01*
X192417482Y-56655908D01*
X192417484Y-56655908D01*
X192361244Y-56649862D01*
X192296693Y-56623124D01*
X192256845Y-56565731D01*
X192250500Y-56526573D01*
X192250500Y-54681081D01*
X192244763Y-54652242D01*
X192244763Y-54652240D01*
X192221660Y-54536095D01*
X192221659Y-54536088D01*
X192167408Y-54405118D01*
X192165765Y-54400524D01*
X192115637Y-54325501D01*
X192082950Y-54276581D01*
X192082947Y-54276578D01*
X191308680Y-53502312D01*
X191275195Y-53440989D01*
X191272891Y-53426083D01*
X191256717Y-53251531D01*
X191202171Y-53059820D01*
X191200759Y-53056984D01*
X191113329Y-52881401D01*
X191113324Y-52881393D01*
X190993207Y-52722333D01*
X190845911Y-52588056D01*
X190845910Y-52588055D01*
X190781375Y-52548096D01*
X190676447Y-52483127D01*
X190676445Y-52483126D01*
X190594379Y-52451334D01*
X190490586Y-52411124D01*
X190490582Y-52411123D01*
X190411639Y-52396366D01*
X190294660Y-52374500D01*
X190095340Y-52374500D01*
X190005254Y-52391339D01*
X189899417Y-52411123D01*
X189899415Y-52411123D01*
X189899414Y-52411124D01*
X189847587Y-52431202D01*
X189713554Y-52483126D01*
X189713552Y-52483127D01*
X189544088Y-52588056D01*
X189396792Y-52722333D01*
X189276675Y-52881393D01*
X189276670Y-52881401D01*
X189187830Y-53059816D01*
X189133282Y-53251535D01*
X189114892Y-53449999D01*
X150000000Y-53449999D01*
X150000000Y-50974500D01*
X150019685Y-50907461D01*
X150072489Y-50861706D01*
X150124000Y-50850500D01*
X170932381Y-50850500D01*
X170999420Y-50870185D01*
G37*
%TD.AperFunction*%
%TA.AperFunction,Conductor*%
G36*
X155649120Y-102150613D02*
G01*
X155705053Y-102192485D01*
X155729314Y-102255987D01*
X155748964Y-102480586D01*
X155748965Y-102480592D01*
X155806275Y-102694475D01*
X155806279Y-102694486D01*
X155899856Y-102895163D01*
X155899858Y-102895167D01*
X156026868Y-103076555D01*
X156183445Y-103233132D01*
X156364833Y-103360142D01*
X156426828Y-103389050D01*
X156488091Y-103417618D01*
X156540531Y-103463790D01*
X156559683Y-103530983D01*
X156539467Y-103597865D01*
X156488091Y-103642382D01*
X156364836Y-103699856D01*
X156364834Y-103699857D01*
X156183444Y-103826868D01*
X156026868Y-103983444D01*
X155899857Y-104164834D01*
X155899856Y-104164836D01*
X155806279Y-104365513D01*
X155806275Y-104365524D01*
X155748965Y-104579407D01*
X155748964Y-104579414D01*
X155729666Y-104799998D01*
X155729666Y-104800001D01*
X155748964Y-105020585D01*
X155748965Y-105020592D01*
X155806275Y-105234475D01*
X155806279Y-105234486D01*
X155869633Y-105370349D01*
X155899858Y-105435167D01*
X156026868Y-105616555D01*
X156183445Y-105773132D01*
X156364833Y-105900142D01*
X156397906Y-105915564D01*
X156488091Y-105957618D01*
X156540531Y-106003790D01*
X156559683Y-106070983D01*
X156539467Y-106137865D01*
X156488091Y-106182382D01*
X156364836Y-106239856D01*
X156364834Y-106239857D01*
X156183444Y-106366868D01*
X156026868Y-106523444D01*
X155899857Y-106704834D01*
X155899856Y-106704836D01*
X155806279Y-106905513D01*
X155806275Y-106905524D01*
X155748965Y-107119407D01*
X155748964Y-107119414D01*
X155729666Y-107339998D01*
X155729666Y-107340001D01*
X155748964Y-107560585D01*
X155748965Y-107560592D01*
X155806275Y-107774475D01*
X155806279Y-107774486D01*
X155894945Y-107964631D01*
X155899858Y-107975167D01*
X156026868Y-108156555D01*
X156183445Y-108313132D01*
X156364833Y-108440142D01*
X156426828Y-108469050D01*
X156488091Y-108497618D01*
X156540531Y-108543790D01*
X156559683Y-108610983D01*
X156539467Y-108677865D01*
X156488091Y-108722382D01*
X156364836Y-108779856D01*
X156364834Y-108779857D01*
X156183444Y-108906868D01*
X156026868Y-109063444D01*
X155899857Y-109244834D01*
X155899856Y-109244836D01*
X155806279Y-109445513D01*
X155806275Y-109445524D01*
X155748965Y-109659407D01*
X155748964Y-109659414D01*
X155729666Y-109879998D01*
X155729666Y-109880001D01*
X155748964Y-110100585D01*
X155748965Y-110100592D01*
X155806275Y-110314475D01*
X155806279Y-110314486D01*
X155892787Y-110500003D01*
X155899858Y-110515167D01*
X156026868Y-110696555D01*
X156183445Y-110853132D01*
X156364833Y-110980142D01*
X156412270Y-111002262D01*
X156488091Y-111037618D01*
X156540531Y-111083790D01*
X156559683Y-111150983D01*
X156539467Y-111217865D01*
X156488091Y-111262382D01*
X156364836Y-111319856D01*
X156364834Y-111319857D01*
X156183444Y-111446868D01*
X156026868Y-111603444D01*
X155899857Y-111784834D01*
X155899856Y-111784836D01*
X155806279Y-111985513D01*
X155806275Y-111985524D01*
X155748965Y-112199407D01*
X155748964Y-112199414D01*
X155729666Y-112419998D01*
X155729666Y-112420001D01*
X155748964Y-112640585D01*
X155748965Y-112640592D01*
X155806275Y-112854475D01*
X155806279Y-112854486D01*
X155872611Y-112996735D01*
X155899858Y-113055167D01*
X156026868Y-113236555D01*
X156183445Y-113393132D01*
X156364833Y-113520142D01*
X156419422Y-113545597D01*
X156565513Y-113613720D01*
X156565515Y-113613720D01*
X156565520Y-113613723D01*
X156779409Y-113671035D01*
X156936974Y-113684820D01*
X156999998Y-113690334D01*
X157000000Y-113690334D01*
X157000002Y-113690334D01*
X157055147Y-113685509D01*
X157220591Y-113671035D01*
X157434480Y-113613723D01*
X157635167Y-113520142D01*
X157816555Y-113393132D01*
X157973132Y-113236555D01*
X158100142Y-113055167D01*
X158193723Y-112854480D01*
X158251035Y-112640591D01*
X158270334Y-112420000D01*
X158251035Y-112199409D01*
X158193723Y-111985520D01*
X158182142Y-111960685D01*
X158101029Y-111786735D01*
X158100142Y-111784833D01*
X157973132Y-111603445D01*
X157816555Y-111446868D01*
X157635167Y-111319858D01*
X157590258Y-111298917D01*
X157523686Y-111267874D01*
X157511907Y-111262381D01*
X157459468Y-111216210D01*
X157440316Y-111149017D01*
X157460531Y-111082136D01*
X157511908Y-111037618D01*
X157635167Y-110980142D01*
X157816555Y-110853132D01*
X157973132Y-110696555D01*
X158100142Y-110515167D01*
X158193723Y-110314480D01*
X158251035Y-110100591D01*
X158270334Y-109880000D01*
X158251035Y-109659409D01*
X158193723Y-109445520D01*
X158184154Y-109425000D01*
X158100143Y-109244836D01*
X158100142Y-109244834D01*
X158100142Y-109244833D01*
X157973132Y-109063445D01*
X157816555Y-108906868D01*
X157635167Y-108779858D01*
X157633910Y-108779272D01*
X157511908Y-108722382D01*
X157459468Y-108676210D01*
X157440316Y-108609017D01*
X157460531Y-108542136D01*
X157511908Y-108497618D01*
X157635167Y-108440142D01*
X157816555Y-108313132D01*
X157973132Y-108156555D01*
X158100142Y-107975167D01*
X158163120Y-107840108D01*
X158209289Y-107787672D01*
X158276482Y-107768519D01*
X158343364Y-107788734D01*
X158388699Y-107841899D01*
X158399500Y-107892514D01*
X158399500Y-108000000D01*
X158399501Y-108000019D01*
X158410000Y-108102796D01*
X158410001Y-108102799D01*
X158457183Y-108245184D01*
X158465186Y-108269334D01*
X158557288Y-108418656D01*
X158681344Y-108542712D01*
X158830666Y-108634814D01*
X158997203Y-108689999D01*
X159099991Y-108700500D01*
X159900008Y-108700499D01*
X159981900Y-108692133D01*
X160050590Y-108704902D01*
X160101475Y-108752783D01*
X160118500Y-108815491D01*
X160118500Y-112102916D01*
X160098815Y-112169955D01*
X160082181Y-112190597D01*
X153902681Y-118370097D01*
X153841358Y-118403582D01*
X153771666Y-118398598D01*
X153715733Y-118356726D01*
X153691316Y-118291262D01*
X153691000Y-118282416D01*
X153691000Y-111431939D01*
X153664446Y-111298448D01*
X153664445Y-111298447D01*
X153664445Y-111298443D01*
X153612356Y-111172689D01*
X153597419Y-111150334D01*
X153597419Y-111150333D01*
X153536733Y-111059510D01*
X151440492Y-108963269D01*
X151440485Y-108963263D01*
X151327312Y-108887644D01*
X151327309Y-108887642D01*
X151201561Y-108835556D01*
X151201551Y-108835553D01*
X151068060Y-108809000D01*
X151068058Y-108809000D01*
X147686359Y-108809000D01*
X147619320Y-108789315D01*
X147573565Y-108736511D01*
X147563139Y-108698883D01*
X147553377Y-108612242D01*
X147553376Y-108612237D01*
X147529047Y-108542710D01*
X147493797Y-108441970D01*
X147492648Y-108440142D01*
X147416076Y-108318278D01*
X147397824Y-108289230D01*
X147270270Y-108161676D01*
X147204236Y-108120184D01*
X147117532Y-108065704D01*
X147117528Y-108065702D01*
X146993356Y-108022252D01*
X146946630Y-107992892D01*
X146104790Y-107151052D01*
X146071305Y-107089729D01*
X146076289Y-107020037D01*
X146083641Y-107003941D01*
X146087795Y-106996332D01*
X146087794Y-106996332D01*
X146087796Y-106996331D01*
X146138091Y-106861483D01*
X146142742Y-106818222D01*
X146144514Y-106801745D01*
X146171252Y-106737193D01*
X146228644Y-106697345D01*
X146267803Y-106691000D01*
X152068060Y-106691000D01*
X152186691Y-106667402D01*
X152201557Y-106664445D01*
X152302570Y-106622604D01*
X152327309Y-106612357D01*
X152327312Y-106612355D01*
X152440487Y-106536735D01*
X153536735Y-105440486D01*
X153612356Y-105327311D01*
X153664445Y-105201557D01*
X153664445Y-105201554D01*
X153664447Y-105201550D01*
X153676985Y-105138518D01*
X153690999Y-105068061D01*
X153691000Y-105068059D01*
X153691000Y-104057582D01*
X153710685Y-103990543D01*
X153727314Y-103969906D01*
X155518107Y-102179112D01*
X155579428Y-102145629D01*
X155649120Y-102150613D01*
G37*
%TD.AperFunction*%
%TA.AperFunction,Conductor*%
G36*
X146190221Y-110119618D02*
G01*
X146298443Y-110164445D01*
X146298447Y-110164445D01*
X146298448Y-110164446D01*
X146431939Y-110191000D01*
X146431942Y-110191000D01*
X150662416Y-110191000D01*
X150729455Y-110210685D01*
X150750097Y-110227319D01*
X151471398Y-110948620D01*
X151504883Y-111009943D01*
X151499899Y-111079635D01*
X151458027Y-111135568D01*
X151392563Y-111159985D01*
X151351624Y-111156076D01*
X151235413Y-111124938D01*
X151235403Y-111124936D01*
X151000001Y-111104341D01*
X150999999Y-111104341D01*
X150764596Y-111124936D01*
X150764586Y-111124938D01*
X150536344Y-111186094D01*
X150536335Y-111186098D01*
X150322171Y-111285964D01*
X150322169Y-111285965D01*
X150128597Y-111421505D01*
X149961506Y-111588597D01*
X149961501Y-111588603D01*
X149872212Y-111716123D01*
X149817635Y-111759748D01*
X149770637Y-111769000D01*
X142497584Y-111769000D01*
X142430545Y-111749315D01*
X142409903Y-111732681D01*
X142148195Y-111470973D01*
X142114710Y-111409650D01*
X142119694Y-111339958D01*
X142161566Y-111284025D01*
X142227030Y-111259608D01*
X142235876Y-111259292D01*
X142240002Y-111259292D01*
X142294668Y-111254509D01*
X142458674Y-111240161D01*
X142670703Y-111183347D01*
X142869646Y-111090579D01*
X143049457Y-110964674D01*
X143204674Y-110809457D01*
X143330579Y-110629646D01*
X143397893Y-110485288D01*
X143444065Y-110432849D01*
X143511258Y-110413697D01*
X143578139Y-110433912D01*
X143622657Y-110485288D01*
X143689854Y-110629392D01*
X143734003Y-110692443D01*
X144297037Y-110129409D01*
X144314075Y-110192993D01*
X144379901Y-110307007D01*
X144472993Y-110400099D01*
X144587007Y-110465925D01*
X144650590Y-110482962D01*
X144087555Y-111045996D01*
X144150601Y-111090142D01*
X144150605Y-111090144D01*
X144349466Y-111182874D01*
X144349475Y-111182878D01*
X144561407Y-111239664D01*
X144561417Y-111239666D01*
X144779999Y-111258790D01*
X144780001Y-111258790D01*
X144998582Y-111239666D01*
X144998592Y-111239664D01*
X145210524Y-111182878D01*
X145210533Y-111182874D01*
X145409392Y-111090145D01*
X145472443Y-111045995D01*
X144909410Y-110482962D01*
X144972993Y-110465925D01*
X145087007Y-110400099D01*
X145180099Y-110307007D01*
X145245925Y-110192993D01*
X145262962Y-110129408D01*
X145825995Y-110692442D01*
X145870145Y-110629392D01*
X145962874Y-110430533D01*
X145962878Y-110430524D01*
X146019665Y-110218589D01*
X146020605Y-110213259D01*
X146023075Y-110213694D01*
X146044572Y-110158469D01*
X146101094Y-110117396D01*
X146170850Y-110113401D01*
X146190221Y-110119618D01*
G37*
%TD.AperFunction*%
%TA.AperFunction,Conductor*%
G36*
X144136926Y-108710685D02*
G01*
X144182681Y-108763489D01*
X144192625Y-108832647D01*
X144163600Y-108896203D01*
X144141010Y-108916575D01*
X144087556Y-108954003D01*
X144087555Y-108954003D01*
X144650590Y-109517037D01*
X144587007Y-109534075D01*
X144472993Y-109599901D01*
X144379901Y-109692993D01*
X144314075Y-109807007D01*
X144297037Y-109870590D01*
X143734003Y-109307555D01*
X143734003Y-109307556D01*
X143689857Y-109370603D01*
X143622657Y-109514712D01*
X143576484Y-109567151D01*
X143509290Y-109586302D01*
X143442409Y-109566086D01*
X143397893Y-109514710D01*
X143365626Y-109445513D01*
X143330579Y-109370354D01*
X143330577Y-109370351D01*
X143330576Y-109370349D01*
X143204677Y-109190547D01*
X143204672Y-109190541D01*
X143049458Y-109035327D01*
X143049452Y-109035322D01*
X142879863Y-108916575D01*
X142836238Y-108861998D01*
X142829044Y-108792500D01*
X142860567Y-108730145D01*
X142920797Y-108694731D01*
X142950986Y-108691000D01*
X144069887Y-108691000D01*
X144136926Y-108710685D01*
G37*
%TD.AperFunction*%
%TA.AperFunction,Conductor*%
G36*
X151738740Y-79340993D02*
G01*
X151794674Y-79382864D01*
X151800400Y-79391201D01*
X151870184Y-79502262D01*
X151997738Y-79629816D01*
X152027469Y-79648497D01*
X152125063Y-79709820D01*
X152150478Y-79725789D01*
X152274651Y-79769238D01*
X152321377Y-79798599D01*
X153522681Y-80999902D01*
X153556166Y-81061225D01*
X153559000Y-81087583D01*
X153559000Y-97038058D01*
X153559000Y-97038060D01*
X153558999Y-97038060D01*
X153572531Y-97106083D01*
X153572531Y-97106084D01*
X153585553Y-97171549D01*
X153585556Y-97171561D01*
X153637642Y-97297309D01*
X153637644Y-97297312D01*
X153713263Y-97410485D01*
X153713269Y-97410492D01*
X155712360Y-99409582D01*
X155745845Y-99470905D01*
X155748207Y-99508070D01*
X155729666Y-99719997D01*
X155729666Y-99720001D01*
X155748964Y-99940585D01*
X155748965Y-99940593D01*
X155805855Y-100152906D01*
X155804192Y-100222756D01*
X155765030Y-100280619D01*
X155700801Y-100308123D01*
X155686080Y-100309000D01*
X155651940Y-100309000D01*
X155571551Y-100324991D01*
X155571550Y-100324991D01*
X155518450Y-100335553D01*
X155518438Y-100335556D01*
X155392695Y-100387640D01*
X155392682Y-100387647D01*
X155279514Y-100463264D01*
X155279510Y-100463267D01*
X152562180Y-103180597D01*
X152500857Y-103214082D01*
X152431165Y-103209098D01*
X152375232Y-103167226D01*
X152350815Y-103101762D01*
X152350499Y-103092916D01*
X152350499Y-102402129D01*
X152350498Y-102402123D01*
X152350497Y-102402116D01*
X152344091Y-102342517D01*
X152327190Y-102297204D01*
X152293797Y-102207671D01*
X152293793Y-102207664D01*
X152207547Y-102092455D01*
X152207544Y-102092452D01*
X152092335Y-102006206D01*
X152092328Y-102006202D01*
X151960917Y-101957189D01*
X151904983Y-101915318D01*
X151880566Y-101849853D01*
X151895418Y-101781580D01*
X151916563Y-101753332D01*
X152038495Y-101631401D01*
X152174035Y-101437830D01*
X152273903Y-101223663D01*
X152335063Y-100995408D01*
X152355659Y-100760000D01*
X152335063Y-100524592D01*
X152273903Y-100296337D01*
X152174035Y-100082171D01*
X152158335Y-100059748D01*
X152038494Y-99888597D01*
X151871402Y-99721506D01*
X151871396Y-99721501D01*
X151685842Y-99591575D01*
X151642217Y-99536998D01*
X151635023Y-99467500D01*
X151666546Y-99405145D01*
X151685842Y-99388425D01*
X151810009Y-99301482D01*
X151871401Y-99258495D01*
X152038495Y-99091401D01*
X152174035Y-98897830D01*
X152273903Y-98683663D01*
X152335063Y-98455408D01*
X152355659Y-98220000D01*
X152353980Y-98200815D01*
X152349566Y-98150360D01*
X152335063Y-97984592D01*
X152282739Y-97789315D01*
X152273905Y-97756344D01*
X152273904Y-97756343D01*
X152273903Y-97756337D01*
X152174035Y-97542171D01*
X152158335Y-97519748D01*
X152038494Y-97348597D01*
X151871402Y-97181506D01*
X151871396Y-97181501D01*
X151685842Y-97051575D01*
X151642217Y-96996998D01*
X151635023Y-96927500D01*
X151666546Y-96865145D01*
X151685842Y-96848425D01*
X151832805Y-96745520D01*
X151871401Y-96718495D01*
X152038495Y-96551401D01*
X152174035Y-96357830D01*
X152273903Y-96143663D01*
X152335063Y-95915408D01*
X152355659Y-95680000D01*
X152335063Y-95444592D01*
X152276436Y-95225789D01*
X152273905Y-95216344D01*
X152273904Y-95216343D01*
X152273903Y-95216337D01*
X152174035Y-95002171D01*
X152158335Y-94979748D01*
X152038494Y-94808597D01*
X151871402Y-94641506D01*
X151871395Y-94641501D01*
X151869251Y-94640000D01*
X151825498Y-94609363D01*
X151677834Y-94505967D01*
X151677830Y-94505965D01*
X151677828Y-94505964D01*
X151463663Y-94406097D01*
X151463659Y-94406096D01*
X151463655Y-94406094D01*
X151235413Y-94344938D01*
X151235403Y-94344936D01*
X151000001Y-94324341D01*
X150999999Y-94324341D01*
X150764596Y-94344936D01*
X150764586Y-94344938D01*
X150536344Y-94406094D01*
X150536337Y-94406096D01*
X150536337Y-94406097D01*
X150534471Y-94406967D01*
X150322171Y-94505964D01*
X150322169Y-94505965D01*
X150128597Y-94641505D01*
X149961506Y-94808597D01*
X149961501Y-94808603D01*
X149872212Y-94936123D01*
X149817635Y-94979748D01*
X149770637Y-94989000D01*
X142527584Y-94989000D01*
X142460545Y-94969315D01*
X142439903Y-94952681D01*
X142258195Y-94770973D01*
X142224710Y-94709650D01*
X142229694Y-94639958D01*
X142271566Y-94584025D01*
X142337030Y-94559608D01*
X142345876Y-94559292D01*
X142350002Y-94559292D01*
X142404668Y-94554509D01*
X142568674Y-94540161D01*
X142780703Y-94483347D01*
X142979646Y-94390579D01*
X143159457Y-94264674D01*
X143314674Y-94109457D01*
X143440579Y-93929646D01*
X143507893Y-93785288D01*
X143554065Y-93732849D01*
X143621258Y-93713697D01*
X143688139Y-93733912D01*
X143732657Y-93785288D01*
X143799854Y-93929392D01*
X143844003Y-93992443D01*
X144407037Y-93429408D01*
X144424075Y-93492993D01*
X144489901Y-93607007D01*
X144582993Y-93700099D01*
X144697007Y-93765925D01*
X144760590Y-93782962D01*
X144197555Y-94345996D01*
X144260601Y-94390142D01*
X144260605Y-94390144D01*
X144459466Y-94482874D01*
X144459475Y-94482878D01*
X144671407Y-94539664D01*
X144671417Y-94539666D01*
X144889999Y-94558790D01*
X144890001Y-94558790D01*
X145108582Y-94539666D01*
X145108592Y-94539664D01*
X145320524Y-94482878D01*
X145320533Y-94482874D01*
X145519392Y-94390145D01*
X145582443Y-94345995D01*
X145019410Y-93782962D01*
X145082993Y-93765925D01*
X145197007Y-93700099D01*
X145290099Y-93607007D01*
X145355925Y-93492993D01*
X145372962Y-93429409D01*
X145935995Y-93992442D01*
X145980145Y-93929392D01*
X146072874Y-93730533D01*
X146072878Y-93730524D01*
X146129664Y-93518592D01*
X146129666Y-93518582D01*
X146148790Y-93300000D01*
X146148790Y-93299999D01*
X146129666Y-93081417D01*
X146129664Y-93081407D01*
X146072878Y-92869475D01*
X146072874Y-92869466D01*
X145980144Y-92670605D01*
X145980142Y-92670601D01*
X145935996Y-92607555D01*
X145372962Y-93170589D01*
X145355925Y-93107007D01*
X145290099Y-92992993D01*
X145197007Y-92899901D01*
X145082993Y-92834075D01*
X145019408Y-92817037D01*
X145582443Y-92254003D01*
X145519392Y-92209854D01*
X145320533Y-92117125D01*
X145320524Y-92117121D01*
X145164854Y-92075410D01*
X145105193Y-92039045D01*
X145074664Y-91976198D01*
X145082959Y-91906822D01*
X145109262Y-91867959D01*
X150786735Y-86190486D01*
X150862356Y-86077311D01*
X150867762Y-86064261D01*
X150894419Y-85999903D01*
X150914445Y-85951557D01*
X150916545Y-85941000D01*
X150941000Y-85818060D01*
X150941000Y-80087583D01*
X150960685Y-80020544D01*
X150977319Y-79999902D01*
X151282826Y-79694395D01*
X151607728Y-79369492D01*
X151669049Y-79336009D01*
X151738740Y-79340993D01*
G37*
%TD.AperFunction*%
%TD*%
M02*
