%TF.GenerationSoftware,KiCad,Pcbnew,8.0.8*%
%TF.CreationDate,2025-02-20T15:45:21-05:00*%
%TF.ProjectId,Stardust,53746172-6475-4737-942e-6b696361645f,rev?*%
%TF.SameCoordinates,Original*%
%TF.FileFunction,Paste,Top*%
%TF.FilePolarity,Positive*%
%FSLAX46Y46*%
G04 Gerber Fmt 4.6, Leading zero omitted, Abs format (unit mm)*
G04 Created by KiCad (PCBNEW 8.0.8) date 2025-02-20 15:45:21*
%MOMM*%
%LPD*%
G01*
G04 APERTURE LIST*
G04 Aperture macros list*
%AMRoundRect*
0 Rectangle with rounded corners*
0 $1 Rounding radius*
0 $2 $3 $4 $5 $6 $7 $8 $9 X,Y pos of 4 corners*
0 Add a 4 corners polygon primitive as box body*
4,1,4,$2,$3,$4,$5,$6,$7,$8,$9,$2,$3,0*
0 Add four circle primitives for the rounded corners*
1,1,$1+$1,$2,$3*
1,1,$1+$1,$4,$5*
1,1,$1+$1,$6,$7*
1,1,$1+$1,$8,$9*
0 Add four rect primitives between the rounded corners*
20,1,$1+$1,$2,$3,$4,$5,0*
20,1,$1+$1,$4,$5,$6,$7,0*
20,1,$1+$1,$6,$7,$8,$9,0*
20,1,$1+$1,$8,$9,$2,$3,0*%
G04 Aperture macros list end*
%ADD10RoundRect,0.250000X0.475000X-0.337500X0.475000X0.337500X-0.475000X0.337500X-0.475000X-0.337500X0*%
%ADD11RoundRect,0.250000X-0.350000X-0.450000X0.350000X-0.450000X0.350000X0.450000X-0.350000X0.450000X0*%
%ADD12RoundRect,0.237500X0.237500X-0.287500X0.237500X0.287500X-0.237500X0.287500X-0.237500X-0.287500X0*%
%ADD13R,0.760000X5.000000*%
%ADD14R,8.800000X4.500000*%
%ADD15RoundRect,0.250000X-0.450000X0.350000X-0.450000X-0.350000X0.450000X-0.350000X0.450000X0.350000X0*%
%ADD16R,2.150000X4.000000*%
%ADD17R,1.750000X0.950000*%
%ADD18R,1.750000X3.200000*%
%ADD19R,1.800000X3.150000*%
%ADD20RoundRect,0.250000X-0.475000X0.337500X-0.475000X-0.337500X0.475000X-0.337500X0.475000X0.337500X0*%
%ADD21RoundRect,0.237500X0.300000X0.237500X-0.300000X0.237500X-0.300000X-0.237500X0.300000X-0.237500X0*%
%ADD22RoundRect,0.250000X0.650000X-0.412500X0.650000X0.412500X-0.650000X0.412500X-0.650000X-0.412500X0*%
G04 APERTURE END LIST*
D10*
%TO.C,C6*%
X176250000Y-117037500D03*
X176250000Y-114962500D03*
%TD*%
D11*
%TO.C,R1*%
X159500000Y-99750000D03*
X161500000Y-99750000D03*
%TD*%
D12*
%TO.C,D2*%
X187000000Y-118875000D03*
X187000000Y-117125000D03*
%TD*%
D13*
%TO.C,J2*%
X140425000Y-77550000D03*
X139155000Y-77550000D03*
X137885000Y-77550000D03*
X136615000Y-77550000D03*
X135345000Y-77550000D03*
X134075000Y-77550000D03*
D14*
X137250000Y-61500000D03*
%TD*%
D15*
%TO.C,R14*%
X142000000Y-83250000D03*
X142000000Y-85250000D03*
%TD*%
D16*
%TO.C,C7*%
X172250000Y-53550000D03*
X172250000Y-60250000D03*
%TD*%
D17*
%TO.C,U7*%
X183650000Y-70550000D03*
X183650000Y-68250000D03*
X183650000Y-65950000D03*
D18*
X177350000Y-68250000D03*
%TD*%
D19*
%TO.C,C2*%
X163500000Y-53500000D03*
X163500000Y-58600000D03*
%TD*%
%TO.C,C1*%
X155000000Y-53500000D03*
X155000000Y-58600000D03*
%TD*%
D11*
%TO.C,R15*%
X185000000Y-97000000D03*
X187000000Y-97000000D03*
%TD*%
D12*
%TO.C,D1*%
X190000000Y-118875000D03*
X190000000Y-117125000D03*
%TD*%
D20*
%TO.C,C5*%
X176750000Y-100712500D03*
X176750000Y-102787500D03*
%TD*%
D11*
%TO.C,R3*%
X159500000Y-105000000D03*
X161500000Y-105000000D03*
%TD*%
D21*
%TO.C,C3*%
X186500000Y-79500000D03*
X184775000Y-79500000D03*
%TD*%
D15*
%TO.C,R13*%
X138750000Y-83250000D03*
X138750000Y-85250000D03*
%TD*%
%TO.C,R9*%
X190000000Y-122250000D03*
X190000000Y-124250000D03*
%TD*%
%TO.C,R10*%
X187000000Y-122250000D03*
X187000000Y-124250000D03*
%TD*%
%TO.C,R12*%
X135500000Y-83250000D03*
X135500000Y-85250000D03*
%TD*%
D22*
%TO.C,C9*%
X168250000Y-67562500D03*
X168250000Y-64437500D03*
%TD*%
D11*
%TO.C,R2*%
X159500000Y-107500000D03*
X161500000Y-107500000D03*
%TD*%
D20*
%TO.C,C8*%
X175000000Y-109175000D03*
X175000000Y-111250000D03*
%TD*%
%TO.C,C4*%
X176250000Y-78212500D03*
X176250000Y-80287500D03*
%TD*%
D15*
%TO.C,R11*%
X132000000Y-83250000D03*
X132000000Y-85250000D03*
%TD*%
M02*
