%TF.GenerationSoftware,KiCad,Pcbnew,8.0.8*%
%TF.CreationDate,2025-02-20T12:29:39-05:00*%
%TF.ProjectId,Stardust,53746172-6475-4737-942e-6b696361645f,rev?*%
%TF.SameCoordinates,Original*%
%TF.FileFunction,Copper,L1,Top*%
%TF.FilePolarity,Positive*%
%FSLAX46Y46*%
G04 Gerber Fmt 4.6, Leading zero omitted, Abs format (unit mm)*
G04 Created by KiCad (PCBNEW 8.0.8) date 2025-02-20 12:29:39*
%MOMM*%
%LPD*%
G01*
G04 APERTURE LIST*
G04 Aperture macros list*
%AMRoundRect*
0 Rectangle with rounded corners*
0 $1 Rounding radius*
0 $2 $3 $4 $5 $6 $7 $8 $9 X,Y pos of 4 corners*
0 Add a 4 corners polygon primitive as box body*
4,1,4,$2,$3,$4,$5,$6,$7,$8,$9,$2,$3,0*
0 Add four circle primitives for the rounded corners*
1,1,$1+$1,$2,$3*
1,1,$1+$1,$4,$5*
1,1,$1+$1,$6,$7*
1,1,$1+$1,$8,$9*
0 Add four rect primitives between the rounded corners*
20,1,$1+$1,$2,$3,$4,$5,0*
20,1,$1+$1,$4,$5,$6,$7,0*
20,1,$1+$1,$6,$7,$8,$9,0*
20,1,$1+$1,$8,$9,$2,$3,0*%
G04 Aperture macros list end*
%TA.AperFunction,SMDPad,CuDef*%
%ADD10RoundRect,0.250000X-0.475000X0.337500X-0.475000X-0.337500X0.475000X-0.337500X0.475000X0.337500X0*%
%TD*%
%TA.AperFunction,SMDPad,CuDef*%
%ADD11RoundRect,0.250000X0.475000X-0.337500X0.475000X0.337500X-0.475000X0.337500X-0.475000X-0.337500X0*%
%TD*%
%TA.AperFunction,SMDPad,CuDef*%
%ADD12RoundRect,0.250000X-0.350000X-0.450000X0.350000X-0.450000X0.350000X0.450000X-0.350000X0.450000X0*%
%TD*%
%TA.AperFunction,SMDPad,CuDef*%
%ADD13RoundRect,0.237500X0.237500X-0.287500X0.237500X0.287500X-0.237500X0.287500X-0.237500X-0.287500X0*%
%TD*%
%TA.AperFunction,ComponentPad*%
%ADD14R,1.700000X1.700000*%
%TD*%
%TA.AperFunction,ComponentPad*%
%ADD15O,1.700000X1.700000*%
%TD*%
%TA.AperFunction,SMDPad,CuDef*%
%ADD16R,0.760000X5.000000*%
%TD*%
%TA.AperFunction,SMDPad,CuDef*%
%ADD17R,8.800000X4.500000*%
%TD*%
%TA.AperFunction,SMDPad,CuDef*%
%ADD18RoundRect,0.250000X-0.450000X0.350000X-0.450000X-0.350000X0.450000X-0.350000X0.450000X0.350000X0*%
%TD*%
%TA.AperFunction,ComponentPad*%
%ADD19R,1.150000X1.150000*%
%TD*%
%TA.AperFunction,ComponentPad*%
%ADD20C,1.150000*%
%TD*%
%TA.AperFunction,SMDPad,CuDef*%
%ADD21R,2.150000X4.000000*%
%TD*%
%TA.AperFunction,SMDPad,CuDef*%
%ADD22R,1.750000X0.950000*%
%TD*%
%TA.AperFunction,SMDPad,CuDef*%
%ADD23R,1.750000X3.200000*%
%TD*%
%TA.AperFunction,SMDPad,CuDef*%
%ADD24R,1.800000X3.150000*%
%TD*%
%TA.AperFunction,SMDPad,CuDef*%
%ADD25RoundRect,0.237500X0.300000X0.237500X-0.300000X0.237500X-0.300000X-0.237500X0.300000X-0.237500X0*%
%TD*%
%TA.AperFunction,SMDPad,CuDef*%
%ADD26RoundRect,0.250000X0.650000X-0.412500X0.650000X0.412500X-0.650000X0.412500X-0.650000X-0.412500X0*%
%TD*%
%TA.AperFunction,ComponentPad*%
%ADD27R,5.385000X5.385000*%
%TD*%
%TA.AperFunction,ComponentPad*%
%ADD28C,4.005000*%
%TD*%
%TA.AperFunction,ComponentPad*%
%ADD29C,4.200000*%
%TD*%
%TA.AperFunction,ComponentPad*%
%ADD30R,1.508000X1.508000*%
%TD*%
%TA.AperFunction,ComponentPad*%
%ADD31C,1.508000*%
%TD*%
%TA.AperFunction,ComponentPad*%
%ADD32R,1.530000X1.530000*%
%TD*%
%TA.AperFunction,ComponentPad*%
%ADD33C,1.530000*%
%TD*%
%TA.AperFunction,ComponentPad*%
%ADD34R,2.000000X2.000000*%
%TD*%
%TA.AperFunction,ComponentPad*%
%ADD35O,2.000000X1.600000*%
%TD*%
%TA.AperFunction,ViaPad*%
%ADD36C,0.600000*%
%TD*%
%TA.AperFunction,Conductor*%
%ADD37C,0.508000*%
%TD*%
%TA.AperFunction,Conductor*%
%ADD38C,0.500000*%
%TD*%
%TA.AperFunction,Conductor*%
%ADD39C,0.381000*%
%TD*%
G04 APERTURE END LIST*
D10*
%TO.P,C8,1*%
%TO.N,+12V*%
X171750000Y-54962500D03*
%TO.P,C8,2*%
%TO.N,GND*%
X171750000Y-57037500D03*
%TD*%
D11*
%TO.P,C6,1*%
%TO.N,GND*%
X176250000Y-117037500D03*
%TO.P,C6,2*%
%TO.N,/AUX4*%
X176250000Y-114962500D03*
%TD*%
D10*
%TO.P,C5,1*%
%TO.N,GND*%
X176750000Y-100712500D03*
%TO.P,C5,2*%
%TO.N,/AUX3*%
X176750000Y-102787500D03*
%TD*%
%TO.P,C4,1*%
%TO.N,GND*%
X176250000Y-78212500D03*
%TO.P,C4,2*%
%TO.N,/PEC*%
X176250000Y-80287500D03*
%TD*%
D12*
%TO.P,R1,1*%
%TO.N,/EN*%
X159500000Y-99750000D03*
%TO.P,R1,2*%
%TO.N,+3.3V*%
X161500000Y-99750000D03*
%TD*%
D13*
%TO.P,D2,1,K*%
%TO.N,Net-(D2-K)*%
X187000000Y-118875000D03*
%TO.P,D2,2,A*%
%TO.N,/STA*%
X187000000Y-117125000D03*
%TD*%
D14*
%TO.P,J7,1,Pin_1*%
%TO.N,+5V*%
X135500000Y-88000000D03*
D15*
%TO.P,J7,2,Pin_2*%
%TO.N,Net-(J7-Pin_2)*%
X138040000Y-88000000D03*
%TD*%
D16*
%TO.P,J2,1,1*%
%TO.N,/RA+*%
X140425000Y-77550000D03*
%TO.P,J2,2,2*%
%TO.N,/DE+*%
X139155000Y-77550000D03*
%TO.P,J2,3,3*%
%TO.N,/DE-*%
X137885000Y-77550000D03*
%TO.P,J2,4,4*%
%TO.N,/RA-*%
X136615000Y-77550000D03*
%TO.P,J2,5,5*%
%TO.N,GND*%
X135345000Y-77550000D03*
%TO.P,J2,6,6*%
%TO.N,Net-(J7-Pin_2)*%
X134075000Y-77550000D03*
D17*
%TO.P,J2,MP1,MP1*%
%TO.N,unconnected-(J2-PadMP1)*%
X137250000Y-61500000D03*
%TD*%
D18*
%TO.P,R14,1*%
%TO.N,/RA+*%
X142000000Y-83250000D03*
%TO.P,R14,2*%
%TO.N,+3.3V*%
X142000000Y-85250000D03*
%TD*%
D19*
%TO.P,U8,1,1*%
%TO.N,Net-(J1-Pad1)*%
X195275000Y-53450000D03*
D20*
%TO.P,U8,2,2*%
%TO.N,Net-(J3-Pin_1)*%
X190195000Y-53450000D03*
%TD*%
D21*
%TO.P,C7,1*%
%TO.N,+12V*%
X180500000Y-53500000D03*
%TO.P,C7,2*%
%TO.N,GND*%
X180500000Y-60200000D03*
%TD*%
D22*
%TO.P,U7,1,FIXED*%
%TO.N,GND*%
X183650000Y-70550000D03*
%TO.P,U7,2,OUTPUT_1*%
%TO.N,unconnected-(U7-OUTPUT_1-Pad2)*%
X183650000Y-68250000D03*
%TO.P,U7,3,INPUT*%
%TO.N,+12V*%
X183650000Y-65950000D03*
D23*
%TO.P,U7,4,OUTPUT_2*%
%TO.N,+5V*%
X177350000Y-68250000D03*
%TD*%
D24*
%TO.P,C2,1*%
%TO.N,+12V*%
X163500000Y-53500000D03*
%TO.P,C2,2*%
%TO.N,GND*%
X163500000Y-58600000D03*
%TD*%
%TO.P,C1,1*%
%TO.N,+5V*%
X155000000Y-53500000D03*
%TO.P,C1,2*%
%TO.N,GND*%
X155000000Y-58600000D03*
%TD*%
D12*
%TO.P,R15,1*%
%TO.N,/AUX8*%
X185000000Y-97000000D03*
%TO.P,R15,2*%
%TO.N,+3.3V*%
X187000000Y-97000000D03*
%TD*%
D13*
%TO.P,D1,1,K*%
%TO.N,Net-(D1-K)*%
X190000000Y-118875000D03*
%TO.P,D1,2,A*%
%TO.N,+5V*%
X190000000Y-117125000D03*
%TD*%
D12*
%TO.P,R3,1*%
%TO.N,/UART_TX*%
X159500000Y-105000000D03*
%TO.P,R3,2*%
%TO.N,+3.3V*%
X161500000Y-105000000D03*
%TD*%
D14*
%TO.P,J3,1,Pin_1*%
%TO.N,Net-(J3-Pin_1)*%
X191460000Y-58000000D03*
D15*
%TO.P,J3,2,Pin_2*%
%TO.N,+12V*%
X194000000Y-58000000D03*
%TD*%
D25*
%TO.P,C3,1*%
%TO.N,GND*%
X186500000Y-79500000D03*
%TO.P,C3,2*%
%TO.N,/ESP32_RST*%
X184775000Y-79500000D03*
%TD*%
D18*
%TO.P,R13,1*%
%TO.N,/DE+*%
X138750000Y-83250000D03*
%TO.P,R13,2*%
%TO.N,+3.3V*%
X138750000Y-85250000D03*
%TD*%
%TO.P,R9,1*%
%TO.N,Net-(D1-K)*%
X190000000Y-122250000D03*
%TO.P,R9,2*%
%TO.N,GND*%
X190000000Y-124250000D03*
%TD*%
%TO.P,R10,1*%
%TO.N,Net-(D2-K)*%
X187000000Y-122250000D03*
%TO.P,R10,2*%
%TO.N,GND*%
X187000000Y-124250000D03*
%TD*%
%TO.P,R12,1*%
%TO.N,/DE-*%
X135500000Y-83250000D03*
%TO.P,R12,2*%
%TO.N,+3.3V*%
X135500000Y-85250000D03*
%TD*%
D26*
%TO.P,C9,1*%
%TO.N,+5V*%
X168000000Y-65562500D03*
%TO.P,C9,2*%
%TO.N,GND*%
X168000000Y-62437500D03*
%TD*%
D12*
%TO.P,R2,1*%
%TO.N,/UART_TX*%
X159500000Y-107500000D03*
%TO.P,R2,2*%
%TO.N,/UART_RX*%
X161500000Y-107500000D03*
%TD*%
D27*
%TO.P,J1,1*%
%TO.N,Net-(J1-Pad1)*%
X190000000Y-66700000D03*
D28*
%TO.P,J1,2*%
%TO.N,GND*%
X192300000Y-72000000D03*
D29*
%TO.P,J1,3,switch*%
%TO.N,unconnected-(J1-switch-Pad3)*%
X196000000Y-69500000D03*
%TD*%
D18*
%TO.P,R11,1*%
%TO.N,/RA-*%
X132000000Y-83250000D03*
%TO.P,R11,2*%
%TO.N,+3.3V*%
X132000000Y-85250000D03*
%TD*%
D30*
%TO.P,U2,1,~{EN}*%
%TO.N,/EN*%
X144890000Y-106000000D03*
D31*
%TO.P,U2,2,MS1*%
%TO.N,GND*%
X142350000Y-106000000D03*
%TO.P,U2,3,MS2*%
X139810000Y-106000000D03*
%TO.P,U2,4,PDN*%
%TO.N,/UART_RX*%
X137270000Y-106000000D03*
%TO.P,U2,5,PDN*%
%TO.N,unconnected-(U2-PDN-Pad5)*%
X134730000Y-106000000D03*
%TO.P,U2,6,CLK*%
%TO.N,unconnected-(U2-CLK-Pad6)*%
X132190000Y-106000000D03*
%TO.P,U2,7,STEP*%
%TO.N,/STEP_1*%
X129650000Y-106000000D03*
%TO.P,U2,8,DIR*%
%TO.N,/DIR_1*%
X127110000Y-106000000D03*
%TO.P,U2,9,GND*%
%TO.N,GND*%
X144890000Y-93300000D03*
%TO.P,U2,10,VDD*%
%TO.N,+3.3V*%
X142350000Y-93300000D03*
%TO.P,U2,11,B2*%
%TO.N,/B2_1*%
X139810000Y-93300000D03*
%TO.P,U2,12,B1*%
%TO.N,/B1_1*%
X137270000Y-93300000D03*
%TO.P,U2,13,A1*%
%TO.N,/A1_1*%
X134730000Y-93300000D03*
%TO.P,U2,14,A2*%
%TO.N,/A2_1*%
X132190000Y-93300000D03*
%TO.P,U2,15,GND*%
%TO.N,GND*%
X129650000Y-93300000D03*
%TO.P,U2,16,VM*%
%TO.N,+12V*%
X127110000Y-93300000D03*
%TD*%
D32*
%TO.P,U1,1,3V3*%
%TO.N,+3.3V*%
X182400000Y-76860000D03*
D33*
%TO.P,U1,2,EN*%
%TO.N,/ESP32_RST*%
X182400000Y-79400000D03*
%TO.P,U1,3,SENSOR_VP*%
%TO.N,/PEC*%
X182400000Y-81940000D03*
%TO.P,U1,4,SENSOR_VN*%
%TO.N,/UART_RX*%
X182400000Y-84480000D03*
%TO.P,U1,5,IO34*%
%TO.N,/RA-*%
X182400000Y-87020000D03*
%TO.P,U1,6,IO35*%
%TO.N,/RA+*%
X182400000Y-89560000D03*
%TO.P,U1,7,IO32*%
%TO.N,/DE-*%
X182400000Y-92100000D03*
%TO.P,U1,8,IO33*%
%TO.N,/DE+*%
X182400000Y-94640000D03*
%TO.P,U1,9,IO25*%
%TO.N,/AUX8*%
X182400000Y-97180000D03*
%TO.P,U1,10,IO26*%
%TO.N,/DIR2*%
X182400000Y-99720000D03*
%TO.P,U1,11,IO27*%
%TO.N,/STEP2*%
X182400000Y-102260000D03*
%TO.P,U1,12,IO14*%
%TO.N,/AUX3*%
X182400000Y-104800000D03*
%TO.P,U1,13,IO12*%
%TO.N,/STA*%
X182400000Y-107340000D03*
%TO.P,U1,14,GND1*%
%TO.N,GND*%
X182400000Y-109880000D03*
%TO.P,U1,15,IO13*%
%TO.N,/AUX4*%
X182400000Y-112420000D03*
%TO.P,U1,16,SD2*%
%TO.N,unconnected-(U1-SD2-Pad16)*%
X182400000Y-114960000D03*
%TO.P,U1,17,SD3*%
%TO.N,unconnected-(U1-SD3-Pad17)*%
X182400000Y-117500000D03*
%TO.P,U1,18,CMD*%
%TO.N,unconnected-(U1-CMD-Pad18)*%
X182400000Y-120040000D03*
%TO.P,U1,19,EXT_5V*%
%TO.N,+5V*%
X182400000Y-122580000D03*
%TO.P,U1,20,CLK*%
%TO.N,unconnected-(U1-CLK-Pad20)*%
X157000000Y-122580000D03*
%TO.P,U1,21,SD0*%
%TO.N,unconnected-(U1-SD0-Pad21)*%
X157000000Y-120040000D03*
%TO.P,U1,22,SD1*%
%TO.N,unconnected-(U1-SD1-Pad22)*%
X157000000Y-117500000D03*
%TO.P,U1,23,IO15*%
%TO.N,unconnected-(U1-IO15-Pad23)*%
X157000000Y-114960000D03*
%TO.P,U1,24,IO2*%
%TO.N,unconnected-(U1-IO2-Pad24)*%
X157000000Y-112420000D03*
%TO.P,U1,25,IO0*%
%TO.N,/DIR1*%
X157000000Y-109880000D03*
%TO.P,U1,26,IO4*%
%TO.N,/UART_TX*%
X157000000Y-107340000D03*
%TO.P,U1,27,IO16*%
%TO.N,/RX2*%
X157000000Y-104800000D03*
%TO.P,U1,28,IO17*%
%TO.N,/TX2*%
X157000000Y-102260000D03*
%TO.P,U1,29,IO5*%
%TO.N,/EN*%
X157000000Y-99720000D03*
%TO.P,U1,30,IO18*%
%TO.N,/STEP1*%
X157000000Y-97180000D03*
%TO.P,U1,31,IO19*%
%TO.N,unconnected-(U1-IO19-Pad31)*%
X157000000Y-94640000D03*
%TO.P,U1,32,GND2*%
%TO.N,GND*%
X157000000Y-92100000D03*
%TO.P,U1,33,IO21*%
%TO.N,/SDA*%
X157000000Y-89560000D03*
%TO.P,U1,34,RXD0*%
%TO.N,/TX0*%
X157000000Y-87020000D03*
%TO.P,U1,35,TXD0*%
%TO.N,/RX0*%
X157000000Y-84480000D03*
%TO.P,U1,36,IO22*%
%TO.N,/SCL*%
X157000000Y-81940000D03*
%TO.P,U1,37,IO23*%
%TO.N,/AUX7*%
X157000000Y-79400000D03*
%TO.P,U1,38,GND3*%
%TO.N,GND*%
X157000000Y-76860000D03*
%TD*%
D30*
%TO.P,U3,1,~{EN}*%
%TO.N,/EN*%
X144780000Y-122700000D03*
D31*
%TO.P,U3,2,MS1*%
%TO.N,GND*%
X142240000Y-122700000D03*
%TO.P,U3,3,MS2*%
%TO.N,+3.3V*%
X139700000Y-122700000D03*
%TO.P,U3,4,PDN*%
%TO.N,/UART_RX*%
X137160000Y-122700000D03*
%TO.P,U3,5,PDN*%
%TO.N,unconnected-(U3-PDN-Pad5)*%
X134620000Y-122700000D03*
%TO.P,U3,6,CLK*%
%TO.N,unconnected-(U3-CLK-Pad6)*%
X132080000Y-122700000D03*
%TO.P,U3,7,STEP*%
%TO.N,/STEP_2*%
X129540000Y-122700000D03*
%TO.P,U3,8,DIR*%
%TO.N,/DIR_2*%
X127000000Y-122700000D03*
%TO.P,U3,9,GND*%
%TO.N,GND*%
X144780000Y-110000000D03*
%TO.P,U3,10,VDD*%
%TO.N,+3.3V*%
X142240000Y-110000000D03*
%TO.P,U3,11,B2*%
%TO.N,/B2_2*%
X139700000Y-110000000D03*
%TO.P,U3,12,B1*%
%TO.N,/B1_2*%
X137160000Y-110000000D03*
%TO.P,U3,13,A1*%
%TO.N,/A1_2*%
X134620000Y-110000000D03*
%TO.P,U3,14,A2*%
%TO.N,/A2_2*%
X132080000Y-110000000D03*
%TO.P,U3,15,GND*%
%TO.N,GND*%
X129540000Y-110000000D03*
%TO.P,U3,16,VM*%
%TO.N,+12V*%
X127000000Y-110000000D03*
%TD*%
D14*
%TO.P,J5,1,Pin_1*%
%TO.N,/B2_2*%
X151000000Y-120080000D03*
D15*
%TO.P,J5,2,Pin_2*%
%TO.N,/A2_2*%
X151000000Y-117540000D03*
%TO.P,J5,3,Pin_3*%
%TO.N,/A1_2*%
X151000000Y-115000000D03*
%TO.P,J5,4,Pin_4*%
%TO.N,/B1_2*%
X151000000Y-112460000D03*
%TD*%
D14*
%TO.P,J6,1,Pin_1*%
%TO.N,GND*%
X153000000Y-67460000D03*
D15*
%TO.P,J6,2,Pin_2*%
%TO.N,/PUL*%
X153000000Y-70000000D03*
%TO.P,J6,3,Pin_3*%
%TO.N,+3.3V*%
X153000000Y-72540000D03*
%TD*%
D14*
%TO.P,J8,1,Pin_1*%
%TO.N,GND*%
X195000000Y-77420000D03*
D15*
%TO.P,J8,2,Pin_2*%
%TO.N,+5V*%
X195000000Y-79960000D03*
%TO.P,J8,3,Pin_3*%
%TO.N,/EN1_B*%
X195000000Y-82500000D03*
%TO.P,J8,4,Pin_4*%
%TO.N,/EN1_A*%
X195000000Y-85040000D03*
%TO.P,J8,5,Pin_5*%
%TO.N,/EN2_B*%
X195000000Y-87580000D03*
%TO.P,J8,6,Pin_6*%
%TO.N,/EN2_A*%
X195000000Y-90120000D03*
%TO.P,J8,7,Pin_7*%
%TO.N,/AUX3*%
X195000000Y-92660000D03*
%TO.P,J8,8,Pin_8*%
%TO.N,/AUX4*%
X195000000Y-95200000D03*
%TO.P,J8,9,Pin_9*%
%TO.N,/TX0*%
X195000000Y-97740000D03*
%TO.P,J8,10,Pin_10*%
%TO.N,/RX0*%
X195000000Y-100280000D03*
%TO.P,J8,11,Pin_11*%
%TO.N,/SCL*%
X195000000Y-102820000D03*
%TO.P,J8,12,Pin_12*%
%TO.N,/SDA*%
X195000000Y-105360000D03*
%TO.P,J8,13,Pin_13*%
%TO.N,/PEC*%
X195000000Y-107900000D03*
%TO.P,J8,14,Pin_14*%
%TO.N,/AUX7*%
X195000000Y-110440000D03*
%TO.P,J8,15,Pin_15*%
%TO.N,+3.3V*%
X195000000Y-112980000D03*
%TO.P,J8,16,Pin_16*%
X195000000Y-115520000D03*
%TO.P,J8,17,Pin_17*%
%TO.N,/LIMIT*%
X195000000Y-118060000D03*
%TO.P,J8,18,Pin_18*%
%TO.N,/AUX7*%
X195000000Y-120600000D03*
%TO.P,J8,19,Pin_19*%
%TO.N,/PPS*%
X195000000Y-123140000D03*
%TD*%
D14*
%TO.P,J4,1,Pin_1*%
%TO.N,/B2_1*%
X151000000Y-103300000D03*
D15*
%TO.P,J4,2,Pin_2*%
%TO.N,/A2_1*%
X151000000Y-100760000D03*
%TO.P,J4,3,Pin_3*%
%TO.N,/A1_1*%
X151000000Y-98220000D03*
%TO.P,J4,4,Pin_4*%
%TO.N,/B1_1*%
X151000000Y-95680000D03*
%TD*%
D34*
%TO.P,U4,1,~{RST}*%
%TO.N,unconnected-(U4-~{RST}-Pad1)*%
X148445000Y-59610000D03*
D35*
%TO.P,U4,2,A0*%
%TO.N,unconnected-(U4-A0-Pad2)*%
X148445000Y-62150000D03*
%TO.P,U4,3,D0*%
%TO.N,unconnected-(U4-D0-Pad3)*%
X148445000Y-64690000D03*
%TO.P,U4,4,SCK/D5*%
%TO.N,/EN1_A*%
X148445000Y-67230000D03*
%TO.P,U4,5,MISO/D6*%
%TO.N,/EN1_B*%
X148445000Y-69770000D03*
%TO.P,U4,6,MOSI/D7*%
%TO.N,/TX2*%
X148445000Y-72310000D03*
%TO.P,U4,7,CS/D8*%
%TO.N,/RX2*%
X148445000Y-74850000D03*
%TO.P,U4,8,3V3*%
%TO.N,unconnected-(U4-3V3-Pad8)*%
X148445000Y-77390000D03*
%TO.P,U4,9,5V*%
%TO.N,+5V*%
X125585000Y-77390000D03*
%TO.P,U4,10,GND*%
%TO.N,GND*%
X125585000Y-74850000D03*
%TO.P,U4,11,D4*%
%TO.N,unconnected-(U4-D4-Pad11)*%
X125585000Y-72310000D03*
%TO.P,U4,12,D3*%
%TO.N,unconnected-(U4-D3-Pad12)*%
X125585000Y-69770000D03*
%TO.P,U4,13,SDA/D2*%
%TO.N,/EN2_B*%
X125585000Y-67230000D03*
%TO.P,U4,14,SCL/D1*%
%TO.N,/EN2_A*%
X125585000Y-64690000D03*
%TO.P,U4,15,RX*%
%TO.N,unconnected-(U4-RX-Pad15)*%
X125585000Y-62150000D03*
%TO.P,U4,16,TX*%
%TO.N,unconnected-(U4-TX-Pad16)*%
X125585000Y-59610000D03*
%TD*%
D36*
%TO.N,GND*%
X170500000Y-72000000D03*
X165250000Y-81500000D03*
X176250000Y-121000000D03*
X165250000Y-67250000D03*
X171750000Y-102500000D03*
X187750000Y-79500000D03*
X161250000Y-95000000D03*
X170500000Y-67250000D03*
X135345000Y-73845000D03*
X172500000Y-76500000D03*
X188500000Y-124250000D03*
%TO.N,+12V*%
X182250000Y-125250000D03*
X198250000Y-125250000D03*
%TO.N,/DE+*%
X145250000Y-89250000D03*
X140250000Y-82750000D03*
X143500000Y-87500000D03*
%TO.N,/RA-*%
X132750000Y-81250000D03*
%TO.N,/DE-*%
X137000000Y-82750000D03*
%TO.N,/RA+*%
X144500000Y-82750000D03*
%TO.N,/EN*%
X146750000Y-121750000D03*
X146750000Y-108500000D03*
%TO.N,/EN1_B*%
X150500000Y-69750000D03*
X163250000Y-67500000D03*
%TO.N,/EN2_A*%
X129250000Y-72500000D03*
X129250000Y-67500000D03*
%TO.N,/B2_1*%
X148500000Y-103250000D03*
X141250000Y-94500000D03*
%TO.N,/B2_2*%
X141000000Y-111500000D03*
X145750000Y-120250000D03*
%TO.N,/RX2*%
X154250000Y-100250000D03*
X154250000Y-103750000D03*
X152500000Y-79000000D03*
X151000000Y-77500000D03*
%TO.N,/TX2*%
X155250000Y-103000000D03*
X153065687Y-78434313D03*
X155250000Y-100250000D03*
X151569361Y-76938011D03*
%TO.N,/RX0*%
X162750000Y-85059500D03*
X190250000Y-94500000D03*
X162750000Y-89750000D03*
X179250000Y-93250000D03*
%TO.N,/SDA*%
X159000000Y-89250000D03*
X160000000Y-91250000D03*
%TO.N,/PEC*%
X193000000Y-93000000D03*
%TO.N,/SCL*%
X160750000Y-82500000D03*
X160750000Y-90250000D03*
%TO.N,/TX0*%
X179250000Y-91000000D03*
X163750000Y-89750000D03*
X191500000Y-92750000D03*
X163750000Y-87491500D03*
%TO.N,/AUX4*%
X197000000Y-95200000D03*
%TO.N,/AUX7*%
X179750000Y-94750000D03*
X161750000Y-82559500D03*
X161750000Y-89750000D03*
X191250000Y-110500000D03*
%TD*%
D37*
%TO.N,/AUX4*%
X179857500Y-114962500D02*
X182400000Y-112420000D01*
X176250000Y-114962500D02*
X179857500Y-114962500D01*
%TO.N,GND*%
X176250000Y-117037500D02*
X176250000Y-121000000D01*
%TO.N,/AUX3*%
X180387500Y-102787500D02*
X182400000Y-104800000D01*
X176750000Y-102787500D02*
X180387500Y-102787500D01*
%TO.N,GND*%
X173537500Y-100712500D02*
X171750000Y-102500000D01*
X176750000Y-100712500D02*
X173537500Y-100712500D01*
%TO.N,/PEC*%
X177902500Y-81940000D02*
X176250000Y-80287500D01*
X182400000Y-81940000D02*
X177902500Y-81940000D01*
%TO.N,GND*%
X174537500Y-76500000D02*
X176250000Y-78212500D01*
X172500000Y-76500000D02*
X174537500Y-76500000D01*
X169312500Y-57037500D02*
X171750000Y-57037500D01*
D38*
X167750000Y-58600000D02*
X171712500Y-58600000D01*
X164750000Y-58600000D02*
X167750000Y-58600000D01*
D37*
X167750000Y-58600000D02*
X169312500Y-57037500D01*
D38*
X155000000Y-58600000D02*
X164750000Y-58600000D01*
D39*
X165250000Y-91000000D02*
X165250000Y-81500000D01*
X164309500Y-68190500D02*
X165250000Y-67250000D01*
D38*
X186500000Y-79500000D02*
X187750000Y-79500000D01*
X171712500Y-58600000D02*
X171750000Y-58637500D01*
X168000000Y-62387500D02*
X171750000Y-58637500D01*
D39*
X153000000Y-67460000D02*
X153730500Y-68190500D01*
X187000000Y-124250000D02*
X188500000Y-124250000D01*
D38*
X168000000Y-62437500D02*
X168000000Y-62387500D01*
D37*
X183650000Y-70550000D02*
X190850000Y-70550000D01*
D39*
X161250000Y-95000000D02*
X165250000Y-91000000D01*
X190000000Y-124250000D02*
X188500000Y-124250000D01*
D38*
X183650000Y-70550000D02*
X180500000Y-67400000D01*
D39*
X153730500Y-68190500D02*
X164309500Y-68190500D01*
D38*
X163500000Y-58600000D02*
X164750000Y-58600000D01*
D39*
X135345000Y-73845000D02*
X135345000Y-77550000D01*
D37*
X190850000Y-70550000D02*
X192300000Y-72000000D01*
D38*
X178937500Y-58637500D02*
X180500000Y-60200000D01*
D39*
X170500000Y-67250000D02*
X170500000Y-72000000D01*
D38*
X171750000Y-58637500D02*
X178937500Y-58637500D01*
X180500000Y-67400000D02*
X180500000Y-60200000D01*
%TO.N,Net-(J1-Pad1)*%
X197500000Y-55675000D02*
X195275000Y-53450000D01*
X190000000Y-66700000D02*
X192300000Y-66700000D01*
X197500000Y-61500000D02*
X197500000Y-55675000D01*
X192300000Y-66700000D02*
X197500000Y-61500000D01*
%TO.N,Net-(J3-Pin_1)*%
X191500000Y-56500000D02*
X191460000Y-56540000D01*
X191460000Y-56540000D02*
X191460000Y-58000000D01*
X190195000Y-53450000D02*
X191500000Y-54755000D01*
X191500000Y-54755000D02*
X191500000Y-56500000D01*
%TO.N,+12V*%
X180362500Y-53362500D02*
X180500000Y-53500000D01*
%TO.N,+5V*%
X154000000Y-61500000D02*
X152000000Y-59500000D01*
D39*
X130750000Y-88000000D02*
X135500000Y-88000000D01*
X125585000Y-82835000D02*
X130750000Y-88000000D01*
X144250000Y-64500000D02*
X128750000Y-64500000D01*
D38*
X193960000Y-79960000D02*
X195000000Y-79960000D01*
X193000000Y-79000000D02*
X193960000Y-79960000D01*
D37*
X196196000Y-125304000D02*
X197750000Y-123750000D01*
X193250000Y-125304000D02*
X196196000Y-125304000D01*
D39*
X145250500Y-63499500D02*
X144250000Y-64500000D01*
X125585000Y-77390000D02*
X125585000Y-82835000D01*
D38*
X161500000Y-61500000D02*
X154000000Y-61500000D01*
D39*
X126121000Y-77390000D02*
X125585000Y-77390000D01*
D38*
X172062500Y-65562500D02*
X168000000Y-65562500D01*
D39*
X128000000Y-75250000D02*
X125860000Y-77390000D01*
D37*
X197750000Y-123750000D02*
X197750000Y-95516318D01*
D38*
X191500000Y-75000000D02*
X193000000Y-76500000D01*
D37*
X197750000Y-95516318D02*
X197754000Y-95512318D01*
X185124000Y-125304000D02*
X193250000Y-125304000D01*
D39*
X152000000Y-59500000D02*
X152000000Y-60478621D01*
D38*
X185750000Y-72500000D02*
X188250000Y-75000000D01*
X177350000Y-68250000D02*
X174750000Y-68250000D01*
D39*
X128000000Y-65250000D02*
X128000000Y-75250000D01*
X190000000Y-117125000D02*
X191750000Y-118875000D01*
D38*
X188250000Y-75000000D02*
X191500000Y-75000000D01*
X152000000Y-59500000D02*
X152000000Y-56500000D01*
D39*
X152000000Y-60478621D02*
X148979121Y-63499500D01*
D37*
X197754000Y-95512318D02*
X197754000Y-82714000D01*
D38*
X177350000Y-68250000D02*
X181600000Y-72500000D01*
D39*
X125860000Y-77390000D02*
X125585000Y-77390000D01*
D37*
X197754000Y-82714000D02*
X195000000Y-79960000D01*
D38*
X152000000Y-56500000D02*
X155000000Y-53500000D01*
D37*
X182400000Y-122580000D02*
X185124000Y-125304000D01*
D39*
X148979121Y-63499500D02*
X145250500Y-63499500D01*
D38*
X165562500Y-65562500D02*
X161500000Y-61500000D01*
X168000000Y-65562500D02*
X165562500Y-65562500D01*
X174750000Y-68250000D02*
X172062500Y-65562500D01*
D39*
X191750000Y-118875000D02*
X191750000Y-123804000D01*
D38*
X193000000Y-76500000D02*
X193000000Y-79000000D01*
D39*
X191750000Y-123804000D02*
X193250000Y-125304000D01*
X128750000Y-64500000D02*
X128000000Y-65250000D01*
D38*
X181600000Y-72500000D02*
X185750000Y-72500000D01*
D39*
%TO.N,/DE+*%
X138750000Y-83250000D02*
X139750000Y-83250000D01*
X139155000Y-82845000D02*
X138750000Y-83250000D01*
X143500000Y-87500000D02*
X145250000Y-89250000D01*
X139750000Y-83250000D02*
X140250000Y-82750000D01*
X139155000Y-77550000D02*
X139155000Y-82845000D01*
%TO.N,Net-(J7-Pin_2)*%
X136540000Y-86500000D02*
X138040000Y-88000000D01*
X130500000Y-86500000D02*
X136540000Y-86500000D01*
X134075000Y-77925000D02*
X134075000Y-77550000D01*
X130000000Y-82000000D02*
X134075000Y-77925000D01*
X130000000Y-86000000D02*
X130500000Y-86500000D01*
X130000000Y-82000000D02*
X130000000Y-86000000D01*
%TO.N,/RA-*%
X136615000Y-77550000D02*
X136615000Y-80431000D01*
X132000000Y-82750000D02*
X132000000Y-82000000D01*
X135796000Y-81250000D02*
X132750000Y-81250000D01*
X132000000Y-82000000D02*
X132750000Y-81250000D01*
X136615000Y-80431000D02*
X135796000Y-81250000D01*
%TO.N,/DE-*%
X137885000Y-80365000D02*
X135500000Y-82750000D01*
X136500000Y-83250000D02*
X137000000Y-82750000D01*
X135500000Y-83250000D02*
X136500000Y-83250000D01*
X137885000Y-77550000D02*
X137885000Y-80365000D01*
%TO.N,/RA+*%
X140425000Y-77550000D02*
X140425000Y-81175000D01*
X140425000Y-81175000D02*
X142000000Y-82750000D01*
X142000000Y-82750000D02*
X144500000Y-82750000D01*
%TO.N,/EN*%
X145730000Y-121750000D02*
X144780000Y-122700000D01*
X153000000Y-105000000D02*
X153000000Y-103720000D01*
X159500000Y-99750000D02*
X157030000Y-99750000D01*
X144890000Y-106640000D02*
X146750000Y-108500000D01*
X152000000Y-106000000D02*
X153000000Y-105000000D01*
X146750000Y-121750000D02*
X145730000Y-121750000D01*
X157030000Y-99750000D02*
X157000000Y-99720000D01*
X153000000Y-103720000D02*
X157000000Y-99720000D01*
X144890000Y-106000000D02*
X144890000Y-106640000D01*
X144890000Y-106000000D02*
X152000000Y-106000000D01*
%TO.N,+3.3V*%
X142000000Y-85250000D02*
X138750000Y-85250000D01*
X189500000Y-96750000D02*
X192250000Y-94000000D01*
X192250000Y-79000000D02*
X192250000Y-94000000D01*
X153000000Y-72540000D02*
X153000000Y-77000000D01*
X150250000Y-81500000D02*
X150250000Y-85750000D01*
X169875000Y-73125000D02*
X156875000Y-73125000D01*
X187000000Y-97000000D02*
X187250000Y-96750000D01*
X192250000Y-112250000D02*
X193000000Y-113000000D01*
X130935500Y-92814500D02*
X130935500Y-107750000D01*
X150250000Y-79750000D02*
X150250000Y-81500000D01*
X146500000Y-85250000D02*
X142000000Y-85250000D01*
X138750000Y-85250000D02*
X135500000Y-85250000D01*
X161500000Y-105000000D02*
X165919000Y-105000000D01*
X187250000Y-96750000D02*
X189500000Y-96750000D01*
X130935500Y-107750000D02*
X130935500Y-113935500D01*
X193020000Y-112980000D02*
X195000000Y-112980000D01*
X132041000Y-108855500D02*
X130935500Y-107750000D01*
X152000000Y-78000000D02*
X150250000Y-79750000D01*
X132000000Y-85250000D02*
X135500000Y-85250000D01*
X142350000Y-93300000D02*
X141050000Y-92000000D01*
X182400000Y-76860000D02*
X190110000Y-76860000D01*
X150250000Y-85750000D02*
X144000000Y-92000000D01*
X131750000Y-92000000D02*
X130935500Y-92814500D01*
X170000000Y-73000000D02*
X169875000Y-73125000D01*
X153000000Y-77000000D02*
X152000000Y-78000000D01*
X190110000Y-76860000D02*
X192250000Y-79000000D01*
X130935500Y-113935500D02*
X139700000Y-122700000D01*
X144000000Y-92000000D02*
X140500000Y-92000000D01*
X195000000Y-115520000D02*
X195000000Y-112980000D01*
X141050000Y-92000000D02*
X140500000Y-92000000D01*
X156875000Y-73125000D02*
X152000000Y-78000000D01*
X142240000Y-110000000D02*
X141095500Y-108855500D01*
X150250000Y-81500000D02*
X146500000Y-85250000D01*
X170000000Y-73000000D02*
X178540000Y-73000000D01*
X168419000Y-102500000D02*
X168419000Y-74581000D01*
X193000000Y-113000000D02*
X193020000Y-112980000D01*
X168419000Y-74581000D02*
X170000000Y-73000000D01*
X178540000Y-73000000D02*
X182400000Y-76860000D01*
X161500000Y-99750000D02*
X161500000Y-105000000D01*
X140500000Y-92000000D02*
X131750000Y-92000000D01*
X192250000Y-94000000D02*
X192250000Y-112250000D01*
X141095500Y-108855500D02*
X132041000Y-108855500D01*
X165919000Y-105000000D02*
X168419000Y-102500000D01*
%TO.N,/UART_RX*%
X155750000Y-108750000D02*
X153000000Y-111500000D01*
X145000000Y-108000000D02*
X139270000Y-108000000D01*
X175020000Y-84480000D02*
X169000000Y-90500000D01*
X156025500Y-108724500D02*
X156000000Y-108750000D01*
X153000000Y-111500000D02*
X151000000Y-109500000D01*
X160275500Y-108724500D02*
X156025500Y-108724500D01*
X137160000Y-122700000D02*
X138960000Y-124500000D01*
X182400000Y-84480000D02*
X175020000Y-84480000D01*
X156000000Y-108750000D02*
X155750000Y-108750000D01*
X139270000Y-108000000D02*
X137270000Y-106000000D01*
X151000000Y-109500000D02*
X146500000Y-109500000D01*
X169000000Y-90500000D02*
X169000000Y-105000000D01*
X153000000Y-122000000D02*
X153000000Y-111500000D01*
X138960000Y-124500000D02*
X150500000Y-124500000D01*
X150500000Y-124500000D02*
X153000000Y-122000000D01*
X166500000Y-107500000D02*
X161500000Y-107500000D01*
X146500000Y-109500000D02*
X145000000Y-108000000D01*
X169000000Y-105000000D02*
X166500000Y-107500000D01*
X161500000Y-107500000D02*
X160275500Y-108724500D01*
%TO.N,/UART_TX*%
X159500000Y-107500000D02*
X157160000Y-107500000D01*
X157160000Y-107500000D02*
X157000000Y-107340000D01*
X159500000Y-105000000D02*
X159500000Y-107500000D01*
%TO.N,/EN1_B*%
X150500000Y-69750000D02*
X150500000Y-64500000D01*
X159500000Y-63750000D02*
X163250000Y-67500000D01*
X151250000Y-63750000D02*
X159500000Y-63750000D01*
X150500000Y-64500000D02*
X151250000Y-63750000D01*
%TO.N,/EN2_A*%
X129250000Y-72500000D02*
X129250000Y-67500000D01*
D38*
%TO.N,/AUX8*%
X185000000Y-97000000D02*
X182580000Y-97000000D01*
X182580000Y-97000000D02*
X182400000Y-97180000D01*
D39*
%TO.N,Net-(D1-K)*%
X190000000Y-118875000D02*
X190000000Y-122250000D01*
%TO.N,Net-(D2-K)*%
X187000000Y-122250000D02*
X187000000Y-118875000D01*
%TO.N,/B1_1*%
X137270000Y-93300000D02*
X139650000Y-95680000D01*
X139650000Y-95680000D02*
X151000000Y-95680000D01*
%TO.N,/A2_1*%
X132190000Y-93300000D02*
X139650000Y-100760000D01*
X139650000Y-100760000D02*
X151000000Y-100760000D01*
%TO.N,/B2_1*%
X150950000Y-103250000D02*
X151000000Y-103300000D01*
X148500000Y-103250000D02*
X150950000Y-103250000D01*
X140050000Y-93300000D02*
X141250000Y-94500000D01*
X139810000Y-93300000D02*
X140050000Y-93300000D01*
%TO.N,/A1_1*%
X139650000Y-98220000D02*
X151000000Y-98220000D01*
X134730000Y-93300000D02*
X139650000Y-98220000D01*
%TO.N,/A1_2*%
X139620000Y-115000000D02*
X151000000Y-115000000D01*
X134620000Y-110000000D02*
X139620000Y-115000000D01*
%TO.N,/B2_2*%
X146500000Y-120250000D02*
X146670000Y-120080000D01*
X146670000Y-120080000D02*
X151000000Y-120080000D01*
X139700000Y-110200000D02*
X141000000Y-111500000D01*
X145750000Y-120250000D02*
X146500000Y-120250000D01*
X139700000Y-110000000D02*
X139700000Y-110200000D01*
%TO.N,/A2_2*%
X139620000Y-117540000D02*
X151000000Y-117540000D01*
X132080000Y-110000000D02*
X139620000Y-117540000D01*
%TO.N,/B1_2*%
X139620000Y-112460000D02*
X151000000Y-112460000D01*
X137160000Y-110000000D02*
X139620000Y-112460000D01*
%TO.N,/RX2*%
X152500000Y-79000000D02*
X154250000Y-80750000D01*
X157000000Y-104800000D02*
X155300000Y-104800000D01*
X155300000Y-104800000D02*
X154250000Y-103750000D01*
X151000000Y-77405000D02*
X148445000Y-74850000D01*
X151000000Y-77500000D02*
X151000000Y-77405000D01*
X154250000Y-80750000D02*
X154250000Y-100250000D01*
%TO.N,/TX2*%
X155250000Y-100250000D02*
X155250000Y-80618626D01*
X155250000Y-80618626D02*
X153065687Y-78434313D01*
X151569361Y-75434361D02*
X148445000Y-72310000D01*
X157000000Y-102260000D02*
X155990000Y-102260000D01*
X155990000Y-102260000D02*
X155250000Y-103000000D01*
X151569361Y-76938011D02*
X151569361Y-75434361D01*
%TO.N,/RX0*%
X189005500Y-93255500D02*
X190250000Y-94500000D01*
X162750000Y-85059500D02*
X162750000Y-89750000D01*
X179250000Y-93250000D02*
X179255500Y-93255500D01*
X179255500Y-93255500D02*
X189005500Y-93255500D01*
%TO.N,/SDA*%
X159000000Y-89250000D02*
X159000000Y-90250000D01*
X159000000Y-90250000D02*
X160000000Y-91250000D01*
%TO.N,/PEC*%
X193000000Y-105900000D02*
X195000000Y-107900000D01*
X193000000Y-93000000D02*
X193000000Y-105900000D01*
D38*
%TO.N,/ESP32_RST*%
X184675000Y-79400000D02*
X184775000Y-79500000D01*
X182400000Y-79400000D02*
X184675000Y-79400000D01*
D39*
%TO.N,/SCL*%
X160750000Y-82500000D02*
X160750000Y-90250000D01*
%TO.N,/TX0*%
X179305500Y-90944500D02*
X189694500Y-90944500D01*
X189694500Y-90944500D02*
X191500000Y-92750000D01*
X163750000Y-87491500D02*
X163750000Y-89750000D01*
X179250000Y-91000000D02*
X179305500Y-90944500D01*
%TO.N,/AUX4*%
X197000000Y-95200000D02*
X195000000Y-95200000D01*
%TO.N,/STA*%
X187000000Y-117125000D02*
X187000000Y-116500000D01*
X187000000Y-116500000D02*
X184500000Y-114000000D01*
X184500000Y-114000000D02*
X184500000Y-109440000D01*
X184500000Y-109440000D02*
X182400000Y-107340000D01*
%TO.N,/AUX7*%
X196750000Y-112190000D02*
X195000000Y-110440000D01*
X196750000Y-118850000D02*
X196750000Y-112190000D01*
X179750000Y-94750000D02*
X179750000Y-96164124D01*
X195000000Y-120600000D02*
X196750000Y-118850000D01*
X161750000Y-82559500D02*
X161750000Y-89750000D01*
X188250000Y-98500000D02*
X191250000Y-101500000D01*
X179750000Y-96164124D02*
X182085876Y-98500000D01*
X182085876Y-98500000D02*
X188250000Y-98500000D01*
X191250000Y-101500000D02*
X191250000Y-110500000D01*
%TD*%
%TA.AperFunction,Conductor*%
%TO.N,+12V*%
G36*
X124205703Y-77960146D02*
G01*
X124234983Y-77997562D01*
X124267886Y-78062136D01*
X124272715Y-78071614D01*
X124393028Y-78237213D01*
X124537786Y-78381971D01*
X124703388Y-78502286D01*
X124703390Y-78502287D01*
X124826295Y-78564910D01*
X124877090Y-78612883D01*
X124894000Y-78675394D01*
X124894000Y-82903058D01*
X124895989Y-82913057D01*
X124895989Y-82913058D01*
X124920553Y-83036549D01*
X124920556Y-83036561D01*
X124972642Y-83162309D01*
X124972644Y-83162312D01*
X125048263Y-83275485D01*
X125048269Y-83275492D01*
X130309507Y-88536730D01*
X130309514Y-88536736D01*
X130422687Y-88612355D01*
X130422690Y-88612357D01*
X130516266Y-88651117D01*
X130548443Y-88664445D01*
X130548447Y-88664445D01*
X130548448Y-88664446D01*
X130681939Y-88691000D01*
X130681942Y-88691000D01*
X130681943Y-88691000D01*
X130818057Y-88691000D01*
X134025501Y-88691000D01*
X134092540Y-88710685D01*
X134138295Y-88763489D01*
X134149501Y-88815000D01*
X134149501Y-88897876D01*
X134155908Y-88957483D01*
X134206202Y-89092328D01*
X134206206Y-89092335D01*
X134292452Y-89207544D01*
X134292455Y-89207547D01*
X134407664Y-89293793D01*
X134407671Y-89293797D01*
X134542517Y-89344091D01*
X134542516Y-89344091D01*
X134549444Y-89344835D01*
X134602127Y-89350500D01*
X136397872Y-89350499D01*
X136457483Y-89344091D01*
X136592331Y-89293796D01*
X136707546Y-89207546D01*
X136793796Y-89092331D01*
X136842810Y-88960916D01*
X136884681Y-88904984D01*
X136950145Y-88880566D01*
X137018418Y-88895417D01*
X137046673Y-88916569D01*
X137168599Y-89038495D01*
X137265384Y-89106265D01*
X137362165Y-89174032D01*
X137362167Y-89174033D01*
X137362170Y-89174035D01*
X137576337Y-89273903D01*
X137804592Y-89335063D01*
X137981034Y-89350500D01*
X138039999Y-89355659D01*
X138040000Y-89355659D01*
X138040001Y-89355659D01*
X138098966Y-89350500D01*
X138275408Y-89335063D01*
X138503663Y-89273903D01*
X138717830Y-89174035D01*
X138911401Y-89038495D01*
X139078495Y-88871401D01*
X139214035Y-88677830D01*
X139313903Y-88463663D01*
X139375063Y-88235408D01*
X139395659Y-88000000D01*
X139375063Y-87764592D01*
X139313903Y-87536337D01*
X139214035Y-87322171D01*
X139156913Y-87240591D01*
X139078494Y-87128597D01*
X138911402Y-86961506D01*
X138911395Y-86961501D01*
X138875117Y-86936099D01*
X138872521Y-86934281D01*
X138717834Y-86825967D01*
X138717830Y-86825965D01*
X138660891Y-86799414D01*
X138503663Y-86726097D01*
X138503659Y-86726096D01*
X138503655Y-86726094D01*
X138275413Y-86664938D01*
X138275403Y-86664936D01*
X138040001Y-86644341D01*
X138039999Y-86644341D01*
X137804597Y-86664936D01*
X137804593Y-86664936D01*
X137804592Y-86664937D01*
X137804587Y-86664938D01*
X137804584Y-86664939D01*
X137777182Y-86672281D01*
X137707332Y-86670617D01*
X137657409Y-86640187D01*
X137169904Y-86152681D01*
X137136419Y-86091358D01*
X137141403Y-86021666D01*
X137183275Y-85965733D01*
X137248739Y-85941316D01*
X137257585Y-85941000D01*
X137559343Y-85941000D01*
X137626382Y-85960685D01*
X137664880Y-85999900D01*
X137707288Y-86068656D01*
X137831344Y-86192712D01*
X137980666Y-86284814D01*
X138147203Y-86339999D01*
X138249991Y-86350500D01*
X139250008Y-86350499D01*
X139250016Y-86350498D01*
X139250019Y-86350498D01*
X139306302Y-86344748D01*
X139352797Y-86339999D01*
X139519334Y-86284814D01*
X139668656Y-86192712D01*
X139792712Y-86068656D01*
X139835119Y-85999901D01*
X139887066Y-85953179D01*
X139940657Y-85941000D01*
X140809343Y-85941000D01*
X140876382Y-85960685D01*
X140914880Y-85999900D01*
X140957288Y-86068656D01*
X141081344Y-86192712D01*
X141230666Y-86284814D01*
X141397203Y-86339999D01*
X141499991Y-86350500D01*
X142500008Y-86350499D01*
X142500016Y-86350498D01*
X142500019Y-86350498D01*
X142556302Y-86344748D01*
X142602797Y-86339999D01*
X142769334Y-86284814D01*
X142918656Y-86192712D01*
X143042712Y-86068656D01*
X143085119Y-85999901D01*
X143137066Y-85953179D01*
X143190657Y-85941000D01*
X146568060Y-85941000D01*
X146674354Y-85919856D01*
X146701557Y-85914445D01*
X146785393Y-85879719D01*
X146827309Y-85862357D01*
X146827311Y-85862356D01*
X146853483Y-85844869D01*
X146896374Y-85816210D01*
X146940487Y-85786735D01*
X149347319Y-83379901D01*
X149408642Y-83346417D01*
X149478334Y-83351401D01*
X149534267Y-83393273D01*
X149558684Y-83458737D01*
X149559000Y-83467583D01*
X149559000Y-85412415D01*
X149539315Y-85479454D01*
X149522681Y-85500096D01*
X146142272Y-88880504D01*
X146080949Y-88913989D01*
X146011257Y-88909005D01*
X145955324Y-88867133D01*
X145949606Y-88858808D01*
X145879816Y-88747738D01*
X145752262Y-88620184D01*
X145699240Y-88586868D01*
X145599519Y-88524209D01*
X145475345Y-88480758D01*
X145428619Y-88451398D01*
X144298599Y-87321377D01*
X144269238Y-87274650D01*
X144257320Y-87240591D01*
X144225789Y-87150478D01*
X144212041Y-87128599D01*
X144129815Y-86997737D01*
X144002262Y-86870184D01*
X143849523Y-86774211D01*
X143679254Y-86714631D01*
X143679249Y-86714630D01*
X143500004Y-86694435D01*
X143499996Y-86694435D01*
X143320750Y-86714630D01*
X143320745Y-86714631D01*
X143150476Y-86774211D01*
X142997737Y-86870184D01*
X142870184Y-86997737D01*
X142774211Y-87150476D01*
X142714631Y-87320745D01*
X142714630Y-87320750D01*
X142694435Y-87499996D01*
X142694435Y-87500003D01*
X142714630Y-87679249D01*
X142714631Y-87679254D01*
X142774211Y-87849523D01*
X142823089Y-87927311D01*
X142870184Y-88002262D01*
X142997738Y-88129816D01*
X143073814Y-88177618D01*
X143147296Y-88223790D01*
X143150478Y-88225789D01*
X143274651Y-88269238D01*
X143321377Y-88298599D01*
X144451398Y-89428619D01*
X144480758Y-89475345D01*
X144524209Y-89599519D01*
X144524211Y-89599522D01*
X144620184Y-89752262D01*
X144747738Y-89879816D01*
X144858796Y-89949598D01*
X144905086Y-90001931D01*
X144915735Y-90070985D01*
X144887360Y-90134833D01*
X144880504Y-90142272D01*
X143750097Y-91272681D01*
X143688774Y-91306166D01*
X143662416Y-91309000D01*
X131681940Y-91309000D01*
X131589888Y-91327311D01*
X131589887Y-91327311D01*
X131548450Y-91335553D01*
X131548438Y-91335556D01*
X131422695Y-91387640D01*
X131422682Y-91387647D01*
X131309514Y-91463264D01*
X131309510Y-91463267D01*
X130520087Y-92252689D01*
X130458764Y-92286174D01*
X130389072Y-92281190D01*
X130361284Y-92266584D01*
X130287088Y-92214632D01*
X130279646Y-92209421D01*
X130261763Y-92201082D01*
X130080708Y-92116655D01*
X130080706Y-92116654D01*
X130080703Y-92116653D01*
X129925262Y-92075002D01*
X129868675Y-92059839D01*
X129868668Y-92059838D01*
X129650002Y-92040708D01*
X129649998Y-92040708D01*
X129431331Y-92059838D01*
X129431324Y-92059839D01*
X129308902Y-92092642D01*
X129219297Y-92116653D01*
X129219295Y-92116653D01*
X129219291Y-92116655D01*
X129020357Y-92209419D01*
X129020349Y-92209423D01*
X128840547Y-92335322D01*
X128840541Y-92335327D01*
X128685327Y-92490541D01*
X128685322Y-92490547D01*
X128559423Y-92670349D01*
X128559421Y-92670353D01*
X128492106Y-92814711D01*
X128445933Y-92867150D01*
X128378740Y-92886302D01*
X128311859Y-92866086D01*
X128267342Y-92814711D01*
X128200144Y-92670605D01*
X128200142Y-92670601D01*
X128155996Y-92607555D01*
X127592962Y-93170589D01*
X127575925Y-93107007D01*
X127510099Y-92992993D01*
X127417007Y-92899901D01*
X127302993Y-92834075D01*
X127239409Y-92817037D01*
X127802443Y-92254003D01*
X127739392Y-92209854D01*
X127540533Y-92117125D01*
X127540524Y-92117121D01*
X127328592Y-92060335D01*
X127328582Y-92060333D01*
X127110001Y-92041210D01*
X127109999Y-92041210D01*
X126891417Y-92060333D01*
X126891407Y-92060335D01*
X126679475Y-92117121D01*
X126679466Y-92117124D01*
X126480606Y-92209855D01*
X126480604Y-92209856D01*
X126417556Y-92254003D01*
X126417555Y-92254003D01*
X126980590Y-92817037D01*
X126917007Y-92834075D01*
X126802993Y-92899901D01*
X126709901Y-92992993D01*
X126644075Y-93107007D01*
X126627037Y-93170590D01*
X126064003Y-92607555D01*
X126064003Y-92607556D01*
X126019856Y-92670604D01*
X126019855Y-92670606D01*
X125927124Y-92869466D01*
X125927121Y-92869475D01*
X125870335Y-93081407D01*
X125870333Y-93081417D01*
X125851210Y-93299999D01*
X125851210Y-93300000D01*
X125870333Y-93518582D01*
X125870335Y-93518592D01*
X125927121Y-93730524D01*
X125927125Y-93730533D01*
X126019854Y-93929392D01*
X126064003Y-93992443D01*
X126627037Y-93429409D01*
X126644075Y-93492993D01*
X126709901Y-93607007D01*
X126802993Y-93700099D01*
X126917007Y-93765925D01*
X126980590Y-93782962D01*
X126417555Y-94345996D01*
X126480601Y-94390142D01*
X126480605Y-94390144D01*
X126679466Y-94482874D01*
X126679475Y-94482878D01*
X126891407Y-94539664D01*
X126891417Y-94539666D01*
X127109999Y-94558790D01*
X127110001Y-94558790D01*
X127328582Y-94539666D01*
X127328592Y-94539664D01*
X127540524Y-94482878D01*
X127540533Y-94482874D01*
X127739392Y-94390145D01*
X127802443Y-94345995D01*
X127239410Y-93782962D01*
X127302993Y-93765925D01*
X127417007Y-93700099D01*
X127510099Y-93607007D01*
X127575925Y-93492993D01*
X127592962Y-93429409D01*
X128155995Y-93992442D01*
X128200146Y-93929390D01*
X128267342Y-93785289D01*
X128313514Y-93732849D01*
X128380707Y-93713697D01*
X128447589Y-93733913D01*
X128492106Y-93785288D01*
X128559421Y-93929646D01*
X128559423Y-93929650D01*
X128685322Y-94109452D01*
X128685327Y-94109458D01*
X128840541Y-94264672D01*
X128840547Y-94264677D01*
X129020349Y-94390576D01*
X129020351Y-94390577D01*
X129020354Y-94390579D01*
X129219297Y-94483347D01*
X129431326Y-94540161D01*
X129587521Y-94553826D01*
X129649998Y-94559292D01*
X129650000Y-94559292D01*
X129650002Y-94559292D01*
X129704668Y-94554509D01*
X129868674Y-94540161D01*
X130080703Y-94483347D01*
X130080707Y-94483344D01*
X130085932Y-94481945D01*
X130086421Y-94483772D01*
X130147795Y-94479860D01*
X130208857Y-94513819D01*
X130241867Y-94575400D01*
X130244500Y-94600819D01*
X130244500Y-104699180D01*
X130224815Y-104766219D01*
X130172011Y-104811974D01*
X130102853Y-104821918D01*
X130086028Y-104817696D01*
X130085932Y-104818055D01*
X130080707Y-104816654D01*
X130080703Y-104816653D01*
X129905046Y-104769585D01*
X129868675Y-104759839D01*
X129868668Y-104759838D01*
X129650002Y-104740708D01*
X129649998Y-104740708D01*
X129431331Y-104759838D01*
X129431324Y-104759839D01*
X129308902Y-104792642D01*
X129219297Y-104816653D01*
X129219295Y-104816653D01*
X129219291Y-104816655D01*
X129020357Y-104909419D01*
X129020349Y-104909423D01*
X128840547Y-105035322D01*
X128840541Y-105035327D01*
X128685327Y-105190541D01*
X128685322Y-105190547D01*
X128559423Y-105370349D01*
X128559419Y-105370357D01*
X128492382Y-105514120D01*
X128446210Y-105566560D01*
X128379017Y-105585712D01*
X128312135Y-105565496D01*
X128267618Y-105514120D01*
X128233281Y-105440485D01*
X128200579Y-105370354D01*
X128200577Y-105370351D01*
X128200576Y-105370349D01*
X128074677Y-105190547D01*
X128074672Y-105190541D01*
X127919458Y-105035327D01*
X127919452Y-105035322D01*
X127739650Y-104909423D01*
X127739642Y-104909419D01*
X127540708Y-104816655D01*
X127540706Y-104816654D01*
X127540703Y-104816653D01*
X127365046Y-104769585D01*
X127328675Y-104759839D01*
X127328668Y-104759838D01*
X127110002Y-104740708D01*
X127109998Y-104740708D01*
X126891331Y-104759838D01*
X126891324Y-104759839D01*
X126768902Y-104792642D01*
X126679297Y-104816653D01*
X126679295Y-104816653D01*
X126679291Y-104816655D01*
X126480357Y-104909419D01*
X126480349Y-104909423D01*
X126300547Y-105035322D01*
X126300541Y-105035327D01*
X126145327Y-105190541D01*
X126145322Y-105190547D01*
X126019423Y-105370349D01*
X126019419Y-105370357D01*
X125926655Y-105569291D01*
X125926653Y-105569295D01*
X125926653Y-105569297D01*
X125913990Y-105616555D01*
X125869839Y-105781324D01*
X125869838Y-105781331D01*
X125850708Y-105999997D01*
X125850708Y-106000002D01*
X125869838Y-106218668D01*
X125869839Y-106218675D01*
X125875515Y-106239856D01*
X125926653Y-106430703D01*
X125926654Y-106430706D01*
X125926655Y-106430708D01*
X126019419Y-106629642D01*
X126019423Y-106629650D01*
X126145322Y-106809452D01*
X126145327Y-106809458D01*
X126300541Y-106964672D01*
X126300547Y-106964677D01*
X126480349Y-107090576D01*
X126480351Y-107090577D01*
X126480354Y-107090579D01*
X126679297Y-107183347D01*
X126891326Y-107240161D01*
X127047521Y-107253826D01*
X127109998Y-107259292D01*
X127110000Y-107259292D01*
X127110002Y-107259292D01*
X127164786Y-107254499D01*
X127328674Y-107240161D01*
X127540703Y-107183347D01*
X127739646Y-107090579D01*
X127919457Y-106964674D01*
X128074674Y-106809457D01*
X128200579Y-106629646D01*
X128267618Y-106485878D01*
X128313790Y-106433439D01*
X128380983Y-106414287D01*
X128447864Y-106434502D01*
X128492382Y-106485879D01*
X128559419Y-106629642D01*
X128559423Y-106629650D01*
X128685322Y-106809452D01*
X128685327Y-106809458D01*
X128840541Y-106964672D01*
X128840547Y-106964677D01*
X129020349Y-107090576D01*
X129020351Y-107090577D01*
X129020354Y-107090579D01*
X129219297Y-107183347D01*
X129431326Y-107240161D01*
X129587521Y-107253826D01*
X129649998Y-107259292D01*
X129650000Y-107259292D01*
X129650002Y-107259292D01*
X129704786Y-107254499D01*
X129868674Y-107240161D01*
X130080703Y-107183347D01*
X130080707Y-107183344D01*
X130085932Y-107181945D01*
X130086421Y-107183772D01*
X130147795Y-107179860D01*
X130208857Y-107213819D01*
X130241867Y-107275400D01*
X130244500Y-107300819D01*
X130244500Y-108749685D01*
X130224815Y-108816724D01*
X130172011Y-108862479D01*
X130102853Y-108872423D01*
X130068096Y-108862068D01*
X130067946Y-108861998D01*
X129970703Y-108816653D01*
X129772296Y-108763489D01*
X129758675Y-108759839D01*
X129758668Y-108759838D01*
X129540002Y-108740708D01*
X129539998Y-108740708D01*
X129321331Y-108759838D01*
X129321324Y-108759839D01*
X129246615Y-108779858D01*
X129109297Y-108816653D01*
X129109295Y-108816653D01*
X129109291Y-108816655D01*
X128910357Y-108909419D01*
X128910349Y-108909423D01*
X128730547Y-109035322D01*
X128730541Y-109035327D01*
X128575327Y-109190541D01*
X128575322Y-109190547D01*
X128449423Y-109370349D01*
X128449421Y-109370353D01*
X128382106Y-109514711D01*
X128335933Y-109567150D01*
X128268740Y-109586302D01*
X128201859Y-109566086D01*
X128157342Y-109514711D01*
X128090144Y-109370605D01*
X128090142Y-109370601D01*
X128045996Y-109307555D01*
X127482962Y-109870589D01*
X127465925Y-109807007D01*
X127400099Y-109692993D01*
X127307007Y-109599901D01*
X127192993Y-109534075D01*
X127129409Y-109517037D01*
X127692443Y-108954003D01*
X127629392Y-108909854D01*
X127430533Y-108817125D01*
X127430524Y-108817121D01*
X127218592Y-108760335D01*
X127218582Y-108760333D01*
X127000001Y-108741210D01*
X126999999Y-108741210D01*
X126781417Y-108760333D01*
X126781407Y-108760335D01*
X126569475Y-108817121D01*
X126569466Y-108817124D01*
X126370606Y-108909855D01*
X126370604Y-108909856D01*
X126307556Y-108954003D01*
X126307555Y-108954003D01*
X126870590Y-109517037D01*
X126807007Y-109534075D01*
X126692993Y-109599901D01*
X126599901Y-109692993D01*
X126534075Y-109807007D01*
X126517037Y-109870590D01*
X125954003Y-109307555D01*
X125954003Y-109307556D01*
X125909856Y-109370604D01*
X125909855Y-109370606D01*
X125817124Y-109569466D01*
X125817121Y-109569475D01*
X125760335Y-109781407D01*
X125760333Y-109781417D01*
X125741210Y-109999999D01*
X125741210Y-110000000D01*
X125760333Y-110218582D01*
X125760335Y-110218592D01*
X125817121Y-110430524D01*
X125817125Y-110430533D01*
X125909854Y-110629392D01*
X125954003Y-110692443D01*
X126517037Y-110129409D01*
X126534075Y-110192993D01*
X126599901Y-110307007D01*
X126692993Y-110400099D01*
X126807007Y-110465925D01*
X126870590Y-110482962D01*
X126307555Y-111045996D01*
X126370601Y-111090142D01*
X126370605Y-111090144D01*
X126569466Y-111182874D01*
X126569475Y-111182878D01*
X126781407Y-111239664D01*
X126781417Y-111239666D01*
X126999999Y-111258790D01*
X127000001Y-111258790D01*
X127218582Y-111239666D01*
X127218592Y-111239664D01*
X127430524Y-111182878D01*
X127430533Y-111182874D01*
X127629392Y-111090145D01*
X127692443Y-111045995D01*
X127129410Y-110482962D01*
X127192993Y-110465925D01*
X127307007Y-110400099D01*
X127400099Y-110307007D01*
X127465925Y-110192993D01*
X127482962Y-110129409D01*
X128045995Y-110692442D01*
X128090146Y-110629390D01*
X128157342Y-110485289D01*
X128203514Y-110432849D01*
X128270707Y-110413697D01*
X128337589Y-110433913D01*
X128382106Y-110485288D01*
X128449421Y-110629646D01*
X128449423Y-110629650D01*
X128575322Y-110809452D01*
X128575327Y-110809458D01*
X128730541Y-110964672D01*
X128730547Y-110964677D01*
X128910349Y-111090576D01*
X128910351Y-111090577D01*
X128910354Y-111090579D01*
X129109297Y-111183347D01*
X129321326Y-111240161D01*
X129477521Y-111253826D01*
X129539998Y-111259292D01*
X129540000Y-111259292D01*
X129540002Y-111259292D01*
X129594668Y-111254509D01*
X129758674Y-111240161D01*
X129970703Y-111183347D01*
X130068097Y-111137931D01*
X130137173Y-111127440D01*
X130200957Y-111155960D01*
X130239196Y-111214436D01*
X130244500Y-111250314D01*
X130244500Y-113867443D01*
X130244500Y-114003557D01*
X130244500Y-114003559D01*
X130244499Y-114003559D01*
X130271053Y-114137051D01*
X130271056Y-114137061D01*
X130323142Y-114262809D01*
X130323144Y-114262812D01*
X130398763Y-114375985D01*
X130398769Y-114375992D01*
X137251806Y-121229027D01*
X137285291Y-121290350D01*
X137280307Y-121360042D01*
X137238435Y-121415975D01*
X137172971Y-121440392D01*
X137164125Y-121440708D01*
X137159998Y-121440708D01*
X136941331Y-121459838D01*
X136941324Y-121459839D01*
X136866615Y-121479858D01*
X136729297Y-121516653D01*
X136729295Y-121516653D01*
X136729291Y-121516655D01*
X136530357Y-121609419D01*
X136530349Y-121609423D01*
X136350547Y-121735322D01*
X136350541Y-121735327D01*
X136195327Y-121890541D01*
X136195322Y-121890547D01*
X136069423Y-122070349D01*
X136069419Y-122070357D01*
X136002382Y-122214120D01*
X135956210Y-122266560D01*
X135889017Y-122285712D01*
X135822135Y-122265496D01*
X135777618Y-122214120D01*
X135725103Y-122101501D01*
X135710579Y-122070354D01*
X135710577Y-122070351D01*
X135710576Y-122070349D01*
X135584677Y-121890547D01*
X135584672Y-121890541D01*
X135429458Y-121735327D01*
X135429452Y-121735322D01*
X135249650Y-121609423D01*
X135249642Y-121609419D01*
X135050708Y-121516655D01*
X135050706Y-121516654D01*
X135050703Y-121516653D01*
X134881827Y-121471402D01*
X134838675Y-121459839D01*
X134838668Y-121459838D01*
X134620002Y-121440708D01*
X134619998Y-121440708D01*
X134401331Y-121459838D01*
X134401324Y-121459839D01*
X134326615Y-121479858D01*
X134189297Y-121516653D01*
X134189295Y-121516653D01*
X134189291Y-121516655D01*
X133990357Y-121609419D01*
X133990349Y-121609423D01*
X133810547Y-121735322D01*
X133810541Y-121735327D01*
X133655327Y-121890541D01*
X133655322Y-121890547D01*
X133529423Y-122070349D01*
X133529419Y-122070357D01*
X133462382Y-122214120D01*
X133416210Y-122266560D01*
X133349017Y-122285712D01*
X133282135Y-122265496D01*
X133237618Y-122214120D01*
X133185103Y-122101501D01*
X133170579Y-122070354D01*
X133170577Y-122070351D01*
X133170576Y-122070349D01*
X133044677Y-121890547D01*
X133044672Y-121890541D01*
X132889458Y-121735327D01*
X132889452Y-121735322D01*
X132709650Y-121609423D01*
X132709642Y-121609419D01*
X132510708Y-121516655D01*
X132510706Y-121516654D01*
X132510703Y-121516653D01*
X132341827Y-121471402D01*
X132298675Y-121459839D01*
X132298668Y-121459838D01*
X132080002Y-121440708D01*
X132079998Y-121440708D01*
X131861331Y-121459838D01*
X131861324Y-121459839D01*
X131786615Y-121479858D01*
X131649297Y-121516653D01*
X131649295Y-121516653D01*
X131649291Y-121516655D01*
X131450357Y-121609419D01*
X131450349Y-121609423D01*
X131270547Y-121735322D01*
X131270541Y-121735327D01*
X131115327Y-121890541D01*
X131115322Y-121890547D01*
X130989423Y-122070349D01*
X130989419Y-122070357D01*
X130922382Y-122214120D01*
X130876210Y-122266560D01*
X130809017Y-122285712D01*
X130742135Y-122265496D01*
X130697618Y-122214120D01*
X130645103Y-122101501D01*
X130630579Y-122070354D01*
X130630577Y-122070351D01*
X130630576Y-122070349D01*
X130504677Y-121890547D01*
X130504672Y-121890541D01*
X130349458Y-121735327D01*
X130349452Y-121735322D01*
X130169650Y-121609423D01*
X130169642Y-121609419D01*
X129970708Y-121516655D01*
X129970706Y-121516654D01*
X129970703Y-121516653D01*
X129801827Y-121471402D01*
X129758675Y-121459839D01*
X129758668Y-121459838D01*
X129540002Y-121440708D01*
X129539998Y-121440708D01*
X129321331Y-121459838D01*
X129321324Y-121459839D01*
X129246615Y-121479858D01*
X129109297Y-121516653D01*
X129109295Y-121516653D01*
X129109291Y-121516655D01*
X128910357Y-121609419D01*
X128910349Y-121609423D01*
X128730547Y-121735322D01*
X128730541Y-121735327D01*
X128575327Y-121890541D01*
X128575322Y-121890547D01*
X128449423Y-122070349D01*
X128449419Y-122070357D01*
X128382382Y-122214120D01*
X128336210Y-122266560D01*
X128269017Y-122285712D01*
X128202135Y-122265496D01*
X128157618Y-122214120D01*
X128105103Y-122101501D01*
X128090579Y-122070354D01*
X128090577Y-122070351D01*
X128090576Y-122070349D01*
X127964677Y-121890547D01*
X127964672Y-121890541D01*
X127809458Y-121735327D01*
X127809452Y-121735322D01*
X127629650Y-121609423D01*
X127629642Y-121609419D01*
X127430708Y-121516655D01*
X127430706Y-121516654D01*
X127430703Y-121516653D01*
X127261827Y-121471402D01*
X127218675Y-121459839D01*
X127218668Y-121459838D01*
X127000002Y-121440708D01*
X126999998Y-121440708D01*
X126781331Y-121459838D01*
X126781324Y-121459839D01*
X126706615Y-121479858D01*
X126569297Y-121516653D01*
X126569295Y-121516653D01*
X126569291Y-121516655D01*
X126370357Y-121609419D01*
X126370349Y-121609423D01*
X126190547Y-121735322D01*
X126190541Y-121735327D01*
X126035327Y-121890541D01*
X126035322Y-121890547D01*
X125909423Y-122070349D01*
X125909419Y-122070357D01*
X125816655Y-122269291D01*
X125759839Y-122481324D01*
X125759838Y-122481331D01*
X125740708Y-122699997D01*
X125740708Y-122700002D01*
X125744777Y-122746516D01*
X125759839Y-122918674D01*
X125816653Y-123130703D01*
X125816654Y-123130706D01*
X125816655Y-123130708D01*
X125909419Y-123329642D01*
X125909423Y-123329650D01*
X126035322Y-123509452D01*
X126035327Y-123509458D01*
X126190541Y-123664672D01*
X126190547Y-123664677D01*
X126370349Y-123790576D01*
X126370351Y-123790577D01*
X126370354Y-123790579D01*
X126569297Y-123883347D01*
X126781326Y-123940161D01*
X126937521Y-123953826D01*
X126999998Y-123959292D01*
X127000000Y-123959292D01*
X127000002Y-123959292D01*
X127054668Y-123954509D01*
X127218674Y-123940161D01*
X127430703Y-123883347D01*
X127629646Y-123790579D01*
X127809457Y-123664674D01*
X127964674Y-123509457D01*
X128090579Y-123329646D01*
X128157618Y-123185878D01*
X128203790Y-123133439D01*
X128270983Y-123114287D01*
X128337864Y-123134502D01*
X128382382Y-123185879D01*
X128449419Y-123329642D01*
X128449423Y-123329650D01*
X128575322Y-123509452D01*
X128575327Y-123509458D01*
X128730541Y-123664672D01*
X128730547Y-123664677D01*
X128910349Y-123790576D01*
X128910351Y-123790577D01*
X128910354Y-123790579D01*
X129109297Y-123883347D01*
X129321326Y-123940161D01*
X129477521Y-123953826D01*
X129539998Y-123959292D01*
X129540000Y-123959292D01*
X129540002Y-123959292D01*
X129594668Y-123954509D01*
X129758674Y-123940161D01*
X129970703Y-123883347D01*
X130169646Y-123790579D01*
X130349457Y-123664674D01*
X130504674Y-123509457D01*
X130630579Y-123329646D01*
X130697618Y-123185878D01*
X130743790Y-123133439D01*
X130810983Y-123114287D01*
X130877864Y-123134502D01*
X130922382Y-123185879D01*
X130989419Y-123329642D01*
X130989423Y-123329650D01*
X131115322Y-123509452D01*
X131115327Y-123509458D01*
X131270541Y-123664672D01*
X131270547Y-123664677D01*
X131450349Y-123790576D01*
X131450351Y-123790577D01*
X131450354Y-123790579D01*
X131649297Y-123883347D01*
X131861326Y-123940161D01*
X132017521Y-123953826D01*
X132079998Y-123959292D01*
X132080000Y-123959292D01*
X132080002Y-123959292D01*
X132134668Y-123954509D01*
X132298674Y-123940161D01*
X132510703Y-123883347D01*
X132709646Y-123790579D01*
X132889457Y-123664674D01*
X133044674Y-123509457D01*
X133170579Y-123329646D01*
X133237618Y-123185878D01*
X133283790Y-123133439D01*
X133350983Y-123114287D01*
X133417864Y-123134502D01*
X133462382Y-123185879D01*
X133529419Y-123329642D01*
X133529423Y-123329650D01*
X133655322Y-123509452D01*
X133655327Y-123509458D01*
X133810541Y-123664672D01*
X133810547Y-123664677D01*
X133990349Y-123790576D01*
X133990351Y-123790577D01*
X133990354Y-123790579D01*
X134189297Y-123883347D01*
X134401326Y-123940161D01*
X134557521Y-123953826D01*
X134619998Y-123959292D01*
X134620000Y-123959292D01*
X134620002Y-123959292D01*
X134674668Y-123954509D01*
X134838674Y-123940161D01*
X135050703Y-123883347D01*
X135249646Y-123790579D01*
X135429457Y-123664674D01*
X135584674Y-123509457D01*
X135710579Y-123329646D01*
X135777618Y-123185878D01*
X135823790Y-123133439D01*
X135890983Y-123114287D01*
X135957864Y-123134502D01*
X136002382Y-123185879D01*
X136069419Y-123329642D01*
X136069423Y-123329650D01*
X136195322Y-123509452D01*
X136195327Y-123509458D01*
X136350541Y-123664672D01*
X136350547Y-123664677D01*
X136530349Y-123790576D01*
X136530351Y-123790577D01*
X136530354Y-123790579D01*
X136729297Y-123883347D01*
X136941326Y-123940161D01*
X137097521Y-123953826D01*
X137159998Y-123959292D01*
X137160000Y-123959292D01*
X137160002Y-123959292D01*
X137227885Y-123953352D01*
X137361777Y-123941639D01*
X137430276Y-123955406D01*
X137460264Y-123977486D01*
X138519509Y-125036732D01*
X138519513Y-125036735D01*
X138632681Y-125112352D01*
X138632685Y-125112354D01*
X138632688Y-125112356D01*
X138758442Y-125164445D01*
X138777439Y-125168223D01*
X138804274Y-125173561D01*
X138891941Y-125191000D01*
X138891942Y-125191000D01*
X150568060Y-125191000D01*
X150657870Y-125173134D01*
X150701557Y-125164445D01*
X150827311Y-125112356D01*
X150869867Y-125083921D01*
X150940487Y-125036735D01*
X153536735Y-122440486D01*
X153612356Y-122327311D01*
X153664445Y-122201557D01*
X153684741Y-122099522D01*
X153691000Y-122068059D01*
X153691000Y-111837583D01*
X153710685Y-111770544D01*
X153727314Y-111749907D01*
X155530979Y-109946241D01*
X155592300Y-109912758D01*
X155661992Y-109917742D01*
X155717925Y-109959614D01*
X155742186Y-110023115D01*
X155748964Y-110100586D01*
X155748965Y-110100592D01*
X155806275Y-110314475D01*
X155806279Y-110314486D01*
X155892787Y-110500003D01*
X155899858Y-110515167D01*
X156026868Y-110696555D01*
X156183445Y-110853132D01*
X156364833Y-110980142D01*
X156412270Y-111002262D01*
X156488091Y-111037618D01*
X156540531Y-111083790D01*
X156559683Y-111150983D01*
X156539467Y-111217865D01*
X156488091Y-111262382D01*
X156364836Y-111319856D01*
X156364834Y-111319857D01*
X156183444Y-111446868D01*
X156026868Y-111603444D01*
X155899857Y-111784834D01*
X155899856Y-111784836D01*
X155806279Y-111985513D01*
X155806275Y-111985524D01*
X155748965Y-112199407D01*
X155748964Y-112199414D01*
X155729666Y-112419998D01*
X155729666Y-112420001D01*
X155748964Y-112640585D01*
X155748965Y-112640592D01*
X155806275Y-112854475D01*
X155806279Y-112854486D01*
X155872611Y-112996735D01*
X155899858Y-113055167D01*
X156026868Y-113236555D01*
X156183445Y-113393132D01*
X156364833Y-113520142D01*
X156426828Y-113549050D01*
X156488091Y-113577618D01*
X156540531Y-113623790D01*
X156559683Y-113690983D01*
X156539467Y-113757865D01*
X156488091Y-113802382D01*
X156364836Y-113859856D01*
X156364834Y-113859857D01*
X156183444Y-113986868D01*
X156026868Y-114143444D01*
X155899857Y-114324834D01*
X155899856Y-114324836D01*
X155806279Y-114525513D01*
X155806275Y-114525524D01*
X155748965Y-114739407D01*
X155748964Y-114739414D01*
X155729666Y-114959998D01*
X155729666Y-114960001D01*
X155748964Y-115180585D01*
X155748965Y-115180592D01*
X155806275Y-115394475D01*
X155806279Y-115394486D01*
X155899856Y-115595163D01*
X155899858Y-115595167D01*
X156026868Y-115776555D01*
X156183445Y-115933132D01*
X156364833Y-116060142D01*
X156426828Y-116089050D01*
X156488091Y-116117618D01*
X156540531Y-116163790D01*
X156559683Y-116230983D01*
X156539467Y-116297865D01*
X156488091Y-116342382D01*
X156364836Y-116399856D01*
X156364834Y-116399857D01*
X156183444Y-116526868D01*
X156026868Y-116683444D01*
X155899857Y-116864834D01*
X155899856Y-116864836D01*
X155806279Y-117065513D01*
X155806275Y-117065524D01*
X155748965Y-117279407D01*
X155748964Y-117279414D01*
X155729666Y-117499998D01*
X155729666Y-117500001D01*
X155748964Y-117720585D01*
X155748965Y-117720592D01*
X155806275Y-117934475D01*
X155806279Y-117934486D01*
X155895886Y-118126650D01*
X155899858Y-118135167D01*
X156026868Y-118316555D01*
X156183445Y-118473132D01*
X156364833Y-118600142D01*
X156426828Y-118629050D01*
X156488091Y-118657618D01*
X156540531Y-118703790D01*
X156559683Y-118770983D01*
X156539467Y-118837865D01*
X156488091Y-118882382D01*
X156364836Y-118939856D01*
X156364834Y-118939857D01*
X156183444Y-119066868D01*
X156026868Y-119223444D01*
X155899857Y-119404834D01*
X155899856Y-119404836D01*
X155806279Y-119605513D01*
X155806275Y-119605524D01*
X155748965Y-119819407D01*
X155748964Y-119819414D01*
X155729666Y-120039998D01*
X155729666Y-120040001D01*
X155748964Y-120260585D01*
X155748965Y-120260592D01*
X155806275Y-120474475D01*
X155806279Y-120474486D01*
X155864584Y-120599522D01*
X155899858Y-120675167D01*
X156026868Y-120856555D01*
X156183445Y-121013132D01*
X156364833Y-121140142D01*
X156410089Y-121161245D01*
X156488091Y-121197618D01*
X156540531Y-121243790D01*
X156559683Y-121310983D01*
X156539467Y-121377865D01*
X156488091Y-121422382D01*
X156364836Y-121479856D01*
X156364834Y-121479857D01*
X156183444Y-121606868D01*
X156026868Y-121763444D01*
X155899857Y-121944834D01*
X155899856Y-121944836D01*
X155806279Y-122145513D01*
X155806275Y-122145524D01*
X155748965Y-122359407D01*
X155748964Y-122359414D01*
X155729666Y-122579998D01*
X155729666Y-122580001D01*
X155748964Y-122800585D01*
X155748965Y-122800592D01*
X155806275Y-123014475D01*
X155806279Y-123014486D01*
X155886201Y-123185879D01*
X155899858Y-123215167D01*
X156026868Y-123396555D01*
X156183445Y-123553132D01*
X156364833Y-123680142D01*
X156399551Y-123696331D01*
X156565513Y-123773720D01*
X156565515Y-123773720D01*
X156565520Y-123773723D01*
X156779409Y-123831035D01*
X156936974Y-123844820D01*
X156999998Y-123850334D01*
X157000000Y-123850334D01*
X157000002Y-123850334D01*
X157055147Y-123845509D01*
X157220591Y-123831035D01*
X157434480Y-123773723D01*
X157635167Y-123680142D01*
X157816555Y-123553132D01*
X157973132Y-123396555D01*
X158100142Y-123215167D01*
X158193723Y-123014480D01*
X158251035Y-122800591D01*
X158270334Y-122580000D01*
X158251035Y-122359409D01*
X158193723Y-122145520D01*
X158172274Y-122099523D01*
X158148792Y-122049165D01*
X158100142Y-121944833D01*
X157973132Y-121763445D01*
X157816555Y-121606868D01*
X157635167Y-121479858D01*
X157575227Y-121451908D01*
X157511908Y-121422382D01*
X157459468Y-121376210D01*
X157440316Y-121309017D01*
X157460531Y-121242136D01*
X157511908Y-121197618D01*
X157635167Y-121140142D01*
X157816555Y-121013132D01*
X157973132Y-120856555D01*
X158100142Y-120675167D01*
X158193723Y-120474480D01*
X158251035Y-120260591D01*
X158270334Y-120040000D01*
X158251035Y-119819409D01*
X158193723Y-119605520D01*
X158182625Y-119581721D01*
X158133568Y-119476516D01*
X158100142Y-119404833D01*
X157973132Y-119223445D01*
X157816555Y-119066868D01*
X157635167Y-118939858D01*
X157511907Y-118882381D01*
X157459468Y-118836210D01*
X157440316Y-118769017D01*
X157460531Y-118702136D01*
X157511908Y-118657618D01*
X157635167Y-118600142D01*
X157816555Y-118473132D01*
X157973132Y-118316555D01*
X158100142Y-118135167D01*
X158193723Y-117934480D01*
X158251035Y-117720591D01*
X158270334Y-117500000D01*
X158251035Y-117279409D01*
X158193723Y-117065520D01*
X158100142Y-116864833D01*
X157973132Y-116683445D01*
X157816555Y-116526868D01*
X157635167Y-116399858D01*
X157511907Y-116342381D01*
X157459468Y-116296210D01*
X157440316Y-116229017D01*
X157460531Y-116162136D01*
X157511908Y-116117618D01*
X157528620Y-116109825D01*
X157635167Y-116060142D01*
X157816555Y-115933132D01*
X157973132Y-115776555D01*
X158100142Y-115595167D01*
X158193723Y-115394480D01*
X158251035Y-115180591D01*
X158270334Y-114960000D01*
X158251035Y-114739409D01*
X158193723Y-114525520D01*
X158100142Y-114324833D01*
X157973132Y-114143445D01*
X157816555Y-113986868D01*
X157635167Y-113859858D01*
X157511907Y-113802381D01*
X157459468Y-113756210D01*
X157440316Y-113689017D01*
X157460531Y-113622136D01*
X157511908Y-113577618D01*
X157635167Y-113520142D01*
X157816555Y-113393132D01*
X157973132Y-113236555D01*
X158100142Y-113055167D01*
X158193723Y-112854480D01*
X158251035Y-112640591D01*
X158270334Y-112420000D01*
X158251035Y-112199409D01*
X158193723Y-111985520D01*
X158100142Y-111784833D01*
X157973132Y-111603445D01*
X157816555Y-111446868D01*
X157635167Y-111319858D01*
X157511907Y-111262381D01*
X157459468Y-111216210D01*
X157440316Y-111149017D01*
X157460531Y-111082136D01*
X157511908Y-111037618D01*
X157635167Y-110980142D01*
X157816555Y-110853132D01*
X157973132Y-110696555D01*
X158100142Y-110515167D01*
X158193723Y-110314480D01*
X158251035Y-110100591D01*
X158270334Y-109880000D01*
X158251035Y-109659409D01*
X158227505Y-109571593D01*
X158229168Y-109501743D01*
X158268331Y-109443881D01*
X158332559Y-109416377D01*
X158347280Y-109415500D01*
X160343560Y-109415500D01*
X160433370Y-109397634D01*
X160477057Y-109388945D01*
X160602811Y-109336856D01*
X160604758Y-109335555D01*
X160715987Y-109261235D01*
X161240402Y-108736817D01*
X161301725Y-108703333D01*
X161328083Y-108700499D01*
X161900002Y-108700499D01*
X161900008Y-108700499D01*
X162002797Y-108689999D01*
X162169334Y-108634814D01*
X162318656Y-108542712D01*
X162442712Y-108418656D01*
X162534814Y-108269334D01*
X162534816Y-108269326D01*
X162537864Y-108262791D01*
X162540796Y-108264158D01*
X162572399Y-108218534D01*
X162636921Y-108191725D01*
X162650312Y-108191000D01*
X166568060Y-108191000D01*
X166657870Y-108173134D01*
X166701557Y-108164445D01*
X166827311Y-108112356D01*
X166843473Y-108101557D01*
X166867421Y-108085556D01*
X166875811Y-108079949D01*
X166940487Y-108036735D01*
X169536735Y-105440486D01*
X169612356Y-105327311D01*
X169664445Y-105201557D01*
X169664445Y-105201554D01*
X169664447Y-105201550D01*
X169679214Y-105127311D01*
X169679214Y-105127310D01*
X169679756Y-105124586D01*
X169691000Y-105068058D01*
X169691000Y-90837583D01*
X169710685Y-90770544D01*
X169727319Y-90749902D01*
X175269902Y-85207319D01*
X175331225Y-85173834D01*
X175357583Y-85171000D01*
X181274403Y-85171000D01*
X181341442Y-85190685D01*
X181375976Y-85223874D01*
X181426868Y-85296555D01*
X181583445Y-85453132D01*
X181764833Y-85580142D01*
X181826828Y-85609050D01*
X181888091Y-85637618D01*
X181940531Y-85683790D01*
X181959683Y-85750983D01*
X181939467Y-85817865D01*
X181888091Y-85862382D01*
X181764836Y-85919856D01*
X181764834Y-85919857D01*
X181583444Y-86046868D01*
X181426868Y-86203444D01*
X181299857Y-86384834D01*
X181299856Y-86384836D01*
X181206279Y-86585513D01*
X181206275Y-86585524D01*
X181148965Y-86799407D01*
X181148964Y-86799414D01*
X181129666Y-87019998D01*
X181129666Y-87020001D01*
X181148964Y-87240585D01*
X181148965Y-87240592D01*
X181206275Y-87454475D01*
X181206279Y-87454486D01*
X181244446Y-87536335D01*
X181299858Y-87655167D01*
X181426868Y-87836555D01*
X181583445Y-87993132D01*
X181764833Y-88120142D01*
X181826828Y-88149050D01*
X181888091Y-88177618D01*
X181940531Y-88223790D01*
X181959683Y-88290983D01*
X181939467Y-88357865D01*
X181888091Y-88402382D01*
X181764836Y-88459856D01*
X181764834Y-88459857D01*
X181583444Y-88586868D01*
X181426868Y-88743444D01*
X181299857Y-88924834D01*
X181299856Y-88924836D01*
X181206279Y-89125513D01*
X181206275Y-89125524D01*
X181148965Y-89339407D01*
X181148964Y-89339414D01*
X181129666Y-89559998D01*
X181129666Y-89560001D01*
X181148964Y-89780585D01*
X181148965Y-89780592D01*
X181206275Y-89994475D01*
X181206279Y-89994486D01*
X181244801Y-90077096D01*
X181255293Y-90146173D01*
X181226773Y-90209957D01*
X181168296Y-90248196D01*
X181132419Y-90253500D01*
X179561400Y-90253500D01*
X179520445Y-90246541D01*
X179429257Y-90214632D01*
X179429246Y-90214630D01*
X179250004Y-90194435D01*
X179249996Y-90194435D01*
X179070750Y-90214630D01*
X179070745Y-90214631D01*
X178900476Y-90274211D01*
X178747737Y-90370184D01*
X178620184Y-90497737D01*
X178524211Y-90650476D01*
X178464631Y-90820745D01*
X178464630Y-90820750D01*
X178444435Y-90999996D01*
X178444435Y-91000003D01*
X178464630Y-91179249D01*
X178464631Y-91179254D01*
X178524211Y-91349523D01*
X178595682Y-91463267D01*
X178620184Y-91502262D01*
X178747738Y-91629816D01*
X178804561Y-91665520D01*
X178894038Y-91721743D01*
X178900478Y-91725789D01*
X179047251Y-91777147D01*
X179070745Y-91785368D01*
X179070750Y-91785369D01*
X179249996Y-91805565D01*
X179250000Y-91805565D01*
X179250004Y-91805565D01*
X179429249Y-91785369D01*
X179429252Y-91785368D01*
X179429255Y-91785368D01*
X179599522Y-91725789D01*
X179712968Y-91654505D01*
X179778940Y-91635500D01*
X181052720Y-91635500D01*
X181119759Y-91655185D01*
X181165514Y-91707989D01*
X181175458Y-91777147D01*
X181172495Y-91791593D01*
X181148966Y-91879403D01*
X181148964Y-91879414D01*
X181129666Y-92099998D01*
X181129666Y-92100001D01*
X181148964Y-92320585D01*
X181148966Y-92320596D01*
X181172495Y-92408407D01*
X181170832Y-92478257D01*
X181131669Y-92536119D01*
X181067441Y-92563623D01*
X181052720Y-92564500D01*
X179699366Y-92564500D01*
X179633395Y-92545494D01*
X179599520Y-92524209D01*
X179429262Y-92464633D01*
X179429249Y-92464630D01*
X179250004Y-92444435D01*
X179249996Y-92444435D01*
X179070750Y-92464630D01*
X179070745Y-92464631D01*
X178900476Y-92524211D01*
X178747737Y-92620184D01*
X178620184Y-92747737D01*
X178524211Y-92900476D01*
X178464631Y-93070745D01*
X178464630Y-93070750D01*
X178444435Y-93249996D01*
X178444435Y-93250003D01*
X178464630Y-93429249D01*
X178464631Y-93429254D01*
X178524211Y-93599523D01*
X178609025Y-93734502D01*
X178620184Y-93752262D01*
X178747738Y-93879816D01*
X178826638Y-93929392D01*
X178882721Y-93964632D01*
X178900478Y-93975789D01*
X179023937Y-94018989D01*
X179077318Y-94037668D01*
X179076373Y-94040367D01*
X179126132Y-94068192D01*
X179158998Y-94129848D01*
X179153313Y-94199486D01*
X179125259Y-94242663D01*
X179120183Y-94247738D01*
X179024211Y-94400476D01*
X178964631Y-94570745D01*
X178964630Y-94570750D01*
X178944435Y-94749996D01*
X178944435Y-94750003D01*
X178964630Y-94929249D01*
X178964631Y-94929254D01*
X179024211Y-95099524D01*
X179039993Y-95124639D01*
X179059000Y-95190612D01*
X179059000Y-96232182D01*
X179065753Y-96266133D01*
X179068182Y-96278341D01*
X179068182Y-96278343D01*
X179085553Y-96365673D01*
X179085556Y-96365685D01*
X179137642Y-96491433D01*
X179137644Y-96491436D01*
X179213263Y-96604609D01*
X179213269Y-96604616D01*
X181388395Y-98779741D01*
X181421880Y-98841064D01*
X181416896Y-98910756D01*
X181402289Y-98938545D01*
X181299860Y-99084828D01*
X181299856Y-99084836D01*
X181206279Y-99285513D01*
X181206275Y-99285524D01*
X181148965Y-99499407D01*
X181148964Y-99499414D01*
X181129666Y-99719998D01*
X181129666Y-99720001D01*
X181148964Y-99940585D01*
X181148965Y-99940592D01*
X181206275Y-100154475D01*
X181206279Y-100154486D01*
X181285787Y-100324992D01*
X181299858Y-100355167D01*
X181426868Y-100536555D01*
X181583445Y-100693132D01*
X181764833Y-100820142D01*
X181826828Y-100849050D01*
X181888091Y-100877618D01*
X181940531Y-100923790D01*
X181959683Y-100990983D01*
X181939467Y-101057865D01*
X181888091Y-101102382D01*
X181764836Y-101159856D01*
X181764834Y-101159857D01*
X181583444Y-101286868D01*
X181426868Y-101443444D01*
X181299857Y-101624834D01*
X181299856Y-101624836D01*
X181206279Y-101825513D01*
X181206275Y-101825524D01*
X181148965Y-102039407D01*
X181148964Y-102039413D01*
X181136539Y-102181431D01*
X181111086Y-102246500D01*
X181054495Y-102287478D01*
X180984733Y-102291356D01*
X180925330Y-102258304D01*
X180868468Y-102201442D01*
X180827273Y-102173917D01*
X180744889Y-102118870D01*
X180744886Y-102118868D01*
X180744885Y-102118868D01*
X180664455Y-102085553D01*
X180607580Y-102061995D01*
X180583394Y-102057184D01*
X180579402Y-102056390D01*
X180461814Y-102032999D01*
X180461812Y-102032999D01*
X180313188Y-102032999D01*
X180307074Y-102032999D01*
X180307054Y-102033000D01*
X177918589Y-102033000D01*
X177851550Y-102013315D01*
X177821322Y-101985910D01*
X177817710Y-101981342D01*
X177693658Y-101857290D01*
X177693656Y-101857288D01*
X177690819Y-101855538D01*
X177689283Y-101853830D01*
X177687989Y-101852807D01*
X177688163Y-101852585D01*
X177644096Y-101803594D01*
X177632872Y-101734632D01*
X177660713Y-101670549D01*
X177690817Y-101644462D01*
X177693656Y-101642712D01*
X177817712Y-101518656D01*
X177909814Y-101369334D01*
X177964999Y-101202797D01*
X177975500Y-101100009D01*
X177975499Y-100324992D01*
X177967838Y-100250000D01*
X177964999Y-100222203D01*
X177964998Y-100222200D01*
X177909814Y-100055666D01*
X177817712Y-99906344D01*
X177693656Y-99782288D01*
X177595112Y-99721506D01*
X177544336Y-99690187D01*
X177544331Y-99690185D01*
X177542862Y-99689698D01*
X177377797Y-99635001D01*
X177377795Y-99635000D01*
X177275010Y-99624500D01*
X176224998Y-99624500D01*
X176224980Y-99624501D01*
X176122203Y-99635000D01*
X176122200Y-99635001D01*
X175955668Y-99690185D01*
X175955663Y-99690187D01*
X175806342Y-99782289D01*
X175682289Y-99906342D01*
X175678678Y-99910910D01*
X175621656Y-99951287D01*
X175581411Y-99958000D01*
X173617946Y-99958000D01*
X173617926Y-99957999D01*
X173611812Y-99957999D01*
X173463188Y-99957999D01*
X173463186Y-99957999D01*
X173341605Y-99982184D01*
X173327040Y-99985081D01*
X173317418Y-99986995D01*
X173317417Y-99986995D01*
X173260545Y-100010553D01*
X173180117Y-100043866D01*
X173180108Y-100043871D01*
X173166886Y-100052706D01*
X173162457Y-100055666D01*
X173139890Y-100070745D01*
X173056533Y-100126441D01*
X173028500Y-100154475D01*
X172951441Y-100231534D01*
X172951439Y-100231536D01*
X171431357Y-101751616D01*
X171405869Y-101769705D01*
X171406373Y-101770507D01*
X171247737Y-101870184D01*
X171120184Y-101997737D01*
X171024211Y-102150476D01*
X170964631Y-102320745D01*
X170964630Y-102320750D01*
X170944435Y-102499996D01*
X170944435Y-102500003D01*
X170964630Y-102679249D01*
X170964631Y-102679254D01*
X171024211Y-102849523D01*
X171120184Y-103002262D01*
X171247738Y-103129816D01*
X171319661Y-103175008D01*
X171398741Y-103224698D01*
X171400478Y-103225789D01*
X171549108Y-103277797D01*
X171570745Y-103285368D01*
X171570750Y-103285369D01*
X171749996Y-103305565D01*
X171750000Y-103305565D01*
X171750004Y-103305565D01*
X171929249Y-103285369D01*
X171929252Y-103285368D01*
X171929255Y-103285368D01*
X172099522Y-103225789D01*
X172252262Y-103129816D01*
X172379816Y-103002262D01*
X172475789Y-102849522D01*
X172475789Y-102849520D01*
X172479494Y-102843625D01*
X172480299Y-102844131D01*
X172498382Y-102818641D01*
X173813705Y-101503319D01*
X173875028Y-101469834D01*
X173901386Y-101467000D01*
X175581411Y-101467000D01*
X175648450Y-101486685D01*
X175678678Y-101514090D01*
X175682289Y-101518657D01*
X175806346Y-101642714D01*
X175809182Y-101644463D01*
X175810717Y-101646170D01*
X175812011Y-101647193D01*
X175811836Y-101647414D01*
X175855905Y-101696411D01*
X175867126Y-101765374D01*
X175839282Y-101829456D01*
X175809182Y-101855537D01*
X175806346Y-101857285D01*
X175682289Y-101981342D01*
X175590187Y-102130663D01*
X175590185Y-102130668D01*
X175583621Y-102150478D01*
X175535001Y-102297203D01*
X175535001Y-102297204D01*
X175535000Y-102297204D01*
X175524500Y-102399983D01*
X175524500Y-103175001D01*
X175524501Y-103175019D01*
X175535000Y-103277796D01*
X175535001Y-103277799D01*
X175581333Y-103417618D01*
X175590186Y-103444334D01*
X175682288Y-103593656D01*
X175806344Y-103717712D01*
X175955666Y-103809814D01*
X176122203Y-103864999D01*
X176224991Y-103875500D01*
X177275008Y-103875499D01*
X177275016Y-103875498D01*
X177275019Y-103875498D01*
X177331302Y-103869748D01*
X177377797Y-103864999D01*
X177544334Y-103809814D01*
X177693656Y-103717712D01*
X177817712Y-103593656D01*
X177817716Y-103593649D01*
X177821322Y-103589090D01*
X177878344Y-103548713D01*
X177918589Y-103542000D01*
X180023613Y-103542000D01*
X180090652Y-103561685D01*
X180111294Y-103578319D01*
X181105135Y-104572159D01*
X181138620Y-104633482D01*
X181140982Y-104670647D01*
X181129666Y-104799997D01*
X181129666Y-104800001D01*
X181148964Y-105020585D01*
X181148965Y-105020592D01*
X181206275Y-105234475D01*
X181206279Y-105234486D01*
X181299856Y-105435163D01*
X181299858Y-105435167D01*
X181426868Y-105616555D01*
X181583445Y-105773132D01*
X181764833Y-105900142D01*
X181797906Y-105915564D01*
X181888091Y-105957618D01*
X181940531Y-106003790D01*
X181959683Y-106070983D01*
X181939467Y-106137865D01*
X181888091Y-106182382D01*
X181764836Y-106239856D01*
X181764834Y-106239857D01*
X181583444Y-106366868D01*
X181426868Y-106523444D01*
X181299857Y-106704834D01*
X181299856Y-106704836D01*
X181206279Y-106905513D01*
X181206275Y-106905524D01*
X181148965Y-107119407D01*
X181148964Y-107119414D01*
X181129666Y-107339998D01*
X181129666Y-107340001D01*
X181148964Y-107560585D01*
X181148965Y-107560592D01*
X181206275Y-107774475D01*
X181206279Y-107774486D01*
X181289437Y-107952819D01*
X181299858Y-107975167D01*
X181426868Y-108156555D01*
X181583445Y-108313132D01*
X181764833Y-108440142D01*
X181826828Y-108469050D01*
X181888091Y-108497618D01*
X181940531Y-108543790D01*
X181959683Y-108610983D01*
X181939467Y-108677865D01*
X181888091Y-108722382D01*
X181764836Y-108779856D01*
X181764834Y-108779857D01*
X181583444Y-108906868D01*
X181426868Y-109063444D01*
X181299857Y-109244834D01*
X181299856Y-109244836D01*
X181206279Y-109445513D01*
X181206275Y-109445524D01*
X181148965Y-109659407D01*
X181148964Y-109659414D01*
X181129666Y-109879998D01*
X181129666Y-109880001D01*
X181148964Y-110100585D01*
X181148965Y-110100592D01*
X181206275Y-110314475D01*
X181206279Y-110314486D01*
X181292787Y-110500003D01*
X181299858Y-110515167D01*
X181426868Y-110696555D01*
X181583445Y-110853132D01*
X181764833Y-110980142D01*
X181812270Y-111002262D01*
X181888091Y-111037618D01*
X181940531Y-111083790D01*
X181959683Y-111150983D01*
X181939467Y-111217865D01*
X181888091Y-111262382D01*
X181764836Y-111319856D01*
X181764834Y-111319857D01*
X181583444Y-111446868D01*
X181426868Y-111603444D01*
X181299857Y-111784834D01*
X181299856Y-111784836D01*
X181206279Y-111985513D01*
X181206275Y-111985524D01*
X181148965Y-112199407D01*
X181148964Y-112199414D01*
X181129666Y-112419996D01*
X181129666Y-112420004D01*
X181140982Y-112549350D01*
X181127215Y-112617850D01*
X181105135Y-112647838D01*
X179581294Y-114171681D01*
X179519971Y-114205166D01*
X179493613Y-114208000D01*
X177418589Y-114208000D01*
X177351550Y-114188315D01*
X177321322Y-114160910D01*
X177317710Y-114156342D01*
X177193657Y-114032289D01*
X177193656Y-114032288D01*
X177100888Y-113975069D01*
X177044336Y-113940187D01*
X177044331Y-113940185D01*
X177042862Y-113939698D01*
X176877797Y-113885001D01*
X176877795Y-113885000D01*
X176775010Y-113874500D01*
X175724998Y-113874500D01*
X175724980Y-113874501D01*
X175622203Y-113885000D01*
X175622200Y-113885001D01*
X175455668Y-113940185D01*
X175455663Y-113940187D01*
X175306342Y-114032289D01*
X175182289Y-114156342D01*
X175090187Y-114305663D01*
X175090185Y-114305668D01*
X175066884Y-114375987D01*
X175035001Y-114472203D01*
X175035001Y-114472204D01*
X175035000Y-114472204D01*
X175024500Y-114574983D01*
X175024500Y-115350001D01*
X175024501Y-115350019D01*
X175035000Y-115452796D01*
X175035001Y-115452799D01*
X175090185Y-115619331D01*
X175090187Y-115619336D01*
X175118011Y-115664446D01*
X175167004Y-115743877D01*
X175182289Y-115768657D01*
X175306346Y-115892714D01*
X175309182Y-115894463D01*
X175310717Y-115896170D01*
X175312011Y-115897193D01*
X175311836Y-115897414D01*
X175355905Y-115946411D01*
X175367126Y-116015374D01*
X175339282Y-116079456D01*
X175309182Y-116105537D01*
X175306346Y-116107285D01*
X175182289Y-116231342D01*
X175090187Y-116380663D01*
X175090185Y-116380668D01*
X175083826Y-116399858D01*
X175035001Y-116547203D01*
X175035001Y-116547204D01*
X175035000Y-116547204D01*
X175024500Y-116649983D01*
X175024500Y-117425001D01*
X175024501Y-117425019D01*
X175035000Y-117527796D01*
X175035001Y-117527799D01*
X175046584Y-117562753D01*
X175090186Y-117694334D01*
X175182288Y-117843656D01*
X175306344Y-117967712D01*
X175436597Y-118048052D01*
X175483321Y-118099998D01*
X175495500Y-118153590D01*
X175495500Y-120711459D01*
X175488542Y-120752414D01*
X175464631Y-120820745D01*
X175464630Y-120820750D01*
X175444435Y-120999996D01*
X175444435Y-121000003D01*
X175464630Y-121179249D01*
X175464631Y-121179254D01*
X175524211Y-121349523D01*
X175593202Y-121459320D01*
X175620184Y-121502262D01*
X175747738Y-121629816D01*
X175799621Y-121662416D01*
X175881362Y-121713778D01*
X175900478Y-121725789D01*
X176008090Y-121763444D01*
X176070745Y-121785368D01*
X176070750Y-121785369D01*
X176249996Y-121805565D01*
X176250000Y-121805565D01*
X176250004Y-121805565D01*
X176429249Y-121785369D01*
X176429252Y-121785368D01*
X176429255Y-121785368D01*
X176599522Y-121725789D01*
X176752262Y-121629816D01*
X176879816Y-121502262D01*
X176975789Y-121349522D01*
X177035368Y-121179255D01*
X177035369Y-121179249D01*
X177055565Y-121000003D01*
X177055565Y-120999996D01*
X177035369Y-120820750D01*
X177035368Y-120820745D01*
X177011458Y-120752414D01*
X177004500Y-120711459D01*
X177004500Y-118153590D01*
X177024185Y-118086551D01*
X177063402Y-118048052D01*
X177193656Y-117967712D01*
X177317712Y-117843656D01*
X177409814Y-117694334D01*
X177464999Y-117527797D01*
X177475500Y-117425009D01*
X177475499Y-116649992D01*
X177473278Y-116628254D01*
X177464999Y-116547203D01*
X177464998Y-116547200D01*
X177449855Y-116501501D01*
X177409814Y-116380666D01*
X177317712Y-116231344D01*
X177193656Y-116107288D01*
X177190819Y-116105538D01*
X177189283Y-116103830D01*
X177187989Y-116102807D01*
X177188163Y-116102585D01*
X177144096Y-116053594D01*
X177132872Y-115984632D01*
X177160713Y-115920549D01*
X177190817Y-115894462D01*
X177193656Y-115892712D01*
X177317712Y-115768656D01*
X177317716Y-115768649D01*
X177321322Y-115764090D01*
X177378344Y-115723713D01*
X177418589Y-115717000D01*
X179777054Y-115717000D01*
X179777074Y-115717001D01*
X179783188Y-115717001D01*
X179931813Y-115717001D01*
X180062523Y-115691000D01*
X180077580Y-115688005D01*
X180103353Y-115677329D01*
X180134460Y-115664445D01*
X180214885Y-115631132D01*
X180214886Y-115631131D01*
X180214889Y-115631130D01*
X180338466Y-115548559D01*
X180925332Y-114961691D01*
X180986653Y-114928208D01*
X181056344Y-114933192D01*
X181112278Y-114975063D01*
X181136539Y-115038566D01*
X181148964Y-115180586D01*
X181148965Y-115180592D01*
X181206275Y-115394475D01*
X181206279Y-115394486D01*
X181299856Y-115595163D01*
X181299858Y-115595167D01*
X181426868Y-115776555D01*
X181583445Y-115933132D01*
X181764833Y-116060142D01*
X181826828Y-116089050D01*
X181888091Y-116117618D01*
X181940531Y-116163790D01*
X181959683Y-116230983D01*
X181939467Y-116297865D01*
X181888091Y-116342382D01*
X181764836Y-116399856D01*
X181764834Y-116399857D01*
X181583444Y-116526868D01*
X181426868Y-116683444D01*
X181299857Y-116864834D01*
X181299856Y-116864836D01*
X181206279Y-117065513D01*
X181206275Y-117065524D01*
X181148965Y-117279407D01*
X181148964Y-117279414D01*
X181129666Y-117499998D01*
X181129666Y-117500001D01*
X181148964Y-117720585D01*
X181148965Y-117720592D01*
X181206275Y-117934475D01*
X181206279Y-117934486D01*
X181295886Y-118126650D01*
X181299858Y-118135167D01*
X181426868Y-118316555D01*
X181583445Y-118473132D01*
X181764833Y-118600142D01*
X181826828Y-118629050D01*
X181888091Y-118657618D01*
X181940531Y-118703790D01*
X181959683Y-118770983D01*
X181939467Y-118837865D01*
X181888091Y-118882382D01*
X181764836Y-118939856D01*
X181764834Y-118939857D01*
X181583444Y-119066868D01*
X181426868Y-119223444D01*
X181299857Y-119404834D01*
X181299856Y-119404836D01*
X181206279Y-119605513D01*
X181206275Y-119605524D01*
X181148965Y-119819407D01*
X181148964Y-119819414D01*
X181129666Y-120039998D01*
X181129666Y-120040001D01*
X181148964Y-120260585D01*
X181148965Y-120260592D01*
X181206275Y-120474475D01*
X181206279Y-120474486D01*
X181264584Y-120599522D01*
X181299858Y-120675167D01*
X181426868Y-120856555D01*
X181583445Y-121013132D01*
X181764833Y-121140142D01*
X181810089Y-121161245D01*
X181888091Y-121197618D01*
X181940531Y-121243790D01*
X181959683Y-121310983D01*
X181939467Y-121377865D01*
X181888091Y-121422382D01*
X181764836Y-121479856D01*
X181764834Y-121479857D01*
X181583444Y-121606868D01*
X181426868Y-121763444D01*
X181299857Y-121944834D01*
X181299856Y-121944836D01*
X181206279Y-122145513D01*
X181206275Y-122145524D01*
X181148965Y-122359407D01*
X181148964Y-122359414D01*
X181129666Y-122579998D01*
X181129666Y-122580001D01*
X181148964Y-122800585D01*
X181148965Y-122800592D01*
X181206275Y-123014475D01*
X181206279Y-123014486D01*
X181286201Y-123185879D01*
X181299858Y-123215167D01*
X181426868Y-123396555D01*
X181583445Y-123553132D01*
X181764833Y-123680142D01*
X181799551Y-123696331D01*
X181965513Y-123773720D01*
X181965515Y-123773720D01*
X181965520Y-123773723D01*
X182179409Y-123831035D01*
X182336974Y-123844820D01*
X182399998Y-123850334D01*
X182399999Y-123850334D01*
X182399999Y-123850333D01*
X182400000Y-123850334D01*
X182529352Y-123839016D01*
X182597850Y-123852782D01*
X182627839Y-123874863D01*
X184533600Y-125780624D01*
X184533621Y-125780647D01*
X184540793Y-125787819D01*
X184574278Y-125849142D01*
X184569294Y-125918834D01*
X184527422Y-125974767D01*
X184461958Y-125999184D01*
X184453112Y-125999500D01*
X125005413Y-125999500D01*
X124994605Y-125999028D01*
X124837246Y-125985260D01*
X124815961Y-125981507D01*
X124668630Y-125942030D01*
X124648318Y-125934637D01*
X124510084Y-125870177D01*
X124491366Y-125859370D01*
X124366417Y-125771880D01*
X124349859Y-125757986D01*
X124242013Y-125650140D01*
X124228119Y-125633582D01*
X124140629Y-125508633D01*
X124129822Y-125489915D01*
X124065362Y-125351681D01*
X124057969Y-125331369D01*
X124049882Y-125301188D01*
X124018491Y-125184035D01*
X124014739Y-125162752D01*
X124000972Y-125005393D01*
X124000500Y-124994586D01*
X124000500Y-78053859D01*
X124020185Y-77986820D01*
X124072989Y-77941065D01*
X124142147Y-77931121D01*
X124205703Y-77960146D01*
G37*
%TD.AperFunction*%
%TA.AperFunction,Conductor*%
G36*
X178993662Y-51020185D02*
G01*
X179039417Y-51072989D01*
X179049361Y-51142147D01*
X179025889Y-51198812D01*
X178981647Y-51257910D01*
X178981645Y-51257913D01*
X178931403Y-51392620D01*
X178931401Y-51392627D01*
X178925000Y-51452155D01*
X178925000Y-53250000D01*
X182075000Y-53250000D01*
X182075000Y-51452172D01*
X182074999Y-51452155D01*
X182068598Y-51392627D01*
X182068596Y-51392620D01*
X182018354Y-51257913D01*
X182018352Y-51257910D01*
X181974111Y-51198812D01*
X181949693Y-51133348D01*
X181964544Y-51065074D01*
X182013949Y-51015669D01*
X182073377Y-51000500D01*
X197907290Y-51000500D01*
X197994587Y-51000500D01*
X198005394Y-51000972D01*
X198035721Y-51003625D01*
X198162755Y-51014739D01*
X198184035Y-51018491D01*
X198301188Y-51049882D01*
X198331369Y-51057969D01*
X198351681Y-51065362D01*
X198489915Y-51129822D01*
X198508633Y-51140629D01*
X198633582Y-51228119D01*
X198650140Y-51242013D01*
X198757986Y-51349859D01*
X198771880Y-51366417D01*
X198859370Y-51491366D01*
X198870177Y-51510084D01*
X198934637Y-51648318D01*
X198942030Y-51668630D01*
X198981507Y-51815961D01*
X198985260Y-51837246D01*
X198999028Y-51994605D01*
X198999500Y-52005413D01*
X198999500Y-124994586D01*
X198999028Y-125005394D01*
X198985260Y-125162753D01*
X198981507Y-125184038D01*
X198942030Y-125331369D01*
X198934637Y-125351681D01*
X198870177Y-125489915D01*
X198859370Y-125508633D01*
X198771880Y-125633582D01*
X198757986Y-125650140D01*
X198650140Y-125757986D01*
X198633582Y-125771880D01*
X198508633Y-125859370D01*
X198489915Y-125870177D01*
X198351681Y-125934637D01*
X198331369Y-125942030D01*
X198184038Y-125981507D01*
X198162753Y-125985260D01*
X198005395Y-125999028D01*
X197994587Y-125999500D01*
X196866888Y-125999500D01*
X196799849Y-125979815D01*
X196754094Y-125927011D01*
X196744150Y-125857853D01*
X196773175Y-125794297D01*
X196779207Y-125787819D01*
X198037208Y-124529815D01*
X198230963Y-124336060D01*
X198230966Y-124336059D01*
X198336059Y-124230966D01*
X198418629Y-124107390D01*
X198418630Y-124107389D01*
X198418633Y-124107385D01*
X198475503Y-123970083D01*
X198475505Y-123970079D01*
X198492758Y-123883347D01*
X198504501Y-123824314D01*
X198504501Y-123670578D01*
X198504500Y-123670552D01*
X198504500Y-95618957D01*
X198506884Y-95594761D01*
X198508501Y-95586633D01*
X198508501Y-95432896D01*
X198508500Y-95432870D01*
X198508500Y-82794446D01*
X198508501Y-82794425D01*
X198508501Y-82639686D01*
X198495666Y-82575165D01*
X198479505Y-82493921D01*
X198478481Y-82491450D01*
X198478480Y-82491439D01*
X198478478Y-82491441D01*
X198422630Y-82356611D01*
X198422628Y-82356608D01*
X198340060Y-82233035D01*
X198340054Y-82233028D01*
X198230647Y-82123621D01*
X198230624Y-82123600D01*
X196373324Y-80266299D01*
X196339839Y-80204976D01*
X196337477Y-80167813D01*
X196355659Y-79960000D01*
X196335063Y-79724592D01*
X196274885Y-79500003D01*
X196273905Y-79496344D01*
X196273904Y-79496343D01*
X196273903Y-79496337D01*
X196174035Y-79282171D01*
X196145198Y-79240988D01*
X196038496Y-79088600D01*
X196038495Y-79088599D01*
X195916567Y-78966671D01*
X195883084Y-78905351D01*
X195888068Y-78835659D01*
X195929939Y-78779725D01*
X195960915Y-78762810D01*
X196092331Y-78713796D01*
X196207546Y-78627546D01*
X196293796Y-78512331D01*
X196344091Y-78377483D01*
X196350500Y-78317873D01*
X196350499Y-76522128D01*
X196344091Y-76462517D01*
X196330289Y-76425513D01*
X196293797Y-76327671D01*
X196293793Y-76327664D01*
X196207547Y-76212455D01*
X196207544Y-76212452D01*
X196092335Y-76126206D01*
X196092328Y-76126202D01*
X195957482Y-76075908D01*
X195957483Y-76075908D01*
X195897883Y-76069501D01*
X195897881Y-76069500D01*
X195897873Y-76069500D01*
X195897864Y-76069500D01*
X194102129Y-76069500D01*
X194102123Y-76069501D01*
X194042516Y-76075908D01*
X193907671Y-76126202D01*
X193907664Y-76126206D01*
X193842545Y-76174954D01*
X193777081Y-76199371D01*
X193708808Y-76184519D01*
X193665133Y-76144578D01*
X193582952Y-76021585D01*
X193548883Y-75987516D01*
X193478416Y-75917049D01*
X192879425Y-75318058D01*
X192276049Y-74714681D01*
X192242564Y-74653358D01*
X192247548Y-74583666D01*
X192289420Y-74527733D01*
X192354884Y-74503316D01*
X192363730Y-74503000D01*
X192457473Y-74503000D01*
X192457475Y-74503000D01*
X192457478Y-74502999D01*
X192457486Y-74502999D01*
X192643936Y-74479444D01*
X192769943Y-74463526D01*
X193074999Y-74385201D01*
X193075002Y-74385200D01*
X193367824Y-74269264D01*
X193367825Y-74269263D01*
X193367823Y-74269263D01*
X193367833Y-74269260D01*
X193643826Y-74117531D01*
X193898627Y-73932408D01*
X194128216Y-73716809D01*
X194328973Y-73474135D01*
X194497732Y-73208214D01*
X194631832Y-72923238D01*
X194729157Y-72623702D01*
X194788173Y-72314329D01*
X194788509Y-72309000D01*
X194807605Y-72005465D01*
X194807949Y-72000000D01*
X194807949Y-71999994D01*
X194808002Y-71999154D01*
X194831857Y-71933483D01*
X194887429Y-71891134D01*
X194957076Y-71885552D01*
X194982643Y-71893863D01*
X195034167Y-71917052D01*
X195076160Y-71935952D01*
X195076162Y-71935953D01*
X195076165Y-71935954D01*
X195076168Y-71935955D01*
X195076182Y-71935960D01*
X195281712Y-72000005D01*
X195376522Y-72029549D01*
X195685971Y-72086258D01*
X196000000Y-72105253D01*
X196314029Y-72086258D01*
X196623478Y-72029549D01*
X196923835Y-71935954D01*
X197210721Y-71806837D01*
X197479952Y-71644081D01*
X197503852Y-71625357D01*
X197607317Y-71544297D01*
X197727602Y-71450060D01*
X197950060Y-71227602D01*
X198095843Y-71041523D01*
X198144075Y-70979960D01*
X198144075Y-70979958D01*
X198144081Y-70979952D01*
X198306837Y-70710721D01*
X198435954Y-70423835D01*
X198529549Y-70123478D01*
X198586258Y-69814029D01*
X198605253Y-69500000D01*
X198586258Y-69185971D01*
X198529549Y-68876522D01*
X198464430Y-68667547D01*
X198435960Y-68576183D01*
X198435956Y-68576172D01*
X198435954Y-68576165D01*
X198306837Y-68289279D01*
X198144081Y-68020048D01*
X198144078Y-68020044D01*
X198144075Y-68020039D01*
X197950057Y-67772394D01*
X197727605Y-67549942D01*
X197479960Y-67355924D01*
X197450555Y-67338148D01*
X197210721Y-67193163D01*
X196923835Y-67064046D01*
X196923830Y-67064044D01*
X196923827Y-67064043D01*
X196923816Y-67064039D01*
X196623486Y-66970453D01*
X196623482Y-66970452D01*
X196623478Y-66970451D01*
X196314029Y-66913742D01*
X196314028Y-66913741D01*
X196314023Y-66913741D01*
X196000000Y-66894747D01*
X195685976Y-66913741D01*
X195659473Y-66918598D01*
X195376522Y-66970451D01*
X195376519Y-66970451D01*
X195376513Y-66970453D01*
X195076183Y-67064039D01*
X195076172Y-67064043D01*
X195076166Y-67064045D01*
X195076165Y-67064046D01*
X195027510Y-67085944D01*
X194789283Y-67193161D01*
X194789281Y-67193162D01*
X194520039Y-67355924D01*
X194272394Y-67549942D01*
X194049942Y-67772394D01*
X193855924Y-68020039D01*
X193797390Y-68116866D01*
X193693163Y-68289279D01*
X193580716Y-68539127D01*
X193564043Y-68576172D01*
X193564039Y-68576183D01*
X193470453Y-68876513D01*
X193470451Y-68876519D01*
X193470451Y-68876522D01*
X193463385Y-68915080D01*
X193438968Y-69048316D01*
X193407521Y-69110709D01*
X193347334Y-69146196D01*
X193277516Y-69143510D01*
X193220234Y-69103504D01*
X193193673Y-69038880D01*
X193192999Y-69025980D01*
X193192999Y-66919728D01*
X193212684Y-66852690D01*
X193229313Y-66832053D01*
X198082952Y-61978415D01*
X198153920Y-61872203D01*
X198165084Y-61855495D01*
X198188518Y-61798920D01*
X198221659Y-61718912D01*
X198250500Y-61573917D01*
X198250500Y-61426082D01*
X198250500Y-55601082D01*
X198250500Y-55601079D01*
X198221659Y-55456092D01*
X198221658Y-55456091D01*
X198221658Y-55456087D01*
X198220251Y-55452690D01*
X198165087Y-55319511D01*
X198165080Y-55319498D01*
X198082952Y-55196585D01*
X198068739Y-55182372D01*
X197978416Y-55092049D01*
X196386818Y-53500450D01*
X196353333Y-53439127D01*
X196350499Y-53412769D01*
X196350499Y-52827129D01*
X196350498Y-52827123D01*
X196350497Y-52827116D01*
X196344091Y-52767517D01*
X196327238Y-52722333D01*
X196293797Y-52632671D01*
X196293793Y-52632664D01*
X196207547Y-52517455D01*
X196207544Y-52517452D01*
X196092335Y-52431206D01*
X196092328Y-52431202D01*
X195957482Y-52380908D01*
X195957483Y-52380908D01*
X195897883Y-52374501D01*
X195897881Y-52374500D01*
X195897873Y-52374500D01*
X195897864Y-52374500D01*
X194652129Y-52374500D01*
X194652123Y-52374501D01*
X194592516Y-52380908D01*
X194457671Y-52431202D01*
X194457664Y-52431206D01*
X194342455Y-52517452D01*
X194342452Y-52517455D01*
X194256206Y-52632664D01*
X194256202Y-52632671D01*
X194205908Y-52767517D01*
X194199501Y-52827116D01*
X194199501Y-52827123D01*
X194199500Y-52827135D01*
X194199500Y-54072870D01*
X194199501Y-54072876D01*
X194205908Y-54132483D01*
X194256202Y-54267328D01*
X194256206Y-54267335D01*
X194342452Y-54382544D01*
X194342455Y-54382547D01*
X194457664Y-54468793D01*
X194457671Y-54468797D01*
X194502618Y-54485561D01*
X194592517Y-54519091D01*
X194652127Y-54525500D01*
X195237769Y-54525499D01*
X195304808Y-54545183D01*
X195325450Y-54561818D01*
X196713181Y-55949548D01*
X196746666Y-56010871D01*
X196749500Y-56037229D01*
X196749500Y-61137770D01*
X196729815Y-61204809D01*
X196713181Y-61225451D01*
X193404680Y-64533952D01*
X193343357Y-64567437D01*
X193273665Y-64562453D01*
X193217732Y-64520581D01*
X193193315Y-64455117D01*
X193192999Y-64446271D01*
X193192999Y-63959629D01*
X193192998Y-63959623D01*
X193192997Y-63959616D01*
X193186591Y-63900017D01*
X193181976Y-63887644D01*
X193136297Y-63765171D01*
X193136293Y-63765164D01*
X193050047Y-63649955D01*
X193050044Y-63649952D01*
X192934835Y-63563706D01*
X192934828Y-63563702D01*
X192799982Y-63513408D01*
X192799983Y-63513408D01*
X192740383Y-63507001D01*
X192740381Y-63507000D01*
X192740373Y-63507000D01*
X192740364Y-63507000D01*
X187259629Y-63507000D01*
X187259623Y-63507001D01*
X187200016Y-63513408D01*
X187065171Y-63563702D01*
X187065164Y-63563706D01*
X186949955Y-63649952D01*
X186949952Y-63649955D01*
X186863706Y-63765164D01*
X186863702Y-63765171D01*
X186813408Y-63900017D01*
X186811839Y-63914615D01*
X186807001Y-63959623D01*
X186807000Y-63959635D01*
X186807000Y-69440370D01*
X186807001Y-69440376D01*
X186813408Y-69499983D01*
X186861218Y-69628167D01*
X186866202Y-69697859D01*
X186832717Y-69759182D01*
X186771393Y-69792666D01*
X186745036Y-69795500D01*
X185003041Y-69795500D01*
X184936002Y-69775815D01*
X184903775Y-69745812D01*
X184892492Y-69730740D01*
X184882546Y-69717454D01*
X184882544Y-69717453D01*
X184882544Y-69717452D01*
X184767335Y-69631206D01*
X184767328Y-69631202D01*
X184632482Y-69580908D01*
X184632483Y-69580908D01*
X184572883Y-69574501D01*
X184572881Y-69574500D01*
X184572873Y-69574500D01*
X184572865Y-69574500D01*
X183787230Y-69574500D01*
X183720191Y-69554815D01*
X183699549Y-69538181D01*
X183598548Y-69437180D01*
X183565063Y-69375857D01*
X183570047Y-69306165D01*
X183611919Y-69250232D01*
X183677383Y-69225815D01*
X183686229Y-69225499D01*
X184572871Y-69225499D01*
X184572872Y-69225499D01*
X184632483Y-69219091D01*
X184767331Y-69168796D01*
X184882546Y-69082546D01*
X184968796Y-68967331D01*
X185019091Y-68832483D01*
X185025500Y-68772873D01*
X185025499Y-67727128D01*
X185019091Y-67667517D01*
X185000964Y-67618917D01*
X184968797Y-67532671D01*
X184968793Y-67532664D01*
X184882547Y-67417455D01*
X184882544Y-67417452D01*
X184767335Y-67331206D01*
X184767328Y-67331202D01*
X184632482Y-67280908D01*
X184632483Y-67280908D01*
X184572883Y-67274501D01*
X184572881Y-67274500D01*
X184572873Y-67274500D01*
X184572864Y-67274500D01*
X182727129Y-67274500D01*
X182727123Y-67274501D01*
X182667516Y-67280908D01*
X182532671Y-67331202D01*
X182532664Y-67331206D01*
X182417455Y-67417452D01*
X182417452Y-67417455D01*
X182331206Y-67532664D01*
X182331202Y-67532671D01*
X182280908Y-67667517D01*
X182274501Y-67727116D01*
X182274501Y-67727123D01*
X182274500Y-67727135D01*
X182274500Y-67813770D01*
X182254815Y-67880809D01*
X182202011Y-67926564D01*
X182132853Y-67936508D01*
X182069297Y-67907483D01*
X182062819Y-67901451D01*
X181286819Y-67125451D01*
X181253334Y-67064128D01*
X181250500Y-67037770D01*
X181250500Y-66472844D01*
X182275000Y-66472844D01*
X182281401Y-66532372D01*
X182281403Y-66532379D01*
X182331645Y-66667086D01*
X182331649Y-66667093D01*
X182417809Y-66782187D01*
X182417812Y-66782190D01*
X182532906Y-66868350D01*
X182532913Y-66868354D01*
X182667620Y-66918596D01*
X182667627Y-66918598D01*
X182727155Y-66924999D01*
X182727172Y-66925000D01*
X183400000Y-66925000D01*
X183900000Y-66925000D01*
X184572828Y-66925000D01*
X184572844Y-66924999D01*
X184632372Y-66918598D01*
X184632379Y-66918596D01*
X184767086Y-66868354D01*
X184767093Y-66868350D01*
X184882187Y-66782190D01*
X184882190Y-66782187D01*
X184968350Y-66667093D01*
X184968354Y-66667086D01*
X185018596Y-66532379D01*
X185018598Y-66532372D01*
X185024999Y-66472844D01*
X185025000Y-66472827D01*
X185025000Y-66200000D01*
X183900000Y-66200000D01*
X183900000Y-66925000D01*
X183400000Y-66925000D01*
X183400000Y-66200000D01*
X182275000Y-66200000D01*
X182275000Y-66472844D01*
X181250500Y-66472844D01*
X181250500Y-65427155D01*
X182275000Y-65427155D01*
X182275000Y-65700000D01*
X183400000Y-65700000D01*
X183900000Y-65700000D01*
X185025000Y-65700000D01*
X185025000Y-65427172D01*
X185024999Y-65427155D01*
X185018598Y-65367627D01*
X185018596Y-65367620D01*
X184968354Y-65232913D01*
X184968350Y-65232906D01*
X184882190Y-65117812D01*
X184882187Y-65117809D01*
X184767093Y-65031649D01*
X184767086Y-65031645D01*
X184632379Y-64981403D01*
X184632372Y-64981401D01*
X184572844Y-64975000D01*
X183900000Y-64975000D01*
X183900000Y-65700000D01*
X183400000Y-65700000D01*
X183400000Y-64975000D01*
X182727155Y-64975000D01*
X182667627Y-64981401D01*
X182667620Y-64981403D01*
X182532913Y-65031645D01*
X182532906Y-65031649D01*
X182417812Y-65117809D01*
X182417809Y-65117812D01*
X182331649Y-65232906D01*
X182331645Y-65232913D01*
X182281403Y-65367620D01*
X182281401Y-65367627D01*
X182275000Y-65427155D01*
X181250500Y-65427155D01*
X181250500Y-62824499D01*
X181270185Y-62757460D01*
X181322989Y-62711705D01*
X181374500Y-62700499D01*
X181622871Y-62700499D01*
X181622872Y-62700499D01*
X181682483Y-62694091D01*
X181817331Y-62643796D01*
X181932546Y-62557546D01*
X182018796Y-62442331D01*
X182069091Y-62307483D01*
X182075500Y-62247873D01*
X182075499Y-58152128D01*
X182069091Y-58092517D01*
X182018796Y-57957669D01*
X182018795Y-57957668D01*
X182018793Y-57957664D01*
X181932547Y-57842455D01*
X181932544Y-57842452D01*
X181817335Y-57756206D01*
X181817328Y-57756202D01*
X181682482Y-57705908D01*
X181682483Y-57705908D01*
X181622883Y-57699501D01*
X181622881Y-57699500D01*
X181622873Y-57699500D01*
X181622864Y-57699500D01*
X179377129Y-57699500D01*
X179377123Y-57699501D01*
X179317516Y-57705908D01*
X179182671Y-57756202D01*
X179182664Y-57756206D01*
X179067457Y-57842451D01*
X179061180Y-57848728D01*
X179058984Y-57846532D01*
X179015370Y-57879182D01*
X178972037Y-57887000D01*
X173013151Y-57887000D01*
X172946112Y-57867315D01*
X172900357Y-57814511D01*
X172890413Y-57745353D01*
X172907613Y-57697902D01*
X172909814Y-57694334D01*
X172964999Y-57527797D01*
X172975500Y-57425009D01*
X172975499Y-56649992D01*
X172972754Y-56623124D01*
X172964999Y-56547203D01*
X172964998Y-56547200D01*
X172938117Y-56466079D01*
X172909814Y-56380666D01*
X172817712Y-56231344D01*
X172693656Y-56107288D01*
X172690342Y-56105243D01*
X172688546Y-56103248D01*
X172687989Y-56102807D01*
X172688064Y-56102711D01*
X172643618Y-56053297D01*
X172632397Y-55984334D01*
X172660240Y-55920252D01*
X172690348Y-55894165D01*
X172693342Y-55892318D01*
X172817315Y-55768345D01*
X172909356Y-55619124D01*
X172909358Y-55619119D01*
X172932976Y-55547844D01*
X178925000Y-55547844D01*
X178931401Y-55607372D01*
X178931403Y-55607379D01*
X178981645Y-55742086D01*
X178981649Y-55742093D01*
X179067809Y-55857187D01*
X179067812Y-55857190D01*
X179182906Y-55943350D01*
X179182913Y-55943354D01*
X179317620Y-55993596D01*
X179317627Y-55993598D01*
X179377155Y-55999999D01*
X179377172Y-56000000D01*
X180250000Y-56000000D01*
X180750000Y-56000000D01*
X181622828Y-56000000D01*
X181622844Y-55999999D01*
X181682372Y-55993598D01*
X181682379Y-55993596D01*
X181817086Y-55943354D01*
X181817093Y-55943350D01*
X181932187Y-55857190D01*
X181932190Y-55857187D01*
X182018350Y-55742093D01*
X182018354Y-55742086D01*
X182068596Y-55607379D01*
X182068598Y-55607372D01*
X182074999Y-55547844D01*
X182075000Y-55547827D01*
X182075000Y-53750000D01*
X180750000Y-53750000D01*
X180750000Y-56000000D01*
X180250000Y-56000000D01*
X180250000Y-53750000D01*
X178925000Y-53750000D01*
X178925000Y-55547844D01*
X172932976Y-55547844D01*
X172964505Y-55452697D01*
X172964506Y-55452690D01*
X172974999Y-55349986D01*
X172975000Y-55349973D01*
X172975000Y-55212500D01*
X170525001Y-55212500D01*
X170525001Y-55349986D01*
X170535494Y-55452697D01*
X170590641Y-55619119D01*
X170590643Y-55619124D01*
X170682684Y-55768345D01*
X170806655Y-55892316D01*
X170806659Y-55892319D01*
X170809656Y-55894168D01*
X170811279Y-55895972D01*
X170812323Y-55896798D01*
X170812181Y-55896976D01*
X170856381Y-55946116D01*
X170867602Y-56015079D01*
X170839759Y-56079161D01*
X170809661Y-56105241D01*
X170806349Y-56107283D01*
X170806343Y-56107288D01*
X170682289Y-56231342D01*
X170678678Y-56235910D01*
X170621656Y-56276287D01*
X170581411Y-56283000D01*
X169392946Y-56283000D01*
X169392926Y-56282999D01*
X169386812Y-56282999D01*
X169238188Y-56282999D01*
X169238186Y-56282999D01*
X169116605Y-56307184D01*
X169102040Y-56310081D01*
X169092418Y-56311995D01*
X169070467Y-56321088D01*
X169070466Y-56321088D01*
X168955113Y-56368867D01*
X168955111Y-56368870D01*
X168831533Y-56451441D01*
X168778987Y-56503987D01*
X168726441Y-56556534D01*
X167469794Y-57813181D01*
X167408471Y-57846666D01*
X167382113Y-57849500D01*
X165024499Y-57849500D01*
X164957460Y-57829815D01*
X164911705Y-57777011D01*
X164900499Y-57725500D01*
X164900499Y-56977129D01*
X164900498Y-56977123D01*
X164900497Y-56977116D01*
X164894091Y-56917517D01*
X164860106Y-56826399D01*
X164843797Y-56782671D01*
X164843793Y-56782664D01*
X164757547Y-56667455D01*
X164757544Y-56667452D01*
X164642335Y-56581206D01*
X164642328Y-56581202D01*
X164507482Y-56530908D01*
X164507483Y-56530908D01*
X164447883Y-56524501D01*
X164447881Y-56524500D01*
X164447873Y-56524500D01*
X164447864Y-56524500D01*
X162552129Y-56524500D01*
X162552123Y-56524501D01*
X162492516Y-56530908D01*
X162357671Y-56581202D01*
X162357664Y-56581206D01*
X162242455Y-56667452D01*
X162242452Y-56667455D01*
X162156206Y-56782664D01*
X162156202Y-56782671D01*
X162105908Y-56917517D01*
X162099501Y-56977116D01*
X162099501Y-56977123D01*
X162099500Y-56977135D01*
X162099500Y-57725500D01*
X162079815Y-57792539D01*
X162027011Y-57838294D01*
X161975500Y-57849500D01*
X156524499Y-57849500D01*
X156457460Y-57829815D01*
X156411705Y-57777011D01*
X156400499Y-57725500D01*
X156400499Y-56977129D01*
X156400498Y-56977123D01*
X156400497Y-56977116D01*
X156394091Y-56917517D01*
X156360106Y-56826399D01*
X156343797Y-56782671D01*
X156343793Y-56782664D01*
X156257547Y-56667455D01*
X156257544Y-56667452D01*
X156142335Y-56581206D01*
X156142328Y-56581202D01*
X156007482Y-56530908D01*
X156007483Y-56530908D01*
X155947883Y-56524501D01*
X155947881Y-56524500D01*
X155947873Y-56524500D01*
X155947864Y-56524500D01*
X154052129Y-56524500D01*
X154052123Y-56524501D01*
X153992516Y-56530908D01*
X153857671Y-56581202D01*
X153857664Y-56581206D01*
X153742455Y-56667452D01*
X153742452Y-56667455D01*
X153656206Y-56782664D01*
X153656202Y-56782671D01*
X153605908Y-56917517D01*
X153599501Y-56977116D01*
X153599501Y-56977123D01*
X153599500Y-56977135D01*
X153599500Y-59738770D01*
X153579815Y-59805809D01*
X153527011Y-59851564D01*
X153457853Y-59861508D01*
X153394297Y-59832483D01*
X153387819Y-59826451D01*
X152786819Y-59225451D01*
X152753334Y-59164128D01*
X152750500Y-59137770D01*
X152750500Y-56862228D01*
X152770185Y-56795189D01*
X152786814Y-56774551D01*
X153950350Y-55611015D01*
X154011671Y-55577532D01*
X154048806Y-55575543D01*
X154048806Y-55575500D01*
X154048809Y-55575499D01*
X154048819Y-55575322D01*
X154050877Y-55575432D01*
X154051292Y-55575410D01*
X154052127Y-55575500D01*
X155947872Y-55575499D01*
X156007483Y-55569091D01*
X156142331Y-55518796D01*
X156257546Y-55432546D01*
X156343796Y-55317331D01*
X156394091Y-55182483D01*
X156400500Y-55122873D01*
X156400500Y-55122844D01*
X162100000Y-55122844D01*
X162106401Y-55182372D01*
X162106403Y-55182379D01*
X162156645Y-55317086D01*
X162156649Y-55317093D01*
X162242809Y-55432187D01*
X162242812Y-55432190D01*
X162357906Y-55518350D01*
X162357913Y-55518354D01*
X162492620Y-55568596D01*
X162492627Y-55568598D01*
X162552155Y-55574999D01*
X162552172Y-55575000D01*
X163250000Y-55575000D01*
X163750000Y-55575000D01*
X164447828Y-55575000D01*
X164447844Y-55574999D01*
X164507372Y-55568598D01*
X164507379Y-55568596D01*
X164642086Y-55518354D01*
X164642093Y-55518350D01*
X164757187Y-55432190D01*
X164757190Y-55432187D01*
X164843350Y-55317093D01*
X164843354Y-55317086D01*
X164893596Y-55182379D01*
X164893598Y-55182372D01*
X164899999Y-55122844D01*
X164900000Y-55122827D01*
X164900000Y-54575013D01*
X170525000Y-54575013D01*
X170525000Y-54712500D01*
X171500000Y-54712500D01*
X172000000Y-54712500D01*
X172974999Y-54712500D01*
X172974999Y-54575028D01*
X172974998Y-54575013D01*
X172964505Y-54472302D01*
X172909358Y-54305880D01*
X172909356Y-54305875D01*
X172817315Y-54156654D01*
X172693345Y-54032684D01*
X172544124Y-53940643D01*
X172544119Y-53940641D01*
X172377697Y-53885494D01*
X172377690Y-53885493D01*
X172274986Y-53875000D01*
X172000000Y-53875000D01*
X172000000Y-54712500D01*
X171500000Y-54712500D01*
X171500000Y-53875000D01*
X171225029Y-53875000D01*
X171225012Y-53875001D01*
X171122302Y-53885494D01*
X170955880Y-53940641D01*
X170955875Y-53940643D01*
X170806654Y-54032684D01*
X170682684Y-54156654D01*
X170590643Y-54305875D01*
X170590641Y-54305880D01*
X170535494Y-54472302D01*
X170535493Y-54472309D01*
X170525000Y-54575013D01*
X164900000Y-54575013D01*
X164900000Y-53750000D01*
X163750000Y-53750000D01*
X163750000Y-55575000D01*
X163250000Y-55575000D01*
X163250000Y-53750000D01*
X162100000Y-53750000D01*
X162100000Y-55122844D01*
X156400500Y-55122844D01*
X156400499Y-53449999D01*
X189114892Y-53449999D01*
X189114892Y-53450000D01*
X189133282Y-53648464D01*
X189187830Y-53840183D01*
X189276670Y-54018598D01*
X189276675Y-54018606D01*
X189396792Y-54177666D01*
X189505301Y-54276584D01*
X189544090Y-54311945D01*
X189658111Y-54382544D01*
X189687149Y-54400524D01*
X189713554Y-54416873D01*
X189899414Y-54488876D01*
X190095340Y-54525500D01*
X190157770Y-54525500D01*
X190224809Y-54545185D01*
X190245451Y-54561819D01*
X190713181Y-55029549D01*
X190746666Y-55090872D01*
X190749500Y-55117230D01*
X190749500Y-56269484D01*
X190740062Y-56316935D01*
X190738342Y-56321087D01*
X190738340Y-56321092D01*
X190709500Y-56466079D01*
X190709500Y-56525500D01*
X190689815Y-56592539D01*
X190637011Y-56638294D01*
X190585505Y-56649500D01*
X190562132Y-56649500D01*
X190562123Y-56649501D01*
X190502516Y-56655908D01*
X190367671Y-56706202D01*
X190367664Y-56706206D01*
X190252455Y-56792452D01*
X190252452Y-56792455D01*
X190166206Y-56907664D01*
X190166202Y-56907671D01*
X190115908Y-57042517D01*
X190109501Y-57102116D01*
X190109500Y-57102135D01*
X190109500Y-58897870D01*
X190109501Y-58897876D01*
X190115908Y-58957483D01*
X190166202Y-59092328D01*
X190166206Y-59092335D01*
X190252452Y-59207544D01*
X190252455Y-59207547D01*
X190367664Y-59293793D01*
X190367671Y-59293797D01*
X190502517Y-59344091D01*
X190502516Y-59344091D01*
X190509444Y-59344835D01*
X190562127Y-59350500D01*
X192357872Y-59350499D01*
X192417483Y-59344091D01*
X192552331Y-59293796D01*
X192667546Y-59207546D01*
X192753796Y-59092331D01*
X192803002Y-58960401D01*
X192844872Y-58904468D01*
X192910337Y-58880050D01*
X192978610Y-58894901D01*
X193006865Y-58916053D01*
X193128917Y-59038105D01*
X193322421Y-59173600D01*
X193536507Y-59273429D01*
X193536516Y-59273433D01*
X193750000Y-59330634D01*
X193750000Y-58433012D01*
X193807007Y-58465925D01*
X193934174Y-58500000D01*
X194065826Y-58500000D01*
X194192993Y-58465925D01*
X194250000Y-58433012D01*
X194250000Y-59330633D01*
X194463483Y-59273433D01*
X194463492Y-59273429D01*
X194677578Y-59173600D01*
X194871082Y-59038105D01*
X195038105Y-58871082D01*
X195173600Y-58677578D01*
X195273429Y-58463492D01*
X195273432Y-58463486D01*
X195330636Y-58250000D01*
X194433012Y-58250000D01*
X194465925Y-58192993D01*
X194500000Y-58065826D01*
X194500000Y-57934174D01*
X194465925Y-57807007D01*
X194433012Y-57750000D01*
X195330636Y-57750000D01*
X195330635Y-57749999D01*
X195273432Y-57536513D01*
X195273429Y-57536507D01*
X195173600Y-57322422D01*
X195173599Y-57322420D01*
X195038113Y-57128926D01*
X195038108Y-57128920D01*
X194871082Y-56961894D01*
X194677578Y-56826399D01*
X194463492Y-56726570D01*
X194463486Y-56726567D01*
X194250000Y-56669364D01*
X194250000Y-57566988D01*
X194192993Y-57534075D01*
X194065826Y-57500000D01*
X193934174Y-57500000D01*
X193807007Y-57534075D01*
X193750000Y-57566988D01*
X193750000Y-56669364D01*
X193749999Y-56669364D01*
X193536513Y-56726567D01*
X193536507Y-56726570D01*
X193322422Y-56826399D01*
X193322420Y-56826400D01*
X193128926Y-56961886D01*
X193006865Y-57083947D01*
X192945542Y-57117431D01*
X192875850Y-57112447D01*
X192819917Y-57070575D01*
X192803002Y-57039598D01*
X192779702Y-56977128D01*
X192753796Y-56907669D01*
X192753795Y-56907668D01*
X192753793Y-56907664D01*
X192667547Y-56792455D01*
X192667544Y-56792452D01*
X192552335Y-56706206D01*
X192552328Y-56706202D01*
X192417482Y-56655908D01*
X192417484Y-56655908D01*
X192361244Y-56649862D01*
X192296693Y-56623124D01*
X192256845Y-56565731D01*
X192250500Y-56526573D01*
X192250500Y-54681081D01*
X192244763Y-54652242D01*
X192244763Y-54652240D01*
X192236991Y-54613168D01*
X192221659Y-54536088D01*
X192167408Y-54405118D01*
X192165765Y-54400524D01*
X192115637Y-54325501D01*
X192082950Y-54276581D01*
X192082947Y-54276578D01*
X191308680Y-53502312D01*
X191275195Y-53440989D01*
X191272891Y-53426083D01*
X191256717Y-53251531D01*
X191202171Y-53059820D01*
X191200759Y-53056984D01*
X191113329Y-52881401D01*
X191113324Y-52881393D01*
X190993207Y-52722333D01*
X190845911Y-52588056D01*
X190845910Y-52588055D01*
X190781375Y-52548096D01*
X190676447Y-52483127D01*
X190676445Y-52483126D01*
X190594379Y-52451334D01*
X190490586Y-52411124D01*
X190490582Y-52411123D01*
X190411639Y-52396366D01*
X190294660Y-52374500D01*
X190095340Y-52374500D01*
X190005254Y-52391339D01*
X189899417Y-52411123D01*
X189899415Y-52411123D01*
X189899414Y-52411124D01*
X189847587Y-52431202D01*
X189713554Y-52483126D01*
X189713552Y-52483127D01*
X189544088Y-52588056D01*
X189396792Y-52722333D01*
X189276675Y-52881393D01*
X189276670Y-52881401D01*
X189187830Y-53059816D01*
X189133282Y-53251535D01*
X189114892Y-53449999D01*
X156400499Y-53449999D01*
X156400499Y-51877155D01*
X162100000Y-51877155D01*
X162100000Y-53250000D01*
X163250000Y-53250000D01*
X163750000Y-53250000D01*
X164900000Y-53250000D01*
X164900000Y-51877172D01*
X164899999Y-51877155D01*
X164893598Y-51817627D01*
X164893596Y-51817620D01*
X164843354Y-51682913D01*
X164843350Y-51682906D01*
X164757190Y-51567812D01*
X164757187Y-51567809D01*
X164642093Y-51481649D01*
X164642086Y-51481645D01*
X164507379Y-51431403D01*
X164507372Y-51431401D01*
X164447844Y-51425000D01*
X163750000Y-51425000D01*
X163750000Y-53250000D01*
X163250000Y-53250000D01*
X163250000Y-51425000D01*
X162552155Y-51425000D01*
X162492627Y-51431401D01*
X162492620Y-51431403D01*
X162357913Y-51481645D01*
X162357906Y-51481649D01*
X162242812Y-51567809D01*
X162242809Y-51567812D01*
X162156649Y-51682906D01*
X162156645Y-51682913D01*
X162106403Y-51817620D01*
X162106401Y-51817627D01*
X162100000Y-51877155D01*
X156400499Y-51877155D01*
X156400499Y-51877128D01*
X156394091Y-51817517D01*
X156343884Y-51682906D01*
X156343797Y-51682671D01*
X156343793Y-51682664D01*
X156257547Y-51567455D01*
X156257544Y-51567452D01*
X156142335Y-51481206D01*
X156142328Y-51481202D01*
X156007482Y-51430908D01*
X156007483Y-51430908D01*
X155947883Y-51424501D01*
X155947881Y-51424500D01*
X155947873Y-51424500D01*
X155947864Y-51424500D01*
X154052129Y-51424500D01*
X154052123Y-51424501D01*
X153992516Y-51430908D01*
X153857671Y-51481202D01*
X153857664Y-51481206D01*
X153742455Y-51567452D01*
X153742452Y-51567455D01*
X153656206Y-51682664D01*
X153656202Y-51682671D01*
X153605908Y-51817517D01*
X153599501Y-51877116D01*
X153599501Y-51877123D01*
X153599500Y-51877135D01*
X153599500Y-53787769D01*
X153579815Y-53854808D01*
X153563181Y-53875450D01*
X151417050Y-56021580D01*
X151417044Y-56021588D01*
X151367812Y-56095268D01*
X151367813Y-56095269D01*
X151334921Y-56144496D01*
X151334914Y-56144508D01*
X151278342Y-56281086D01*
X151278340Y-56281092D01*
X151249500Y-56426079D01*
X151249500Y-56426082D01*
X151249500Y-59573918D01*
X151249500Y-59573920D01*
X151249499Y-59573920D01*
X151278340Y-59718907D01*
X151278342Y-59718913D01*
X151299561Y-59770140D01*
X151309000Y-59817593D01*
X151309000Y-60141036D01*
X151289315Y-60208075D01*
X151272681Y-60228717D01*
X149971036Y-61530361D01*
X149909713Y-61563846D01*
X149840021Y-61558862D01*
X149784088Y-61516990D01*
X149772873Y-61498980D01*
X149757287Y-61468390D01*
X149757285Y-61468387D01*
X149757284Y-61468385D01*
X149636971Y-61302786D01*
X149605736Y-61271551D01*
X149572251Y-61210228D01*
X149577235Y-61140536D01*
X149619107Y-61084603D01*
X149650080Y-61067689D01*
X149687331Y-61053796D01*
X149802546Y-60967546D01*
X149888796Y-60852331D01*
X149939091Y-60717483D01*
X149945500Y-60657873D01*
X149945499Y-58605861D01*
X149965184Y-58538823D01*
X149981819Y-58518180D01*
X149999999Y-58500000D01*
X150000000Y-58500000D01*
X150000000Y-51124500D01*
X150019685Y-51057461D01*
X150072489Y-51011706D01*
X150124000Y-51000500D01*
X178926623Y-51000500D01*
X178993662Y-51020185D01*
G37*
%TD.AperFunction*%
%TD*%
M02*
