%TF.GenerationSoftware,KiCad,Pcbnew,8.0.8*%
%TF.CreationDate,2025-03-07T20:00:01-05:00*%
%TF.ProjectId,Stardust,53746172-6475-4737-942e-6b696361645f,rev?*%
%TF.SameCoordinates,Original*%
%TF.FileFunction,Copper,L2,Bot*%
%TF.FilePolarity,Positive*%
%FSLAX46Y46*%
G04 Gerber Fmt 4.6, Leading zero omitted, Abs format (unit mm)*
G04 Created by KiCad (PCBNEW 8.0.8) date 2025-03-07 20:00:01*
%MOMM*%
%LPD*%
G01*
G04 APERTURE LIST*
G04 Aperture macros list*
%AMRoundRect*
0 Rectangle with rounded corners*
0 $1 Rounding radius*
0 $2 $3 $4 $5 $6 $7 $8 $9 X,Y pos of 4 corners*
0 Add a 4 corners polygon primitive as box body*
4,1,4,$2,$3,$4,$5,$6,$7,$8,$9,$2,$3,0*
0 Add four circle primitives for the rounded corners*
1,1,$1+$1,$2,$3*
1,1,$1+$1,$4,$5*
1,1,$1+$1,$6,$7*
1,1,$1+$1,$8,$9*
0 Add four rect primitives between the rounded corners*
20,1,$1+$1,$2,$3,$4,$5,0*
20,1,$1+$1,$4,$5,$6,$7,0*
20,1,$1+$1,$6,$7,$8,$9,0*
20,1,$1+$1,$8,$9,$2,$3,0*%
G04 Aperture macros list end*
%TA.AperFunction,ComponentPad*%
%ADD10R,1.700000X1.700000*%
%TD*%
%TA.AperFunction,ComponentPad*%
%ADD11O,1.700000X1.700000*%
%TD*%
%TA.AperFunction,ComponentPad*%
%ADD12R,1.150000X1.150000*%
%TD*%
%TA.AperFunction,ComponentPad*%
%ADD13C,1.150000*%
%TD*%
%TA.AperFunction,ComponentPad*%
%ADD14R,5.385000X5.385000*%
%TD*%
%TA.AperFunction,ComponentPad*%
%ADD15C,4.005000*%
%TD*%
%TA.AperFunction,ComponentPad*%
%ADD16C,4.200000*%
%TD*%
%TA.AperFunction,ComponentPad*%
%ADD17C,1.508000*%
%TD*%
%TA.AperFunction,ComponentPad*%
%ADD18R,1.508000X1.508000*%
%TD*%
%TA.AperFunction,SMDPad,CuDef*%
%ADD19RoundRect,0.250000X-0.350000X-0.450000X0.350000X-0.450000X0.350000X0.450000X-0.350000X0.450000X0*%
%TD*%
%TA.AperFunction,SMDPad,CuDef*%
%ADD20RoundRect,0.250000X0.350000X0.450000X-0.350000X0.450000X-0.350000X-0.450000X0.350000X-0.450000X0*%
%TD*%
%TA.AperFunction,ComponentPad*%
%ADD21R,2.000000X2.000000*%
%TD*%
%TA.AperFunction,ComponentPad*%
%ADD22O,2.000000X1.600000*%
%TD*%
%TA.AperFunction,ComponentPad*%
%ADD23R,1.530000X1.530000*%
%TD*%
%TA.AperFunction,ComponentPad*%
%ADD24C,1.530000*%
%TD*%
%TA.AperFunction,ViaPad*%
%ADD25C,0.600000*%
%TD*%
%TA.AperFunction,ViaPad*%
%ADD26C,0.800000*%
%TD*%
%TA.AperFunction,Conductor*%
%ADD27C,0.381000*%
%TD*%
%TA.AperFunction,Conductor*%
%ADD28C,0.800000*%
%TD*%
%TA.AperFunction,Conductor*%
%ADD29C,0.200000*%
%TD*%
G04 APERTURE END LIST*
D10*
%TO.P,J7,1,Pin_1*%
%TO.N,+5V*%
X135500000Y-88000000D03*
D11*
%TO.P,J7,2,Pin_2*%
%TO.N,Net-(J7-Pin_2)*%
X138040000Y-88000000D03*
%TD*%
D12*
%TO.P,U8,1,1*%
%TO.N,Net-(J1-Pad1)*%
X195275000Y-53450000D03*
D13*
%TO.P,U8,2,2*%
%TO.N,Net-(J3-Pin_1)*%
X190195000Y-53450000D03*
%TD*%
D10*
%TO.P,J3,1,Pin_1*%
%TO.N,Net-(J3-Pin_1)*%
X191460000Y-58000000D03*
D11*
%TO.P,J3,2,Pin_2*%
%TO.N,+12V*%
X194000000Y-58000000D03*
%TD*%
D14*
%TO.P,J1,1*%
%TO.N,Net-(J1-Pad1)*%
X190000000Y-66700000D03*
D15*
%TO.P,J1,2*%
%TO.N,GND*%
X192300000Y-72000000D03*
D16*
%TO.P,J1,3,switch*%
%TO.N,unconnected-(J1-switch-Pad3)*%
X196000000Y-69500000D03*
%TD*%
D17*
%TO.P,U2,16,VM*%
%TO.N,+12V*%
X144890000Y-93300000D03*
%TO.P,U2,15,GND*%
%TO.N,GND*%
X142350000Y-93300000D03*
%TO.P,U2,14,A2*%
%TO.N,/A2_1*%
X139810000Y-93300000D03*
%TO.P,U2,13,A1*%
%TO.N,/A1_1*%
X137270000Y-93300000D03*
%TO.P,U2,12,B1*%
%TO.N,/B1_1*%
X134730000Y-93300000D03*
%TO.P,U2,11,B2*%
%TO.N,/B2_1*%
X132190000Y-93300000D03*
%TO.P,U2,10,VDD*%
%TO.N,+3.3V*%
X129650000Y-93300000D03*
%TO.P,U2,9,GND*%
%TO.N,GND*%
X127110000Y-93300000D03*
%TO.P,U2,8,DIR*%
%TO.N,/DIR1*%
X127110000Y-106000000D03*
%TO.P,U2,7,STEP*%
%TO.N,/STEP1*%
X129650000Y-106000000D03*
%TO.P,U2,6,CLK*%
%TO.N,unconnected-(U2-CLK-Pad6)*%
X132190000Y-106000000D03*
%TO.P,U2,5,PDN*%
%TO.N,unconnected-(U2-PDN-Pad5)*%
X134730000Y-106000000D03*
%TO.P,U2,4,PDN*%
%TO.N,/UART_RX*%
X137270000Y-106000000D03*
%TO.P,U2,3,MS2*%
%TO.N,GND*%
X139810000Y-106000000D03*
%TO.P,U2,2,MS1*%
X142350000Y-106000000D03*
D18*
%TO.P,U2,1,~{EN}*%
%TO.N,/EN*%
X144890000Y-106000000D03*
%TD*%
D19*
%TO.P,R6,1*%
%TO.N,/EN2_B*%
X131250000Y-70250000D03*
%TO.P,R6,2*%
%TO.N,/PUL*%
X133250000Y-70250000D03*
%TD*%
D17*
%TO.P,U3,16,VM*%
%TO.N,+12V*%
X144780000Y-110000000D03*
%TO.P,U3,15,GND*%
%TO.N,GND*%
X142240000Y-110000000D03*
%TO.P,U3,14,A2*%
%TO.N,/A2_2*%
X139700000Y-110000000D03*
%TO.P,U3,13,A1*%
%TO.N,/A1_2*%
X137160000Y-110000000D03*
%TO.P,U3,12,B1*%
%TO.N,/B1_2*%
X134620000Y-110000000D03*
%TO.P,U3,11,B2*%
%TO.N,/B2_2*%
X132080000Y-110000000D03*
%TO.P,U3,10,VDD*%
%TO.N,+3.3V*%
X129540000Y-110000000D03*
%TO.P,U3,9,GND*%
%TO.N,GND*%
X127000000Y-110000000D03*
%TO.P,U3,8,DIR*%
%TO.N,/DIR2*%
X127000000Y-122700000D03*
%TO.P,U3,7,STEP*%
%TO.N,/STEP2*%
X129540000Y-122700000D03*
%TO.P,U3,6,CLK*%
%TO.N,unconnected-(U3-CLK-Pad6)*%
X132080000Y-122700000D03*
%TO.P,U3,5,PDN*%
%TO.N,unconnected-(U3-PDN-Pad5)*%
X134620000Y-122700000D03*
%TO.P,U3,4,PDN*%
%TO.N,/UART_RX*%
X137160000Y-122700000D03*
%TO.P,U3,3,MS2*%
%TO.N,+3.3V*%
X139700000Y-122700000D03*
%TO.P,U3,2,MS1*%
%TO.N,GND*%
X142240000Y-122700000D03*
D18*
%TO.P,U3,1,~{EN}*%
%TO.N,/EN*%
X144780000Y-122700000D03*
%TD*%
D20*
%TO.P,R5,1*%
%TO.N,/EN1_A*%
X142500000Y-66750000D03*
%TO.P,R5,2*%
%TO.N,/PUL*%
X140500000Y-66750000D03*
%TD*%
D10*
%TO.P,J5,1,Pin_1*%
%TO.N,/B2_2*%
X151000000Y-120080000D03*
D11*
%TO.P,J5,2,Pin_2*%
%TO.N,/B1_2*%
X151000000Y-117540000D03*
%TO.P,J5,3,Pin_3*%
%TO.N,/A1_2*%
X151000000Y-115000000D03*
%TO.P,J5,4,Pin_4*%
%TO.N,/A2_2*%
X151000000Y-112460000D03*
%TD*%
D20*
%TO.P,R4,1*%
%TO.N,/EN1_B*%
X142500000Y-70000000D03*
%TO.P,R4,2*%
%TO.N,/PUL*%
X140500000Y-70000000D03*
%TD*%
D19*
%TO.P,R7,1*%
%TO.N,/EN2_A*%
X131250000Y-67000000D03*
%TO.P,R7,2*%
%TO.N,/PUL*%
X133250000Y-67000000D03*
%TD*%
D10*
%TO.P,J6,1,Pin_1*%
%TO.N,GND*%
X153000000Y-67460000D03*
D11*
%TO.P,J6,2,Pin_2*%
%TO.N,/PUL*%
X153000000Y-70000000D03*
%TO.P,J6,3,Pin_3*%
%TO.N,+3.3V*%
X153000000Y-72540000D03*
%TD*%
D10*
%TO.P,J8,1,Pin_1*%
%TO.N,GND*%
X195000000Y-77420000D03*
D11*
%TO.P,J8,2,Pin_2*%
%TO.N,+5V*%
X195000000Y-79960000D03*
%TO.P,J8,3,Pin_3*%
%TO.N,/EN1_B*%
X195000000Y-82500000D03*
%TO.P,J8,4,Pin_4*%
%TO.N,/EN1_A*%
X195000000Y-85040000D03*
%TO.P,J8,5,Pin_5*%
%TO.N,/EN2_B*%
X195000000Y-87580000D03*
%TO.P,J8,6,Pin_6*%
%TO.N,/EN2_A*%
X195000000Y-90120000D03*
%TO.P,J8,7,Pin_7*%
%TO.N,/AUX3*%
X195000000Y-92660000D03*
%TO.P,J8,8,Pin_8*%
%TO.N,/AUX4*%
X195000000Y-95200000D03*
%TO.P,J8,9,Pin_9*%
%TO.N,/TX0*%
X195000000Y-97740000D03*
%TO.P,J8,10,Pin_10*%
%TO.N,/RX0*%
X195000000Y-100280000D03*
%TO.P,J8,11,Pin_11*%
%TO.N,/SCL*%
X195000000Y-102820000D03*
%TO.P,J8,12,Pin_12*%
%TO.N,/SDA*%
X195000000Y-105360000D03*
%TO.P,J8,13,Pin_13*%
%TO.N,/PEC*%
X195000000Y-107900000D03*
%TO.P,J8,14,Pin_14*%
%TO.N,/AUX7*%
X195000000Y-110440000D03*
%TO.P,J8,15,Pin_15*%
%TO.N,+3.3V*%
X195000000Y-112980000D03*
%TO.P,J8,16,Pin_16*%
X195000000Y-115520000D03*
%TO.P,J8,17,Pin_17*%
%TO.N,/LIMIT*%
X195000000Y-118060000D03*
%TO.P,J8,18,Pin_18*%
%TO.N,/AUX8*%
X195000000Y-120600000D03*
%TO.P,J8,19,Pin_19*%
%TO.N,/PPS*%
X195000000Y-123140000D03*
%TD*%
D10*
%TO.P,J10,1,Pin_1*%
%TO.N,+12V*%
X154000000Y-60000000D03*
D11*
%TO.P,J10,2,Pin_2*%
%TO.N,GND*%
X156540000Y-60000000D03*
%TD*%
D10*
%TO.P,J4,1,Pin_1*%
%TO.N,/B2_1*%
X151000000Y-103300000D03*
D11*
%TO.P,J4,2,Pin_2*%
%TO.N,/B1_1*%
X151000000Y-100760000D03*
%TO.P,J4,3,Pin_3*%
%TO.N,/A1_1*%
X151000000Y-98220000D03*
%TO.P,J4,4,Pin_4*%
%TO.N,/A2_1*%
X151000000Y-95680000D03*
%TD*%
D21*
%TO.P,U4,1,~{RST}*%
%TO.N,unconnected-(U4-~{RST}-Pad1)*%
X148445000Y-59610000D03*
D22*
%TO.P,U4,2,A0*%
%TO.N,unconnected-(U4-A0-Pad2)*%
X148445000Y-62150000D03*
%TO.P,U4,3,D0*%
%TO.N,unconnected-(U4-D0-Pad3)*%
X148445000Y-64690000D03*
%TO.P,U4,4,SCK/D5*%
%TO.N,/EN1_A*%
X148445000Y-67230000D03*
%TO.P,U4,5,MISO/D6*%
%TO.N,/EN1_B*%
X148445000Y-69770000D03*
%TO.P,U4,6,MOSI/D7*%
%TO.N,/TX2*%
X148445000Y-72310000D03*
%TO.P,U4,7,CS/D8*%
%TO.N,/RX2*%
X148445000Y-74850000D03*
%TO.P,U4,8,3V3*%
%TO.N,unconnected-(U4-3V3-Pad8)*%
X148445000Y-77390000D03*
%TO.P,U4,9,5V*%
%TO.N,+5V*%
X125585000Y-77390000D03*
%TO.P,U4,10,GND*%
%TO.N,GND*%
X125585000Y-74850000D03*
%TO.P,U4,11,D4*%
%TO.N,unconnected-(U4-D4-Pad11)*%
X125585000Y-72310000D03*
%TO.P,U4,12,D3*%
%TO.N,unconnected-(U4-D3-Pad12)*%
X125585000Y-69770000D03*
%TO.P,U4,13,SDA/D2*%
%TO.N,/EN2_B*%
X125585000Y-67230000D03*
%TO.P,U4,14,SCL/D1*%
%TO.N,/EN2_A*%
X125585000Y-64690000D03*
%TO.P,U4,15,RX*%
%TO.N,unconnected-(U4-RX-Pad15)*%
X125585000Y-62150000D03*
%TO.P,U4,16,TX*%
%TO.N,unconnected-(U4-TX-Pad16)*%
X125585000Y-59610000D03*
%TD*%
D10*
%TO.P,J9,1,Pin_1*%
%TO.N,+5V*%
X162750000Y-60250000D03*
D11*
%TO.P,J9,2,Pin_2*%
%TO.N,GND*%
X165290000Y-60250000D03*
%TD*%
D23*
%TO.P,U1,1,EN*%
%TO.N,unconnected-(U1-EN-Pad1)*%
X182400000Y-76860000D03*
D24*
%TO.P,U1,2,VP*%
%TO.N,/PEC*%
X182400000Y-79400000D03*
%TO.P,U1,3,VN*%
%TO.N,/UART_RX*%
X182400000Y-81940000D03*
%TO.P,U1,4,D34*%
%TO.N,/RA-*%
X182400000Y-84480000D03*
%TO.P,U1,5,D35*%
%TO.N,/RA+*%
X182400000Y-87020000D03*
%TO.P,U1,6,D32*%
%TO.N,/DE-*%
X182400000Y-89560000D03*
%TO.P,U1,7,D33*%
%TO.N,/DE+*%
X182400000Y-92100000D03*
%TO.P,U1,8,D25*%
%TO.N,/AUX8*%
X182400000Y-94640000D03*
%TO.P,U1,9,D26*%
%TO.N,/DIR2*%
X182400000Y-97180000D03*
%TO.P,U1,10,D27*%
%TO.N,/STEP2*%
X182400000Y-99720000D03*
%TO.P,U1,11,D14*%
%TO.N,/AUX3*%
X182400000Y-102260000D03*
%TO.P,U1,12,D12*%
%TO.N,/STA*%
X182400000Y-104800000D03*
%TO.P,U1,13,D13*%
%TO.N,/AUX4*%
X182400000Y-107340000D03*
%TO.P,U1,14,GND*%
%TO.N,GND*%
X182400000Y-109880000D03*
%TO.P,U1,15,VIN*%
%TO.N,+5V*%
X182400000Y-112420000D03*
%TO.P,U1,16,3V3*%
%TO.N,+3.3V*%
X157000000Y-112420000D03*
%TO.P,U1,17,GND*%
%TO.N,GND*%
X157000000Y-109880000D03*
%TO.P,U1,18,D15*%
%TO.N,unconnected-(U1-D15-Pad18)*%
X157000000Y-107340000D03*
%TO.P,U1,19,D2*%
%TO.N,/DIR1*%
X157000000Y-104800000D03*
%TO.P,U1,20,D4*%
%TO.N,/UART_TX*%
X157000000Y-102260000D03*
%TO.P,U1,21,RX2*%
%TO.N,/RX2*%
X157000000Y-99720000D03*
%TO.P,U1,22,TX2*%
%TO.N,/TX2*%
X157000000Y-97180000D03*
%TO.P,U1,23,D5*%
%TO.N,/EN*%
X157000000Y-94640000D03*
%TO.P,U1,24,D18*%
%TO.N,/STEP1*%
X157000000Y-92100000D03*
%TO.P,U1,25,D19*%
%TO.N,unconnected-(U1-D19-Pad25)*%
X157000000Y-89560000D03*
%TO.P,U1,26,D21*%
%TO.N,/SDA*%
X157000000Y-87020000D03*
%TO.P,U1,27,RX0*%
%TO.N,/TX0*%
X157000000Y-84480000D03*
%TO.P,U1,28,TX0*%
%TO.N,/RX0*%
X157000000Y-81940000D03*
%TO.P,U1,29,D22*%
%TO.N,/SCL*%
X157000000Y-79400000D03*
%TO.P,U1,30,D23*%
%TO.N,/AUX7*%
X157000000Y-76860000D03*
%TD*%
D25*
%TO.N,+12V*%
X154000000Y-100000000D03*
X154000000Y-101000000D03*
X154000000Y-105500000D03*
X154250000Y-104500000D03*
%TO.N,GND*%
X150750000Y-73000000D03*
X150750000Y-71000000D03*
X150750000Y-72000000D03*
X158250000Y-123000000D03*
X158250000Y-121000000D03*
X158250000Y-122000000D03*
X162750000Y-121000000D03*
X162750000Y-122000000D03*
X162750000Y-123000000D03*
%TO.N,/DIR2*%
X170000000Y-101750000D03*
%TO.N,/STEP2*%
X161500000Y-113500000D03*
%TO.N,/STA*%
X185000000Y-115250000D03*
%TO.N,/TX0*%
X159750000Y-87000000D03*
%TO.N,/AUX4*%
X188750000Y-108250000D03*
%TO.N,GND*%
X185000000Y-105000000D03*
X180000000Y-108750000D03*
X172500000Y-111000000D03*
D26*
X170500000Y-72000000D03*
D25*
X165250000Y-81500000D03*
X165250000Y-67250000D03*
D26*
X171500000Y-72000000D03*
D25*
X171750000Y-102500000D03*
X161250000Y-95000000D03*
D26*
X170500000Y-67250000D03*
X171500000Y-67250000D03*
D25*
X135345000Y-73845000D03*
X172500000Y-76500000D03*
X188500000Y-124250000D03*
%TO.N,+12V*%
X143500000Y-90750000D03*
X148000000Y-91500000D03*
X147750000Y-110500000D03*
X182250000Y-125250000D03*
X179250000Y-125250000D03*
X171500000Y-125250000D03*
X180750000Y-125250000D03*
X146500000Y-91500000D03*
X147250000Y-91500000D03*
X178000000Y-125250000D03*
X149250000Y-110750000D03*
X173000000Y-125250000D03*
X198750000Y-122000000D03*
X174500000Y-125250000D03*
X198750000Y-119000000D03*
X198750000Y-120000000D03*
X198000000Y-125250000D03*
X144000000Y-90000000D03*
X198750000Y-121000000D03*
X176250000Y-125250000D03*
X142000000Y-90750000D03*
X198750000Y-124000000D03*
X198750000Y-123000000D03*
X148750000Y-91500000D03*
X142750000Y-90750000D03*
%TO.N,/DE+*%
X145250000Y-89250000D03*
X140250000Y-82750000D03*
X143500000Y-87500000D03*
%TO.N,/RA-*%
X132750000Y-81250000D03*
%TO.N,/DE-*%
X137000000Y-82750000D03*
%TO.N,/RA+*%
X144500000Y-82750000D03*
%TO.N,/EN*%
X146750000Y-121750000D03*
X146768008Y-108791492D03*
%TO.N,/EN1_B*%
X150500000Y-69750000D03*
X163250000Y-67500000D03*
%TO.N,/EN2_A*%
X129250000Y-72500000D03*
X129250000Y-67500000D03*
%TO.N,/RX2*%
X152500000Y-79000000D03*
X151000000Y-77500000D03*
%TO.N,/TX2*%
X153065687Y-78434313D03*
X151569361Y-76938011D03*
%TO.N,/RX0*%
X190250000Y-94500000D03*
X162750000Y-89750000D03*
X179250000Y-93250000D03*
%TO.N,/SDA*%
X160000000Y-91250000D03*
%TO.N,/PEC*%
X193000000Y-93000000D03*
%TO.N,/SCL*%
X160750000Y-82500000D03*
X160750000Y-90250000D03*
%TO.N,/TX0*%
X179250000Y-91000000D03*
X163750000Y-89750000D03*
X191500000Y-92750000D03*
X163750000Y-87491500D03*
%TO.N,/AUX4*%
X197000000Y-95200000D03*
%TO.N,/AUX7*%
X190500000Y-110500000D03*
X179750000Y-94750000D03*
X161750000Y-89750000D03*
X161750000Y-82559500D03*
%TO.N,+12V*%
X151750000Y-108771500D03*
X152824152Y-108771500D03*
%TD*%
D27*
%TO.N,+12V*%
X147250000Y-91500000D02*
X146500000Y-91500000D01*
X148000000Y-91500000D02*
X147250000Y-91500000D01*
X148750000Y-91500000D02*
X148000000Y-91500000D01*
X143500000Y-90500000D02*
X144000000Y-90000000D01*
X143500000Y-90750000D02*
X143500000Y-90500000D01*
X142750000Y-90750000D02*
X143500000Y-90750000D01*
X142000000Y-90750000D02*
X142750000Y-90750000D01*
%TO.N,/AUX7*%
X194940000Y-110500000D02*
X195000000Y-110440000D01*
X190500000Y-110500000D02*
X194940000Y-110500000D01*
%TO.N,+12V*%
X154250000Y-104500000D02*
X154250000Y-105250000D01*
X154250000Y-105250000D02*
X154000000Y-105500000D01*
X154000000Y-101000000D02*
X154000000Y-100000000D01*
X154250000Y-101250000D02*
X154000000Y-101000000D01*
X154250000Y-104500000D02*
X154250000Y-101250000D01*
%TO.N,/STEP1*%
X153250000Y-107500000D02*
X151500000Y-107500000D01*
X155000000Y-94100000D02*
X155000000Y-105750000D01*
X155000000Y-105750000D02*
X153250000Y-107500000D01*
X157000000Y-92100000D02*
X155000000Y-94100000D01*
%TO.N,+12V*%
X149250000Y-110750000D02*
X151228500Y-108771500D01*
X151228500Y-108771500D02*
X151750000Y-108771500D01*
X149478500Y-108771500D02*
X147750000Y-110500000D01*
%TO.N,GND*%
X130500000Y-74500000D02*
X134000000Y-74500000D01*
X129750000Y-74500000D02*
X130500000Y-74500000D01*
X129000000Y-74500000D02*
X129750000Y-74500000D01*
X125935000Y-74500000D02*
X129000000Y-74500000D01*
X134000000Y-74500000D02*
X134655000Y-73845000D01*
X134655000Y-73845000D02*
X135345000Y-73845000D01*
X125585000Y-74850000D02*
X125935000Y-74500000D01*
%TO.N,+3.3V*%
X149716500Y-123844500D02*
X157000000Y-116561000D01*
X140844500Y-123844500D02*
X149716500Y-123844500D01*
X139700000Y-122700000D02*
X140844500Y-123844500D01*
X157000000Y-116561000D02*
X157000000Y-112420000D01*
%TO.N,/PEC*%
X185500000Y-82500000D02*
X182400000Y-79400000D01*
X185500000Y-85040000D02*
X185500000Y-82500000D01*
X193000000Y-92540000D02*
X185500000Y-85040000D01*
X193000000Y-93000000D02*
X193000000Y-92540000D01*
%TO.N,/RA-*%
X174500000Y-83250000D02*
X175730000Y-84480000D01*
X152250000Y-83250000D02*
X174500000Y-83250000D01*
X150250000Y-81250000D02*
X152250000Y-83250000D01*
X132750000Y-81250000D02*
X150250000Y-81250000D01*
X175730000Y-84480000D02*
X182400000Y-84480000D01*
%TO.N,/RA+*%
X181819000Y-87601000D02*
X182400000Y-87020000D01*
X176178342Y-85750000D02*
X178029342Y-87601000D01*
X178029342Y-87601000D02*
X181819000Y-87601000D01*
X156250000Y-85750000D02*
X176178342Y-85750000D01*
X151581000Y-83831000D02*
X154331000Y-83831000D01*
X150500000Y-82750000D02*
X151581000Y-83831000D01*
X144500000Y-82750000D02*
X150500000Y-82750000D01*
X154331000Y-83831000D02*
X156250000Y-85750000D01*
%TO.N,/DE-*%
X142500000Y-88250000D02*
X137000000Y-82750000D01*
X180200342Y-88182000D02*
X159318000Y-88182000D01*
X159250000Y-88250000D02*
X142500000Y-88250000D01*
X182400000Y-89560000D02*
X181578342Y-89560000D01*
X181578342Y-89560000D02*
X180200342Y-88182000D01*
X159318000Y-88182000D02*
X159250000Y-88250000D01*
%TO.N,/DE+*%
X180178171Y-89178171D02*
X180178171Y-90699829D01*
X180178171Y-90699829D02*
X181578342Y-92100000D01*
X159250000Y-90750000D02*
X161237000Y-88763000D01*
X179763000Y-88763000D02*
X180178171Y-89178171D01*
X159215500Y-90715500D02*
X159250000Y-90750000D01*
X146715500Y-90715500D02*
X159215500Y-90715500D01*
X145250000Y-89250000D02*
X146715500Y-90715500D01*
X161237000Y-88763000D02*
X179763000Y-88763000D01*
X181578342Y-92100000D02*
X182400000Y-92100000D01*
%TO.N,/DIR2*%
X161000000Y-115375000D02*
X161000000Y-122000000D01*
X170000000Y-106375000D02*
X161000000Y-115375000D01*
X170000000Y-101750000D02*
X170000000Y-106375000D01*
%TO.N,/STEP2*%
X158331000Y-124919000D02*
X131759000Y-124919000D01*
X131759000Y-124919000D02*
X129540000Y-122700000D01*
X159750000Y-123500000D02*
X158331000Y-124919000D01*
X159750000Y-116750000D02*
X159750000Y-123500000D01*
X159750000Y-115250000D02*
X159750000Y-116750000D01*
X161500000Y-113500000D02*
X159750000Y-115250000D01*
%TO.N,/STA*%
X185000000Y-107400000D02*
X185000000Y-115250000D01*
X182400000Y-104800000D02*
X185000000Y-107400000D01*
%TO.N,/AUX3*%
X188010000Y-102260000D02*
X182400000Y-102260000D01*
X195649500Y-106600500D02*
X192350500Y-106600500D01*
X192350500Y-106600500D02*
X188010000Y-102260000D01*
X196240500Y-93900500D02*
X196240500Y-106009500D01*
X196240500Y-106009500D02*
X195649500Y-106600500D01*
X195000000Y-92660000D02*
X196240500Y-93900500D01*
%TO.N,/DIR2*%
X161000000Y-123500000D02*
X161000000Y-122000000D01*
X159000000Y-125500000D02*
X161000000Y-123500000D01*
X129800000Y-125500000D02*
X159000000Y-125500000D01*
X127000000Y-122700000D02*
X129800000Y-125500000D01*
%TO.N,/DIR1*%
X129191000Y-108081000D02*
X153719000Y-108081000D01*
X127110000Y-106000000D02*
X129191000Y-108081000D01*
X153719000Y-108081000D02*
X157000000Y-104800000D01*
%TO.N,/EN*%
X146750000Y-108809500D02*
X146750000Y-121750000D01*
X146768008Y-108791492D02*
X146750000Y-108809500D01*
%TO.N,/STEP1*%
X131150000Y-107500000D02*
X129650000Y-106000000D01*
X151500000Y-107500000D02*
X131150000Y-107500000D01*
%TO.N,/TX0*%
X163258500Y-87000000D02*
X159750000Y-87000000D01*
X163278500Y-87020000D02*
X163258500Y-87000000D01*
%TO.N,/SCL*%
X160750000Y-82000000D02*
X158150000Y-79400000D01*
X158150000Y-79400000D02*
X157000000Y-79400000D01*
X160750000Y-82500000D02*
X160750000Y-82000000D01*
%TO.N,/AUX7*%
X161750000Y-81610000D02*
X157000000Y-76860000D01*
X161750000Y-82559500D02*
X161750000Y-81610000D01*
%TO.N,/AUX4*%
X189640500Y-109140500D02*
X188750000Y-108250000D01*
X195513832Y-109140500D02*
X189640500Y-109140500D01*
%TO.N,+12V*%
X145000000Y-90000000D02*
X146500000Y-91500000D01*
X198750000Y-120000000D02*
X198750000Y-119000000D01*
D28*
X171500000Y-125250000D02*
X198000000Y-125250000D01*
D27*
X198750000Y-121000000D02*
X198750000Y-120000000D01*
X198750000Y-123000000D02*
X198750000Y-122000000D01*
X198750000Y-122000000D02*
X198750000Y-121000000D01*
X198750000Y-124500000D02*
X198750000Y-124000000D01*
X144000000Y-90000000D02*
X145000000Y-90000000D01*
X198000000Y-125250000D02*
X198750000Y-124500000D01*
X198750000Y-124000000D02*
X198750000Y-123000000D01*
%TO.N,/DE+*%
X140250000Y-82750000D02*
X140250000Y-84250000D01*
X140250000Y-84250000D02*
X143500000Y-87500000D01*
%TO.N,/PUL*%
X133250000Y-67000000D02*
X140250000Y-67000000D01*
X140250000Y-67000000D02*
X140500000Y-66750000D01*
X142000000Y-68500000D02*
X151500000Y-68500000D01*
X140500000Y-70000000D02*
X133500000Y-70000000D01*
X151500000Y-68500000D02*
X153000000Y-70000000D01*
X133500000Y-70000000D02*
X133250000Y-70250000D01*
X133250000Y-67000000D02*
X133250000Y-70250000D01*
X140500000Y-70000000D02*
X142000000Y-68500000D01*
%TO.N,/EN1_B*%
X176500000Y-72250000D02*
X173000000Y-68750000D01*
X148445000Y-69770000D02*
X150480000Y-69770000D01*
X150480000Y-69770000D02*
X150500000Y-69750000D01*
X163250000Y-67750000D02*
X164250000Y-68750000D01*
X163250000Y-67500000D02*
X163250000Y-67750000D01*
X148215000Y-70000000D02*
X148445000Y-69770000D01*
X173000000Y-68750000D02*
X164250000Y-68750000D01*
X142500000Y-70000000D02*
X148215000Y-70000000D01*
X195000000Y-82500000D02*
X184750000Y-72250000D01*
X176500000Y-72250000D02*
X184750000Y-72250000D01*
%TO.N,/EN1_A*%
X148445000Y-67230000D02*
X148520000Y-67230000D01*
X158678342Y-65000000D02*
X163009342Y-69331000D01*
X191839171Y-80160829D02*
X191839171Y-81879171D01*
X150750000Y-65000000D02*
X158678342Y-65000000D01*
X191839171Y-81879171D02*
X195000000Y-85040000D01*
X172759342Y-69331000D02*
X176259342Y-72831000D01*
X148520000Y-67230000D02*
X150750000Y-65000000D01*
X163009342Y-69331000D02*
X172759342Y-69331000D01*
X142500000Y-66750000D02*
X147965000Y-66750000D01*
X176259342Y-72831000D02*
X184509342Y-72831000D01*
X184509342Y-72831000D02*
X191839171Y-80160829D01*
X147965000Y-66750000D02*
X148445000Y-67230000D01*
%TO.N,/EN2_B*%
X133000000Y-72000000D02*
X131250000Y-70250000D01*
X159838000Y-69912000D02*
X154750000Y-75000000D01*
X184303342Y-73446658D02*
X176053342Y-73446658D01*
X154750000Y-75000000D02*
X154750000Y-77726515D01*
X143000000Y-72000000D02*
X133000000Y-72000000D01*
X195000000Y-87580000D02*
X191258171Y-83838171D01*
X176053342Y-73446658D02*
X172518684Y-69912000D01*
X191258171Y-83838171D02*
X191258171Y-80401487D01*
X143750000Y-72750000D02*
X143000000Y-72000000D01*
X172518684Y-69912000D02*
X159838000Y-69912000D01*
X152726515Y-79750000D02*
X148921379Y-79750000D01*
X191258171Y-80401487D02*
X184303342Y-73446658D01*
X128605000Y-70250000D02*
X125585000Y-67230000D01*
X143750000Y-74578621D02*
X143750000Y-72750000D01*
X131250000Y-70250000D02*
X128605000Y-70250000D01*
X154750000Y-77726515D02*
X152726515Y-79750000D01*
X148921379Y-79750000D02*
X143750000Y-74578621D01*
%TO.N,/EN2_A*%
X179000000Y-74027658D02*
X178972342Y-74027658D01*
X177750000Y-75250000D02*
X175250000Y-75250000D01*
X130750000Y-67500000D02*
X131250000Y-67000000D01*
X184062684Y-74027658D02*
X179000000Y-74027658D01*
X172278026Y-70493000D02*
X171250000Y-70493000D01*
X148680721Y-80331000D02*
X143169000Y-74819279D01*
X131250000Y-67000000D02*
X128940000Y-64690000D01*
X174000000Y-74000000D02*
X174000000Y-72214974D01*
X195000000Y-90120000D02*
X190677171Y-85797171D01*
X175250000Y-75250000D02*
X174000000Y-74000000D01*
X143169000Y-73750000D02*
X142000000Y-72581000D01*
X161250000Y-70500000D02*
X171243000Y-70500000D01*
X129250000Y-67500000D02*
X130750000Y-67500000D01*
X174000000Y-72214974D02*
X172278026Y-70493000D01*
X184062684Y-74027658D02*
X190677171Y-80642145D01*
X190677171Y-85797171D02*
X190677171Y-80642145D01*
X155331000Y-77967173D02*
X152967173Y-80331000D01*
X171250000Y-70493000D02*
X171243000Y-70500000D01*
X178972342Y-74027658D02*
X177750000Y-75250000D01*
X129331000Y-72581000D02*
X129250000Y-72500000D01*
X143169000Y-74819279D02*
X143169000Y-73750000D01*
X155331000Y-76419000D02*
X155331000Y-77967173D01*
X129331000Y-72581000D02*
X142000000Y-72581000D01*
X148680721Y-80331000D02*
X152967173Y-80331000D01*
X161250000Y-70500000D02*
X155331000Y-76419000D01*
X128940000Y-64690000D02*
X125585000Y-64690000D01*
%TO.N,/RX2*%
X152500000Y-79000000D02*
X151000000Y-77500000D01*
%TO.N,/TX2*%
X153065663Y-78434313D02*
X151569361Y-76938011D01*
X153065687Y-78434313D02*
X153065663Y-78434313D01*
D29*
%TO.N,/DIR1*%
X127110000Y-106000000D02*
X129010000Y-107900000D01*
D27*
%TO.N,/RX0*%
X190500000Y-94750000D02*
X190500000Y-97500000D01*
X193500000Y-100250000D02*
X193530000Y-100280000D01*
X193250000Y-100250000D02*
X193500000Y-100250000D01*
X190250000Y-94500000D02*
X190500000Y-94750000D01*
X193530000Y-100280000D02*
X195000000Y-100280000D01*
X190500000Y-97500000D02*
X193250000Y-100250000D01*
X166250000Y-93250000D02*
X179250000Y-93250000D01*
X162750000Y-89750000D02*
X166250000Y-93250000D01*
%TO.N,/SDA*%
X190515500Y-100875500D02*
X195000000Y-105360000D01*
X160000000Y-91250000D02*
X169625500Y-100875500D01*
X169625500Y-100875500D02*
X190515500Y-100875500D01*
%TO.N,/SCL*%
X179000000Y-96000000D02*
X181564500Y-98564500D01*
X166500000Y-96000000D02*
X179000000Y-96000000D01*
X190064500Y-98564500D02*
X194320000Y-102820000D01*
X160750000Y-90250000D02*
X166500000Y-96000000D01*
X181564500Y-98564500D02*
X190064500Y-98564500D01*
X194320000Y-102820000D02*
X195000000Y-102820000D01*
%TO.N,/TX0*%
X178000000Y-89750000D02*
X179250000Y-91000000D01*
X193250000Y-97750000D02*
X193500000Y-97750000D01*
X191750000Y-96250000D02*
X193250000Y-97750000D01*
X193510000Y-97740000D02*
X195000000Y-97740000D01*
X191750000Y-93000000D02*
X191750000Y-96250000D01*
X193500000Y-97750000D02*
X193510000Y-97740000D01*
X163278500Y-87020000D02*
X163750000Y-87491500D01*
X163750000Y-89750000D02*
X178000000Y-89750000D01*
X191500000Y-92750000D02*
X191750000Y-93000000D01*
%TO.N,/AUX4*%
X197000000Y-95200000D02*
X197000000Y-107654332D01*
X197000000Y-107654332D02*
X195513832Y-109140500D01*
%TO.N,/AUX7*%
X166750000Y-94750000D02*
X179750000Y-94750000D01*
X161750000Y-89750000D02*
X166750000Y-94750000D01*
%TO.N,+12V*%
X152824152Y-108771500D02*
X149478500Y-108771500D01*
%TD*%
%TA.AperFunction,Conductor*%
%TO.N,GND*%
G36*
X127229042Y-69871529D02*
G01*
X127280093Y-69902314D01*
X128164510Y-70786732D01*
X128164518Y-70786738D01*
X128263382Y-70852797D01*
X128263385Y-70852799D01*
X128277679Y-70862350D01*
X128277685Y-70862353D01*
X128277689Y-70862356D01*
X128277691Y-70862357D01*
X128277695Y-70862359D01*
X128403438Y-70914443D01*
X128403443Y-70914445D01*
X128403447Y-70914445D01*
X128403448Y-70914446D01*
X128536939Y-70941000D01*
X128536942Y-70941000D01*
X128536943Y-70941000D01*
X128673057Y-70941000D01*
X130099688Y-70941000D01*
X130166727Y-70960685D01*
X130211951Y-71012876D01*
X130212136Y-71012791D01*
X130212437Y-71013437D01*
X130212482Y-71013489D01*
X130212591Y-71013768D01*
X130215187Y-71019336D01*
X130231209Y-71045311D01*
X130307288Y-71168656D01*
X130431344Y-71292712D01*
X130580666Y-71384814D01*
X130747203Y-71439999D01*
X130849991Y-71450500D01*
X131421915Y-71450499D01*
X131488954Y-71470183D01*
X131509596Y-71486818D01*
X131691377Y-71668599D01*
X131701098Y-71678319D01*
X131734583Y-71739642D01*
X131729599Y-71809333D01*
X131687728Y-71865267D01*
X131622263Y-71889684D01*
X131613417Y-71890000D01*
X129819523Y-71890000D01*
X129753551Y-71870994D01*
X129599523Y-71774211D01*
X129429254Y-71714631D01*
X129429249Y-71714630D01*
X129250004Y-71694435D01*
X129249996Y-71694435D01*
X129070750Y-71714630D01*
X129070745Y-71714631D01*
X128900476Y-71774211D01*
X128747737Y-71870184D01*
X128620184Y-71997737D01*
X128524211Y-72150476D01*
X128464631Y-72320745D01*
X128464630Y-72320750D01*
X128444435Y-72499996D01*
X128444435Y-72500003D01*
X128464630Y-72679249D01*
X128464631Y-72679254D01*
X128524211Y-72849523D01*
X128570414Y-72923054D01*
X128620184Y-73002262D01*
X128747738Y-73129816D01*
X128766801Y-73141794D01*
X128887817Y-73217834D01*
X128900478Y-73225789D01*
X129036025Y-73273219D01*
X129070745Y-73285368D01*
X129070750Y-73285369D01*
X129249996Y-73305565D01*
X129250000Y-73305565D01*
X129250004Y-73305565D01*
X129353877Y-73293861D01*
X129429255Y-73285368D01*
X129447574Y-73278958D01*
X129488528Y-73272000D01*
X141662416Y-73272000D01*
X141729455Y-73291685D01*
X141750097Y-73308319D01*
X142441681Y-73999902D01*
X142475166Y-74061225D01*
X142478000Y-74087583D01*
X142478000Y-74887337D01*
X142478000Y-74887339D01*
X142477999Y-74887339D01*
X142504210Y-75019103D01*
X142504553Y-75020830D01*
X142504556Y-75020840D01*
X142556642Y-75146588D01*
X142556644Y-75146591D01*
X142632263Y-75259764D01*
X142632269Y-75259771D01*
X147719819Y-80347319D01*
X147753304Y-80408642D01*
X147748320Y-80478334D01*
X147706448Y-80534267D01*
X147640984Y-80558684D01*
X147632138Y-80559000D01*
X133190613Y-80559000D01*
X133124641Y-80539994D01*
X133099523Y-80524211D01*
X132929254Y-80464631D01*
X132929249Y-80464630D01*
X132750004Y-80444435D01*
X132749996Y-80444435D01*
X132570750Y-80464630D01*
X132570745Y-80464631D01*
X132400476Y-80524211D01*
X132247737Y-80620184D01*
X132120184Y-80747737D01*
X132024211Y-80900476D01*
X131964631Y-81070745D01*
X131964630Y-81070750D01*
X131944435Y-81249996D01*
X131944435Y-81250003D01*
X131964630Y-81429249D01*
X131964631Y-81429254D01*
X132024211Y-81599523D01*
X132099540Y-81719407D01*
X132120184Y-81752262D01*
X132247738Y-81879816D01*
X132337138Y-81935990D01*
X132382721Y-81964632D01*
X132400478Y-81975789D01*
X132531587Y-82021666D01*
X132570745Y-82035368D01*
X132570750Y-82035369D01*
X132749996Y-82055565D01*
X132750000Y-82055565D01*
X132750004Y-82055565D01*
X132929249Y-82035369D01*
X132929252Y-82035368D01*
X132929255Y-82035368D01*
X133099522Y-81975789D01*
X133123560Y-81960685D01*
X133124641Y-81960006D01*
X133190613Y-81941000D01*
X136377560Y-81941000D01*
X136444599Y-81960685D01*
X136490354Y-82013489D01*
X136500298Y-82082647D01*
X136471273Y-82146203D01*
X136465241Y-82152681D01*
X136370184Y-82247737D01*
X136274211Y-82400476D01*
X136214631Y-82570745D01*
X136214630Y-82570750D01*
X136194435Y-82749996D01*
X136194435Y-82750003D01*
X136214630Y-82929249D01*
X136214631Y-82929254D01*
X136274211Y-83099523D01*
X136370184Y-83252262D01*
X136497738Y-83379816D01*
X136497805Y-83379858D01*
X136625359Y-83460006D01*
X136650478Y-83475789D01*
X136774651Y-83519238D01*
X136821377Y-83548599D01*
X142059510Y-88786732D01*
X142059518Y-88786738D01*
X142155483Y-88850860D01*
X142155484Y-88850860D01*
X142172689Y-88862356D01*
X142172691Y-88862356D01*
X142172695Y-88862359D01*
X142275602Y-88904984D01*
X142298443Y-88914445D01*
X142298447Y-88914445D01*
X142298448Y-88914446D01*
X142431939Y-88941000D01*
X142431942Y-88941000D01*
X142431943Y-88941000D01*
X142568057Y-88941000D01*
X144340494Y-88941000D01*
X144407533Y-88960685D01*
X144453288Y-89013489D01*
X144463714Y-89078883D01*
X144455619Y-89150729D01*
X144428553Y-89215143D01*
X144370958Y-89254699D01*
X144301121Y-89256836D01*
X144291445Y-89253888D01*
X144179257Y-89214632D01*
X144179249Y-89214630D01*
X144000004Y-89194435D01*
X143999996Y-89194435D01*
X143820750Y-89214630D01*
X143820745Y-89214631D01*
X143650476Y-89274211D01*
X143497737Y-89370184D01*
X143370184Y-89497737D01*
X143274212Y-89650475D01*
X143274210Y-89650479D01*
X143230760Y-89774651D01*
X143201400Y-89821378D01*
X143079828Y-89942949D01*
X143018505Y-89976433D01*
X142951194Y-89972309D01*
X142929255Y-89964632D01*
X142929253Y-89964631D01*
X142929251Y-89964631D01*
X142929246Y-89964630D01*
X142750004Y-89944435D01*
X142749996Y-89944435D01*
X142570750Y-89964630D01*
X142570742Y-89964632D01*
X142415954Y-90018795D01*
X142346176Y-90022356D01*
X142334046Y-90018795D01*
X142179257Y-89964632D01*
X142179249Y-89964630D01*
X142000004Y-89944435D01*
X141999996Y-89944435D01*
X141820750Y-89964630D01*
X141820745Y-89964631D01*
X141650476Y-90024211D01*
X141497737Y-90120184D01*
X141370184Y-90247737D01*
X141274211Y-90400476D01*
X141214631Y-90570745D01*
X141214630Y-90570750D01*
X141194435Y-90749996D01*
X141194435Y-90750003D01*
X141214630Y-90929249D01*
X141214631Y-90929254D01*
X141274211Y-91099523D01*
X141311265Y-91158493D01*
X141370184Y-91252262D01*
X141497738Y-91379816D01*
X141552848Y-91414444D01*
X141648991Y-91474855D01*
X141650478Y-91475789D01*
X141767158Y-91516617D01*
X141820745Y-91535368D01*
X141820750Y-91535369D01*
X141999996Y-91555565D01*
X142000000Y-91555565D01*
X142000004Y-91555565D01*
X142179249Y-91535369D01*
X142179251Y-91535368D01*
X142179255Y-91535368D01*
X142179258Y-91535366D01*
X142179262Y-91535366D01*
X142334045Y-91481205D01*
X142403824Y-91477643D01*
X142415955Y-91481205D01*
X142570737Y-91535366D01*
X142570743Y-91535367D01*
X142570745Y-91535368D01*
X142570746Y-91535368D01*
X142570750Y-91535369D01*
X142749996Y-91555565D01*
X142750000Y-91555565D01*
X142750004Y-91555565D01*
X142929249Y-91535369D01*
X142929251Y-91535368D01*
X142929255Y-91535368D01*
X142929258Y-91535366D01*
X142929262Y-91535366D01*
X143084045Y-91481205D01*
X143153824Y-91477643D01*
X143165955Y-91481205D01*
X143320737Y-91535366D01*
X143320743Y-91535367D01*
X143320745Y-91535368D01*
X143320746Y-91535368D01*
X143320750Y-91535369D01*
X143499996Y-91555565D01*
X143500000Y-91555565D01*
X143500004Y-91555565D01*
X143679249Y-91535369D01*
X143679252Y-91535368D01*
X143679255Y-91535368D01*
X143849522Y-91475789D01*
X144002262Y-91379816D01*
X144129816Y-91252262D01*
X144225789Y-91099522D01*
X144285368Y-90929255D01*
X144298465Y-90813008D01*
X144325531Y-90748596D01*
X144355714Y-90721897D01*
X144373560Y-90710685D01*
X144374646Y-90710003D01*
X144440613Y-90691000D01*
X144662416Y-90691000D01*
X144729455Y-90710685D01*
X144750097Y-90727319D01*
X145701400Y-91678622D01*
X145730760Y-91725348D01*
X145774210Y-91849520D01*
X145774211Y-91849522D01*
X145870184Y-92002262D01*
X145997738Y-92129816D01*
X146042515Y-92157951D01*
X146125117Y-92209854D01*
X146150478Y-92225789D01*
X146213202Y-92247737D01*
X146320745Y-92285368D01*
X146320750Y-92285369D01*
X146499996Y-92305565D01*
X146500000Y-92305565D01*
X146500004Y-92305565D01*
X146679249Y-92285369D01*
X146679251Y-92285368D01*
X146679255Y-92285368D01*
X146679258Y-92285366D01*
X146679262Y-92285366D01*
X146834045Y-92231205D01*
X146903824Y-92227643D01*
X146915955Y-92231205D01*
X147070737Y-92285366D01*
X147070743Y-92285367D01*
X147070745Y-92285368D01*
X147070746Y-92285368D01*
X147070750Y-92285369D01*
X147249996Y-92305565D01*
X147250000Y-92305565D01*
X147250004Y-92305565D01*
X147429249Y-92285369D01*
X147429251Y-92285368D01*
X147429255Y-92285368D01*
X147429258Y-92285366D01*
X147429262Y-92285366D01*
X147584045Y-92231205D01*
X147653824Y-92227643D01*
X147665955Y-92231205D01*
X147820737Y-92285366D01*
X147820743Y-92285367D01*
X147820745Y-92285368D01*
X147820746Y-92285368D01*
X147820750Y-92285369D01*
X147999996Y-92305565D01*
X148000000Y-92305565D01*
X148000004Y-92305565D01*
X148179249Y-92285369D01*
X148179251Y-92285368D01*
X148179255Y-92285368D01*
X148179258Y-92285366D01*
X148179262Y-92285366D01*
X148334045Y-92231205D01*
X148403824Y-92227643D01*
X148415955Y-92231205D01*
X148570737Y-92285366D01*
X148570743Y-92285367D01*
X148570745Y-92285368D01*
X148570746Y-92285368D01*
X148570750Y-92285369D01*
X148749996Y-92305565D01*
X148750000Y-92305565D01*
X148750004Y-92305565D01*
X148929249Y-92285369D01*
X148929252Y-92285368D01*
X148929255Y-92285368D01*
X149099522Y-92225789D01*
X149252262Y-92129816D01*
X149379816Y-92002262D01*
X149475789Y-91849522D01*
X149535368Y-91679255D01*
X149535440Y-91678622D01*
X149553693Y-91516617D01*
X149580759Y-91452203D01*
X149638354Y-91412648D01*
X149676913Y-91406500D01*
X155732419Y-91406500D01*
X155799458Y-91426185D01*
X155845213Y-91478989D01*
X155855157Y-91548147D01*
X155844801Y-91582904D01*
X155806279Y-91665513D01*
X155806275Y-91665524D01*
X155748965Y-91879407D01*
X155748964Y-91879414D01*
X155729666Y-92099998D01*
X155729666Y-92100002D01*
X155748207Y-92311928D01*
X155734440Y-92380428D01*
X155712360Y-92410416D01*
X154463268Y-93659508D01*
X154439931Y-93694435D01*
X154418982Y-93725789D01*
X154401294Y-93752261D01*
X154387641Y-93772693D01*
X154335556Y-93898438D01*
X154335553Y-93898448D01*
X154309000Y-94031939D01*
X154309000Y-99090494D01*
X154289315Y-99157533D01*
X154236511Y-99203288D01*
X154171117Y-99213714D01*
X154000004Y-99194435D01*
X153999996Y-99194435D01*
X153820750Y-99214630D01*
X153820745Y-99214631D01*
X153650476Y-99274211D01*
X153497737Y-99370184D01*
X153370184Y-99497737D01*
X153274211Y-99650476D01*
X153214631Y-99820745D01*
X153214630Y-99820750D01*
X153194435Y-99999996D01*
X153194435Y-100000003D01*
X153214630Y-100179249D01*
X153214631Y-100179254D01*
X153274211Y-100349524D01*
X153289993Y-100374639D01*
X153309000Y-100440612D01*
X153309000Y-100559387D01*
X153289995Y-100625357D01*
X153274209Y-100650480D01*
X153214633Y-100820737D01*
X153214630Y-100820750D01*
X153194435Y-100999996D01*
X153194435Y-101000003D01*
X153214630Y-101179249D01*
X153214631Y-101179254D01*
X153274211Y-101349523D01*
X153329701Y-101437834D01*
X153370184Y-101502262D01*
X153497738Y-101629816D01*
X153500968Y-101631845D01*
X153502609Y-101633700D01*
X153503184Y-101634159D01*
X153503103Y-101634259D01*
X153547260Y-101684175D01*
X153559000Y-101736841D01*
X153559000Y-104059387D01*
X153539995Y-104125357D01*
X153524209Y-104150480D01*
X153464633Y-104320737D01*
X153464630Y-104320750D01*
X153444435Y-104499996D01*
X153444435Y-104500003D01*
X153464630Y-104679249D01*
X153464633Y-104679262D01*
X153496970Y-104771674D01*
X153500532Y-104841453D01*
X153467611Y-104900309D01*
X153370185Y-104997736D01*
X153370184Y-104997737D01*
X153274211Y-105150476D01*
X153214631Y-105320745D01*
X153214630Y-105320750D01*
X153194435Y-105499996D01*
X153194435Y-105500003D01*
X153214630Y-105679249D01*
X153214631Y-105679254D01*
X153274211Y-105849523D01*
X153370184Y-106002262D01*
X153482669Y-106114747D01*
X153516154Y-106176070D01*
X153511170Y-106245762D01*
X153482669Y-106290109D01*
X153000097Y-106772681D01*
X152938774Y-106806166D01*
X152912416Y-106809000D01*
X146268500Y-106809000D01*
X146201461Y-106789315D01*
X146155706Y-106736511D01*
X146144500Y-106685000D01*
X146144499Y-105198129D01*
X146144498Y-105198123D01*
X146144497Y-105198116D01*
X146138091Y-105138517D01*
X146132897Y-105124592D01*
X146087797Y-105003671D01*
X146087793Y-105003664D01*
X146001547Y-104888455D01*
X146001544Y-104888452D01*
X145886335Y-104802206D01*
X145886328Y-104802202D01*
X145751482Y-104751908D01*
X145751483Y-104751908D01*
X145691883Y-104745501D01*
X145691881Y-104745500D01*
X145691873Y-104745500D01*
X145691864Y-104745500D01*
X144088129Y-104745500D01*
X144088123Y-104745501D01*
X144028516Y-104751908D01*
X143893671Y-104802202D01*
X143893664Y-104802206D01*
X143778455Y-104888452D01*
X143778452Y-104888455D01*
X143692206Y-105003664D01*
X143692202Y-105003671D01*
X143641908Y-105138517D01*
X143636315Y-105190543D01*
X143635501Y-105198123D01*
X143635500Y-105198135D01*
X143635500Y-105256324D01*
X143615815Y-105323363D01*
X143563011Y-105369118D01*
X143493853Y-105379062D01*
X143430297Y-105350037D01*
X143409926Y-105327449D01*
X143395996Y-105307555D01*
X142832962Y-105870589D01*
X142815925Y-105807007D01*
X142750099Y-105692993D01*
X142657007Y-105599901D01*
X142542993Y-105534075D01*
X142479409Y-105517037D01*
X143042443Y-104954003D01*
X142979392Y-104909854D01*
X142780533Y-104817125D01*
X142780524Y-104817121D01*
X142568592Y-104760335D01*
X142568582Y-104760333D01*
X142350001Y-104741210D01*
X142349999Y-104741210D01*
X142131417Y-104760333D01*
X142131407Y-104760335D01*
X141919475Y-104817121D01*
X141919466Y-104817124D01*
X141720606Y-104909855D01*
X141720604Y-104909856D01*
X141657556Y-104954003D01*
X141657555Y-104954003D01*
X142220590Y-105517037D01*
X142157007Y-105534075D01*
X142042993Y-105599901D01*
X141949901Y-105692993D01*
X141884075Y-105807007D01*
X141867037Y-105870590D01*
X141304003Y-105307555D01*
X141304003Y-105307556D01*
X141259856Y-105370604D01*
X141259855Y-105370606D01*
X141192382Y-105515302D01*
X141146209Y-105567741D01*
X141079016Y-105586893D01*
X141012135Y-105566677D01*
X140967618Y-105515302D01*
X140900144Y-105370605D01*
X140900142Y-105370601D01*
X140855996Y-105307555D01*
X140292962Y-105870589D01*
X140275925Y-105807007D01*
X140210099Y-105692993D01*
X140117007Y-105599901D01*
X140002993Y-105534075D01*
X139939409Y-105517037D01*
X140502443Y-104954003D01*
X140439392Y-104909854D01*
X140240533Y-104817125D01*
X140240524Y-104817121D01*
X140028592Y-104760335D01*
X140028582Y-104760333D01*
X139810001Y-104741210D01*
X139809999Y-104741210D01*
X139591417Y-104760333D01*
X139591407Y-104760335D01*
X139379475Y-104817121D01*
X139379466Y-104817124D01*
X139180606Y-104909855D01*
X139180604Y-104909856D01*
X139117556Y-104954003D01*
X139117555Y-104954003D01*
X139680590Y-105517037D01*
X139617007Y-105534075D01*
X139502993Y-105599901D01*
X139409901Y-105692993D01*
X139344075Y-105807007D01*
X139327037Y-105870590D01*
X138764003Y-105307555D01*
X138764003Y-105307556D01*
X138719857Y-105370603D01*
X138652657Y-105514712D01*
X138606484Y-105567151D01*
X138539290Y-105586302D01*
X138472409Y-105566086D01*
X138427893Y-105514710D01*
X138408682Y-105473513D01*
X138360579Y-105370354D01*
X138360577Y-105370351D01*
X138360576Y-105370349D01*
X138234677Y-105190547D01*
X138234672Y-105190541D01*
X138079458Y-105035327D01*
X138079452Y-105035322D01*
X137899650Y-104909423D01*
X137899642Y-104909419D01*
X137700708Y-104816655D01*
X137700706Y-104816654D01*
X137700703Y-104816653D01*
X137532842Y-104771674D01*
X137488675Y-104759839D01*
X137488668Y-104759838D01*
X137270002Y-104740708D01*
X137269998Y-104740708D01*
X137051331Y-104759838D01*
X137051324Y-104759839D01*
X136928902Y-104792642D01*
X136839297Y-104816653D01*
X136839295Y-104816653D01*
X136839291Y-104816655D01*
X136640357Y-104909419D01*
X136640349Y-104909423D01*
X136460547Y-105035322D01*
X136460541Y-105035327D01*
X136305327Y-105190541D01*
X136305322Y-105190547D01*
X136179423Y-105370349D01*
X136179419Y-105370357D01*
X136112382Y-105514120D01*
X136066210Y-105566560D01*
X135999017Y-105585712D01*
X135932135Y-105565496D01*
X135887618Y-105514120D01*
X135860032Y-105454963D01*
X135820579Y-105370354D01*
X135820577Y-105370351D01*
X135820576Y-105370349D01*
X135694677Y-105190547D01*
X135694672Y-105190541D01*
X135539458Y-105035327D01*
X135539452Y-105035322D01*
X135359650Y-104909423D01*
X135359642Y-104909419D01*
X135160708Y-104816655D01*
X135160706Y-104816654D01*
X135160703Y-104816653D01*
X134992842Y-104771674D01*
X134948675Y-104759839D01*
X134948668Y-104759838D01*
X134730002Y-104740708D01*
X134729998Y-104740708D01*
X134511331Y-104759838D01*
X134511324Y-104759839D01*
X134388902Y-104792642D01*
X134299297Y-104816653D01*
X134299295Y-104816653D01*
X134299291Y-104816655D01*
X134100357Y-104909419D01*
X134100349Y-104909423D01*
X133920547Y-105035322D01*
X133920541Y-105035327D01*
X133765327Y-105190541D01*
X133765322Y-105190547D01*
X133639423Y-105370349D01*
X133639419Y-105370357D01*
X133572382Y-105514120D01*
X133526210Y-105566560D01*
X133459017Y-105585712D01*
X133392135Y-105565496D01*
X133347618Y-105514120D01*
X133320032Y-105454963D01*
X133280579Y-105370354D01*
X133280577Y-105370351D01*
X133280576Y-105370349D01*
X133154677Y-105190547D01*
X133154672Y-105190541D01*
X132999458Y-105035327D01*
X132999452Y-105035322D01*
X132819650Y-104909423D01*
X132819642Y-104909419D01*
X132620708Y-104816655D01*
X132620706Y-104816654D01*
X132620703Y-104816653D01*
X132452842Y-104771674D01*
X132408675Y-104759839D01*
X132408668Y-104759838D01*
X132190002Y-104740708D01*
X132189998Y-104740708D01*
X131971331Y-104759838D01*
X131971324Y-104759839D01*
X131848902Y-104792642D01*
X131759297Y-104816653D01*
X131759295Y-104816653D01*
X131759291Y-104816655D01*
X131560357Y-104909419D01*
X131560349Y-104909423D01*
X131380547Y-105035322D01*
X131380541Y-105035327D01*
X131225327Y-105190541D01*
X131225322Y-105190547D01*
X131099423Y-105370349D01*
X131099419Y-105370357D01*
X131032382Y-105514120D01*
X130986210Y-105566560D01*
X130919017Y-105585712D01*
X130852135Y-105565496D01*
X130807618Y-105514120D01*
X130780032Y-105454963D01*
X130740579Y-105370354D01*
X130740577Y-105370351D01*
X130740576Y-105370349D01*
X130614677Y-105190547D01*
X130614672Y-105190541D01*
X130459458Y-105035327D01*
X130459452Y-105035322D01*
X130279650Y-104909423D01*
X130279642Y-104909419D01*
X130080708Y-104816655D01*
X130080706Y-104816654D01*
X130080703Y-104816653D01*
X129912842Y-104771674D01*
X129868675Y-104759839D01*
X129868668Y-104759838D01*
X129650002Y-104740708D01*
X129649998Y-104740708D01*
X129431331Y-104759838D01*
X129431324Y-104759839D01*
X129308902Y-104792642D01*
X129219297Y-104816653D01*
X129219295Y-104816653D01*
X129219291Y-104816655D01*
X129020357Y-104909419D01*
X129020349Y-104909423D01*
X128840547Y-105035322D01*
X128840541Y-105035327D01*
X128685327Y-105190541D01*
X128685322Y-105190547D01*
X128559423Y-105370349D01*
X128559419Y-105370357D01*
X128492382Y-105514120D01*
X128446210Y-105566560D01*
X128379017Y-105585712D01*
X128312135Y-105565496D01*
X128267618Y-105514120D01*
X128240032Y-105454963D01*
X128200579Y-105370354D01*
X128200577Y-105370351D01*
X128200576Y-105370349D01*
X128074677Y-105190547D01*
X128074672Y-105190541D01*
X127919458Y-105035327D01*
X127919452Y-105035322D01*
X127739650Y-104909423D01*
X127739642Y-104909419D01*
X127540708Y-104816655D01*
X127540706Y-104816654D01*
X127540703Y-104816653D01*
X127372842Y-104771674D01*
X127328675Y-104759839D01*
X127328668Y-104759838D01*
X127110002Y-104740708D01*
X127109998Y-104740708D01*
X126891331Y-104759838D01*
X126891324Y-104759839D01*
X126768902Y-104792642D01*
X126679297Y-104816653D01*
X126679295Y-104816653D01*
X126679291Y-104816655D01*
X126480357Y-104909419D01*
X126480349Y-104909423D01*
X126300547Y-105035322D01*
X126300541Y-105035327D01*
X126145327Y-105190541D01*
X126145322Y-105190547D01*
X126019423Y-105370349D01*
X126019419Y-105370357D01*
X125926655Y-105569291D01*
X125926653Y-105569295D01*
X125926653Y-105569297D01*
X125919655Y-105595413D01*
X125869839Y-105781324D01*
X125869838Y-105781331D01*
X125850708Y-105999997D01*
X125850708Y-106000000D01*
X125866967Y-106185855D01*
X125869839Y-106218674D01*
X125926653Y-106430703D01*
X125926654Y-106430706D01*
X125926655Y-106430708D01*
X126019419Y-106629642D01*
X126019423Y-106629650D01*
X126145322Y-106809452D01*
X126145327Y-106809458D01*
X126300541Y-106964672D01*
X126300547Y-106964677D01*
X126480349Y-107090576D01*
X126480351Y-107090577D01*
X126480354Y-107090579D01*
X126679297Y-107183347D01*
X126891326Y-107240161D01*
X127047521Y-107253826D01*
X127109998Y-107259292D01*
X127110000Y-107259292D01*
X127110002Y-107259292D01*
X127177885Y-107253352D01*
X127311777Y-107241639D01*
X127380276Y-107255406D01*
X127410264Y-107277486D01*
X128750509Y-108617732D01*
X128750513Y-108617735D01*
X128863681Y-108693352D01*
X128863685Y-108693354D01*
X128863688Y-108693356D01*
X128878072Y-108699314D01*
X128932474Y-108743154D01*
X128954540Y-108809448D01*
X128937261Y-108877147D01*
X128901743Y-108915450D01*
X128730543Y-109035326D01*
X128730541Y-109035327D01*
X128575327Y-109190541D01*
X128575322Y-109190547D01*
X128449423Y-109370349D01*
X128449421Y-109370353D01*
X128382106Y-109514711D01*
X128335933Y-109567150D01*
X128268740Y-109586302D01*
X128201859Y-109566086D01*
X128157342Y-109514711D01*
X128090144Y-109370605D01*
X128090142Y-109370601D01*
X128045996Y-109307555D01*
X127482962Y-109870589D01*
X127465925Y-109807007D01*
X127400099Y-109692993D01*
X127307007Y-109599901D01*
X127192993Y-109534075D01*
X127129409Y-109517037D01*
X127692443Y-108954003D01*
X127629392Y-108909854D01*
X127430533Y-108817125D01*
X127430524Y-108817121D01*
X127218592Y-108760335D01*
X127218582Y-108760333D01*
X127000001Y-108741210D01*
X126999999Y-108741210D01*
X126781417Y-108760333D01*
X126781407Y-108760335D01*
X126569475Y-108817121D01*
X126569466Y-108817124D01*
X126370606Y-108909855D01*
X126370604Y-108909856D01*
X126307556Y-108954003D01*
X126307555Y-108954003D01*
X126870590Y-109517037D01*
X126807007Y-109534075D01*
X126692993Y-109599901D01*
X126599901Y-109692993D01*
X126534075Y-109807007D01*
X126517037Y-109870590D01*
X125954003Y-109307555D01*
X125954003Y-109307556D01*
X125909856Y-109370604D01*
X125909855Y-109370606D01*
X125817124Y-109569466D01*
X125817121Y-109569475D01*
X125760335Y-109781407D01*
X125760333Y-109781417D01*
X125741210Y-109999999D01*
X125741210Y-110000000D01*
X125760333Y-110218582D01*
X125760335Y-110218592D01*
X125817121Y-110430524D01*
X125817125Y-110430533D01*
X125909854Y-110629392D01*
X125954003Y-110692443D01*
X126517037Y-110129409D01*
X126534075Y-110192993D01*
X126599901Y-110307007D01*
X126692993Y-110400099D01*
X126807007Y-110465925D01*
X126870590Y-110482962D01*
X126307555Y-111045996D01*
X126370601Y-111090142D01*
X126370605Y-111090144D01*
X126569466Y-111182874D01*
X126569475Y-111182878D01*
X126781407Y-111239664D01*
X126781417Y-111239666D01*
X126999999Y-111258790D01*
X127000001Y-111258790D01*
X127218582Y-111239666D01*
X127218592Y-111239664D01*
X127430524Y-111182878D01*
X127430533Y-111182874D01*
X127629392Y-111090145D01*
X127692443Y-111045995D01*
X127129410Y-110482962D01*
X127192993Y-110465925D01*
X127307007Y-110400099D01*
X127400099Y-110307007D01*
X127465925Y-110192993D01*
X127482962Y-110129409D01*
X128045995Y-110692442D01*
X128090146Y-110629390D01*
X128157342Y-110485289D01*
X128203514Y-110432849D01*
X128270707Y-110413697D01*
X128337589Y-110433913D01*
X128382106Y-110485288D01*
X128449421Y-110629646D01*
X128449423Y-110629650D01*
X128575322Y-110809452D01*
X128575327Y-110809458D01*
X128730541Y-110964672D01*
X128730547Y-110964677D01*
X128910349Y-111090576D01*
X128910351Y-111090577D01*
X128910354Y-111090579D01*
X129109297Y-111183347D01*
X129321326Y-111240161D01*
X129459645Y-111252262D01*
X129539998Y-111259292D01*
X129540000Y-111259292D01*
X129540002Y-111259292D01*
X129594668Y-111254509D01*
X129758674Y-111240161D01*
X129970703Y-111183347D01*
X130169646Y-111090579D01*
X130349457Y-110964674D01*
X130504674Y-110809457D01*
X130630579Y-110629646D01*
X130697618Y-110485878D01*
X130743790Y-110433439D01*
X130810983Y-110414287D01*
X130877864Y-110434502D01*
X130922381Y-110485878D01*
X130928968Y-110500003D01*
X130989419Y-110629642D01*
X130989423Y-110629650D01*
X131115322Y-110809452D01*
X131115327Y-110809458D01*
X131270541Y-110964672D01*
X131270547Y-110964677D01*
X131450349Y-111090576D01*
X131450351Y-111090577D01*
X131450354Y-111090579D01*
X131649297Y-111183347D01*
X131861326Y-111240161D01*
X131999645Y-111252262D01*
X132079998Y-111259292D01*
X132080000Y-111259292D01*
X132080002Y-111259292D01*
X132134668Y-111254509D01*
X132298674Y-111240161D01*
X132510703Y-111183347D01*
X132709646Y-111090579D01*
X132889457Y-110964674D01*
X133044674Y-110809457D01*
X133170579Y-110629646D01*
X133237618Y-110485878D01*
X133283790Y-110433439D01*
X133350983Y-110414287D01*
X133417864Y-110434502D01*
X133462381Y-110485878D01*
X133468968Y-110500003D01*
X133529419Y-110629642D01*
X133529423Y-110629650D01*
X133655322Y-110809452D01*
X133655327Y-110809458D01*
X133810541Y-110964672D01*
X133810547Y-110964677D01*
X133990349Y-111090576D01*
X133990351Y-111090577D01*
X133990354Y-111090579D01*
X134189297Y-111183347D01*
X134401326Y-111240161D01*
X134539645Y-111252262D01*
X134619998Y-111259292D01*
X134620000Y-111259292D01*
X134620002Y-111259292D01*
X134674668Y-111254509D01*
X134838674Y-111240161D01*
X135050703Y-111183347D01*
X135249646Y-111090579D01*
X135429457Y-110964674D01*
X135584674Y-110809457D01*
X135710579Y-110629646D01*
X135777618Y-110485878D01*
X135823790Y-110433439D01*
X135890983Y-110414287D01*
X135957864Y-110434502D01*
X136002381Y-110485878D01*
X136008968Y-110500003D01*
X136069419Y-110629642D01*
X136069423Y-110629650D01*
X136195322Y-110809452D01*
X136195327Y-110809458D01*
X136350541Y-110964672D01*
X136350547Y-110964677D01*
X136530349Y-111090576D01*
X136530351Y-111090577D01*
X136530354Y-111090579D01*
X136729297Y-111183347D01*
X136941326Y-111240161D01*
X137079645Y-111252262D01*
X137159998Y-111259292D01*
X137160000Y-111259292D01*
X137160002Y-111259292D01*
X137214668Y-111254509D01*
X137378674Y-111240161D01*
X137590703Y-111183347D01*
X137789646Y-111090579D01*
X137969457Y-110964674D01*
X138124674Y-110809457D01*
X138250579Y-110629646D01*
X138317618Y-110485878D01*
X138363790Y-110433439D01*
X138430983Y-110414287D01*
X138497864Y-110434502D01*
X138542381Y-110485878D01*
X138548968Y-110500003D01*
X138609419Y-110629642D01*
X138609423Y-110629650D01*
X138735322Y-110809452D01*
X138735327Y-110809458D01*
X138890541Y-110964672D01*
X138890547Y-110964677D01*
X139070349Y-111090576D01*
X139070351Y-111090577D01*
X139070354Y-111090579D01*
X139269297Y-111183347D01*
X139481326Y-111240161D01*
X139619645Y-111252262D01*
X139699998Y-111259292D01*
X139700000Y-111259292D01*
X139700002Y-111259292D01*
X139754668Y-111254509D01*
X139918674Y-111240161D01*
X140130703Y-111183347D01*
X140329646Y-111090579D01*
X140509457Y-110964674D01*
X140664674Y-110809457D01*
X140790579Y-110629646D01*
X140857893Y-110485288D01*
X140904065Y-110432849D01*
X140971258Y-110413697D01*
X141038139Y-110433912D01*
X141082657Y-110485288D01*
X141149854Y-110629392D01*
X141194003Y-110692443D01*
X141757037Y-110129409D01*
X141774075Y-110192993D01*
X141839901Y-110307007D01*
X141932993Y-110400099D01*
X142047007Y-110465925D01*
X142110590Y-110482962D01*
X141547555Y-111045996D01*
X141610601Y-111090142D01*
X141610605Y-111090144D01*
X141809466Y-111182874D01*
X141809475Y-111182878D01*
X142021407Y-111239664D01*
X142021417Y-111239666D01*
X142239999Y-111258790D01*
X142240001Y-111258790D01*
X142458582Y-111239666D01*
X142458592Y-111239664D01*
X142670524Y-111182878D01*
X142670533Y-111182874D01*
X142869392Y-111090145D01*
X142932443Y-111045995D01*
X142369410Y-110482962D01*
X142432993Y-110465925D01*
X142547007Y-110400099D01*
X142640099Y-110307007D01*
X142705925Y-110192993D01*
X142722962Y-110129409D01*
X143285995Y-110692442D01*
X143330146Y-110629390D01*
X143397342Y-110485289D01*
X143443514Y-110432849D01*
X143510707Y-110413697D01*
X143577589Y-110433913D01*
X143622106Y-110485288D01*
X143689421Y-110629646D01*
X143689423Y-110629650D01*
X143815322Y-110809452D01*
X143815327Y-110809458D01*
X143970541Y-110964672D01*
X143970547Y-110964677D01*
X144150349Y-111090576D01*
X144150351Y-111090577D01*
X144150354Y-111090579D01*
X144349297Y-111183347D01*
X144561326Y-111240161D01*
X144699645Y-111252262D01*
X144779998Y-111259292D01*
X144780000Y-111259292D01*
X144780002Y-111259292D01*
X144834668Y-111254509D01*
X144998674Y-111240161D01*
X145210703Y-111183347D01*
X145409646Y-111090579D01*
X145589457Y-110964674D01*
X145744674Y-110809457D01*
X145833425Y-110682706D01*
X145888002Y-110639082D01*
X145957500Y-110631888D01*
X146019855Y-110663411D01*
X146055269Y-110723640D01*
X146059000Y-110753830D01*
X146059000Y-121309387D01*
X146039995Y-121375357D01*
X146024210Y-121400479D01*
X146000438Y-121468414D01*
X145959716Y-121525189D01*
X145894763Y-121550936D01*
X145826201Y-121537479D01*
X145809085Y-121526724D01*
X145796261Y-121517124D01*
X145776331Y-121502204D01*
X145776328Y-121502202D01*
X145641482Y-121451908D01*
X145641483Y-121451908D01*
X145581883Y-121445501D01*
X145581881Y-121445500D01*
X145581873Y-121445500D01*
X145581864Y-121445500D01*
X143978129Y-121445500D01*
X143978123Y-121445501D01*
X143918516Y-121451908D01*
X143783671Y-121502202D01*
X143783664Y-121502206D01*
X143668455Y-121588452D01*
X143668452Y-121588455D01*
X143582206Y-121703664D01*
X143582202Y-121703671D01*
X143531908Y-121838517D01*
X143525501Y-121898116D01*
X143525500Y-121898135D01*
X143525500Y-121956324D01*
X143505815Y-122023363D01*
X143453011Y-122069118D01*
X143383853Y-122079062D01*
X143320297Y-122050037D01*
X143299926Y-122027449D01*
X143285996Y-122007555D01*
X142722962Y-122570589D01*
X142705925Y-122507007D01*
X142640099Y-122392993D01*
X142547007Y-122299901D01*
X142432993Y-122234075D01*
X142369409Y-122217037D01*
X142932443Y-121654003D01*
X142869392Y-121609854D01*
X142670533Y-121517125D01*
X142670524Y-121517121D01*
X142458592Y-121460335D01*
X142458582Y-121460333D01*
X142240001Y-121441210D01*
X142239999Y-121441210D01*
X142021417Y-121460333D01*
X142021407Y-121460335D01*
X141809475Y-121517121D01*
X141809466Y-121517124D01*
X141610606Y-121609855D01*
X141610604Y-121609856D01*
X141547556Y-121654003D01*
X141547555Y-121654003D01*
X142110590Y-122217037D01*
X142047007Y-122234075D01*
X141932993Y-122299901D01*
X141839901Y-122392993D01*
X141774075Y-122507007D01*
X141757037Y-122570590D01*
X141194003Y-122007555D01*
X141194003Y-122007556D01*
X141149857Y-122070603D01*
X141082657Y-122214712D01*
X141036484Y-122267151D01*
X140969290Y-122286302D01*
X140902409Y-122266086D01*
X140857893Y-122214710D01*
X140805103Y-122101501D01*
X140790579Y-122070354D01*
X140790577Y-122070351D01*
X140790576Y-122070349D01*
X140664677Y-121890547D01*
X140664672Y-121890541D01*
X140509458Y-121735327D01*
X140509452Y-121735322D01*
X140329650Y-121609423D01*
X140329642Y-121609419D01*
X140130708Y-121516655D01*
X140130706Y-121516654D01*
X140130703Y-121516653D01*
X139961827Y-121471402D01*
X139918675Y-121459839D01*
X139918668Y-121459838D01*
X139700002Y-121440708D01*
X139699998Y-121440708D01*
X139481331Y-121459838D01*
X139481324Y-121459839D01*
X139358902Y-121492642D01*
X139269297Y-121516653D01*
X139269295Y-121516653D01*
X139269291Y-121516655D01*
X139070357Y-121609419D01*
X139070349Y-121609423D01*
X138890547Y-121735322D01*
X138890541Y-121735327D01*
X138735327Y-121890541D01*
X138735322Y-121890547D01*
X138609423Y-122070349D01*
X138609419Y-122070357D01*
X138542382Y-122214120D01*
X138496210Y-122266560D01*
X138429017Y-122285712D01*
X138362135Y-122265496D01*
X138317618Y-122214120D01*
X138265103Y-122101501D01*
X138250579Y-122070354D01*
X138250577Y-122070351D01*
X138250576Y-122070349D01*
X138124677Y-121890547D01*
X138124672Y-121890541D01*
X137969458Y-121735327D01*
X137969452Y-121735322D01*
X137789650Y-121609423D01*
X137789642Y-121609419D01*
X137590708Y-121516655D01*
X137590706Y-121516654D01*
X137590703Y-121516653D01*
X137421827Y-121471402D01*
X137378675Y-121459839D01*
X137378668Y-121459838D01*
X137160002Y-121440708D01*
X137159998Y-121440708D01*
X136941331Y-121459838D01*
X136941324Y-121459839D01*
X136818902Y-121492642D01*
X136729297Y-121516653D01*
X136729295Y-121516653D01*
X136729291Y-121516655D01*
X136530357Y-121609419D01*
X136530349Y-121609423D01*
X136350547Y-121735322D01*
X136350541Y-121735327D01*
X136195327Y-121890541D01*
X136195322Y-121890547D01*
X136069423Y-122070349D01*
X136069419Y-122070357D01*
X136002382Y-122214120D01*
X135956210Y-122266560D01*
X135889017Y-122285712D01*
X135822135Y-122265496D01*
X135777618Y-122214120D01*
X135725103Y-122101501D01*
X135710579Y-122070354D01*
X135710577Y-122070351D01*
X135710576Y-122070349D01*
X135584677Y-121890547D01*
X135584672Y-121890541D01*
X135429458Y-121735327D01*
X135429452Y-121735322D01*
X135249650Y-121609423D01*
X135249642Y-121609419D01*
X135050708Y-121516655D01*
X135050706Y-121516654D01*
X135050703Y-121516653D01*
X134881827Y-121471402D01*
X134838675Y-121459839D01*
X134838668Y-121459838D01*
X134620002Y-121440708D01*
X134619998Y-121440708D01*
X134401331Y-121459838D01*
X134401324Y-121459839D01*
X134278902Y-121492642D01*
X134189297Y-121516653D01*
X134189295Y-121516653D01*
X134189291Y-121516655D01*
X133990357Y-121609419D01*
X133990349Y-121609423D01*
X133810547Y-121735322D01*
X133810541Y-121735327D01*
X133655327Y-121890541D01*
X133655322Y-121890547D01*
X133529423Y-122070349D01*
X133529419Y-122070357D01*
X133462382Y-122214120D01*
X133416210Y-122266560D01*
X133349017Y-122285712D01*
X133282135Y-122265496D01*
X133237618Y-122214120D01*
X133185103Y-122101501D01*
X133170579Y-122070354D01*
X133170577Y-122070351D01*
X133170576Y-122070349D01*
X133044677Y-121890547D01*
X133044672Y-121890541D01*
X132889458Y-121735327D01*
X132889452Y-121735322D01*
X132709650Y-121609423D01*
X132709642Y-121609419D01*
X132510708Y-121516655D01*
X132510706Y-121516654D01*
X132510703Y-121516653D01*
X132341827Y-121471402D01*
X132298675Y-121459839D01*
X132298668Y-121459838D01*
X132080002Y-121440708D01*
X132079998Y-121440708D01*
X131861331Y-121459838D01*
X131861324Y-121459839D01*
X131738902Y-121492642D01*
X131649297Y-121516653D01*
X131649295Y-121516653D01*
X131649291Y-121516655D01*
X131450357Y-121609419D01*
X131450349Y-121609423D01*
X131270547Y-121735322D01*
X131270541Y-121735327D01*
X131115327Y-121890541D01*
X131115322Y-121890547D01*
X130989423Y-122070349D01*
X130989419Y-122070357D01*
X130922382Y-122214120D01*
X130876210Y-122266560D01*
X130809017Y-122285712D01*
X130742135Y-122265496D01*
X130697618Y-122214120D01*
X130645103Y-122101501D01*
X130630579Y-122070354D01*
X130630577Y-122070351D01*
X130630576Y-122070349D01*
X130504677Y-121890547D01*
X130504672Y-121890541D01*
X130349458Y-121735327D01*
X130349452Y-121735322D01*
X130169650Y-121609423D01*
X130169642Y-121609419D01*
X129970708Y-121516655D01*
X129970706Y-121516654D01*
X129970703Y-121516653D01*
X129801827Y-121471402D01*
X129758675Y-121459839D01*
X129758668Y-121459838D01*
X129540002Y-121440708D01*
X129539998Y-121440708D01*
X129321331Y-121459838D01*
X129321324Y-121459839D01*
X129198902Y-121492642D01*
X129109297Y-121516653D01*
X129109295Y-121516653D01*
X129109291Y-121516655D01*
X128910357Y-121609419D01*
X128910349Y-121609423D01*
X128730547Y-121735322D01*
X128730541Y-121735327D01*
X128575327Y-121890541D01*
X128575322Y-121890547D01*
X128449423Y-122070349D01*
X128449419Y-122070357D01*
X128382382Y-122214120D01*
X128336210Y-122266560D01*
X128269017Y-122285712D01*
X128202135Y-122265496D01*
X128157618Y-122214120D01*
X128105103Y-122101501D01*
X128090579Y-122070354D01*
X128090577Y-122070351D01*
X128090576Y-122070349D01*
X127964677Y-121890547D01*
X127964672Y-121890541D01*
X127809458Y-121735327D01*
X127809452Y-121735322D01*
X127629650Y-121609423D01*
X127629642Y-121609419D01*
X127430708Y-121516655D01*
X127430706Y-121516654D01*
X127430703Y-121516653D01*
X127261827Y-121471402D01*
X127218675Y-121459839D01*
X127218668Y-121459838D01*
X127000002Y-121440708D01*
X126999998Y-121440708D01*
X126781331Y-121459838D01*
X126781324Y-121459839D01*
X126658902Y-121492642D01*
X126569297Y-121516653D01*
X126569295Y-121516653D01*
X126569291Y-121516655D01*
X126370357Y-121609419D01*
X126370349Y-121609423D01*
X126190547Y-121735322D01*
X126190541Y-121735327D01*
X126035327Y-121890541D01*
X126035322Y-121890547D01*
X125909423Y-122070349D01*
X125909419Y-122070357D01*
X125816655Y-122269291D01*
X125816653Y-122269295D01*
X125816653Y-122269297D01*
X125808453Y-122299901D01*
X125759839Y-122481324D01*
X125759838Y-122481331D01*
X125740708Y-122699997D01*
X125740708Y-122700000D01*
X125751271Y-122820745D01*
X125759839Y-122918674D01*
X125816653Y-123130703D01*
X125816654Y-123130706D01*
X125816655Y-123130708D01*
X125909419Y-123329642D01*
X125909423Y-123329650D01*
X126035322Y-123509452D01*
X126035327Y-123509458D01*
X126190541Y-123664672D01*
X126190547Y-123664677D01*
X126370349Y-123790576D01*
X126370351Y-123790577D01*
X126370354Y-123790579D01*
X126569297Y-123883347D01*
X126781326Y-123940161D01*
X126937521Y-123953826D01*
X126999998Y-123959292D01*
X127000000Y-123959292D01*
X127000002Y-123959292D01*
X127067885Y-123953352D01*
X127201777Y-123941639D01*
X127270276Y-123955406D01*
X127300264Y-123977486D01*
X129260597Y-125937819D01*
X129294082Y-125999142D01*
X129289098Y-126068834D01*
X129247226Y-126124767D01*
X129181762Y-126149184D01*
X129172916Y-126149500D01*
X125005412Y-126149500D01*
X124994605Y-126149028D01*
X124811201Y-126132982D01*
X124789914Y-126129229D01*
X124617325Y-126082984D01*
X124597014Y-126075591D01*
X124435084Y-126000081D01*
X124416366Y-125989274D01*
X124269999Y-125886787D01*
X124253441Y-125872893D01*
X124127106Y-125746558D01*
X124113212Y-125730000D01*
X124010725Y-125583633D01*
X123999918Y-125564915D01*
X123924408Y-125402985D01*
X123917015Y-125382674D01*
X123870770Y-125210085D01*
X123867017Y-125188798D01*
X123850972Y-125005395D01*
X123850500Y-124994588D01*
X123850500Y-116878711D01*
X127649500Y-116878711D01*
X127649500Y-117121288D01*
X127681161Y-117361785D01*
X127743947Y-117596104D01*
X127836773Y-117820205D01*
X127836776Y-117820212D01*
X127958064Y-118030289D01*
X127958066Y-118030292D01*
X127958067Y-118030293D01*
X128105733Y-118222736D01*
X128105739Y-118222743D01*
X128277256Y-118394260D01*
X128277263Y-118394266D01*
X128299594Y-118411401D01*
X128469711Y-118541936D01*
X128679788Y-118663224D01*
X128903900Y-118756054D01*
X129138211Y-118818838D01*
X129318586Y-118842584D01*
X129378711Y-118850500D01*
X129378712Y-118850500D01*
X129621289Y-118850500D01*
X129669388Y-118844167D01*
X129861789Y-118818838D01*
X130096100Y-118756054D01*
X130320212Y-118663224D01*
X130530289Y-118541936D01*
X130722738Y-118394265D01*
X130894265Y-118222738D01*
X131041936Y-118030289D01*
X131163224Y-117820212D01*
X131256054Y-117596100D01*
X131318838Y-117361789D01*
X131350500Y-117121288D01*
X131350500Y-116878712D01*
X131318838Y-116638211D01*
X131256054Y-116403900D01*
X131163224Y-116179788D01*
X131041936Y-115969711D01*
X130894265Y-115777262D01*
X130894260Y-115777256D01*
X130722743Y-115605739D01*
X130722736Y-115605733D01*
X130530293Y-115458067D01*
X130530292Y-115458066D01*
X130530289Y-115458064D01*
X130320212Y-115336776D01*
X130320205Y-115336773D01*
X130096104Y-115243947D01*
X129861785Y-115181161D01*
X129621289Y-115149500D01*
X129621288Y-115149500D01*
X129378712Y-115149500D01*
X129378711Y-115149500D01*
X129138214Y-115181161D01*
X128903895Y-115243947D01*
X128679794Y-115336773D01*
X128679785Y-115336777D01*
X128469706Y-115458067D01*
X128277263Y-115605733D01*
X128277256Y-115605739D01*
X128105739Y-115777256D01*
X128105733Y-115777263D01*
X127958067Y-115969706D01*
X127958064Y-115969710D01*
X127958064Y-115969711D01*
X127954555Y-115975789D01*
X127836777Y-116179785D01*
X127836773Y-116179794D01*
X127743947Y-116403895D01*
X127681161Y-116638214D01*
X127649500Y-116878711D01*
X123850500Y-116878711D01*
X123850500Y-95679999D01*
X149644341Y-95679999D01*
X149644341Y-95680000D01*
X149664936Y-95915403D01*
X149664938Y-95915413D01*
X149726094Y-96143655D01*
X149726096Y-96143659D01*
X149726097Y-96143663D01*
X149825965Y-96357830D01*
X149825967Y-96357834D01*
X149961501Y-96551395D01*
X149961506Y-96551402D01*
X150128597Y-96718493D01*
X150128603Y-96718498D01*
X150314158Y-96848425D01*
X150357783Y-96903002D01*
X150364977Y-96972500D01*
X150333454Y-97034855D01*
X150314158Y-97051575D01*
X150128597Y-97181505D01*
X149961505Y-97348597D01*
X149825965Y-97542169D01*
X149825964Y-97542171D01*
X149726098Y-97756335D01*
X149726094Y-97756344D01*
X149664938Y-97984586D01*
X149664936Y-97984596D01*
X149644341Y-98219999D01*
X149644341Y-98220000D01*
X149664936Y-98455403D01*
X149664938Y-98455413D01*
X149726094Y-98683655D01*
X149726096Y-98683659D01*
X149726097Y-98683663D01*
X149825965Y-98897830D01*
X149825967Y-98897834D01*
X149961501Y-99091395D01*
X149961506Y-99091402D01*
X150128597Y-99258493D01*
X150128603Y-99258498D01*
X150314158Y-99388425D01*
X150357783Y-99443002D01*
X150364977Y-99512500D01*
X150333454Y-99574855D01*
X150314158Y-99591575D01*
X150128597Y-99721505D01*
X149961505Y-99888597D01*
X149825965Y-100082169D01*
X149825964Y-100082171D01*
X149726098Y-100296335D01*
X149726094Y-100296344D01*
X149664938Y-100524586D01*
X149664936Y-100524596D01*
X149644341Y-100759999D01*
X149644341Y-100760000D01*
X149664936Y-100995403D01*
X149664938Y-100995413D01*
X149726094Y-101223655D01*
X149726096Y-101223659D01*
X149726097Y-101223663D01*
X149755570Y-101286868D01*
X149825965Y-101437830D01*
X149825967Y-101437834D01*
X149896862Y-101539081D01*
X149961501Y-101631396D01*
X149961506Y-101631402D01*
X150083430Y-101753326D01*
X150116915Y-101814649D01*
X150111931Y-101884341D01*
X150070059Y-101940274D01*
X150039083Y-101957189D01*
X149907669Y-102006203D01*
X149907664Y-102006206D01*
X149792455Y-102092452D01*
X149792452Y-102092455D01*
X149706206Y-102207664D01*
X149706202Y-102207671D01*
X149655908Y-102342517D01*
X149649501Y-102402116D01*
X149649501Y-102402123D01*
X149649500Y-102402135D01*
X149649500Y-104197870D01*
X149649501Y-104197876D01*
X149655908Y-104257483D01*
X149706202Y-104392328D01*
X149706206Y-104392335D01*
X149792452Y-104507544D01*
X149792455Y-104507547D01*
X149907664Y-104593793D01*
X149907671Y-104593797D01*
X150042517Y-104644091D01*
X150042516Y-104644091D01*
X150049444Y-104644835D01*
X150102127Y-104650500D01*
X151897872Y-104650499D01*
X151957483Y-104644091D01*
X152092331Y-104593796D01*
X152207546Y-104507546D01*
X152293796Y-104392331D01*
X152344091Y-104257483D01*
X152350500Y-104197873D01*
X152350499Y-102402128D01*
X152344091Y-102342517D01*
X152313313Y-102259998D01*
X152293797Y-102207671D01*
X152293793Y-102207664D01*
X152207547Y-102092455D01*
X152207544Y-102092452D01*
X152092335Y-102006206D01*
X152092328Y-102006202D01*
X151960917Y-101957189D01*
X151904983Y-101915318D01*
X151880566Y-101849853D01*
X151895418Y-101781580D01*
X151916563Y-101753332D01*
X152038495Y-101631401D01*
X152174035Y-101437830D01*
X152273903Y-101223663D01*
X152335063Y-100995408D01*
X152355659Y-100760000D01*
X152335063Y-100524592D01*
X152273903Y-100296337D01*
X152174035Y-100082171D01*
X152146505Y-100042853D01*
X152038494Y-99888597D01*
X151871402Y-99721506D01*
X151871396Y-99721501D01*
X151685842Y-99591575D01*
X151642217Y-99536998D01*
X151635023Y-99467500D01*
X151666546Y-99405145D01*
X151685842Y-99388425D01*
X151711893Y-99370184D01*
X151871401Y-99258495D01*
X152038495Y-99091401D01*
X152174035Y-98897830D01*
X152273903Y-98683663D01*
X152335063Y-98455408D01*
X152355659Y-98220000D01*
X152335063Y-97984592D01*
X152273903Y-97756337D01*
X152174035Y-97542171D01*
X152038495Y-97348599D01*
X152038494Y-97348597D01*
X151871402Y-97181506D01*
X151871396Y-97181501D01*
X151685842Y-97051575D01*
X151642217Y-96996998D01*
X151635023Y-96927500D01*
X151666546Y-96865145D01*
X151685842Y-96848425D01*
X151832798Y-96745525D01*
X151871401Y-96718495D01*
X152038495Y-96551401D01*
X152174035Y-96357830D01*
X152273903Y-96143663D01*
X152335063Y-95915408D01*
X152355659Y-95680000D01*
X152335063Y-95444592D01*
X152273903Y-95216337D01*
X152174035Y-95002171D01*
X152122979Y-94929254D01*
X152038494Y-94808597D01*
X151871402Y-94641506D01*
X151871395Y-94641501D01*
X151869251Y-94640000D01*
X151832521Y-94614281D01*
X151677834Y-94505967D01*
X151677830Y-94505965D01*
X151665029Y-94499996D01*
X151463663Y-94406097D01*
X151463659Y-94406096D01*
X151463655Y-94406094D01*
X151235413Y-94344938D01*
X151235403Y-94344936D01*
X151000001Y-94324341D01*
X150999999Y-94324341D01*
X150764596Y-94344936D01*
X150764586Y-94344938D01*
X150536344Y-94406094D01*
X150536335Y-94406098D01*
X150322171Y-94505964D01*
X150322169Y-94505965D01*
X150128597Y-94641505D01*
X149961505Y-94808597D01*
X149825965Y-95002169D01*
X149825964Y-95002171D01*
X149726098Y-95216335D01*
X149726094Y-95216344D01*
X149664938Y-95444586D01*
X149664936Y-95444596D01*
X149644341Y-95679999D01*
X123850500Y-95679999D01*
X123850500Y-93299999D01*
X125851210Y-93299999D01*
X125851210Y-93300000D01*
X125870333Y-93518582D01*
X125870335Y-93518592D01*
X125927121Y-93730524D01*
X125927125Y-93730533D01*
X126019854Y-93929392D01*
X126064003Y-93992443D01*
X126627037Y-93429409D01*
X126644075Y-93492993D01*
X126709901Y-93607007D01*
X126802993Y-93700099D01*
X126917007Y-93765925D01*
X126980590Y-93782962D01*
X126417555Y-94345996D01*
X126480601Y-94390142D01*
X126480605Y-94390144D01*
X126679466Y-94482874D01*
X126679475Y-94482878D01*
X126891407Y-94539664D01*
X126891417Y-94539666D01*
X127109999Y-94558790D01*
X127110001Y-94558790D01*
X127328582Y-94539666D01*
X127328592Y-94539664D01*
X127540524Y-94482878D01*
X127540533Y-94482874D01*
X127739392Y-94390145D01*
X127802443Y-94345995D01*
X127239410Y-93782962D01*
X127302993Y-93765925D01*
X127417007Y-93700099D01*
X127510099Y-93607007D01*
X127575925Y-93492993D01*
X127592962Y-93429409D01*
X128155995Y-93992442D01*
X128200146Y-93929390D01*
X128267342Y-93785289D01*
X128313514Y-93732849D01*
X128380707Y-93713697D01*
X128447589Y-93733913D01*
X128492106Y-93785288D01*
X128559421Y-93929646D01*
X128559423Y-93929650D01*
X128685322Y-94109452D01*
X128685327Y-94109458D01*
X128840541Y-94264672D01*
X128840547Y-94264677D01*
X129020349Y-94390576D01*
X129020351Y-94390577D01*
X129020354Y-94390579D01*
X129219297Y-94483347D01*
X129431326Y-94540161D01*
X129587521Y-94553826D01*
X129649998Y-94559292D01*
X129650000Y-94559292D01*
X129650002Y-94559292D01*
X129704668Y-94554509D01*
X129868674Y-94540161D01*
X130080703Y-94483347D01*
X130279646Y-94390579D01*
X130459457Y-94264674D01*
X130614674Y-94109457D01*
X130740579Y-93929646D01*
X130807618Y-93785878D01*
X130853790Y-93733439D01*
X130920983Y-93714287D01*
X130987864Y-93734502D01*
X131032381Y-93785878D01*
X131047605Y-93818526D01*
X131099419Y-93929642D01*
X131099423Y-93929650D01*
X131225322Y-94109452D01*
X131225327Y-94109458D01*
X131380541Y-94264672D01*
X131380547Y-94264677D01*
X131560349Y-94390576D01*
X131560351Y-94390577D01*
X131560354Y-94390579D01*
X131759297Y-94483347D01*
X131971326Y-94540161D01*
X132127521Y-94553826D01*
X132189998Y-94559292D01*
X132190000Y-94559292D01*
X132190002Y-94559292D01*
X132244668Y-94554509D01*
X132408674Y-94540161D01*
X132620703Y-94483347D01*
X132819646Y-94390579D01*
X132999457Y-94264674D01*
X133154674Y-94109457D01*
X133280579Y-93929646D01*
X133347618Y-93785878D01*
X133393790Y-93733439D01*
X133460983Y-93714287D01*
X133527864Y-93734502D01*
X133572381Y-93785878D01*
X133587605Y-93818526D01*
X133639419Y-93929642D01*
X133639423Y-93929650D01*
X133765322Y-94109452D01*
X133765327Y-94109458D01*
X133920541Y-94264672D01*
X133920547Y-94264677D01*
X134100349Y-94390576D01*
X134100351Y-94390577D01*
X134100354Y-94390579D01*
X134299297Y-94483347D01*
X134511326Y-94540161D01*
X134667521Y-94553826D01*
X134729998Y-94559292D01*
X134730000Y-94559292D01*
X134730002Y-94559292D01*
X134784668Y-94554509D01*
X134948674Y-94540161D01*
X135160703Y-94483347D01*
X135359646Y-94390579D01*
X135539457Y-94264674D01*
X135694674Y-94109457D01*
X135820579Y-93929646D01*
X135887618Y-93785878D01*
X135933790Y-93733439D01*
X136000983Y-93714287D01*
X136067864Y-93734502D01*
X136112381Y-93785878D01*
X136127605Y-93818526D01*
X136179419Y-93929642D01*
X136179423Y-93929650D01*
X136305322Y-94109452D01*
X136305327Y-94109458D01*
X136460541Y-94264672D01*
X136460547Y-94264677D01*
X136640349Y-94390576D01*
X136640351Y-94390577D01*
X136640354Y-94390579D01*
X136839297Y-94483347D01*
X137051326Y-94540161D01*
X137207521Y-94553826D01*
X137269998Y-94559292D01*
X137270000Y-94559292D01*
X137270002Y-94559292D01*
X137324668Y-94554509D01*
X137488674Y-94540161D01*
X137700703Y-94483347D01*
X137899646Y-94390579D01*
X138079457Y-94264674D01*
X138234674Y-94109457D01*
X138360579Y-93929646D01*
X138427618Y-93785878D01*
X138473790Y-93733439D01*
X138540983Y-93714287D01*
X138607864Y-93734502D01*
X138652381Y-93785878D01*
X138667605Y-93818526D01*
X138719419Y-93929642D01*
X138719423Y-93929650D01*
X138845322Y-94109452D01*
X138845327Y-94109458D01*
X139000541Y-94264672D01*
X139000547Y-94264677D01*
X139180349Y-94390576D01*
X139180351Y-94390577D01*
X139180354Y-94390579D01*
X139379297Y-94483347D01*
X139591326Y-94540161D01*
X139747521Y-94553826D01*
X139809998Y-94559292D01*
X139810000Y-94559292D01*
X139810002Y-94559292D01*
X139864668Y-94554509D01*
X140028674Y-94540161D01*
X140240703Y-94483347D01*
X140439646Y-94390579D01*
X140619457Y-94264674D01*
X140774674Y-94109457D01*
X140900579Y-93929646D01*
X140967893Y-93785288D01*
X141014065Y-93732849D01*
X141081258Y-93713697D01*
X141148139Y-93733912D01*
X141192657Y-93785288D01*
X141259854Y-93929392D01*
X141304003Y-93992443D01*
X141867037Y-93429409D01*
X141884075Y-93492993D01*
X141949901Y-93607007D01*
X142042993Y-93700099D01*
X142157007Y-93765925D01*
X142220590Y-93782962D01*
X141657555Y-94345996D01*
X141720601Y-94390142D01*
X141720605Y-94390144D01*
X141919466Y-94482874D01*
X141919475Y-94482878D01*
X142131407Y-94539664D01*
X142131417Y-94539666D01*
X142349999Y-94558790D01*
X142350001Y-94558790D01*
X142568582Y-94539666D01*
X142568592Y-94539664D01*
X142780524Y-94482878D01*
X142780533Y-94482874D01*
X142979392Y-94390145D01*
X143042443Y-94345995D01*
X142479410Y-93782962D01*
X142542993Y-93765925D01*
X142657007Y-93700099D01*
X142750099Y-93607007D01*
X142815925Y-93492993D01*
X142832962Y-93429409D01*
X143395995Y-93992442D01*
X143440146Y-93929390D01*
X143507342Y-93785289D01*
X143553514Y-93732849D01*
X143620707Y-93713697D01*
X143687589Y-93733913D01*
X143732106Y-93785288D01*
X143799421Y-93929646D01*
X143799423Y-93929650D01*
X143925322Y-94109452D01*
X143925327Y-94109458D01*
X144080541Y-94264672D01*
X144080547Y-94264677D01*
X144260349Y-94390576D01*
X144260351Y-94390577D01*
X144260354Y-94390579D01*
X144459297Y-94483347D01*
X144671326Y-94540161D01*
X144827521Y-94553826D01*
X144889998Y-94559292D01*
X144890000Y-94559292D01*
X144890002Y-94559292D01*
X144944668Y-94554509D01*
X145108674Y-94540161D01*
X145320703Y-94483347D01*
X145519646Y-94390579D01*
X145699457Y-94264674D01*
X145854674Y-94109457D01*
X145980579Y-93929646D01*
X146073347Y-93730703D01*
X146130161Y-93518674D01*
X146144827Y-93351035D01*
X146149292Y-93300002D01*
X146149292Y-93299997D01*
X146140556Y-93200142D01*
X146130161Y-93081326D01*
X146073347Y-92869297D01*
X145980579Y-92670354D01*
X145980577Y-92670351D01*
X145980576Y-92670349D01*
X145854677Y-92490547D01*
X145854672Y-92490541D01*
X145699458Y-92335327D01*
X145699452Y-92335322D01*
X145519650Y-92209423D01*
X145519642Y-92209419D01*
X145320708Y-92116655D01*
X145320706Y-92116654D01*
X145320703Y-92116653D01*
X145169885Y-92076240D01*
X145108675Y-92059839D01*
X145108668Y-92059838D01*
X144890002Y-92040708D01*
X144889998Y-92040708D01*
X144671331Y-92059838D01*
X144671324Y-92059839D01*
X144548902Y-92092642D01*
X144459297Y-92116653D01*
X144459295Y-92116653D01*
X144459291Y-92116655D01*
X144260357Y-92209419D01*
X144260349Y-92209423D01*
X144080547Y-92335322D01*
X144080541Y-92335327D01*
X143925327Y-92490541D01*
X143925322Y-92490547D01*
X143799423Y-92670349D01*
X143799421Y-92670353D01*
X143732106Y-92814711D01*
X143685933Y-92867150D01*
X143618740Y-92886302D01*
X143551859Y-92866086D01*
X143507342Y-92814711D01*
X143440144Y-92670605D01*
X143440142Y-92670601D01*
X143395996Y-92607555D01*
X142832962Y-93170589D01*
X142815925Y-93107007D01*
X142750099Y-92992993D01*
X142657007Y-92899901D01*
X142542993Y-92834075D01*
X142479409Y-92817037D01*
X143042443Y-92254003D01*
X142979392Y-92209854D01*
X142780533Y-92117125D01*
X142780524Y-92117121D01*
X142568592Y-92060335D01*
X142568582Y-92060333D01*
X142350001Y-92041210D01*
X142349999Y-92041210D01*
X142131417Y-92060333D01*
X142131407Y-92060335D01*
X141919475Y-92117121D01*
X141919466Y-92117124D01*
X141720606Y-92209855D01*
X141720604Y-92209856D01*
X141657556Y-92254003D01*
X141657555Y-92254003D01*
X142220590Y-92817037D01*
X142157007Y-92834075D01*
X142042993Y-92899901D01*
X141949901Y-92992993D01*
X141884075Y-93107007D01*
X141867037Y-93170590D01*
X141304003Y-92607555D01*
X141304003Y-92607556D01*
X141259857Y-92670603D01*
X141192657Y-92814712D01*
X141146484Y-92867151D01*
X141079290Y-92886302D01*
X141012409Y-92866086D01*
X140967893Y-92814710D01*
X140937716Y-92749996D01*
X140900579Y-92670354D01*
X140900577Y-92670351D01*
X140900576Y-92670349D01*
X140774677Y-92490547D01*
X140774672Y-92490541D01*
X140619458Y-92335327D01*
X140619452Y-92335322D01*
X140439650Y-92209423D01*
X140439642Y-92209419D01*
X140240708Y-92116655D01*
X140240706Y-92116654D01*
X140240703Y-92116653D01*
X140089885Y-92076240D01*
X140028675Y-92059839D01*
X140028668Y-92059838D01*
X139810002Y-92040708D01*
X139809998Y-92040708D01*
X139591331Y-92059838D01*
X139591324Y-92059839D01*
X139468902Y-92092642D01*
X139379297Y-92116653D01*
X139379295Y-92116653D01*
X139379291Y-92116655D01*
X139180357Y-92209419D01*
X139180349Y-92209423D01*
X139000547Y-92335322D01*
X139000541Y-92335327D01*
X138845327Y-92490541D01*
X138845322Y-92490547D01*
X138719423Y-92670349D01*
X138719419Y-92670357D01*
X138652382Y-92814120D01*
X138606210Y-92866560D01*
X138539017Y-92885712D01*
X138472135Y-92865496D01*
X138427618Y-92814120D01*
X138397716Y-92749996D01*
X138360579Y-92670354D01*
X138360577Y-92670351D01*
X138360576Y-92670349D01*
X138234677Y-92490547D01*
X138234672Y-92490541D01*
X138079458Y-92335327D01*
X138079452Y-92335322D01*
X137899650Y-92209423D01*
X137899642Y-92209419D01*
X137700708Y-92116655D01*
X137700706Y-92116654D01*
X137700703Y-92116653D01*
X137549885Y-92076240D01*
X137488675Y-92059839D01*
X137488668Y-92059838D01*
X137270002Y-92040708D01*
X137269998Y-92040708D01*
X137051331Y-92059838D01*
X137051324Y-92059839D01*
X136928902Y-92092642D01*
X136839297Y-92116653D01*
X136839295Y-92116653D01*
X136839291Y-92116655D01*
X136640357Y-92209419D01*
X136640349Y-92209423D01*
X136460547Y-92335322D01*
X136460541Y-92335327D01*
X136305327Y-92490541D01*
X136305322Y-92490547D01*
X136179423Y-92670349D01*
X136179419Y-92670357D01*
X136112382Y-92814120D01*
X136066210Y-92866560D01*
X135999017Y-92885712D01*
X135932135Y-92865496D01*
X135887618Y-92814120D01*
X135857716Y-92749996D01*
X135820579Y-92670354D01*
X135820577Y-92670351D01*
X135820576Y-92670349D01*
X135694677Y-92490547D01*
X135694672Y-92490541D01*
X135539458Y-92335327D01*
X135539452Y-92335322D01*
X135359650Y-92209423D01*
X135359642Y-92209419D01*
X135160708Y-92116655D01*
X135160706Y-92116654D01*
X135160703Y-92116653D01*
X135009885Y-92076240D01*
X134948675Y-92059839D01*
X134948668Y-92059838D01*
X134730002Y-92040708D01*
X134729998Y-92040708D01*
X134511331Y-92059838D01*
X134511324Y-92059839D01*
X134388902Y-92092642D01*
X134299297Y-92116653D01*
X134299295Y-92116653D01*
X134299291Y-92116655D01*
X134100357Y-92209419D01*
X134100349Y-92209423D01*
X133920547Y-92335322D01*
X133920541Y-92335327D01*
X133765327Y-92490541D01*
X133765322Y-92490547D01*
X133639423Y-92670349D01*
X133639419Y-92670357D01*
X133572382Y-92814120D01*
X133526210Y-92866560D01*
X133459017Y-92885712D01*
X133392135Y-92865496D01*
X133347618Y-92814120D01*
X133317716Y-92749996D01*
X133280579Y-92670354D01*
X133280577Y-92670351D01*
X133280576Y-92670349D01*
X133154677Y-92490547D01*
X133154672Y-92490541D01*
X132999458Y-92335327D01*
X132999452Y-92335322D01*
X132819650Y-92209423D01*
X132819642Y-92209419D01*
X132620708Y-92116655D01*
X132620706Y-92116654D01*
X132620703Y-92116653D01*
X132469885Y-92076240D01*
X132408675Y-92059839D01*
X132408668Y-92059838D01*
X132190002Y-92040708D01*
X132189998Y-92040708D01*
X131971331Y-92059838D01*
X131971324Y-92059839D01*
X131848902Y-92092642D01*
X131759297Y-92116653D01*
X131759295Y-92116653D01*
X131759291Y-92116655D01*
X131560357Y-92209419D01*
X131560349Y-92209423D01*
X131380547Y-92335322D01*
X131380541Y-92335327D01*
X131225327Y-92490541D01*
X131225322Y-92490547D01*
X131099423Y-92670349D01*
X131099419Y-92670357D01*
X131032382Y-92814120D01*
X130986210Y-92866560D01*
X130919017Y-92885712D01*
X130852135Y-92865496D01*
X130807618Y-92814120D01*
X130777716Y-92749996D01*
X130740579Y-92670354D01*
X130740577Y-92670351D01*
X130740576Y-92670349D01*
X130614677Y-92490547D01*
X130614672Y-92490541D01*
X130459458Y-92335327D01*
X130459452Y-92335322D01*
X130279650Y-92209423D01*
X130279642Y-92209419D01*
X130080708Y-92116655D01*
X130080706Y-92116654D01*
X130080703Y-92116653D01*
X129929885Y-92076240D01*
X129868675Y-92059839D01*
X129868668Y-92059838D01*
X129650002Y-92040708D01*
X129649998Y-92040708D01*
X129431331Y-92059838D01*
X129431324Y-92059839D01*
X129308902Y-92092642D01*
X129219297Y-92116653D01*
X129219295Y-92116653D01*
X129219291Y-92116655D01*
X129020357Y-92209419D01*
X129020349Y-92209423D01*
X128840547Y-92335322D01*
X128840541Y-92335327D01*
X128685327Y-92490541D01*
X128685322Y-92490547D01*
X128559423Y-92670349D01*
X128559421Y-92670353D01*
X128492106Y-92814711D01*
X128445933Y-92867150D01*
X128378740Y-92886302D01*
X128311859Y-92866086D01*
X128267342Y-92814711D01*
X128200144Y-92670605D01*
X128200142Y-92670601D01*
X128155996Y-92607555D01*
X127592962Y-93170589D01*
X127575925Y-93107007D01*
X127510099Y-92992993D01*
X127417007Y-92899901D01*
X127302993Y-92834075D01*
X127239409Y-92817037D01*
X127802443Y-92254003D01*
X127739392Y-92209854D01*
X127540533Y-92117125D01*
X127540524Y-92117121D01*
X127328592Y-92060335D01*
X127328582Y-92060333D01*
X127110001Y-92041210D01*
X127109999Y-92041210D01*
X126891417Y-92060333D01*
X126891407Y-92060335D01*
X126679475Y-92117121D01*
X126679466Y-92117124D01*
X126480606Y-92209855D01*
X126480604Y-92209856D01*
X126417556Y-92254003D01*
X126417555Y-92254003D01*
X126980590Y-92817037D01*
X126917007Y-92834075D01*
X126802993Y-92899901D01*
X126709901Y-92992993D01*
X126644075Y-93107007D01*
X126627037Y-93170590D01*
X126064003Y-92607555D01*
X126064003Y-92607556D01*
X126019856Y-92670604D01*
X126019855Y-92670606D01*
X125927124Y-92869466D01*
X125927121Y-92869475D01*
X125870335Y-93081407D01*
X125870333Y-93081417D01*
X125851210Y-93299999D01*
X123850500Y-93299999D01*
X123850500Y-87102135D01*
X134149500Y-87102135D01*
X134149500Y-88897870D01*
X134149501Y-88897876D01*
X134155908Y-88957483D01*
X134206202Y-89092328D01*
X134206206Y-89092335D01*
X134292452Y-89207544D01*
X134292455Y-89207547D01*
X134407664Y-89293793D01*
X134407671Y-89293797D01*
X134542517Y-89344091D01*
X134542516Y-89344091D01*
X134549444Y-89344835D01*
X134602127Y-89350500D01*
X136397872Y-89350499D01*
X136457483Y-89344091D01*
X136592331Y-89293796D01*
X136707546Y-89207546D01*
X136793796Y-89092331D01*
X136842810Y-88960916D01*
X136884681Y-88904984D01*
X136950145Y-88880566D01*
X137018418Y-88895417D01*
X137046673Y-88916569D01*
X137168599Y-89038495D01*
X137265384Y-89106265D01*
X137362165Y-89174032D01*
X137362167Y-89174033D01*
X137362170Y-89174035D01*
X137576337Y-89273903D01*
X137804592Y-89335063D01*
X137981034Y-89350500D01*
X138039999Y-89355659D01*
X138040000Y-89355659D01*
X138040001Y-89355659D01*
X138098966Y-89350500D01*
X138275408Y-89335063D01*
X138503663Y-89273903D01*
X138717830Y-89174035D01*
X138911401Y-89038495D01*
X139078495Y-88871401D01*
X139214035Y-88677830D01*
X139313903Y-88463663D01*
X139375063Y-88235408D01*
X139395659Y-88000000D01*
X139375063Y-87764592D01*
X139323089Y-87570619D01*
X139313905Y-87536344D01*
X139313904Y-87536343D01*
X139313903Y-87536337D01*
X139214035Y-87322171D01*
X139207089Y-87312250D01*
X139078494Y-87128597D01*
X138911402Y-86961506D01*
X138911395Y-86961501D01*
X138717834Y-86825967D01*
X138717830Y-86825965D01*
X138706636Y-86820745D01*
X138503663Y-86726097D01*
X138503659Y-86726096D01*
X138503655Y-86726094D01*
X138275413Y-86664938D01*
X138275403Y-86664936D01*
X138040001Y-86644341D01*
X138039999Y-86644341D01*
X137804596Y-86664936D01*
X137804586Y-86664938D01*
X137576344Y-86726094D01*
X137576335Y-86726098D01*
X137362171Y-86825964D01*
X137362169Y-86825965D01*
X137168600Y-86961503D01*
X137046673Y-87083430D01*
X136985350Y-87116914D01*
X136915658Y-87111930D01*
X136859725Y-87070058D01*
X136842810Y-87039081D01*
X136793797Y-86907671D01*
X136793793Y-86907664D01*
X136707547Y-86792455D01*
X136707544Y-86792452D01*
X136592335Y-86706206D01*
X136592328Y-86706202D01*
X136457482Y-86655908D01*
X136457483Y-86655908D01*
X136397883Y-86649501D01*
X136397881Y-86649500D01*
X136397873Y-86649500D01*
X136397864Y-86649500D01*
X134602129Y-86649500D01*
X134602123Y-86649501D01*
X134542516Y-86655908D01*
X134407671Y-86706202D01*
X134407664Y-86706206D01*
X134292455Y-86792452D01*
X134292452Y-86792455D01*
X134206206Y-86907664D01*
X134206202Y-86907671D01*
X134155908Y-87042517D01*
X134149501Y-87102116D01*
X134149500Y-87102135D01*
X123850500Y-87102135D01*
X123850500Y-77590499D01*
X123870185Y-77523460D01*
X123922989Y-77477705D01*
X123992147Y-77467761D01*
X124055703Y-77496786D01*
X124093477Y-77555564D01*
X124096973Y-77571101D01*
X124116523Y-77694534D01*
X124179781Y-77889223D01*
X124227333Y-77982547D01*
X124271279Y-78068796D01*
X124272715Y-78071613D01*
X124393028Y-78237213D01*
X124537786Y-78381971D01*
X124656861Y-78468482D01*
X124703390Y-78502287D01*
X124816187Y-78559760D01*
X124885776Y-78595218D01*
X124885778Y-78595218D01*
X124885781Y-78595220D01*
X124977241Y-78624937D01*
X125080465Y-78658477D01*
X125181557Y-78674488D01*
X125282648Y-78690500D01*
X125282649Y-78690500D01*
X125887351Y-78690500D01*
X125887352Y-78690500D01*
X126089534Y-78658477D01*
X126284219Y-78595220D01*
X126466610Y-78502287D01*
X126596854Y-78407660D01*
X126632213Y-78381971D01*
X126632215Y-78381968D01*
X126632219Y-78381966D01*
X126776966Y-78237219D01*
X126776968Y-78237215D01*
X126776971Y-78237213D01*
X126839970Y-78150501D01*
X126897287Y-78071610D01*
X126990220Y-77889219D01*
X127053477Y-77694534D01*
X127085500Y-77492352D01*
X127085500Y-77287648D01*
X127057837Y-77112993D01*
X127053477Y-77085465D01*
X126990218Y-76890776D01*
X126947310Y-76806566D01*
X126897287Y-76708390D01*
X126867046Y-76666766D01*
X126776971Y-76542786D01*
X126632213Y-76398028D01*
X126466611Y-76277713D01*
X126373369Y-76230203D01*
X126322574Y-76182229D01*
X126305779Y-76114407D01*
X126328317Y-76048273D01*
X126373371Y-76009234D01*
X126466347Y-75961861D01*
X126631894Y-75841582D01*
X126631895Y-75841582D01*
X126776582Y-75696895D01*
X126776582Y-75696894D01*
X126896859Y-75531349D01*
X126989755Y-75349029D01*
X127052990Y-75154413D01*
X127061609Y-75100000D01*
X125960278Y-75100000D01*
X126004333Y-75023694D01*
X126035000Y-74909244D01*
X126035000Y-74790756D01*
X126004333Y-74676306D01*
X125960278Y-74600000D01*
X127061609Y-74600000D01*
X127052990Y-74545586D01*
X126989755Y-74350970D01*
X126896859Y-74168650D01*
X126776582Y-74003105D01*
X126776582Y-74003104D01*
X126631895Y-73858417D01*
X126466349Y-73738140D01*
X126373370Y-73690765D01*
X126322574Y-73642790D01*
X126305779Y-73574969D01*
X126328316Y-73508835D01*
X126373370Y-73469795D01*
X126373920Y-73469515D01*
X126466610Y-73422287D01*
X126551103Y-73360900D01*
X126632213Y-73301971D01*
X126632215Y-73301968D01*
X126632219Y-73301966D01*
X126776966Y-73157219D01*
X126776968Y-73157215D01*
X126776971Y-73157213D01*
X126846482Y-73061538D01*
X126897287Y-72991610D01*
X126990220Y-72809219D01*
X127053477Y-72614534D01*
X127085500Y-72412352D01*
X127085500Y-72207648D01*
X127064702Y-72076335D01*
X127053477Y-72005465D01*
X127009521Y-71870184D01*
X126990220Y-71810781D01*
X126990218Y-71810778D01*
X126990218Y-71810776D01*
X126953973Y-71739642D01*
X126897287Y-71628390D01*
X126866166Y-71585555D01*
X126776971Y-71462786D01*
X126632213Y-71318028D01*
X126466614Y-71197715D01*
X126451470Y-71189999D01*
X126373917Y-71150483D01*
X126323123Y-71102511D01*
X126306328Y-71034690D01*
X126328865Y-70968555D01*
X126373917Y-70929516D01*
X126466610Y-70882287D01*
X126507203Y-70852795D01*
X126632213Y-70761971D01*
X126632215Y-70761968D01*
X126632219Y-70761966D01*
X126776966Y-70617219D01*
X126776968Y-70617215D01*
X126776971Y-70617213D01*
X126853327Y-70512116D01*
X126897287Y-70451610D01*
X126990220Y-70269219D01*
X127053477Y-70074534D01*
X127069939Y-69970596D01*
X127099868Y-69907463D01*
X127159179Y-69870531D01*
X127229042Y-69871529D01*
G37*
%TD.AperFunction*%
%TA.AperFunction,Conductor*%
G36*
X181199458Y-101586185D02*
G01*
X181245213Y-101638989D01*
X181255157Y-101708147D01*
X181244801Y-101742904D01*
X181206279Y-101825513D01*
X181206275Y-101825524D01*
X181148965Y-102039407D01*
X181148964Y-102039414D01*
X181129666Y-102259998D01*
X181129666Y-102260001D01*
X181148964Y-102480585D01*
X181148965Y-102480592D01*
X181206275Y-102694475D01*
X181206279Y-102694486D01*
X181286922Y-102867426D01*
X181299858Y-102895167D01*
X181426868Y-103076555D01*
X181583445Y-103233132D01*
X181764833Y-103360142D01*
X181826828Y-103389050D01*
X181888091Y-103417618D01*
X181940531Y-103463790D01*
X181959683Y-103530983D01*
X181939467Y-103597865D01*
X181888091Y-103642382D01*
X181764836Y-103699856D01*
X181764834Y-103699857D01*
X181583444Y-103826868D01*
X181426868Y-103983444D01*
X181299857Y-104164834D01*
X181299856Y-104164836D01*
X181206279Y-104365513D01*
X181206275Y-104365524D01*
X181148965Y-104579407D01*
X181148964Y-104579414D01*
X181129666Y-104799998D01*
X181129666Y-104800001D01*
X181148964Y-105020585D01*
X181148965Y-105020592D01*
X181206275Y-105234475D01*
X181206279Y-105234486D01*
X181269753Y-105370606D01*
X181299858Y-105435167D01*
X181426868Y-105616555D01*
X181583445Y-105773132D01*
X181764833Y-105900142D01*
X181826828Y-105929050D01*
X181888091Y-105957618D01*
X181940531Y-106003790D01*
X181959683Y-106070983D01*
X181939467Y-106137865D01*
X181888091Y-106182382D01*
X181764836Y-106239856D01*
X181764834Y-106239857D01*
X181583444Y-106366868D01*
X181426868Y-106523444D01*
X181299857Y-106704834D01*
X181299856Y-106704836D01*
X181206279Y-106905513D01*
X181206275Y-106905524D01*
X181148965Y-107119407D01*
X181148964Y-107119414D01*
X181129666Y-107339998D01*
X181129666Y-107340001D01*
X181148964Y-107560585D01*
X181148965Y-107560592D01*
X181206275Y-107774475D01*
X181206279Y-107774486D01*
X181244235Y-107855883D01*
X181299858Y-107975167D01*
X181426868Y-108156555D01*
X181583445Y-108313132D01*
X181764833Y-108440142D01*
X181888682Y-108497893D01*
X181941122Y-108544065D01*
X181960274Y-108611258D01*
X181940059Y-108678139D01*
X181888683Y-108722657D01*
X181765080Y-108780294D01*
X181699658Y-108826103D01*
X181699657Y-108826104D01*
X182262425Y-109388871D01*
X182203147Y-109404755D01*
X182086853Y-109471898D01*
X181991898Y-109566853D01*
X181924755Y-109683147D01*
X181908871Y-109742424D01*
X181346104Y-109179657D01*
X181346103Y-109179658D01*
X181300295Y-109245080D01*
X181206749Y-109445690D01*
X181206745Y-109445699D01*
X181149461Y-109659490D01*
X181149459Y-109659500D01*
X181130168Y-109879999D01*
X181130168Y-109880000D01*
X181149459Y-110100499D01*
X181149461Y-110100509D01*
X181206745Y-110314300D01*
X181206749Y-110314309D01*
X181300293Y-110514916D01*
X181300295Y-110514920D01*
X181346103Y-110580341D01*
X181346104Y-110580341D01*
X181908871Y-110017574D01*
X181924755Y-110076853D01*
X181991898Y-110193147D01*
X182086853Y-110288102D01*
X182203147Y-110355245D01*
X182262425Y-110371128D01*
X181699657Y-110933894D01*
X181765084Y-110979707D01*
X181888683Y-111037342D01*
X181941122Y-111083514D01*
X181960274Y-111150708D01*
X181940058Y-111217589D01*
X181888683Y-111262106D01*
X181764833Y-111319857D01*
X181583444Y-111446868D01*
X181426868Y-111603444D01*
X181299857Y-111784834D01*
X181299856Y-111784836D01*
X181206279Y-111985513D01*
X181206275Y-111985524D01*
X181148965Y-112199407D01*
X181148964Y-112199414D01*
X181129666Y-112419998D01*
X181129666Y-112420001D01*
X181148964Y-112640585D01*
X181148965Y-112640592D01*
X181206275Y-112854475D01*
X181206279Y-112854486D01*
X181289068Y-113032028D01*
X181299858Y-113055167D01*
X181426868Y-113236555D01*
X181583445Y-113393132D01*
X181764833Y-113520142D01*
X181819422Y-113545597D01*
X181965513Y-113613720D01*
X181965515Y-113613720D01*
X181965520Y-113613723D01*
X182179409Y-113671035D01*
X182336974Y-113684820D01*
X182399998Y-113690334D01*
X182400000Y-113690334D01*
X182400002Y-113690334D01*
X182455147Y-113685509D01*
X182620591Y-113671035D01*
X182834480Y-113613723D01*
X183035167Y-113520142D01*
X183216555Y-113393132D01*
X183373132Y-113236555D01*
X183500142Y-113055167D01*
X183593723Y-112854480D01*
X183651035Y-112640591D01*
X183670334Y-112420000D01*
X183651035Y-112199409D01*
X183593723Y-111985520D01*
X183500142Y-111784833D01*
X183373132Y-111603445D01*
X183216555Y-111446868D01*
X183035167Y-111319858D01*
X183017018Y-111311395D01*
X182911317Y-111262106D01*
X182858877Y-111215934D01*
X182839725Y-111148741D01*
X182859941Y-111081859D01*
X182911317Y-111037342D01*
X183034911Y-110979709D01*
X183034919Y-110979705D01*
X183100341Y-110933895D01*
X182537574Y-110371128D01*
X182596853Y-110355245D01*
X182713147Y-110288102D01*
X182808102Y-110193147D01*
X182875245Y-110076853D01*
X182891128Y-110017574D01*
X183453895Y-110580341D01*
X183499705Y-110514919D01*
X183499709Y-110514911D01*
X183593249Y-110314314D01*
X183593254Y-110314300D01*
X183650538Y-110100509D01*
X183650540Y-110100499D01*
X183669832Y-109880000D01*
X183669832Y-109879999D01*
X183650540Y-109659500D01*
X183650538Y-109659490D01*
X183593254Y-109445699D01*
X183593250Y-109445690D01*
X183499706Y-109245084D01*
X183453894Y-109179657D01*
X182891128Y-109742424D01*
X182875245Y-109683147D01*
X182808102Y-109566853D01*
X182713147Y-109471898D01*
X182596853Y-109404755D01*
X182537574Y-109388871D01*
X183100341Y-108826104D01*
X183100341Y-108826103D01*
X183034920Y-108780295D01*
X183034916Y-108780293D01*
X182911316Y-108722657D01*
X182858877Y-108676484D01*
X182839725Y-108609291D01*
X182859941Y-108542410D01*
X182911312Y-108497895D01*
X183035167Y-108440142D01*
X183216555Y-108313132D01*
X183373132Y-108156555D01*
X183500142Y-107975167D01*
X183593723Y-107774480D01*
X183651035Y-107560591D01*
X183670334Y-107340000D01*
X183670334Y-107339998D01*
X183670685Y-107335990D01*
X183696137Y-107270921D01*
X183752728Y-107229942D01*
X183822490Y-107226064D01*
X183881894Y-107259116D01*
X184272681Y-107649903D01*
X184306166Y-107711226D01*
X184309000Y-107737584D01*
X184309000Y-114809387D01*
X184289995Y-114875357D01*
X184274209Y-114900480D01*
X184214633Y-115070737D01*
X184214630Y-115070750D01*
X184194435Y-115249996D01*
X184194435Y-115250003D01*
X184214630Y-115429249D01*
X184214631Y-115429254D01*
X184274211Y-115599523D01*
X184370184Y-115752262D01*
X184497738Y-115879816D01*
X184650478Y-115975789D01*
X184820745Y-116035368D01*
X184820750Y-116035369D01*
X184999996Y-116055565D01*
X185000000Y-116055565D01*
X185000004Y-116055565D01*
X185179249Y-116035369D01*
X185179252Y-116035368D01*
X185179255Y-116035368D01*
X185349522Y-115975789D01*
X185502262Y-115879816D01*
X185629816Y-115752262D01*
X185725789Y-115599522D01*
X185785368Y-115429255D01*
X185801667Y-115284596D01*
X185805565Y-115250003D01*
X185805565Y-115249996D01*
X185785369Y-115070750D01*
X185785366Y-115070737D01*
X185725790Y-114900480D01*
X185710005Y-114875357D01*
X185691000Y-114809387D01*
X185691000Y-107331939D01*
X185664446Y-107198448D01*
X185664445Y-107198447D01*
X185664445Y-107198443D01*
X185639092Y-107137235D01*
X185612358Y-107072693D01*
X185612357Y-107072691D01*
X185612356Y-107072689D01*
X185603552Y-107059513D01*
X185591173Y-107040987D01*
X185536736Y-106959514D01*
X185536730Y-106959507D01*
X183687639Y-105110417D01*
X183654154Y-105049094D01*
X183651792Y-105011933D01*
X183670334Y-104800000D01*
X183651035Y-104579409D01*
X183593723Y-104365520D01*
X183500142Y-104164833D01*
X183373132Y-103983445D01*
X183216555Y-103826868D01*
X183035167Y-103699858D01*
X182911907Y-103642381D01*
X182859468Y-103596210D01*
X182840316Y-103529017D01*
X182860531Y-103462136D01*
X182911908Y-103417618D01*
X183035167Y-103360142D01*
X183216555Y-103233132D01*
X183373132Y-103076555D01*
X183424023Y-103003874D01*
X183478599Y-102960252D01*
X183525597Y-102951000D01*
X187672416Y-102951000D01*
X187739455Y-102970685D01*
X187760097Y-102987319D01*
X189793364Y-105020585D01*
X191813766Y-107040987D01*
X191863355Y-107090576D01*
X191910014Y-107137235D01*
X192023182Y-107212852D01*
X192023195Y-107212859D01*
X192135295Y-107259292D01*
X192148943Y-107264945D01*
X192148947Y-107264945D01*
X192148948Y-107264946D01*
X192282439Y-107291500D01*
X192282442Y-107291500D01*
X192282443Y-107291500D01*
X192418557Y-107291500D01*
X193603306Y-107291500D01*
X193670345Y-107311185D01*
X193716100Y-107363989D01*
X193726044Y-107433147D01*
X193723081Y-107447593D01*
X193664938Y-107664586D01*
X193664936Y-107664596D01*
X193644341Y-107899999D01*
X193644341Y-107900000D01*
X193664936Y-108135403D01*
X193664938Y-108135413D01*
X193707272Y-108293407D01*
X193705609Y-108363257D01*
X193666446Y-108421119D01*
X193602218Y-108448623D01*
X193587497Y-108449500D01*
X189978084Y-108449500D01*
X189911045Y-108429815D01*
X189890403Y-108413181D01*
X189548599Y-108071377D01*
X189519238Y-108024650D01*
X189504191Y-107981649D01*
X189475789Y-107900478D01*
X189379816Y-107747738D01*
X189252262Y-107620184D01*
X189099523Y-107524211D01*
X188929254Y-107464631D01*
X188929249Y-107464630D01*
X188750004Y-107444435D01*
X188749996Y-107444435D01*
X188570750Y-107464630D01*
X188570745Y-107464631D01*
X188400476Y-107524211D01*
X188247737Y-107620184D01*
X188120184Y-107747737D01*
X188024211Y-107900476D01*
X187964631Y-108070745D01*
X187964630Y-108070750D01*
X187944435Y-108249996D01*
X187944435Y-108250003D01*
X187964630Y-108429249D01*
X187964631Y-108429254D01*
X188024211Y-108599523D01*
X188083171Y-108693356D01*
X188120184Y-108752262D01*
X188247738Y-108879816D01*
X188301580Y-108913647D01*
X188392464Y-108970754D01*
X188400478Y-108975789D01*
X188524651Y-109019238D01*
X188571377Y-109048599D01*
X189200007Y-109677230D01*
X189200010Y-109677233D01*
X189307416Y-109748999D01*
X189313190Y-109752857D01*
X189382141Y-109781417D01*
X189438943Y-109804945D01*
X189438947Y-109804945D01*
X189438948Y-109804946D01*
X189572439Y-109831500D01*
X189572442Y-109831500D01*
X189750277Y-109831500D01*
X189817316Y-109851185D01*
X189863071Y-109903989D01*
X189873015Y-109973147D01*
X189855271Y-110021472D01*
X189774211Y-110150476D01*
X189714631Y-110320745D01*
X189714630Y-110320750D01*
X189694435Y-110499996D01*
X189694435Y-110500003D01*
X189714630Y-110679249D01*
X189714631Y-110679254D01*
X189774211Y-110849523D01*
X189846566Y-110964674D01*
X189870184Y-111002262D01*
X189997738Y-111129816D01*
X190060043Y-111168965D01*
X190137427Y-111217589D01*
X190150478Y-111225789D01*
X190246224Y-111259292D01*
X190320745Y-111285368D01*
X190320750Y-111285369D01*
X190499996Y-111305565D01*
X190500000Y-111305565D01*
X190500004Y-111305565D01*
X190679249Y-111285369D01*
X190679252Y-111285368D01*
X190679255Y-111285368D01*
X190849522Y-111225789D01*
X190873560Y-111210685D01*
X190874641Y-111210006D01*
X190940613Y-111191000D01*
X193812649Y-111191000D01*
X193879688Y-111210685D01*
X193914223Y-111243876D01*
X193961505Y-111311401D01*
X194128597Y-111478493D01*
X194128603Y-111478498D01*
X194314158Y-111608425D01*
X194357783Y-111663002D01*
X194364977Y-111732500D01*
X194333454Y-111794855D01*
X194314158Y-111811575D01*
X194128597Y-111941505D01*
X193961505Y-112108597D01*
X193825965Y-112302169D01*
X193825964Y-112302171D01*
X193726098Y-112516335D01*
X193726094Y-112516344D01*
X193664938Y-112744586D01*
X193664936Y-112744596D01*
X193644341Y-112979999D01*
X193644341Y-112980000D01*
X193664936Y-113215403D01*
X193664938Y-113215413D01*
X193726094Y-113443655D01*
X193726096Y-113443659D01*
X193726097Y-113443663D01*
X193773630Y-113545597D01*
X193825965Y-113657830D01*
X193825967Y-113657834D01*
X193961501Y-113851395D01*
X193961506Y-113851402D01*
X194128597Y-114018493D01*
X194128603Y-114018498D01*
X194314158Y-114148425D01*
X194357783Y-114203002D01*
X194364977Y-114272500D01*
X194333454Y-114334855D01*
X194314158Y-114351575D01*
X194128597Y-114481505D01*
X193961505Y-114648597D01*
X193825965Y-114842169D01*
X193825964Y-114842171D01*
X193726098Y-115056335D01*
X193726094Y-115056344D01*
X193664938Y-115284586D01*
X193664936Y-115284596D01*
X193644341Y-115519999D01*
X193644341Y-115520000D01*
X193664936Y-115755403D01*
X193664938Y-115755413D01*
X193726094Y-115983655D01*
X193726096Y-115983659D01*
X193726097Y-115983663D01*
X193750208Y-116035368D01*
X193825965Y-116197830D01*
X193825967Y-116197834D01*
X193961501Y-116391395D01*
X193961506Y-116391402D01*
X194128597Y-116558493D01*
X194128603Y-116558498D01*
X194314158Y-116688425D01*
X194357783Y-116743002D01*
X194364977Y-116812500D01*
X194333454Y-116874855D01*
X194314158Y-116891575D01*
X194128597Y-117021505D01*
X193961505Y-117188597D01*
X193825965Y-117382169D01*
X193825964Y-117382171D01*
X193726098Y-117596335D01*
X193726094Y-117596344D01*
X193664938Y-117824586D01*
X193664936Y-117824596D01*
X193644341Y-118059999D01*
X193644341Y-118060000D01*
X193664936Y-118295403D01*
X193664938Y-118295413D01*
X193726094Y-118523655D01*
X193726096Y-118523659D01*
X193726097Y-118523663D01*
X193822081Y-118729500D01*
X193825965Y-118737830D01*
X193825967Y-118737834D01*
X193961501Y-118931395D01*
X193961506Y-118931402D01*
X194128597Y-119098493D01*
X194128603Y-119098498D01*
X194314158Y-119228425D01*
X194357783Y-119283002D01*
X194364977Y-119352500D01*
X194333454Y-119414855D01*
X194314158Y-119431575D01*
X194128597Y-119561505D01*
X193961505Y-119728597D01*
X193825965Y-119922169D01*
X193825964Y-119922171D01*
X193726098Y-120136335D01*
X193726094Y-120136344D01*
X193664938Y-120364586D01*
X193664936Y-120364596D01*
X193644341Y-120599999D01*
X193644341Y-120600000D01*
X193664936Y-120835403D01*
X193664938Y-120835413D01*
X193726094Y-121063655D01*
X193726096Y-121063659D01*
X193726097Y-121063663D01*
X193776770Y-121172331D01*
X193825965Y-121277830D01*
X193825967Y-121277834D01*
X193914932Y-121404888D01*
X193959413Y-121468414D01*
X193961501Y-121471395D01*
X193961506Y-121471402D01*
X194128597Y-121638493D01*
X194128603Y-121638498D01*
X194314158Y-121768425D01*
X194357783Y-121823002D01*
X194364977Y-121892500D01*
X194333454Y-121954855D01*
X194314158Y-121971575D01*
X194128597Y-122101505D01*
X193961505Y-122268597D01*
X193825965Y-122462169D01*
X193825964Y-122462171D01*
X193726098Y-122676335D01*
X193726094Y-122676344D01*
X193664938Y-122904586D01*
X193664936Y-122904596D01*
X193644341Y-123139999D01*
X193644341Y-123140000D01*
X193664936Y-123375403D01*
X193664938Y-123375413D01*
X193726094Y-123603655D01*
X193726096Y-123603659D01*
X193726097Y-123603663D01*
X193771746Y-123701557D01*
X193825965Y-123817830D01*
X193825967Y-123817834D01*
X193961501Y-124011395D01*
X193961506Y-124011402D01*
X194087923Y-124137819D01*
X194121408Y-124199142D01*
X194116424Y-124268834D01*
X194074552Y-124324767D01*
X194009088Y-124349184D01*
X194000242Y-124349500D01*
X171411306Y-124349500D01*
X171237341Y-124384103D01*
X171237332Y-124384106D01*
X171073459Y-124451983D01*
X171073446Y-124451990D01*
X170925965Y-124550535D01*
X170925961Y-124550538D01*
X170800538Y-124675961D01*
X170800535Y-124675965D01*
X170701990Y-124823446D01*
X170701983Y-124823459D01*
X170634106Y-124987332D01*
X170634103Y-124987341D01*
X170599500Y-125161304D01*
X170599500Y-125338695D01*
X170634103Y-125512658D01*
X170634106Y-125512667D01*
X170701983Y-125676540D01*
X170701990Y-125676553D01*
X170800535Y-125824034D01*
X170800538Y-125824038D01*
X170914319Y-125937819D01*
X170947804Y-125999142D01*
X170942820Y-126068834D01*
X170900948Y-126124767D01*
X170835484Y-126149184D01*
X170826638Y-126149500D01*
X159627085Y-126149500D01*
X159560046Y-126129815D01*
X159514291Y-126077011D01*
X159504347Y-126007853D01*
X159533372Y-125944297D01*
X159539404Y-125937819D01*
X161536730Y-123940492D01*
X161536735Y-123940487D01*
X161612356Y-123827311D01*
X161664445Y-123701557D01*
X161678715Y-123629816D01*
X161691000Y-123568058D01*
X161691000Y-121931942D01*
X161691000Y-118378711D01*
X166149500Y-118378711D01*
X166149500Y-118621288D01*
X166181161Y-118861785D01*
X166243947Y-119096104D01*
X166336773Y-119320205D01*
X166336776Y-119320212D01*
X166458064Y-119530289D01*
X166458066Y-119530292D01*
X166458067Y-119530293D01*
X166605733Y-119722736D01*
X166605739Y-119722743D01*
X166777256Y-119894260D01*
X166777262Y-119894265D01*
X166969711Y-120041936D01*
X167179788Y-120163224D01*
X167403900Y-120256054D01*
X167638211Y-120318838D01*
X167818586Y-120342584D01*
X167878711Y-120350500D01*
X167878712Y-120350500D01*
X168121289Y-120350500D01*
X168169388Y-120344167D01*
X168361789Y-120318838D01*
X168596100Y-120256054D01*
X168820212Y-120163224D01*
X169030289Y-120041936D01*
X169222738Y-119894265D01*
X169394265Y-119722738D01*
X169541936Y-119530289D01*
X169663224Y-119320212D01*
X169756054Y-119096100D01*
X169818838Y-118861789D01*
X169850500Y-118621288D01*
X169850500Y-118378712D01*
X169818838Y-118138211D01*
X169756054Y-117903900D01*
X169663224Y-117679788D01*
X169541936Y-117469711D01*
X169415236Y-117304592D01*
X169394266Y-117277263D01*
X169394260Y-117277256D01*
X169222743Y-117105739D01*
X169222736Y-117105733D01*
X169030293Y-116958067D01*
X169030292Y-116958066D01*
X169030289Y-116958064D01*
X168820212Y-116836776D01*
X168820205Y-116836773D01*
X168596104Y-116743947D01*
X168409831Y-116694035D01*
X168361789Y-116681162D01*
X168361788Y-116681161D01*
X168361785Y-116681161D01*
X168121289Y-116649500D01*
X168121288Y-116649500D01*
X167878712Y-116649500D01*
X167878711Y-116649500D01*
X167638214Y-116681161D01*
X167403895Y-116743947D01*
X167179794Y-116836773D01*
X167179785Y-116836777D01*
X166969706Y-116958067D01*
X166777263Y-117105733D01*
X166777256Y-117105739D01*
X166605739Y-117277256D01*
X166605733Y-117277263D01*
X166458067Y-117469706D01*
X166336777Y-117679785D01*
X166336773Y-117679794D01*
X166243947Y-117903895D01*
X166181161Y-118138214D01*
X166149500Y-118378711D01*
X161691000Y-118378711D01*
X161691000Y-115712584D01*
X161710685Y-115645545D01*
X161727319Y-115624903D01*
X170536730Y-106815492D01*
X170536735Y-106815487D01*
X170612356Y-106702311D01*
X170619527Y-106685000D01*
X170664443Y-106576561D01*
X170664445Y-106576557D01*
X170679673Y-106500000D01*
X170691000Y-106443059D01*
X170691000Y-102190612D01*
X170710007Y-102124639D01*
X170725788Y-102099524D01*
X170728263Y-102092452D01*
X170785368Y-101929255D01*
X170785369Y-101929249D01*
X170805565Y-101750003D01*
X170805565Y-101749995D01*
X170800426Y-101704383D01*
X170812481Y-101635561D01*
X170859830Y-101584182D01*
X170923646Y-101566500D01*
X181132419Y-101566500D01*
X181199458Y-101586185D01*
G37*
%TD.AperFunction*%
%TA.AperFunction,Conductor*%
G36*
X198005395Y-50850972D02*
G01*
X198188800Y-50867017D01*
X198210084Y-50870769D01*
X198382678Y-50917016D01*
X198402985Y-50924408D01*
X198564915Y-50999918D01*
X198583633Y-51010725D01*
X198730000Y-51113212D01*
X198746558Y-51127106D01*
X198872893Y-51253441D01*
X198886787Y-51269999D01*
X198989274Y-51416366D01*
X199000081Y-51435084D01*
X199075591Y-51597014D01*
X199082984Y-51617325D01*
X199129229Y-51789914D01*
X199132982Y-51811200D01*
X199149028Y-51994603D01*
X199149500Y-52005411D01*
X199149500Y-118116936D01*
X199129815Y-118183975D01*
X199077011Y-118229730D01*
X199007853Y-118239674D01*
X198984547Y-118233978D01*
X198929260Y-118214633D01*
X198929249Y-118214630D01*
X198750004Y-118194435D01*
X198749996Y-118194435D01*
X198570750Y-118214630D01*
X198570745Y-118214631D01*
X198400476Y-118274211D01*
X198247737Y-118370184D01*
X198120184Y-118497737D01*
X198024211Y-118650476D01*
X197964631Y-118820745D01*
X197964630Y-118820750D01*
X197944435Y-118999996D01*
X197944435Y-119000003D01*
X197964630Y-119179249D01*
X197964631Y-119179254D01*
X198024211Y-119349524D01*
X198039993Y-119374639D01*
X198059000Y-119440612D01*
X198059000Y-119559387D01*
X198039995Y-119625357D01*
X198024209Y-119650480D01*
X197964633Y-119820737D01*
X197964630Y-119820750D01*
X197944435Y-119999996D01*
X197944435Y-120000003D01*
X197964630Y-120179249D01*
X197964631Y-120179254D01*
X198024211Y-120349524D01*
X198039993Y-120374639D01*
X198059000Y-120440612D01*
X198059000Y-120559387D01*
X198039995Y-120625357D01*
X198024209Y-120650480D01*
X197964633Y-120820737D01*
X197964630Y-120820750D01*
X197944435Y-120999996D01*
X197944435Y-121000003D01*
X197964630Y-121179249D01*
X197964631Y-121179254D01*
X198024211Y-121349524D01*
X198039993Y-121374639D01*
X198059000Y-121440612D01*
X198059000Y-121559387D01*
X198039995Y-121625357D01*
X198024209Y-121650480D01*
X197964633Y-121820737D01*
X197964630Y-121820750D01*
X197944435Y-121999996D01*
X197944435Y-122000003D01*
X197964630Y-122179249D01*
X197964631Y-122179254D01*
X198024211Y-122349524D01*
X198039993Y-122374639D01*
X198059000Y-122440612D01*
X198059000Y-122559387D01*
X198039995Y-122625357D01*
X198024209Y-122650480D01*
X197964633Y-122820737D01*
X197964630Y-122820750D01*
X197944435Y-122999996D01*
X197944435Y-123000003D01*
X197964630Y-123179249D01*
X197964631Y-123179254D01*
X198024211Y-123349524D01*
X198039993Y-123374639D01*
X198059000Y-123440612D01*
X198059000Y-123559387D01*
X198039995Y-123625357D01*
X198024209Y-123650480D01*
X197964633Y-123820737D01*
X197964630Y-123820750D01*
X197944435Y-123999996D01*
X197944435Y-124000003D01*
X197964630Y-124179246D01*
X197964631Y-124179252D01*
X197964631Y-124179254D01*
X197964632Y-124179255D01*
X197966484Y-124184547D01*
X197970045Y-124254325D01*
X197935316Y-124314952D01*
X197873323Y-124347179D01*
X197849442Y-124349500D01*
X195999758Y-124349500D01*
X195932719Y-124329815D01*
X195886964Y-124277011D01*
X195877020Y-124207853D01*
X195906045Y-124144297D01*
X195912077Y-124137819D01*
X195972254Y-124077642D01*
X196038495Y-124011401D01*
X196174035Y-123817830D01*
X196273903Y-123603663D01*
X196335063Y-123375408D01*
X196355659Y-123140000D01*
X196335063Y-122904592D01*
X196273903Y-122676337D01*
X196174035Y-122462171D01*
X196158940Y-122440612D01*
X196038494Y-122268597D01*
X195871402Y-122101506D01*
X195871396Y-122101501D01*
X195685842Y-121971575D01*
X195642217Y-121916998D01*
X195635023Y-121847500D01*
X195666546Y-121785145D01*
X195685842Y-121768425D01*
X195712151Y-121750003D01*
X195871401Y-121638495D01*
X196038495Y-121471401D01*
X196174035Y-121277830D01*
X196273903Y-121063663D01*
X196335063Y-120835408D01*
X196355659Y-120600000D01*
X196335063Y-120364592D01*
X196273903Y-120136337D01*
X196174035Y-119922171D01*
X196103011Y-119820737D01*
X196038494Y-119728597D01*
X195871402Y-119561506D01*
X195871396Y-119561501D01*
X195685842Y-119431575D01*
X195642217Y-119376998D01*
X195635023Y-119307500D01*
X195666546Y-119245145D01*
X195685842Y-119228425D01*
X195756072Y-119179249D01*
X195871401Y-119098495D01*
X196038495Y-118931401D01*
X196174035Y-118737830D01*
X196273903Y-118523663D01*
X196335063Y-118295408D01*
X196355659Y-118060000D01*
X196335063Y-117824592D01*
X196273903Y-117596337D01*
X196174035Y-117382171D01*
X196159764Y-117361789D01*
X196038494Y-117188597D01*
X195871402Y-117021506D01*
X195871396Y-117021501D01*
X195685842Y-116891575D01*
X195642217Y-116836998D01*
X195635023Y-116767500D01*
X195666546Y-116705145D01*
X195685842Y-116688425D01*
X195714159Y-116668597D01*
X195871401Y-116558495D01*
X196038495Y-116391401D01*
X196174035Y-116197830D01*
X196273903Y-115983663D01*
X196335063Y-115755408D01*
X196355659Y-115520000D01*
X196335063Y-115284592D01*
X196277764Y-115070745D01*
X196273905Y-115056344D01*
X196273904Y-115056343D01*
X196273903Y-115056337D01*
X196174035Y-114842171D01*
X196151165Y-114809508D01*
X196038494Y-114648597D01*
X195871402Y-114481506D01*
X195871396Y-114481501D01*
X195685842Y-114351575D01*
X195642217Y-114296998D01*
X195635023Y-114227500D01*
X195666546Y-114165145D01*
X195685842Y-114148425D01*
X195714159Y-114128597D01*
X195871401Y-114018495D01*
X196038495Y-113851401D01*
X196174035Y-113657830D01*
X196273903Y-113443663D01*
X196335063Y-113215408D01*
X196355659Y-112980000D01*
X196335063Y-112744592D01*
X196273903Y-112516337D01*
X196174035Y-112302171D01*
X196102080Y-112199407D01*
X196038494Y-112108597D01*
X195871402Y-111941506D01*
X195871396Y-111941501D01*
X195685842Y-111811575D01*
X195642217Y-111756998D01*
X195635023Y-111687500D01*
X195666546Y-111625145D01*
X195685842Y-111608425D01*
X195761334Y-111555565D01*
X195871401Y-111478495D01*
X196038495Y-111311401D01*
X196174035Y-111117830D01*
X196273903Y-110903663D01*
X196335063Y-110675408D01*
X196355659Y-110440000D01*
X196355126Y-110433913D01*
X196335063Y-110204596D01*
X196335063Y-110204592D01*
X196273903Y-109976337D01*
X196174035Y-109762171D01*
X196172537Y-109760031D01*
X196108247Y-109668215D01*
X196085920Y-109602009D01*
X196102930Y-109534242D01*
X196122137Y-109509415D01*
X197536735Y-108094818D01*
X197612356Y-107981643D01*
X197615039Y-107975167D01*
X197624158Y-107953149D01*
X197664445Y-107855889D01*
X197680637Y-107774486D01*
X197691000Y-107722391D01*
X197691000Y-95640612D01*
X197710007Y-95574639D01*
X197725788Y-95549524D01*
X197725789Y-95549522D01*
X197785368Y-95379255D01*
X197785369Y-95379249D01*
X197805565Y-95200003D01*
X197805565Y-95199996D01*
X197785369Y-95020750D01*
X197785368Y-95020745D01*
X197725789Y-94850478D01*
X197725188Y-94849522D01*
X197629815Y-94697737D01*
X197502262Y-94570184D01*
X197349523Y-94474211D01*
X197179254Y-94414631D01*
X197179250Y-94414630D01*
X197041616Y-94399123D01*
X196977202Y-94372056D01*
X196937647Y-94314461D01*
X196931500Y-94275903D01*
X196931500Y-93832439D01*
X196904946Y-93698948D01*
X196904945Y-93698947D01*
X196904945Y-93698943D01*
X196904761Y-93698498D01*
X196852858Y-93573193D01*
X196852857Y-93573191D01*
X196852781Y-93573078D01*
X196828498Y-93536735D01*
X196828498Y-93536734D01*
X196828496Y-93536733D01*
X196777235Y-93460014D01*
X196777232Y-93460010D01*
X196359812Y-93042591D01*
X196326327Y-92981268D01*
X196327718Y-92922815D01*
X196335063Y-92895408D01*
X196355659Y-92660000D01*
X196335063Y-92424592D01*
X196281794Y-92225788D01*
X196273905Y-92196344D01*
X196273904Y-92196343D01*
X196273903Y-92196337D01*
X196174035Y-91982171D01*
X196169567Y-91975789D01*
X196038494Y-91788597D01*
X195871402Y-91621506D01*
X195871396Y-91621501D01*
X195685842Y-91491575D01*
X195642217Y-91436998D01*
X195635023Y-91367500D01*
X195666546Y-91305145D01*
X195685842Y-91288425D01*
X195775929Y-91225345D01*
X195871401Y-91158495D01*
X196038495Y-90991401D01*
X196174035Y-90797830D01*
X196273903Y-90583663D01*
X196335063Y-90355408D01*
X196355659Y-90120000D01*
X196335063Y-89884592D01*
X196273903Y-89656337D01*
X196174035Y-89442171D01*
X196123630Y-89370184D01*
X196038494Y-89248597D01*
X195871402Y-89081506D01*
X195871396Y-89081501D01*
X195685842Y-88951575D01*
X195642217Y-88896998D01*
X195635023Y-88827500D01*
X195666546Y-88765145D01*
X195685842Y-88748425D01*
X195786662Y-88677830D01*
X195871401Y-88618495D01*
X196038495Y-88451401D01*
X196174035Y-88257830D01*
X196273903Y-88043663D01*
X196335063Y-87815408D01*
X196355659Y-87580000D01*
X196335063Y-87344592D01*
X196273903Y-87116337D01*
X196174035Y-86902171D01*
X196165734Y-86890315D01*
X196038494Y-86708597D01*
X195871402Y-86541506D01*
X195871396Y-86541501D01*
X195685842Y-86411575D01*
X195642217Y-86356998D01*
X195635023Y-86287500D01*
X195666546Y-86225145D01*
X195685842Y-86208425D01*
X195805723Y-86124483D01*
X195871401Y-86078495D01*
X196038495Y-85911401D01*
X196174035Y-85717830D01*
X196273903Y-85503663D01*
X196335063Y-85275408D01*
X196355659Y-85040000D01*
X196335063Y-84804592D01*
X196273903Y-84576337D01*
X196174035Y-84362171D01*
X196155140Y-84335185D01*
X196038494Y-84168597D01*
X195871402Y-84001506D01*
X195871396Y-84001501D01*
X195685842Y-83871575D01*
X195642217Y-83816998D01*
X195635023Y-83747500D01*
X195666546Y-83685145D01*
X195685842Y-83668425D01*
X195708026Y-83652891D01*
X195871401Y-83538495D01*
X196038495Y-83371401D01*
X196174035Y-83177830D01*
X196273903Y-82963663D01*
X196335063Y-82735408D01*
X196355659Y-82500000D01*
X196335063Y-82264592D01*
X196280111Y-82059507D01*
X196273905Y-82036344D01*
X196273904Y-82036343D01*
X196273903Y-82036337D01*
X196174035Y-81822171D01*
X196125085Y-81752262D01*
X196038494Y-81628597D01*
X195871402Y-81461506D01*
X195871396Y-81461501D01*
X195685842Y-81331575D01*
X195642217Y-81276998D01*
X195635023Y-81207500D01*
X195666546Y-81145145D01*
X195685842Y-81128425D01*
X195708026Y-81112891D01*
X195871401Y-80998495D01*
X196038495Y-80831401D01*
X196174035Y-80637830D01*
X196273903Y-80423663D01*
X196335063Y-80195408D01*
X196355659Y-79960000D01*
X196335063Y-79724592D01*
X196273903Y-79496337D01*
X196174035Y-79282171D01*
X196102079Y-79179407D01*
X196038496Y-79088600D01*
X195984163Y-79034267D01*
X195916179Y-78966283D01*
X195882696Y-78904963D01*
X195887680Y-78835271D01*
X195929551Y-78779337D01*
X195960529Y-78762422D01*
X196092086Y-78713354D01*
X196092093Y-78713350D01*
X196207187Y-78627190D01*
X196207190Y-78627187D01*
X196293350Y-78512093D01*
X196293354Y-78512086D01*
X196343596Y-78377379D01*
X196343598Y-78377372D01*
X196349999Y-78317844D01*
X196350000Y-78317827D01*
X196350000Y-77670000D01*
X195433012Y-77670000D01*
X195465925Y-77612993D01*
X195500000Y-77485826D01*
X195500000Y-77354174D01*
X195465925Y-77227007D01*
X195433012Y-77170000D01*
X196350000Y-77170000D01*
X196350000Y-76522172D01*
X196349999Y-76522155D01*
X196343598Y-76462627D01*
X196343596Y-76462620D01*
X196293354Y-76327913D01*
X196293350Y-76327906D01*
X196207190Y-76212812D01*
X196207187Y-76212809D01*
X196092093Y-76126649D01*
X196092086Y-76126645D01*
X195957379Y-76076403D01*
X195957372Y-76076401D01*
X195897844Y-76070000D01*
X195250000Y-76070000D01*
X195250000Y-76986988D01*
X195192993Y-76954075D01*
X195065826Y-76920000D01*
X194934174Y-76920000D01*
X194807007Y-76954075D01*
X194750000Y-76986988D01*
X194750000Y-76070000D01*
X194102155Y-76070000D01*
X194042627Y-76076401D01*
X194042620Y-76076403D01*
X193907913Y-76126645D01*
X193907906Y-76126649D01*
X193792812Y-76212809D01*
X193792809Y-76212812D01*
X193706649Y-76327906D01*
X193706645Y-76327913D01*
X193656403Y-76462620D01*
X193656401Y-76462627D01*
X193650000Y-76522155D01*
X193650000Y-77170000D01*
X194566988Y-77170000D01*
X194534075Y-77227007D01*
X194500000Y-77354174D01*
X194500000Y-77485826D01*
X194534075Y-77612993D01*
X194566988Y-77670000D01*
X193650000Y-77670000D01*
X193650000Y-78317844D01*
X193656401Y-78377372D01*
X193656403Y-78377379D01*
X193706645Y-78512086D01*
X193706649Y-78512093D01*
X193792809Y-78627187D01*
X193792812Y-78627190D01*
X193907906Y-78713350D01*
X193907913Y-78713354D01*
X194039470Y-78762421D01*
X194095403Y-78804292D01*
X194119821Y-78869756D01*
X194104970Y-78938029D01*
X194083819Y-78966284D01*
X193961503Y-79088600D01*
X193825965Y-79282169D01*
X193825964Y-79282171D01*
X193726098Y-79496335D01*
X193726094Y-79496344D01*
X193664938Y-79724586D01*
X193664936Y-79724596D01*
X193650854Y-79885550D01*
X193625401Y-79950619D01*
X193568810Y-79991597D01*
X193499048Y-79995475D01*
X193439645Y-79962423D01*
X185190492Y-71713269D01*
X185190485Y-71713263D01*
X185077312Y-71637644D01*
X185077309Y-71637642D01*
X184951561Y-71585556D01*
X184951551Y-71585553D01*
X184818060Y-71559000D01*
X184818058Y-71559000D01*
X176837584Y-71559000D01*
X176770545Y-71539315D01*
X176749903Y-71522681D01*
X173440492Y-68213269D01*
X173440485Y-68213263D01*
X173327312Y-68137644D01*
X173327309Y-68137642D01*
X173201561Y-68085556D01*
X173201557Y-68085555D01*
X173199355Y-68085117D01*
X173160112Y-68077311D01*
X173160111Y-68077310D01*
X173160110Y-68077310D01*
X173068060Y-68059000D01*
X173068058Y-68059000D01*
X164587583Y-68059000D01*
X164520544Y-68039315D01*
X164499902Y-68022681D01*
X164089856Y-67612635D01*
X164056371Y-67551312D01*
X164054318Y-67511063D01*
X164055143Y-67503749D01*
X164055565Y-67500000D01*
X164052020Y-67468534D01*
X164035369Y-67320750D01*
X164035368Y-67320745D01*
X164016564Y-67267007D01*
X163975789Y-67150478D01*
X163879816Y-66997738D01*
X163752262Y-66870184D01*
X163599523Y-66774211D01*
X163429254Y-66714631D01*
X163429249Y-66714630D01*
X163250004Y-66694435D01*
X163249996Y-66694435D01*
X163070750Y-66714630D01*
X163070745Y-66714631D01*
X162900476Y-66774211D01*
X162747737Y-66870184D01*
X162620184Y-66997737D01*
X162524211Y-67150476D01*
X162464631Y-67320745D01*
X162464630Y-67320750D01*
X162444012Y-67503749D01*
X162416946Y-67568163D01*
X162359351Y-67607719D01*
X162289514Y-67609856D01*
X162233111Y-67577547D01*
X159118834Y-64463269D01*
X159118827Y-64463263D01*
X159005654Y-64387644D01*
X159005651Y-64387642D01*
X158879903Y-64335556D01*
X158879893Y-64335553D01*
X158746402Y-64309000D01*
X158746400Y-64309000D01*
X150681942Y-64309000D01*
X150681940Y-64309000D01*
X150548448Y-64335553D01*
X150548438Y-64335556D01*
X150422690Y-64387642D01*
X150422687Y-64387644D01*
X150309514Y-64463263D01*
X150150347Y-64622430D01*
X150089024Y-64655914D01*
X150019332Y-64650930D01*
X149963399Y-64609058D01*
X149940194Y-64554148D01*
X149913477Y-64385466D01*
X149850220Y-64190781D01*
X149850218Y-64190778D01*
X149850218Y-64190776D01*
X149816503Y-64124607D01*
X149757287Y-64008390D01*
X149721865Y-63959635D01*
X186807000Y-63959635D01*
X186807000Y-69440370D01*
X186807001Y-69440376D01*
X186813408Y-69499983D01*
X186863702Y-69634828D01*
X186863706Y-69634835D01*
X186949952Y-69750044D01*
X186949955Y-69750047D01*
X187065164Y-69836293D01*
X187065171Y-69836297D01*
X187200017Y-69886591D01*
X187200016Y-69886591D01*
X187206944Y-69887335D01*
X187259627Y-69893000D01*
X190592154Y-69892999D01*
X190659192Y-69912684D01*
X190704947Y-69965488D01*
X190715771Y-70026727D01*
X190713181Y-70059629D01*
X191549020Y-70895468D01*
X191430306Y-70981719D01*
X191281719Y-71130306D01*
X191195468Y-71249020D01*
X190362510Y-70416062D01*
X190271432Y-70526158D01*
X190271430Y-70526161D01*
X190102708Y-70792025D01*
X190102705Y-70792031D01*
X189968636Y-71076940D01*
X189968634Y-71076945D01*
X189871329Y-71376418D01*
X189812323Y-71685736D01*
X189812322Y-71685743D01*
X189792552Y-71999994D01*
X189792552Y-72000005D01*
X189812322Y-72314256D01*
X189812323Y-72314263D01*
X189871329Y-72623581D01*
X189968634Y-72923054D01*
X189968636Y-72923059D01*
X190102705Y-73207968D01*
X190102708Y-73207974D01*
X190271428Y-73473836D01*
X190362510Y-73583935D01*
X191195467Y-72750978D01*
X191281719Y-72869694D01*
X191430306Y-73018281D01*
X191549020Y-73104531D01*
X190713181Y-73940369D01*
X190713182Y-73940371D01*
X190956430Y-74117100D01*
X190956448Y-74117112D01*
X191232381Y-74268807D01*
X191232389Y-74268811D01*
X191525152Y-74384724D01*
X191525155Y-74384725D01*
X191830147Y-74463033D01*
X191830160Y-74463035D01*
X192142544Y-74502499D01*
X192142558Y-74502500D01*
X192457442Y-74502500D01*
X192457455Y-74502499D01*
X192769839Y-74463035D01*
X192769852Y-74463033D01*
X193074844Y-74384725D01*
X193074847Y-74384724D01*
X193367610Y-74268811D01*
X193367618Y-74268807D01*
X193643551Y-74117112D01*
X193643561Y-74117105D01*
X193886816Y-73940369D01*
X193886817Y-73940369D01*
X193050979Y-73104531D01*
X193169694Y-73018281D01*
X193318281Y-72869694D01*
X193404531Y-72750979D01*
X194237488Y-73583936D01*
X194328574Y-73473831D01*
X194497291Y-73207974D01*
X194497294Y-73207968D01*
X194631363Y-72923059D01*
X194631365Y-72923054D01*
X194728670Y-72623581D01*
X194787676Y-72314263D01*
X194787677Y-72314256D01*
X194807515Y-71998935D01*
X194831370Y-71933264D01*
X194886942Y-71890915D01*
X194956589Y-71885333D01*
X194982156Y-71893644D01*
X195050132Y-71924237D01*
X195076160Y-71935952D01*
X195076162Y-71935953D01*
X195076165Y-71935954D01*
X195076168Y-71935955D01*
X195076182Y-71935960D01*
X195281699Y-72000001D01*
X195376522Y-72029549D01*
X195685971Y-72086258D01*
X196000000Y-72105253D01*
X196314029Y-72086258D01*
X196623478Y-72029549D01*
X196923835Y-71935954D01*
X197210721Y-71806837D01*
X197479952Y-71644081D01*
X197488169Y-71637644D01*
X197634908Y-71522681D01*
X197727602Y-71450060D01*
X197950060Y-71227602D01*
X198095843Y-71041523D01*
X198144075Y-70979960D01*
X198144075Y-70979958D01*
X198144081Y-70979952D01*
X198306837Y-70710721D01*
X198435954Y-70423835D01*
X198529549Y-70123478D01*
X198586258Y-69814029D01*
X198605253Y-69500000D01*
X198586258Y-69185971D01*
X198529549Y-68876522D01*
X198464318Y-68667187D01*
X198435960Y-68576183D01*
X198435956Y-68576172D01*
X198435954Y-68576165D01*
X198306837Y-68289279D01*
X198144081Y-68020048D01*
X198144078Y-68020044D01*
X198144075Y-68020039D01*
X197950057Y-67772394D01*
X197727605Y-67549942D01*
X197479960Y-67355924D01*
X197440967Y-67332352D01*
X197210721Y-67193163D01*
X196923835Y-67064046D01*
X196923830Y-67064044D01*
X196923827Y-67064043D01*
X196923816Y-67064039D01*
X196623486Y-66970453D01*
X196623482Y-66970452D01*
X196623478Y-66970451D01*
X196314029Y-66913742D01*
X196314028Y-66913741D01*
X196314023Y-66913741D01*
X196000000Y-66894747D01*
X195685976Y-66913741D01*
X195685971Y-66913742D01*
X195376522Y-66970451D01*
X195376519Y-66970451D01*
X195376513Y-66970453D01*
X195076183Y-67064039D01*
X195076172Y-67064043D01*
X194789283Y-67193161D01*
X194789281Y-67193162D01*
X194520039Y-67355924D01*
X194272394Y-67549942D01*
X194049942Y-67772394D01*
X193855924Y-68020039D01*
X193693162Y-68289281D01*
X193693161Y-68289283D01*
X193564043Y-68576172D01*
X193564039Y-68576183D01*
X193470453Y-68876513D01*
X193438968Y-69048316D01*
X193407521Y-69110709D01*
X193347334Y-69146196D01*
X193277516Y-69143510D01*
X193220234Y-69103504D01*
X193193673Y-69038880D01*
X193192999Y-69025981D01*
X193192999Y-63959628D01*
X193186591Y-63900017D01*
X193165245Y-63842786D01*
X193136297Y-63765171D01*
X193136293Y-63765164D01*
X193050047Y-63649955D01*
X193050044Y-63649952D01*
X192934835Y-63563706D01*
X192934828Y-63563702D01*
X192799982Y-63513408D01*
X192799983Y-63513408D01*
X192740383Y-63507001D01*
X192740381Y-63507000D01*
X192740373Y-63507000D01*
X192740364Y-63507000D01*
X187259629Y-63507000D01*
X187259623Y-63507001D01*
X187200016Y-63513408D01*
X187065171Y-63563702D01*
X187065164Y-63563706D01*
X186949955Y-63649952D01*
X186949952Y-63649955D01*
X186863706Y-63765164D01*
X186863702Y-63765171D01*
X186813408Y-63900017D01*
X186807001Y-63959616D01*
X186807001Y-63959623D01*
X186807000Y-63959635D01*
X149721865Y-63959635D01*
X149636971Y-63842786D01*
X149492213Y-63698028D01*
X149326614Y-63577715D01*
X149299112Y-63563702D01*
X149233917Y-63530483D01*
X149183123Y-63482511D01*
X149166328Y-63414690D01*
X149188865Y-63348555D01*
X149233917Y-63309516D01*
X149326610Y-63262287D01*
X149347770Y-63246913D01*
X149492213Y-63141971D01*
X149492215Y-63141968D01*
X149492219Y-63141966D01*
X149636966Y-62997219D01*
X149636968Y-62997215D01*
X149636971Y-62997213D01*
X149689732Y-62924590D01*
X149757287Y-62831610D01*
X149850220Y-62649219D01*
X149913477Y-62454534D01*
X149945500Y-62252352D01*
X149945500Y-62047648D01*
X149913477Y-61845466D01*
X149850220Y-61650781D01*
X149850218Y-61650778D01*
X149850218Y-61650776D01*
X149795708Y-61543796D01*
X149757287Y-61468390D01*
X149749407Y-61457544D01*
X149636971Y-61302786D01*
X149605736Y-61271551D01*
X149572251Y-61210228D01*
X149577235Y-61140536D01*
X149619107Y-61084603D01*
X149650080Y-61067689D01*
X149687331Y-61053796D01*
X149802546Y-60967546D01*
X149888796Y-60852331D01*
X149939091Y-60717483D01*
X149945500Y-60657873D01*
X149945499Y-59102135D01*
X152649500Y-59102135D01*
X152649500Y-60897870D01*
X152649501Y-60897876D01*
X152655908Y-60957483D01*
X152706202Y-61092328D01*
X152706206Y-61092335D01*
X152792452Y-61207544D01*
X152792455Y-61207547D01*
X152907664Y-61293793D01*
X152907671Y-61293797D01*
X153042517Y-61344091D01*
X153042516Y-61344091D01*
X153049444Y-61344835D01*
X153102127Y-61350500D01*
X154897872Y-61350499D01*
X154957483Y-61344091D01*
X155092331Y-61293796D01*
X155207546Y-61207546D01*
X155293796Y-61092331D01*
X155302049Y-61070205D01*
X155340337Y-60967547D01*
X155343002Y-60960401D01*
X155384872Y-60904468D01*
X155450337Y-60880050D01*
X155518610Y-60894901D01*
X155546865Y-60916053D01*
X155668917Y-61038105D01*
X155862421Y-61173600D01*
X156076507Y-61273429D01*
X156076516Y-61273433D01*
X156290000Y-61330634D01*
X156290000Y-60433012D01*
X156347007Y-60465925D01*
X156474174Y-60500000D01*
X156605826Y-60500000D01*
X156732993Y-60465925D01*
X156790000Y-60433012D01*
X156790000Y-61330633D01*
X157003483Y-61273433D01*
X157003492Y-61273429D01*
X157217578Y-61173600D01*
X157411082Y-61038105D01*
X157578105Y-60871082D01*
X157713600Y-60677578D01*
X157813429Y-60463492D01*
X157813432Y-60463486D01*
X157870636Y-60250000D01*
X156973012Y-60250000D01*
X157005925Y-60192993D01*
X157040000Y-60065826D01*
X157040000Y-59934174D01*
X157005925Y-59807007D01*
X156973012Y-59750000D01*
X157870636Y-59750000D01*
X157870635Y-59749999D01*
X157813432Y-59536513D01*
X157813429Y-59536507D01*
X157727455Y-59352135D01*
X161399500Y-59352135D01*
X161399500Y-61147870D01*
X161399501Y-61147876D01*
X161405908Y-61207483D01*
X161456202Y-61342328D01*
X161456206Y-61342335D01*
X161542452Y-61457544D01*
X161542455Y-61457547D01*
X161657664Y-61543793D01*
X161657671Y-61543797D01*
X161792517Y-61594091D01*
X161792516Y-61594091D01*
X161799444Y-61594835D01*
X161852127Y-61600500D01*
X163647872Y-61600499D01*
X163707483Y-61594091D01*
X163842331Y-61543796D01*
X163957546Y-61457546D01*
X164043796Y-61342331D01*
X164093002Y-61210401D01*
X164134872Y-61154468D01*
X164200337Y-61130050D01*
X164268610Y-61144901D01*
X164296865Y-61166053D01*
X164418917Y-61288105D01*
X164612421Y-61423600D01*
X164826507Y-61523429D01*
X164826516Y-61523433D01*
X165040000Y-61580634D01*
X165040000Y-60683012D01*
X165097007Y-60715925D01*
X165224174Y-60750000D01*
X165355826Y-60750000D01*
X165482993Y-60715925D01*
X165540000Y-60683012D01*
X165540000Y-61580633D01*
X165753483Y-61523433D01*
X165753492Y-61523429D01*
X165967578Y-61423600D01*
X166161082Y-61288105D01*
X166328105Y-61121082D01*
X166463600Y-60927578D01*
X166563429Y-60713492D01*
X166563432Y-60713486D01*
X166620636Y-60500000D01*
X165723012Y-60500000D01*
X165755925Y-60442993D01*
X165790000Y-60315826D01*
X165790000Y-60184174D01*
X165775138Y-60128711D01*
X179899500Y-60128711D01*
X179899500Y-60371288D01*
X179929868Y-60601966D01*
X179931162Y-60611789D01*
X179943510Y-60657872D01*
X179993947Y-60846104D01*
X180086773Y-61070205D01*
X180086777Y-61070214D01*
X180099545Y-61092328D01*
X180208064Y-61280289D01*
X180208066Y-61280292D01*
X180208067Y-61280293D01*
X180355733Y-61472736D01*
X180355739Y-61472743D01*
X180527256Y-61644260D01*
X180527262Y-61644265D01*
X180719711Y-61791936D01*
X180929788Y-61913224D01*
X181153900Y-62006054D01*
X181388211Y-62068838D01*
X181568586Y-62092584D01*
X181628711Y-62100500D01*
X181628712Y-62100500D01*
X181871289Y-62100500D01*
X181919388Y-62094167D01*
X182111789Y-62068838D01*
X182346100Y-62006054D01*
X182570212Y-61913224D01*
X182780289Y-61791936D01*
X182972738Y-61644265D01*
X183144265Y-61472738D01*
X183291936Y-61280289D01*
X183413224Y-61070212D01*
X183506054Y-60846100D01*
X183568838Y-60611789D01*
X183600500Y-60371288D01*
X183600500Y-60128712D01*
X183568838Y-59888211D01*
X183506054Y-59653900D01*
X183413224Y-59429788D01*
X183291936Y-59219711D01*
X183152887Y-59038498D01*
X183144266Y-59027263D01*
X183144260Y-59027256D01*
X182972743Y-58855739D01*
X182972736Y-58855733D01*
X182780293Y-58708067D01*
X182780292Y-58708066D01*
X182780289Y-58708064D01*
X182570212Y-58586776D01*
X182535720Y-58572489D01*
X182346104Y-58493947D01*
X182111785Y-58431161D01*
X181871289Y-58399500D01*
X181871288Y-58399500D01*
X181628712Y-58399500D01*
X181628711Y-58399500D01*
X181388214Y-58431161D01*
X181153895Y-58493947D01*
X180929794Y-58586773D01*
X180929785Y-58586777D01*
X180810046Y-58655909D01*
X180724667Y-58705203D01*
X180719706Y-58708067D01*
X180527263Y-58855733D01*
X180527256Y-58855739D01*
X180355739Y-59027256D01*
X180355733Y-59027263D01*
X180208067Y-59219706D01*
X180086777Y-59429785D01*
X180086773Y-59429794D01*
X179993947Y-59653895D01*
X179931161Y-59888214D01*
X179899500Y-60128711D01*
X165775138Y-60128711D01*
X165755925Y-60057007D01*
X165723012Y-60000000D01*
X166620636Y-60000000D01*
X166620635Y-59999999D01*
X166563432Y-59786513D01*
X166563429Y-59786507D01*
X166463600Y-59572422D01*
X166463599Y-59572420D01*
X166328113Y-59378926D01*
X166328108Y-59378920D01*
X166161082Y-59211894D01*
X165967578Y-59076399D01*
X165753492Y-58976570D01*
X165753486Y-58976567D01*
X165540000Y-58919364D01*
X165540000Y-59816988D01*
X165482993Y-59784075D01*
X165355826Y-59750000D01*
X165224174Y-59750000D01*
X165097007Y-59784075D01*
X165040000Y-59816988D01*
X165040000Y-58919364D01*
X165039999Y-58919364D01*
X164826513Y-58976567D01*
X164826507Y-58976570D01*
X164612422Y-59076399D01*
X164612420Y-59076400D01*
X164418926Y-59211886D01*
X164296865Y-59333947D01*
X164235542Y-59367431D01*
X164165850Y-59362447D01*
X164109917Y-59320575D01*
X164093002Y-59289598D01*
X164087147Y-59273901D01*
X164043796Y-59157669D01*
X164043795Y-59157668D01*
X164043793Y-59157664D01*
X163957547Y-59042455D01*
X163957544Y-59042452D01*
X163842335Y-58956206D01*
X163842328Y-58956202D01*
X163707482Y-58905908D01*
X163707483Y-58905908D01*
X163647883Y-58899501D01*
X163647881Y-58899500D01*
X163647873Y-58899500D01*
X163647864Y-58899500D01*
X161852129Y-58899500D01*
X161852123Y-58899501D01*
X161792516Y-58905908D01*
X161657671Y-58956202D01*
X161657664Y-58956206D01*
X161542455Y-59042452D01*
X161542452Y-59042455D01*
X161456206Y-59157664D01*
X161456202Y-59157671D01*
X161405908Y-59292517D01*
X161399501Y-59352116D01*
X161399500Y-59352135D01*
X157727455Y-59352135D01*
X157713600Y-59322422D01*
X157713599Y-59322420D01*
X157578113Y-59128926D01*
X157578108Y-59128920D01*
X157411082Y-58961894D01*
X157217578Y-58826399D01*
X157003492Y-58726570D01*
X157003486Y-58726567D01*
X156790000Y-58669364D01*
X156790000Y-59566988D01*
X156732993Y-59534075D01*
X156605826Y-59500000D01*
X156474174Y-59500000D01*
X156347007Y-59534075D01*
X156290000Y-59566988D01*
X156290000Y-58669364D01*
X156289999Y-58669364D01*
X156076513Y-58726567D01*
X156076507Y-58726570D01*
X155862422Y-58826399D01*
X155862420Y-58826400D01*
X155668926Y-58961886D01*
X155546865Y-59083947D01*
X155485542Y-59117431D01*
X155415850Y-59112447D01*
X155359917Y-59070575D01*
X155343002Y-59039598D01*
X155338401Y-59027263D01*
X155311898Y-58956202D01*
X155293797Y-58907671D01*
X155293793Y-58907664D01*
X155207547Y-58792455D01*
X155207544Y-58792452D01*
X155092335Y-58706206D01*
X155092328Y-58706202D01*
X154957482Y-58655908D01*
X154957483Y-58655908D01*
X154897883Y-58649501D01*
X154897881Y-58649500D01*
X154897873Y-58649500D01*
X154897864Y-58649500D01*
X153102129Y-58649500D01*
X153102123Y-58649501D01*
X153042516Y-58655908D01*
X152907671Y-58706202D01*
X152907664Y-58706206D01*
X152792455Y-58792452D01*
X152792452Y-58792455D01*
X152706206Y-58907664D01*
X152706202Y-58907671D01*
X152655908Y-59042517D01*
X152649501Y-59102116D01*
X152649500Y-59102135D01*
X149945499Y-59102135D01*
X149945499Y-58605861D01*
X149965184Y-58538823D01*
X149981819Y-58518180D01*
X149999999Y-58500000D01*
X150000000Y-58500000D01*
X150000000Y-57102135D01*
X190109500Y-57102135D01*
X190109500Y-58897870D01*
X190109501Y-58897876D01*
X190115908Y-58957483D01*
X190166202Y-59092328D01*
X190166206Y-59092335D01*
X190252452Y-59207544D01*
X190252455Y-59207547D01*
X190367664Y-59293793D01*
X190367671Y-59293797D01*
X190502517Y-59344091D01*
X190502516Y-59344091D01*
X190509444Y-59344835D01*
X190562127Y-59350500D01*
X192357872Y-59350499D01*
X192417483Y-59344091D01*
X192552331Y-59293796D01*
X192667546Y-59207546D01*
X192753796Y-59092331D01*
X192802810Y-58960916D01*
X192844681Y-58904984D01*
X192910145Y-58880566D01*
X192978418Y-58895417D01*
X193006673Y-58916569D01*
X193128599Y-59038495D01*
X193219459Y-59102116D01*
X193322165Y-59174032D01*
X193322167Y-59174033D01*
X193322170Y-59174035D01*
X193536337Y-59273903D01*
X193764592Y-59335063D01*
X193941034Y-59350500D01*
X193999999Y-59355659D01*
X194000000Y-59355659D01*
X194000001Y-59355659D01*
X194058966Y-59350500D01*
X194235408Y-59335063D01*
X194463663Y-59273903D01*
X194677830Y-59174035D01*
X194871401Y-59038495D01*
X195038495Y-58871401D01*
X195174035Y-58677830D01*
X195273903Y-58463663D01*
X195335063Y-58235408D01*
X195355659Y-58000000D01*
X195335063Y-57764592D01*
X195273903Y-57536337D01*
X195174035Y-57322171D01*
X195038495Y-57128599D01*
X195038494Y-57128597D01*
X194871402Y-56961506D01*
X194871395Y-56961501D01*
X194677834Y-56825967D01*
X194677830Y-56825965D01*
X194677828Y-56825964D01*
X194463663Y-56726097D01*
X194463659Y-56726096D01*
X194463655Y-56726094D01*
X194235413Y-56664938D01*
X194235403Y-56664936D01*
X194000001Y-56644341D01*
X193999999Y-56644341D01*
X193764596Y-56664936D01*
X193764586Y-56664938D01*
X193536344Y-56726094D01*
X193536335Y-56726098D01*
X193322171Y-56825964D01*
X193322169Y-56825965D01*
X193128600Y-56961503D01*
X193006673Y-57083430D01*
X192945350Y-57116914D01*
X192875658Y-57111930D01*
X192819725Y-57070058D01*
X192802810Y-57039081D01*
X192753797Y-56907671D01*
X192753793Y-56907664D01*
X192667547Y-56792455D01*
X192667544Y-56792452D01*
X192552335Y-56706206D01*
X192552328Y-56706202D01*
X192417482Y-56655908D01*
X192417483Y-56655908D01*
X192357883Y-56649501D01*
X192357881Y-56649500D01*
X192357873Y-56649500D01*
X192357864Y-56649500D01*
X190562129Y-56649500D01*
X190562123Y-56649501D01*
X190502516Y-56655908D01*
X190367671Y-56706202D01*
X190367664Y-56706206D01*
X190252455Y-56792452D01*
X190252452Y-56792455D01*
X190166206Y-56907664D01*
X190166202Y-56907671D01*
X190115908Y-57042517D01*
X190109501Y-57102116D01*
X190109500Y-57102135D01*
X150000000Y-57102135D01*
X150000000Y-53449999D01*
X189114892Y-53449999D01*
X189114892Y-53450000D01*
X189133282Y-53648464D01*
X189187830Y-53840183D01*
X189276670Y-54018598D01*
X189276675Y-54018606D01*
X189396792Y-54177666D01*
X189495151Y-54267331D01*
X189544090Y-54311945D01*
X189713554Y-54416873D01*
X189899414Y-54488876D01*
X190095340Y-54525500D01*
X190095342Y-54525500D01*
X190294658Y-54525500D01*
X190294660Y-54525500D01*
X190490586Y-54488876D01*
X190676446Y-54416873D01*
X190845910Y-54311945D01*
X190993209Y-54177664D01*
X191113326Y-54018604D01*
X191202171Y-53840180D01*
X191256717Y-53648469D01*
X191275108Y-53450000D01*
X191256717Y-53251531D01*
X191202171Y-53059820D01*
X191200759Y-53056984D01*
X191113329Y-52881401D01*
X191113324Y-52881393D01*
X191072350Y-52827135D01*
X194199500Y-52827135D01*
X194199500Y-54072870D01*
X194199501Y-54072876D01*
X194205908Y-54132483D01*
X194256202Y-54267328D01*
X194256206Y-54267335D01*
X194342452Y-54382544D01*
X194342455Y-54382547D01*
X194457664Y-54468793D01*
X194457671Y-54468797D01*
X194592517Y-54519091D01*
X194592516Y-54519091D01*
X194599444Y-54519835D01*
X194652127Y-54525500D01*
X195897872Y-54525499D01*
X195957483Y-54519091D01*
X196092331Y-54468796D01*
X196207546Y-54382546D01*
X196293796Y-54267331D01*
X196344091Y-54132483D01*
X196350500Y-54072873D01*
X196350499Y-52827128D01*
X196344091Y-52767517D01*
X196327238Y-52722333D01*
X196293797Y-52632671D01*
X196293793Y-52632664D01*
X196207547Y-52517455D01*
X196207544Y-52517452D01*
X196092335Y-52431206D01*
X196092328Y-52431202D01*
X195957482Y-52380908D01*
X195957483Y-52380908D01*
X195897883Y-52374501D01*
X195897881Y-52374500D01*
X195897873Y-52374500D01*
X195897864Y-52374500D01*
X194652129Y-52374500D01*
X194652123Y-52374501D01*
X194592516Y-52380908D01*
X194457671Y-52431202D01*
X194457664Y-52431206D01*
X194342455Y-52517452D01*
X194342452Y-52517455D01*
X194256206Y-52632664D01*
X194256202Y-52632671D01*
X194205908Y-52767517D01*
X194199501Y-52827116D01*
X194199501Y-52827123D01*
X194199500Y-52827135D01*
X191072350Y-52827135D01*
X190993207Y-52722333D01*
X190845911Y-52588056D01*
X190845910Y-52588055D01*
X190781375Y-52548096D01*
X190676447Y-52483127D01*
X190676445Y-52483126D01*
X190594379Y-52451334D01*
X190490586Y-52411124D01*
X190490582Y-52411123D01*
X190411639Y-52396366D01*
X190294660Y-52374500D01*
X190095340Y-52374500D01*
X190005254Y-52391339D01*
X189899417Y-52411123D01*
X189899415Y-52411123D01*
X189899414Y-52411124D01*
X189847587Y-52431202D01*
X189713554Y-52483126D01*
X189713552Y-52483127D01*
X189544088Y-52588056D01*
X189396792Y-52722333D01*
X189276675Y-52881393D01*
X189276670Y-52881401D01*
X189187830Y-53059816D01*
X189133282Y-53251535D01*
X189114892Y-53449999D01*
X150000000Y-53449999D01*
X150000000Y-50974500D01*
X150019685Y-50907461D01*
X150072489Y-50861706D01*
X150124000Y-50850500D01*
X197910609Y-50850500D01*
X197994588Y-50850500D01*
X198005395Y-50850972D01*
G37*
%TD.AperFunction*%
%TA.AperFunction,Conductor*%
G36*
X159042213Y-91413983D02*
G01*
X159042610Y-91412676D01*
X159048438Y-91414443D01*
X159048442Y-91414445D01*
X159070591Y-91418850D01*
X159070595Y-91418850D01*
X159070596Y-91418851D01*
X159152035Y-91435051D01*
X159213946Y-91467436D01*
X159244884Y-91515713D01*
X159274209Y-91599518D01*
X159274210Y-91599522D01*
X159336488Y-91698635D01*
X159370184Y-91752262D01*
X159497738Y-91879816D01*
X159566893Y-91923269D01*
X159632721Y-91964632D01*
X159650478Y-91975789D01*
X159774651Y-92019238D01*
X159821377Y-92048599D01*
X169189321Y-101416543D01*
X169188266Y-101417597D01*
X169223442Y-101469237D01*
X169225313Y-101539081D01*
X169222486Y-101548295D01*
X169214631Y-101570743D01*
X169214631Y-101570746D01*
X169194435Y-101749996D01*
X169194435Y-101750003D01*
X169214630Y-101929249D01*
X169214631Y-101929254D01*
X169274211Y-102099524D01*
X169289993Y-102124639D01*
X169309000Y-102190612D01*
X169309000Y-106037415D01*
X169289315Y-106104454D01*
X169272681Y-106125096D01*
X162344037Y-113053739D01*
X162282714Y-113087224D01*
X162213022Y-113082240D01*
X162157089Y-113040368D01*
X162151371Y-113032042D01*
X162129816Y-112997738D01*
X162002262Y-112870184D01*
X161977261Y-112854475D01*
X161849523Y-112774211D01*
X161679254Y-112714631D01*
X161679249Y-112714630D01*
X161500004Y-112694435D01*
X161499996Y-112694435D01*
X161320750Y-112714630D01*
X161320745Y-112714631D01*
X161150476Y-112774211D01*
X160997737Y-112870184D01*
X160870184Y-112997737D01*
X160774212Y-113150475D01*
X160774210Y-113150479D01*
X160730760Y-113274651D01*
X160701400Y-113321377D01*
X159213269Y-114809507D01*
X159213268Y-114809508D01*
X159213265Y-114809513D01*
X159169271Y-114875357D01*
X159164687Y-114882217D01*
X159164685Y-114882219D01*
X159137648Y-114922680D01*
X159137640Y-114922695D01*
X159085556Y-115048438D01*
X159085553Y-115048448D01*
X159059000Y-115181939D01*
X159059000Y-123162416D01*
X159039315Y-123229455D01*
X159022681Y-123250097D01*
X158081097Y-124191681D01*
X158019774Y-124225166D01*
X157993416Y-124228000D01*
X150609584Y-124228000D01*
X150542545Y-124208315D01*
X150496790Y-124155511D01*
X150486846Y-124086353D01*
X150515871Y-124022797D01*
X150521903Y-124016319D01*
X157536732Y-117001490D01*
X157536735Y-117001487D01*
X157612356Y-116888312D01*
X157616333Y-116878712D01*
X157664443Y-116762562D01*
X157664445Y-116762558D01*
X157678075Y-116694035D01*
X157679191Y-116688425D01*
X157691000Y-116629060D01*
X157691000Y-113545597D01*
X157710685Y-113478558D01*
X157743874Y-113444023D01*
X157816555Y-113393132D01*
X157973132Y-113236555D01*
X158100142Y-113055167D01*
X158193723Y-112854480D01*
X158251035Y-112640591D01*
X158270334Y-112420000D01*
X158251035Y-112199409D01*
X158193723Y-111985520D01*
X158100142Y-111784833D01*
X157973132Y-111603445D01*
X157816555Y-111446868D01*
X157635167Y-111319858D01*
X157617018Y-111311395D01*
X157511317Y-111262106D01*
X157458877Y-111215934D01*
X157439725Y-111148741D01*
X157459941Y-111081859D01*
X157511317Y-111037342D01*
X157634911Y-110979709D01*
X157634919Y-110979705D01*
X157700341Y-110933895D01*
X157137574Y-110371128D01*
X157196853Y-110355245D01*
X157313147Y-110288102D01*
X157408102Y-110193147D01*
X157475245Y-110076853D01*
X157491128Y-110017574D01*
X158053895Y-110580341D01*
X158099705Y-110514919D01*
X158099709Y-110514911D01*
X158193249Y-110314314D01*
X158193254Y-110314300D01*
X158250538Y-110100509D01*
X158250540Y-110100499D01*
X158269832Y-109880000D01*
X158269832Y-109879999D01*
X158250540Y-109659500D01*
X158250538Y-109659490D01*
X158193254Y-109445699D01*
X158193250Y-109445690D01*
X158099706Y-109245084D01*
X158053894Y-109179657D01*
X157491128Y-109742424D01*
X157475245Y-109683147D01*
X157408102Y-109566853D01*
X157313147Y-109471898D01*
X157196853Y-109404755D01*
X157137574Y-109388871D01*
X157700341Y-108826104D01*
X157700341Y-108826103D01*
X157634920Y-108780295D01*
X157634916Y-108780293D01*
X157511316Y-108722657D01*
X157458877Y-108676484D01*
X157439725Y-108609291D01*
X157459941Y-108542410D01*
X157511312Y-108497895D01*
X157635167Y-108440142D01*
X157816555Y-108313132D01*
X157973132Y-108156555D01*
X158100142Y-107975167D01*
X158193723Y-107774480D01*
X158251035Y-107560591D01*
X158270334Y-107340000D01*
X158251035Y-107119409D01*
X158193723Y-106905520D01*
X158100142Y-106704833D01*
X157973132Y-106523445D01*
X157816555Y-106366868D01*
X157635167Y-106239858D01*
X157589739Y-106218675D01*
X157511908Y-106182382D01*
X157459468Y-106136210D01*
X157440316Y-106069017D01*
X157460531Y-106002136D01*
X157511908Y-105957618D01*
X157562184Y-105934174D01*
X157635167Y-105900142D01*
X157816555Y-105773132D01*
X157973132Y-105616555D01*
X158100142Y-105435167D01*
X158193723Y-105234480D01*
X158251035Y-105020591D01*
X158270334Y-104800000D01*
X158251035Y-104579409D01*
X158193723Y-104365520D01*
X158100142Y-104164833D01*
X157973132Y-103983445D01*
X157816555Y-103826868D01*
X157635167Y-103699858D01*
X157511907Y-103642381D01*
X157459468Y-103596210D01*
X157440316Y-103529017D01*
X157460531Y-103462136D01*
X157511908Y-103417618D01*
X157635167Y-103360142D01*
X157816555Y-103233132D01*
X157973132Y-103076555D01*
X158100142Y-102895167D01*
X158193723Y-102694480D01*
X158251035Y-102480591D01*
X158270334Y-102260000D01*
X158251035Y-102039409D01*
X158193723Y-101825520D01*
X158100142Y-101624833D01*
X157973132Y-101443445D01*
X157816555Y-101286868D01*
X157635167Y-101159858D01*
X157511907Y-101102381D01*
X157459468Y-101056210D01*
X157440316Y-100989017D01*
X157460531Y-100922136D01*
X157511908Y-100877618D01*
X157635167Y-100820142D01*
X157816555Y-100693132D01*
X157973132Y-100536555D01*
X158100142Y-100355167D01*
X158193723Y-100154480D01*
X158251035Y-99940591D01*
X158270334Y-99720000D01*
X158251035Y-99499409D01*
X158193723Y-99285520D01*
X158181837Y-99260031D01*
X158120188Y-99127822D01*
X158100142Y-99084833D01*
X157973132Y-98903445D01*
X157816555Y-98746868D01*
X157635167Y-98619858D01*
X157511907Y-98562381D01*
X157459468Y-98516210D01*
X157440316Y-98449017D01*
X157460531Y-98382136D01*
X157511908Y-98337618D01*
X157552819Y-98318541D01*
X157635167Y-98280142D01*
X157816555Y-98153132D01*
X157973132Y-97996555D01*
X158100142Y-97815167D01*
X158193723Y-97614480D01*
X158251035Y-97400591D01*
X158270334Y-97180000D01*
X158251035Y-96959409D01*
X158193723Y-96745520D01*
X158168447Y-96691316D01*
X158152522Y-96657164D01*
X158100142Y-96544833D01*
X157973132Y-96363445D01*
X157816555Y-96206868D01*
X157635167Y-96079858D01*
X157511907Y-96022381D01*
X157459468Y-95976210D01*
X157440316Y-95909017D01*
X157460531Y-95842136D01*
X157511908Y-95797618D01*
X157635167Y-95740142D01*
X157816555Y-95613132D01*
X157973132Y-95456555D01*
X158100142Y-95275167D01*
X158193723Y-95074480D01*
X158251035Y-94860591D01*
X158270334Y-94640000D01*
X158251035Y-94419409D01*
X158193723Y-94205520D01*
X158100142Y-94004833D01*
X157973132Y-93823445D01*
X157816555Y-93666868D01*
X157635167Y-93539858D01*
X157628467Y-93536734D01*
X157534664Y-93492993D01*
X157511907Y-93482381D01*
X157459468Y-93436210D01*
X157440316Y-93369017D01*
X157460531Y-93302136D01*
X157511908Y-93257618D01*
X157523394Y-93252262D01*
X157635167Y-93200142D01*
X157816555Y-93073132D01*
X157973132Y-92916555D01*
X158100142Y-92735167D01*
X158193723Y-92534480D01*
X158251035Y-92320591D01*
X158270334Y-92100000D01*
X158270291Y-92099514D01*
X158254872Y-91923269D01*
X158251035Y-91879409D01*
X158193723Y-91665520D01*
X158155199Y-91582904D01*
X158144707Y-91513827D01*
X158173227Y-91450043D01*
X158231704Y-91411804D01*
X158267581Y-91406500D01*
X159004595Y-91406500D01*
X159042213Y-91413983D01*
G37*
%TD.AperFunction*%
%TA.AperFunction,Conductor*%
G36*
X155649119Y-107230613D02*
G01*
X155705053Y-107272484D01*
X155729314Y-107335987D01*
X155748964Y-107560586D01*
X155748965Y-107560592D01*
X155806275Y-107774475D01*
X155806279Y-107774486D01*
X155844235Y-107855883D01*
X155899858Y-107975167D01*
X156026868Y-108156555D01*
X156183445Y-108313132D01*
X156364833Y-108440142D01*
X156488682Y-108497893D01*
X156541122Y-108544065D01*
X156560274Y-108611258D01*
X156540059Y-108678139D01*
X156488683Y-108722657D01*
X156365080Y-108780294D01*
X156299658Y-108826103D01*
X156299657Y-108826104D01*
X156862425Y-109388871D01*
X156803147Y-109404755D01*
X156686853Y-109471898D01*
X156591898Y-109566853D01*
X156524755Y-109683147D01*
X156508871Y-109742424D01*
X155946104Y-109179657D01*
X155946103Y-109179658D01*
X155900295Y-109245080D01*
X155806749Y-109445690D01*
X155806745Y-109445699D01*
X155749461Y-109659490D01*
X155749459Y-109659500D01*
X155730168Y-109879999D01*
X155730168Y-109880000D01*
X155749459Y-110100499D01*
X155749461Y-110100509D01*
X155806745Y-110314300D01*
X155806749Y-110314309D01*
X155900293Y-110514916D01*
X155900295Y-110514920D01*
X155946103Y-110580341D01*
X155946104Y-110580341D01*
X156508871Y-110017574D01*
X156524755Y-110076853D01*
X156591898Y-110193147D01*
X156686853Y-110288102D01*
X156803147Y-110355245D01*
X156862425Y-110371128D01*
X156299657Y-110933894D01*
X156365084Y-110979707D01*
X156488683Y-111037342D01*
X156541122Y-111083514D01*
X156560274Y-111150708D01*
X156540058Y-111217589D01*
X156488683Y-111262106D01*
X156364833Y-111319857D01*
X156183444Y-111446868D01*
X156026868Y-111603444D01*
X155899857Y-111784834D01*
X155899856Y-111784836D01*
X155806279Y-111985513D01*
X155806275Y-111985524D01*
X155748965Y-112199407D01*
X155748964Y-112199414D01*
X155729666Y-112419998D01*
X155729666Y-112420001D01*
X155748964Y-112640585D01*
X155748965Y-112640592D01*
X155806275Y-112854475D01*
X155806279Y-112854486D01*
X155889068Y-113032028D01*
X155899858Y-113055167D01*
X156026868Y-113236555D01*
X156183445Y-113393132D01*
X156256125Y-113444023D01*
X156299748Y-113498599D01*
X156309000Y-113545597D01*
X156309000Y-116223415D01*
X156289315Y-116290454D01*
X156272681Y-116311096D01*
X152562180Y-120021597D01*
X152500857Y-120055082D01*
X152431165Y-120050098D01*
X152375232Y-120008226D01*
X152350815Y-119942762D01*
X152350499Y-119933916D01*
X152350499Y-119182129D01*
X152350498Y-119182123D01*
X152350497Y-119182116D01*
X152344091Y-119122517D01*
X152335131Y-119098495D01*
X152293797Y-118987671D01*
X152293793Y-118987664D01*
X152207547Y-118872455D01*
X152207544Y-118872452D01*
X152092335Y-118786206D01*
X152092328Y-118786202D01*
X151960917Y-118737189D01*
X151904983Y-118695318D01*
X151880566Y-118629853D01*
X151895418Y-118561580D01*
X151916563Y-118533332D01*
X152038495Y-118411401D01*
X152174035Y-118217830D01*
X152273903Y-118003663D01*
X152335063Y-117775408D01*
X152355659Y-117540000D01*
X152335063Y-117304592D01*
X152273903Y-117076337D01*
X152174035Y-116862171D01*
X152156254Y-116836776D01*
X152038494Y-116668597D01*
X151871402Y-116501506D01*
X151871396Y-116501501D01*
X151685842Y-116371575D01*
X151642217Y-116316998D01*
X151635023Y-116247500D01*
X151666546Y-116185145D01*
X151685842Y-116168425D01*
X151708026Y-116152891D01*
X151871401Y-116038495D01*
X152038495Y-115871401D01*
X152174035Y-115677830D01*
X152273903Y-115463663D01*
X152335063Y-115235408D01*
X152355659Y-115000000D01*
X152335063Y-114764592D01*
X152273903Y-114536337D01*
X152174035Y-114322171D01*
X152139256Y-114272500D01*
X152038494Y-114128597D01*
X151871402Y-113961506D01*
X151871396Y-113961501D01*
X151685842Y-113831575D01*
X151642217Y-113776998D01*
X151635023Y-113707500D01*
X151666546Y-113645145D01*
X151685842Y-113628425D01*
X151840484Y-113520143D01*
X151871401Y-113498495D01*
X152038495Y-113331401D01*
X152174035Y-113137830D01*
X152273903Y-112923663D01*
X152335063Y-112695408D01*
X152355659Y-112460000D01*
X152335063Y-112224592D01*
X152273903Y-111996337D01*
X152174035Y-111782171D01*
X152139256Y-111732500D01*
X152038494Y-111588597D01*
X151871402Y-111421506D01*
X151871395Y-111421501D01*
X151677834Y-111285967D01*
X151677830Y-111285965D01*
X151626664Y-111262106D01*
X151463663Y-111186097D01*
X151463659Y-111186096D01*
X151463655Y-111186094D01*
X151235413Y-111124938D01*
X151235403Y-111124936D01*
X151000001Y-111104341D01*
X150999999Y-111104341D01*
X150764596Y-111124936D01*
X150764586Y-111124938D01*
X150536344Y-111186094D01*
X150536335Y-111186098D01*
X150322171Y-111285964D01*
X150322169Y-111285965D01*
X150128597Y-111421505D01*
X149961505Y-111588597D01*
X149825965Y-111782169D01*
X149825964Y-111782171D01*
X149726098Y-111996335D01*
X149726094Y-111996344D01*
X149664938Y-112224586D01*
X149664936Y-112224596D01*
X149644341Y-112459999D01*
X149644341Y-112460000D01*
X149664936Y-112695403D01*
X149664938Y-112695413D01*
X149726094Y-112923655D01*
X149726096Y-112923659D01*
X149726097Y-112923663D01*
X149800043Y-113082240D01*
X149825965Y-113137830D01*
X149825967Y-113137834D01*
X149961501Y-113331395D01*
X149961506Y-113331402D01*
X150128597Y-113498493D01*
X150128603Y-113498498D01*
X150314158Y-113628425D01*
X150357783Y-113683002D01*
X150364977Y-113752500D01*
X150333454Y-113814855D01*
X150314158Y-113831575D01*
X150128597Y-113961505D01*
X149961505Y-114128597D01*
X149825965Y-114322169D01*
X149825964Y-114322171D01*
X149726098Y-114536335D01*
X149726094Y-114536344D01*
X149664938Y-114764586D01*
X149664936Y-114764596D01*
X149644341Y-114999999D01*
X149644341Y-115000000D01*
X149664936Y-115235403D01*
X149664938Y-115235413D01*
X149726094Y-115463655D01*
X149726096Y-115463659D01*
X149726097Y-115463663D01*
X149792348Y-115605739D01*
X149825965Y-115677830D01*
X149825967Y-115677834D01*
X149961501Y-115871395D01*
X149961506Y-115871402D01*
X150128597Y-116038493D01*
X150128603Y-116038498D01*
X150314158Y-116168425D01*
X150357783Y-116223002D01*
X150364977Y-116292500D01*
X150333454Y-116354855D01*
X150314158Y-116371575D01*
X150128597Y-116501505D01*
X149961505Y-116668597D01*
X149825965Y-116862169D01*
X149825964Y-116862171D01*
X149726098Y-117076335D01*
X149726094Y-117076344D01*
X149664938Y-117304586D01*
X149664936Y-117304596D01*
X149644341Y-117539999D01*
X149644341Y-117540000D01*
X149664936Y-117775403D01*
X149664938Y-117775413D01*
X149726094Y-118003655D01*
X149726096Y-118003659D01*
X149726097Y-118003663D01*
X149810178Y-118183975D01*
X149825965Y-118217830D01*
X149825967Y-118217834D01*
X149880289Y-118295413D01*
X149961501Y-118411396D01*
X149961506Y-118411402D01*
X150083430Y-118533326D01*
X150116915Y-118594649D01*
X150111931Y-118664341D01*
X150070059Y-118720274D01*
X150039083Y-118737189D01*
X149907669Y-118786203D01*
X149907664Y-118786206D01*
X149792455Y-118872452D01*
X149792452Y-118872455D01*
X149706206Y-118987664D01*
X149706202Y-118987671D01*
X149655908Y-119122517D01*
X149649809Y-119179249D01*
X149649501Y-119182123D01*
X149649500Y-119182135D01*
X149649500Y-120977870D01*
X149649501Y-120977876D01*
X149655908Y-121037483D01*
X149706202Y-121172328D01*
X149706206Y-121172335D01*
X149792452Y-121287544D01*
X149792455Y-121287547D01*
X149907664Y-121373793D01*
X149907671Y-121373797D01*
X150042517Y-121424091D01*
X150042516Y-121424091D01*
X150049444Y-121424835D01*
X150102127Y-121430500D01*
X150853915Y-121430499D01*
X150920954Y-121450183D01*
X150966709Y-121502987D01*
X150976653Y-121572146D01*
X150947628Y-121635702D01*
X150941596Y-121642180D01*
X149466597Y-123117181D01*
X149405274Y-123150666D01*
X149378916Y-123153500D01*
X146158500Y-123153500D01*
X146091461Y-123133815D01*
X146045706Y-123081011D01*
X146034500Y-123029500D01*
X146034500Y-122765826D01*
X146034499Y-122465937D01*
X146054183Y-122398900D01*
X146106987Y-122353145D01*
X146176146Y-122343201D01*
X146239702Y-122372226D01*
X146246180Y-122378258D01*
X146247738Y-122379816D01*
X146400478Y-122475789D01*
X146489694Y-122507007D01*
X146570745Y-122535368D01*
X146570750Y-122535369D01*
X146749996Y-122555565D01*
X146750000Y-122555565D01*
X146750004Y-122555565D01*
X146929249Y-122535369D01*
X146929252Y-122535368D01*
X146929255Y-122535368D01*
X147099522Y-122475789D01*
X147252262Y-122379816D01*
X147379816Y-122252262D01*
X147475789Y-122099522D01*
X147535368Y-121929255D01*
X147536749Y-121916998D01*
X147555565Y-121750003D01*
X147555565Y-121749996D01*
X147535369Y-121570750D01*
X147535366Y-121570737D01*
X147475790Y-121400480D01*
X147460005Y-121375357D01*
X147441000Y-121309387D01*
X147441000Y-111409505D01*
X147460685Y-111342466D01*
X147513489Y-111296711D01*
X147578884Y-111286285D01*
X147749997Y-111305565D01*
X147750000Y-111305565D01*
X147750004Y-111305565D01*
X147929249Y-111285369D01*
X147929252Y-111285368D01*
X147929255Y-111285368D01*
X148099522Y-111225789D01*
X148252262Y-111129816D01*
X148322090Y-111059987D01*
X148383409Y-111026505D01*
X148453101Y-111031489D01*
X148509035Y-111073360D01*
X148521487Y-111093867D01*
X148524209Y-111099519D01*
X148524211Y-111099522D01*
X148620184Y-111252262D01*
X148747738Y-111379816D01*
X148794988Y-111409505D01*
X148854450Y-111446868D01*
X148900478Y-111475789D01*
X149070745Y-111535368D01*
X149070750Y-111535369D01*
X149249996Y-111555565D01*
X149250000Y-111555565D01*
X149250004Y-111555565D01*
X149429249Y-111535369D01*
X149429252Y-111535368D01*
X149429255Y-111535368D01*
X149599522Y-111475789D01*
X149752262Y-111379816D01*
X149879816Y-111252262D01*
X149975789Y-111099522D01*
X150019239Y-110975345D01*
X150048597Y-110928623D01*
X151404244Y-109572975D01*
X151465565Y-109539492D01*
X151532875Y-109543616D01*
X151570745Y-109556868D01*
X151570749Y-109556868D01*
X151570753Y-109556869D01*
X151749996Y-109577065D01*
X151750000Y-109577065D01*
X151750004Y-109577065D01*
X151929249Y-109556869D01*
X151929252Y-109556868D01*
X151929255Y-109556868D01*
X152099522Y-109497289D01*
X152111299Y-109489888D01*
X152124641Y-109481506D01*
X152190613Y-109462500D01*
X152383539Y-109462500D01*
X152449511Y-109481506D01*
X152474628Y-109497288D01*
X152474630Y-109497289D01*
X152580236Y-109534242D01*
X152644897Y-109556868D01*
X152644902Y-109556869D01*
X152824148Y-109577065D01*
X152824152Y-109577065D01*
X152824156Y-109577065D01*
X153003401Y-109556869D01*
X153003404Y-109556868D01*
X153003407Y-109556868D01*
X153173674Y-109497289D01*
X153326414Y-109401316D01*
X153453968Y-109273762D01*
X153549941Y-109121022D01*
X153609520Y-108950755D01*
X153614129Y-108909856D01*
X153617254Y-108882117D01*
X153644320Y-108817703D01*
X153701915Y-108778148D01*
X153740474Y-108772000D01*
X153787060Y-108772000D01*
X153886286Y-108752262D01*
X153920557Y-108745445D01*
X154046311Y-108693356D01*
X154050636Y-108690465D01*
X154059518Y-108684532D01*
X154059519Y-108684531D01*
X154092842Y-108662265D01*
X154159487Y-108617735D01*
X155518107Y-107259112D01*
X155579428Y-107225629D01*
X155649119Y-107230613D01*
G37*
%TD.AperFunction*%
%TA.AperFunction,Conductor*%
G36*
X141495196Y-108791685D02*
G01*
X141540951Y-108844489D01*
X141551685Y-108906808D01*
X141547555Y-108954003D01*
X142110590Y-109517037D01*
X142047007Y-109534075D01*
X141932993Y-109599901D01*
X141839901Y-109692993D01*
X141774075Y-109807007D01*
X141757037Y-109870590D01*
X141194003Y-109307555D01*
X141194003Y-109307556D01*
X141149857Y-109370603D01*
X141082657Y-109514712D01*
X141036484Y-109567151D01*
X140969290Y-109586302D01*
X140902409Y-109566086D01*
X140857893Y-109514710D01*
X140825713Y-109445699D01*
X140790579Y-109370354D01*
X140790577Y-109370351D01*
X140790576Y-109370349D01*
X140664677Y-109190547D01*
X140664672Y-109190541D01*
X140509458Y-109035327D01*
X140509457Y-109035326D01*
X140455543Y-108997575D01*
X140411918Y-108942998D01*
X140404726Y-108873499D01*
X140436248Y-108811145D01*
X140496478Y-108775731D01*
X140526667Y-108772000D01*
X141428157Y-108772000D01*
X141495196Y-108791685D01*
G37*
%TD.AperFunction*%
%TA.AperFunction,Conductor*%
G36*
X144020372Y-108791685D02*
G01*
X144066127Y-108844489D01*
X144076071Y-108913647D01*
X144047046Y-108977203D01*
X144024457Y-108997575D01*
X143970543Y-109035326D01*
X143970541Y-109035327D01*
X143815327Y-109190541D01*
X143815322Y-109190547D01*
X143689423Y-109370349D01*
X143689421Y-109370353D01*
X143622106Y-109514711D01*
X143575933Y-109567150D01*
X143508740Y-109586302D01*
X143441859Y-109566086D01*
X143397342Y-109514711D01*
X143330144Y-109370605D01*
X143330142Y-109370601D01*
X143285996Y-109307555D01*
X142722962Y-109870589D01*
X142705925Y-109807007D01*
X142640099Y-109692993D01*
X142547007Y-109599901D01*
X142432993Y-109534075D01*
X142369409Y-109517037D01*
X142932443Y-108954003D01*
X142928314Y-108906808D01*
X142942080Y-108838308D01*
X142990696Y-108788125D01*
X143051842Y-108772000D01*
X143953333Y-108772000D01*
X144020372Y-108791685D01*
G37*
%TD.AperFunction*%
%TA.AperFunction,Conductor*%
G36*
X172007481Y-71203685D02*
G01*
X172028123Y-71220319D01*
X173272681Y-72464877D01*
X173306166Y-72526200D01*
X173309000Y-72552558D01*
X173309000Y-74068057D01*
X173314502Y-74095714D01*
X173314502Y-74095718D01*
X173335553Y-74201549D01*
X173335556Y-74201561D01*
X173387642Y-74327309D01*
X173387644Y-74327312D01*
X173463263Y-74440485D01*
X173463269Y-74440492D01*
X174713266Y-75690487D01*
X174782635Y-75759856D01*
X174809514Y-75786735D01*
X174922682Y-75862352D01*
X174922695Y-75862359D01*
X175048438Y-75914443D01*
X175048443Y-75914445D01*
X175048447Y-75914445D01*
X175048448Y-75914446D01*
X175181939Y-75941000D01*
X175181942Y-75941000D01*
X177818060Y-75941000D01*
X177907870Y-75923134D01*
X177951557Y-75914445D01*
X178077311Y-75862356D01*
X178091809Y-75852669D01*
X178190487Y-75786735D01*
X179222244Y-74754976D01*
X179283567Y-74721492D01*
X179309925Y-74718658D01*
X183725100Y-74718658D01*
X183792139Y-74738343D01*
X183812781Y-74754977D01*
X189949852Y-80892048D01*
X189983337Y-80953371D01*
X189986171Y-80979729D01*
X189986171Y-85729114D01*
X189986171Y-85865228D01*
X189986171Y-85865230D01*
X189986170Y-85865230D01*
X190012724Y-85998722D01*
X190012727Y-85998732D01*
X190064813Y-86124480D01*
X190064815Y-86124483D01*
X190140434Y-86237656D01*
X190140440Y-86237663D01*
X193640187Y-89737409D01*
X193673672Y-89798732D01*
X193672281Y-89857182D01*
X193664939Y-89884584D01*
X193664936Y-89884597D01*
X193644341Y-90119999D01*
X193644341Y-90120000D01*
X193664936Y-90355403D01*
X193664938Y-90355413D01*
X193726094Y-90583655D01*
X193726096Y-90583659D01*
X193726097Y-90583663D01*
X193803663Y-90750003D01*
X193825965Y-90797830D01*
X193825967Y-90797834D01*
X193961501Y-90991395D01*
X193961506Y-90991402D01*
X194128597Y-91158493D01*
X194128603Y-91158498D01*
X194314158Y-91288425D01*
X194357783Y-91343002D01*
X194364977Y-91412500D01*
X194333454Y-91474855D01*
X194314158Y-91491575D01*
X194128597Y-91621505D01*
X193961505Y-91788597D01*
X193825965Y-91982169D01*
X193825964Y-91982171D01*
X193767953Y-92106576D01*
X193721780Y-92159015D01*
X193654587Y-92178167D01*
X193587706Y-92157951D01*
X193552469Y-92123062D01*
X193548501Y-92117124D01*
X193536735Y-92099514D01*
X193536733Y-92099511D01*
X186227319Y-84790097D01*
X186193834Y-84728774D01*
X186191000Y-84702416D01*
X186191000Y-82431939D01*
X186164446Y-82298448D01*
X186164445Y-82298447D01*
X186164445Y-82298443D01*
X186112356Y-82172689D01*
X186088940Y-82137644D01*
X186088940Y-82137643D01*
X186036733Y-82059510D01*
X186036730Y-82059507D01*
X183687639Y-79710417D01*
X183654154Y-79649094D01*
X183651792Y-79611933D01*
X183670334Y-79400000D01*
X183651035Y-79179409D01*
X183593723Y-78965520D01*
X183500142Y-78764833D01*
X183373132Y-78583445D01*
X183216555Y-78426868D01*
X183216552Y-78426866D01*
X183216550Y-78426864D01*
X183152429Y-78381966D01*
X183108309Y-78351073D01*
X183064685Y-78296497D01*
X183057491Y-78226999D01*
X183089014Y-78164644D01*
X183149244Y-78129230D01*
X183179432Y-78125499D01*
X183212872Y-78125499D01*
X183272483Y-78119091D01*
X183407331Y-78068796D01*
X183522546Y-77982546D01*
X183608796Y-77867331D01*
X183659091Y-77732483D01*
X183665500Y-77672873D01*
X183665499Y-76047128D01*
X183659091Y-75987517D01*
X183649522Y-75961861D01*
X183608797Y-75852670D01*
X183608793Y-75852664D01*
X183522547Y-75737455D01*
X183522544Y-75737452D01*
X183407335Y-75651206D01*
X183407328Y-75651202D01*
X183272482Y-75600908D01*
X183272483Y-75600908D01*
X183212883Y-75594501D01*
X183212881Y-75594500D01*
X183212873Y-75594500D01*
X183212864Y-75594500D01*
X181587129Y-75594500D01*
X181587123Y-75594501D01*
X181527516Y-75600908D01*
X181392671Y-75651202D01*
X181392664Y-75651206D01*
X181277455Y-75737452D01*
X181277452Y-75737455D01*
X181191206Y-75852664D01*
X181191203Y-75852670D01*
X181140908Y-75987517D01*
X181134896Y-76043444D01*
X181134501Y-76047123D01*
X181134500Y-76047135D01*
X181134500Y-77672870D01*
X181134501Y-77672876D01*
X181140908Y-77732483D01*
X181191202Y-77867328D01*
X181191206Y-77867335D01*
X181277452Y-77982544D01*
X181277455Y-77982547D01*
X181392664Y-78068793D01*
X181392671Y-78068797D01*
X181527517Y-78119091D01*
X181527516Y-78119091D01*
X181534444Y-78119835D01*
X181587127Y-78125500D01*
X181620564Y-78125499D01*
X181687601Y-78145182D01*
X181733357Y-78197984D01*
X181743302Y-78267143D01*
X181714279Y-78330699D01*
X181691689Y-78351073D01*
X181583447Y-78426866D01*
X181583441Y-78426871D01*
X181426868Y-78583444D01*
X181299857Y-78764834D01*
X181299856Y-78764836D01*
X181206279Y-78965513D01*
X181206275Y-78965524D01*
X181148965Y-79179407D01*
X181148964Y-79179414D01*
X181129666Y-79399998D01*
X181129666Y-79400001D01*
X181148964Y-79620585D01*
X181148965Y-79620592D01*
X181206275Y-79834475D01*
X181206279Y-79834486D01*
X181260433Y-79950619D01*
X181299858Y-80035167D01*
X181426868Y-80216555D01*
X181583445Y-80373132D01*
X181764833Y-80500142D01*
X181816450Y-80524211D01*
X181888091Y-80557618D01*
X181940531Y-80603790D01*
X181959683Y-80670983D01*
X181939467Y-80737865D01*
X181888091Y-80782382D01*
X181764836Y-80839856D01*
X181764834Y-80839857D01*
X181583444Y-80966868D01*
X181426868Y-81123444D01*
X181299857Y-81304834D01*
X181299856Y-81304836D01*
X181206279Y-81505513D01*
X181206275Y-81505524D01*
X181148965Y-81719407D01*
X181148964Y-81719414D01*
X181129666Y-81939998D01*
X181129666Y-81940001D01*
X181148964Y-82160585D01*
X181148965Y-82160592D01*
X181206275Y-82374475D01*
X181206279Y-82374486D01*
X181289452Y-82552852D01*
X181299858Y-82575167D01*
X181426868Y-82756555D01*
X181583445Y-82913132D01*
X181764833Y-83040142D01*
X181826828Y-83069050D01*
X181888091Y-83097618D01*
X181940531Y-83143790D01*
X181959683Y-83210983D01*
X181939467Y-83277865D01*
X181888091Y-83322382D01*
X181764836Y-83379856D01*
X181764834Y-83379857D01*
X181583444Y-83506868D01*
X181426868Y-83663444D01*
X181411673Y-83685145D01*
X181375976Y-83736125D01*
X181321401Y-83779748D01*
X181274403Y-83789000D01*
X176067583Y-83789000D01*
X176000544Y-83769315D01*
X175979902Y-83752681D01*
X174940492Y-82713269D01*
X174940485Y-82713263D01*
X174827312Y-82637644D01*
X174827309Y-82637642D01*
X174701561Y-82585556D01*
X174701557Y-82585555D01*
X174694524Y-82584156D01*
X174568060Y-82559000D01*
X174568058Y-82559000D01*
X162666322Y-82559000D01*
X162599283Y-82539315D01*
X162553528Y-82486511D01*
X162543102Y-82448883D01*
X162535369Y-82380250D01*
X162535368Y-82380248D01*
X162535368Y-82380245D01*
X162475789Y-82209978D01*
X162460005Y-82184857D01*
X162441000Y-82118887D01*
X162441000Y-81541939D01*
X162414445Y-81408444D01*
X162414443Y-81408437D01*
X162383256Y-81333144D01*
X162362357Y-81282691D01*
X162362356Y-81282688D01*
X162362354Y-81282685D01*
X162362352Y-81282681D01*
X162286735Y-81169513D01*
X162286732Y-81169509D01*
X158287639Y-77170417D01*
X158254154Y-77109094D01*
X158251792Y-77071933D01*
X158270334Y-76860000D01*
X158251035Y-76639409D01*
X158193723Y-76425520D01*
X158180903Y-76398028D01*
X158156443Y-76345572D01*
X158100142Y-76224833D01*
X157973132Y-76043445D01*
X157816555Y-75886868D01*
X157635167Y-75759858D01*
X157635163Y-75759856D01*
X157434486Y-75666279D01*
X157434466Y-75666272D01*
X157347336Y-75642925D01*
X157287676Y-75606560D01*
X157257148Y-75543713D01*
X157265443Y-75474337D01*
X157291747Y-75435473D01*
X161499903Y-71227319D01*
X161561226Y-71193834D01*
X161587584Y-71191000D01*
X171311059Y-71191000D01*
X171322791Y-71188665D01*
X171334269Y-71186382D01*
X171358461Y-71184000D01*
X171940442Y-71184000D01*
X172007481Y-71203685D01*
G37*
%TD.AperFunction*%
%TA.AperFunction,Conductor*%
G36*
X158407797Y-65710685D02*
G01*
X158428439Y-65727319D01*
X160142845Y-67441725D01*
X161710440Y-69009319D01*
X161743925Y-69070642D01*
X161738941Y-69140334D01*
X161697069Y-69196267D01*
X161631605Y-69220684D01*
X161622759Y-69221000D01*
X159769941Y-69221000D01*
X159739112Y-69227132D01*
X159708283Y-69233265D01*
X159708282Y-69233265D01*
X159636450Y-69247553D01*
X159636438Y-69247556D01*
X159510695Y-69299640D01*
X159510682Y-69299647D01*
X159397514Y-69375264D01*
X159397510Y-69375267D01*
X154213269Y-74559507D01*
X154213266Y-74559510D01*
X154161059Y-74637643D01*
X154161060Y-74637644D01*
X154137642Y-74672692D01*
X154085556Y-74798438D01*
X154085553Y-74798448D01*
X154059000Y-74931939D01*
X154059000Y-77388930D01*
X154039315Y-77455969D01*
X154022681Y-77476611D01*
X153715771Y-77783520D01*
X153654448Y-77817005D01*
X153584756Y-77812021D01*
X153562118Y-77800833D01*
X153415206Y-77708522D01*
X153290995Y-77665058D01*
X153244269Y-77635698D01*
X152367960Y-76759388D01*
X152338599Y-76712661D01*
X152337103Y-76708386D01*
X152295150Y-76588489D01*
X152199177Y-76435749D01*
X152071623Y-76308195D01*
X151918884Y-76212222D01*
X151748615Y-76152642D01*
X151748610Y-76152641D01*
X151569365Y-76132446D01*
X151569357Y-76132446D01*
X151390111Y-76152641D01*
X151390106Y-76152642D01*
X151219837Y-76212222D01*
X151067098Y-76308195D01*
X150939545Y-76435748D01*
X150843570Y-76588490D01*
X150816180Y-76666766D01*
X150775458Y-76723541D01*
X150740095Y-76742851D01*
X150650479Y-76774209D01*
X150497737Y-76870184D01*
X150370184Y-76997737D01*
X150274211Y-77150476D01*
X150214631Y-77320745D01*
X150214630Y-77320750D01*
X150194435Y-77499996D01*
X150194435Y-77500003D01*
X150214630Y-77679249D01*
X150214631Y-77679254D01*
X150274211Y-77849523D01*
X150318495Y-77920000D01*
X150370184Y-78002262D01*
X150497738Y-78129816D01*
X150650478Y-78225789D01*
X150774651Y-78269238D01*
X150821377Y-78298599D01*
X151370097Y-78847319D01*
X151403582Y-78908642D01*
X151398598Y-78978334D01*
X151356726Y-79034267D01*
X151291262Y-79058684D01*
X151282416Y-79059000D01*
X149258963Y-79059000D01*
X149191924Y-79039315D01*
X149171282Y-79022681D01*
X148985096Y-78836495D01*
X148951611Y-78775172D01*
X148956595Y-78705480D01*
X148998467Y-78649547D01*
X149034458Y-78630883D01*
X149144219Y-78595220D01*
X149326610Y-78502287D01*
X149456854Y-78407660D01*
X149492213Y-78381971D01*
X149492215Y-78381968D01*
X149492219Y-78381966D01*
X149636966Y-78237219D01*
X149636968Y-78237215D01*
X149636971Y-78237213D01*
X149699970Y-78150501D01*
X149757287Y-78071610D01*
X149850220Y-77889219D01*
X149913477Y-77694534D01*
X149945500Y-77492352D01*
X149945500Y-77287648D01*
X149917837Y-77112993D01*
X149913477Y-77085465D01*
X149850218Y-76890776D01*
X149807310Y-76806566D01*
X149757287Y-76708390D01*
X149727046Y-76666766D01*
X149636971Y-76542786D01*
X149492213Y-76398028D01*
X149326614Y-76277715D01*
X149320006Y-76274348D01*
X149233917Y-76230483D01*
X149183123Y-76182511D01*
X149166328Y-76114690D01*
X149188865Y-76048555D01*
X149233917Y-76009516D01*
X149326610Y-75962287D01*
X149392458Y-75914446D01*
X149492213Y-75841971D01*
X149492215Y-75841968D01*
X149492219Y-75841966D01*
X149636966Y-75697219D01*
X149636968Y-75697215D01*
X149636971Y-75697213D01*
X149711595Y-75594500D01*
X149757287Y-75531610D01*
X149850220Y-75349219D01*
X149913477Y-75154534D01*
X149945500Y-74952352D01*
X149945500Y-74747648D01*
X149933628Y-74672692D01*
X149913477Y-74545465D01*
X149879367Y-74440485D01*
X149850220Y-74350781D01*
X149850218Y-74350778D01*
X149850218Y-74350776D01*
X149807733Y-74267395D01*
X149757287Y-74168390D01*
X149715666Y-74111103D01*
X149636971Y-74002786D01*
X149492213Y-73858028D01*
X149326614Y-73737715D01*
X149279635Y-73713778D01*
X149233917Y-73690483D01*
X149183123Y-73642511D01*
X149166328Y-73574690D01*
X149188865Y-73508555D01*
X149233917Y-73469516D01*
X149326610Y-73422287D01*
X149411103Y-73360900D01*
X149492213Y-73301971D01*
X149492215Y-73301968D01*
X149492219Y-73301966D01*
X149636966Y-73157219D01*
X149636968Y-73157215D01*
X149636971Y-73157213D01*
X149706482Y-73061538D01*
X149757287Y-72991610D01*
X149850220Y-72809219D01*
X149913477Y-72614534D01*
X149945500Y-72412352D01*
X149945500Y-72207648D01*
X149924702Y-72076335D01*
X149913477Y-72005465D01*
X149869521Y-71870184D01*
X149850220Y-71810781D01*
X149850218Y-71810778D01*
X149850218Y-71810776D01*
X149813973Y-71739642D01*
X149757287Y-71628390D01*
X149726166Y-71585555D01*
X149636971Y-71462786D01*
X149492213Y-71318028D01*
X149326614Y-71197715D01*
X149311470Y-71189999D01*
X149233917Y-71150483D01*
X149183123Y-71102511D01*
X149166328Y-71034690D01*
X149188865Y-70968555D01*
X149233917Y-70929516D01*
X149326610Y-70882287D01*
X149367203Y-70852795D01*
X149492213Y-70761971D01*
X149492215Y-70761968D01*
X149492219Y-70761966D01*
X149636966Y-70617219D01*
X149713327Y-70512115D01*
X149768657Y-70469449D01*
X149813646Y-70461000D01*
X150091466Y-70461000D01*
X150145268Y-70473280D01*
X150150482Y-70475791D01*
X150320737Y-70535366D01*
X150320743Y-70535367D01*
X150320745Y-70535368D01*
X150320746Y-70535368D01*
X150320750Y-70535369D01*
X150499996Y-70555565D01*
X150500000Y-70555565D01*
X150500004Y-70555565D01*
X150679249Y-70535369D01*
X150679252Y-70535368D01*
X150679255Y-70535368D01*
X150849522Y-70475789D01*
X151002262Y-70379816D01*
X151129816Y-70252262D01*
X151225789Y-70099522D01*
X151285368Y-69929255D01*
X151287235Y-69912684D01*
X151305565Y-69750003D01*
X151305565Y-69749996D01*
X151285916Y-69575603D01*
X151297971Y-69506781D01*
X151345320Y-69455402D01*
X151412930Y-69437778D01*
X151479336Y-69459505D01*
X151496817Y-69474039D01*
X151640187Y-69617409D01*
X151673672Y-69678732D01*
X151672281Y-69737182D01*
X151664939Y-69764584D01*
X151664936Y-69764597D01*
X151644341Y-69999999D01*
X151644341Y-70000000D01*
X151664936Y-70235403D01*
X151664938Y-70235413D01*
X151726094Y-70463655D01*
X151726096Y-70463659D01*
X151726097Y-70463663D01*
X151768952Y-70555565D01*
X151825965Y-70677830D01*
X151825967Y-70677834D01*
X151890037Y-70769334D01*
X151955167Y-70862350D01*
X151961501Y-70871395D01*
X151961506Y-70871402D01*
X152128597Y-71038493D01*
X152128603Y-71038498D01*
X152314158Y-71168425D01*
X152357783Y-71223002D01*
X152364977Y-71292500D01*
X152333454Y-71354855D01*
X152314158Y-71371575D01*
X152128597Y-71501505D01*
X151961505Y-71668597D01*
X151825965Y-71862169D01*
X151825964Y-71862171D01*
X151726098Y-72076335D01*
X151726094Y-72076344D01*
X151664938Y-72304586D01*
X151664936Y-72304596D01*
X151644341Y-72539999D01*
X151644341Y-72540000D01*
X151664936Y-72775403D01*
X151664938Y-72775413D01*
X151726094Y-73003655D01*
X151726096Y-73003659D01*
X151726097Y-73003663D01*
X151732914Y-73018281D01*
X151825965Y-73217830D01*
X151825967Y-73217834D01*
X151889326Y-73308319D01*
X151961505Y-73411401D01*
X152128599Y-73578495D01*
X152174307Y-73610500D01*
X152322165Y-73714032D01*
X152322167Y-73714033D01*
X152322170Y-73714035D01*
X152536337Y-73813903D01*
X152764592Y-73875063D01*
X152952918Y-73891539D01*
X152999999Y-73895659D01*
X153000000Y-73895659D01*
X153000001Y-73895659D01*
X153039234Y-73892226D01*
X153235408Y-73875063D01*
X153463663Y-73813903D01*
X153677830Y-73714035D01*
X153871401Y-73578495D01*
X154038495Y-73411401D01*
X154174035Y-73217830D01*
X154273903Y-73003663D01*
X154335063Y-72775408D01*
X154355659Y-72540000D01*
X154335063Y-72304592D01*
X154273903Y-72076337D01*
X154174035Y-71862171D01*
X154146764Y-71823223D01*
X154038494Y-71668597D01*
X153871402Y-71501506D01*
X153871396Y-71501501D01*
X153685842Y-71371575D01*
X153642217Y-71316998D01*
X153635023Y-71247500D01*
X153666546Y-71185145D01*
X153685842Y-71168425D01*
X153778140Y-71103797D01*
X153871401Y-71038495D01*
X154038495Y-70871401D01*
X154174035Y-70677830D01*
X154273903Y-70463663D01*
X154335063Y-70235408D01*
X154355659Y-70000000D01*
X154335063Y-69764592D01*
X154284424Y-69575603D01*
X154273905Y-69536344D01*
X154273904Y-69536343D01*
X154273903Y-69536337D01*
X154174035Y-69322171D01*
X154158261Y-69299644D01*
X154038496Y-69128600D01*
X153980538Y-69070642D01*
X153916179Y-69006283D01*
X153882696Y-68944963D01*
X153887680Y-68875271D01*
X153929551Y-68819337D01*
X153960529Y-68802422D01*
X154092086Y-68753354D01*
X154092093Y-68753350D01*
X154207187Y-68667190D01*
X154207190Y-68667187D01*
X154293350Y-68552093D01*
X154293354Y-68552086D01*
X154343596Y-68417379D01*
X154343598Y-68417372D01*
X154349999Y-68357844D01*
X154350000Y-68357827D01*
X154350000Y-67710000D01*
X153433012Y-67710000D01*
X153465925Y-67652993D01*
X153500000Y-67525826D01*
X153500000Y-67394174D01*
X153465925Y-67267007D01*
X153433012Y-67210000D01*
X154350000Y-67210000D01*
X154350000Y-66562172D01*
X154349999Y-66562155D01*
X154343598Y-66502627D01*
X154343596Y-66502620D01*
X154293354Y-66367913D01*
X154293350Y-66367906D01*
X154207190Y-66252812D01*
X154207187Y-66252809D01*
X154092093Y-66166649D01*
X154092086Y-66166645D01*
X153957379Y-66116403D01*
X153957372Y-66116401D01*
X153897844Y-66110000D01*
X153250000Y-66110000D01*
X153250000Y-67026988D01*
X153192993Y-66994075D01*
X153065826Y-66960000D01*
X152934174Y-66960000D01*
X152807007Y-66994075D01*
X152750000Y-67026988D01*
X152750000Y-66110000D01*
X152102155Y-66110000D01*
X152042627Y-66116401D01*
X152042620Y-66116403D01*
X151907913Y-66166645D01*
X151907906Y-66166649D01*
X151792812Y-66252809D01*
X151792809Y-66252812D01*
X151706649Y-66367906D01*
X151706645Y-66367913D01*
X151656403Y-66502620D01*
X151656401Y-66502627D01*
X151650000Y-66562155D01*
X151650000Y-67210000D01*
X152566988Y-67210000D01*
X152534075Y-67267007D01*
X152500000Y-67394174D01*
X152500000Y-67525826D01*
X152534075Y-67652993D01*
X152566988Y-67710000D01*
X151650000Y-67710000D01*
X151639607Y-67720392D01*
X151630315Y-67752039D01*
X151577511Y-67797794D01*
X151526000Y-67809000D01*
X149994969Y-67809000D01*
X149927930Y-67789315D01*
X149882175Y-67736511D01*
X149872231Y-67667353D01*
X149877038Y-67646681D01*
X149913477Y-67534534D01*
X149916921Y-67512791D01*
X149945500Y-67332352D01*
X149945500Y-67127648D01*
X149913477Y-66925466D01*
X149909559Y-66913410D01*
X149907563Y-66843572D01*
X149939807Y-66787413D01*
X150999903Y-65727319D01*
X151061226Y-65693834D01*
X151087584Y-65691000D01*
X158340758Y-65691000D01*
X158407797Y-65710685D01*
G37*
%TD.AperFunction*%
%TD*%
M02*
