%TF.GenerationSoftware,KiCad,Pcbnew,8.0.8*%
%TF.CreationDate,2025-02-20T12:29:39-05:00*%
%TF.ProjectId,Stardust,53746172-6475-4737-942e-6b696361645f,rev?*%
%TF.SameCoordinates,Original*%
%TF.FileFunction,Copper,L2,Bot*%
%TF.FilePolarity,Positive*%
%FSLAX46Y46*%
G04 Gerber Fmt 4.6, Leading zero omitted, Abs format (unit mm)*
G04 Created by KiCad (PCBNEW 8.0.8) date 2025-02-20 12:29:39*
%MOMM*%
%LPD*%
G01*
G04 APERTURE LIST*
G04 Aperture macros list*
%AMRoundRect*
0 Rectangle with rounded corners*
0 $1 Rounding radius*
0 $2 $3 $4 $5 $6 $7 $8 $9 X,Y pos of 4 corners*
0 Add a 4 corners polygon primitive as box body*
4,1,4,$2,$3,$4,$5,$6,$7,$8,$9,$2,$3,0*
0 Add four circle primitives for the rounded corners*
1,1,$1+$1,$2,$3*
1,1,$1+$1,$4,$5*
1,1,$1+$1,$6,$7*
1,1,$1+$1,$8,$9*
0 Add four rect primitives between the rounded corners*
20,1,$1+$1,$2,$3,$4,$5,0*
20,1,$1+$1,$4,$5,$6,$7,0*
20,1,$1+$1,$6,$7,$8,$9,0*
20,1,$1+$1,$8,$9,$2,$3,0*%
G04 Aperture macros list end*
%TA.AperFunction,ComponentPad*%
%ADD10R,1.700000X1.700000*%
%TD*%
%TA.AperFunction,ComponentPad*%
%ADD11O,1.700000X1.700000*%
%TD*%
%TA.AperFunction,ComponentPad*%
%ADD12R,1.150000X1.150000*%
%TD*%
%TA.AperFunction,ComponentPad*%
%ADD13C,1.150000*%
%TD*%
%TA.AperFunction,ComponentPad*%
%ADD14R,5.385000X5.385000*%
%TD*%
%TA.AperFunction,ComponentPad*%
%ADD15C,4.005000*%
%TD*%
%TA.AperFunction,ComponentPad*%
%ADD16C,4.200000*%
%TD*%
%TA.AperFunction,ComponentPad*%
%ADD17R,1.508000X1.508000*%
%TD*%
%TA.AperFunction,ComponentPad*%
%ADD18C,1.508000*%
%TD*%
%TA.AperFunction,ComponentPad*%
%ADD19R,1.530000X1.530000*%
%TD*%
%TA.AperFunction,ComponentPad*%
%ADD20C,1.530000*%
%TD*%
%TA.AperFunction,SMDPad,CuDef*%
%ADD21RoundRect,0.250000X-0.350000X-0.450000X0.350000X-0.450000X0.350000X0.450000X-0.350000X0.450000X0*%
%TD*%
%TA.AperFunction,SMDPad,CuDef*%
%ADD22RoundRect,0.250000X0.350000X0.450000X-0.350000X0.450000X-0.350000X-0.450000X0.350000X-0.450000X0*%
%TD*%
%TA.AperFunction,ComponentPad*%
%ADD23R,2.000000X2.000000*%
%TD*%
%TA.AperFunction,ComponentPad*%
%ADD24O,2.000000X1.600000*%
%TD*%
%TA.AperFunction,ViaPad*%
%ADD25C,0.600000*%
%TD*%
%TA.AperFunction,Conductor*%
%ADD26C,0.381000*%
%TD*%
G04 APERTURE END LIST*
D10*
%TO.P,J7,1,Pin_1*%
%TO.N,+5V*%
X135500000Y-88000000D03*
D11*
%TO.P,J7,2,Pin_2*%
%TO.N,Net-(J7-Pin_2)*%
X138040000Y-88000000D03*
%TD*%
D12*
%TO.P,U8,1,1*%
%TO.N,Net-(J1-Pad1)*%
X195275000Y-53450000D03*
D13*
%TO.P,U8,2,2*%
%TO.N,Net-(J3-Pin_1)*%
X190195000Y-53450000D03*
%TD*%
D10*
%TO.P,J3,1,Pin_1*%
%TO.N,Net-(J3-Pin_1)*%
X191460000Y-58000000D03*
D11*
%TO.P,J3,2,Pin_2*%
%TO.N,+12V*%
X194000000Y-58000000D03*
%TD*%
D14*
%TO.P,J1,1*%
%TO.N,Net-(J1-Pad1)*%
X190000000Y-66700000D03*
D15*
%TO.P,J1,2*%
%TO.N,GND*%
X192300000Y-72000000D03*
D16*
%TO.P,J1,3,switch*%
%TO.N,unconnected-(J1-switch-Pad3)*%
X196000000Y-69500000D03*
%TD*%
D17*
%TO.P,U2,1,~{EN}*%
%TO.N,/EN*%
X144890000Y-106000000D03*
D18*
%TO.P,U2,2,MS1*%
%TO.N,GND*%
X142350000Y-106000000D03*
%TO.P,U2,3,MS2*%
X139810000Y-106000000D03*
%TO.P,U2,4,PDN*%
%TO.N,/UART_RX*%
X137270000Y-106000000D03*
%TO.P,U2,5,PDN*%
%TO.N,unconnected-(U2-PDN-Pad5)*%
X134730000Y-106000000D03*
%TO.P,U2,6,CLK*%
%TO.N,unconnected-(U2-CLK-Pad6)*%
X132190000Y-106000000D03*
%TO.P,U2,7,STEP*%
%TO.N,/STEP_1*%
X129650000Y-106000000D03*
%TO.P,U2,8,DIR*%
%TO.N,/DIR_1*%
X127110000Y-106000000D03*
%TO.P,U2,9,GND*%
%TO.N,GND*%
X144890000Y-93300000D03*
%TO.P,U2,10,VDD*%
%TO.N,+3.3V*%
X142350000Y-93300000D03*
%TO.P,U2,11,B2*%
%TO.N,/B2_1*%
X139810000Y-93300000D03*
%TO.P,U2,12,B1*%
%TO.N,/B1_1*%
X137270000Y-93300000D03*
%TO.P,U2,13,A1*%
%TO.N,/A1_1*%
X134730000Y-93300000D03*
%TO.P,U2,14,A2*%
%TO.N,/A2_1*%
X132190000Y-93300000D03*
%TO.P,U2,15,GND*%
%TO.N,GND*%
X129650000Y-93300000D03*
%TO.P,U2,16,VM*%
%TO.N,+12V*%
X127110000Y-93300000D03*
%TD*%
D19*
%TO.P,U1,1,3V3*%
%TO.N,+3.3V*%
X182400000Y-76860000D03*
D20*
%TO.P,U1,2,EN*%
%TO.N,/ESP32_RST*%
X182400000Y-79400000D03*
%TO.P,U1,3,SENSOR_VP*%
%TO.N,/PEC*%
X182400000Y-81940000D03*
%TO.P,U1,4,SENSOR_VN*%
%TO.N,/UART_RX*%
X182400000Y-84480000D03*
%TO.P,U1,5,IO34*%
%TO.N,/RA-*%
X182400000Y-87020000D03*
%TO.P,U1,6,IO35*%
%TO.N,/RA+*%
X182400000Y-89560000D03*
%TO.P,U1,7,IO32*%
%TO.N,/DE-*%
X182400000Y-92100000D03*
%TO.P,U1,8,IO33*%
%TO.N,/DE+*%
X182400000Y-94640000D03*
%TO.P,U1,9,IO25*%
%TO.N,/AUX8*%
X182400000Y-97180000D03*
%TO.P,U1,10,IO26*%
%TO.N,/DIR2*%
X182400000Y-99720000D03*
%TO.P,U1,11,IO27*%
%TO.N,/STEP2*%
X182400000Y-102260000D03*
%TO.P,U1,12,IO14*%
%TO.N,/AUX3*%
X182400000Y-104800000D03*
%TO.P,U1,13,IO12*%
%TO.N,/STA*%
X182400000Y-107340000D03*
%TO.P,U1,14,GND1*%
%TO.N,GND*%
X182400000Y-109880000D03*
%TO.P,U1,15,IO13*%
%TO.N,/AUX4*%
X182400000Y-112420000D03*
%TO.P,U1,16,SD2*%
%TO.N,unconnected-(U1-SD2-Pad16)*%
X182400000Y-114960000D03*
%TO.P,U1,17,SD3*%
%TO.N,unconnected-(U1-SD3-Pad17)*%
X182400000Y-117500000D03*
%TO.P,U1,18,CMD*%
%TO.N,unconnected-(U1-CMD-Pad18)*%
X182400000Y-120040000D03*
%TO.P,U1,19,EXT_5V*%
%TO.N,+5V*%
X182400000Y-122580000D03*
%TO.P,U1,20,CLK*%
%TO.N,unconnected-(U1-CLK-Pad20)*%
X157000000Y-122580000D03*
%TO.P,U1,21,SD0*%
%TO.N,unconnected-(U1-SD0-Pad21)*%
X157000000Y-120040000D03*
%TO.P,U1,22,SD1*%
%TO.N,unconnected-(U1-SD1-Pad22)*%
X157000000Y-117500000D03*
%TO.P,U1,23,IO15*%
%TO.N,unconnected-(U1-IO15-Pad23)*%
X157000000Y-114960000D03*
%TO.P,U1,24,IO2*%
%TO.N,unconnected-(U1-IO2-Pad24)*%
X157000000Y-112420000D03*
%TO.P,U1,25,IO0*%
%TO.N,/DIR1*%
X157000000Y-109880000D03*
%TO.P,U1,26,IO4*%
%TO.N,/UART_TX*%
X157000000Y-107340000D03*
%TO.P,U1,27,IO16*%
%TO.N,/RX2*%
X157000000Y-104800000D03*
%TO.P,U1,28,IO17*%
%TO.N,/TX2*%
X157000000Y-102260000D03*
%TO.P,U1,29,IO5*%
%TO.N,/EN*%
X157000000Y-99720000D03*
%TO.P,U1,30,IO18*%
%TO.N,/STEP1*%
X157000000Y-97180000D03*
%TO.P,U1,31,IO19*%
%TO.N,unconnected-(U1-IO19-Pad31)*%
X157000000Y-94640000D03*
%TO.P,U1,32,GND2*%
%TO.N,GND*%
X157000000Y-92100000D03*
%TO.P,U1,33,IO21*%
%TO.N,/SDA*%
X157000000Y-89560000D03*
%TO.P,U1,34,RXD0*%
%TO.N,/TX0*%
X157000000Y-87020000D03*
%TO.P,U1,35,TXD0*%
%TO.N,/RX0*%
X157000000Y-84480000D03*
%TO.P,U1,36,IO22*%
%TO.N,/SCL*%
X157000000Y-81940000D03*
%TO.P,U1,37,IO23*%
%TO.N,/AUX7*%
X157000000Y-79400000D03*
%TO.P,U1,38,GND3*%
%TO.N,GND*%
X157000000Y-76860000D03*
%TD*%
D21*
%TO.P,R6,1*%
%TO.N,/EN2_B*%
X131250000Y-70250000D03*
%TO.P,R6,2*%
%TO.N,/PUL*%
X133250000Y-70250000D03*
%TD*%
D17*
%TO.P,U3,1,~{EN}*%
%TO.N,/EN*%
X144780000Y-122700000D03*
D18*
%TO.P,U3,2,MS1*%
%TO.N,GND*%
X142240000Y-122700000D03*
%TO.P,U3,3,MS2*%
%TO.N,+3.3V*%
X139700000Y-122700000D03*
%TO.P,U3,4,PDN*%
%TO.N,/UART_RX*%
X137160000Y-122700000D03*
%TO.P,U3,5,PDN*%
%TO.N,unconnected-(U3-PDN-Pad5)*%
X134620000Y-122700000D03*
%TO.P,U3,6,CLK*%
%TO.N,unconnected-(U3-CLK-Pad6)*%
X132080000Y-122700000D03*
%TO.P,U3,7,STEP*%
%TO.N,/STEP_2*%
X129540000Y-122700000D03*
%TO.P,U3,8,DIR*%
%TO.N,/DIR_2*%
X127000000Y-122700000D03*
%TO.P,U3,9,GND*%
%TO.N,GND*%
X144780000Y-110000000D03*
%TO.P,U3,10,VDD*%
%TO.N,+3.3V*%
X142240000Y-110000000D03*
%TO.P,U3,11,B2*%
%TO.N,/B2_2*%
X139700000Y-110000000D03*
%TO.P,U3,12,B1*%
%TO.N,/B1_2*%
X137160000Y-110000000D03*
%TO.P,U3,13,A1*%
%TO.N,/A1_2*%
X134620000Y-110000000D03*
%TO.P,U3,14,A2*%
%TO.N,/A2_2*%
X132080000Y-110000000D03*
%TO.P,U3,15,GND*%
%TO.N,GND*%
X129540000Y-110000000D03*
%TO.P,U3,16,VM*%
%TO.N,+12V*%
X127000000Y-110000000D03*
%TD*%
D22*
%TO.P,R5,1*%
%TO.N,/EN1_A*%
X142500000Y-66750000D03*
%TO.P,R5,2*%
%TO.N,/PUL*%
X140500000Y-66750000D03*
%TD*%
D10*
%TO.P,J5,1,Pin_1*%
%TO.N,/B2_2*%
X151000000Y-120080000D03*
D11*
%TO.P,J5,2,Pin_2*%
%TO.N,/A2_2*%
X151000000Y-117540000D03*
%TO.P,J5,3,Pin_3*%
%TO.N,/A1_2*%
X151000000Y-115000000D03*
%TO.P,J5,4,Pin_4*%
%TO.N,/B1_2*%
X151000000Y-112460000D03*
%TD*%
D22*
%TO.P,R4,1*%
%TO.N,/EN1_B*%
X142500000Y-70000000D03*
%TO.P,R4,2*%
%TO.N,/PUL*%
X140500000Y-70000000D03*
%TD*%
D21*
%TO.P,R7,1*%
%TO.N,/EN2_A*%
X131250000Y-67000000D03*
%TO.P,R7,2*%
%TO.N,/PUL*%
X133250000Y-67000000D03*
%TD*%
D10*
%TO.P,J6,1,Pin_1*%
%TO.N,GND*%
X153000000Y-67460000D03*
D11*
%TO.P,J6,2,Pin_2*%
%TO.N,/PUL*%
X153000000Y-70000000D03*
%TO.P,J6,3,Pin_3*%
%TO.N,+3.3V*%
X153000000Y-72540000D03*
%TD*%
D10*
%TO.P,J8,1,Pin_1*%
%TO.N,GND*%
X195000000Y-77420000D03*
D11*
%TO.P,J8,2,Pin_2*%
%TO.N,+5V*%
X195000000Y-79960000D03*
%TO.P,J8,3,Pin_3*%
%TO.N,/EN1_B*%
X195000000Y-82500000D03*
%TO.P,J8,4,Pin_4*%
%TO.N,/EN1_A*%
X195000000Y-85040000D03*
%TO.P,J8,5,Pin_5*%
%TO.N,/EN2_B*%
X195000000Y-87580000D03*
%TO.P,J8,6,Pin_6*%
%TO.N,/EN2_A*%
X195000000Y-90120000D03*
%TO.P,J8,7,Pin_7*%
%TO.N,/AUX3*%
X195000000Y-92660000D03*
%TO.P,J8,8,Pin_8*%
%TO.N,/AUX4*%
X195000000Y-95200000D03*
%TO.P,J8,9,Pin_9*%
%TO.N,/TX0*%
X195000000Y-97740000D03*
%TO.P,J8,10,Pin_10*%
%TO.N,/RX0*%
X195000000Y-100280000D03*
%TO.P,J8,11,Pin_11*%
%TO.N,/SCL*%
X195000000Y-102820000D03*
%TO.P,J8,12,Pin_12*%
%TO.N,/SDA*%
X195000000Y-105360000D03*
%TO.P,J8,13,Pin_13*%
%TO.N,/PEC*%
X195000000Y-107900000D03*
%TO.P,J8,14,Pin_14*%
%TO.N,/AUX7*%
X195000000Y-110440000D03*
%TO.P,J8,15,Pin_15*%
%TO.N,+3.3V*%
X195000000Y-112980000D03*
%TO.P,J8,16,Pin_16*%
X195000000Y-115520000D03*
%TO.P,J8,17,Pin_17*%
%TO.N,/LIMIT*%
X195000000Y-118060000D03*
%TO.P,J8,18,Pin_18*%
%TO.N,/AUX7*%
X195000000Y-120600000D03*
%TO.P,J8,19,Pin_19*%
%TO.N,/PPS*%
X195000000Y-123140000D03*
%TD*%
D10*
%TO.P,J4,1,Pin_1*%
%TO.N,/B2_1*%
X151000000Y-103300000D03*
D11*
%TO.P,J4,2,Pin_2*%
%TO.N,/A2_1*%
X151000000Y-100760000D03*
%TO.P,J4,3,Pin_3*%
%TO.N,/A1_1*%
X151000000Y-98220000D03*
%TO.P,J4,4,Pin_4*%
%TO.N,/B1_1*%
X151000000Y-95680000D03*
%TD*%
D23*
%TO.P,U4,1,~{RST}*%
%TO.N,unconnected-(U4-~{RST}-Pad1)*%
X148445000Y-59610000D03*
D24*
%TO.P,U4,2,A0*%
%TO.N,unconnected-(U4-A0-Pad2)*%
X148445000Y-62150000D03*
%TO.P,U4,3,D0*%
%TO.N,unconnected-(U4-D0-Pad3)*%
X148445000Y-64690000D03*
%TO.P,U4,4,SCK/D5*%
%TO.N,/EN1_A*%
X148445000Y-67230000D03*
%TO.P,U4,5,MISO/D6*%
%TO.N,/EN1_B*%
X148445000Y-69770000D03*
%TO.P,U4,6,MOSI/D7*%
%TO.N,/TX2*%
X148445000Y-72310000D03*
%TO.P,U4,7,CS/D8*%
%TO.N,/RX2*%
X148445000Y-74850000D03*
%TO.P,U4,8,3V3*%
%TO.N,unconnected-(U4-3V3-Pad8)*%
X148445000Y-77390000D03*
%TO.P,U4,9,5V*%
%TO.N,+5V*%
X125585000Y-77390000D03*
%TO.P,U4,10,GND*%
%TO.N,GND*%
X125585000Y-74850000D03*
%TO.P,U4,11,D4*%
%TO.N,unconnected-(U4-D4-Pad11)*%
X125585000Y-72310000D03*
%TO.P,U4,12,D3*%
%TO.N,unconnected-(U4-D3-Pad12)*%
X125585000Y-69770000D03*
%TO.P,U4,13,SDA/D2*%
%TO.N,/EN2_B*%
X125585000Y-67230000D03*
%TO.P,U4,14,SCL/D1*%
%TO.N,/EN2_A*%
X125585000Y-64690000D03*
%TO.P,U4,15,RX*%
%TO.N,unconnected-(U4-RX-Pad15)*%
X125585000Y-62150000D03*
%TO.P,U4,16,TX*%
%TO.N,unconnected-(U4-TX-Pad16)*%
X125585000Y-59610000D03*
%TD*%
D25*
%TO.N,GND*%
X170500000Y-72000000D03*
X165250000Y-81500000D03*
X176250000Y-121000000D03*
X165250000Y-67250000D03*
X171750000Y-102500000D03*
X187750000Y-79500000D03*
X161250000Y-95000000D03*
X170500000Y-67250000D03*
X135345000Y-73845000D03*
X172500000Y-76500000D03*
X188500000Y-124250000D03*
%TO.N,+12V*%
X182250000Y-125250000D03*
X198250000Y-125250000D03*
%TO.N,/DE+*%
X145250000Y-89250000D03*
X140250000Y-82750000D03*
X143500000Y-87500000D03*
%TO.N,/RA-*%
X132750000Y-81250000D03*
%TO.N,/DE-*%
X137000000Y-82750000D03*
%TO.N,/RA+*%
X144500000Y-82750000D03*
%TO.N,/EN*%
X146750000Y-121750000D03*
X146750000Y-108500000D03*
%TO.N,/EN1_B*%
X150500000Y-69750000D03*
X163250000Y-67500000D03*
%TO.N,/EN2_A*%
X129250000Y-72500000D03*
X129250000Y-67500000D03*
%TO.N,/B2_1*%
X148500000Y-103250000D03*
X141250000Y-94500000D03*
%TO.N,/B2_2*%
X141000000Y-111500000D03*
X145750000Y-120250000D03*
%TO.N,/RX2*%
X154250000Y-100250000D03*
X154250000Y-103750000D03*
X152500000Y-79000000D03*
X151000000Y-77500000D03*
%TO.N,/TX2*%
X155250000Y-103000000D03*
X153065687Y-78434313D03*
X155250000Y-100250000D03*
X151569361Y-76938011D03*
%TO.N,/RX0*%
X162750000Y-85059500D03*
X190250000Y-94500000D03*
X162750000Y-89750000D03*
X179250000Y-93250000D03*
%TO.N,/SDA*%
X159000000Y-89250000D03*
X160000000Y-91250000D03*
%TO.N,/PEC*%
X193000000Y-93000000D03*
%TO.N,/SCL*%
X160750000Y-82500000D03*
X160750000Y-90250000D03*
%TO.N,/TX0*%
X179250000Y-91000000D03*
X163750000Y-89750000D03*
X191500000Y-92750000D03*
X163750000Y-87491500D03*
%TO.N,/AUX4*%
X197000000Y-95200000D03*
%TO.N,/AUX7*%
X179750000Y-94750000D03*
X161750000Y-82559500D03*
X161750000Y-89750000D03*
X191250000Y-110500000D03*
%TD*%
D26*
%TO.N,GND*%
X125585000Y-74850000D02*
X133650000Y-74850000D01*
X133650000Y-74850000D02*
X134655000Y-73845000D01*
X134655000Y-73845000D02*
X135345000Y-73845000D01*
%TO.N,+12V*%
X182250000Y-125250000D02*
X198250000Y-125250000D01*
%TO.N,/DE+*%
X140250000Y-82750000D02*
X140250000Y-84250000D01*
X161237000Y-88763000D02*
X179763000Y-88763000D01*
X140250000Y-84250000D02*
X143500000Y-87500000D01*
X180178171Y-92418171D02*
X182400000Y-94640000D01*
X159215500Y-90715500D02*
X159250000Y-90750000D01*
X145250000Y-89250000D02*
X146715500Y-90715500D01*
X146715500Y-90715500D02*
X159215500Y-90715500D01*
X180178171Y-89178171D02*
X180178171Y-92418171D01*
X159250000Y-90750000D02*
X161237000Y-88763000D01*
X179763000Y-88763000D02*
X180178171Y-89178171D01*
%TO.N,/RA-*%
X152250000Y-83250000D02*
X174500000Y-83250000D01*
X174500000Y-83250000D02*
X178270000Y-87020000D01*
X178270000Y-87020000D02*
X182400000Y-87020000D01*
X132750000Y-81250000D02*
X150250000Y-81250000D01*
X150250000Y-81250000D02*
X152250000Y-83250000D01*
%TO.N,/DE-*%
X142500000Y-88250000D02*
X137000000Y-82750000D01*
X159318000Y-88182000D02*
X159250000Y-88250000D01*
X180759171Y-90459171D02*
X180759171Y-88740829D01*
X180759171Y-88740829D02*
X180200342Y-88182000D01*
X182400000Y-92100000D02*
X180759171Y-90459171D01*
X180200342Y-88182000D02*
X159318000Y-88182000D01*
X159250000Y-88250000D02*
X142500000Y-88250000D01*
%TO.N,/RA+*%
X178029342Y-87601000D02*
X180441000Y-87601000D01*
X150500000Y-82750000D02*
X151581000Y-83831000D01*
X176178342Y-85750000D02*
X178029342Y-87601000D01*
X144500000Y-82750000D02*
X150500000Y-82750000D01*
X180441000Y-87601000D02*
X182400000Y-89560000D01*
X156250000Y-85750000D02*
X176178342Y-85750000D01*
X154331000Y-83831000D02*
X156250000Y-85750000D01*
X151581000Y-83831000D02*
X154331000Y-83831000D01*
%TO.N,/EN*%
X146750000Y-108500000D02*
X146750000Y-121750000D01*
%TO.N,/PUL*%
X133250000Y-67000000D02*
X140250000Y-67000000D01*
X140250000Y-67000000D02*
X140500000Y-66750000D01*
X142000000Y-68500000D02*
X151500000Y-68500000D01*
X140500000Y-70000000D02*
X133500000Y-70000000D01*
X151500000Y-68500000D02*
X153000000Y-70000000D01*
X133500000Y-70000000D02*
X133250000Y-70250000D01*
X133250000Y-67000000D02*
X133250000Y-70250000D01*
X140500000Y-70000000D02*
X142000000Y-68500000D01*
%TO.N,/EN1_B*%
X176500000Y-72250000D02*
X173000000Y-68750000D01*
X148445000Y-69770000D02*
X150480000Y-69770000D01*
X150480000Y-69770000D02*
X150500000Y-69750000D01*
X163250000Y-67750000D02*
X164250000Y-68750000D01*
X163250000Y-67500000D02*
X163250000Y-67750000D01*
X148215000Y-70000000D02*
X148445000Y-69770000D01*
X173000000Y-68750000D02*
X164250000Y-68750000D01*
X142500000Y-70000000D02*
X148215000Y-70000000D01*
X195000000Y-82500000D02*
X184750000Y-72250000D01*
X176500000Y-72250000D02*
X184750000Y-72250000D01*
%TO.N,/EN1_A*%
X148445000Y-67230000D02*
X148520000Y-67230000D01*
X158678342Y-65000000D02*
X163009342Y-69331000D01*
X191839171Y-80160829D02*
X191839171Y-81879171D01*
X150750000Y-65000000D02*
X158678342Y-65000000D01*
X191839171Y-81879171D02*
X195000000Y-85040000D01*
X172759342Y-69331000D02*
X176259342Y-72831000D01*
X148520000Y-67230000D02*
X150750000Y-65000000D01*
X163009342Y-69331000D02*
X172759342Y-69331000D01*
X142500000Y-66750000D02*
X147965000Y-66750000D01*
X176259342Y-72831000D02*
X184509342Y-72831000D01*
X184509342Y-72831000D02*
X191839171Y-80160829D01*
X147965000Y-66750000D02*
X148445000Y-67230000D01*
%TO.N,/EN2_B*%
X133000000Y-72000000D02*
X131250000Y-70250000D01*
X159838000Y-69912000D02*
X154750000Y-75000000D01*
X184303342Y-73446658D02*
X176053342Y-73446658D01*
X154750000Y-75000000D02*
X154750000Y-77726515D01*
X143000000Y-72000000D02*
X133000000Y-72000000D01*
X195000000Y-87580000D02*
X191258171Y-83838171D01*
X176053342Y-73446658D02*
X172518684Y-69912000D01*
X191258171Y-83838171D02*
X191258171Y-80401487D01*
X143750000Y-72750000D02*
X143000000Y-72000000D01*
X172518684Y-69912000D02*
X159838000Y-69912000D01*
X152726515Y-79750000D02*
X148921379Y-79750000D01*
X191258171Y-80401487D02*
X184303342Y-73446658D01*
X128605000Y-70250000D02*
X125585000Y-67230000D01*
X143750000Y-74578621D02*
X143750000Y-72750000D01*
X131250000Y-70250000D02*
X128605000Y-70250000D01*
X154750000Y-77726515D02*
X152726515Y-79750000D01*
X148921379Y-79750000D02*
X143750000Y-74578621D01*
%TO.N,/EN2_A*%
X179000000Y-74027658D02*
X178972342Y-74027658D01*
X177750000Y-75250000D02*
X175250000Y-75250000D01*
X130750000Y-67500000D02*
X131250000Y-67000000D01*
X184062684Y-74027658D02*
X179000000Y-74027658D01*
X172278026Y-70493000D02*
X171250000Y-70493000D01*
X148680721Y-80331000D02*
X143169000Y-74819279D01*
X131250000Y-67000000D02*
X128940000Y-64690000D01*
X174000000Y-74000000D02*
X174000000Y-72214974D01*
X195000000Y-90120000D02*
X190677171Y-85797171D01*
X175250000Y-75250000D02*
X174000000Y-74000000D01*
X143169000Y-73750000D02*
X142000000Y-72581000D01*
X161250000Y-70500000D02*
X171243000Y-70500000D01*
X129250000Y-67500000D02*
X130750000Y-67500000D01*
X174000000Y-72214974D02*
X172278026Y-70493000D01*
X184062684Y-74027658D02*
X190677171Y-80642145D01*
X190677171Y-85797171D02*
X190677171Y-80642145D01*
X155331000Y-77967173D02*
X152967173Y-80331000D01*
X171250000Y-70493000D02*
X171243000Y-70500000D01*
X178972342Y-74027658D02*
X177750000Y-75250000D01*
X129331000Y-72581000D02*
X129250000Y-72500000D01*
X143169000Y-74819279D02*
X143169000Y-73750000D01*
X155331000Y-76419000D02*
X155331000Y-77967173D01*
X129331000Y-72581000D02*
X142000000Y-72581000D01*
X148680721Y-80331000D02*
X152967173Y-80331000D01*
X161250000Y-70500000D02*
X155331000Y-76419000D01*
X128940000Y-64690000D02*
X125585000Y-64690000D01*
%TO.N,/B2_1*%
X148500000Y-101750000D02*
X148500000Y-103250000D01*
X141250000Y-94500000D02*
X148500000Y-101750000D01*
%TO.N,/B2_2*%
X145750000Y-116250000D02*
X145750000Y-120250000D01*
X141000000Y-111500000D02*
X145750000Y-116250000D01*
%TO.N,/RX2*%
X152500000Y-79000000D02*
X151000000Y-77500000D01*
X154250000Y-103750000D02*
X154250000Y-100250000D01*
%TO.N,/TX2*%
X153065663Y-78434313D02*
X151569361Y-76938011D01*
X155250000Y-103000000D02*
X155250000Y-100250000D01*
X153065687Y-78434313D02*
X153065663Y-78434313D01*
%TO.N,/RX0*%
X190500000Y-94750000D02*
X190500000Y-97500000D01*
X193500000Y-100250000D02*
X193530000Y-100280000D01*
X162170500Y-84480000D02*
X162750000Y-85059500D01*
X157000000Y-84480000D02*
X162170500Y-84480000D01*
X193250000Y-100250000D02*
X193500000Y-100250000D01*
X190250000Y-94500000D02*
X190500000Y-94750000D01*
X193530000Y-100280000D02*
X195000000Y-100280000D01*
X190500000Y-97500000D02*
X193250000Y-100250000D01*
X166250000Y-93250000D02*
X179250000Y-93250000D01*
X162750000Y-89750000D02*
X166250000Y-93250000D01*
%TO.N,/SDA*%
X190515500Y-100875500D02*
X195000000Y-105360000D01*
X158690000Y-89560000D02*
X159000000Y-89250000D01*
X160000000Y-91250000D02*
X169625500Y-100875500D01*
X169625500Y-100875500D02*
X190515500Y-100875500D01*
X157000000Y-89560000D02*
X158690000Y-89560000D01*
%TO.N,/PEC*%
X182400000Y-81940000D02*
X193000000Y-92540000D01*
X193000000Y-92540000D02*
X193000000Y-93000000D01*
%TO.N,/SCL*%
X179000000Y-96000000D02*
X181564500Y-98564500D01*
X160190000Y-81940000D02*
X160750000Y-82500000D01*
X166500000Y-96000000D02*
X179000000Y-96000000D01*
X190064500Y-98564500D02*
X194320000Y-102820000D01*
X160750000Y-90250000D02*
X166500000Y-96000000D01*
X181564500Y-98564500D02*
X190064500Y-98564500D01*
X194320000Y-102820000D02*
X195000000Y-102820000D01*
X157000000Y-81940000D02*
X160190000Y-81940000D01*
%TO.N,/TX0*%
X178000000Y-89750000D02*
X179250000Y-91000000D01*
X193250000Y-97750000D02*
X193500000Y-97750000D01*
X157000000Y-87020000D02*
X163278500Y-87020000D01*
X191750000Y-96250000D02*
X193250000Y-97750000D01*
X193510000Y-97740000D02*
X195000000Y-97740000D01*
X191750000Y-93000000D02*
X191750000Y-96250000D01*
X193500000Y-97750000D02*
X193510000Y-97740000D01*
X163278500Y-87020000D02*
X163750000Y-87491500D01*
X163750000Y-89750000D02*
X178000000Y-89750000D01*
X191500000Y-92750000D02*
X191750000Y-93000000D01*
%TO.N,/AUX3*%
X196240500Y-106009500D02*
X196240500Y-93900500D01*
X182400000Y-104800000D02*
X184200500Y-106600500D01*
X184200500Y-106600500D02*
X195649500Y-106600500D01*
X196240500Y-93900500D02*
X195000000Y-92660000D01*
X195649500Y-106600500D02*
X196240500Y-106009500D01*
%TO.N,/AUX4*%
X185679500Y-109140500D02*
X182400000Y-112420000D01*
X197000000Y-95200000D02*
X197000000Y-107654332D01*
X197000000Y-107654332D02*
X195513832Y-109140500D01*
X195513832Y-109140500D02*
X185679500Y-109140500D01*
%TO.N,/AUX7*%
X161750000Y-89750000D02*
X166750000Y-94750000D01*
X194940000Y-110500000D02*
X195000000Y-110440000D01*
X166750000Y-94750000D02*
X179750000Y-94750000D01*
X161750000Y-81000000D02*
X161750000Y-82559500D01*
X191250000Y-110500000D02*
X194940000Y-110500000D01*
X160150000Y-79400000D02*
X161750000Y-81000000D01*
X157000000Y-79400000D02*
X160150000Y-79400000D01*
%TD*%
%TA.AperFunction,Conductor*%
%TO.N,GND*%
G36*
X145825995Y-110692443D02*
G01*
X145833426Y-110681832D01*
X145888003Y-110638207D01*
X145957502Y-110631015D01*
X146019856Y-110662538D01*
X146055269Y-110722768D01*
X146059000Y-110752956D01*
X146059000Y-115282416D01*
X146039315Y-115349455D01*
X145986511Y-115395210D01*
X145917353Y-115405154D01*
X145853797Y-115376129D01*
X145847319Y-115370097D01*
X141929143Y-111451921D01*
X141895658Y-111390598D01*
X141900642Y-111320906D01*
X141942514Y-111264973D01*
X142007978Y-111240556D01*
X142027623Y-111240711D01*
X142192156Y-111255106D01*
X142239998Y-111259292D01*
X142240000Y-111259292D01*
X142240002Y-111259292D01*
X142294668Y-111254509D01*
X142458674Y-111240161D01*
X142670703Y-111183347D01*
X142869646Y-111090579D01*
X143049457Y-110964674D01*
X143204674Y-110809457D01*
X143330579Y-110629646D01*
X143397893Y-110485288D01*
X143444065Y-110432849D01*
X143511258Y-110413697D01*
X143578139Y-110433912D01*
X143622657Y-110485288D01*
X143689854Y-110629392D01*
X143734003Y-110692443D01*
X144297037Y-110129409D01*
X144314075Y-110192993D01*
X144379901Y-110307007D01*
X144472993Y-110400099D01*
X144587007Y-110465925D01*
X144650590Y-110482962D01*
X144087555Y-111045996D01*
X144150601Y-111090142D01*
X144150605Y-111090144D01*
X144349466Y-111182874D01*
X144349475Y-111182878D01*
X144561407Y-111239664D01*
X144561417Y-111239666D01*
X144779999Y-111258790D01*
X144780001Y-111258790D01*
X144998582Y-111239666D01*
X144998592Y-111239664D01*
X145210524Y-111182878D01*
X145210533Y-111182874D01*
X145409392Y-111090145D01*
X145472443Y-111045995D01*
X144909410Y-110482962D01*
X144972993Y-110465925D01*
X145087007Y-110400099D01*
X145180099Y-110307007D01*
X145245925Y-110192993D01*
X145262962Y-110129409D01*
X145825995Y-110692443D01*
G37*
%TD.AperFunction*%
%TA.AperFunction,Conductor*%
G36*
X127229042Y-69871529D02*
G01*
X127280093Y-69902314D01*
X128164510Y-70786732D01*
X128164518Y-70786738D01*
X128263382Y-70852797D01*
X128263385Y-70852799D01*
X128277679Y-70862350D01*
X128277685Y-70862353D01*
X128277689Y-70862356D01*
X128277691Y-70862357D01*
X128277695Y-70862359D01*
X128403438Y-70914443D01*
X128403443Y-70914445D01*
X128403447Y-70914445D01*
X128403448Y-70914446D01*
X128536939Y-70941000D01*
X128536942Y-70941000D01*
X128536943Y-70941000D01*
X128673057Y-70941000D01*
X130099688Y-70941000D01*
X130166727Y-70960685D01*
X130211951Y-71012876D01*
X130212136Y-71012791D01*
X130212437Y-71013437D01*
X130212482Y-71013489D01*
X130212591Y-71013768D01*
X130215187Y-71019336D01*
X130231209Y-71045311D01*
X130307288Y-71168656D01*
X130431344Y-71292712D01*
X130580666Y-71384814D01*
X130747203Y-71439999D01*
X130849991Y-71450500D01*
X131421915Y-71450499D01*
X131488954Y-71470183D01*
X131509596Y-71486818D01*
X131691377Y-71668599D01*
X131701098Y-71678319D01*
X131734583Y-71739642D01*
X131729599Y-71809333D01*
X131687728Y-71865267D01*
X131622263Y-71889684D01*
X131613417Y-71890000D01*
X129819523Y-71890000D01*
X129753551Y-71870994D01*
X129599523Y-71774211D01*
X129429254Y-71714631D01*
X129429249Y-71714630D01*
X129250004Y-71694435D01*
X129249996Y-71694435D01*
X129070750Y-71714630D01*
X129070745Y-71714631D01*
X128900476Y-71774211D01*
X128747737Y-71870184D01*
X128620184Y-71997737D01*
X128524211Y-72150476D01*
X128464631Y-72320745D01*
X128464630Y-72320750D01*
X128444435Y-72499996D01*
X128444435Y-72500003D01*
X128464630Y-72679249D01*
X128464631Y-72679254D01*
X128524211Y-72849523D01*
X128570414Y-72923054D01*
X128620184Y-73002262D01*
X128747738Y-73129816D01*
X128766801Y-73141794D01*
X128887817Y-73217834D01*
X128900478Y-73225789D01*
X129036025Y-73273219D01*
X129070745Y-73285368D01*
X129070750Y-73285369D01*
X129249996Y-73305565D01*
X129250000Y-73305565D01*
X129250004Y-73305565D01*
X129353877Y-73293861D01*
X129429255Y-73285368D01*
X129447574Y-73278958D01*
X129488528Y-73272000D01*
X141662416Y-73272000D01*
X141729455Y-73291685D01*
X141750097Y-73308319D01*
X142441681Y-73999902D01*
X142475166Y-74061225D01*
X142478000Y-74087583D01*
X142478000Y-74887337D01*
X142478000Y-74887339D01*
X142477999Y-74887339D01*
X142504210Y-75019103D01*
X142504553Y-75020830D01*
X142504556Y-75020840D01*
X142556642Y-75146588D01*
X142556644Y-75146591D01*
X142632263Y-75259764D01*
X142632269Y-75259771D01*
X147719819Y-80347319D01*
X147753304Y-80408642D01*
X147748320Y-80478334D01*
X147706448Y-80534267D01*
X147640984Y-80558684D01*
X147632138Y-80559000D01*
X133190613Y-80559000D01*
X133124641Y-80539994D01*
X133099523Y-80524211D01*
X132929254Y-80464631D01*
X132929249Y-80464630D01*
X132750004Y-80444435D01*
X132749996Y-80444435D01*
X132570750Y-80464630D01*
X132570745Y-80464631D01*
X132400476Y-80524211D01*
X132247737Y-80620184D01*
X132120184Y-80747737D01*
X132024211Y-80900476D01*
X131964631Y-81070745D01*
X131964630Y-81070750D01*
X131944435Y-81249996D01*
X131944435Y-81250003D01*
X131964630Y-81429249D01*
X131964631Y-81429254D01*
X132024211Y-81599523D01*
X132059167Y-81655154D01*
X132120184Y-81752262D01*
X132247738Y-81879816D01*
X132338080Y-81936582D01*
X132382721Y-81964632D01*
X132400478Y-81975789D01*
X132531587Y-82021666D01*
X132570745Y-82035368D01*
X132570750Y-82035369D01*
X132749996Y-82055565D01*
X132750000Y-82055565D01*
X132750004Y-82055565D01*
X132929249Y-82035369D01*
X132929252Y-82035368D01*
X132929255Y-82035368D01*
X133099522Y-81975789D01*
X133123560Y-81960685D01*
X133124641Y-81960006D01*
X133190613Y-81941000D01*
X136377560Y-81941000D01*
X136444599Y-81960685D01*
X136490354Y-82013489D01*
X136500298Y-82082647D01*
X136471273Y-82146203D01*
X136465241Y-82152681D01*
X136370184Y-82247737D01*
X136274211Y-82400476D01*
X136214631Y-82570745D01*
X136214630Y-82570750D01*
X136194435Y-82749996D01*
X136194435Y-82750003D01*
X136214630Y-82929249D01*
X136214631Y-82929254D01*
X136274211Y-83099523D01*
X136370184Y-83252262D01*
X136497738Y-83379816D01*
X136497805Y-83379858D01*
X136625359Y-83460006D01*
X136650478Y-83475789D01*
X136774651Y-83519238D01*
X136821377Y-83548599D01*
X142059510Y-88786732D01*
X142059518Y-88786738D01*
X142155483Y-88850860D01*
X142155484Y-88850860D01*
X142172689Y-88862356D01*
X142172691Y-88862356D01*
X142172695Y-88862359D01*
X142275602Y-88904984D01*
X142298443Y-88914445D01*
X142298447Y-88914445D01*
X142298448Y-88914446D01*
X142431939Y-88941000D01*
X142431942Y-88941000D01*
X142431943Y-88941000D01*
X142568057Y-88941000D01*
X144340494Y-88941000D01*
X144407533Y-88960685D01*
X144453288Y-89013489D01*
X144463714Y-89078883D01*
X144444435Y-89249996D01*
X144444435Y-89250003D01*
X144464630Y-89429249D01*
X144464631Y-89429254D01*
X144524211Y-89599523D01*
X144565781Y-89665681D01*
X144620184Y-89752262D01*
X144747738Y-89879816D01*
X144900478Y-89975789D01*
X145024651Y-90019238D01*
X145071377Y-90048599D01*
X146178766Y-91155987D01*
X146248124Y-91225345D01*
X146275014Y-91252235D01*
X146388182Y-91327852D01*
X146388195Y-91327859D01*
X146440495Y-91349522D01*
X146513943Y-91379945D01*
X146513947Y-91379945D01*
X146513948Y-91379946D01*
X146647439Y-91406500D01*
X146647442Y-91406500D01*
X146647443Y-91406500D01*
X146783557Y-91406500D01*
X155732970Y-91406500D01*
X155800009Y-91426185D01*
X155845764Y-91478989D01*
X155855708Y-91548147D01*
X155845352Y-91582904D01*
X155806750Y-91665685D01*
X155806745Y-91665699D01*
X155749461Y-91879490D01*
X155749459Y-91879500D01*
X155730168Y-92099999D01*
X155730168Y-92100000D01*
X155749459Y-92320499D01*
X155749461Y-92320509D01*
X155806745Y-92534300D01*
X155806749Y-92534309D01*
X155900293Y-92734916D01*
X155900295Y-92734920D01*
X155946104Y-92800341D01*
X156508871Y-92237574D01*
X156524755Y-92296853D01*
X156591898Y-92413147D01*
X156686853Y-92508102D01*
X156803147Y-92575245D01*
X156862425Y-92591128D01*
X156299657Y-93153894D01*
X156365084Y-93199707D01*
X156488683Y-93257342D01*
X156541122Y-93303514D01*
X156560274Y-93370708D01*
X156540058Y-93437589D01*
X156488683Y-93482106D01*
X156364833Y-93539857D01*
X156183444Y-93666868D01*
X156026868Y-93823444D01*
X155899857Y-94004834D01*
X155899856Y-94004836D01*
X155806279Y-94205513D01*
X155806275Y-94205524D01*
X155748965Y-94419407D01*
X155748964Y-94419414D01*
X155729666Y-94639998D01*
X155729666Y-94640001D01*
X155748964Y-94860585D01*
X155748965Y-94860592D01*
X155806275Y-95074475D01*
X155806279Y-95074486D01*
X155876832Y-95225788D01*
X155899858Y-95275167D01*
X156026868Y-95456555D01*
X156183445Y-95613132D01*
X156364833Y-95740142D01*
X156406630Y-95759632D01*
X156488091Y-95797618D01*
X156540531Y-95843790D01*
X156559683Y-95910983D01*
X156539467Y-95977865D01*
X156488091Y-96022382D01*
X156364836Y-96079856D01*
X156364834Y-96079857D01*
X156183444Y-96206868D01*
X156026868Y-96363444D01*
X155899857Y-96544834D01*
X155899856Y-96544836D01*
X155806279Y-96745513D01*
X155806275Y-96745524D01*
X155748965Y-96959407D01*
X155748964Y-96959414D01*
X155729666Y-97179998D01*
X155729666Y-97180001D01*
X155748964Y-97400585D01*
X155748965Y-97400592D01*
X155806275Y-97614475D01*
X155806279Y-97614486D01*
X155879505Y-97771519D01*
X155899858Y-97815167D01*
X156026868Y-97996555D01*
X156183445Y-98153132D01*
X156364833Y-98280142D01*
X156426828Y-98309050D01*
X156488091Y-98337618D01*
X156540531Y-98383790D01*
X156559683Y-98450983D01*
X156539467Y-98517865D01*
X156488091Y-98562382D01*
X156364836Y-98619856D01*
X156364834Y-98619857D01*
X156183444Y-98746868D01*
X156026868Y-98903444D01*
X155899857Y-99084834D01*
X155899856Y-99084836D01*
X155806279Y-99285513D01*
X155806275Y-99285525D01*
X155764667Y-99440808D01*
X155728302Y-99500468D01*
X155665454Y-99530997D01*
X155603937Y-99525756D01*
X155429254Y-99464631D01*
X155429249Y-99464630D01*
X155250004Y-99444435D01*
X155249996Y-99444435D01*
X155070750Y-99464630D01*
X155070737Y-99464633D01*
X154900479Y-99524209D01*
X154815971Y-99577309D01*
X154748734Y-99596309D01*
X154684029Y-99577309D01*
X154599520Y-99524209D01*
X154429262Y-99464633D01*
X154429249Y-99464630D01*
X154250004Y-99444435D01*
X154249996Y-99444435D01*
X154070750Y-99464630D01*
X154070745Y-99464631D01*
X153900476Y-99524211D01*
X153747737Y-99620184D01*
X153620184Y-99747737D01*
X153524211Y-99900476D01*
X153464631Y-100070745D01*
X153464630Y-100070750D01*
X153444435Y-100249996D01*
X153444435Y-100250003D01*
X153464630Y-100429249D01*
X153464631Y-100429254D01*
X153524211Y-100599524D01*
X153539993Y-100624639D01*
X153559000Y-100690612D01*
X153559000Y-103309387D01*
X153539995Y-103375357D01*
X153524209Y-103400480D01*
X153464633Y-103570737D01*
X153464630Y-103570750D01*
X153444435Y-103749996D01*
X153444435Y-103750003D01*
X153464630Y-103929249D01*
X153464631Y-103929254D01*
X153524211Y-104099523D01*
X153586003Y-104197864D01*
X153620184Y-104252262D01*
X153747738Y-104379816D01*
X153900478Y-104475789D01*
X154070745Y-104535368D01*
X154070750Y-104535369D01*
X154249996Y-104555565D01*
X154250000Y-104555565D01*
X154250004Y-104555565D01*
X154429249Y-104535369D01*
X154429252Y-104535368D01*
X154429255Y-104535368D01*
X154599522Y-104475789D01*
X154752262Y-104379816D01*
X154879816Y-104252262D01*
X154975789Y-104099522D01*
X155035368Y-103929255D01*
X155037936Y-103906456D01*
X155065002Y-103842043D01*
X155122596Y-103802487D01*
X155175039Y-103797119D01*
X155212710Y-103801363D01*
X155249998Y-103805565D01*
X155250000Y-103805565D01*
X155250004Y-103805565D01*
X155429249Y-103785369D01*
X155429252Y-103785368D01*
X155429255Y-103785368D01*
X155599522Y-103725789D01*
X155752262Y-103629816D01*
X155879816Y-103502262D01*
X155975789Y-103349522D01*
X155995299Y-103293765D01*
X156036018Y-103236991D01*
X156100971Y-103211242D01*
X156169533Y-103224697D01*
X156183460Y-103233143D01*
X156364833Y-103360142D01*
X156397462Y-103375357D01*
X156488091Y-103417618D01*
X156540531Y-103463790D01*
X156559683Y-103530983D01*
X156539467Y-103597865D01*
X156488091Y-103642382D01*
X156364836Y-103699856D01*
X156364834Y-103699857D01*
X156183444Y-103826868D01*
X156026868Y-103983444D01*
X155899857Y-104164834D01*
X155899856Y-104164836D01*
X155806279Y-104365513D01*
X155806275Y-104365524D01*
X155748965Y-104579407D01*
X155748964Y-104579414D01*
X155729666Y-104799998D01*
X155729666Y-104800001D01*
X155748964Y-105020585D01*
X155748965Y-105020592D01*
X155806275Y-105234475D01*
X155806279Y-105234486D01*
X155869753Y-105370606D01*
X155899858Y-105435167D01*
X156026868Y-105616555D01*
X156183445Y-105773132D01*
X156364833Y-105900142D01*
X156426828Y-105929050D01*
X156488091Y-105957618D01*
X156540531Y-106003790D01*
X156559683Y-106070983D01*
X156539467Y-106137865D01*
X156488091Y-106182382D01*
X156364836Y-106239856D01*
X156364834Y-106239857D01*
X156183444Y-106366868D01*
X156026868Y-106523444D01*
X155899857Y-106704834D01*
X155899856Y-106704836D01*
X155806279Y-106905513D01*
X155806275Y-106905524D01*
X155748965Y-107119407D01*
X155748964Y-107119414D01*
X155729666Y-107339998D01*
X155729666Y-107340001D01*
X155748964Y-107560585D01*
X155748965Y-107560592D01*
X155806275Y-107774475D01*
X155806279Y-107774486D01*
X155844235Y-107855883D01*
X155899858Y-107975167D01*
X156026868Y-108156555D01*
X156183445Y-108313132D01*
X156364833Y-108440142D01*
X156426828Y-108469050D01*
X156488091Y-108497618D01*
X156540531Y-108543790D01*
X156559683Y-108610983D01*
X156539467Y-108677865D01*
X156488091Y-108722382D01*
X156364836Y-108779856D01*
X156364834Y-108779857D01*
X156183444Y-108906868D01*
X156026868Y-109063444D01*
X155899857Y-109244834D01*
X155899856Y-109244836D01*
X155806279Y-109445513D01*
X155806275Y-109445524D01*
X155748965Y-109659407D01*
X155748964Y-109659414D01*
X155729666Y-109879998D01*
X155729666Y-109880001D01*
X155748964Y-110100585D01*
X155748965Y-110100592D01*
X155806275Y-110314475D01*
X155806279Y-110314486D01*
X155892787Y-110500003D01*
X155899858Y-110515167D01*
X156026868Y-110696555D01*
X156183445Y-110853132D01*
X156364833Y-110980142D01*
X156412270Y-111002262D01*
X156488091Y-111037618D01*
X156540531Y-111083790D01*
X156559683Y-111150983D01*
X156539467Y-111217865D01*
X156488091Y-111262382D01*
X156364836Y-111319856D01*
X156364834Y-111319857D01*
X156183444Y-111446868D01*
X156026868Y-111603444D01*
X155899857Y-111784834D01*
X155899856Y-111784836D01*
X155806279Y-111985513D01*
X155806275Y-111985524D01*
X155748965Y-112199407D01*
X155748964Y-112199414D01*
X155729666Y-112419998D01*
X155729666Y-112420001D01*
X155748964Y-112640585D01*
X155748965Y-112640592D01*
X155806275Y-112854475D01*
X155806279Y-112854486D01*
X155864807Y-112979999D01*
X155899858Y-113055167D01*
X156026868Y-113236555D01*
X156183445Y-113393132D01*
X156364833Y-113520142D01*
X156426828Y-113549050D01*
X156488091Y-113577618D01*
X156540531Y-113623790D01*
X156559683Y-113690983D01*
X156539467Y-113757865D01*
X156488091Y-113802382D01*
X156364836Y-113859856D01*
X156364834Y-113859857D01*
X156183444Y-113986868D01*
X156026868Y-114143444D01*
X155899857Y-114324834D01*
X155899856Y-114324836D01*
X155806279Y-114525513D01*
X155806275Y-114525524D01*
X155748965Y-114739407D01*
X155748964Y-114739414D01*
X155729666Y-114959998D01*
X155729666Y-114960001D01*
X155748964Y-115180585D01*
X155748965Y-115180592D01*
X155806275Y-115394475D01*
X155806279Y-115394486D01*
X155899856Y-115595163D01*
X155899858Y-115595167D01*
X156026868Y-115776555D01*
X156183445Y-115933132D01*
X156364833Y-116060142D01*
X156426828Y-116089050D01*
X156488091Y-116117618D01*
X156540531Y-116163790D01*
X156559683Y-116230983D01*
X156539467Y-116297865D01*
X156488091Y-116342382D01*
X156364836Y-116399856D01*
X156364834Y-116399857D01*
X156183444Y-116526868D01*
X156026868Y-116683444D01*
X155899857Y-116864834D01*
X155899856Y-116864836D01*
X155806279Y-117065513D01*
X155806275Y-117065524D01*
X155748965Y-117279407D01*
X155748964Y-117279414D01*
X155729666Y-117499998D01*
X155729666Y-117500001D01*
X155748964Y-117720585D01*
X155748965Y-117720592D01*
X155806275Y-117934475D01*
X155806279Y-117934486D01*
X155864807Y-118059999D01*
X155899858Y-118135167D01*
X156026868Y-118316555D01*
X156183445Y-118473132D01*
X156364833Y-118600142D01*
X156426828Y-118629050D01*
X156488091Y-118657618D01*
X156540531Y-118703790D01*
X156559683Y-118770983D01*
X156539467Y-118837865D01*
X156488091Y-118882382D01*
X156364836Y-118939856D01*
X156364834Y-118939857D01*
X156183444Y-119066868D01*
X156026868Y-119223444D01*
X155899857Y-119404834D01*
X155899856Y-119404836D01*
X155806279Y-119605513D01*
X155806275Y-119605524D01*
X155748965Y-119819407D01*
X155748964Y-119819414D01*
X155729666Y-120039998D01*
X155729666Y-120040001D01*
X155748964Y-120260585D01*
X155748965Y-120260592D01*
X155806275Y-120474475D01*
X155806279Y-120474486D01*
X155864584Y-120599522D01*
X155899858Y-120675167D01*
X156026868Y-120856555D01*
X156183445Y-121013132D01*
X156364833Y-121140142D01*
X156426828Y-121169050D01*
X156488091Y-121197618D01*
X156540531Y-121243790D01*
X156559683Y-121310983D01*
X156539467Y-121377865D01*
X156488091Y-121422382D01*
X156364836Y-121479856D01*
X156364834Y-121479857D01*
X156183444Y-121606868D01*
X156026868Y-121763444D01*
X155899857Y-121944834D01*
X155899856Y-121944836D01*
X155806279Y-122145513D01*
X155806275Y-122145524D01*
X155748965Y-122359407D01*
X155748964Y-122359414D01*
X155729666Y-122579998D01*
X155729666Y-122580001D01*
X155748964Y-122800585D01*
X155748965Y-122800592D01*
X155806275Y-123014475D01*
X155806279Y-123014486D01*
X155899856Y-123215163D01*
X155899858Y-123215167D01*
X156026868Y-123396555D01*
X156183445Y-123553132D01*
X156364833Y-123680142D01*
X156485572Y-123736443D01*
X156565513Y-123773720D01*
X156565515Y-123773720D01*
X156565520Y-123773723D01*
X156779409Y-123831035D01*
X156936974Y-123844820D01*
X156999998Y-123850334D01*
X157000000Y-123850334D01*
X157000002Y-123850334D01*
X157055147Y-123845509D01*
X157220591Y-123831035D01*
X157434480Y-123773723D01*
X157635167Y-123680142D01*
X157816555Y-123553132D01*
X157973132Y-123396555D01*
X158100142Y-123215167D01*
X158193723Y-123014480D01*
X158251035Y-122800591D01*
X158270334Y-122580000D01*
X158251035Y-122359409D01*
X158193723Y-122145520D01*
X158172274Y-122099523D01*
X158100143Y-121944836D01*
X158100142Y-121944834D01*
X158100142Y-121944833D01*
X157973132Y-121763445D01*
X157816555Y-121606868D01*
X157635167Y-121479858D01*
X157593299Y-121460335D01*
X157511908Y-121422382D01*
X157459468Y-121376210D01*
X157440316Y-121309017D01*
X157460531Y-121242136D01*
X157511908Y-121197618D01*
X157635167Y-121140142D01*
X157816555Y-121013132D01*
X157973132Y-120856555D01*
X158100142Y-120675167D01*
X158193723Y-120474480D01*
X158251035Y-120260591D01*
X158270334Y-120040000D01*
X158251035Y-119819409D01*
X158193723Y-119605520D01*
X158100142Y-119404833D01*
X157973132Y-119223445D01*
X157816555Y-119066868D01*
X157635167Y-118939858D01*
X157511907Y-118882381D01*
X157459468Y-118836210D01*
X157440316Y-118769017D01*
X157460531Y-118702136D01*
X157511908Y-118657618D01*
X157635167Y-118600142D01*
X157816555Y-118473132D01*
X157973132Y-118316555D01*
X158100142Y-118135167D01*
X158193723Y-117934480D01*
X158251035Y-117720591D01*
X158270334Y-117500000D01*
X158251035Y-117279409D01*
X158193723Y-117065520D01*
X158100142Y-116864833D01*
X157973132Y-116683445D01*
X157816555Y-116526868D01*
X157635167Y-116399858D01*
X157511907Y-116342381D01*
X157459468Y-116296210D01*
X157440316Y-116229017D01*
X157460531Y-116162136D01*
X157511908Y-116117618D01*
X157635167Y-116060142D01*
X157816555Y-115933132D01*
X157973132Y-115776555D01*
X158100142Y-115595167D01*
X158193723Y-115394480D01*
X158251035Y-115180591D01*
X158270334Y-114960000D01*
X158251035Y-114739409D01*
X158193723Y-114525520D01*
X158100142Y-114324833D01*
X157973132Y-114143445D01*
X157816555Y-113986868D01*
X157635167Y-113859858D01*
X157511907Y-113802381D01*
X157459468Y-113756210D01*
X157440316Y-113689017D01*
X157460531Y-113622136D01*
X157511908Y-113577618D01*
X157635167Y-113520142D01*
X157816555Y-113393132D01*
X157973132Y-113236555D01*
X158100142Y-113055167D01*
X158193723Y-112854480D01*
X158251035Y-112640591D01*
X158270334Y-112420000D01*
X158251035Y-112199409D01*
X158193723Y-111985520D01*
X158100142Y-111784833D01*
X157973132Y-111603445D01*
X157816555Y-111446868D01*
X157635167Y-111319858D01*
X157511907Y-111262381D01*
X157459468Y-111216210D01*
X157440316Y-111149017D01*
X157460531Y-111082136D01*
X157511908Y-111037618D01*
X157512500Y-111037342D01*
X157635167Y-110980142D01*
X157816555Y-110853132D01*
X157973132Y-110696555D01*
X158100142Y-110515167D01*
X158193723Y-110314480D01*
X158251035Y-110100591D01*
X158270334Y-109880000D01*
X158251035Y-109659409D01*
X158193723Y-109445520D01*
X158100142Y-109244833D01*
X157973132Y-109063445D01*
X157816555Y-108906868D01*
X157635167Y-108779858D01*
X157593299Y-108760335D01*
X157511908Y-108722382D01*
X157459468Y-108676210D01*
X157440316Y-108609017D01*
X157460531Y-108542136D01*
X157511908Y-108497618D01*
X157635167Y-108440142D01*
X157816555Y-108313132D01*
X157973132Y-108156555D01*
X158100142Y-107975167D01*
X158193723Y-107774480D01*
X158251035Y-107560591D01*
X158270334Y-107340000D01*
X158268456Y-107318539D01*
X158262854Y-107254498D01*
X158251035Y-107119409D01*
X158193723Y-106905520D01*
X158173188Y-106861483D01*
X158148929Y-106809458D01*
X158100142Y-106704833D01*
X157973132Y-106523445D01*
X157816555Y-106366868D01*
X157635167Y-106239858D01*
X157589739Y-106218675D01*
X157511908Y-106182382D01*
X157459468Y-106136210D01*
X157440316Y-106069017D01*
X157460531Y-106002136D01*
X157511908Y-105957618D01*
X157562184Y-105934174D01*
X157635167Y-105900142D01*
X157816555Y-105773132D01*
X157973132Y-105616555D01*
X158100142Y-105435167D01*
X158193723Y-105234480D01*
X158251035Y-105020591D01*
X158270334Y-104800000D01*
X158251035Y-104579409D01*
X158193723Y-104365520D01*
X158100142Y-104164833D01*
X157973132Y-103983445D01*
X157816555Y-103826868D01*
X157635167Y-103699858D01*
X157511907Y-103642381D01*
X157459468Y-103596210D01*
X157440316Y-103529017D01*
X157460531Y-103462136D01*
X157511908Y-103417618D01*
X157635167Y-103360142D01*
X157816555Y-103233132D01*
X157973132Y-103076555D01*
X158100142Y-102895167D01*
X158193723Y-102694480D01*
X158251035Y-102480591D01*
X158270334Y-102260000D01*
X158251035Y-102039409D01*
X158193723Y-101825520D01*
X158100142Y-101624833D01*
X157973132Y-101443445D01*
X157816555Y-101286868D01*
X157635167Y-101159858D01*
X157511907Y-101102381D01*
X157459468Y-101056210D01*
X157440316Y-100989017D01*
X157460531Y-100922136D01*
X157511908Y-100877618D01*
X157635167Y-100820142D01*
X157816555Y-100693132D01*
X157973132Y-100536555D01*
X158100142Y-100355167D01*
X158193723Y-100154480D01*
X158251035Y-99940591D01*
X158270334Y-99720000D01*
X158251035Y-99499409D01*
X158193723Y-99285520D01*
X158100142Y-99084833D01*
X157973132Y-98903445D01*
X157816555Y-98746868D01*
X157635167Y-98619858D01*
X157511907Y-98562381D01*
X157459468Y-98516210D01*
X157440316Y-98449017D01*
X157460531Y-98382136D01*
X157511908Y-98337618D01*
X157552819Y-98318541D01*
X157635167Y-98280142D01*
X157816555Y-98153132D01*
X157973132Y-97996555D01*
X158100142Y-97815167D01*
X158193723Y-97614480D01*
X158251035Y-97400591D01*
X158270334Y-97180000D01*
X158251035Y-96959409D01*
X158193723Y-96745520D01*
X158168447Y-96691316D01*
X158103205Y-96551402D01*
X158100142Y-96544833D01*
X157973132Y-96363445D01*
X157816555Y-96206868D01*
X157635167Y-96079858D01*
X157511907Y-96022381D01*
X157459468Y-95976210D01*
X157440316Y-95909017D01*
X157460531Y-95842136D01*
X157511908Y-95797618D01*
X157635167Y-95740142D01*
X157816555Y-95613132D01*
X157973132Y-95456555D01*
X158100142Y-95275167D01*
X158193723Y-95074480D01*
X158251035Y-94860591D01*
X158270334Y-94640000D01*
X158251035Y-94419409D01*
X158193723Y-94205520D01*
X158100142Y-94004833D01*
X157973132Y-93823445D01*
X157816555Y-93666868D01*
X157635167Y-93539858D01*
X157628470Y-93536735D01*
X157511317Y-93482106D01*
X157458877Y-93435934D01*
X157439725Y-93368741D01*
X157459941Y-93301859D01*
X157511317Y-93257342D01*
X157634911Y-93199709D01*
X157634919Y-93199705D01*
X157700341Y-93153895D01*
X157137574Y-92591128D01*
X157196853Y-92575245D01*
X157313147Y-92508102D01*
X157408102Y-92413147D01*
X157475245Y-92296853D01*
X157491128Y-92237574D01*
X158053895Y-92800341D01*
X158099705Y-92734919D01*
X158099709Y-92734911D01*
X158193249Y-92534314D01*
X158193254Y-92534300D01*
X158250538Y-92320509D01*
X158250540Y-92320499D01*
X158269832Y-92100000D01*
X158269832Y-92099999D01*
X158250540Y-91879500D01*
X158250538Y-91879490D01*
X158193254Y-91665699D01*
X158193249Y-91665685D01*
X158154648Y-91582904D01*
X158144156Y-91513827D01*
X158172676Y-91450043D01*
X158231153Y-91411804D01*
X158267030Y-91406500D01*
X159004595Y-91406500D01*
X159042213Y-91413983D01*
X159042610Y-91412676D01*
X159048438Y-91414443D01*
X159048442Y-91414445D01*
X159070591Y-91418850D01*
X159070595Y-91418850D01*
X159070596Y-91418851D01*
X159152035Y-91435051D01*
X159213946Y-91467436D01*
X159244884Y-91515713D01*
X159274209Y-91599518D01*
X159274210Y-91599522D01*
X159353549Y-91725788D01*
X159370184Y-91752262D01*
X159497738Y-91879816D01*
X159534869Y-91903147D01*
X159632721Y-91964632D01*
X159650478Y-91975789D01*
X159774651Y-92019238D01*
X159821377Y-92048599D01*
X169088766Y-101315987D01*
X169137285Y-101364506D01*
X169185014Y-101412235D01*
X169298182Y-101487852D01*
X169298195Y-101487859D01*
X169423938Y-101539943D01*
X169423943Y-101539945D01*
X169423947Y-101539945D01*
X169423948Y-101539946D01*
X169557439Y-101566500D01*
X169557442Y-101566500D01*
X169557443Y-101566500D01*
X169693557Y-101566500D01*
X181132419Y-101566500D01*
X181199458Y-101586185D01*
X181245213Y-101638989D01*
X181255157Y-101708147D01*
X181244801Y-101742904D01*
X181206279Y-101825513D01*
X181206275Y-101825524D01*
X181148965Y-102039407D01*
X181148964Y-102039414D01*
X181129666Y-102259998D01*
X181129666Y-102260001D01*
X181148964Y-102480585D01*
X181148965Y-102480592D01*
X181206275Y-102694475D01*
X181206279Y-102694486D01*
X181299856Y-102895163D01*
X181299858Y-102895167D01*
X181426868Y-103076555D01*
X181583445Y-103233132D01*
X181764833Y-103360142D01*
X181797462Y-103375357D01*
X181888091Y-103417618D01*
X181940531Y-103463790D01*
X181959683Y-103530983D01*
X181939467Y-103597865D01*
X181888091Y-103642382D01*
X181764836Y-103699856D01*
X181764834Y-103699857D01*
X181583444Y-103826868D01*
X181426868Y-103983444D01*
X181299857Y-104164834D01*
X181299856Y-104164836D01*
X181206279Y-104365513D01*
X181206275Y-104365524D01*
X181148965Y-104579407D01*
X181148964Y-104579414D01*
X181129666Y-104799998D01*
X181129666Y-104800001D01*
X181148964Y-105020585D01*
X181148965Y-105020592D01*
X181206275Y-105234475D01*
X181206279Y-105234486D01*
X181269753Y-105370606D01*
X181299858Y-105435167D01*
X181426868Y-105616555D01*
X181583445Y-105773132D01*
X181764833Y-105900142D01*
X181826828Y-105929050D01*
X181888091Y-105957618D01*
X181940531Y-106003790D01*
X181959683Y-106070983D01*
X181939467Y-106137865D01*
X181888091Y-106182382D01*
X181764836Y-106239856D01*
X181764834Y-106239857D01*
X181583444Y-106366868D01*
X181426868Y-106523444D01*
X181299857Y-106704834D01*
X181299856Y-106704836D01*
X181206279Y-106905513D01*
X181206275Y-106905524D01*
X181148965Y-107119407D01*
X181148964Y-107119414D01*
X181129666Y-107339998D01*
X181129666Y-107340001D01*
X181148964Y-107560585D01*
X181148965Y-107560592D01*
X181206275Y-107774475D01*
X181206279Y-107774486D01*
X181244235Y-107855883D01*
X181299858Y-107975167D01*
X181426868Y-108156555D01*
X181583445Y-108313132D01*
X181764833Y-108440142D01*
X181888682Y-108497893D01*
X181941122Y-108544065D01*
X181960274Y-108611258D01*
X181940059Y-108678139D01*
X181888683Y-108722657D01*
X181765080Y-108780294D01*
X181699658Y-108826103D01*
X181699657Y-108826104D01*
X182262425Y-109388871D01*
X182203147Y-109404755D01*
X182086853Y-109471898D01*
X181991898Y-109566853D01*
X181924755Y-109683147D01*
X181908871Y-109742424D01*
X181346104Y-109179657D01*
X181346103Y-109179658D01*
X181300295Y-109245080D01*
X181206749Y-109445690D01*
X181206745Y-109445699D01*
X181149461Y-109659490D01*
X181149459Y-109659500D01*
X181130168Y-109879999D01*
X181130168Y-109880000D01*
X181149459Y-110100499D01*
X181149461Y-110100509D01*
X181206745Y-110314300D01*
X181206749Y-110314309D01*
X181300293Y-110514916D01*
X181300295Y-110514920D01*
X181346103Y-110580341D01*
X181346104Y-110580341D01*
X181908871Y-110017574D01*
X181924755Y-110076853D01*
X181991898Y-110193147D01*
X182086853Y-110288102D01*
X182203147Y-110355245D01*
X182262424Y-110371128D01*
X181699657Y-110933894D01*
X181765084Y-110979707D01*
X181888683Y-111037342D01*
X181941122Y-111083514D01*
X181960274Y-111150708D01*
X181940058Y-111217589D01*
X181888683Y-111262106D01*
X181764833Y-111319857D01*
X181583444Y-111446868D01*
X181426868Y-111603444D01*
X181299857Y-111784834D01*
X181299856Y-111784836D01*
X181206279Y-111985513D01*
X181206275Y-111985524D01*
X181148965Y-112199407D01*
X181148964Y-112199414D01*
X181129666Y-112419998D01*
X181129666Y-112420001D01*
X181148964Y-112640585D01*
X181148965Y-112640592D01*
X181206275Y-112854475D01*
X181206279Y-112854486D01*
X181264807Y-112979999D01*
X181299858Y-113055167D01*
X181426868Y-113236555D01*
X181583445Y-113393132D01*
X181764833Y-113520142D01*
X181826828Y-113549050D01*
X181888091Y-113577618D01*
X181940531Y-113623790D01*
X181959683Y-113690983D01*
X181939467Y-113757865D01*
X181888091Y-113802382D01*
X181764836Y-113859856D01*
X181764834Y-113859857D01*
X181583444Y-113986868D01*
X181426868Y-114143444D01*
X181299857Y-114324834D01*
X181299856Y-114324836D01*
X181206279Y-114525513D01*
X181206275Y-114525524D01*
X181148965Y-114739407D01*
X181148964Y-114739414D01*
X181129666Y-114959998D01*
X181129666Y-114960001D01*
X181148964Y-115180585D01*
X181148965Y-115180592D01*
X181206275Y-115394475D01*
X181206279Y-115394486D01*
X181299856Y-115595163D01*
X181299858Y-115595167D01*
X181426868Y-115776555D01*
X181583445Y-115933132D01*
X181764833Y-116060142D01*
X181826828Y-116089050D01*
X181888091Y-116117618D01*
X181940531Y-116163790D01*
X181959683Y-116230983D01*
X181939467Y-116297865D01*
X181888091Y-116342382D01*
X181764836Y-116399856D01*
X181764834Y-116399857D01*
X181583444Y-116526868D01*
X181426868Y-116683444D01*
X181299857Y-116864834D01*
X181299856Y-116864836D01*
X181206279Y-117065513D01*
X181206275Y-117065524D01*
X181148965Y-117279407D01*
X181148964Y-117279414D01*
X181129666Y-117499998D01*
X181129666Y-117500001D01*
X181148964Y-117720585D01*
X181148965Y-117720592D01*
X181206275Y-117934475D01*
X181206279Y-117934486D01*
X181264807Y-118059999D01*
X181299858Y-118135167D01*
X181426868Y-118316555D01*
X181583445Y-118473132D01*
X181764833Y-118600142D01*
X181826828Y-118629050D01*
X181888091Y-118657618D01*
X181940531Y-118703790D01*
X181959683Y-118770983D01*
X181939467Y-118837865D01*
X181888091Y-118882382D01*
X181764836Y-118939856D01*
X181764834Y-118939857D01*
X181583444Y-119066868D01*
X181426868Y-119223444D01*
X181299857Y-119404834D01*
X181299856Y-119404836D01*
X181206279Y-119605513D01*
X181206275Y-119605524D01*
X181148965Y-119819407D01*
X181148964Y-119819414D01*
X181129666Y-120039998D01*
X181129666Y-120040001D01*
X181148964Y-120260585D01*
X181148965Y-120260592D01*
X181206275Y-120474475D01*
X181206279Y-120474486D01*
X181264584Y-120599522D01*
X181299858Y-120675167D01*
X181426868Y-120856555D01*
X181583445Y-121013132D01*
X181764833Y-121140142D01*
X181826828Y-121169050D01*
X181888091Y-121197618D01*
X181940531Y-121243790D01*
X181959683Y-121310983D01*
X181939467Y-121377865D01*
X181888091Y-121422382D01*
X181764836Y-121479856D01*
X181764834Y-121479857D01*
X181583444Y-121606868D01*
X181426868Y-121763444D01*
X181299857Y-121944834D01*
X181299856Y-121944836D01*
X181206279Y-122145513D01*
X181206275Y-122145524D01*
X181148965Y-122359407D01*
X181148964Y-122359414D01*
X181129666Y-122579998D01*
X181129666Y-122580001D01*
X181148964Y-122800585D01*
X181148965Y-122800592D01*
X181206275Y-123014475D01*
X181206279Y-123014486D01*
X181299856Y-123215163D01*
X181299858Y-123215167D01*
X181426868Y-123396555D01*
X181583445Y-123553132D01*
X181764833Y-123680142D01*
X181885572Y-123736443D01*
X181965513Y-123773720D01*
X181965515Y-123773720D01*
X181965520Y-123773723D01*
X182179409Y-123831035D01*
X182336974Y-123844820D01*
X182399998Y-123850334D01*
X182400000Y-123850334D01*
X182400002Y-123850334D01*
X182455147Y-123845509D01*
X182620591Y-123831035D01*
X182834480Y-123773723D01*
X183035167Y-123680142D01*
X183216555Y-123553132D01*
X183373132Y-123396555D01*
X183500142Y-123215167D01*
X183593723Y-123014480D01*
X183651035Y-122800591D01*
X183670334Y-122580000D01*
X183651035Y-122359409D01*
X183593723Y-122145520D01*
X183572274Y-122099523D01*
X183500143Y-121944836D01*
X183500142Y-121944834D01*
X183500142Y-121944833D01*
X183373132Y-121763445D01*
X183216555Y-121606868D01*
X183035167Y-121479858D01*
X182993299Y-121460335D01*
X182911908Y-121422382D01*
X182859468Y-121376210D01*
X182840316Y-121309017D01*
X182860531Y-121242136D01*
X182911908Y-121197618D01*
X183035167Y-121140142D01*
X183216555Y-121013132D01*
X183373132Y-120856555D01*
X183500142Y-120675167D01*
X183593723Y-120474480D01*
X183651035Y-120260591D01*
X183670334Y-120040000D01*
X183651035Y-119819409D01*
X183593723Y-119605520D01*
X183500142Y-119404833D01*
X183373132Y-119223445D01*
X183216555Y-119066868D01*
X183035167Y-118939858D01*
X182911907Y-118882381D01*
X182859468Y-118836210D01*
X182840316Y-118769017D01*
X182860531Y-118702136D01*
X182911908Y-118657618D01*
X183035167Y-118600142D01*
X183216555Y-118473132D01*
X183373132Y-118316555D01*
X183500142Y-118135167D01*
X183593723Y-117934480D01*
X183651035Y-117720591D01*
X183670334Y-117500000D01*
X183651035Y-117279409D01*
X183593723Y-117065520D01*
X183500142Y-116864833D01*
X183373132Y-116683445D01*
X183216555Y-116526868D01*
X183035167Y-116399858D01*
X182911907Y-116342381D01*
X182859468Y-116296210D01*
X182840316Y-116229017D01*
X182860531Y-116162136D01*
X182911908Y-116117618D01*
X183035167Y-116060142D01*
X183216555Y-115933132D01*
X183373132Y-115776555D01*
X183500142Y-115595167D01*
X183593723Y-115394480D01*
X183651035Y-115180591D01*
X183670334Y-114960000D01*
X183651035Y-114739409D01*
X183593723Y-114525520D01*
X183500142Y-114324833D01*
X183373132Y-114143445D01*
X183216555Y-113986868D01*
X183035167Y-113859858D01*
X182911907Y-113802381D01*
X182859468Y-113756210D01*
X182840316Y-113689017D01*
X182860531Y-113622136D01*
X182911908Y-113577618D01*
X183035167Y-113520142D01*
X183216555Y-113393132D01*
X183373132Y-113236555D01*
X183500142Y-113055167D01*
X183593723Y-112854480D01*
X183651035Y-112640591D01*
X183670334Y-112420000D01*
X183651792Y-112208067D01*
X183665558Y-112139570D01*
X183687636Y-112109584D01*
X185929403Y-109867819D01*
X185990726Y-109834334D01*
X186017084Y-109831500D01*
X190500277Y-109831500D01*
X190567316Y-109851185D01*
X190613071Y-109903989D01*
X190623015Y-109973147D01*
X190605271Y-110021472D01*
X190524211Y-110150476D01*
X190464631Y-110320745D01*
X190464630Y-110320750D01*
X190444435Y-110499996D01*
X190444435Y-110500003D01*
X190464630Y-110679249D01*
X190464631Y-110679254D01*
X190524211Y-110849523D01*
X190596566Y-110964674D01*
X190620184Y-111002262D01*
X190747738Y-111129816D01*
X190781425Y-111150983D01*
X190887427Y-111217589D01*
X190900478Y-111225789D01*
X191070745Y-111285368D01*
X191070750Y-111285369D01*
X191249996Y-111305565D01*
X191250000Y-111305565D01*
X191250004Y-111305565D01*
X191429249Y-111285369D01*
X191429252Y-111285368D01*
X191429255Y-111285368D01*
X191599522Y-111225789D01*
X191623560Y-111210685D01*
X191624641Y-111210006D01*
X191690613Y-111191000D01*
X193812649Y-111191000D01*
X193879688Y-111210685D01*
X193914223Y-111243876D01*
X193961505Y-111311401D01*
X194128597Y-111478493D01*
X194128603Y-111478498D01*
X194314158Y-111608425D01*
X194357783Y-111663002D01*
X194364977Y-111732500D01*
X194333454Y-111794855D01*
X194314158Y-111811575D01*
X194128597Y-111941505D01*
X193961505Y-112108597D01*
X193825965Y-112302169D01*
X193825964Y-112302171D01*
X193726098Y-112516335D01*
X193726094Y-112516344D01*
X193664938Y-112744586D01*
X193664936Y-112744596D01*
X193644341Y-112979999D01*
X193644341Y-112980000D01*
X193664936Y-113215403D01*
X193664938Y-113215413D01*
X193726094Y-113443655D01*
X193726096Y-113443659D01*
X193726097Y-113443663D01*
X193805398Y-113613723D01*
X193825965Y-113657830D01*
X193825967Y-113657834D01*
X193961501Y-113851395D01*
X193961506Y-113851402D01*
X194128597Y-114018493D01*
X194128603Y-114018498D01*
X194314158Y-114148425D01*
X194357783Y-114203002D01*
X194364977Y-114272500D01*
X194333454Y-114334855D01*
X194314158Y-114351575D01*
X194128597Y-114481505D01*
X193961505Y-114648597D01*
X193825965Y-114842169D01*
X193825964Y-114842171D01*
X193726098Y-115056335D01*
X193726094Y-115056344D01*
X193664938Y-115284586D01*
X193664936Y-115284596D01*
X193644341Y-115519999D01*
X193644341Y-115520000D01*
X193664936Y-115755403D01*
X193664938Y-115755413D01*
X193726094Y-115983655D01*
X193726096Y-115983659D01*
X193726097Y-115983663D01*
X193805398Y-116153723D01*
X193825965Y-116197830D01*
X193825967Y-116197834D01*
X193961501Y-116391395D01*
X193961506Y-116391402D01*
X194128597Y-116558493D01*
X194128603Y-116558498D01*
X194314158Y-116688425D01*
X194357783Y-116743002D01*
X194364977Y-116812500D01*
X194333454Y-116874855D01*
X194314158Y-116891575D01*
X194128597Y-117021505D01*
X193961505Y-117188597D01*
X193825965Y-117382169D01*
X193825964Y-117382171D01*
X193726098Y-117596335D01*
X193726094Y-117596344D01*
X193664938Y-117824586D01*
X193664936Y-117824596D01*
X193644341Y-118059999D01*
X193644341Y-118060000D01*
X193664936Y-118295403D01*
X193664938Y-118295413D01*
X193726094Y-118523655D01*
X193726096Y-118523659D01*
X193726097Y-118523663D01*
X193822081Y-118729500D01*
X193825965Y-118737830D01*
X193825967Y-118737834D01*
X193961501Y-118931395D01*
X193961506Y-118931402D01*
X194128597Y-119098493D01*
X194128603Y-119098498D01*
X194314158Y-119228425D01*
X194357783Y-119283002D01*
X194364977Y-119352500D01*
X194333454Y-119414855D01*
X194314158Y-119431575D01*
X194128597Y-119561505D01*
X193961505Y-119728597D01*
X193825965Y-119922169D01*
X193825964Y-119922171D01*
X193726098Y-120136335D01*
X193726094Y-120136344D01*
X193664938Y-120364586D01*
X193664936Y-120364596D01*
X193644341Y-120599999D01*
X193644341Y-120600000D01*
X193664936Y-120835403D01*
X193664938Y-120835413D01*
X193726094Y-121063655D01*
X193726096Y-121063659D01*
X193726097Y-121063663D01*
X193805398Y-121233723D01*
X193825965Y-121277830D01*
X193825967Y-121277834D01*
X193927181Y-121422382D01*
X193959413Y-121468414D01*
X193961501Y-121471395D01*
X193961506Y-121471402D01*
X194128597Y-121638493D01*
X194128603Y-121638498D01*
X194314158Y-121768425D01*
X194357783Y-121823002D01*
X194364977Y-121892500D01*
X194333454Y-121954855D01*
X194314158Y-121971575D01*
X194128597Y-122101505D01*
X193961505Y-122268597D01*
X193825965Y-122462169D01*
X193825964Y-122462171D01*
X193726098Y-122676335D01*
X193726094Y-122676344D01*
X193664938Y-122904586D01*
X193664936Y-122904596D01*
X193644341Y-123139999D01*
X193644341Y-123140000D01*
X193664936Y-123375403D01*
X193664938Y-123375413D01*
X193726094Y-123603655D01*
X193726096Y-123603659D01*
X193726097Y-123603663D01*
X193769308Y-123696328D01*
X193825965Y-123817830D01*
X193825967Y-123817834D01*
X193911621Y-123940160D01*
X193961505Y-124011401D01*
X194128599Y-124178495D01*
X194225384Y-124246265D01*
X194322165Y-124314032D01*
X194322167Y-124314033D01*
X194322170Y-124314035D01*
X194340577Y-124322618D01*
X194393016Y-124368790D01*
X194412168Y-124435984D01*
X194391952Y-124502865D01*
X194338787Y-124548199D01*
X194288172Y-124559000D01*
X182690613Y-124559000D01*
X182624641Y-124539994D01*
X182599523Y-124524211D01*
X182429254Y-124464631D01*
X182429249Y-124464630D01*
X182250004Y-124444435D01*
X182249996Y-124444435D01*
X182070750Y-124464630D01*
X182070745Y-124464631D01*
X181900476Y-124524211D01*
X181747737Y-124620184D01*
X181620184Y-124747737D01*
X181524211Y-124900476D01*
X181464631Y-125070745D01*
X181464630Y-125070750D01*
X181444435Y-125249996D01*
X181444435Y-125250003D01*
X181464630Y-125429249D01*
X181464631Y-125429254D01*
X181524211Y-125599523D01*
X181620184Y-125752262D01*
X181655741Y-125787819D01*
X181689226Y-125849142D01*
X181684242Y-125918834D01*
X181642370Y-125974767D01*
X181576906Y-125999184D01*
X181568060Y-125999500D01*
X125005413Y-125999500D01*
X124994605Y-125999028D01*
X124837246Y-125985260D01*
X124815961Y-125981507D01*
X124668630Y-125942030D01*
X124648318Y-125934637D01*
X124510084Y-125870177D01*
X124491366Y-125859370D01*
X124366417Y-125771880D01*
X124349859Y-125757986D01*
X124242013Y-125650140D01*
X124228119Y-125633582D01*
X124140629Y-125508633D01*
X124129822Y-125489915D01*
X124065362Y-125351681D01*
X124057969Y-125331369D01*
X124018492Y-125184038D01*
X124014739Y-125162752D01*
X124000972Y-125005393D01*
X124000500Y-124994586D01*
X124000500Y-109999997D01*
X125740708Y-109999997D01*
X125740708Y-110000002D01*
X125757605Y-110193147D01*
X125759839Y-110218674D01*
X125816653Y-110430703D01*
X125816654Y-110430706D01*
X125816655Y-110430708D01*
X125909419Y-110629642D01*
X125909423Y-110629650D01*
X126035322Y-110809452D01*
X126035327Y-110809458D01*
X126190541Y-110964672D01*
X126190547Y-110964677D01*
X126370349Y-111090576D01*
X126370351Y-111090577D01*
X126370354Y-111090579D01*
X126569297Y-111183347D01*
X126781326Y-111240161D01*
X126937521Y-111253826D01*
X126999998Y-111259292D01*
X127000000Y-111259292D01*
X127000002Y-111259292D01*
X127054668Y-111254509D01*
X127218674Y-111240161D01*
X127430703Y-111183347D01*
X127629646Y-111090579D01*
X127809457Y-110964674D01*
X127964674Y-110809457D01*
X128090579Y-110629646D01*
X128157893Y-110485288D01*
X128204065Y-110432849D01*
X128271258Y-110413697D01*
X128338139Y-110433912D01*
X128382657Y-110485288D01*
X128449854Y-110629392D01*
X128494003Y-110692443D01*
X129057037Y-110129409D01*
X129074075Y-110192993D01*
X129139901Y-110307007D01*
X129232993Y-110400099D01*
X129347007Y-110465925D01*
X129410590Y-110482962D01*
X128847555Y-111045996D01*
X128910601Y-111090142D01*
X128910605Y-111090144D01*
X129109466Y-111182874D01*
X129109475Y-111182878D01*
X129321407Y-111239664D01*
X129321417Y-111239666D01*
X129539999Y-111258790D01*
X129540001Y-111258790D01*
X129758582Y-111239666D01*
X129758592Y-111239664D01*
X129970524Y-111182878D01*
X129970533Y-111182874D01*
X130169392Y-111090145D01*
X130232443Y-111045995D01*
X129669410Y-110482962D01*
X129732993Y-110465925D01*
X129847007Y-110400099D01*
X129940099Y-110307007D01*
X130005925Y-110192993D01*
X130022962Y-110129409D01*
X130585995Y-110692442D01*
X130630146Y-110629390D01*
X130697342Y-110485289D01*
X130743514Y-110432849D01*
X130810707Y-110413697D01*
X130877589Y-110433913D01*
X130922106Y-110485288D01*
X130989421Y-110629646D01*
X130989423Y-110629650D01*
X131115322Y-110809452D01*
X131115327Y-110809458D01*
X131270541Y-110964672D01*
X131270547Y-110964677D01*
X131450349Y-111090576D01*
X131450351Y-111090577D01*
X131450354Y-111090579D01*
X131649297Y-111183347D01*
X131861326Y-111240161D01*
X132017521Y-111253826D01*
X132079998Y-111259292D01*
X132080000Y-111259292D01*
X132080002Y-111259292D01*
X132134668Y-111254509D01*
X132298674Y-111240161D01*
X132510703Y-111183347D01*
X132709646Y-111090579D01*
X132889457Y-110964674D01*
X133044674Y-110809457D01*
X133170579Y-110629646D01*
X133237618Y-110485878D01*
X133283790Y-110433439D01*
X133350983Y-110414287D01*
X133417864Y-110434502D01*
X133462381Y-110485878D01*
X133468968Y-110500003D01*
X133529419Y-110629642D01*
X133529423Y-110629650D01*
X133655322Y-110809452D01*
X133655327Y-110809458D01*
X133810541Y-110964672D01*
X133810547Y-110964677D01*
X133990349Y-111090576D01*
X133990351Y-111090577D01*
X133990354Y-111090579D01*
X134189297Y-111183347D01*
X134401326Y-111240161D01*
X134557521Y-111253826D01*
X134619998Y-111259292D01*
X134620000Y-111259292D01*
X134620002Y-111259292D01*
X134674668Y-111254509D01*
X134838674Y-111240161D01*
X135050703Y-111183347D01*
X135249646Y-111090579D01*
X135429457Y-110964674D01*
X135584674Y-110809457D01*
X135710579Y-110629646D01*
X135777618Y-110485878D01*
X135823790Y-110433439D01*
X135890983Y-110414287D01*
X135957864Y-110434502D01*
X136002381Y-110485878D01*
X136008968Y-110500003D01*
X136069419Y-110629642D01*
X136069423Y-110629650D01*
X136195322Y-110809452D01*
X136195327Y-110809458D01*
X136350541Y-110964672D01*
X136350547Y-110964677D01*
X136530349Y-111090576D01*
X136530351Y-111090577D01*
X136530354Y-111090579D01*
X136729297Y-111183347D01*
X136941326Y-111240161D01*
X137097521Y-111253826D01*
X137159998Y-111259292D01*
X137160000Y-111259292D01*
X137160002Y-111259292D01*
X137214668Y-111254509D01*
X137378674Y-111240161D01*
X137590703Y-111183347D01*
X137789646Y-111090579D01*
X137969457Y-110964674D01*
X138124674Y-110809457D01*
X138250579Y-110629646D01*
X138317618Y-110485878D01*
X138363790Y-110433439D01*
X138430983Y-110414287D01*
X138497864Y-110434502D01*
X138542381Y-110485878D01*
X138548968Y-110500003D01*
X138609419Y-110629642D01*
X138609423Y-110629650D01*
X138735322Y-110809452D01*
X138735327Y-110809458D01*
X138890541Y-110964672D01*
X138890547Y-110964677D01*
X139070349Y-111090576D01*
X139070351Y-111090577D01*
X139070354Y-111090579D01*
X139269297Y-111183347D01*
X139481326Y-111240161D01*
X139637521Y-111253826D01*
X139699998Y-111259292D01*
X139700000Y-111259292D01*
X139700002Y-111259292D01*
X139754668Y-111254509D01*
X139918674Y-111240161D01*
X140057529Y-111202954D01*
X140127378Y-111204616D01*
X140185241Y-111243777D01*
X140212746Y-111308006D01*
X140212843Y-111336611D01*
X140194435Y-111499995D01*
X140194435Y-111500003D01*
X140214630Y-111679249D01*
X140214631Y-111679254D01*
X140274211Y-111849523D01*
X140332005Y-111941501D01*
X140370184Y-112002262D01*
X140497738Y-112129816D01*
X140541692Y-112157434D01*
X140608494Y-112199409D01*
X140650478Y-112225789D01*
X140774651Y-112269238D01*
X140821377Y-112298599D01*
X145022681Y-116499903D01*
X145056166Y-116561226D01*
X145059000Y-116587584D01*
X145059000Y-119809387D01*
X145039995Y-119875357D01*
X145024209Y-119900480D01*
X144964633Y-120070737D01*
X144964630Y-120070750D01*
X144944435Y-120249996D01*
X144944435Y-120250003D01*
X144964630Y-120429249D01*
X144964631Y-120429254D01*
X145024211Y-120599523D01*
X145071742Y-120675167D01*
X145120184Y-120752262D01*
X145247738Y-120879816D01*
X145400478Y-120975789D01*
X145507198Y-121013132D01*
X145570745Y-121035368D01*
X145570750Y-121035369D01*
X145749996Y-121055565D01*
X145750000Y-121055565D01*
X145750003Y-121055565D01*
X145910484Y-121037483D01*
X145921116Y-121036285D01*
X145989938Y-121048339D01*
X146041318Y-121095688D01*
X146059000Y-121159505D01*
X146059000Y-121309387D01*
X146039995Y-121375357D01*
X146024210Y-121400479D01*
X146000438Y-121468414D01*
X145959716Y-121525189D01*
X145894763Y-121550936D01*
X145826201Y-121537479D01*
X145809085Y-121526724D01*
X145796261Y-121517124D01*
X145776331Y-121502204D01*
X145776328Y-121502202D01*
X145641482Y-121451908D01*
X145641483Y-121451908D01*
X145581883Y-121445501D01*
X145581881Y-121445500D01*
X145581873Y-121445500D01*
X145581864Y-121445500D01*
X143978129Y-121445500D01*
X143978123Y-121445501D01*
X143918516Y-121451908D01*
X143783671Y-121502202D01*
X143783664Y-121502206D01*
X143668455Y-121588452D01*
X143668452Y-121588455D01*
X143582206Y-121703664D01*
X143582202Y-121703671D01*
X143531908Y-121838517D01*
X143525501Y-121898116D01*
X143525500Y-121898135D01*
X143525500Y-121956324D01*
X143505815Y-122023363D01*
X143453011Y-122069118D01*
X143383853Y-122079062D01*
X143320297Y-122050037D01*
X143299926Y-122027449D01*
X143285996Y-122007555D01*
X142722962Y-122570589D01*
X142705925Y-122507007D01*
X142640099Y-122392993D01*
X142547007Y-122299901D01*
X142432993Y-122234075D01*
X142369409Y-122217037D01*
X142932443Y-121654003D01*
X142869392Y-121609854D01*
X142670533Y-121517125D01*
X142670524Y-121517121D01*
X142458592Y-121460335D01*
X142458582Y-121460333D01*
X142240001Y-121441210D01*
X142239999Y-121441210D01*
X142021417Y-121460333D01*
X142021407Y-121460335D01*
X141809475Y-121517121D01*
X141809466Y-121517124D01*
X141610606Y-121609855D01*
X141610604Y-121609856D01*
X141547556Y-121654003D01*
X141547555Y-121654003D01*
X142110590Y-122217037D01*
X142047007Y-122234075D01*
X141932993Y-122299901D01*
X141839901Y-122392993D01*
X141774075Y-122507007D01*
X141757037Y-122570590D01*
X141194003Y-122007555D01*
X141194003Y-122007556D01*
X141149857Y-122070603D01*
X141082657Y-122214712D01*
X141036484Y-122267151D01*
X140969290Y-122286302D01*
X140902409Y-122266086D01*
X140857893Y-122214710D01*
X140805103Y-122101501D01*
X140790579Y-122070354D01*
X140790577Y-122070351D01*
X140790576Y-122070349D01*
X140664677Y-121890547D01*
X140664672Y-121890541D01*
X140509458Y-121735327D01*
X140509452Y-121735322D01*
X140329650Y-121609423D01*
X140329642Y-121609419D01*
X140130708Y-121516655D01*
X140130706Y-121516654D01*
X140130703Y-121516653D01*
X139961827Y-121471402D01*
X139918675Y-121459839D01*
X139918668Y-121459838D01*
X139700002Y-121440708D01*
X139699998Y-121440708D01*
X139481331Y-121459838D01*
X139481324Y-121459839D01*
X139406615Y-121479858D01*
X139269297Y-121516653D01*
X139269295Y-121516653D01*
X139269291Y-121516655D01*
X139070357Y-121609419D01*
X139070349Y-121609423D01*
X138890547Y-121735322D01*
X138890541Y-121735327D01*
X138735327Y-121890541D01*
X138735322Y-121890547D01*
X138609423Y-122070349D01*
X138609419Y-122070357D01*
X138542382Y-122214120D01*
X138496210Y-122266560D01*
X138429017Y-122285712D01*
X138362135Y-122265496D01*
X138317618Y-122214120D01*
X138265103Y-122101501D01*
X138250579Y-122070354D01*
X138250577Y-122070351D01*
X138250576Y-122070349D01*
X138124677Y-121890547D01*
X138124672Y-121890541D01*
X137969458Y-121735327D01*
X137969452Y-121735322D01*
X137789650Y-121609423D01*
X137789642Y-121609419D01*
X137590708Y-121516655D01*
X137590706Y-121516654D01*
X137590703Y-121516653D01*
X137421827Y-121471402D01*
X137378675Y-121459839D01*
X137378668Y-121459838D01*
X137160002Y-121440708D01*
X137159998Y-121440708D01*
X136941331Y-121459838D01*
X136941324Y-121459839D01*
X136866615Y-121479858D01*
X136729297Y-121516653D01*
X136729295Y-121516653D01*
X136729291Y-121516655D01*
X136530357Y-121609419D01*
X136530349Y-121609423D01*
X136350547Y-121735322D01*
X136350541Y-121735327D01*
X136195327Y-121890541D01*
X136195322Y-121890547D01*
X136069423Y-122070349D01*
X136069419Y-122070357D01*
X136002382Y-122214120D01*
X135956210Y-122266560D01*
X135889017Y-122285712D01*
X135822135Y-122265496D01*
X135777618Y-122214120D01*
X135725103Y-122101501D01*
X135710579Y-122070354D01*
X135710577Y-122070351D01*
X135710576Y-122070349D01*
X135584677Y-121890547D01*
X135584672Y-121890541D01*
X135429458Y-121735327D01*
X135429452Y-121735322D01*
X135249650Y-121609423D01*
X135249642Y-121609419D01*
X135050708Y-121516655D01*
X135050706Y-121516654D01*
X135050703Y-121516653D01*
X134881827Y-121471402D01*
X134838675Y-121459839D01*
X134838668Y-121459838D01*
X134620002Y-121440708D01*
X134619998Y-121440708D01*
X134401331Y-121459838D01*
X134401324Y-121459839D01*
X134326615Y-121479858D01*
X134189297Y-121516653D01*
X134189295Y-121516653D01*
X134189291Y-121516655D01*
X133990357Y-121609419D01*
X133990349Y-121609423D01*
X133810547Y-121735322D01*
X133810541Y-121735327D01*
X133655327Y-121890541D01*
X133655322Y-121890547D01*
X133529423Y-122070349D01*
X133529419Y-122070357D01*
X133462382Y-122214120D01*
X133416210Y-122266560D01*
X133349017Y-122285712D01*
X133282135Y-122265496D01*
X133237618Y-122214120D01*
X133185103Y-122101501D01*
X133170579Y-122070354D01*
X133170577Y-122070351D01*
X133170576Y-122070349D01*
X133044677Y-121890547D01*
X133044672Y-121890541D01*
X132889458Y-121735327D01*
X132889452Y-121735322D01*
X132709650Y-121609423D01*
X132709642Y-121609419D01*
X132510708Y-121516655D01*
X132510706Y-121516654D01*
X132510703Y-121516653D01*
X132341827Y-121471402D01*
X132298675Y-121459839D01*
X132298668Y-121459838D01*
X132080002Y-121440708D01*
X132079998Y-121440708D01*
X131861331Y-121459838D01*
X131861324Y-121459839D01*
X131786615Y-121479858D01*
X131649297Y-121516653D01*
X131649295Y-121516653D01*
X131649291Y-121516655D01*
X131450357Y-121609419D01*
X131450349Y-121609423D01*
X131270547Y-121735322D01*
X131270541Y-121735327D01*
X131115327Y-121890541D01*
X131115322Y-121890547D01*
X130989423Y-122070349D01*
X130989419Y-122070357D01*
X130922382Y-122214120D01*
X130876210Y-122266560D01*
X130809017Y-122285712D01*
X130742135Y-122265496D01*
X130697618Y-122214120D01*
X130645103Y-122101501D01*
X130630579Y-122070354D01*
X130630577Y-122070351D01*
X130630576Y-122070349D01*
X130504677Y-121890547D01*
X130504672Y-121890541D01*
X130349458Y-121735327D01*
X130349452Y-121735322D01*
X130169650Y-121609423D01*
X130169642Y-121609419D01*
X129970708Y-121516655D01*
X129970706Y-121516654D01*
X129970703Y-121516653D01*
X129801827Y-121471402D01*
X129758675Y-121459839D01*
X129758668Y-121459838D01*
X129540002Y-121440708D01*
X129539998Y-121440708D01*
X129321331Y-121459838D01*
X129321324Y-121459839D01*
X129246615Y-121479858D01*
X129109297Y-121516653D01*
X129109295Y-121516653D01*
X129109291Y-121516655D01*
X128910357Y-121609419D01*
X128910349Y-121609423D01*
X128730547Y-121735322D01*
X128730541Y-121735327D01*
X128575327Y-121890541D01*
X128575322Y-121890547D01*
X128449423Y-122070349D01*
X128449419Y-122070357D01*
X128382382Y-122214120D01*
X128336210Y-122266560D01*
X128269017Y-122285712D01*
X128202135Y-122265496D01*
X128157618Y-122214120D01*
X128105103Y-122101501D01*
X128090579Y-122070354D01*
X128090577Y-122070351D01*
X128090576Y-122070349D01*
X127964677Y-121890547D01*
X127964672Y-121890541D01*
X127809458Y-121735327D01*
X127809452Y-121735322D01*
X127629650Y-121609423D01*
X127629642Y-121609419D01*
X127430708Y-121516655D01*
X127430706Y-121516654D01*
X127430703Y-121516653D01*
X127261827Y-121471402D01*
X127218675Y-121459839D01*
X127218668Y-121459838D01*
X127000002Y-121440708D01*
X126999998Y-121440708D01*
X126781331Y-121459838D01*
X126781324Y-121459839D01*
X126706615Y-121479858D01*
X126569297Y-121516653D01*
X126569295Y-121516653D01*
X126569291Y-121516655D01*
X126370357Y-121609419D01*
X126370349Y-121609423D01*
X126190547Y-121735322D01*
X126190541Y-121735327D01*
X126035327Y-121890541D01*
X126035322Y-121890547D01*
X125909423Y-122070349D01*
X125909419Y-122070357D01*
X125816655Y-122269291D01*
X125816653Y-122269295D01*
X125816653Y-122269297D01*
X125808453Y-122299901D01*
X125759839Y-122481324D01*
X125759838Y-122481331D01*
X125740708Y-122699997D01*
X125740708Y-122700000D01*
X125759839Y-122918674D01*
X125816653Y-123130703D01*
X125816654Y-123130706D01*
X125816655Y-123130708D01*
X125909419Y-123329642D01*
X125909423Y-123329650D01*
X126035322Y-123509452D01*
X126035327Y-123509458D01*
X126190541Y-123664672D01*
X126190547Y-123664677D01*
X126370349Y-123790576D01*
X126370351Y-123790577D01*
X126370354Y-123790579D01*
X126569297Y-123883347D01*
X126781326Y-123940161D01*
X126937521Y-123953826D01*
X126999998Y-123959292D01*
X127000000Y-123959292D01*
X127000002Y-123959292D01*
X127054797Y-123954498D01*
X127218674Y-123940161D01*
X127430703Y-123883347D01*
X127629646Y-123790579D01*
X127809457Y-123664674D01*
X127964674Y-123509457D01*
X128090579Y-123329646D01*
X128157618Y-123185878D01*
X128203790Y-123133439D01*
X128270983Y-123114287D01*
X128337864Y-123134502D01*
X128382381Y-123185878D01*
X128396037Y-123215163D01*
X128449419Y-123329642D01*
X128449423Y-123329650D01*
X128575322Y-123509452D01*
X128575327Y-123509458D01*
X128730541Y-123664672D01*
X128730547Y-123664677D01*
X128910349Y-123790576D01*
X128910351Y-123790577D01*
X128910354Y-123790579D01*
X129109297Y-123883347D01*
X129321326Y-123940161D01*
X129477521Y-123953826D01*
X129539998Y-123959292D01*
X129540000Y-123959292D01*
X129540002Y-123959292D01*
X129594797Y-123954498D01*
X129758674Y-123940161D01*
X129970703Y-123883347D01*
X130169646Y-123790579D01*
X130349457Y-123664674D01*
X130504674Y-123509457D01*
X130630579Y-123329646D01*
X130697618Y-123185878D01*
X130743790Y-123133439D01*
X130810983Y-123114287D01*
X130877864Y-123134502D01*
X130922381Y-123185878D01*
X130936037Y-123215163D01*
X130989419Y-123329642D01*
X130989423Y-123329650D01*
X131115322Y-123509452D01*
X131115327Y-123509458D01*
X131270541Y-123664672D01*
X131270547Y-123664677D01*
X131450349Y-123790576D01*
X131450351Y-123790577D01*
X131450354Y-123790579D01*
X131649297Y-123883347D01*
X131861326Y-123940161D01*
X132017521Y-123953826D01*
X132079998Y-123959292D01*
X132080000Y-123959292D01*
X132080002Y-123959292D01*
X132134797Y-123954498D01*
X132298674Y-123940161D01*
X132510703Y-123883347D01*
X132709646Y-123790579D01*
X132889457Y-123664674D01*
X133044674Y-123509457D01*
X133170579Y-123329646D01*
X133237618Y-123185878D01*
X133283790Y-123133439D01*
X133350983Y-123114287D01*
X133417864Y-123134502D01*
X133462381Y-123185878D01*
X133476037Y-123215163D01*
X133529419Y-123329642D01*
X133529423Y-123329650D01*
X133655322Y-123509452D01*
X133655327Y-123509458D01*
X133810541Y-123664672D01*
X133810547Y-123664677D01*
X133990349Y-123790576D01*
X133990351Y-123790577D01*
X133990354Y-123790579D01*
X134189297Y-123883347D01*
X134401326Y-123940161D01*
X134557521Y-123953826D01*
X134619998Y-123959292D01*
X134620000Y-123959292D01*
X134620002Y-123959292D01*
X134674797Y-123954498D01*
X134838674Y-123940161D01*
X135050703Y-123883347D01*
X135249646Y-123790579D01*
X135429457Y-123664674D01*
X135584674Y-123509457D01*
X135710579Y-123329646D01*
X135777618Y-123185878D01*
X135823790Y-123133439D01*
X135890983Y-123114287D01*
X135957864Y-123134502D01*
X136002381Y-123185878D01*
X136016037Y-123215163D01*
X136069419Y-123329642D01*
X136069423Y-123329650D01*
X136195322Y-123509452D01*
X136195327Y-123509458D01*
X136350541Y-123664672D01*
X136350547Y-123664677D01*
X136530349Y-123790576D01*
X136530351Y-123790577D01*
X136530354Y-123790579D01*
X136729297Y-123883347D01*
X136941326Y-123940161D01*
X137097521Y-123953826D01*
X137159998Y-123959292D01*
X137160000Y-123959292D01*
X137160002Y-123959292D01*
X137214797Y-123954498D01*
X137378674Y-123940161D01*
X137590703Y-123883347D01*
X137789646Y-123790579D01*
X137969457Y-123664674D01*
X138124674Y-123509457D01*
X138250579Y-123329646D01*
X138317618Y-123185878D01*
X138363790Y-123133439D01*
X138430983Y-123114287D01*
X138497864Y-123134502D01*
X138542381Y-123185878D01*
X138556037Y-123215163D01*
X138609419Y-123329642D01*
X138609423Y-123329650D01*
X138735322Y-123509452D01*
X138735327Y-123509458D01*
X138890541Y-123664672D01*
X138890547Y-123664677D01*
X139070349Y-123790576D01*
X139070351Y-123790577D01*
X139070354Y-123790579D01*
X139269297Y-123883347D01*
X139481326Y-123940161D01*
X139637521Y-123953826D01*
X139699998Y-123959292D01*
X139700000Y-123959292D01*
X139700002Y-123959292D01*
X139754797Y-123954498D01*
X139918674Y-123940161D01*
X140130703Y-123883347D01*
X140329646Y-123790579D01*
X140509457Y-123664674D01*
X140664674Y-123509457D01*
X140790579Y-123329646D01*
X140857893Y-123185288D01*
X140904065Y-123132849D01*
X140971258Y-123113697D01*
X141038139Y-123133912D01*
X141082657Y-123185288D01*
X141149854Y-123329392D01*
X141194003Y-123392443D01*
X141757037Y-122829409D01*
X141774075Y-122892993D01*
X141839901Y-123007007D01*
X141932993Y-123100099D01*
X142047007Y-123165925D01*
X142110590Y-123182962D01*
X141547555Y-123745996D01*
X141610601Y-123790142D01*
X141610605Y-123790144D01*
X141809466Y-123882874D01*
X141809475Y-123882878D01*
X142021407Y-123939664D01*
X142021417Y-123939666D01*
X142239999Y-123958790D01*
X142240001Y-123958790D01*
X142458582Y-123939666D01*
X142458592Y-123939664D01*
X142670524Y-123882878D01*
X142670533Y-123882874D01*
X142869392Y-123790145D01*
X142932443Y-123745995D01*
X142369410Y-123182962D01*
X142432993Y-123165925D01*
X142547007Y-123100099D01*
X142640099Y-123007007D01*
X142705925Y-122892993D01*
X142722962Y-122829409D01*
X143285995Y-123392442D01*
X143299925Y-123372548D01*
X143354502Y-123328924D01*
X143424001Y-123321731D01*
X143486355Y-123353253D01*
X143521769Y-123413483D01*
X143525500Y-123443670D01*
X143525500Y-123501869D01*
X143525501Y-123501876D01*
X143531908Y-123561483D01*
X143582202Y-123696328D01*
X143582206Y-123696335D01*
X143668452Y-123811544D01*
X143668455Y-123811547D01*
X143783664Y-123897793D01*
X143783671Y-123897797D01*
X143918517Y-123948091D01*
X143918516Y-123948091D01*
X143925444Y-123948835D01*
X143978127Y-123954500D01*
X145581872Y-123954499D01*
X145641483Y-123948091D01*
X145776331Y-123897796D01*
X145891546Y-123811546D01*
X145977796Y-123696331D01*
X146028091Y-123561483D01*
X146034500Y-123501873D01*
X146034499Y-122465938D01*
X146054183Y-122398900D01*
X146106987Y-122353145D01*
X146176146Y-122343201D01*
X146239702Y-122372226D01*
X146246180Y-122378258D01*
X146247738Y-122379816D01*
X146400478Y-122475789D01*
X146489694Y-122507007D01*
X146570745Y-122535368D01*
X146570750Y-122535369D01*
X146749996Y-122555565D01*
X146750000Y-122555565D01*
X146750004Y-122555565D01*
X146929249Y-122535369D01*
X146929252Y-122535368D01*
X146929255Y-122535368D01*
X147099522Y-122475789D01*
X147252262Y-122379816D01*
X147379816Y-122252262D01*
X147475789Y-122099522D01*
X147535368Y-121929255D01*
X147536749Y-121916998D01*
X147555565Y-121750003D01*
X147555565Y-121749996D01*
X147535369Y-121570750D01*
X147535366Y-121570737D01*
X147475790Y-121400480D01*
X147460005Y-121375357D01*
X147441000Y-121309387D01*
X147441000Y-112459999D01*
X149644341Y-112459999D01*
X149644341Y-112460000D01*
X149664936Y-112695403D01*
X149664938Y-112695413D01*
X149726094Y-112923655D01*
X149726096Y-112923659D01*
X149726097Y-112923663D01*
X149825965Y-113137830D01*
X149825967Y-113137834D01*
X149961501Y-113331395D01*
X149961506Y-113331402D01*
X150128597Y-113498493D01*
X150128603Y-113498498D01*
X150314158Y-113628425D01*
X150357783Y-113683002D01*
X150364977Y-113752500D01*
X150333454Y-113814855D01*
X150314158Y-113831575D01*
X150128597Y-113961505D01*
X149961505Y-114128597D01*
X149825965Y-114322169D01*
X149825964Y-114322171D01*
X149726098Y-114536335D01*
X149726094Y-114536344D01*
X149664938Y-114764586D01*
X149664936Y-114764596D01*
X149644341Y-114999999D01*
X149644341Y-115000000D01*
X149664936Y-115235403D01*
X149664938Y-115235413D01*
X149726094Y-115463655D01*
X149726096Y-115463659D01*
X149726097Y-115463663D01*
X149825965Y-115677830D01*
X149825967Y-115677834D01*
X149961501Y-115871395D01*
X149961506Y-115871402D01*
X150128597Y-116038493D01*
X150128603Y-116038498D01*
X150314158Y-116168425D01*
X150357783Y-116223002D01*
X150364977Y-116292500D01*
X150333454Y-116354855D01*
X150314158Y-116371575D01*
X150128597Y-116501505D01*
X149961505Y-116668597D01*
X149825965Y-116862169D01*
X149825964Y-116862171D01*
X149726098Y-117076335D01*
X149726094Y-117076344D01*
X149664938Y-117304586D01*
X149664936Y-117304596D01*
X149644341Y-117539999D01*
X149644341Y-117540000D01*
X149664936Y-117775403D01*
X149664938Y-117775413D01*
X149726094Y-118003655D01*
X149726096Y-118003659D01*
X149726097Y-118003663D01*
X149825965Y-118217830D01*
X149825967Y-118217834D01*
X149880289Y-118295413D01*
X149961501Y-118411396D01*
X149961506Y-118411402D01*
X150083430Y-118533326D01*
X150116915Y-118594649D01*
X150111931Y-118664341D01*
X150070059Y-118720274D01*
X150039083Y-118737189D01*
X149907669Y-118786203D01*
X149907664Y-118786206D01*
X149792455Y-118872452D01*
X149792452Y-118872455D01*
X149706206Y-118987664D01*
X149706202Y-118987671D01*
X149655908Y-119122517D01*
X149649501Y-119182116D01*
X149649501Y-119182123D01*
X149649500Y-119182135D01*
X149649500Y-120977870D01*
X149649501Y-120977876D01*
X149655908Y-121037483D01*
X149706202Y-121172328D01*
X149706206Y-121172335D01*
X149792452Y-121287544D01*
X149792455Y-121287547D01*
X149907664Y-121373793D01*
X149907671Y-121373797D01*
X150042517Y-121424091D01*
X150042516Y-121424091D01*
X150049444Y-121424835D01*
X150102127Y-121430500D01*
X151897872Y-121430499D01*
X151957483Y-121424091D01*
X152092331Y-121373796D01*
X152207546Y-121287546D01*
X152293796Y-121172331D01*
X152344091Y-121037483D01*
X152350500Y-120977873D01*
X152350499Y-119182128D01*
X152344091Y-119122517D01*
X152335131Y-119098495D01*
X152293797Y-118987671D01*
X152293793Y-118987664D01*
X152207547Y-118872455D01*
X152207544Y-118872452D01*
X152092335Y-118786206D01*
X152092328Y-118786202D01*
X151960917Y-118737189D01*
X151904983Y-118695318D01*
X151880566Y-118629853D01*
X151895418Y-118561580D01*
X151916563Y-118533332D01*
X152038495Y-118411401D01*
X152174035Y-118217830D01*
X152273903Y-118003663D01*
X152335063Y-117775408D01*
X152355659Y-117540000D01*
X152335063Y-117304592D01*
X152273903Y-117076337D01*
X152174035Y-116862171D01*
X152139256Y-116812500D01*
X152038494Y-116668597D01*
X151871402Y-116501506D01*
X151871396Y-116501501D01*
X151685842Y-116371575D01*
X151642217Y-116316998D01*
X151635023Y-116247500D01*
X151666546Y-116185145D01*
X151685842Y-116168425D01*
X151840484Y-116060143D01*
X151871401Y-116038495D01*
X152038495Y-115871401D01*
X152174035Y-115677830D01*
X152273903Y-115463663D01*
X152335063Y-115235408D01*
X152355659Y-115000000D01*
X152335063Y-114764592D01*
X152273903Y-114536337D01*
X152174035Y-114322171D01*
X152139256Y-114272500D01*
X152038494Y-114128597D01*
X151871402Y-113961506D01*
X151871396Y-113961501D01*
X151685842Y-113831575D01*
X151642217Y-113776998D01*
X151635023Y-113707500D01*
X151666546Y-113645145D01*
X151685842Y-113628425D01*
X151840484Y-113520143D01*
X151871401Y-113498495D01*
X152038495Y-113331401D01*
X152174035Y-113137830D01*
X152273903Y-112923663D01*
X152335063Y-112695408D01*
X152355659Y-112460000D01*
X152335063Y-112224592D01*
X152273903Y-111996337D01*
X152174035Y-111782171D01*
X152139256Y-111732500D01*
X152038494Y-111588597D01*
X151871402Y-111421506D01*
X151871395Y-111421501D01*
X151677834Y-111285967D01*
X151677830Y-111285965D01*
X151676550Y-111285368D01*
X151463663Y-111186097D01*
X151463659Y-111186096D01*
X151463655Y-111186094D01*
X151235413Y-111124938D01*
X151235403Y-111124936D01*
X151000001Y-111104341D01*
X150999999Y-111104341D01*
X150764596Y-111124936D01*
X150764586Y-111124938D01*
X150536344Y-111186094D01*
X150536335Y-111186098D01*
X150322171Y-111285964D01*
X150322169Y-111285965D01*
X150128597Y-111421505D01*
X149961505Y-111588597D01*
X149825965Y-111782169D01*
X149825964Y-111782171D01*
X149726098Y-111996335D01*
X149726094Y-111996344D01*
X149664938Y-112224586D01*
X149664936Y-112224596D01*
X149644341Y-112459999D01*
X147441000Y-112459999D01*
X147441000Y-108940612D01*
X147460007Y-108874639D01*
X147475788Y-108849524D01*
X147483983Y-108826104D01*
X147535368Y-108679255D01*
X147535525Y-108677865D01*
X147555565Y-108500003D01*
X147555565Y-108499996D01*
X147535369Y-108320750D01*
X147535368Y-108320745D01*
X147475788Y-108150476D01*
X147379815Y-107997737D01*
X147252262Y-107870184D01*
X147099523Y-107774211D01*
X146929254Y-107714631D01*
X146929249Y-107714630D01*
X146750004Y-107694435D01*
X146749996Y-107694435D01*
X146570750Y-107714630D01*
X146570745Y-107714631D01*
X146400476Y-107774211D01*
X146247737Y-107870184D01*
X146120184Y-107997737D01*
X146024211Y-108150476D01*
X145964631Y-108320745D01*
X145964630Y-108320750D01*
X145944435Y-108499996D01*
X145944435Y-108500003D01*
X145964630Y-108679249D01*
X145964631Y-108679254D01*
X146024211Y-108849524D01*
X146039993Y-108874639D01*
X146059000Y-108940612D01*
X146059000Y-109247042D01*
X146039315Y-109314081D01*
X145986511Y-109359836D01*
X145917353Y-109369780D01*
X145853797Y-109340755D01*
X145833426Y-109318166D01*
X145825996Y-109307555D01*
X145262962Y-109870589D01*
X145245925Y-109807007D01*
X145180099Y-109692993D01*
X145087007Y-109599901D01*
X144972993Y-109534075D01*
X144909409Y-109517037D01*
X145472443Y-108954003D01*
X145409392Y-108909854D01*
X145210533Y-108817125D01*
X145210524Y-108817121D01*
X144998592Y-108760335D01*
X144998582Y-108760333D01*
X144780001Y-108741210D01*
X144779999Y-108741210D01*
X144561417Y-108760333D01*
X144561407Y-108760335D01*
X144349475Y-108817121D01*
X144349466Y-108817124D01*
X144150606Y-108909855D01*
X144150604Y-108909856D01*
X144087556Y-108954003D01*
X144087555Y-108954003D01*
X144650590Y-109517037D01*
X144587007Y-109534075D01*
X144472993Y-109599901D01*
X144379901Y-109692993D01*
X144314075Y-109807007D01*
X144297037Y-109870590D01*
X143734003Y-109307555D01*
X143734003Y-109307556D01*
X143689857Y-109370603D01*
X143622657Y-109514712D01*
X143576484Y-109567151D01*
X143509290Y-109586302D01*
X143442409Y-109566086D01*
X143397893Y-109514710D01*
X143365713Y-109445699D01*
X143330579Y-109370354D01*
X143330577Y-109370351D01*
X143330576Y-109370349D01*
X143204677Y-109190547D01*
X143204672Y-109190541D01*
X143049458Y-109035327D01*
X143049452Y-109035322D01*
X142869650Y-108909423D01*
X142869642Y-108909419D01*
X142670708Y-108816655D01*
X142670706Y-108816654D01*
X142670703Y-108816653D01*
X142519885Y-108776240D01*
X142458675Y-108759839D01*
X142458668Y-108759838D01*
X142240002Y-108740708D01*
X142239998Y-108740708D01*
X142021331Y-108759838D01*
X142021324Y-108759839D01*
X141898902Y-108792642D01*
X141809297Y-108816653D01*
X141809295Y-108816653D01*
X141809291Y-108816655D01*
X141610357Y-108909419D01*
X141610349Y-108909423D01*
X141430547Y-109035322D01*
X141430541Y-109035327D01*
X141275327Y-109190541D01*
X141275322Y-109190547D01*
X141149423Y-109370349D01*
X141149419Y-109370357D01*
X141082382Y-109514120D01*
X141036210Y-109566560D01*
X140969017Y-109585712D01*
X140902135Y-109565496D01*
X140857618Y-109514120D01*
X140825713Y-109445699D01*
X140790579Y-109370354D01*
X140790577Y-109370351D01*
X140790576Y-109370349D01*
X140664677Y-109190547D01*
X140664672Y-109190541D01*
X140509458Y-109035327D01*
X140509452Y-109035322D01*
X140329650Y-108909423D01*
X140329642Y-108909419D01*
X140130708Y-108816655D01*
X140130706Y-108816654D01*
X140130703Y-108816653D01*
X139979885Y-108776240D01*
X139918675Y-108759839D01*
X139918668Y-108759838D01*
X139700002Y-108740708D01*
X139699998Y-108740708D01*
X139481331Y-108759838D01*
X139481324Y-108759839D01*
X139358902Y-108792642D01*
X139269297Y-108816653D01*
X139269295Y-108816653D01*
X139269291Y-108816655D01*
X139070357Y-108909419D01*
X139070349Y-108909423D01*
X138890547Y-109035322D01*
X138890541Y-109035327D01*
X138735327Y-109190541D01*
X138735322Y-109190547D01*
X138609423Y-109370349D01*
X138609419Y-109370357D01*
X138542382Y-109514120D01*
X138496210Y-109566560D01*
X138429017Y-109585712D01*
X138362135Y-109565496D01*
X138317618Y-109514120D01*
X138285713Y-109445699D01*
X138250579Y-109370354D01*
X138250577Y-109370351D01*
X138250576Y-109370349D01*
X138124677Y-109190547D01*
X138124672Y-109190541D01*
X137969458Y-109035327D01*
X137969452Y-109035322D01*
X137789650Y-108909423D01*
X137789642Y-108909419D01*
X137590708Y-108816655D01*
X137590706Y-108816654D01*
X137590703Y-108816653D01*
X137439885Y-108776240D01*
X137378675Y-108759839D01*
X137378668Y-108759838D01*
X137160002Y-108740708D01*
X137159998Y-108740708D01*
X136941331Y-108759838D01*
X136941324Y-108759839D01*
X136818902Y-108792642D01*
X136729297Y-108816653D01*
X136729295Y-108816653D01*
X136729291Y-108816655D01*
X136530357Y-108909419D01*
X136530349Y-108909423D01*
X136350547Y-109035322D01*
X136350541Y-109035327D01*
X136195327Y-109190541D01*
X136195322Y-109190547D01*
X136069423Y-109370349D01*
X136069419Y-109370357D01*
X136002382Y-109514120D01*
X135956210Y-109566560D01*
X135889017Y-109585712D01*
X135822135Y-109565496D01*
X135777618Y-109514120D01*
X135745713Y-109445699D01*
X135710579Y-109370354D01*
X135710577Y-109370351D01*
X135710576Y-109370349D01*
X135584677Y-109190547D01*
X135584672Y-109190541D01*
X135429458Y-109035327D01*
X135429452Y-109035322D01*
X135249650Y-108909423D01*
X135249642Y-108909419D01*
X135050708Y-108816655D01*
X135050706Y-108816654D01*
X135050703Y-108816653D01*
X134899885Y-108776240D01*
X134838675Y-108759839D01*
X134838668Y-108759838D01*
X134620002Y-108740708D01*
X134619998Y-108740708D01*
X134401331Y-108759838D01*
X134401324Y-108759839D01*
X134278902Y-108792642D01*
X134189297Y-108816653D01*
X134189295Y-108816653D01*
X134189291Y-108816655D01*
X133990357Y-108909419D01*
X133990349Y-108909423D01*
X133810547Y-109035322D01*
X133810541Y-109035327D01*
X133655327Y-109190541D01*
X133655322Y-109190547D01*
X133529423Y-109370349D01*
X133529419Y-109370357D01*
X133462382Y-109514120D01*
X133416210Y-109566560D01*
X133349017Y-109585712D01*
X133282135Y-109565496D01*
X133237618Y-109514120D01*
X133205713Y-109445699D01*
X133170579Y-109370354D01*
X133170577Y-109370351D01*
X133170576Y-109370349D01*
X133044677Y-109190547D01*
X133044672Y-109190541D01*
X132889458Y-109035327D01*
X132889452Y-109035322D01*
X132709650Y-108909423D01*
X132709642Y-108909419D01*
X132510708Y-108816655D01*
X132510706Y-108816654D01*
X132510703Y-108816653D01*
X132359885Y-108776240D01*
X132298675Y-108759839D01*
X132298668Y-108759838D01*
X132080002Y-108740708D01*
X132079998Y-108740708D01*
X131861331Y-108759838D01*
X131861324Y-108759839D01*
X131738902Y-108792642D01*
X131649297Y-108816653D01*
X131649295Y-108816653D01*
X131649291Y-108816655D01*
X131450357Y-108909419D01*
X131450349Y-108909423D01*
X131270547Y-109035322D01*
X131270541Y-109035327D01*
X131115327Y-109190541D01*
X131115322Y-109190547D01*
X130989423Y-109370349D01*
X130989421Y-109370353D01*
X130922106Y-109514711D01*
X130875933Y-109567150D01*
X130808740Y-109586302D01*
X130741859Y-109566086D01*
X130697342Y-109514711D01*
X130630144Y-109370605D01*
X130630142Y-109370601D01*
X130585996Y-109307555D01*
X130022962Y-109870589D01*
X130005925Y-109807007D01*
X129940099Y-109692993D01*
X129847007Y-109599901D01*
X129732993Y-109534075D01*
X129669409Y-109517037D01*
X130232443Y-108954003D01*
X130169392Y-108909854D01*
X129970533Y-108817125D01*
X129970524Y-108817121D01*
X129758592Y-108760335D01*
X129758582Y-108760333D01*
X129540001Y-108741210D01*
X129539999Y-108741210D01*
X129321417Y-108760333D01*
X129321407Y-108760335D01*
X129109475Y-108817121D01*
X129109466Y-108817124D01*
X128910606Y-108909855D01*
X128910604Y-108909856D01*
X128847556Y-108954003D01*
X128847555Y-108954003D01*
X129410590Y-109517037D01*
X129347007Y-109534075D01*
X129232993Y-109599901D01*
X129139901Y-109692993D01*
X129074075Y-109807007D01*
X129057037Y-109870590D01*
X128494003Y-109307555D01*
X128494003Y-109307556D01*
X128449857Y-109370603D01*
X128382657Y-109514712D01*
X128336484Y-109567151D01*
X128269290Y-109586302D01*
X128202409Y-109566086D01*
X128157893Y-109514710D01*
X128125713Y-109445699D01*
X128090579Y-109370354D01*
X128090577Y-109370351D01*
X128090576Y-109370349D01*
X127964677Y-109190547D01*
X127964672Y-109190541D01*
X127809458Y-109035327D01*
X127809452Y-109035322D01*
X127629650Y-108909423D01*
X127629642Y-108909419D01*
X127430708Y-108816655D01*
X127430706Y-108816654D01*
X127430703Y-108816653D01*
X127279885Y-108776240D01*
X127218675Y-108759839D01*
X127218668Y-108759838D01*
X127000002Y-108740708D01*
X126999998Y-108740708D01*
X126781331Y-108759838D01*
X126781324Y-108759839D01*
X126658902Y-108792642D01*
X126569297Y-108816653D01*
X126569295Y-108816653D01*
X126569291Y-108816655D01*
X126370357Y-108909419D01*
X126370349Y-108909423D01*
X126190547Y-109035322D01*
X126190541Y-109035327D01*
X126035327Y-109190541D01*
X126035322Y-109190547D01*
X125909423Y-109370349D01*
X125909419Y-109370357D01*
X125816655Y-109569291D01*
X125816653Y-109569295D01*
X125816653Y-109569297D01*
X125808453Y-109599901D01*
X125759839Y-109781324D01*
X125759838Y-109781331D01*
X125740708Y-109999997D01*
X124000500Y-109999997D01*
X124000500Y-105999997D01*
X125850708Y-105999997D01*
X125850708Y-106000002D01*
X125862624Y-106136210D01*
X125869839Y-106218674D01*
X125926653Y-106430703D01*
X125926654Y-106430706D01*
X125926655Y-106430708D01*
X126019419Y-106629642D01*
X126019423Y-106629650D01*
X126145322Y-106809452D01*
X126145327Y-106809458D01*
X126300541Y-106964672D01*
X126300547Y-106964677D01*
X126480349Y-107090576D01*
X126480351Y-107090577D01*
X126480354Y-107090579D01*
X126679297Y-107183347D01*
X126891326Y-107240161D01*
X127047521Y-107253826D01*
X127109998Y-107259292D01*
X127110000Y-107259292D01*
X127110002Y-107259292D01*
X127164797Y-107254498D01*
X127328674Y-107240161D01*
X127540703Y-107183347D01*
X127739646Y-107090579D01*
X127919457Y-106964674D01*
X128074674Y-106809457D01*
X128200579Y-106629646D01*
X128267618Y-106485878D01*
X128313790Y-106433439D01*
X128380983Y-106414287D01*
X128447864Y-106434502D01*
X128492381Y-106485878D01*
X128509899Y-106523444D01*
X128559419Y-106629642D01*
X128559423Y-106629650D01*
X128685322Y-106809452D01*
X128685327Y-106809458D01*
X128840541Y-106964672D01*
X128840547Y-106964677D01*
X129020349Y-107090576D01*
X129020351Y-107090577D01*
X129020354Y-107090579D01*
X129219297Y-107183347D01*
X129431326Y-107240161D01*
X129587521Y-107253826D01*
X129649998Y-107259292D01*
X129650000Y-107259292D01*
X129650002Y-107259292D01*
X129704797Y-107254498D01*
X129868674Y-107240161D01*
X130080703Y-107183347D01*
X130279646Y-107090579D01*
X130459457Y-106964674D01*
X130614674Y-106809457D01*
X130740579Y-106629646D01*
X130807618Y-106485878D01*
X130853790Y-106433439D01*
X130920983Y-106414287D01*
X130987864Y-106434502D01*
X131032381Y-106485878D01*
X131049899Y-106523444D01*
X131099419Y-106629642D01*
X131099423Y-106629650D01*
X131225322Y-106809452D01*
X131225327Y-106809458D01*
X131380541Y-106964672D01*
X131380547Y-106964677D01*
X131560349Y-107090576D01*
X131560351Y-107090577D01*
X131560354Y-107090579D01*
X131759297Y-107183347D01*
X131971326Y-107240161D01*
X132127521Y-107253826D01*
X132189998Y-107259292D01*
X132190000Y-107259292D01*
X132190002Y-107259292D01*
X132244797Y-107254498D01*
X132408674Y-107240161D01*
X132620703Y-107183347D01*
X132819646Y-107090579D01*
X132999457Y-106964674D01*
X133154674Y-106809457D01*
X133280579Y-106629646D01*
X133347618Y-106485878D01*
X133393790Y-106433439D01*
X133460983Y-106414287D01*
X133527864Y-106434502D01*
X133572381Y-106485878D01*
X133589899Y-106523444D01*
X133639419Y-106629642D01*
X133639423Y-106629650D01*
X133765322Y-106809452D01*
X133765327Y-106809458D01*
X133920541Y-106964672D01*
X133920547Y-106964677D01*
X134100349Y-107090576D01*
X134100351Y-107090577D01*
X134100354Y-107090579D01*
X134299297Y-107183347D01*
X134511326Y-107240161D01*
X134667521Y-107253826D01*
X134729998Y-107259292D01*
X134730000Y-107259292D01*
X134730002Y-107259292D01*
X134784797Y-107254498D01*
X134948674Y-107240161D01*
X135160703Y-107183347D01*
X135359646Y-107090579D01*
X135539457Y-106964674D01*
X135694674Y-106809457D01*
X135820579Y-106629646D01*
X135887618Y-106485878D01*
X135933790Y-106433439D01*
X136000983Y-106414287D01*
X136067864Y-106434502D01*
X136112381Y-106485878D01*
X136129899Y-106523444D01*
X136179419Y-106629642D01*
X136179423Y-106629650D01*
X136305322Y-106809452D01*
X136305327Y-106809458D01*
X136460541Y-106964672D01*
X136460547Y-106964677D01*
X136640349Y-107090576D01*
X136640351Y-107090577D01*
X136640354Y-107090579D01*
X136839297Y-107183347D01*
X137051326Y-107240161D01*
X137207521Y-107253826D01*
X137269998Y-107259292D01*
X137270000Y-107259292D01*
X137270002Y-107259292D01*
X137324797Y-107254498D01*
X137488674Y-107240161D01*
X137700703Y-107183347D01*
X137899646Y-107090579D01*
X138079457Y-106964674D01*
X138234674Y-106809457D01*
X138360579Y-106629646D01*
X138427893Y-106485288D01*
X138474065Y-106432849D01*
X138541258Y-106413697D01*
X138608139Y-106433912D01*
X138652657Y-106485288D01*
X138719854Y-106629392D01*
X138764003Y-106692443D01*
X139327037Y-106129409D01*
X139344075Y-106192993D01*
X139409901Y-106307007D01*
X139502993Y-106400099D01*
X139617007Y-106465925D01*
X139680590Y-106482962D01*
X139117555Y-107045996D01*
X139180601Y-107090142D01*
X139180605Y-107090144D01*
X139379466Y-107182874D01*
X139379475Y-107182878D01*
X139591407Y-107239664D01*
X139591417Y-107239666D01*
X139809999Y-107258790D01*
X139810001Y-107258790D01*
X140028582Y-107239666D01*
X140028592Y-107239664D01*
X140240524Y-107182878D01*
X140240533Y-107182874D01*
X140439392Y-107090145D01*
X140502443Y-107045995D01*
X139939410Y-106482962D01*
X140002993Y-106465925D01*
X140117007Y-106400099D01*
X140210099Y-106307007D01*
X140275925Y-106192993D01*
X140292962Y-106129409D01*
X140855995Y-106692442D01*
X140900145Y-106629392D01*
X140967618Y-106484697D01*
X141013790Y-106432258D01*
X141080984Y-106413106D01*
X141147865Y-106433322D01*
X141192382Y-106484697D01*
X141259854Y-106629392D01*
X141304003Y-106692443D01*
X141867037Y-106129409D01*
X141884075Y-106192993D01*
X141949901Y-106307007D01*
X142042993Y-106400099D01*
X142157007Y-106465925D01*
X142220590Y-106482962D01*
X141657555Y-107045996D01*
X141720601Y-107090142D01*
X141720605Y-107090144D01*
X141919466Y-107182874D01*
X141919475Y-107182878D01*
X142131407Y-107239664D01*
X142131417Y-107239666D01*
X142349999Y-107258790D01*
X142350001Y-107258790D01*
X142568582Y-107239666D01*
X142568592Y-107239664D01*
X142780524Y-107182878D01*
X142780533Y-107182874D01*
X142979392Y-107090145D01*
X143042443Y-107045995D01*
X142479410Y-106482962D01*
X142542993Y-106465925D01*
X142657007Y-106400099D01*
X142750099Y-106307007D01*
X142815925Y-106192993D01*
X142832962Y-106129409D01*
X143395995Y-106692442D01*
X143409925Y-106672548D01*
X143464502Y-106628924D01*
X143534001Y-106621731D01*
X143596355Y-106653253D01*
X143631769Y-106713483D01*
X143635500Y-106743670D01*
X143635500Y-106801869D01*
X143635501Y-106801876D01*
X143641908Y-106861483D01*
X143692202Y-106996328D01*
X143692206Y-106996335D01*
X143778452Y-107111544D01*
X143778455Y-107111547D01*
X143893664Y-107197793D01*
X143893671Y-107197797D01*
X144028517Y-107248091D01*
X144028516Y-107248091D01*
X144035444Y-107248835D01*
X144088127Y-107254500D01*
X145691872Y-107254499D01*
X145751483Y-107248091D01*
X145886331Y-107197796D01*
X146001546Y-107111546D01*
X146087796Y-106996331D01*
X146138091Y-106861483D01*
X146144500Y-106801873D01*
X146144499Y-105198128D01*
X146138091Y-105138517D01*
X146132897Y-105124592D01*
X146087797Y-105003671D01*
X146087793Y-105003664D01*
X146001547Y-104888455D01*
X146001544Y-104888452D01*
X145886335Y-104802206D01*
X145886328Y-104802202D01*
X145751482Y-104751908D01*
X145751483Y-104751908D01*
X145691883Y-104745501D01*
X145691881Y-104745500D01*
X145691873Y-104745500D01*
X145691864Y-104745500D01*
X144088129Y-104745500D01*
X144088123Y-104745501D01*
X144028516Y-104751908D01*
X143893671Y-104802202D01*
X143893664Y-104802206D01*
X143778455Y-104888452D01*
X143778452Y-104888455D01*
X143692206Y-105003664D01*
X143692202Y-105003671D01*
X143641908Y-105138517D01*
X143636315Y-105190543D01*
X143635501Y-105198123D01*
X143635500Y-105198135D01*
X143635500Y-105256324D01*
X143615815Y-105323363D01*
X143563011Y-105369118D01*
X143493853Y-105379062D01*
X143430297Y-105350037D01*
X143409926Y-105327449D01*
X143395996Y-105307555D01*
X142832962Y-105870589D01*
X142815925Y-105807007D01*
X142750099Y-105692993D01*
X142657007Y-105599901D01*
X142542993Y-105534075D01*
X142479409Y-105517037D01*
X143042443Y-104954003D01*
X142979392Y-104909854D01*
X142780533Y-104817125D01*
X142780524Y-104817121D01*
X142568592Y-104760335D01*
X142568582Y-104760333D01*
X142350001Y-104741210D01*
X142349999Y-104741210D01*
X142131417Y-104760333D01*
X142131407Y-104760335D01*
X141919475Y-104817121D01*
X141919466Y-104817124D01*
X141720606Y-104909855D01*
X141720604Y-104909856D01*
X141657556Y-104954003D01*
X141657555Y-104954003D01*
X142220590Y-105517037D01*
X142157007Y-105534075D01*
X142042993Y-105599901D01*
X141949901Y-105692993D01*
X141884075Y-105807007D01*
X141867037Y-105870590D01*
X141304003Y-105307555D01*
X141304003Y-105307556D01*
X141259856Y-105370604D01*
X141259855Y-105370606D01*
X141192382Y-105515302D01*
X141146209Y-105567741D01*
X141079016Y-105586893D01*
X141012135Y-105566677D01*
X140967618Y-105515302D01*
X140900144Y-105370605D01*
X140900142Y-105370601D01*
X140855996Y-105307555D01*
X140292962Y-105870589D01*
X140275925Y-105807007D01*
X140210099Y-105692993D01*
X140117007Y-105599901D01*
X140002993Y-105534075D01*
X139939409Y-105517037D01*
X140502443Y-104954003D01*
X140439392Y-104909854D01*
X140240533Y-104817125D01*
X140240524Y-104817121D01*
X140028592Y-104760335D01*
X140028582Y-104760333D01*
X139810001Y-104741210D01*
X139809999Y-104741210D01*
X139591417Y-104760333D01*
X139591407Y-104760335D01*
X139379475Y-104817121D01*
X139379466Y-104817124D01*
X139180606Y-104909855D01*
X139180604Y-104909856D01*
X139117556Y-104954003D01*
X139117555Y-104954003D01*
X139680590Y-105517037D01*
X139617007Y-105534075D01*
X139502993Y-105599901D01*
X139409901Y-105692993D01*
X139344075Y-105807007D01*
X139327037Y-105870590D01*
X138764003Y-105307555D01*
X138764003Y-105307556D01*
X138719857Y-105370603D01*
X138652657Y-105514712D01*
X138606484Y-105567151D01*
X138539290Y-105586302D01*
X138472409Y-105566086D01*
X138427893Y-105514710D01*
X138408682Y-105473513D01*
X138360579Y-105370354D01*
X138360577Y-105370351D01*
X138360576Y-105370349D01*
X138234677Y-105190547D01*
X138234672Y-105190541D01*
X138079458Y-105035327D01*
X138079452Y-105035322D01*
X137899650Y-104909423D01*
X137899642Y-104909419D01*
X137700708Y-104816655D01*
X137700706Y-104816654D01*
X137700703Y-104816653D01*
X137549885Y-104776240D01*
X137488675Y-104759839D01*
X137488668Y-104759838D01*
X137270002Y-104740708D01*
X137269998Y-104740708D01*
X137051331Y-104759838D01*
X137051324Y-104759839D01*
X136928902Y-104792642D01*
X136839297Y-104816653D01*
X136839295Y-104816653D01*
X136839291Y-104816655D01*
X136640357Y-104909419D01*
X136640349Y-104909423D01*
X136460547Y-105035322D01*
X136460541Y-105035327D01*
X136305327Y-105190541D01*
X136305322Y-105190547D01*
X136179423Y-105370349D01*
X136179419Y-105370357D01*
X136112382Y-105514120D01*
X136066210Y-105566560D01*
X135999017Y-105585712D01*
X135932135Y-105565496D01*
X135887618Y-105514120D01*
X135860032Y-105454963D01*
X135820579Y-105370354D01*
X135820577Y-105370351D01*
X135820576Y-105370349D01*
X135694677Y-105190547D01*
X135694672Y-105190541D01*
X135539458Y-105035327D01*
X135539452Y-105035322D01*
X135359650Y-104909423D01*
X135359642Y-104909419D01*
X135160708Y-104816655D01*
X135160706Y-104816654D01*
X135160703Y-104816653D01*
X135009885Y-104776240D01*
X134948675Y-104759839D01*
X134948668Y-104759838D01*
X134730002Y-104740708D01*
X134729998Y-104740708D01*
X134511331Y-104759838D01*
X134511324Y-104759839D01*
X134388902Y-104792642D01*
X134299297Y-104816653D01*
X134299295Y-104816653D01*
X134299291Y-104816655D01*
X134100357Y-104909419D01*
X134100349Y-104909423D01*
X133920547Y-105035322D01*
X133920541Y-105035327D01*
X133765327Y-105190541D01*
X133765322Y-105190547D01*
X133639423Y-105370349D01*
X133639419Y-105370357D01*
X133572382Y-105514120D01*
X133526210Y-105566560D01*
X133459017Y-105585712D01*
X133392135Y-105565496D01*
X133347618Y-105514120D01*
X133320032Y-105454963D01*
X133280579Y-105370354D01*
X133280577Y-105370351D01*
X133280576Y-105370349D01*
X133154677Y-105190547D01*
X133154672Y-105190541D01*
X132999458Y-105035327D01*
X132999452Y-105035322D01*
X132819650Y-104909423D01*
X132819642Y-104909419D01*
X132620708Y-104816655D01*
X132620706Y-104816654D01*
X132620703Y-104816653D01*
X132469885Y-104776240D01*
X132408675Y-104759839D01*
X132408668Y-104759838D01*
X132190002Y-104740708D01*
X132189998Y-104740708D01*
X131971331Y-104759838D01*
X131971324Y-104759839D01*
X131848902Y-104792642D01*
X131759297Y-104816653D01*
X131759295Y-104816653D01*
X131759291Y-104816655D01*
X131560357Y-104909419D01*
X131560349Y-104909423D01*
X131380547Y-105035322D01*
X131380541Y-105035327D01*
X131225327Y-105190541D01*
X131225322Y-105190547D01*
X131099423Y-105370349D01*
X131099419Y-105370357D01*
X131032382Y-105514120D01*
X130986210Y-105566560D01*
X130919017Y-105585712D01*
X130852135Y-105565496D01*
X130807618Y-105514120D01*
X130780032Y-105454963D01*
X130740579Y-105370354D01*
X130740577Y-105370351D01*
X130740576Y-105370349D01*
X130614677Y-105190547D01*
X130614672Y-105190541D01*
X130459458Y-105035327D01*
X130459452Y-105035322D01*
X130279650Y-104909423D01*
X130279642Y-104909419D01*
X130080708Y-104816655D01*
X130080706Y-104816654D01*
X130080703Y-104816653D01*
X129929885Y-104776240D01*
X129868675Y-104759839D01*
X129868668Y-104759838D01*
X129650002Y-104740708D01*
X129649998Y-104740708D01*
X129431331Y-104759838D01*
X129431324Y-104759839D01*
X129308902Y-104792642D01*
X129219297Y-104816653D01*
X129219295Y-104816653D01*
X129219291Y-104816655D01*
X129020357Y-104909419D01*
X129020349Y-104909423D01*
X128840547Y-105035322D01*
X128840541Y-105035327D01*
X128685327Y-105190541D01*
X128685322Y-105190547D01*
X128559423Y-105370349D01*
X128559419Y-105370357D01*
X128492382Y-105514120D01*
X128446210Y-105566560D01*
X128379017Y-105585712D01*
X128312135Y-105565496D01*
X128267618Y-105514120D01*
X128240032Y-105454963D01*
X128200579Y-105370354D01*
X128200577Y-105370351D01*
X128200576Y-105370349D01*
X128074677Y-105190547D01*
X128074672Y-105190541D01*
X127919458Y-105035327D01*
X127919452Y-105035322D01*
X127739650Y-104909423D01*
X127739642Y-104909419D01*
X127540708Y-104816655D01*
X127540706Y-104816654D01*
X127540703Y-104816653D01*
X127389885Y-104776240D01*
X127328675Y-104759839D01*
X127328668Y-104759838D01*
X127110002Y-104740708D01*
X127109998Y-104740708D01*
X126891331Y-104759838D01*
X126891324Y-104759839D01*
X126768902Y-104792642D01*
X126679297Y-104816653D01*
X126679295Y-104816653D01*
X126679291Y-104816655D01*
X126480357Y-104909419D01*
X126480349Y-104909423D01*
X126300547Y-105035322D01*
X126300541Y-105035327D01*
X126145327Y-105190541D01*
X126145322Y-105190547D01*
X126019423Y-105370349D01*
X126019419Y-105370357D01*
X125926655Y-105569291D01*
X125926653Y-105569295D01*
X125926653Y-105569297D01*
X125919655Y-105595413D01*
X125869839Y-105781324D01*
X125869838Y-105781331D01*
X125850708Y-105999997D01*
X124000500Y-105999997D01*
X124000500Y-93299997D01*
X125850708Y-93299997D01*
X125850708Y-93300002D01*
X125869838Y-93518668D01*
X125869839Y-93518675D01*
X125884447Y-93573191D01*
X125926653Y-93730703D01*
X125926654Y-93730706D01*
X125926655Y-93730708D01*
X126019419Y-93929642D01*
X126019423Y-93929650D01*
X126145322Y-94109452D01*
X126145327Y-94109458D01*
X126300541Y-94264672D01*
X126300547Y-94264677D01*
X126480349Y-94390576D01*
X126480351Y-94390577D01*
X126480354Y-94390579D01*
X126679297Y-94483347D01*
X126891326Y-94540161D01*
X127047521Y-94553826D01*
X127109998Y-94559292D01*
X127110000Y-94559292D01*
X127110002Y-94559292D01*
X127164668Y-94554509D01*
X127328674Y-94540161D01*
X127540703Y-94483347D01*
X127739646Y-94390579D01*
X127919457Y-94264674D01*
X128074674Y-94109457D01*
X128200579Y-93929646D01*
X128267893Y-93785288D01*
X128314065Y-93732849D01*
X128381258Y-93713697D01*
X128448139Y-93733912D01*
X128492657Y-93785288D01*
X128559854Y-93929392D01*
X128604003Y-93992443D01*
X129167037Y-93429409D01*
X129184075Y-93492993D01*
X129249901Y-93607007D01*
X129342993Y-93700099D01*
X129457007Y-93765925D01*
X129520590Y-93782962D01*
X128957555Y-94345996D01*
X129020601Y-94390142D01*
X129020605Y-94390144D01*
X129219466Y-94482874D01*
X129219475Y-94482878D01*
X129431407Y-94539664D01*
X129431417Y-94539666D01*
X129649999Y-94558790D01*
X129650001Y-94558790D01*
X129868582Y-94539666D01*
X129868592Y-94539664D01*
X130080524Y-94482878D01*
X130080533Y-94482874D01*
X130279392Y-94390145D01*
X130342443Y-94345995D01*
X129779410Y-93782962D01*
X129842993Y-93765925D01*
X129957007Y-93700099D01*
X130050099Y-93607007D01*
X130115925Y-93492993D01*
X130132962Y-93429409D01*
X130695995Y-93992442D01*
X130740146Y-93929390D01*
X130807342Y-93785289D01*
X130853514Y-93732849D01*
X130920707Y-93713697D01*
X130987589Y-93733913D01*
X131032106Y-93785288D01*
X131099421Y-93929646D01*
X131099423Y-93929650D01*
X131225322Y-94109452D01*
X131225327Y-94109458D01*
X131380541Y-94264672D01*
X131380547Y-94264677D01*
X131560349Y-94390576D01*
X131560351Y-94390577D01*
X131560354Y-94390579D01*
X131759297Y-94483347D01*
X131971326Y-94540161D01*
X132127521Y-94553826D01*
X132189998Y-94559292D01*
X132190000Y-94559292D01*
X132190002Y-94559292D01*
X132244668Y-94554509D01*
X132408674Y-94540161D01*
X132620703Y-94483347D01*
X132819646Y-94390579D01*
X132999457Y-94264674D01*
X133154674Y-94109457D01*
X133280579Y-93929646D01*
X133347618Y-93785878D01*
X133393790Y-93733439D01*
X133460983Y-93714287D01*
X133527864Y-93734502D01*
X133572381Y-93785878D01*
X133587605Y-93818526D01*
X133639419Y-93929642D01*
X133639423Y-93929650D01*
X133765322Y-94109452D01*
X133765327Y-94109458D01*
X133920541Y-94264672D01*
X133920547Y-94264677D01*
X134100349Y-94390576D01*
X134100351Y-94390577D01*
X134100354Y-94390579D01*
X134299297Y-94483347D01*
X134511326Y-94540161D01*
X134667521Y-94553826D01*
X134729998Y-94559292D01*
X134730000Y-94559292D01*
X134730002Y-94559292D01*
X134784668Y-94554509D01*
X134948674Y-94540161D01*
X135160703Y-94483347D01*
X135359646Y-94390579D01*
X135539457Y-94264674D01*
X135694674Y-94109457D01*
X135820579Y-93929646D01*
X135887618Y-93785878D01*
X135933790Y-93733439D01*
X136000983Y-93714287D01*
X136067864Y-93734502D01*
X136112381Y-93785878D01*
X136127605Y-93818526D01*
X136179419Y-93929642D01*
X136179423Y-93929650D01*
X136305322Y-94109452D01*
X136305327Y-94109458D01*
X136460541Y-94264672D01*
X136460547Y-94264677D01*
X136640349Y-94390576D01*
X136640351Y-94390577D01*
X136640354Y-94390579D01*
X136839297Y-94483347D01*
X137051326Y-94540161D01*
X137207521Y-94553826D01*
X137269998Y-94559292D01*
X137270000Y-94559292D01*
X137270002Y-94559292D01*
X137324668Y-94554509D01*
X137488674Y-94540161D01*
X137700703Y-94483347D01*
X137899646Y-94390579D01*
X138079457Y-94264674D01*
X138234674Y-94109457D01*
X138360579Y-93929646D01*
X138427618Y-93785878D01*
X138473790Y-93733439D01*
X138540983Y-93714287D01*
X138607864Y-93734502D01*
X138652381Y-93785878D01*
X138667605Y-93818526D01*
X138719419Y-93929642D01*
X138719423Y-93929650D01*
X138845322Y-94109452D01*
X138845327Y-94109458D01*
X139000541Y-94264672D01*
X139000547Y-94264677D01*
X139180349Y-94390576D01*
X139180351Y-94390577D01*
X139180354Y-94390579D01*
X139379297Y-94483347D01*
X139591326Y-94540161D01*
X139747521Y-94553826D01*
X139809998Y-94559292D01*
X139810000Y-94559292D01*
X139810002Y-94559292D01*
X139864668Y-94554509D01*
X140028674Y-94540161D01*
X140240703Y-94483347D01*
X140276167Y-94466809D01*
X140345243Y-94456317D01*
X140409027Y-94484836D01*
X140447268Y-94543312D01*
X140451792Y-94565307D01*
X140464630Y-94679250D01*
X140464631Y-94679254D01*
X140524211Y-94849523D01*
X140596514Y-94964592D01*
X140620184Y-95002262D01*
X140747738Y-95129816D01*
X140900478Y-95225789D01*
X141024651Y-95269238D01*
X141071377Y-95298599D01*
X147772681Y-101999903D01*
X147806166Y-102061226D01*
X147809000Y-102087584D01*
X147809000Y-102809387D01*
X147789995Y-102875357D01*
X147774209Y-102900480D01*
X147714633Y-103070737D01*
X147714630Y-103070750D01*
X147694435Y-103249996D01*
X147694435Y-103250003D01*
X147714630Y-103429249D01*
X147714631Y-103429254D01*
X147774211Y-103599523D01*
X147837255Y-103699856D01*
X147870184Y-103752262D01*
X147997738Y-103879816D01*
X148150478Y-103975789D01*
X148172355Y-103983444D01*
X148320745Y-104035368D01*
X148320750Y-104035369D01*
X148499996Y-104055565D01*
X148500000Y-104055565D01*
X148500004Y-104055565D01*
X148679249Y-104035369D01*
X148679252Y-104035368D01*
X148679255Y-104035368D01*
X148849522Y-103975789D01*
X149002262Y-103879816D01*
X149129816Y-103752262D01*
X149225789Y-103599522D01*
X149285368Y-103429255D01*
X149288610Y-103400480D01*
X149305565Y-103250003D01*
X149305565Y-103249996D01*
X149285369Y-103070750D01*
X149285366Y-103070737D01*
X149225790Y-102900480D01*
X149210005Y-102875357D01*
X149191000Y-102809387D01*
X149191000Y-101681939D01*
X149164446Y-101548448D01*
X149164445Y-101548447D01*
X149164445Y-101548443D01*
X149164443Y-101548438D01*
X149112359Y-101422695D01*
X149112355Y-101422688D01*
X149073480Y-101364507D01*
X149036735Y-101309513D01*
X149036733Y-101309511D01*
X149036731Y-101309508D01*
X149036730Y-101309507D01*
X143407221Y-95679999D01*
X149644341Y-95679999D01*
X149644341Y-95680000D01*
X149664936Y-95915403D01*
X149664938Y-95915413D01*
X149726094Y-96143655D01*
X149726096Y-96143659D01*
X149726097Y-96143663D01*
X149825965Y-96357830D01*
X149825967Y-96357834D01*
X149961501Y-96551395D01*
X149961506Y-96551402D01*
X150128597Y-96718493D01*
X150128603Y-96718498D01*
X150314158Y-96848425D01*
X150357783Y-96903002D01*
X150364977Y-96972500D01*
X150333454Y-97034855D01*
X150314158Y-97051575D01*
X150128597Y-97181505D01*
X149961505Y-97348597D01*
X149825965Y-97542169D01*
X149825964Y-97542171D01*
X149726098Y-97756335D01*
X149726094Y-97756344D01*
X149664938Y-97984586D01*
X149664936Y-97984596D01*
X149644341Y-98219999D01*
X149644341Y-98220000D01*
X149664936Y-98455403D01*
X149664938Y-98455413D01*
X149726094Y-98683655D01*
X149726096Y-98683659D01*
X149726097Y-98683663D01*
X149825965Y-98897830D01*
X149825967Y-98897834D01*
X149961501Y-99091395D01*
X149961506Y-99091402D01*
X150128597Y-99258493D01*
X150128603Y-99258498D01*
X150314158Y-99388425D01*
X150357783Y-99443002D01*
X150364977Y-99512500D01*
X150333454Y-99574855D01*
X150314158Y-99591575D01*
X150128597Y-99721505D01*
X149961505Y-99888597D01*
X149825965Y-100082169D01*
X149825964Y-100082171D01*
X149726098Y-100296335D01*
X149726094Y-100296344D01*
X149664938Y-100524586D01*
X149664936Y-100524596D01*
X149644341Y-100759999D01*
X149644341Y-100760000D01*
X149664936Y-100995403D01*
X149664938Y-100995413D01*
X149726094Y-101223655D01*
X149726096Y-101223659D01*
X149726097Y-101223663D01*
X149791774Y-101364507D01*
X149825965Y-101437830D01*
X149825967Y-101437834D01*
X149904507Y-101550000D01*
X149961501Y-101631396D01*
X149961506Y-101631402D01*
X150083430Y-101753326D01*
X150116915Y-101814649D01*
X150111931Y-101884341D01*
X150070059Y-101940274D01*
X150039083Y-101957189D01*
X149907669Y-102006203D01*
X149907664Y-102006206D01*
X149792455Y-102092452D01*
X149792452Y-102092455D01*
X149706206Y-102207664D01*
X149706202Y-102207671D01*
X149655908Y-102342517D01*
X149649501Y-102402116D01*
X149649501Y-102402123D01*
X149649500Y-102402135D01*
X149649500Y-104197870D01*
X149649501Y-104197876D01*
X149655908Y-104257483D01*
X149706202Y-104392328D01*
X149706206Y-104392335D01*
X149792452Y-104507544D01*
X149792455Y-104507547D01*
X149907664Y-104593793D01*
X149907671Y-104593797D01*
X150042517Y-104644091D01*
X150042516Y-104644091D01*
X150049444Y-104644835D01*
X150102127Y-104650500D01*
X151897872Y-104650499D01*
X151957483Y-104644091D01*
X152092331Y-104593796D01*
X152207546Y-104507546D01*
X152293796Y-104392331D01*
X152344091Y-104257483D01*
X152350500Y-104197873D01*
X152350499Y-102402128D01*
X152344091Y-102342517D01*
X152313313Y-102259998D01*
X152293797Y-102207671D01*
X152293793Y-102207664D01*
X152207547Y-102092455D01*
X152207544Y-102092452D01*
X152092335Y-102006206D01*
X152092328Y-102006202D01*
X151960917Y-101957189D01*
X151904983Y-101915318D01*
X151880566Y-101849853D01*
X151895418Y-101781580D01*
X151916563Y-101753332D01*
X152038495Y-101631401D01*
X152174035Y-101437830D01*
X152273903Y-101223663D01*
X152335063Y-100995408D01*
X152355659Y-100760000D01*
X152335063Y-100524592D01*
X152273903Y-100296337D01*
X152174035Y-100082171D01*
X152166035Y-100070745D01*
X152038494Y-99888597D01*
X151871402Y-99721506D01*
X151871396Y-99721501D01*
X151685842Y-99591575D01*
X151642217Y-99536998D01*
X151635023Y-99467500D01*
X151666546Y-99405145D01*
X151685842Y-99388425D01*
X151708026Y-99372891D01*
X151871401Y-99258495D01*
X152038495Y-99091401D01*
X152174035Y-98897830D01*
X152273903Y-98683663D01*
X152335063Y-98455408D01*
X152355659Y-98220000D01*
X152335063Y-97984592D01*
X152273903Y-97756337D01*
X152174035Y-97542171D01*
X152038495Y-97348599D01*
X152038494Y-97348597D01*
X151871402Y-97181506D01*
X151871396Y-97181501D01*
X151685842Y-97051575D01*
X151642217Y-96996998D01*
X151635023Y-96927500D01*
X151666546Y-96865145D01*
X151685842Y-96848425D01*
X151832798Y-96745525D01*
X151871401Y-96718495D01*
X152038495Y-96551401D01*
X152174035Y-96357830D01*
X152273903Y-96143663D01*
X152335063Y-95915408D01*
X152355659Y-95680000D01*
X152335063Y-95444592D01*
X152273903Y-95216337D01*
X152174035Y-95002171D01*
X152122979Y-94929254D01*
X152038494Y-94808597D01*
X151871402Y-94641506D01*
X151871395Y-94641501D01*
X151869251Y-94640000D01*
X151832521Y-94614281D01*
X151677834Y-94505967D01*
X151677830Y-94505965D01*
X151632519Y-94484836D01*
X151463663Y-94406097D01*
X151463659Y-94406096D01*
X151463655Y-94406094D01*
X151235413Y-94344938D01*
X151235403Y-94344936D01*
X151000001Y-94324341D01*
X150999999Y-94324341D01*
X150764596Y-94344936D01*
X150764586Y-94344938D01*
X150536344Y-94406094D01*
X150536335Y-94406098D01*
X150322171Y-94505964D01*
X150322169Y-94505965D01*
X150128597Y-94641505D01*
X149961505Y-94808597D01*
X149825965Y-95002169D01*
X149825964Y-95002171D01*
X149726098Y-95216335D01*
X149726094Y-95216344D01*
X149664938Y-95444586D01*
X149664936Y-95444596D01*
X149644341Y-95679999D01*
X143407221Y-95679999D01*
X142479654Y-94752432D01*
X142446169Y-94691109D01*
X142451153Y-94621417D01*
X142493025Y-94565484D01*
X142556531Y-94541223D01*
X142568674Y-94540161D01*
X142780703Y-94483347D01*
X142979646Y-94390579D01*
X143159457Y-94264674D01*
X143314674Y-94109457D01*
X143440579Y-93929646D01*
X143507893Y-93785288D01*
X143554065Y-93732849D01*
X143621258Y-93713697D01*
X143688139Y-93733912D01*
X143732657Y-93785288D01*
X143799854Y-93929392D01*
X143844003Y-93992443D01*
X144407037Y-93429409D01*
X144424075Y-93492993D01*
X144489901Y-93607007D01*
X144582993Y-93700099D01*
X144697007Y-93765925D01*
X144760590Y-93782962D01*
X144197555Y-94345996D01*
X144260601Y-94390142D01*
X144260605Y-94390144D01*
X144459466Y-94482874D01*
X144459475Y-94482878D01*
X144671407Y-94539664D01*
X144671417Y-94539666D01*
X144889999Y-94558790D01*
X144890001Y-94558790D01*
X145108582Y-94539666D01*
X145108592Y-94539664D01*
X145320524Y-94482878D01*
X145320533Y-94482874D01*
X145519392Y-94390145D01*
X145582443Y-94345995D01*
X145019410Y-93782962D01*
X145082993Y-93765925D01*
X145197007Y-93700099D01*
X145290099Y-93607007D01*
X145355925Y-93492993D01*
X145372962Y-93429409D01*
X145935995Y-93992442D01*
X145980145Y-93929392D01*
X146072874Y-93730533D01*
X146072878Y-93730524D01*
X146129664Y-93518592D01*
X146129666Y-93518582D01*
X146148790Y-93300000D01*
X146148790Y-93299999D01*
X146129666Y-93081417D01*
X146129664Y-93081407D01*
X146072878Y-92869475D01*
X146072874Y-92869466D01*
X145980144Y-92670605D01*
X145980142Y-92670601D01*
X145935996Y-92607555D01*
X145372962Y-93170589D01*
X145355925Y-93107007D01*
X145290099Y-92992993D01*
X145197007Y-92899901D01*
X145082993Y-92834075D01*
X145019409Y-92817037D01*
X145582443Y-92254003D01*
X145519392Y-92209854D01*
X145320533Y-92117125D01*
X145320524Y-92117121D01*
X145108592Y-92060335D01*
X145108582Y-92060333D01*
X144890001Y-92041210D01*
X144889999Y-92041210D01*
X144671417Y-92060333D01*
X144671407Y-92060335D01*
X144459475Y-92117121D01*
X144459466Y-92117124D01*
X144260606Y-92209855D01*
X144260604Y-92209856D01*
X144197556Y-92254003D01*
X144197555Y-92254003D01*
X144760590Y-92817037D01*
X144697007Y-92834075D01*
X144582993Y-92899901D01*
X144489901Y-92992993D01*
X144424075Y-93107007D01*
X144407037Y-93170590D01*
X143844003Y-92607555D01*
X143844003Y-92607556D01*
X143799857Y-92670603D01*
X143732657Y-92814712D01*
X143686484Y-92867151D01*
X143619290Y-92886302D01*
X143552409Y-92866086D01*
X143507893Y-92814710D01*
X143477716Y-92749996D01*
X143440579Y-92670354D01*
X143440577Y-92670351D01*
X143440576Y-92670349D01*
X143314677Y-92490547D01*
X143314672Y-92490541D01*
X143159458Y-92335327D01*
X143159452Y-92335322D01*
X142979650Y-92209423D01*
X142979642Y-92209419D01*
X142780708Y-92116655D01*
X142780706Y-92116654D01*
X142780703Y-92116653D01*
X142629885Y-92076240D01*
X142568675Y-92059839D01*
X142568668Y-92059838D01*
X142350002Y-92040708D01*
X142349998Y-92040708D01*
X142131331Y-92059838D01*
X142131324Y-92059839D01*
X142008902Y-92092642D01*
X141919297Y-92116653D01*
X141919295Y-92116653D01*
X141919291Y-92116655D01*
X141720357Y-92209419D01*
X141720349Y-92209423D01*
X141540547Y-92335322D01*
X141540541Y-92335327D01*
X141385327Y-92490541D01*
X141385322Y-92490547D01*
X141259423Y-92670349D01*
X141259419Y-92670357D01*
X141192382Y-92814120D01*
X141146210Y-92866560D01*
X141079017Y-92885712D01*
X141012135Y-92865496D01*
X140967618Y-92814120D01*
X140937716Y-92749996D01*
X140900579Y-92670354D01*
X140900577Y-92670351D01*
X140900576Y-92670349D01*
X140774677Y-92490547D01*
X140774672Y-92490541D01*
X140619458Y-92335327D01*
X140619452Y-92335322D01*
X140439650Y-92209423D01*
X140439642Y-92209419D01*
X140240708Y-92116655D01*
X140240706Y-92116654D01*
X140240703Y-92116653D01*
X140089885Y-92076240D01*
X140028675Y-92059839D01*
X140028668Y-92059838D01*
X139810002Y-92040708D01*
X139809998Y-92040708D01*
X139591331Y-92059838D01*
X139591324Y-92059839D01*
X139468902Y-92092642D01*
X139379297Y-92116653D01*
X139379295Y-92116653D01*
X139379291Y-92116655D01*
X139180357Y-92209419D01*
X139180349Y-92209423D01*
X139000547Y-92335322D01*
X139000541Y-92335327D01*
X138845327Y-92490541D01*
X138845322Y-92490547D01*
X138719423Y-92670349D01*
X138719419Y-92670357D01*
X138652382Y-92814120D01*
X138606210Y-92866560D01*
X138539017Y-92885712D01*
X138472135Y-92865496D01*
X138427618Y-92814120D01*
X138397716Y-92749996D01*
X138360579Y-92670354D01*
X138360577Y-92670351D01*
X138360576Y-92670349D01*
X138234677Y-92490547D01*
X138234672Y-92490541D01*
X138079458Y-92335327D01*
X138079452Y-92335322D01*
X137899650Y-92209423D01*
X137899642Y-92209419D01*
X137700708Y-92116655D01*
X137700706Y-92116654D01*
X137700703Y-92116653D01*
X137549885Y-92076240D01*
X137488675Y-92059839D01*
X137488668Y-92059838D01*
X137270002Y-92040708D01*
X137269998Y-92040708D01*
X137051331Y-92059838D01*
X137051324Y-92059839D01*
X136928902Y-92092642D01*
X136839297Y-92116653D01*
X136839295Y-92116653D01*
X136839291Y-92116655D01*
X136640357Y-92209419D01*
X136640349Y-92209423D01*
X136460547Y-92335322D01*
X136460541Y-92335327D01*
X136305327Y-92490541D01*
X136305322Y-92490547D01*
X136179423Y-92670349D01*
X136179419Y-92670357D01*
X136112382Y-92814120D01*
X136066210Y-92866560D01*
X135999017Y-92885712D01*
X135932135Y-92865496D01*
X135887618Y-92814120D01*
X135857716Y-92749996D01*
X135820579Y-92670354D01*
X135820577Y-92670351D01*
X135820576Y-92670349D01*
X135694677Y-92490547D01*
X135694672Y-92490541D01*
X135539458Y-92335327D01*
X135539452Y-92335322D01*
X135359650Y-92209423D01*
X135359642Y-92209419D01*
X135160708Y-92116655D01*
X135160706Y-92116654D01*
X135160703Y-92116653D01*
X135009885Y-92076240D01*
X134948675Y-92059839D01*
X134948668Y-92059838D01*
X134730002Y-92040708D01*
X134729998Y-92040708D01*
X134511331Y-92059838D01*
X134511324Y-92059839D01*
X134388902Y-92092642D01*
X134299297Y-92116653D01*
X134299295Y-92116653D01*
X134299291Y-92116655D01*
X134100357Y-92209419D01*
X134100349Y-92209423D01*
X133920547Y-92335322D01*
X133920541Y-92335327D01*
X133765327Y-92490541D01*
X133765322Y-92490547D01*
X133639423Y-92670349D01*
X133639419Y-92670357D01*
X133572382Y-92814120D01*
X133526210Y-92866560D01*
X133459017Y-92885712D01*
X133392135Y-92865496D01*
X133347618Y-92814120D01*
X133317716Y-92749996D01*
X133280579Y-92670354D01*
X133280577Y-92670351D01*
X133280576Y-92670349D01*
X133154677Y-92490547D01*
X133154672Y-92490541D01*
X132999458Y-92335327D01*
X132999452Y-92335322D01*
X132819650Y-92209423D01*
X132819642Y-92209419D01*
X132620708Y-92116655D01*
X132620706Y-92116654D01*
X132620703Y-92116653D01*
X132469885Y-92076240D01*
X132408675Y-92059839D01*
X132408668Y-92059838D01*
X132190002Y-92040708D01*
X132189998Y-92040708D01*
X131971331Y-92059838D01*
X131971324Y-92059839D01*
X131848902Y-92092642D01*
X131759297Y-92116653D01*
X131759295Y-92116653D01*
X131759291Y-92116655D01*
X131560357Y-92209419D01*
X131560349Y-92209423D01*
X131380547Y-92335322D01*
X131380541Y-92335327D01*
X131225327Y-92490541D01*
X131225322Y-92490547D01*
X131099423Y-92670349D01*
X131099421Y-92670353D01*
X131032106Y-92814711D01*
X130985933Y-92867150D01*
X130918740Y-92886302D01*
X130851859Y-92866086D01*
X130807342Y-92814711D01*
X130740144Y-92670605D01*
X130740142Y-92670601D01*
X130695996Y-92607555D01*
X130132962Y-93170589D01*
X130115925Y-93107007D01*
X130050099Y-92992993D01*
X129957007Y-92899901D01*
X129842993Y-92834075D01*
X129779409Y-92817037D01*
X130342443Y-92254003D01*
X130279392Y-92209854D01*
X130080533Y-92117125D01*
X130080524Y-92117121D01*
X129868592Y-92060335D01*
X129868582Y-92060333D01*
X129650001Y-92041210D01*
X129649999Y-92041210D01*
X129431417Y-92060333D01*
X129431407Y-92060335D01*
X129219475Y-92117121D01*
X129219466Y-92117124D01*
X129020606Y-92209855D01*
X129020604Y-92209856D01*
X128957556Y-92254003D01*
X128957555Y-92254003D01*
X129520590Y-92817037D01*
X129457007Y-92834075D01*
X129342993Y-92899901D01*
X129249901Y-92992993D01*
X129184075Y-93107007D01*
X129167037Y-93170590D01*
X128604003Y-92607555D01*
X128604003Y-92607556D01*
X128559857Y-92670603D01*
X128492657Y-92814712D01*
X128446484Y-92867151D01*
X128379290Y-92886302D01*
X128312409Y-92866086D01*
X128267893Y-92814710D01*
X128237716Y-92749996D01*
X128200579Y-92670354D01*
X128200577Y-92670351D01*
X128200576Y-92670349D01*
X128074677Y-92490547D01*
X128074672Y-92490541D01*
X127919458Y-92335327D01*
X127919452Y-92335322D01*
X127739650Y-92209423D01*
X127739642Y-92209419D01*
X127540708Y-92116655D01*
X127540706Y-92116654D01*
X127540703Y-92116653D01*
X127389885Y-92076240D01*
X127328675Y-92059839D01*
X127328668Y-92059838D01*
X127110002Y-92040708D01*
X127109998Y-92040708D01*
X126891331Y-92059838D01*
X126891324Y-92059839D01*
X126768902Y-92092642D01*
X126679297Y-92116653D01*
X126679295Y-92116653D01*
X126679291Y-92116655D01*
X126480357Y-92209419D01*
X126480349Y-92209423D01*
X126300547Y-92335322D01*
X126300541Y-92335327D01*
X126145327Y-92490541D01*
X126145322Y-92490547D01*
X126019423Y-92670349D01*
X126019419Y-92670357D01*
X125926655Y-92869291D01*
X125926653Y-92869295D01*
X125926653Y-92869297D01*
X125918453Y-92899901D01*
X125869839Y-93081324D01*
X125869838Y-93081331D01*
X125850708Y-93299997D01*
X124000500Y-93299997D01*
X124000500Y-87102135D01*
X134149500Y-87102135D01*
X134149500Y-88897870D01*
X134149501Y-88897876D01*
X134155908Y-88957483D01*
X134206202Y-89092328D01*
X134206206Y-89092335D01*
X134292452Y-89207544D01*
X134292455Y-89207547D01*
X134407664Y-89293793D01*
X134407671Y-89293797D01*
X134542517Y-89344091D01*
X134542516Y-89344091D01*
X134549444Y-89344835D01*
X134602127Y-89350500D01*
X136397872Y-89350499D01*
X136457483Y-89344091D01*
X136592331Y-89293796D01*
X136707546Y-89207546D01*
X136793796Y-89092331D01*
X136842810Y-88960916D01*
X136884681Y-88904984D01*
X136950145Y-88880566D01*
X137018418Y-88895417D01*
X137046673Y-88916569D01*
X137168599Y-89038495D01*
X137265384Y-89106265D01*
X137362165Y-89174032D01*
X137362167Y-89174033D01*
X137362170Y-89174035D01*
X137576337Y-89273903D01*
X137804592Y-89335063D01*
X137981034Y-89350500D01*
X138039999Y-89355659D01*
X138040000Y-89355659D01*
X138040001Y-89355659D01*
X138098966Y-89350500D01*
X138275408Y-89335063D01*
X138503663Y-89273903D01*
X138717830Y-89174035D01*
X138911401Y-89038495D01*
X139078495Y-88871401D01*
X139214035Y-88677830D01*
X139313903Y-88463663D01*
X139375063Y-88235408D01*
X139395659Y-88000000D01*
X139375063Y-87764592D01*
X139323089Y-87570619D01*
X139313905Y-87536344D01*
X139313904Y-87536343D01*
X139313903Y-87536337D01*
X139214035Y-87322171D01*
X139207089Y-87312250D01*
X139078494Y-87128597D01*
X138911402Y-86961506D01*
X138911395Y-86961501D01*
X138717834Y-86825967D01*
X138717830Y-86825965D01*
X138660891Y-86799414D01*
X138503663Y-86726097D01*
X138503659Y-86726096D01*
X138503655Y-86726094D01*
X138275413Y-86664938D01*
X138275403Y-86664936D01*
X138040001Y-86644341D01*
X138039999Y-86644341D01*
X137804596Y-86664936D01*
X137804586Y-86664938D01*
X137576344Y-86726094D01*
X137576335Y-86726098D01*
X137362171Y-86825964D01*
X137362169Y-86825965D01*
X137168600Y-86961503D01*
X137046673Y-87083430D01*
X136985350Y-87116914D01*
X136915658Y-87111930D01*
X136859725Y-87070058D01*
X136842810Y-87039081D01*
X136793797Y-86907671D01*
X136793793Y-86907664D01*
X136707547Y-86792455D01*
X136707544Y-86792452D01*
X136592335Y-86706206D01*
X136592328Y-86706202D01*
X136457482Y-86655908D01*
X136457483Y-86655908D01*
X136397883Y-86649501D01*
X136397881Y-86649500D01*
X136397873Y-86649500D01*
X136397864Y-86649500D01*
X134602129Y-86649500D01*
X134602123Y-86649501D01*
X134542516Y-86655908D01*
X134407671Y-86706202D01*
X134407664Y-86706206D01*
X134292455Y-86792452D01*
X134292452Y-86792455D01*
X134206206Y-86907664D01*
X134206202Y-86907671D01*
X134155908Y-87042517D01*
X134149501Y-87102116D01*
X134149500Y-87102135D01*
X124000500Y-87102135D01*
X124000500Y-78053859D01*
X124020185Y-77986820D01*
X124072989Y-77941065D01*
X124142147Y-77931121D01*
X124205703Y-77960146D01*
X124234983Y-77997562D01*
X124263668Y-78053859D01*
X124272715Y-78071614D01*
X124393028Y-78237213D01*
X124537786Y-78381971D01*
X124656861Y-78468482D01*
X124703390Y-78502287D01*
X124816187Y-78559760D01*
X124885776Y-78595218D01*
X124885778Y-78595218D01*
X124885781Y-78595220D01*
X124977241Y-78624937D01*
X125080465Y-78658477D01*
X125181557Y-78674488D01*
X125282648Y-78690500D01*
X125282649Y-78690500D01*
X125887351Y-78690500D01*
X125887352Y-78690500D01*
X126089534Y-78658477D01*
X126284219Y-78595220D01*
X126466610Y-78502287D01*
X126596854Y-78407660D01*
X126632213Y-78381971D01*
X126632215Y-78381968D01*
X126632219Y-78381966D01*
X126776966Y-78237219D01*
X126776968Y-78237215D01*
X126776971Y-78237213D01*
X126839970Y-78150501D01*
X126897287Y-78071610D01*
X126990220Y-77889219D01*
X127053477Y-77694534D01*
X127085500Y-77492352D01*
X127085500Y-77287648D01*
X127053477Y-77085466D01*
X127051866Y-77080509D01*
X127009168Y-76949096D01*
X126990220Y-76890781D01*
X126990218Y-76890778D01*
X126990218Y-76890776D01*
X126940325Y-76792857D01*
X126897287Y-76708390D01*
X126867046Y-76666766D01*
X126776971Y-76542786D01*
X126632213Y-76398028D01*
X126466611Y-76277713D01*
X126373369Y-76230203D01*
X126322574Y-76182229D01*
X126305779Y-76114407D01*
X126328317Y-76048273D01*
X126373371Y-76009234D01*
X126466347Y-75961861D01*
X126631894Y-75841582D01*
X126631895Y-75841582D01*
X126776582Y-75696895D01*
X126776582Y-75696894D01*
X126896859Y-75531349D01*
X126989755Y-75349029D01*
X127052990Y-75154413D01*
X127061609Y-75100000D01*
X125960278Y-75100000D01*
X126004333Y-75023694D01*
X126035000Y-74909244D01*
X126035000Y-74790756D01*
X126004333Y-74676306D01*
X125960278Y-74600000D01*
X127061609Y-74600000D01*
X127052990Y-74545586D01*
X126989755Y-74350970D01*
X126896859Y-74168650D01*
X126776582Y-74003105D01*
X126776582Y-74003104D01*
X126631895Y-73858417D01*
X126466349Y-73738140D01*
X126373370Y-73690765D01*
X126322574Y-73642790D01*
X126305779Y-73574969D01*
X126328316Y-73508835D01*
X126373370Y-73469795D01*
X126373920Y-73469515D01*
X126466610Y-73422287D01*
X126551103Y-73360900D01*
X126632213Y-73301971D01*
X126632215Y-73301968D01*
X126632219Y-73301966D01*
X126776966Y-73157219D01*
X126776968Y-73157215D01*
X126776971Y-73157213D01*
X126846482Y-73061538D01*
X126897287Y-72991610D01*
X126990220Y-72809219D01*
X127053477Y-72614534D01*
X127085500Y-72412352D01*
X127085500Y-72207648D01*
X127064702Y-72076335D01*
X127053477Y-72005465D01*
X127009521Y-71870184D01*
X126990220Y-71810781D01*
X126990218Y-71810778D01*
X126990218Y-71810776D01*
X126953973Y-71739642D01*
X126897287Y-71628390D01*
X126866166Y-71585555D01*
X126776971Y-71462786D01*
X126632213Y-71318028D01*
X126466614Y-71197715D01*
X126451470Y-71189999D01*
X126373917Y-71150483D01*
X126323123Y-71102511D01*
X126306328Y-71034690D01*
X126328865Y-70968555D01*
X126373917Y-70929516D01*
X126466610Y-70882287D01*
X126507203Y-70852795D01*
X126632213Y-70761971D01*
X126632215Y-70761968D01*
X126632219Y-70761966D01*
X126776966Y-70617219D01*
X126776968Y-70617215D01*
X126776971Y-70617213D01*
X126853327Y-70512116D01*
X126897287Y-70451610D01*
X126990220Y-70269219D01*
X127053477Y-70074534D01*
X127069939Y-69970596D01*
X127099868Y-69907463D01*
X127159179Y-69870531D01*
X127229042Y-69871529D01*
G37*
%TD.AperFunction*%
%TA.AperFunction,Conductor*%
G36*
X198005394Y-51000972D02*
G01*
X198035721Y-51003625D01*
X198162755Y-51014739D01*
X198184035Y-51018491D01*
X198301188Y-51049882D01*
X198331369Y-51057969D01*
X198351681Y-51065362D01*
X198489915Y-51129822D01*
X198508633Y-51140629D01*
X198633582Y-51228119D01*
X198650140Y-51242013D01*
X198757986Y-51349859D01*
X198771880Y-51366417D01*
X198859370Y-51491366D01*
X198870177Y-51510084D01*
X198934637Y-51648318D01*
X198942030Y-51668630D01*
X198981507Y-51815961D01*
X198985260Y-51837246D01*
X198999028Y-51994605D01*
X198999500Y-52005413D01*
X198999500Y-124568060D01*
X198979815Y-124635099D01*
X198927011Y-124680854D01*
X198857853Y-124690798D01*
X198794297Y-124661773D01*
X198787819Y-124655741D01*
X198752262Y-124620184D01*
X198599523Y-124524211D01*
X198429254Y-124464631D01*
X198429249Y-124464630D01*
X198250004Y-124444435D01*
X198249996Y-124444435D01*
X198070750Y-124464630D01*
X198070745Y-124464631D01*
X197900476Y-124524211D01*
X197875359Y-124539994D01*
X197809387Y-124559000D01*
X195711828Y-124559000D01*
X195644789Y-124539315D01*
X195599034Y-124486511D01*
X195589090Y-124417353D01*
X195618115Y-124353797D01*
X195659421Y-124322618D01*
X195677830Y-124314035D01*
X195871401Y-124178495D01*
X196038495Y-124011401D01*
X196174035Y-123817830D01*
X196273903Y-123603663D01*
X196335063Y-123375408D01*
X196355659Y-123140000D01*
X196335063Y-122904592D01*
X196273903Y-122676337D01*
X196174035Y-122462171D01*
X196129733Y-122398900D01*
X196038494Y-122268597D01*
X195871402Y-122101506D01*
X195871396Y-122101501D01*
X195685842Y-121971575D01*
X195642217Y-121916998D01*
X195635023Y-121847500D01*
X195666546Y-121785145D01*
X195685842Y-121768425D01*
X195712151Y-121750003D01*
X195871401Y-121638495D01*
X196038495Y-121471401D01*
X196174035Y-121277830D01*
X196273903Y-121063663D01*
X196335063Y-120835408D01*
X196355659Y-120600000D01*
X196335063Y-120364592D01*
X196273903Y-120136337D01*
X196174035Y-119922171D01*
X196158846Y-119900478D01*
X196038494Y-119728597D01*
X195871402Y-119561506D01*
X195871396Y-119561501D01*
X195685842Y-119431575D01*
X195642217Y-119376998D01*
X195635023Y-119307500D01*
X195666546Y-119245145D01*
X195685842Y-119228425D01*
X195751978Y-119182116D01*
X195871401Y-119098495D01*
X196038495Y-118931401D01*
X196174035Y-118737830D01*
X196273903Y-118523663D01*
X196335063Y-118295408D01*
X196355659Y-118060000D01*
X196335063Y-117824592D01*
X196273903Y-117596337D01*
X196174035Y-117382171D01*
X196102080Y-117279407D01*
X196038494Y-117188597D01*
X195871402Y-117021506D01*
X195871396Y-117021501D01*
X195685842Y-116891575D01*
X195642217Y-116836998D01*
X195635023Y-116767500D01*
X195666546Y-116705145D01*
X195685842Y-116688425D01*
X195714159Y-116668597D01*
X195871401Y-116558495D01*
X196038495Y-116391401D01*
X196174035Y-116197830D01*
X196273903Y-115983663D01*
X196335063Y-115755408D01*
X196355659Y-115520000D01*
X196335063Y-115284592D01*
X196273903Y-115056337D01*
X196174035Y-114842171D01*
X196102080Y-114739407D01*
X196038494Y-114648597D01*
X195871402Y-114481506D01*
X195871396Y-114481501D01*
X195685842Y-114351575D01*
X195642217Y-114296998D01*
X195635023Y-114227500D01*
X195666546Y-114165145D01*
X195685842Y-114148425D01*
X195714159Y-114128597D01*
X195871401Y-114018495D01*
X196038495Y-113851401D01*
X196174035Y-113657830D01*
X196273903Y-113443663D01*
X196335063Y-113215408D01*
X196355659Y-112980000D01*
X196335063Y-112744592D01*
X196273903Y-112516337D01*
X196174035Y-112302171D01*
X196150976Y-112269238D01*
X196038494Y-112108597D01*
X195871402Y-111941506D01*
X195871396Y-111941501D01*
X195685842Y-111811575D01*
X195642217Y-111756998D01*
X195635023Y-111687500D01*
X195666546Y-111625145D01*
X195685842Y-111608425D01*
X195840684Y-111500003D01*
X195871401Y-111478495D01*
X196038495Y-111311401D01*
X196174035Y-111117830D01*
X196273903Y-110903663D01*
X196335063Y-110675408D01*
X196355659Y-110440000D01*
X196355126Y-110433913D01*
X196336295Y-110218674D01*
X196335063Y-110204592D01*
X196273903Y-109976337D01*
X196174035Y-109762171D01*
X196174034Y-109762169D01*
X196108247Y-109668215D01*
X196085920Y-109602009D01*
X196102930Y-109534242D01*
X196122137Y-109509415D01*
X197536735Y-108094818D01*
X197612356Y-107981643D01*
X197615039Y-107975167D01*
X197624158Y-107953149D01*
X197664445Y-107855889D01*
X197680637Y-107774486D01*
X197691000Y-107722391D01*
X197691000Y-95640612D01*
X197710007Y-95574639D01*
X197725788Y-95549524D01*
X197725789Y-95549522D01*
X197785368Y-95379255D01*
X197797096Y-95275165D01*
X197805565Y-95200003D01*
X197805565Y-95199996D01*
X197785369Y-95020750D01*
X197785368Y-95020745D01*
X197725789Y-94850478D01*
X197725188Y-94849522D01*
X197686582Y-94788080D01*
X197629816Y-94697738D01*
X197502262Y-94570184D01*
X197494500Y-94565307D01*
X197349523Y-94474211D01*
X197179254Y-94414631D01*
X197179250Y-94414630D01*
X197041616Y-94399123D01*
X196977202Y-94372056D01*
X196937647Y-94314461D01*
X196931500Y-94275903D01*
X196931500Y-93832439D01*
X196904946Y-93698948D01*
X196904945Y-93698947D01*
X196904945Y-93698943D01*
X196904761Y-93698498D01*
X196852858Y-93573193D01*
X196852857Y-93573191D01*
X196852781Y-93573078D01*
X196828498Y-93536735D01*
X196828498Y-93536734D01*
X196828496Y-93536733D01*
X196777235Y-93460014D01*
X196777232Y-93460010D01*
X196359812Y-93042591D01*
X196326327Y-92981268D01*
X196327718Y-92922815D01*
X196335063Y-92895408D01*
X196355659Y-92660000D01*
X196335063Y-92424592D01*
X196287675Y-92247737D01*
X196273905Y-92196344D01*
X196273904Y-92196343D01*
X196273903Y-92196337D01*
X196174035Y-91982171D01*
X196169567Y-91975789D01*
X196038494Y-91788597D01*
X195871402Y-91621506D01*
X195871396Y-91621501D01*
X195685842Y-91491575D01*
X195642217Y-91436998D01*
X195635023Y-91367500D01*
X195666546Y-91305145D01*
X195685842Y-91288425D01*
X195708026Y-91272891D01*
X195871401Y-91158495D01*
X196038495Y-90991401D01*
X196174035Y-90797830D01*
X196273903Y-90583663D01*
X196335063Y-90355408D01*
X196355659Y-90120000D01*
X196335063Y-89884592D01*
X196273903Y-89656337D01*
X196174035Y-89442171D01*
X196164992Y-89429255D01*
X196038494Y-89248597D01*
X195871402Y-89081506D01*
X195871396Y-89081501D01*
X195685842Y-88951575D01*
X195642217Y-88896998D01*
X195635023Y-88827500D01*
X195666546Y-88765145D01*
X195685842Y-88748425D01*
X195786662Y-88677830D01*
X195871401Y-88618495D01*
X196038495Y-88451401D01*
X196174035Y-88257830D01*
X196273903Y-88043663D01*
X196335063Y-87815408D01*
X196355659Y-87580000D01*
X196335063Y-87344592D01*
X196273903Y-87116337D01*
X196174035Y-86902171D01*
X196120676Y-86825965D01*
X196038494Y-86708597D01*
X195871402Y-86541506D01*
X195871396Y-86541501D01*
X195685842Y-86411575D01*
X195642217Y-86356998D01*
X195635023Y-86287500D01*
X195666546Y-86225145D01*
X195685842Y-86208425D01*
X195805723Y-86124483D01*
X195871401Y-86078495D01*
X196038495Y-85911401D01*
X196174035Y-85717830D01*
X196273903Y-85503663D01*
X196335063Y-85275408D01*
X196355659Y-85040000D01*
X196335063Y-84804592D01*
X196273903Y-84576337D01*
X196174035Y-84362171D01*
X196155140Y-84335185D01*
X196038494Y-84168597D01*
X195871402Y-84001506D01*
X195871396Y-84001501D01*
X195685842Y-83871575D01*
X195642217Y-83816998D01*
X195635023Y-83747500D01*
X195666546Y-83685145D01*
X195685842Y-83668425D01*
X195708026Y-83652891D01*
X195871401Y-83538495D01*
X196038495Y-83371401D01*
X196174035Y-83177830D01*
X196273903Y-82963663D01*
X196335063Y-82735408D01*
X196355659Y-82500000D01*
X196335063Y-82264592D01*
X196286312Y-82082647D01*
X196273905Y-82036344D01*
X196273904Y-82036343D01*
X196273903Y-82036337D01*
X196174035Y-81822171D01*
X196130525Y-81760031D01*
X196038494Y-81628597D01*
X195871402Y-81461506D01*
X195871396Y-81461501D01*
X195685842Y-81331575D01*
X195642217Y-81276998D01*
X195635023Y-81207500D01*
X195666546Y-81145145D01*
X195685842Y-81128425D01*
X195708026Y-81112891D01*
X195871401Y-80998495D01*
X196038495Y-80831401D01*
X196174035Y-80637830D01*
X196273903Y-80423663D01*
X196335063Y-80195408D01*
X196355659Y-79960000D01*
X196335063Y-79724592D01*
X196273903Y-79496337D01*
X196174035Y-79282171D01*
X196102079Y-79179407D01*
X196038496Y-79088600D01*
X195984163Y-79034267D01*
X195916179Y-78966283D01*
X195882696Y-78904963D01*
X195887680Y-78835271D01*
X195929551Y-78779337D01*
X195960529Y-78762422D01*
X196092086Y-78713354D01*
X196092093Y-78713350D01*
X196207187Y-78627190D01*
X196207190Y-78627187D01*
X196293350Y-78512093D01*
X196293354Y-78512086D01*
X196343596Y-78377379D01*
X196343598Y-78377372D01*
X196349999Y-78317844D01*
X196350000Y-78317827D01*
X196350000Y-77670000D01*
X195433012Y-77670000D01*
X195465925Y-77612993D01*
X195500000Y-77485826D01*
X195500000Y-77354174D01*
X195465925Y-77227007D01*
X195433012Y-77170000D01*
X196350000Y-77170000D01*
X196350000Y-76522172D01*
X196349999Y-76522155D01*
X196343598Y-76462627D01*
X196343596Y-76462620D01*
X196293354Y-76327913D01*
X196293350Y-76327906D01*
X196207190Y-76212812D01*
X196207187Y-76212809D01*
X196092093Y-76126649D01*
X196092086Y-76126645D01*
X195957379Y-76076403D01*
X195957372Y-76076401D01*
X195897844Y-76070000D01*
X195250000Y-76070000D01*
X195250000Y-76986988D01*
X195192993Y-76954075D01*
X195065826Y-76920000D01*
X194934174Y-76920000D01*
X194807007Y-76954075D01*
X194750000Y-76986988D01*
X194750000Y-76070000D01*
X194102155Y-76070000D01*
X194042627Y-76076401D01*
X194042620Y-76076403D01*
X193907913Y-76126645D01*
X193907906Y-76126649D01*
X193792812Y-76212809D01*
X193792809Y-76212812D01*
X193706649Y-76327906D01*
X193706645Y-76327913D01*
X193656403Y-76462620D01*
X193656401Y-76462627D01*
X193650000Y-76522155D01*
X193650000Y-77170000D01*
X194566988Y-77170000D01*
X194534075Y-77227007D01*
X194500000Y-77354174D01*
X194500000Y-77485826D01*
X194534075Y-77612993D01*
X194566988Y-77670000D01*
X193650000Y-77670000D01*
X193650000Y-78317844D01*
X193656401Y-78377372D01*
X193656403Y-78377379D01*
X193706645Y-78512086D01*
X193706649Y-78512093D01*
X193792809Y-78627187D01*
X193792812Y-78627190D01*
X193907906Y-78713350D01*
X193907913Y-78713354D01*
X194039470Y-78762421D01*
X194095403Y-78804292D01*
X194119821Y-78869756D01*
X194104970Y-78938029D01*
X194083819Y-78966284D01*
X193961503Y-79088600D01*
X193825965Y-79282169D01*
X193825964Y-79282171D01*
X193726098Y-79496335D01*
X193726094Y-79496344D01*
X193664938Y-79724586D01*
X193664936Y-79724596D01*
X193650854Y-79885550D01*
X193625401Y-79950619D01*
X193568810Y-79991597D01*
X193499048Y-79995475D01*
X193439645Y-79962423D01*
X185190492Y-71713269D01*
X185190485Y-71713263D01*
X185077312Y-71637644D01*
X185077309Y-71637642D01*
X184951561Y-71585556D01*
X184951551Y-71585553D01*
X184818060Y-71559000D01*
X184818058Y-71559000D01*
X176837584Y-71559000D01*
X176770545Y-71539315D01*
X176749903Y-71522681D01*
X173440492Y-68213269D01*
X173440485Y-68213263D01*
X173327312Y-68137644D01*
X173327309Y-68137642D01*
X173201561Y-68085556D01*
X173201557Y-68085555D01*
X173199355Y-68085117D01*
X173160112Y-68077311D01*
X173160111Y-68077310D01*
X173160110Y-68077310D01*
X173068060Y-68059000D01*
X173068058Y-68059000D01*
X164587583Y-68059000D01*
X164520544Y-68039315D01*
X164499902Y-68022681D01*
X164089856Y-67612635D01*
X164056371Y-67551312D01*
X164054318Y-67511063D01*
X164055143Y-67503749D01*
X164055565Y-67500000D01*
X164052020Y-67468534D01*
X164035369Y-67320750D01*
X164035368Y-67320745D01*
X164016564Y-67267007D01*
X163975789Y-67150478D01*
X163879816Y-66997738D01*
X163752262Y-66870184D01*
X163599523Y-66774211D01*
X163429254Y-66714631D01*
X163429249Y-66714630D01*
X163250004Y-66694435D01*
X163249996Y-66694435D01*
X163070750Y-66714630D01*
X163070745Y-66714631D01*
X162900476Y-66774211D01*
X162747737Y-66870184D01*
X162620184Y-66997737D01*
X162524211Y-67150476D01*
X162464631Y-67320745D01*
X162464630Y-67320750D01*
X162444012Y-67503749D01*
X162416946Y-67568163D01*
X162359351Y-67607719D01*
X162289514Y-67609856D01*
X162233111Y-67577547D01*
X159118834Y-64463269D01*
X159118827Y-64463263D01*
X159005654Y-64387644D01*
X159005651Y-64387642D01*
X158879903Y-64335556D01*
X158879893Y-64335553D01*
X158746402Y-64309000D01*
X158746400Y-64309000D01*
X150681942Y-64309000D01*
X150681940Y-64309000D01*
X150548448Y-64335553D01*
X150548438Y-64335556D01*
X150422690Y-64387642D01*
X150422687Y-64387644D01*
X150309514Y-64463263D01*
X150150347Y-64622430D01*
X150089024Y-64655914D01*
X150019332Y-64650930D01*
X149963399Y-64609058D01*
X149940194Y-64554148D01*
X149913477Y-64385466D01*
X149850220Y-64190781D01*
X149850218Y-64190778D01*
X149850218Y-64190776D01*
X149795015Y-64082435D01*
X149757287Y-64008390D01*
X149721865Y-63959635D01*
X186807000Y-63959635D01*
X186807000Y-69440370D01*
X186807001Y-69440376D01*
X186813408Y-69499983D01*
X186863702Y-69634828D01*
X186863706Y-69634835D01*
X186949952Y-69750044D01*
X186949955Y-69750047D01*
X187065164Y-69836293D01*
X187065171Y-69836297D01*
X187200017Y-69886591D01*
X187200016Y-69886591D01*
X187206944Y-69887335D01*
X187259627Y-69893000D01*
X190592154Y-69892999D01*
X190659192Y-69912684D01*
X190704947Y-69965488D01*
X190715771Y-70026727D01*
X190713181Y-70059629D01*
X191549020Y-70895468D01*
X191430306Y-70981719D01*
X191281719Y-71130306D01*
X191195468Y-71249020D01*
X190362510Y-70416062D01*
X190271432Y-70526158D01*
X190271430Y-70526161D01*
X190102708Y-70792025D01*
X190102705Y-70792031D01*
X189968636Y-71076940D01*
X189968634Y-71076945D01*
X189871329Y-71376418D01*
X189812323Y-71685736D01*
X189812322Y-71685743D01*
X189792552Y-71999994D01*
X189792552Y-72000005D01*
X189812322Y-72314256D01*
X189812323Y-72314263D01*
X189871329Y-72623581D01*
X189968634Y-72923054D01*
X189968636Y-72923059D01*
X190102705Y-73207968D01*
X190102708Y-73207974D01*
X190271428Y-73473836D01*
X190362510Y-73583935D01*
X191195467Y-72750978D01*
X191281719Y-72869694D01*
X191430306Y-73018281D01*
X191549020Y-73104531D01*
X190713181Y-73940369D01*
X190713182Y-73940371D01*
X190956430Y-74117100D01*
X190956448Y-74117112D01*
X191232381Y-74268807D01*
X191232389Y-74268811D01*
X191525152Y-74384724D01*
X191525155Y-74384725D01*
X191830147Y-74463033D01*
X191830160Y-74463035D01*
X192142544Y-74502499D01*
X192142558Y-74502500D01*
X192457442Y-74502500D01*
X192457455Y-74502499D01*
X192769839Y-74463035D01*
X192769852Y-74463033D01*
X193074844Y-74384725D01*
X193074847Y-74384724D01*
X193367610Y-74268811D01*
X193367618Y-74268807D01*
X193643551Y-74117112D01*
X193643561Y-74117105D01*
X193886816Y-73940369D01*
X193886817Y-73940369D01*
X193050979Y-73104531D01*
X193169694Y-73018281D01*
X193318281Y-72869694D01*
X193404531Y-72750979D01*
X194237488Y-73583936D01*
X194328574Y-73473831D01*
X194497291Y-73207974D01*
X194497294Y-73207968D01*
X194631363Y-72923059D01*
X194631365Y-72923054D01*
X194728670Y-72623581D01*
X194787676Y-72314263D01*
X194787677Y-72314256D01*
X194807515Y-71998935D01*
X194831370Y-71933264D01*
X194886942Y-71890915D01*
X194956589Y-71885333D01*
X194982156Y-71893644D01*
X195050132Y-71924237D01*
X195076160Y-71935952D01*
X195076162Y-71935953D01*
X195076165Y-71935954D01*
X195076168Y-71935955D01*
X195076182Y-71935960D01*
X195281699Y-72000001D01*
X195376522Y-72029549D01*
X195685971Y-72086258D01*
X196000000Y-72105253D01*
X196314029Y-72086258D01*
X196623478Y-72029549D01*
X196923835Y-71935954D01*
X197210721Y-71806837D01*
X197479952Y-71644081D01*
X197488169Y-71637644D01*
X197634908Y-71522681D01*
X197727602Y-71450060D01*
X197950060Y-71227602D01*
X198095843Y-71041523D01*
X198144075Y-70979960D01*
X198144075Y-70979958D01*
X198144081Y-70979952D01*
X198306837Y-70710721D01*
X198435954Y-70423835D01*
X198529549Y-70123478D01*
X198586258Y-69814029D01*
X198605253Y-69500000D01*
X198586258Y-69185971D01*
X198529549Y-68876522D01*
X198464318Y-68667187D01*
X198435960Y-68576183D01*
X198435956Y-68576172D01*
X198435954Y-68576165D01*
X198306837Y-68289279D01*
X198144081Y-68020048D01*
X198144078Y-68020044D01*
X198144075Y-68020039D01*
X197950057Y-67772394D01*
X197727605Y-67549942D01*
X197479960Y-67355924D01*
X197440967Y-67332352D01*
X197210721Y-67193163D01*
X196923835Y-67064046D01*
X196923830Y-67064044D01*
X196923827Y-67064043D01*
X196923816Y-67064039D01*
X196623486Y-66970453D01*
X196623482Y-66970452D01*
X196623478Y-66970451D01*
X196314029Y-66913742D01*
X196314028Y-66913741D01*
X196314023Y-66913741D01*
X196000000Y-66894747D01*
X195685976Y-66913741D01*
X195685971Y-66913742D01*
X195376522Y-66970451D01*
X195376519Y-66970451D01*
X195376513Y-66970453D01*
X195076183Y-67064039D01*
X195076172Y-67064043D01*
X194789283Y-67193161D01*
X194789281Y-67193162D01*
X194520039Y-67355924D01*
X194272394Y-67549942D01*
X194049942Y-67772394D01*
X193855924Y-68020039D01*
X193693162Y-68289281D01*
X193693161Y-68289283D01*
X193564043Y-68576172D01*
X193564039Y-68576183D01*
X193470453Y-68876513D01*
X193438968Y-69048316D01*
X193407521Y-69110709D01*
X193347334Y-69146196D01*
X193277516Y-69143510D01*
X193220234Y-69103504D01*
X193193673Y-69038880D01*
X193192999Y-69025981D01*
X193192999Y-63959628D01*
X193186591Y-63900017D01*
X193165245Y-63842786D01*
X193136297Y-63765171D01*
X193136293Y-63765164D01*
X193050047Y-63649955D01*
X193050044Y-63649952D01*
X192934835Y-63563706D01*
X192934828Y-63563702D01*
X192799982Y-63513408D01*
X192799983Y-63513408D01*
X192740383Y-63507001D01*
X192740381Y-63507000D01*
X192740373Y-63507000D01*
X192740364Y-63507000D01*
X187259629Y-63507000D01*
X187259623Y-63507001D01*
X187200016Y-63513408D01*
X187065171Y-63563702D01*
X187065164Y-63563706D01*
X186949955Y-63649952D01*
X186949952Y-63649955D01*
X186863706Y-63765164D01*
X186863702Y-63765171D01*
X186813408Y-63900017D01*
X186807001Y-63959616D01*
X186807001Y-63959623D01*
X186807000Y-63959635D01*
X149721865Y-63959635D01*
X149636971Y-63842786D01*
X149492213Y-63698028D01*
X149326614Y-63577715D01*
X149299112Y-63563702D01*
X149233917Y-63530483D01*
X149183123Y-63482511D01*
X149166328Y-63414690D01*
X149188865Y-63348555D01*
X149233917Y-63309516D01*
X149326610Y-63262287D01*
X149347770Y-63246913D01*
X149492213Y-63141971D01*
X149492215Y-63141968D01*
X149492219Y-63141966D01*
X149636966Y-62997219D01*
X149636968Y-62997215D01*
X149636971Y-62997213D01*
X149689732Y-62924590D01*
X149757287Y-62831610D01*
X149850220Y-62649219D01*
X149913477Y-62454534D01*
X149945500Y-62252352D01*
X149945500Y-62047648D01*
X149913477Y-61845466D01*
X149850220Y-61650781D01*
X149850218Y-61650778D01*
X149850218Y-61650776D01*
X149795015Y-61542435D01*
X149757287Y-61468390D01*
X149749556Y-61457749D01*
X149636971Y-61302786D01*
X149605736Y-61271551D01*
X149572251Y-61210228D01*
X149577235Y-61140536D01*
X149619107Y-61084603D01*
X149650080Y-61067689D01*
X149687331Y-61053796D01*
X149802546Y-60967546D01*
X149888796Y-60852331D01*
X149939091Y-60717483D01*
X149945500Y-60657873D01*
X149945499Y-58605861D01*
X149965184Y-58538823D01*
X149981819Y-58518180D01*
X149999999Y-58500000D01*
X150000000Y-58500000D01*
X150000000Y-57102135D01*
X190109500Y-57102135D01*
X190109500Y-58897870D01*
X190109501Y-58897876D01*
X190115908Y-58957483D01*
X190166202Y-59092328D01*
X190166206Y-59092335D01*
X190252452Y-59207544D01*
X190252455Y-59207547D01*
X190367664Y-59293793D01*
X190367671Y-59293797D01*
X190502517Y-59344091D01*
X190502516Y-59344091D01*
X190509444Y-59344835D01*
X190562127Y-59350500D01*
X192357872Y-59350499D01*
X192417483Y-59344091D01*
X192552331Y-59293796D01*
X192667546Y-59207546D01*
X192753796Y-59092331D01*
X192802810Y-58960916D01*
X192844681Y-58904984D01*
X192910145Y-58880566D01*
X192978418Y-58895417D01*
X193006673Y-58916569D01*
X193128599Y-59038495D01*
X193225384Y-59106265D01*
X193322165Y-59174032D01*
X193322167Y-59174033D01*
X193322170Y-59174035D01*
X193536337Y-59273903D01*
X193764592Y-59335063D01*
X193941034Y-59350500D01*
X193999999Y-59355659D01*
X194000000Y-59355659D01*
X194000001Y-59355659D01*
X194058966Y-59350500D01*
X194235408Y-59335063D01*
X194463663Y-59273903D01*
X194677830Y-59174035D01*
X194871401Y-59038495D01*
X195038495Y-58871401D01*
X195174035Y-58677830D01*
X195273903Y-58463663D01*
X195335063Y-58235408D01*
X195355659Y-58000000D01*
X195335063Y-57764592D01*
X195273903Y-57536337D01*
X195174035Y-57322171D01*
X195038495Y-57128599D01*
X195038494Y-57128597D01*
X194871402Y-56961506D01*
X194871395Y-56961501D01*
X194677834Y-56825967D01*
X194677830Y-56825965D01*
X194677828Y-56825964D01*
X194463663Y-56726097D01*
X194463659Y-56726096D01*
X194463655Y-56726094D01*
X194235413Y-56664938D01*
X194235403Y-56664936D01*
X194000001Y-56644341D01*
X193999999Y-56644341D01*
X193764596Y-56664936D01*
X193764586Y-56664938D01*
X193536344Y-56726094D01*
X193536335Y-56726098D01*
X193322171Y-56825964D01*
X193322169Y-56825965D01*
X193128600Y-56961503D01*
X193006673Y-57083430D01*
X192945350Y-57116914D01*
X192875658Y-57111930D01*
X192819725Y-57070058D01*
X192802810Y-57039081D01*
X192753797Y-56907671D01*
X192753793Y-56907664D01*
X192667547Y-56792455D01*
X192667544Y-56792452D01*
X192552335Y-56706206D01*
X192552328Y-56706202D01*
X192417482Y-56655908D01*
X192417483Y-56655908D01*
X192357883Y-56649501D01*
X192357881Y-56649500D01*
X192357873Y-56649500D01*
X192357864Y-56649500D01*
X190562129Y-56649500D01*
X190562123Y-56649501D01*
X190502516Y-56655908D01*
X190367671Y-56706202D01*
X190367664Y-56706206D01*
X190252455Y-56792452D01*
X190252452Y-56792455D01*
X190166206Y-56907664D01*
X190166202Y-56907671D01*
X190115908Y-57042517D01*
X190109501Y-57102116D01*
X190109500Y-57102135D01*
X150000000Y-57102135D01*
X150000000Y-53449999D01*
X189114892Y-53449999D01*
X189114892Y-53450000D01*
X189133282Y-53648464D01*
X189187830Y-53840183D01*
X189276670Y-54018598D01*
X189276675Y-54018606D01*
X189396792Y-54177666D01*
X189495151Y-54267331D01*
X189544090Y-54311945D01*
X189713554Y-54416873D01*
X189899414Y-54488876D01*
X190095340Y-54525500D01*
X190095342Y-54525500D01*
X190294658Y-54525500D01*
X190294660Y-54525500D01*
X190490586Y-54488876D01*
X190676446Y-54416873D01*
X190845910Y-54311945D01*
X190993209Y-54177664D01*
X191113326Y-54018604D01*
X191202171Y-53840180D01*
X191256717Y-53648469D01*
X191275108Y-53450000D01*
X191256717Y-53251531D01*
X191202171Y-53059820D01*
X191200759Y-53056984D01*
X191113329Y-52881401D01*
X191113324Y-52881393D01*
X191072350Y-52827135D01*
X194199500Y-52827135D01*
X194199500Y-54072870D01*
X194199501Y-54072876D01*
X194205908Y-54132483D01*
X194256202Y-54267328D01*
X194256206Y-54267335D01*
X194342452Y-54382544D01*
X194342455Y-54382547D01*
X194457664Y-54468793D01*
X194457671Y-54468797D01*
X194592517Y-54519091D01*
X194592516Y-54519091D01*
X194599444Y-54519835D01*
X194652127Y-54525500D01*
X195897872Y-54525499D01*
X195957483Y-54519091D01*
X196092331Y-54468796D01*
X196207546Y-54382546D01*
X196293796Y-54267331D01*
X196344091Y-54132483D01*
X196350500Y-54072873D01*
X196350499Y-52827128D01*
X196344091Y-52767517D01*
X196327238Y-52722333D01*
X196293797Y-52632671D01*
X196293793Y-52632664D01*
X196207547Y-52517455D01*
X196207544Y-52517452D01*
X196092335Y-52431206D01*
X196092328Y-52431202D01*
X195957482Y-52380908D01*
X195957483Y-52380908D01*
X195897883Y-52374501D01*
X195897881Y-52374500D01*
X195897873Y-52374500D01*
X195897864Y-52374500D01*
X194652129Y-52374500D01*
X194652123Y-52374501D01*
X194592516Y-52380908D01*
X194457671Y-52431202D01*
X194457664Y-52431206D01*
X194342455Y-52517452D01*
X194342452Y-52517455D01*
X194256206Y-52632664D01*
X194256202Y-52632671D01*
X194205908Y-52767517D01*
X194199501Y-52827116D01*
X194199501Y-52827123D01*
X194199500Y-52827135D01*
X191072350Y-52827135D01*
X190993207Y-52722333D01*
X190845911Y-52588056D01*
X190845910Y-52588055D01*
X190781375Y-52548096D01*
X190676447Y-52483127D01*
X190676445Y-52483126D01*
X190594379Y-52451334D01*
X190490586Y-52411124D01*
X190490582Y-52411123D01*
X190411639Y-52396366D01*
X190294660Y-52374500D01*
X190095340Y-52374500D01*
X190005254Y-52391339D01*
X189899417Y-52411123D01*
X189899415Y-52411123D01*
X189899414Y-52411124D01*
X189847587Y-52431202D01*
X189713554Y-52483126D01*
X189713552Y-52483127D01*
X189544088Y-52588056D01*
X189396792Y-52722333D01*
X189276675Y-52881393D01*
X189276670Y-52881401D01*
X189187830Y-53059816D01*
X189133282Y-53251535D01*
X189114892Y-53449999D01*
X150000000Y-53449999D01*
X150000000Y-51124500D01*
X150019685Y-51057461D01*
X150072489Y-51011706D01*
X150124000Y-51000500D01*
X197907290Y-51000500D01*
X197994587Y-51000500D01*
X198005394Y-51000972D01*
G37*
%TD.AperFunction*%
%TA.AperFunction,Conductor*%
G36*
X183860878Y-107204630D02*
G01*
X183873184Y-107212853D01*
X183873195Y-107212859D01*
X183985295Y-107259292D01*
X183998943Y-107264945D01*
X183998947Y-107264945D01*
X183998948Y-107264946D01*
X184132439Y-107291500D01*
X184132442Y-107291500D01*
X184132443Y-107291500D01*
X184268557Y-107291500D01*
X193603306Y-107291500D01*
X193670345Y-107311185D01*
X193716100Y-107363989D01*
X193726044Y-107433147D01*
X193723081Y-107447593D01*
X193664938Y-107664586D01*
X193664936Y-107664596D01*
X193644341Y-107899999D01*
X193644341Y-107900000D01*
X193664936Y-108135403D01*
X193664938Y-108135413D01*
X193707272Y-108293407D01*
X193705609Y-108363257D01*
X193666446Y-108421119D01*
X193602218Y-108448623D01*
X193587497Y-108449500D01*
X185611438Y-108449500D01*
X185496938Y-108472276D01*
X185496937Y-108472276D01*
X185485498Y-108474551D01*
X185477940Y-108476055D01*
X185477939Y-108476055D01*
X185352194Y-108528140D01*
X185352181Y-108528147D01*
X185239013Y-108603764D01*
X185239009Y-108603767D01*
X183881432Y-109961343D01*
X183820109Y-109994828D01*
X183750417Y-109989844D01*
X183694484Y-109947972D01*
X183670223Y-109884470D01*
X183650540Y-109659500D01*
X183650538Y-109659490D01*
X183593254Y-109445699D01*
X183593250Y-109445690D01*
X183499706Y-109245084D01*
X183453894Y-109179657D01*
X182891128Y-109742424D01*
X182875245Y-109683147D01*
X182808102Y-109566853D01*
X182713147Y-109471898D01*
X182596853Y-109404755D01*
X182537574Y-109388871D01*
X183100341Y-108826104D01*
X183100341Y-108826103D01*
X183034920Y-108780295D01*
X183034916Y-108780293D01*
X182911316Y-108722657D01*
X182858877Y-108676484D01*
X182839725Y-108609291D01*
X182859941Y-108542410D01*
X182911312Y-108497895D01*
X183035167Y-108440142D01*
X183216555Y-108313132D01*
X183373132Y-108156555D01*
X183500142Y-107975167D01*
X183593723Y-107774480D01*
X183651035Y-107560591D01*
X183670334Y-107340000D01*
X183668456Y-107318537D01*
X183682222Y-107250039D01*
X183730836Y-107199855D01*
X183798865Y-107183921D01*
X183860878Y-107204630D01*
G37*
%TD.AperFunction*%
%TA.AperFunction,Conductor*%
G36*
X172007481Y-71203685D02*
G01*
X172028123Y-71220319D01*
X173272681Y-72464877D01*
X173306166Y-72526200D01*
X173309000Y-72552558D01*
X173309000Y-74068057D01*
X173314502Y-74095714D01*
X173314502Y-74095718D01*
X173335553Y-74201549D01*
X173335556Y-74201561D01*
X173387642Y-74327309D01*
X173387644Y-74327312D01*
X173463263Y-74440485D01*
X173463269Y-74440492D01*
X174713266Y-75690487D01*
X174783072Y-75760293D01*
X174809514Y-75786735D01*
X174922682Y-75862352D01*
X174922695Y-75862359D01*
X175048438Y-75914443D01*
X175048443Y-75914445D01*
X175048447Y-75914445D01*
X175048448Y-75914446D01*
X175181939Y-75941000D01*
X175181942Y-75941000D01*
X177818060Y-75941000D01*
X177907870Y-75923134D01*
X177951557Y-75914445D01*
X178077311Y-75862356D01*
X178091809Y-75852669D01*
X178190487Y-75786735D01*
X179222244Y-74754976D01*
X179283567Y-74721492D01*
X179309925Y-74718658D01*
X183725100Y-74718658D01*
X183792139Y-74738343D01*
X183812781Y-74754977D01*
X189949852Y-80892048D01*
X189983337Y-80953371D01*
X189986171Y-80979729D01*
X189986171Y-85729114D01*
X189986171Y-85865228D01*
X189986171Y-85865230D01*
X189986170Y-85865230D01*
X190012724Y-85998722D01*
X190012727Y-85998732D01*
X190064813Y-86124480D01*
X190064815Y-86124483D01*
X190140434Y-86237656D01*
X190140440Y-86237663D01*
X193640187Y-89737409D01*
X193673672Y-89798732D01*
X193672281Y-89857182D01*
X193664939Y-89884584D01*
X193664936Y-89884597D01*
X193644341Y-90119999D01*
X193644341Y-90120000D01*
X193664936Y-90355403D01*
X193664938Y-90355413D01*
X193726094Y-90583655D01*
X193726096Y-90583659D01*
X193726097Y-90583663D01*
X193805398Y-90753723D01*
X193825965Y-90797830D01*
X193825967Y-90797834D01*
X193961501Y-90991395D01*
X193961506Y-90991402D01*
X194128597Y-91158493D01*
X194128603Y-91158498D01*
X194314158Y-91288425D01*
X194357783Y-91343002D01*
X194364977Y-91412500D01*
X194333454Y-91474855D01*
X194314158Y-91491575D01*
X194128597Y-91621505D01*
X193961505Y-91788597D01*
X193825965Y-91982169D01*
X193825964Y-91982171D01*
X193767953Y-92106576D01*
X193721780Y-92159015D01*
X193654587Y-92178167D01*
X193587706Y-92157951D01*
X193552468Y-92123060D01*
X193536736Y-92099515D01*
X193536732Y-92099510D01*
X183687639Y-82250417D01*
X183654154Y-82189094D01*
X183651792Y-82151933D01*
X183670334Y-81940000D01*
X183651035Y-81719409D01*
X183593723Y-81505520D01*
X183500142Y-81304833D01*
X183373132Y-81123445D01*
X183216555Y-80966868D01*
X183035167Y-80839858D01*
X182911907Y-80782381D01*
X182859468Y-80736210D01*
X182840316Y-80669017D01*
X182860531Y-80602136D01*
X182911908Y-80557618D01*
X182949703Y-80539994D01*
X183035167Y-80500142D01*
X183216555Y-80373132D01*
X183373132Y-80216555D01*
X183500142Y-80035167D01*
X183593723Y-79834480D01*
X183651035Y-79620591D01*
X183670334Y-79400000D01*
X183651035Y-79179409D01*
X183593723Y-78965520D01*
X183500142Y-78764833D01*
X183373132Y-78583445D01*
X183216555Y-78426868D01*
X183216552Y-78426866D01*
X183216550Y-78426864D01*
X183152429Y-78381966D01*
X183108309Y-78351073D01*
X183064685Y-78296497D01*
X183057491Y-78226999D01*
X183089014Y-78164644D01*
X183149244Y-78129230D01*
X183179432Y-78125499D01*
X183212872Y-78125499D01*
X183272483Y-78119091D01*
X183407331Y-78068796D01*
X183522546Y-77982546D01*
X183608796Y-77867331D01*
X183659091Y-77732483D01*
X183665500Y-77672873D01*
X183665499Y-76047128D01*
X183659091Y-75987517D01*
X183649522Y-75961861D01*
X183608797Y-75852670D01*
X183608793Y-75852664D01*
X183522547Y-75737455D01*
X183522544Y-75737452D01*
X183407335Y-75651206D01*
X183407328Y-75651202D01*
X183272482Y-75600908D01*
X183272483Y-75600908D01*
X183212883Y-75594501D01*
X183212881Y-75594500D01*
X183212873Y-75594500D01*
X183212864Y-75594500D01*
X181587129Y-75594500D01*
X181587123Y-75594501D01*
X181527516Y-75600908D01*
X181392671Y-75651202D01*
X181392664Y-75651206D01*
X181277455Y-75737452D01*
X181277452Y-75737455D01*
X181191206Y-75852664D01*
X181191203Y-75852670D01*
X181140908Y-75987517D01*
X181134501Y-76047116D01*
X181134501Y-76047123D01*
X181134500Y-76047135D01*
X181134500Y-77672870D01*
X181134501Y-77672876D01*
X181140908Y-77732483D01*
X181191202Y-77867328D01*
X181191206Y-77867335D01*
X181277452Y-77982544D01*
X181277455Y-77982547D01*
X181392664Y-78068793D01*
X181392671Y-78068797D01*
X181527517Y-78119091D01*
X181527516Y-78119091D01*
X181534444Y-78119835D01*
X181587127Y-78125500D01*
X181620564Y-78125499D01*
X181687601Y-78145182D01*
X181733357Y-78197984D01*
X181743302Y-78267143D01*
X181714279Y-78330699D01*
X181691689Y-78351073D01*
X181583447Y-78426866D01*
X181583441Y-78426871D01*
X181426868Y-78583444D01*
X181299857Y-78764834D01*
X181299856Y-78764836D01*
X181206279Y-78965513D01*
X181206275Y-78965524D01*
X181148965Y-79179407D01*
X181148964Y-79179414D01*
X181129666Y-79399998D01*
X181129666Y-79400001D01*
X181148964Y-79620585D01*
X181148965Y-79620592D01*
X181206275Y-79834475D01*
X181206279Y-79834486D01*
X181260433Y-79950619D01*
X181299858Y-80035167D01*
X181426868Y-80216555D01*
X181583445Y-80373132D01*
X181764833Y-80500142D01*
X181816450Y-80524211D01*
X181888091Y-80557618D01*
X181940531Y-80603790D01*
X181959683Y-80670983D01*
X181939467Y-80737865D01*
X181888091Y-80782382D01*
X181764836Y-80839856D01*
X181764834Y-80839857D01*
X181583444Y-80966868D01*
X181426868Y-81123444D01*
X181299857Y-81304834D01*
X181299856Y-81304836D01*
X181206279Y-81505513D01*
X181206275Y-81505524D01*
X181148965Y-81719407D01*
X181148964Y-81719414D01*
X181129666Y-81939998D01*
X181129666Y-81940001D01*
X181148964Y-82160585D01*
X181148965Y-82160592D01*
X181206275Y-82374475D01*
X181206279Y-82374486D01*
X181289846Y-82553697D01*
X181299858Y-82575167D01*
X181426868Y-82756555D01*
X181583445Y-82913132D01*
X181764833Y-83040142D01*
X181826828Y-83069050D01*
X181888091Y-83097618D01*
X181940531Y-83143790D01*
X181959683Y-83210983D01*
X181939467Y-83277865D01*
X181888091Y-83322382D01*
X181764836Y-83379856D01*
X181764834Y-83379857D01*
X181583444Y-83506868D01*
X181426868Y-83663444D01*
X181299857Y-83844834D01*
X181299856Y-83844836D01*
X181206279Y-84045513D01*
X181206275Y-84045524D01*
X181148965Y-84259407D01*
X181148964Y-84259414D01*
X181129666Y-84479998D01*
X181129666Y-84480001D01*
X181148964Y-84700585D01*
X181148965Y-84700592D01*
X181206275Y-84914475D01*
X181206279Y-84914486D01*
X181273667Y-85059000D01*
X181299858Y-85115167D01*
X181426868Y-85296555D01*
X181583445Y-85453132D01*
X181764833Y-85580142D01*
X181826828Y-85609050D01*
X181888091Y-85637618D01*
X181940531Y-85683790D01*
X181959683Y-85750983D01*
X181939467Y-85817865D01*
X181888091Y-85862382D01*
X181764836Y-85919856D01*
X181764834Y-85919857D01*
X181583444Y-86046868D01*
X181426868Y-86203444D01*
X181411673Y-86225145D01*
X181375976Y-86276125D01*
X181321401Y-86319748D01*
X181274403Y-86329000D01*
X178607584Y-86329000D01*
X178540545Y-86309315D01*
X178519903Y-86292681D01*
X174940492Y-82713269D01*
X174940485Y-82713263D01*
X174827312Y-82637644D01*
X174827309Y-82637642D01*
X174701561Y-82585556D01*
X174701557Y-82585555D01*
X174694524Y-82584156D01*
X174568060Y-82559000D01*
X174568058Y-82559000D01*
X162666322Y-82559000D01*
X162599283Y-82539315D01*
X162553528Y-82486511D01*
X162543102Y-82448883D01*
X162535369Y-82380250D01*
X162535368Y-82380248D01*
X162535368Y-82380245D01*
X162475789Y-82209978D01*
X162460005Y-82184857D01*
X162441000Y-82118887D01*
X162441000Y-80931939D01*
X162414446Y-80798448D01*
X162414445Y-80798447D01*
X162414445Y-80798443D01*
X162362356Y-80672689D01*
X162338940Y-80637644D01*
X162286735Y-80559514D01*
X162286733Y-80559511D01*
X162286732Y-80559510D01*
X160590492Y-78863269D01*
X160590485Y-78863263D01*
X160477312Y-78787644D01*
X160477309Y-78787642D01*
X160351561Y-78735556D01*
X160351551Y-78735553D01*
X160218060Y-78709000D01*
X160218058Y-78709000D01*
X158125597Y-78709000D01*
X158058558Y-78689315D01*
X158024023Y-78656125D01*
X157973132Y-78583445D01*
X157816555Y-78426868D01*
X157635167Y-78299858D01*
X157632467Y-78298599D01*
X157511317Y-78242106D01*
X157458877Y-78195934D01*
X157439725Y-78128741D01*
X157459941Y-78061859D01*
X157511317Y-78017342D01*
X157634911Y-77959709D01*
X157634919Y-77959705D01*
X157700341Y-77913895D01*
X157137574Y-77351128D01*
X157196853Y-77335245D01*
X157313147Y-77268102D01*
X157408102Y-77173147D01*
X157475245Y-77056853D01*
X157491128Y-76997574D01*
X158053895Y-77560341D01*
X158099705Y-77494919D01*
X158099709Y-77494911D01*
X158193249Y-77294314D01*
X158193254Y-77294300D01*
X158250538Y-77080509D01*
X158250540Y-77080499D01*
X158269832Y-76860000D01*
X158269832Y-76859999D01*
X158250540Y-76639500D01*
X158250538Y-76639490D01*
X158193254Y-76425699D01*
X158193250Y-76425690D01*
X158099706Y-76225084D01*
X158053894Y-76159657D01*
X157491128Y-76722424D01*
X157475245Y-76663147D01*
X157408102Y-76546853D01*
X157313147Y-76451898D01*
X157196853Y-76384755D01*
X157137574Y-76368871D01*
X157700341Y-75806104D01*
X157700341Y-75806103D01*
X157634920Y-75760295D01*
X157634916Y-75760293D01*
X157434309Y-75666749D01*
X157434300Y-75666745D01*
X157346929Y-75643335D01*
X157287268Y-75606970D01*
X157256739Y-75544124D01*
X157265033Y-75474748D01*
X157291336Y-75435885D01*
X161499903Y-71227319D01*
X161561226Y-71193834D01*
X161587584Y-71191000D01*
X171311059Y-71191000D01*
X171322791Y-71188665D01*
X171334269Y-71186382D01*
X171358461Y-71184000D01*
X171940442Y-71184000D01*
X172007481Y-71203685D01*
G37*
%TD.AperFunction*%
%TA.AperFunction,Conductor*%
G36*
X158407797Y-65710685D02*
G01*
X158428439Y-65727319D01*
X160142845Y-67441725D01*
X161710440Y-69009319D01*
X161743925Y-69070642D01*
X161738941Y-69140334D01*
X161697069Y-69196267D01*
X161631605Y-69220684D01*
X161622759Y-69221000D01*
X159769941Y-69221000D01*
X159739112Y-69227132D01*
X159708283Y-69233265D01*
X159708282Y-69233265D01*
X159636450Y-69247553D01*
X159636438Y-69247556D01*
X159510695Y-69299640D01*
X159510682Y-69299647D01*
X159397514Y-69375264D01*
X159397510Y-69375267D01*
X154213269Y-74559507D01*
X154213266Y-74559510D01*
X154161059Y-74637643D01*
X154161060Y-74637644D01*
X154137642Y-74672692D01*
X154085556Y-74798438D01*
X154085553Y-74798448D01*
X154059000Y-74931939D01*
X154059000Y-77388930D01*
X154039315Y-77455969D01*
X154022681Y-77476611D01*
X153715771Y-77783520D01*
X153654448Y-77817005D01*
X153584756Y-77812021D01*
X153562118Y-77800833D01*
X153415206Y-77708522D01*
X153290995Y-77665058D01*
X153244269Y-77635698D01*
X152367960Y-76759388D01*
X152338599Y-76712661D01*
X152337521Y-76709581D01*
X152295150Y-76588489D01*
X152199177Y-76435749D01*
X152071623Y-76308195D01*
X151918884Y-76212222D01*
X151748615Y-76152642D01*
X151748610Y-76152641D01*
X151569365Y-76132446D01*
X151569357Y-76132446D01*
X151390111Y-76152641D01*
X151390106Y-76152642D01*
X151219837Y-76212222D01*
X151067098Y-76308195D01*
X150939545Y-76435748D01*
X150843570Y-76588490D01*
X150816180Y-76666766D01*
X150775458Y-76723541D01*
X150740095Y-76742851D01*
X150650479Y-76774209D01*
X150497737Y-76870184D01*
X150370184Y-76997737D01*
X150274211Y-77150476D01*
X150214631Y-77320745D01*
X150214630Y-77320750D01*
X150194435Y-77499996D01*
X150194435Y-77500003D01*
X150214630Y-77679249D01*
X150214631Y-77679254D01*
X150274211Y-77849523D01*
X150343445Y-77959707D01*
X150370184Y-78002262D01*
X150497738Y-78129816D01*
X150650478Y-78225789D01*
X150774651Y-78269238D01*
X150821377Y-78298599D01*
X151370097Y-78847319D01*
X151403582Y-78908642D01*
X151398598Y-78978334D01*
X151356726Y-79034267D01*
X151291262Y-79058684D01*
X151282416Y-79059000D01*
X149258963Y-79059000D01*
X149191924Y-79039315D01*
X149171282Y-79022681D01*
X148985096Y-78836495D01*
X148951611Y-78775172D01*
X148956595Y-78705480D01*
X148998467Y-78649547D01*
X149034458Y-78630883D01*
X149144219Y-78595220D01*
X149326610Y-78502287D01*
X149456854Y-78407660D01*
X149492213Y-78381971D01*
X149492215Y-78381968D01*
X149492219Y-78381966D01*
X149636966Y-78237219D01*
X149636968Y-78237215D01*
X149636971Y-78237213D01*
X149699970Y-78150501D01*
X149757287Y-78071610D01*
X149850220Y-77889219D01*
X149913477Y-77694534D01*
X149945500Y-77492352D01*
X149945500Y-77287648D01*
X149913477Y-77085466D01*
X149911866Y-77080509D01*
X149869168Y-76949096D01*
X149850220Y-76890781D01*
X149850218Y-76890778D01*
X149850218Y-76890776D01*
X149800325Y-76792857D01*
X149757287Y-76708390D01*
X149727046Y-76666766D01*
X149636971Y-76542786D01*
X149492213Y-76398028D01*
X149326614Y-76277715D01*
X149320006Y-76274348D01*
X149233917Y-76230483D01*
X149183123Y-76182511D01*
X149166328Y-76114690D01*
X149188865Y-76048555D01*
X149233917Y-76009516D01*
X149326610Y-75962287D01*
X149392458Y-75914446D01*
X149492213Y-75841971D01*
X149492215Y-75841968D01*
X149492219Y-75841966D01*
X149636966Y-75697219D01*
X149636968Y-75697215D01*
X149636971Y-75697213D01*
X149711595Y-75594500D01*
X149757287Y-75531610D01*
X149850220Y-75349219D01*
X149913477Y-75154534D01*
X149945500Y-74952352D01*
X149945500Y-74747648D01*
X149933628Y-74672692D01*
X149913477Y-74545465D01*
X149879367Y-74440485D01*
X149850220Y-74350781D01*
X149850218Y-74350778D01*
X149850218Y-74350776D01*
X149795575Y-74243535D01*
X149757287Y-74168390D01*
X149715666Y-74111103D01*
X149636971Y-74002786D01*
X149492213Y-73858028D01*
X149326614Y-73737715D01*
X149279635Y-73713778D01*
X149233917Y-73690483D01*
X149183123Y-73642511D01*
X149166328Y-73574690D01*
X149188865Y-73508555D01*
X149233917Y-73469516D01*
X149326610Y-73422287D01*
X149411103Y-73360900D01*
X149492213Y-73301971D01*
X149492215Y-73301968D01*
X149492219Y-73301966D01*
X149636966Y-73157219D01*
X149636968Y-73157215D01*
X149636971Y-73157213D01*
X149706482Y-73061538D01*
X149757287Y-72991610D01*
X149850220Y-72809219D01*
X149913477Y-72614534D01*
X149945500Y-72412352D01*
X149945500Y-72207648D01*
X149924702Y-72076335D01*
X149913477Y-72005465D01*
X149869521Y-71870184D01*
X149850220Y-71810781D01*
X149850218Y-71810778D01*
X149850218Y-71810776D01*
X149813973Y-71739642D01*
X149757287Y-71628390D01*
X149726166Y-71585555D01*
X149636971Y-71462786D01*
X149492213Y-71318028D01*
X149326614Y-71197715D01*
X149311470Y-71189999D01*
X149233917Y-71150483D01*
X149183123Y-71102511D01*
X149166328Y-71034690D01*
X149188865Y-70968555D01*
X149233917Y-70929516D01*
X149326610Y-70882287D01*
X149367203Y-70852795D01*
X149492213Y-70761971D01*
X149492215Y-70761968D01*
X149492219Y-70761966D01*
X149636966Y-70617219D01*
X149713327Y-70512115D01*
X149768657Y-70469449D01*
X149813646Y-70461000D01*
X150091466Y-70461000D01*
X150145268Y-70473280D01*
X150150482Y-70475791D01*
X150320737Y-70535366D01*
X150320743Y-70535367D01*
X150320745Y-70535368D01*
X150320746Y-70535368D01*
X150320750Y-70535369D01*
X150499996Y-70555565D01*
X150500000Y-70555565D01*
X150500004Y-70555565D01*
X150679249Y-70535369D01*
X150679252Y-70535368D01*
X150679255Y-70535368D01*
X150849522Y-70475789D01*
X151002262Y-70379816D01*
X151129816Y-70252262D01*
X151225789Y-70099522D01*
X151285368Y-69929255D01*
X151287235Y-69912684D01*
X151305565Y-69750003D01*
X151305565Y-69749996D01*
X151285916Y-69575603D01*
X151297971Y-69506781D01*
X151345320Y-69455402D01*
X151412930Y-69437778D01*
X151479336Y-69459505D01*
X151496817Y-69474039D01*
X151640187Y-69617409D01*
X151673672Y-69678732D01*
X151672281Y-69737182D01*
X151664939Y-69764584D01*
X151664936Y-69764597D01*
X151644341Y-69999999D01*
X151644341Y-70000000D01*
X151664936Y-70235403D01*
X151664938Y-70235413D01*
X151726094Y-70463655D01*
X151726096Y-70463659D01*
X151726097Y-70463663D01*
X151768952Y-70555565D01*
X151825965Y-70677830D01*
X151825967Y-70677834D01*
X151890037Y-70769334D01*
X151955167Y-70862350D01*
X151961501Y-70871395D01*
X151961506Y-70871402D01*
X152128597Y-71038493D01*
X152128603Y-71038498D01*
X152314158Y-71168425D01*
X152357783Y-71223002D01*
X152364977Y-71292500D01*
X152333454Y-71354855D01*
X152314158Y-71371575D01*
X152128597Y-71501505D01*
X151961505Y-71668597D01*
X151825965Y-71862169D01*
X151825964Y-71862171D01*
X151726098Y-72076335D01*
X151726094Y-72076344D01*
X151664938Y-72304586D01*
X151664936Y-72304596D01*
X151644341Y-72539999D01*
X151644341Y-72540000D01*
X151664936Y-72775403D01*
X151664938Y-72775413D01*
X151726094Y-73003655D01*
X151726096Y-73003659D01*
X151726097Y-73003663D01*
X151732914Y-73018281D01*
X151825965Y-73217830D01*
X151825967Y-73217834D01*
X151889326Y-73308319D01*
X151961505Y-73411401D01*
X152128599Y-73578495D01*
X152174307Y-73610500D01*
X152322165Y-73714032D01*
X152322167Y-73714033D01*
X152322170Y-73714035D01*
X152536337Y-73813903D01*
X152764592Y-73875063D01*
X152952918Y-73891539D01*
X152999999Y-73895659D01*
X153000000Y-73895659D01*
X153000001Y-73895659D01*
X153039234Y-73892226D01*
X153235408Y-73875063D01*
X153463663Y-73813903D01*
X153677830Y-73714035D01*
X153871401Y-73578495D01*
X154038495Y-73411401D01*
X154174035Y-73217830D01*
X154273903Y-73003663D01*
X154335063Y-72775408D01*
X154355659Y-72540000D01*
X154335063Y-72304592D01*
X154273903Y-72076337D01*
X154174035Y-71862171D01*
X154146764Y-71823223D01*
X154038494Y-71668597D01*
X153871402Y-71501506D01*
X153871396Y-71501501D01*
X153685842Y-71371575D01*
X153642217Y-71316998D01*
X153635023Y-71247500D01*
X153666546Y-71185145D01*
X153685842Y-71168425D01*
X153778140Y-71103797D01*
X153871401Y-71038495D01*
X154038495Y-70871401D01*
X154174035Y-70677830D01*
X154273903Y-70463663D01*
X154335063Y-70235408D01*
X154355659Y-70000000D01*
X154335063Y-69764592D01*
X154284424Y-69575603D01*
X154273905Y-69536344D01*
X154273904Y-69536343D01*
X154273903Y-69536337D01*
X154174035Y-69322171D01*
X154158261Y-69299644D01*
X154038496Y-69128600D01*
X153980538Y-69070642D01*
X153916179Y-69006283D01*
X153882696Y-68944963D01*
X153887680Y-68875271D01*
X153929551Y-68819337D01*
X153960529Y-68802422D01*
X154092086Y-68753354D01*
X154092093Y-68753350D01*
X154207187Y-68667190D01*
X154207190Y-68667187D01*
X154293350Y-68552093D01*
X154293354Y-68552086D01*
X154343596Y-68417379D01*
X154343598Y-68417372D01*
X154349999Y-68357844D01*
X154350000Y-68357827D01*
X154350000Y-67710000D01*
X153433012Y-67710000D01*
X153465925Y-67652993D01*
X153500000Y-67525826D01*
X153500000Y-67394174D01*
X153465925Y-67267007D01*
X153433012Y-67210000D01*
X154350000Y-67210000D01*
X154350000Y-66562172D01*
X154349999Y-66562155D01*
X154343598Y-66502627D01*
X154343596Y-66502620D01*
X154293354Y-66367913D01*
X154293350Y-66367906D01*
X154207190Y-66252812D01*
X154207187Y-66252809D01*
X154092093Y-66166649D01*
X154092086Y-66166645D01*
X153957379Y-66116403D01*
X153957372Y-66116401D01*
X153897844Y-66110000D01*
X153250000Y-66110000D01*
X153250000Y-67026988D01*
X153192993Y-66994075D01*
X153065826Y-66960000D01*
X152934174Y-66960000D01*
X152807007Y-66994075D01*
X152750000Y-67026988D01*
X152750000Y-66110000D01*
X152102155Y-66110000D01*
X152042627Y-66116401D01*
X152042620Y-66116403D01*
X151907913Y-66166645D01*
X151907906Y-66166649D01*
X151792812Y-66252809D01*
X151792809Y-66252812D01*
X151706649Y-66367906D01*
X151706645Y-66367913D01*
X151656403Y-66502620D01*
X151656401Y-66502627D01*
X151650000Y-66562155D01*
X151650000Y-67210000D01*
X152566988Y-67210000D01*
X152534075Y-67267007D01*
X152500000Y-67394174D01*
X152500000Y-67525826D01*
X152534075Y-67652993D01*
X152566988Y-67710000D01*
X151650000Y-67710000D01*
X151639607Y-67720392D01*
X151630315Y-67752039D01*
X151577511Y-67797794D01*
X151526000Y-67809000D01*
X149994969Y-67809000D01*
X149927930Y-67789315D01*
X149882175Y-67736511D01*
X149872231Y-67667353D01*
X149877038Y-67646681D01*
X149913477Y-67534534D01*
X149916921Y-67512791D01*
X149945500Y-67332352D01*
X149945500Y-67127648D01*
X149913477Y-66925466D01*
X149909559Y-66913410D01*
X149907563Y-66843572D01*
X149939807Y-66787413D01*
X150999903Y-65727319D01*
X151061226Y-65693834D01*
X151087584Y-65691000D01*
X158340758Y-65691000D01*
X158407797Y-65710685D01*
G37*
%TD.AperFunction*%
%TD*%
M02*
