%TF.GenerationSoftware,KiCad,Pcbnew,8.0.8*%
%TF.CreationDate,2025-02-20T15:45:21-05:00*%
%TF.ProjectId,Stardust,53746172-6475-4737-942e-6b696361645f,rev?*%
%TF.SameCoordinates,Original*%
%TF.FileFunction,Legend,Top*%
%TF.FilePolarity,Positive*%
%FSLAX46Y46*%
G04 Gerber Fmt 4.6, Leading zero omitted, Abs format (unit mm)*
G04 Created by KiCad (PCBNEW 8.0.8) date 2025-02-20 15:45:21*
%MOMM*%
%LPD*%
G01*
G04 APERTURE LIST*
%ADD10C,0.300000*%
%ADD11C,0.150000*%
%ADD12C,0.254000*%
%ADD13C,0.120000*%
%ADD14C,0.100000*%
%ADD15C,0.800000*%
%ADD16C,0.200000*%
%ADD17C,0.000000*%
G04 APERTURE END LIST*
D10*
X169773328Y-96505489D02*
X168273328Y-96505489D01*
X169701900Y-95862631D02*
X169773328Y-95719774D01*
X169773328Y-95719774D02*
X169773328Y-95434060D01*
X169773328Y-95434060D02*
X169701900Y-95291203D01*
X169701900Y-95291203D02*
X169559042Y-95219774D01*
X169559042Y-95219774D02*
X169487614Y-95219774D01*
X169487614Y-95219774D02*
X169344757Y-95291203D01*
X169344757Y-95291203D02*
X169273328Y-95434060D01*
X169273328Y-95434060D02*
X169273328Y-95648346D01*
X169273328Y-95648346D02*
X169201900Y-95791203D01*
X169201900Y-95791203D02*
X169059042Y-95862631D01*
X169059042Y-95862631D02*
X168987614Y-95862631D01*
X168987614Y-95862631D02*
X168844757Y-95791203D01*
X168844757Y-95791203D02*
X168773328Y-95648346D01*
X168773328Y-95648346D02*
X168773328Y-95434060D01*
X168773328Y-95434060D02*
X168844757Y-95291203D01*
X169773328Y-93934060D02*
X168987614Y-93934060D01*
X168987614Y-93934060D02*
X168844757Y-94005488D01*
X168844757Y-94005488D02*
X168773328Y-94148345D01*
X168773328Y-94148345D02*
X168773328Y-94434060D01*
X168773328Y-94434060D02*
X168844757Y-94576917D01*
X169701900Y-93934060D02*
X169773328Y-94076917D01*
X169773328Y-94076917D02*
X169773328Y-94434060D01*
X169773328Y-94434060D02*
X169701900Y-94576917D01*
X169701900Y-94576917D02*
X169559042Y-94648345D01*
X169559042Y-94648345D02*
X169416185Y-94648345D01*
X169416185Y-94648345D02*
X169273328Y-94576917D01*
X169273328Y-94576917D02*
X169201900Y-94434060D01*
X169201900Y-94434060D02*
X169201900Y-94076917D01*
X169201900Y-94076917D02*
X169130471Y-93934060D01*
X169773328Y-92576917D02*
X168987614Y-92576917D01*
X168987614Y-92576917D02*
X168844757Y-92648345D01*
X168844757Y-92648345D02*
X168773328Y-92791202D01*
X168773328Y-92791202D02*
X168773328Y-93076917D01*
X168773328Y-93076917D02*
X168844757Y-93219774D01*
X169701900Y-92576917D02*
X169773328Y-92719774D01*
X169773328Y-92719774D02*
X169773328Y-93076917D01*
X169773328Y-93076917D02*
X169701900Y-93219774D01*
X169701900Y-93219774D02*
X169559042Y-93291202D01*
X169559042Y-93291202D02*
X169416185Y-93291202D01*
X169416185Y-93291202D02*
X169273328Y-93219774D01*
X169273328Y-93219774D02*
X169201900Y-93076917D01*
X169201900Y-93076917D02*
X169201900Y-92719774D01*
X169201900Y-92719774D02*
X169130471Y-92576917D01*
X169701900Y-91219774D02*
X169773328Y-91362631D01*
X169773328Y-91362631D02*
X169773328Y-91648345D01*
X169773328Y-91648345D02*
X169701900Y-91791202D01*
X169701900Y-91791202D02*
X169630471Y-91862631D01*
X169630471Y-91862631D02*
X169487614Y-91934059D01*
X169487614Y-91934059D02*
X169059042Y-91934059D01*
X169059042Y-91934059D02*
X168916185Y-91862631D01*
X168916185Y-91862631D02*
X168844757Y-91791202D01*
X168844757Y-91791202D02*
X168773328Y-91648345D01*
X168773328Y-91648345D02*
X168773328Y-91362631D01*
X168773328Y-91362631D02*
X168844757Y-91219774D01*
X168987614Y-88934060D02*
X169059042Y-88719774D01*
X169059042Y-88719774D02*
X169130471Y-88648345D01*
X169130471Y-88648345D02*
X169273328Y-88576917D01*
X169273328Y-88576917D02*
X169487614Y-88576917D01*
X169487614Y-88576917D02*
X169630471Y-88648345D01*
X169630471Y-88648345D02*
X169701900Y-88719774D01*
X169701900Y-88719774D02*
X169773328Y-88862631D01*
X169773328Y-88862631D02*
X169773328Y-89434060D01*
X169773328Y-89434060D02*
X168273328Y-89434060D01*
X168273328Y-89434060D02*
X168273328Y-88934060D01*
X168273328Y-88934060D02*
X168344757Y-88791203D01*
X168344757Y-88791203D02*
X168416185Y-88719774D01*
X168416185Y-88719774D02*
X168559042Y-88648345D01*
X168559042Y-88648345D02*
X168701900Y-88648345D01*
X168701900Y-88648345D02*
X168844757Y-88719774D01*
X168844757Y-88719774D02*
X168916185Y-88791203D01*
X168916185Y-88791203D02*
X168987614Y-88934060D01*
X168987614Y-88934060D02*
X168987614Y-89434060D01*
X169773328Y-87719774D02*
X169701900Y-87862631D01*
X169701900Y-87862631D02*
X169630471Y-87934060D01*
X169630471Y-87934060D02*
X169487614Y-88005488D01*
X169487614Y-88005488D02*
X169059042Y-88005488D01*
X169059042Y-88005488D02*
X168916185Y-87934060D01*
X168916185Y-87934060D02*
X168844757Y-87862631D01*
X168844757Y-87862631D02*
X168773328Y-87719774D01*
X168773328Y-87719774D02*
X168773328Y-87505488D01*
X168773328Y-87505488D02*
X168844757Y-87362631D01*
X168844757Y-87362631D02*
X168916185Y-87291203D01*
X168916185Y-87291203D02*
X169059042Y-87219774D01*
X169059042Y-87219774D02*
X169487614Y-87219774D01*
X169487614Y-87219774D02*
X169630471Y-87291203D01*
X169630471Y-87291203D02*
X169701900Y-87362631D01*
X169701900Y-87362631D02*
X169773328Y-87505488D01*
X169773328Y-87505488D02*
X169773328Y-87719774D01*
X169701900Y-86648345D02*
X169773328Y-86505488D01*
X169773328Y-86505488D02*
X169773328Y-86219774D01*
X169773328Y-86219774D02*
X169701900Y-86076917D01*
X169701900Y-86076917D02*
X169559042Y-86005488D01*
X169559042Y-86005488D02*
X169487614Y-86005488D01*
X169487614Y-86005488D02*
X169344757Y-86076917D01*
X169344757Y-86076917D02*
X169273328Y-86219774D01*
X169273328Y-86219774D02*
X169273328Y-86434060D01*
X169273328Y-86434060D02*
X169201900Y-86576917D01*
X169201900Y-86576917D02*
X169059042Y-86648345D01*
X169059042Y-86648345D02*
X168987614Y-86648345D01*
X168987614Y-86648345D02*
X168844757Y-86576917D01*
X168844757Y-86576917D02*
X168773328Y-86434060D01*
X168773328Y-86434060D02*
X168773328Y-86219774D01*
X168773328Y-86219774D02*
X168844757Y-86076917D01*
X169773328Y-85148345D02*
X169701900Y-85291202D01*
X169701900Y-85291202D02*
X169559042Y-85362631D01*
X169559042Y-85362631D02*
X168273328Y-85362631D01*
X169701900Y-84005488D02*
X169773328Y-84148345D01*
X169773328Y-84148345D02*
X169773328Y-84434060D01*
X169773328Y-84434060D02*
X169701900Y-84576917D01*
X169701900Y-84576917D02*
X169559042Y-84648345D01*
X169559042Y-84648345D02*
X168987614Y-84648345D01*
X168987614Y-84648345D02*
X168844757Y-84576917D01*
X168844757Y-84576917D02*
X168773328Y-84434060D01*
X168773328Y-84434060D02*
X168773328Y-84148345D01*
X168773328Y-84148345D02*
X168844757Y-84005488D01*
X168844757Y-84005488D02*
X168987614Y-83934060D01*
X168987614Y-83934060D02*
X169130471Y-83934060D01*
X169130471Y-83934060D02*
X169273328Y-84648345D01*
X168773328Y-83434060D02*
X169773328Y-83076917D01*
X168773328Y-82719774D02*
X169773328Y-83076917D01*
X169773328Y-83076917D02*
X170130471Y-83219774D01*
X170130471Y-83219774D02*
X170201900Y-83291203D01*
X170201900Y-83291203D02*
X170273328Y-83434060D01*
X168416185Y-81076917D02*
X168344757Y-81005489D01*
X168344757Y-81005489D02*
X168273328Y-80862632D01*
X168273328Y-80862632D02*
X168273328Y-80505489D01*
X168273328Y-80505489D02*
X168344757Y-80362632D01*
X168344757Y-80362632D02*
X168416185Y-80291203D01*
X168416185Y-80291203D02*
X168559042Y-80219774D01*
X168559042Y-80219774D02*
X168701900Y-80219774D01*
X168701900Y-80219774D02*
X168916185Y-80291203D01*
X168916185Y-80291203D02*
X169773328Y-81148346D01*
X169773328Y-81148346D02*
X169773328Y-80219774D01*
X168273328Y-79291203D02*
X168273328Y-79148346D01*
X168273328Y-79148346D02*
X168344757Y-79005489D01*
X168344757Y-79005489D02*
X168416185Y-78934061D01*
X168416185Y-78934061D02*
X168559042Y-78862632D01*
X168559042Y-78862632D02*
X168844757Y-78791203D01*
X168844757Y-78791203D02*
X169201900Y-78791203D01*
X169201900Y-78791203D02*
X169487614Y-78862632D01*
X169487614Y-78862632D02*
X169630471Y-78934061D01*
X169630471Y-78934061D02*
X169701900Y-79005489D01*
X169701900Y-79005489D02*
X169773328Y-79148346D01*
X169773328Y-79148346D02*
X169773328Y-79291203D01*
X169773328Y-79291203D02*
X169701900Y-79434061D01*
X169701900Y-79434061D02*
X169630471Y-79505489D01*
X169630471Y-79505489D02*
X169487614Y-79576918D01*
X169487614Y-79576918D02*
X169201900Y-79648346D01*
X169201900Y-79648346D02*
X168844757Y-79648346D01*
X168844757Y-79648346D02*
X168559042Y-79576918D01*
X168559042Y-79576918D02*
X168416185Y-79505489D01*
X168416185Y-79505489D02*
X168344757Y-79434061D01*
X168344757Y-79434061D02*
X168273328Y-79291203D01*
X168416185Y-78219775D02*
X168344757Y-78148347D01*
X168344757Y-78148347D02*
X168273328Y-78005490D01*
X168273328Y-78005490D02*
X168273328Y-77648347D01*
X168273328Y-77648347D02*
X168344757Y-77505490D01*
X168344757Y-77505490D02*
X168416185Y-77434061D01*
X168416185Y-77434061D02*
X168559042Y-77362632D01*
X168559042Y-77362632D02*
X168701900Y-77362632D01*
X168701900Y-77362632D02*
X168916185Y-77434061D01*
X168916185Y-77434061D02*
X169773328Y-78291204D01*
X169773328Y-78291204D02*
X169773328Y-77362632D01*
X168273328Y-76005490D02*
X168273328Y-76719776D01*
X168273328Y-76719776D02*
X168987614Y-76791204D01*
X168987614Y-76791204D02*
X168916185Y-76719776D01*
X168916185Y-76719776D02*
X168844757Y-76576919D01*
X168844757Y-76576919D02*
X168844757Y-76219776D01*
X168844757Y-76219776D02*
X168916185Y-76076919D01*
X168916185Y-76076919D02*
X168987614Y-76005490D01*
X168987614Y-76005490D02*
X169130471Y-75934061D01*
X169130471Y-75934061D02*
X169487614Y-75934061D01*
X169487614Y-75934061D02*
X169630471Y-76005490D01*
X169630471Y-76005490D02*
X169701900Y-76076919D01*
X169701900Y-76076919D02*
X169773328Y-76219776D01*
X169773328Y-76219776D02*
X169773328Y-76576919D01*
X169773328Y-76576919D02*
X169701900Y-76719776D01*
X169701900Y-76719776D02*
X169630471Y-76791204D01*
X133518796Y-90050828D02*
X132804510Y-90050828D01*
X132804510Y-90050828D02*
X132733082Y-90765114D01*
X132733082Y-90765114D02*
X132804510Y-90693685D01*
X132804510Y-90693685D02*
X132947368Y-90622257D01*
X132947368Y-90622257D02*
X133304510Y-90622257D01*
X133304510Y-90622257D02*
X133447368Y-90693685D01*
X133447368Y-90693685D02*
X133518796Y-90765114D01*
X133518796Y-90765114D02*
X133590225Y-90907971D01*
X133590225Y-90907971D02*
X133590225Y-91265114D01*
X133590225Y-91265114D02*
X133518796Y-91407971D01*
X133518796Y-91407971D02*
X133447368Y-91479400D01*
X133447368Y-91479400D02*
X133304510Y-91550828D01*
X133304510Y-91550828D02*
X132947368Y-91550828D01*
X132947368Y-91550828D02*
X132804510Y-91479400D01*
X132804510Y-91479400D02*
X132733082Y-91407971D01*
X134018796Y-90050828D02*
X134518796Y-91550828D01*
X134518796Y-91550828D02*
X135018796Y-90050828D01*
X136661652Y-91550828D02*
X136661652Y-90050828D01*
X136661652Y-90050828D02*
X137233081Y-90050828D01*
X137233081Y-90050828D02*
X137375938Y-90122257D01*
X137375938Y-90122257D02*
X137447367Y-90193685D01*
X137447367Y-90193685D02*
X137518795Y-90336542D01*
X137518795Y-90336542D02*
X137518795Y-90550828D01*
X137518795Y-90550828D02*
X137447367Y-90693685D01*
X137447367Y-90693685D02*
X137375938Y-90765114D01*
X137375938Y-90765114D02*
X137233081Y-90836542D01*
X137233081Y-90836542D02*
X136661652Y-90836542D01*
X138018795Y-90050828D02*
X138375938Y-91550828D01*
X138375938Y-91550828D02*
X138661652Y-90479400D01*
X138661652Y-90479400D02*
X138947367Y-91550828D01*
X138947367Y-91550828D02*
X139304510Y-90050828D01*
X140733081Y-91550828D02*
X140233081Y-90836542D01*
X139875938Y-91550828D02*
X139875938Y-90050828D01*
X139875938Y-90050828D02*
X140447367Y-90050828D01*
X140447367Y-90050828D02*
X140590224Y-90122257D01*
X140590224Y-90122257D02*
X140661653Y-90193685D01*
X140661653Y-90193685D02*
X140733081Y-90336542D01*
X140733081Y-90336542D02*
X140733081Y-90550828D01*
X140733081Y-90550828D02*
X140661653Y-90693685D01*
X140661653Y-90693685D02*
X140590224Y-90765114D01*
X140590224Y-90765114D02*
X140447367Y-90836542D01*
X140447367Y-90836542D02*
X139875938Y-90836542D01*
X190800828Y-116195489D02*
X189300828Y-116195489D01*
X189300828Y-116195489D02*
X189300828Y-115624060D01*
X189300828Y-115624060D02*
X189372257Y-115481203D01*
X189372257Y-115481203D02*
X189443685Y-115409774D01*
X189443685Y-115409774D02*
X189586542Y-115338346D01*
X189586542Y-115338346D02*
X189800828Y-115338346D01*
X189800828Y-115338346D02*
X189943685Y-115409774D01*
X189943685Y-115409774D02*
X190015114Y-115481203D01*
X190015114Y-115481203D02*
X190086542Y-115624060D01*
X190086542Y-115624060D02*
X190086542Y-116195489D01*
X189300828Y-114838346D02*
X190800828Y-114481203D01*
X190800828Y-114481203D02*
X189729400Y-114195489D01*
X189729400Y-114195489D02*
X190800828Y-113909774D01*
X190800828Y-113909774D02*
X189300828Y-113552632D01*
X190800828Y-112124060D02*
X190086542Y-112624060D01*
X190800828Y-112981203D02*
X189300828Y-112981203D01*
X189300828Y-112981203D02*
X189300828Y-112409774D01*
X189300828Y-112409774D02*
X189372257Y-112266917D01*
X189372257Y-112266917D02*
X189443685Y-112195488D01*
X189443685Y-112195488D02*
X189586542Y-112124060D01*
X189586542Y-112124060D02*
X189800828Y-112124060D01*
X189800828Y-112124060D02*
X189943685Y-112195488D01*
X189943685Y-112195488D02*
X190015114Y-112266917D01*
X190015114Y-112266917D02*
X190086542Y-112409774D01*
X190086542Y-112409774D02*
X190086542Y-112981203D01*
X187729400Y-116266917D02*
X187800828Y-116052632D01*
X187800828Y-116052632D02*
X187800828Y-115695489D01*
X187800828Y-115695489D02*
X187729400Y-115552632D01*
X187729400Y-115552632D02*
X187657971Y-115481203D01*
X187657971Y-115481203D02*
X187515114Y-115409774D01*
X187515114Y-115409774D02*
X187372257Y-115409774D01*
X187372257Y-115409774D02*
X187229400Y-115481203D01*
X187229400Y-115481203D02*
X187157971Y-115552632D01*
X187157971Y-115552632D02*
X187086542Y-115695489D01*
X187086542Y-115695489D02*
X187015114Y-115981203D01*
X187015114Y-115981203D02*
X186943685Y-116124060D01*
X186943685Y-116124060D02*
X186872257Y-116195489D01*
X186872257Y-116195489D02*
X186729400Y-116266917D01*
X186729400Y-116266917D02*
X186586542Y-116266917D01*
X186586542Y-116266917D02*
X186443685Y-116195489D01*
X186443685Y-116195489D02*
X186372257Y-116124060D01*
X186372257Y-116124060D02*
X186300828Y-115981203D01*
X186300828Y-115981203D02*
X186300828Y-115624060D01*
X186300828Y-115624060D02*
X186372257Y-115409774D01*
X186300828Y-114981203D02*
X186300828Y-114124061D01*
X187800828Y-114552632D02*
X186300828Y-114552632D01*
X187372257Y-113695489D02*
X187372257Y-112981204D01*
X187800828Y-113838346D02*
X186300828Y-113338346D01*
X186300828Y-113338346D02*
X187800828Y-112838346D01*
X186300828Y-112552632D02*
X186300828Y-111695490D01*
X187800828Y-112124061D02*
X186300828Y-112124061D01*
X186300828Y-111195490D02*
X187515114Y-111195490D01*
X187515114Y-111195490D02*
X187657971Y-111124061D01*
X187657971Y-111124061D02*
X187729400Y-111052633D01*
X187729400Y-111052633D02*
X187800828Y-110909775D01*
X187800828Y-110909775D02*
X187800828Y-110624061D01*
X187800828Y-110624061D02*
X187729400Y-110481204D01*
X187729400Y-110481204D02*
X187657971Y-110409775D01*
X187657971Y-110409775D02*
X187515114Y-110338347D01*
X187515114Y-110338347D02*
X186300828Y-110338347D01*
X187729400Y-109695489D02*
X187800828Y-109481204D01*
X187800828Y-109481204D02*
X187800828Y-109124061D01*
X187800828Y-109124061D02*
X187729400Y-108981204D01*
X187729400Y-108981204D02*
X187657971Y-108909775D01*
X187657971Y-108909775D02*
X187515114Y-108838346D01*
X187515114Y-108838346D02*
X187372257Y-108838346D01*
X187372257Y-108838346D02*
X187229400Y-108909775D01*
X187229400Y-108909775D02*
X187157971Y-108981204D01*
X187157971Y-108981204D02*
X187086542Y-109124061D01*
X187086542Y-109124061D02*
X187015114Y-109409775D01*
X187015114Y-109409775D02*
X186943685Y-109552632D01*
X186943685Y-109552632D02*
X186872257Y-109624061D01*
X186872257Y-109624061D02*
X186729400Y-109695489D01*
X186729400Y-109695489D02*
X186586542Y-109695489D01*
X186586542Y-109695489D02*
X186443685Y-109624061D01*
X186443685Y-109624061D02*
X186372257Y-109552632D01*
X186372257Y-109552632D02*
X186300828Y-109409775D01*
X186300828Y-109409775D02*
X186300828Y-109052632D01*
X186300828Y-109052632D02*
X186372257Y-108838346D01*
X187340225Y-61800828D02*
X186483082Y-61800828D01*
X186911653Y-61800828D02*
X186911653Y-60300828D01*
X186911653Y-60300828D02*
X186768796Y-60515114D01*
X186768796Y-60515114D02*
X186625939Y-60657971D01*
X186625939Y-60657971D02*
X186483082Y-60729400D01*
X188697367Y-60300828D02*
X187983081Y-60300828D01*
X187983081Y-60300828D02*
X187911653Y-61015114D01*
X187911653Y-61015114D02*
X187983081Y-60943685D01*
X187983081Y-60943685D02*
X188125939Y-60872257D01*
X188125939Y-60872257D02*
X188483081Y-60872257D01*
X188483081Y-60872257D02*
X188625939Y-60943685D01*
X188625939Y-60943685D02*
X188697367Y-61015114D01*
X188697367Y-61015114D02*
X188768796Y-61157971D01*
X188768796Y-61157971D02*
X188768796Y-61515114D01*
X188768796Y-61515114D02*
X188697367Y-61657971D01*
X188697367Y-61657971D02*
X188625939Y-61729400D01*
X188625939Y-61729400D02*
X188483081Y-61800828D01*
X188483081Y-61800828D02*
X188125939Y-61800828D01*
X188125939Y-61800828D02*
X187983081Y-61729400D01*
X187983081Y-61729400D02*
X187911653Y-61657971D01*
X189197367Y-60300828D02*
X189697367Y-61800828D01*
X189697367Y-61800828D02*
X190197367Y-60300828D01*
X191840223Y-61800828D02*
X191840223Y-60300828D01*
X191840223Y-60300828D02*
X192340223Y-61372257D01*
X192340223Y-61372257D02*
X192840223Y-60300828D01*
X192840223Y-60300828D02*
X192840223Y-61800828D01*
X193483081Y-61372257D02*
X194197367Y-61372257D01*
X193340224Y-61800828D02*
X193840224Y-60300828D01*
X193840224Y-60300828D02*
X194340224Y-61800828D01*
X194697366Y-60300828D02*
X195697366Y-61800828D01*
X195697366Y-60300828D02*
X194697366Y-61800828D01*
D11*
X182988095Y-56454819D02*
X182988095Y-55454819D01*
X182988095Y-55931009D02*
X183559523Y-55931009D01*
X183559523Y-56454819D02*
X183559523Y-55454819D01*
X184559523Y-56454819D02*
X183988095Y-56454819D01*
X184273809Y-56454819D02*
X184273809Y-55454819D01*
X184273809Y-55454819D02*
X184178571Y-55597676D01*
X184178571Y-55597676D02*
X184083333Y-55692914D01*
X184083333Y-55692914D02*
X183988095Y-55740533D01*
X167238095Y-114754819D02*
X167238095Y-113754819D01*
X167238095Y-114231009D02*
X167809523Y-114231009D01*
X167809523Y-114754819D02*
X167809523Y-113754819D01*
X168190476Y-113754819D02*
X168809523Y-113754819D01*
X168809523Y-113754819D02*
X168476190Y-114135771D01*
X168476190Y-114135771D02*
X168619047Y-114135771D01*
X168619047Y-114135771D02*
X168714285Y-114183390D01*
X168714285Y-114183390D02*
X168761904Y-114231009D01*
X168761904Y-114231009D02*
X168809523Y-114326247D01*
X168809523Y-114326247D02*
X168809523Y-114564342D01*
X168809523Y-114564342D02*
X168761904Y-114659580D01*
X168761904Y-114659580D02*
X168714285Y-114707200D01*
X168714285Y-114707200D02*
X168619047Y-114754819D01*
X168619047Y-114754819D02*
X168333333Y-114754819D01*
X168333333Y-114754819D02*
X168238095Y-114707200D01*
X168238095Y-114707200D02*
X168190476Y-114659580D01*
X128738095Y-113254819D02*
X128738095Y-112254819D01*
X128738095Y-112731009D02*
X129309523Y-112731009D01*
X129309523Y-113254819D02*
X129309523Y-112254819D01*
X129738095Y-112350057D02*
X129785714Y-112302438D01*
X129785714Y-112302438D02*
X129880952Y-112254819D01*
X129880952Y-112254819D02*
X130119047Y-112254819D01*
X130119047Y-112254819D02*
X130214285Y-112302438D01*
X130214285Y-112302438D02*
X130261904Y-112350057D01*
X130261904Y-112350057D02*
X130309523Y-112445295D01*
X130309523Y-112445295D02*
X130309523Y-112540533D01*
X130309523Y-112540533D02*
X130261904Y-112683390D01*
X130261904Y-112683390D02*
X129690476Y-113254819D01*
X129690476Y-113254819D02*
X130309523Y-113254819D01*
X174929580Y-116166666D02*
X174977200Y-116214285D01*
X174977200Y-116214285D02*
X175024819Y-116357142D01*
X175024819Y-116357142D02*
X175024819Y-116452380D01*
X175024819Y-116452380D02*
X174977200Y-116595237D01*
X174977200Y-116595237D02*
X174881961Y-116690475D01*
X174881961Y-116690475D02*
X174786723Y-116738094D01*
X174786723Y-116738094D02*
X174596247Y-116785713D01*
X174596247Y-116785713D02*
X174453390Y-116785713D01*
X174453390Y-116785713D02*
X174262914Y-116738094D01*
X174262914Y-116738094D02*
X174167676Y-116690475D01*
X174167676Y-116690475D02*
X174072438Y-116595237D01*
X174072438Y-116595237D02*
X174024819Y-116452380D01*
X174024819Y-116452380D02*
X174024819Y-116357142D01*
X174024819Y-116357142D02*
X174072438Y-116214285D01*
X174072438Y-116214285D02*
X174120057Y-116166666D01*
X174024819Y-115309523D02*
X174024819Y-115499999D01*
X174024819Y-115499999D02*
X174072438Y-115595237D01*
X174072438Y-115595237D02*
X174120057Y-115642856D01*
X174120057Y-115642856D02*
X174262914Y-115738094D01*
X174262914Y-115738094D02*
X174453390Y-115785713D01*
X174453390Y-115785713D02*
X174834342Y-115785713D01*
X174834342Y-115785713D02*
X174929580Y-115738094D01*
X174929580Y-115738094D02*
X174977200Y-115690475D01*
X174977200Y-115690475D02*
X175024819Y-115595237D01*
X175024819Y-115595237D02*
X175024819Y-115404761D01*
X175024819Y-115404761D02*
X174977200Y-115309523D01*
X174977200Y-115309523D02*
X174929580Y-115261904D01*
X174929580Y-115261904D02*
X174834342Y-115214285D01*
X174834342Y-115214285D02*
X174596247Y-115214285D01*
X174596247Y-115214285D02*
X174501009Y-115261904D01*
X174501009Y-115261904D02*
X174453390Y-115309523D01*
X174453390Y-115309523D02*
X174405771Y-115404761D01*
X174405771Y-115404761D02*
X174405771Y-115595237D01*
X174405771Y-115595237D02*
X174453390Y-115690475D01*
X174453390Y-115690475D02*
X174501009Y-115738094D01*
X174501009Y-115738094D02*
X174596247Y-115785713D01*
X160333333Y-98554819D02*
X160000000Y-98078628D01*
X159761905Y-98554819D02*
X159761905Y-97554819D01*
X159761905Y-97554819D02*
X160142857Y-97554819D01*
X160142857Y-97554819D02*
X160238095Y-97602438D01*
X160238095Y-97602438D02*
X160285714Y-97650057D01*
X160285714Y-97650057D02*
X160333333Y-97745295D01*
X160333333Y-97745295D02*
X160333333Y-97888152D01*
X160333333Y-97888152D02*
X160285714Y-97983390D01*
X160285714Y-97983390D02*
X160238095Y-98031009D01*
X160238095Y-98031009D02*
X160142857Y-98078628D01*
X160142857Y-98078628D02*
X159761905Y-98078628D01*
X161285714Y-98554819D02*
X160714286Y-98554819D01*
X161000000Y-98554819D02*
X161000000Y-97554819D01*
X161000000Y-97554819D02*
X160904762Y-97697676D01*
X160904762Y-97697676D02*
X160809524Y-97792914D01*
X160809524Y-97792914D02*
X160714286Y-97840533D01*
X188954819Y-118738094D02*
X187954819Y-118738094D01*
X187954819Y-118738094D02*
X187954819Y-118499999D01*
X187954819Y-118499999D02*
X188002438Y-118357142D01*
X188002438Y-118357142D02*
X188097676Y-118261904D01*
X188097676Y-118261904D02*
X188192914Y-118214285D01*
X188192914Y-118214285D02*
X188383390Y-118166666D01*
X188383390Y-118166666D02*
X188526247Y-118166666D01*
X188526247Y-118166666D02*
X188716723Y-118214285D01*
X188716723Y-118214285D02*
X188811961Y-118261904D01*
X188811961Y-118261904D02*
X188907200Y-118357142D01*
X188907200Y-118357142D02*
X188954819Y-118499999D01*
X188954819Y-118499999D02*
X188954819Y-118738094D01*
X188050057Y-117785713D02*
X188002438Y-117738094D01*
X188002438Y-117738094D02*
X187954819Y-117642856D01*
X187954819Y-117642856D02*
X187954819Y-117404761D01*
X187954819Y-117404761D02*
X188002438Y-117309523D01*
X188002438Y-117309523D02*
X188050057Y-117261904D01*
X188050057Y-117261904D02*
X188145295Y-117214285D01*
X188145295Y-117214285D02*
X188240533Y-117214285D01*
X188240533Y-117214285D02*
X188383390Y-117261904D01*
X188383390Y-117261904D02*
X188954819Y-117833332D01*
X188954819Y-117833332D02*
X188954819Y-117214285D01*
X132624819Y-88333333D02*
X133339104Y-88333333D01*
X133339104Y-88333333D02*
X133481961Y-88380952D01*
X133481961Y-88380952D02*
X133577200Y-88476190D01*
X133577200Y-88476190D02*
X133624819Y-88619047D01*
X133624819Y-88619047D02*
X133624819Y-88714285D01*
X132624819Y-87952380D02*
X132624819Y-87285714D01*
X132624819Y-87285714D02*
X133624819Y-87714285D01*
D12*
X136826667Y-69392318D02*
X136826667Y-70299461D01*
X136826667Y-70299461D02*
X136766190Y-70480889D01*
X136766190Y-70480889D02*
X136645238Y-70601842D01*
X136645238Y-70601842D02*
X136463809Y-70662318D01*
X136463809Y-70662318D02*
X136342857Y-70662318D01*
X137370952Y-69513270D02*
X137431428Y-69452794D01*
X137431428Y-69452794D02*
X137552381Y-69392318D01*
X137552381Y-69392318D02*
X137854762Y-69392318D01*
X137854762Y-69392318D02*
X137975714Y-69452794D01*
X137975714Y-69452794D02*
X138036190Y-69513270D01*
X138036190Y-69513270D02*
X138096667Y-69634222D01*
X138096667Y-69634222D02*
X138096667Y-69755175D01*
X138096667Y-69755175D02*
X138036190Y-69936603D01*
X138036190Y-69936603D02*
X137310476Y-70662318D01*
X137310476Y-70662318D02*
X138096667Y-70662318D01*
D11*
X144104819Y-84892857D02*
X143628628Y-85226190D01*
X144104819Y-85464285D02*
X143104819Y-85464285D01*
X143104819Y-85464285D02*
X143104819Y-85083333D01*
X143104819Y-85083333D02*
X143152438Y-84988095D01*
X143152438Y-84988095D02*
X143200057Y-84940476D01*
X143200057Y-84940476D02*
X143295295Y-84892857D01*
X143295295Y-84892857D02*
X143438152Y-84892857D01*
X143438152Y-84892857D02*
X143533390Y-84940476D01*
X143533390Y-84940476D02*
X143581009Y-84988095D01*
X143581009Y-84988095D02*
X143628628Y-85083333D01*
X143628628Y-85083333D02*
X143628628Y-85464285D01*
X144104819Y-83940476D02*
X144104819Y-84511904D01*
X144104819Y-84226190D02*
X143104819Y-84226190D01*
X143104819Y-84226190D02*
X143247676Y-84321428D01*
X143247676Y-84321428D02*
X143342914Y-84416666D01*
X143342914Y-84416666D02*
X143390533Y-84511904D01*
X143438152Y-83083333D02*
X144104819Y-83083333D01*
X143057200Y-83321428D02*
X143771485Y-83559523D01*
X143771485Y-83559523D02*
X143771485Y-82940476D01*
D12*
X186267380Y-52754318D02*
X186267380Y-53782413D01*
X186267380Y-53782413D02*
X186327857Y-53903365D01*
X186327857Y-53903365D02*
X186388333Y-53963842D01*
X186388333Y-53963842D02*
X186509285Y-54024318D01*
X186509285Y-54024318D02*
X186751190Y-54024318D01*
X186751190Y-54024318D02*
X186872142Y-53963842D01*
X186872142Y-53963842D02*
X186932619Y-53903365D01*
X186932619Y-53903365D02*
X186993095Y-53782413D01*
X186993095Y-53782413D02*
X186993095Y-52754318D01*
X187779285Y-53298603D02*
X187658333Y-53238127D01*
X187658333Y-53238127D02*
X187597856Y-53177651D01*
X187597856Y-53177651D02*
X187537380Y-53056699D01*
X187537380Y-53056699D02*
X187537380Y-52996222D01*
X187537380Y-52996222D02*
X187597856Y-52875270D01*
X187597856Y-52875270D02*
X187658333Y-52814794D01*
X187658333Y-52814794D02*
X187779285Y-52754318D01*
X187779285Y-52754318D02*
X188021190Y-52754318D01*
X188021190Y-52754318D02*
X188142142Y-52814794D01*
X188142142Y-52814794D02*
X188202618Y-52875270D01*
X188202618Y-52875270D02*
X188263095Y-52996222D01*
X188263095Y-52996222D02*
X188263095Y-53056699D01*
X188263095Y-53056699D02*
X188202618Y-53177651D01*
X188202618Y-53177651D02*
X188142142Y-53238127D01*
X188142142Y-53238127D02*
X188021190Y-53298603D01*
X188021190Y-53298603D02*
X187779285Y-53298603D01*
X187779285Y-53298603D02*
X187658333Y-53359080D01*
X187658333Y-53359080D02*
X187597856Y-53419556D01*
X187597856Y-53419556D02*
X187537380Y-53540508D01*
X187537380Y-53540508D02*
X187537380Y-53782413D01*
X187537380Y-53782413D02*
X187597856Y-53903365D01*
X187597856Y-53903365D02*
X187658333Y-53963842D01*
X187658333Y-53963842D02*
X187779285Y-54024318D01*
X187779285Y-54024318D02*
X188021190Y-54024318D01*
X188021190Y-54024318D02*
X188142142Y-53963842D01*
X188142142Y-53963842D02*
X188202618Y-53903365D01*
X188202618Y-53903365D02*
X188263095Y-53782413D01*
X188263095Y-53782413D02*
X188263095Y-53540508D01*
X188263095Y-53540508D02*
X188202618Y-53419556D01*
X188202618Y-53419556D02*
X188142142Y-53359080D01*
X188142142Y-53359080D02*
X188021190Y-53298603D01*
X172038333Y-64003365D02*
X171977857Y-64063842D01*
X171977857Y-64063842D02*
X171796428Y-64124318D01*
X171796428Y-64124318D02*
X171675476Y-64124318D01*
X171675476Y-64124318D02*
X171494047Y-64063842D01*
X171494047Y-64063842D02*
X171373095Y-63942889D01*
X171373095Y-63942889D02*
X171312618Y-63821937D01*
X171312618Y-63821937D02*
X171252142Y-63580032D01*
X171252142Y-63580032D02*
X171252142Y-63398603D01*
X171252142Y-63398603D02*
X171312618Y-63156699D01*
X171312618Y-63156699D02*
X171373095Y-63035746D01*
X171373095Y-63035746D02*
X171494047Y-62914794D01*
X171494047Y-62914794D02*
X171675476Y-62854318D01*
X171675476Y-62854318D02*
X171796428Y-62854318D01*
X171796428Y-62854318D02*
X171977857Y-62914794D01*
X171977857Y-62914794D02*
X172038333Y-62975270D01*
X172461666Y-62854318D02*
X173308333Y-62854318D01*
X173308333Y-62854318D02*
X172764047Y-64124318D01*
X182532380Y-72054318D02*
X182532380Y-73082413D01*
X182532380Y-73082413D02*
X182592857Y-73203365D01*
X182592857Y-73203365D02*
X182653333Y-73263842D01*
X182653333Y-73263842D02*
X182774285Y-73324318D01*
X182774285Y-73324318D02*
X183016190Y-73324318D01*
X183016190Y-73324318D02*
X183137142Y-73263842D01*
X183137142Y-73263842D02*
X183197619Y-73203365D01*
X183197619Y-73203365D02*
X183258095Y-73082413D01*
X183258095Y-73082413D02*
X183258095Y-72054318D01*
X183741904Y-72054318D02*
X184588571Y-72054318D01*
X184588571Y-72054318D02*
X184044285Y-73324318D01*
X163288333Y-61953365D02*
X163227857Y-62013842D01*
X163227857Y-62013842D02*
X163046428Y-62074318D01*
X163046428Y-62074318D02*
X162925476Y-62074318D01*
X162925476Y-62074318D02*
X162744047Y-62013842D01*
X162744047Y-62013842D02*
X162623095Y-61892889D01*
X162623095Y-61892889D02*
X162562618Y-61771937D01*
X162562618Y-61771937D02*
X162502142Y-61530032D01*
X162502142Y-61530032D02*
X162502142Y-61348603D01*
X162502142Y-61348603D02*
X162562618Y-61106699D01*
X162562618Y-61106699D02*
X162623095Y-60985746D01*
X162623095Y-60985746D02*
X162744047Y-60864794D01*
X162744047Y-60864794D02*
X162925476Y-60804318D01*
X162925476Y-60804318D02*
X163046428Y-60804318D01*
X163046428Y-60804318D02*
X163227857Y-60864794D01*
X163227857Y-60864794D02*
X163288333Y-60925270D01*
X163772142Y-60925270D02*
X163832618Y-60864794D01*
X163832618Y-60864794D02*
X163953571Y-60804318D01*
X163953571Y-60804318D02*
X164255952Y-60804318D01*
X164255952Y-60804318D02*
X164376904Y-60864794D01*
X164376904Y-60864794D02*
X164437380Y-60925270D01*
X164437380Y-60925270D02*
X164497857Y-61046222D01*
X164497857Y-61046222D02*
X164497857Y-61167175D01*
X164497857Y-61167175D02*
X164437380Y-61348603D01*
X164437380Y-61348603D02*
X163711666Y-62074318D01*
X163711666Y-62074318D02*
X164497857Y-62074318D01*
X154788333Y-61953365D02*
X154727857Y-62013842D01*
X154727857Y-62013842D02*
X154546428Y-62074318D01*
X154546428Y-62074318D02*
X154425476Y-62074318D01*
X154425476Y-62074318D02*
X154244047Y-62013842D01*
X154244047Y-62013842D02*
X154123095Y-61892889D01*
X154123095Y-61892889D02*
X154062618Y-61771937D01*
X154062618Y-61771937D02*
X154002142Y-61530032D01*
X154002142Y-61530032D02*
X154002142Y-61348603D01*
X154002142Y-61348603D02*
X154062618Y-61106699D01*
X154062618Y-61106699D02*
X154123095Y-60985746D01*
X154123095Y-60985746D02*
X154244047Y-60864794D01*
X154244047Y-60864794D02*
X154425476Y-60804318D01*
X154425476Y-60804318D02*
X154546428Y-60804318D01*
X154546428Y-60804318D02*
X154727857Y-60864794D01*
X154727857Y-60864794D02*
X154788333Y-60925270D01*
X155997857Y-62074318D02*
X155272142Y-62074318D01*
X155634999Y-62074318D02*
X155634999Y-60804318D01*
X155634999Y-60804318D02*
X155514047Y-60985746D01*
X155514047Y-60985746D02*
X155393095Y-61106699D01*
X155393095Y-61106699D02*
X155272142Y-61167175D01*
D11*
X185357142Y-95804819D02*
X185023809Y-95328628D01*
X184785714Y-95804819D02*
X184785714Y-94804819D01*
X184785714Y-94804819D02*
X185166666Y-94804819D01*
X185166666Y-94804819D02*
X185261904Y-94852438D01*
X185261904Y-94852438D02*
X185309523Y-94900057D01*
X185309523Y-94900057D02*
X185357142Y-94995295D01*
X185357142Y-94995295D02*
X185357142Y-95138152D01*
X185357142Y-95138152D02*
X185309523Y-95233390D01*
X185309523Y-95233390D02*
X185261904Y-95281009D01*
X185261904Y-95281009D02*
X185166666Y-95328628D01*
X185166666Y-95328628D02*
X184785714Y-95328628D01*
X186309523Y-95804819D02*
X185738095Y-95804819D01*
X186023809Y-95804819D02*
X186023809Y-94804819D01*
X186023809Y-94804819D02*
X185928571Y-94947676D01*
X185928571Y-94947676D02*
X185833333Y-95042914D01*
X185833333Y-95042914D02*
X185738095Y-95090533D01*
X187214285Y-94804819D02*
X186738095Y-94804819D01*
X186738095Y-94804819D02*
X186690476Y-95281009D01*
X186690476Y-95281009D02*
X186738095Y-95233390D01*
X186738095Y-95233390D02*
X186833333Y-95185771D01*
X186833333Y-95185771D02*
X187071428Y-95185771D01*
X187071428Y-95185771D02*
X187166666Y-95233390D01*
X187166666Y-95233390D02*
X187214285Y-95281009D01*
X187214285Y-95281009D02*
X187261904Y-95376247D01*
X187261904Y-95376247D02*
X187261904Y-95614342D01*
X187261904Y-95614342D02*
X187214285Y-95709580D01*
X187214285Y-95709580D02*
X187166666Y-95757200D01*
X187166666Y-95757200D02*
X187071428Y-95804819D01*
X187071428Y-95804819D02*
X186833333Y-95804819D01*
X186833333Y-95804819D02*
X186738095Y-95757200D01*
X186738095Y-95757200D02*
X186690476Y-95709580D01*
X191954819Y-118738094D02*
X190954819Y-118738094D01*
X190954819Y-118738094D02*
X190954819Y-118499999D01*
X190954819Y-118499999D02*
X191002438Y-118357142D01*
X191002438Y-118357142D02*
X191097676Y-118261904D01*
X191097676Y-118261904D02*
X191192914Y-118214285D01*
X191192914Y-118214285D02*
X191383390Y-118166666D01*
X191383390Y-118166666D02*
X191526247Y-118166666D01*
X191526247Y-118166666D02*
X191716723Y-118214285D01*
X191716723Y-118214285D02*
X191811961Y-118261904D01*
X191811961Y-118261904D02*
X191907200Y-118357142D01*
X191907200Y-118357142D02*
X191954819Y-118499999D01*
X191954819Y-118499999D02*
X191954819Y-118738094D01*
X191954819Y-117214285D02*
X191954819Y-117785713D01*
X191954819Y-117499999D02*
X190954819Y-117499999D01*
X190954819Y-117499999D02*
X191097676Y-117595237D01*
X191097676Y-117595237D02*
X191192914Y-117690475D01*
X191192914Y-117690475D02*
X191240533Y-117785713D01*
X178789580Y-101916666D02*
X178837200Y-101964285D01*
X178837200Y-101964285D02*
X178884819Y-102107142D01*
X178884819Y-102107142D02*
X178884819Y-102202380D01*
X178884819Y-102202380D02*
X178837200Y-102345237D01*
X178837200Y-102345237D02*
X178741961Y-102440475D01*
X178741961Y-102440475D02*
X178646723Y-102488094D01*
X178646723Y-102488094D02*
X178456247Y-102535713D01*
X178456247Y-102535713D02*
X178313390Y-102535713D01*
X178313390Y-102535713D02*
X178122914Y-102488094D01*
X178122914Y-102488094D02*
X178027676Y-102440475D01*
X178027676Y-102440475D02*
X177932438Y-102345237D01*
X177932438Y-102345237D02*
X177884819Y-102202380D01*
X177884819Y-102202380D02*
X177884819Y-102107142D01*
X177884819Y-102107142D02*
X177932438Y-101964285D01*
X177932438Y-101964285D02*
X177980057Y-101916666D01*
X177884819Y-101011904D02*
X177884819Y-101488094D01*
X177884819Y-101488094D02*
X178361009Y-101535713D01*
X178361009Y-101535713D02*
X178313390Y-101488094D01*
X178313390Y-101488094D02*
X178265771Y-101392856D01*
X178265771Y-101392856D02*
X178265771Y-101154761D01*
X178265771Y-101154761D02*
X178313390Y-101059523D01*
X178313390Y-101059523D02*
X178361009Y-101011904D01*
X178361009Y-101011904D02*
X178456247Y-100964285D01*
X178456247Y-100964285D02*
X178694342Y-100964285D01*
X178694342Y-100964285D02*
X178789580Y-101011904D01*
X178789580Y-101011904D02*
X178837200Y-101059523D01*
X178837200Y-101059523D02*
X178884819Y-101154761D01*
X178884819Y-101154761D02*
X178884819Y-101392856D01*
X178884819Y-101392856D02*
X178837200Y-101488094D01*
X178837200Y-101488094D02*
X178789580Y-101535713D01*
X160333333Y-103954819D02*
X160000000Y-103478628D01*
X159761905Y-103954819D02*
X159761905Y-102954819D01*
X159761905Y-102954819D02*
X160142857Y-102954819D01*
X160142857Y-102954819D02*
X160238095Y-103002438D01*
X160238095Y-103002438D02*
X160285714Y-103050057D01*
X160285714Y-103050057D02*
X160333333Y-103145295D01*
X160333333Y-103145295D02*
X160333333Y-103288152D01*
X160333333Y-103288152D02*
X160285714Y-103383390D01*
X160285714Y-103383390D02*
X160238095Y-103431009D01*
X160238095Y-103431009D02*
X160142857Y-103478628D01*
X160142857Y-103478628D02*
X159761905Y-103478628D01*
X160666667Y-102954819D02*
X161285714Y-102954819D01*
X161285714Y-102954819D02*
X160952381Y-103335771D01*
X160952381Y-103335771D02*
X161095238Y-103335771D01*
X161095238Y-103335771D02*
X161190476Y-103383390D01*
X161190476Y-103383390D02*
X161238095Y-103431009D01*
X161238095Y-103431009D02*
X161285714Y-103526247D01*
X161285714Y-103526247D02*
X161285714Y-103764342D01*
X161285714Y-103764342D02*
X161238095Y-103859580D01*
X161238095Y-103859580D02*
X161190476Y-103907200D01*
X161190476Y-103907200D02*
X161095238Y-103954819D01*
X161095238Y-103954819D02*
X160809524Y-103954819D01*
X160809524Y-103954819D02*
X160714286Y-103907200D01*
X160714286Y-103907200D02*
X160666667Y-103859580D01*
X188401666Y-57454819D02*
X188401666Y-58169104D01*
X188401666Y-58169104D02*
X188354047Y-58311961D01*
X188354047Y-58311961D02*
X188258809Y-58407200D01*
X188258809Y-58407200D02*
X188115952Y-58454819D01*
X188115952Y-58454819D02*
X188020714Y-58454819D01*
X188782619Y-57454819D02*
X189401666Y-57454819D01*
X189401666Y-57454819D02*
X189068333Y-57835771D01*
X189068333Y-57835771D02*
X189211190Y-57835771D01*
X189211190Y-57835771D02*
X189306428Y-57883390D01*
X189306428Y-57883390D02*
X189354047Y-57931009D01*
X189354047Y-57931009D02*
X189401666Y-58026247D01*
X189401666Y-58026247D02*
X189401666Y-58264342D01*
X189401666Y-58264342D02*
X189354047Y-58359580D01*
X189354047Y-58359580D02*
X189306428Y-58407200D01*
X189306428Y-58407200D02*
X189211190Y-58454819D01*
X189211190Y-58454819D02*
X188925476Y-58454819D01*
X188925476Y-58454819D02*
X188830238Y-58407200D01*
X188830238Y-58407200D02*
X188782619Y-58359580D01*
X185470833Y-81289580D02*
X185423214Y-81337200D01*
X185423214Y-81337200D02*
X185280357Y-81384819D01*
X185280357Y-81384819D02*
X185185119Y-81384819D01*
X185185119Y-81384819D02*
X185042262Y-81337200D01*
X185042262Y-81337200D02*
X184947024Y-81241961D01*
X184947024Y-81241961D02*
X184899405Y-81146723D01*
X184899405Y-81146723D02*
X184851786Y-80956247D01*
X184851786Y-80956247D02*
X184851786Y-80813390D01*
X184851786Y-80813390D02*
X184899405Y-80622914D01*
X184899405Y-80622914D02*
X184947024Y-80527676D01*
X184947024Y-80527676D02*
X185042262Y-80432438D01*
X185042262Y-80432438D02*
X185185119Y-80384819D01*
X185185119Y-80384819D02*
X185280357Y-80384819D01*
X185280357Y-80384819D02*
X185423214Y-80432438D01*
X185423214Y-80432438D02*
X185470833Y-80480057D01*
X185804167Y-80384819D02*
X186423214Y-80384819D01*
X186423214Y-80384819D02*
X186089881Y-80765771D01*
X186089881Y-80765771D02*
X186232738Y-80765771D01*
X186232738Y-80765771D02*
X186327976Y-80813390D01*
X186327976Y-80813390D02*
X186375595Y-80861009D01*
X186375595Y-80861009D02*
X186423214Y-80956247D01*
X186423214Y-80956247D02*
X186423214Y-81194342D01*
X186423214Y-81194342D02*
X186375595Y-81289580D01*
X186375595Y-81289580D02*
X186327976Y-81337200D01*
X186327976Y-81337200D02*
X186232738Y-81384819D01*
X186232738Y-81384819D02*
X185947024Y-81384819D01*
X185947024Y-81384819D02*
X185851786Y-81337200D01*
X185851786Y-81337200D02*
X185804167Y-81289580D01*
X140854819Y-84892857D02*
X140378628Y-85226190D01*
X140854819Y-85464285D02*
X139854819Y-85464285D01*
X139854819Y-85464285D02*
X139854819Y-85083333D01*
X139854819Y-85083333D02*
X139902438Y-84988095D01*
X139902438Y-84988095D02*
X139950057Y-84940476D01*
X139950057Y-84940476D02*
X140045295Y-84892857D01*
X140045295Y-84892857D02*
X140188152Y-84892857D01*
X140188152Y-84892857D02*
X140283390Y-84940476D01*
X140283390Y-84940476D02*
X140331009Y-84988095D01*
X140331009Y-84988095D02*
X140378628Y-85083333D01*
X140378628Y-85083333D02*
X140378628Y-85464285D01*
X140854819Y-83940476D02*
X140854819Y-84511904D01*
X140854819Y-84226190D02*
X139854819Y-84226190D01*
X139854819Y-84226190D02*
X139997676Y-84321428D01*
X139997676Y-84321428D02*
X140092914Y-84416666D01*
X140092914Y-84416666D02*
X140140533Y-84511904D01*
X139854819Y-83607142D02*
X139854819Y-82988095D01*
X139854819Y-82988095D02*
X140235771Y-83321428D01*
X140235771Y-83321428D02*
X140235771Y-83178571D01*
X140235771Y-83178571D02*
X140283390Y-83083333D01*
X140283390Y-83083333D02*
X140331009Y-83035714D01*
X140331009Y-83035714D02*
X140426247Y-82988095D01*
X140426247Y-82988095D02*
X140664342Y-82988095D01*
X140664342Y-82988095D02*
X140759580Y-83035714D01*
X140759580Y-83035714D02*
X140807200Y-83083333D01*
X140807200Y-83083333D02*
X140854819Y-83178571D01*
X140854819Y-83178571D02*
X140854819Y-83464285D01*
X140854819Y-83464285D02*
X140807200Y-83559523D01*
X140807200Y-83559523D02*
X140759580Y-83607142D01*
X192204819Y-123416666D02*
X191728628Y-123749999D01*
X192204819Y-123988094D02*
X191204819Y-123988094D01*
X191204819Y-123988094D02*
X191204819Y-123607142D01*
X191204819Y-123607142D02*
X191252438Y-123511904D01*
X191252438Y-123511904D02*
X191300057Y-123464285D01*
X191300057Y-123464285D02*
X191395295Y-123416666D01*
X191395295Y-123416666D02*
X191538152Y-123416666D01*
X191538152Y-123416666D02*
X191633390Y-123464285D01*
X191633390Y-123464285D02*
X191681009Y-123511904D01*
X191681009Y-123511904D02*
X191728628Y-123607142D01*
X191728628Y-123607142D02*
X191728628Y-123988094D01*
X192204819Y-122940475D02*
X192204819Y-122749999D01*
X192204819Y-122749999D02*
X192157200Y-122654761D01*
X192157200Y-122654761D02*
X192109580Y-122607142D01*
X192109580Y-122607142D02*
X191966723Y-122511904D01*
X191966723Y-122511904D02*
X191776247Y-122464285D01*
X191776247Y-122464285D02*
X191395295Y-122464285D01*
X191395295Y-122464285D02*
X191300057Y-122511904D01*
X191300057Y-122511904D02*
X191252438Y-122559523D01*
X191252438Y-122559523D02*
X191204819Y-122654761D01*
X191204819Y-122654761D02*
X191204819Y-122845237D01*
X191204819Y-122845237D02*
X191252438Y-122940475D01*
X191252438Y-122940475D02*
X191300057Y-122988094D01*
X191300057Y-122988094D02*
X191395295Y-123035713D01*
X191395295Y-123035713D02*
X191633390Y-123035713D01*
X191633390Y-123035713D02*
X191728628Y-122988094D01*
X191728628Y-122988094D02*
X191776247Y-122940475D01*
X191776247Y-122940475D02*
X191823866Y-122845237D01*
X191823866Y-122845237D02*
X191823866Y-122654761D01*
X191823866Y-122654761D02*
X191776247Y-122559523D01*
X191776247Y-122559523D02*
X191728628Y-122511904D01*
X191728628Y-122511904D02*
X191633390Y-122464285D01*
X188954819Y-123892857D02*
X188478628Y-124226190D01*
X188954819Y-124464285D02*
X187954819Y-124464285D01*
X187954819Y-124464285D02*
X187954819Y-124083333D01*
X187954819Y-124083333D02*
X188002438Y-123988095D01*
X188002438Y-123988095D02*
X188050057Y-123940476D01*
X188050057Y-123940476D02*
X188145295Y-123892857D01*
X188145295Y-123892857D02*
X188288152Y-123892857D01*
X188288152Y-123892857D02*
X188383390Y-123940476D01*
X188383390Y-123940476D02*
X188431009Y-123988095D01*
X188431009Y-123988095D02*
X188478628Y-124083333D01*
X188478628Y-124083333D02*
X188478628Y-124464285D01*
X188954819Y-122940476D02*
X188954819Y-123511904D01*
X188954819Y-123226190D02*
X187954819Y-123226190D01*
X187954819Y-123226190D02*
X188097676Y-123321428D01*
X188097676Y-123321428D02*
X188192914Y-123416666D01*
X188192914Y-123416666D02*
X188240533Y-123511904D01*
X187954819Y-122321428D02*
X187954819Y-122226190D01*
X187954819Y-122226190D02*
X188002438Y-122130952D01*
X188002438Y-122130952D02*
X188050057Y-122083333D01*
X188050057Y-122083333D02*
X188145295Y-122035714D01*
X188145295Y-122035714D02*
X188335771Y-121988095D01*
X188335771Y-121988095D02*
X188573866Y-121988095D01*
X188573866Y-121988095D02*
X188764342Y-122035714D01*
X188764342Y-122035714D02*
X188859580Y-122083333D01*
X188859580Y-122083333D02*
X188907200Y-122130952D01*
X188907200Y-122130952D02*
X188954819Y-122226190D01*
X188954819Y-122226190D02*
X188954819Y-122321428D01*
X188954819Y-122321428D02*
X188907200Y-122416666D01*
X188907200Y-122416666D02*
X188859580Y-122464285D01*
X188859580Y-122464285D02*
X188764342Y-122511904D01*
X188764342Y-122511904D02*
X188573866Y-122559523D01*
X188573866Y-122559523D02*
X188335771Y-122559523D01*
X188335771Y-122559523D02*
X188145295Y-122511904D01*
X188145295Y-122511904D02*
X188050057Y-122464285D01*
X188050057Y-122464285D02*
X188002438Y-122416666D01*
X188002438Y-122416666D02*
X187954819Y-122321428D01*
X137604819Y-84892857D02*
X137128628Y-85226190D01*
X137604819Y-85464285D02*
X136604819Y-85464285D01*
X136604819Y-85464285D02*
X136604819Y-85083333D01*
X136604819Y-85083333D02*
X136652438Y-84988095D01*
X136652438Y-84988095D02*
X136700057Y-84940476D01*
X136700057Y-84940476D02*
X136795295Y-84892857D01*
X136795295Y-84892857D02*
X136938152Y-84892857D01*
X136938152Y-84892857D02*
X137033390Y-84940476D01*
X137033390Y-84940476D02*
X137081009Y-84988095D01*
X137081009Y-84988095D02*
X137128628Y-85083333D01*
X137128628Y-85083333D02*
X137128628Y-85464285D01*
X137604819Y-83940476D02*
X137604819Y-84511904D01*
X137604819Y-84226190D02*
X136604819Y-84226190D01*
X136604819Y-84226190D02*
X136747676Y-84321428D01*
X136747676Y-84321428D02*
X136842914Y-84416666D01*
X136842914Y-84416666D02*
X136890533Y-84511904D01*
X136700057Y-83559523D02*
X136652438Y-83511904D01*
X136652438Y-83511904D02*
X136604819Y-83416666D01*
X136604819Y-83416666D02*
X136604819Y-83178571D01*
X136604819Y-83178571D02*
X136652438Y-83083333D01*
X136652438Y-83083333D02*
X136700057Y-83035714D01*
X136700057Y-83035714D02*
X136795295Y-82988095D01*
X136795295Y-82988095D02*
X136890533Y-82988095D01*
X136890533Y-82988095D02*
X137033390Y-83035714D01*
X137033390Y-83035714D02*
X137604819Y-83607142D01*
X137604819Y-83607142D02*
X137604819Y-82988095D01*
X168083333Y-69609580D02*
X168035714Y-69657200D01*
X168035714Y-69657200D02*
X167892857Y-69704819D01*
X167892857Y-69704819D02*
X167797619Y-69704819D01*
X167797619Y-69704819D02*
X167654762Y-69657200D01*
X167654762Y-69657200D02*
X167559524Y-69561961D01*
X167559524Y-69561961D02*
X167511905Y-69466723D01*
X167511905Y-69466723D02*
X167464286Y-69276247D01*
X167464286Y-69276247D02*
X167464286Y-69133390D01*
X167464286Y-69133390D02*
X167511905Y-68942914D01*
X167511905Y-68942914D02*
X167559524Y-68847676D01*
X167559524Y-68847676D02*
X167654762Y-68752438D01*
X167654762Y-68752438D02*
X167797619Y-68704819D01*
X167797619Y-68704819D02*
X167892857Y-68704819D01*
X167892857Y-68704819D02*
X168035714Y-68752438D01*
X168035714Y-68752438D02*
X168083333Y-68800057D01*
X168559524Y-69704819D02*
X168750000Y-69704819D01*
X168750000Y-69704819D02*
X168845238Y-69657200D01*
X168845238Y-69657200D02*
X168892857Y-69609580D01*
X168892857Y-69609580D02*
X168988095Y-69466723D01*
X168988095Y-69466723D02*
X169035714Y-69276247D01*
X169035714Y-69276247D02*
X169035714Y-68895295D01*
X169035714Y-68895295D02*
X168988095Y-68800057D01*
X168988095Y-68800057D02*
X168940476Y-68752438D01*
X168940476Y-68752438D02*
X168845238Y-68704819D01*
X168845238Y-68704819D02*
X168654762Y-68704819D01*
X168654762Y-68704819D02*
X168559524Y-68752438D01*
X168559524Y-68752438D02*
X168511905Y-68800057D01*
X168511905Y-68800057D02*
X168464286Y-68895295D01*
X168464286Y-68895295D02*
X168464286Y-69133390D01*
X168464286Y-69133390D02*
X168511905Y-69228628D01*
X168511905Y-69228628D02*
X168559524Y-69276247D01*
X168559524Y-69276247D02*
X168654762Y-69323866D01*
X168654762Y-69323866D02*
X168845238Y-69323866D01*
X168845238Y-69323866D02*
X168940476Y-69276247D01*
X168940476Y-69276247D02*
X168988095Y-69228628D01*
X168988095Y-69228628D02*
X169035714Y-69133390D01*
X160333333Y-109454819D02*
X160000000Y-108978628D01*
X159761905Y-109454819D02*
X159761905Y-108454819D01*
X159761905Y-108454819D02*
X160142857Y-108454819D01*
X160142857Y-108454819D02*
X160238095Y-108502438D01*
X160238095Y-108502438D02*
X160285714Y-108550057D01*
X160285714Y-108550057D02*
X160333333Y-108645295D01*
X160333333Y-108645295D02*
X160333333Y-108788152D01*
X160333333Y-108788152D02*
X160285714Y-108883390D01*
X160285714Y-108883390D02*
X160238095Y-108931009D01*
X160238095Y-108931009D02*
X160142857Y-108978628D01*
X160142857Y-108978628D02*
X159761905Y-108978628D01*
X160714286Y-108550057D02*
X160761905Y-108502438D01*
X160761905Y-108502438D02*
X160857143Y-108454819D01*
X160857143Y-108454819D02*
X161095238Y-108454819D01*
X161095238Y-108454819D02*
X161190476Y-108502438D01*
X161190476Y-108502438D02*
X161238095Y-108550057D01*
X161238095Y-108550057D02*
X161285714Y-108645295D01*
X161285714Y-108645295D02*
X161285714Y-108740533D01*
X161285714Y-108740533D02*
X161238095Y-108883390D01*
X161238095Y-108883390D02*
X160666667Y-109454819D01*
X160666667Y-109454819D02*
X161285714Y-109454819D01*
X177039580Y-110379166D02*
X177087200Y-110426785D01*
X177087200Y-110426785D02*
X177134819Y-110569642D01*
X177134819Y-110569642D02*
X177134819Y-110664880D01*
X177134819Y-110664880D02*
X177087200Y-110807737D01*
X177087200Y-110807737D02*
X176991961Y-110902975D01*
X176991961Y-110902975D02*
X176896723Y-110950594D01*
X176896723Y-110950594D02*
X176706247Y-110998213D01*
X176706247Y-110998213D02*
X176563390Y-110998213D01*
X176563390Y-110998213D02*
X176372914Y-110950594D01*
X176372914Y-110950594D02*
X176277676Y-110902975D01*
X176277676Y-110902975D02*
X176182438Y-110807737D01*
X176182438Y-110807737D02*
X176134819Y-110664880D01*
X176134819Y-110664880D02*
X176134819Y-110569642D01*
X176134819Y-110569642D02*
X176182438Y-110426785D01*
X176182438Y-110426785D02*
X176230057Y-110379166D01*
X176563390Y-109807737D02*
X176515771Y-109902975D01*
X176515771Y-109902975D02*
X176468152Y-109950594D01*
X176468152Y-109950594D02*
X176372914Y-109998213D01*
X176372914Y-109998213D02*
X176325295Y-109998213D01*
X176325295Y-109998213D02*
X176230057Y-109950594D01*
X176230057Y-109950594D02*
X176182438Y-109902975D01*
X176182438Y-109902975D02*
X176134819Y-109807737D01*
X176134819Y-109807737D02*
X176134819Y-109617261D01*
X176134819Y-109617261D02*
X176182438Y-109522023D01*
X176182438Y-109522023D02*
X176230057Y-109474404D01*
X176230057Y-109474404D02*
X176325295Y-109426785D01*
X176325295Y-109426785D02*
X176372914Y-109426785D01*
X176372914Y-109426785D02*
X176468152Y-109474404D01*
X176468152Y-109474404D02*
X176515771Y-109522023D01*
X176515771Y-109522023D02*
X176563390Y-109617261D01*
X176563390Y-109617261D02*
X176563390Y-109807737D01*
X176563390Y-109807737D02*
X176611009Y-109902975D01*
X176611009Y-109902975D02*
X176658628Y-109950594D01*
X176658628Y-109950594D02*
X176753866Y-109998213D01*
X176753866Y-109998213D02*
X176944342Y-109998213D01*
X176944342Y-109998213D02*
X177039580Y-109950594D01*
X177039580Y-109950594D02*
X177087200Y-109902975D01*
X177087200Y-109902975D02*
X177134819Y-109807737D01*
X177134819Y-109807737D02*
X177134819Y-109617261D01*
X177134819Y-109617261D02*
X177087200Y-109522023D01*
X177087200Y-109522023D02*
X177039580Y-109474404D01*
X177039580Y-109474404D02*
X176944342Y-109426785D01*
X176944342Y-109426785D02*
X176753866Y-109426785D01*
X176753866Y-109426785D02*
X176658628Y-109474404D01*
X176658628Y-109474404D02*
X176611009Y-109522023D01*
X176611009Y-109522023D02*
X176563390Y-109617261D01*
X178289580Y-79416666D02*
X178337200Y-79464285D01*
X178337200Y-79464285D02*
X178384819Y-79607142D01*
X178384819Y-79607142D02*
X178384819Y-79702380D01*
X178384819Y-79702380D02*
X178337200Y-79845237D01*
X178337200Y-79845237D02*
X178241961Y-79940475D01*
X178241961Y-79940475D02*
X178146723Y-79988094D01*
X178146723Y-79988094D02*
X177956247Y-80035713D01*
X177956247Y-80035713D02*
X177813390Y-80035713D01*
X177813390Y-80035713D02*
X177622914Y-79988094D01*
X177622914Y-79988094D02*
X177527676Y-79940475D01*
X177527676Y-79940475D02*
X177432438Y-79845237D01*
X177432438Y-79845237D02*
X177384819Y-79702380D01*
X177384819Y-79702380D02*
X177384819Y-79607142D01*
X177384819Y-79607142D02*
X177432438Y-79464285D01*
X177432438Y-79464285D02*
X177480057Y-79416666D01*
X177718152Y-78559523D02*
X178384819Y-78559523D01*
X177337200Y-78797618D02*
X178051485Y-79035713D01*
X178051485Y-79035713D02*
X178051485Y-78416666D01*
D12*
X196826667Y-60804318D02*
X196826667Y-61711461D01*
X196826667Y-61711461D02*
X196766190Y-61892889D01*
X196766190Y-61892889D02*
X196645238Y-62013842D01*
X196645238Y-62013842D02*
X196463809Y-62074318D01*
X196463809Y-62074318D02*
X196342857Y-62074318D01*
X198096667Y-62074318D02*
X197370952Y-62074318D01*
X197733809Y-62074318D02*
X197733809Y-60804318D01*
X197733809Y-60804318D02*
X197612857Y-60985746D01*
X197612857Y-60985746D02*
X197491905Y-61106699D01*
X197491905Y-61106699D02*
X197370952Y-61167175D01*
D11*
X134104819Y-84892857D02*
X133628628Y-85226190D01*
X134104819Y-85464285D02*
X133104819Y-85464285D01*
X133104819Y-85464285D02*
X133104819Y-85083333D01*
X133104819Y-85083333D02*
X133152438Y-84988095D01*
X133152438Y-84988095D02*
X133200057Y-84940476D01*
X133200057Y-84940476D02*
X133295295Y-84892857D01*
X133295295Y-84892857D02*
X133438152Y-84892857D01*
X133438152Y-84892857D02*
X133533390Y-84940476D01*
X133533390Y-84940476D02*
X133581009Y-84988095D01*
X133581009Y-84988095D02*
X133628628Y-85083333D01*
X133628628Y-85083333D02*
X133628628Y-85464285D01*
X134104819Y-83940476D02*
X134104819Y-84511904D01*
X134104819Y-84226190D02*
X133104819Y-84226190D01*
X133104819Y-84226190D02*
X133247676Y-84321428D01*
X133247676Y-84321428D02*
X133342914Y-84416666D01*
X133342914Y-84416666D02*
X133390533Y-84511904D01*
X134104819Y-82988095D02*
X134104819Y-83559523D01*
X134104819Y-83273809D02*
X133104819Y-83273809D01*
X133104819Y-83273809D02*
X133247676Y-83369047D01*
X133247676Y-83369047D02*
X133342914Y-83464285D01*
X133342914Y-83464285D02*
X133390533Y-83559523D01*
D13*
%TO.C,C6*%
X175515000Y-116261252D02*
X175515000Y-115738748D01*
X176985000Y-116261252D02*
X176985000Y-115738748D01*
%TO.C,R1*%
X160272936Y-99015000D02*
X160727064Y-99015000D01*
X160272936Y-100485000D02*
X160727064Y-100485000D01*
%TO.C,D2*%
X186265000Y-117200000D02*
X186265000Y-119660000D01*
X186265000Y-119660000D02*
X187735000Y-119660000D01*
X187735000Y-119660000D02*
X187735000Y-117200000D01*
%TO.C,J7*%
X134170000Y-89330000D02*
X134170000Y-88000000D01*
X135500000Y-89330000D02*
X134170000Y-89330000D01*
X136770000Y-86670000D02*
X139370000Y-86670000D01*
X136770000Y-89330000D02*
X136770000Y-86670000D01*
X136770000Y-89330000D02*
X139370000Y-89330000D01*
X139370000Y-89330000D02*
X139370000Y-86670000D01*
D14*
%TO.C,J2*%
X130645000Y-61985000D02*
X130645000Y-77065000D01*
X130645000Y-77065000D02*
X133250000Y-77065000D01*
X132250000Y-61985000D02*
X130645000Y-61985000D01*
D15*
X141250000Y-80825000D02*
X141250000Y-80825000D01*
X141250000Y-80925000D02*
X141250000Y-80925000D01*
D14*
X142250000Y-61985000D02*
X143855000Y-61985000D01*
X143855000Y-61985000D02*
X143855000Y-77065000D01*
X143855000Y-77065000D02*
X141250000Y-77065000D01*
D15*
X141250000Y-80825000D02*
G75*
G02*
X141250000Y-80925000I0J-50000D01*
G01*
X141250000Y-80925000D02*
G75*
G02*
X141250000Y-80825000I0J50000D01*
G01*
D13*
%TO.C,R14*%
X141265000Y-84022936D02*
X141265000Y-84477064D01*
X142735000Y-84022936D02*
X142735000Y-84477064D01*
D16*
%TO.C,U8*%
X188910000Y-52175000D02*
X188910000Y-54825000D01*
X188910000Y-54825000D02*
X196560000Y-54825000D01*
X195275000Y-52175000D02*
X188910000Y-52175000D01*
X196560000Y-54825000D02*
X196560000Y-53450000D01*
D17*
%TO.C,G1*%
G36*
X164361226Y-95484312D02*
G01*
X164361226Y-96123736D01*
X165969893Y-96123736D01*
X167578559Y-96123736D01*
X167578559Y-96631736D01*
X167578559Y-97139736D01*
X165969893Y-97139736D01*
X164361226Y-97139736D01*
X164361226Y-97732403D01*
X164361226Y-98325069D01*
X163893806Y-98325069D01*
X163426386Y-98325069D01*
X163449306Y-96610569D01*
X163472226Y-94896069D01*
X163916726Y-94870478D01*
X164361226Y-94844887D01*
X164361226Y-95484312D01*
G37*
G36*
X164361226Y-71570403D02*
G01*
X164361226Y-72163069D01*
X165969893Y-72163069D01*
X167578559Y-72163069D01*
X167578559Y-72671069D01*
X167578559Y-73179069D01*
X165969893Y-73179069D01*
X164361226Y-73179069D01*
X164361226Y-73818494D01*
X164361226Y-74457919D01*
X163916726Y-74432327D01*
X163472226Y-74406736D01*
X163449306Y-72692236D01*
X163426386Y-70977736D01*
X163893806Y-70977736D01*
X164361226Y-70977736D01*
X164361226Y-71570403D01*
G37*
G36*
X165097834Y-78767386D02*
G01*
X165744331Y-78770744D01*
X166244621Y-78784762D01*
X166621772Y-78815770D01*
X166898854Y-78870098D01*
X167098938Y-78954074D01*
X167245093Y-79074029D01*
X167360388Y-79236292D01*
X167451851Y-79413240D01*
X167559344Y-79751484D01*
X167623681Y-80184507D01*
X167641592Y-80645409D01*
X167609812Y-81067294D01*
X167545641Y-81333841D01*
X167427693Y-81611512D01*
X167291208Y-81826421D01*
X167114046Y-81986432D01*
X166874070Y-82099408D01*
X166549141Y-82173212D01*
X166117120Y-82215708D01*
X165555871Y-82234759D01*
X164998945Y-82238403D01*
X163429893Y-82238403D01*
X163429893Y-81730403D01*
X163429893Y-81222403D01*
X164953893Y-81222403D01*
X165500706Y-81221149D01*
X165903893Y-81215672D01*
X166189152Y-81203405D01*
X166382180Y-81181776D01*
X166508677Y-81148215D01*
X166594340Y-81100153D01*
X166647226Y-81053069D01*
X166772876Y-80825017D01*
X166818988Y-80518825D01*
X166784162Y-80206580D01*
X166668393Y-79962034D01*
X166605854Y-79898182D01*
X166522949Y-79851095D01*
X166394314Y-79817742D01*
X166194581Y-79795091D01*
X165898384Y-79780109D01*
X165480356Y-79769764D01*
X164996226Y-79762154D01*
X163472226Y-79740736D01*
X163446834Y-79253903D01*
X163421442Y-78767069D01*
X165097834Y-78767386D01*
G37*
G36*
X165868678Y-82830674D02*
G01*
X166312078Y-82879614D01*
X166480654Y-82916313D01*
X166887906Y-83106923D01*
X167237822Y-83423133D01*
X167489048Y-83821966D01*
X167566110Y-84044374D01*
X167603903Y-84285235D01*
X167631553Y-84636226D01*
X167648175Y-85047113D01*
X167652880Y-85467661D01*
X167644783Y-85847634D01*
X167622995Y-86136799D01*
X167604863Y-86238903D01*
X167581168Y-86285241D01*
X167524067Y-86320827D01*
X167413629Y-86347063D01*
X167229922Y-86365351D01*
X166953014Y-86377092D01*
X166824397Y-86379267D01*
X166562975Y-86383688D01*
X166039872Y-86386540D01*
X165498018Y-86387069D01*
X163429893Y-86387069D01*
X163429893Y-85317392D01*
X163437570Y-84898280D01*
X164199350Y-84898280D01*
X164206060Y-85032403D01*
X164234226Y-85328736D01*
X165529312Y-85352129D01*
X166824397Y-85375522D01*
X166799312Y-84810500D01*
X166778102Y-84497313D01*
X166736774Y-84301718D01*
X166656940Y-84171981D01*
X166535184Y-84067440D01*
X166387090Y-83977693D01*
X166208783Y-83923591D01*
X165954889Y-83896909D01*
X165580036Y-83889421D01*
X165553168Y-83889403D01*
X165071204Y-83907192D01*
X164726638Y-83959090D01*
X164584653Y-84010109D01*
X164380707Y-84207538D01*
X164246496Y-84519193D01*
X164199350Y-84898280D01*
X163437570Y-84898280D01*
X163438134Y-84867511D01*
X163460610Y-84450010D01*
X163493945Y-84111337D01*
X163532486Y-83905287D01*
X163736760Y-83499414D01*
X164064750Y-83164802D01*
X164473286Y-82944027D01*
X164523579Y-82927831D01*
X164902814Y-82855203D01*
X165375052Y-82822677D01*
X165868678Y-82830674D01*
G37*
G36*
X167535497Y-91334109D02*
G01*
X167564072Y-91455928D01*
X167566684Y-91709727D01*
X167561503Y-91851259D01*
X167536226Y-92426053D01*
X167197559Y-92520774D01*
X166858893Y-92615495D01*
X166858893Y-93240141D01*
X166858893Y-93864788D01*
X167197559Y-93959485D01*
X167536226Y-94054183D01*
X167561433Y-94580959D01*
X167565770Y-94854159D01*
X167552102Y-95044566D01*
X167526798Y-95107736D01*
X167431945Y-95083214D01*
X167200447Y-95014768D01*
X166856937Y-94910082D01*
X166426051Y-94776836D01*
X165932421Y-94622712D01*
X165864059Y-94601201D01*
X165400680Y-94455394D01*
X164855463Y-94282561D01*
X164321403Y-94111898D01*
X163959059Y-93995142D01*
X163429893Y-93823930D01*
X163429893Y-93245069D01*
X164445893Y-93245069D01*
X164522085Y-93287994D01*
X164724433Y-93354298D01*
X165013596Y-93431528D01*
X165102059Y-93452780D01*
X165425374Y-93530466D01*
X165690198Y-93597396D01*
X165848469Y-93641343D01*
X165864059Y-93646653D01*
X165930196Y-93617697D01*
X165963445Y-93454388D01*
X165969893Y-93245069D01*
X165956978Y-92974064D01*
X165914823Y-92851255D01*
X165864059Y-92843486D01*
X165735266Y-92880828D01*
X165489488Y-92943808D01*
X165174786Y-93020198D01*
X165102059Y-93037359D01*
X164796098Y-93115405D01*
X164566256Y-93185912D01*
X164451876Y-93236425D01*
X164445893Y-93245069D01*
X163429893Y-93245069D01*
X163429893Y-93243163D01*
X163439562Y-92946182D01*
X163464937Y-92722128D01*
X163500563Y-92618747D01*
X163501259Y-92618289D01*
X163599045Y-92580990D01*
X163834814Y-92500202D01*
X164185152Y-92383667D01*
X164626645Y-92239132D01*
X165135879Y-92074341D01*
X165469759Y-91967184D01*
X166011453Y-91793592D01*
X166502283Y-91635777D01*
X166918231Y-91501507D01*
X167235276Y-91398544D01*
X167429402Y-91334655D01*
X167476837Y-91318325D01*
X167535497Y-91334109D01*
G37*
G36*
X166780779Y-98631654D02*
G01*
X166995794Y-98725387D01*
X167249474Y-98966426D01*
X167446380Y-99338112D01*
X167580281Y-99809475D01*
X167644947Y-100349549D01*
X167634144Y-100927363D01*
X167549575Y-101477398D01*
X167482979Y-101746607D01*
X167423098Y-101943069D01*
X167391055Y-102012130D01*
X167286450Y-102022265D01*
X167081804Y-101989344D01*
X166986609Y-101965929D01*
X166766047Y-101894484D01*
X166674764Y-101816804D01*
X166675253Y-101697387D01*
X166680336Y-101676008D01*
X166788564Y-101140191D01*
X166838890Y-100646931D01*
X166832585Y-100222757D01*
X166770919Y-99894197D01*
X166655165Y-99687779D01*
X166582814Y-99640646D01*
X166412855Y-99657374D01*
X166245731Y-99840135D01*
X166080571Y-100190168D01*
X165972328Y-100513069D01*
X165776186Y-101061160D01*
X165554831Y-101459924D01*
X165291432Y-101729161D01*
X164969160Y-101888670D01*
X164762339Y-101936540D01*
X164387321Y-101917204D01*
X164026787Y-101757047D01*
X163730493Y-101480865D01*
X163669282Y-101391762D01*
X163566818Y-101147463D01*
X163494813Y-100817712D01*
X163452233Y-100434260D01*
X163438046Y-100028861D01*
X163451219Y-99633267D01*
X163490719Y-99279230D01*
X163555512Y-98998504D01*
X163644567Y-98822841D01*
X163754135Y-98783150D01*
X163941745Y-98834034D01*
X164135747Y-98882407D01*
X164299936Y-98942733D01*
X164347306Y-99053969D01*
X164330520Y-99203927D01*
X164255328Y-99681429D01*
X164219021Y-100032181D01*
X164220044Y-100293867D01*
X164256842Y-100504170D01*
X164274464Y-100562387D01*
X164371744Y-100773976D01*
X164500289Y-100857914D01*
X164577284Y-100865069D01*
X164725873Y-100826579D01*
X164855290Y-100696173D01*
X164979032Y-100451450D01*
X165110593Y-100070009D01*
X165163155Y-99892520D01*
X165262834Y-99576936D01*
X165367606Y-99292622D01*
X165431863Y-99147943D01*
X165670521Y-98857140D01*
X166006909Y-98665507D01*
X166393003Y-98586020D01*
X166780779Y-98631654D01*
G37*
G36*
X167436444Y-87068229D02*
G01*
X167588072Y-87091893D01*
X167649845Y-87153674D01*
X167661498Y-87271852D01*
X167661366Y-87297236D01*
X167624708Y-87523551D01*
X167535856Y-87797764D01*
X167505477Y-87869120D01*
X167388656Y-88056046D01*
X167196478Y-88294728D01*
X166962356Y-88551100D01*
X166719706Y-88791094D01*
X166501940Y-88980643D01*
X166342472Y-89085678D01*
X166301736Y-89096403D01*
X166250277Y-89170853D01*
X166224562Y-89353914D01*
X166223893Y-89392736D01*
X166223893Y-89689069D01*
X166901226Y-89689069D01*
X167578559Y-89689069D01*
X167578559Y-90197069D01*
X167578559Y-90705069D01*
X165504226Y-90705069D01*
X164817029Y-90705069D01*
X163429893Y-90705069D01*
X163429893Y-89689069D01*
X164172166Y-89689069D01*
X164817029Y-89689069D01*
X165461893Y-89689069D01*
X165461893Y-89199908D01*
X165433561Y-88827480D01*
X165354518Y-88563240D01*
X165330092Y-88522575D01*
X165190919Y-88392951D01*
X164978419Y-88339668D01*
X164832459Y-88334403D01*
X164560053Y-88360998D01*
X164381635Y-88459767D01*
X164275289Y-88659186D01*
X164219101Y-88987732D01*
X164206644Y-89147594D01*
X164172166Y-89689069D01*
X163429893Y-89689069D01*
X163429893Y-89550726D01*
X163437265Y-89087636D01*
X163457458Y-88659601D01*
X163487589Y-88309682D01*
X163524773Y-88080942D01*
X163529463Y-88064044D01*
X163723000Y-87689769D01*
X164032485Y-87419984D01*
X164430097Y-87269717D01*
X164888013Y-87253997D01*
X164998036Y-87270823D01*
X165230717Y-87355655D01*
X165482247Y-87507715D01*
X165705299Y-87690124D01*
X165852545Y-87866001D01*
X165885226Y-87962174D01*
X165928311Y-88069175D01*
X165960040Y-88080403D01*
X166075988Y-88015978D01*
X166240972Y-87854566D01*
X166416210Y-87643962D01*
X166562922Y-87431963D01*
X166642325Y-87266364D01*
X166647226Y-87233492D01*
X166665827Y-87139044D01*
X166747438Y-87088009D01*
X166930771Y-87067502D01*
X167155226Y-87064403D01*
X167436444Y-87068229D01*
G37*
G36*
X166858785Y-74809338D02*
G01*
X167172445Y-75032654D01*
X167414438Y-75377313D01*
X167577609Y-75829854D01*
X167654801Y-76376819D01*
X167638859Y-77004748D01*
X167544746Y-77601398D01*
X167479994Y-77871729D01*
X167420170Y-78069900D01*
X167387118Y-78140066D01*
X167278231Y-78156110D01*
X167074133Y-78129584D01*
X167011669Y-78115742D01*
X166865192Y-78079596D01*
X166770718Y-78034818D01*
X166722187Y-77950683D01*
X166713541Y-77796463D01*
X166738717Y-77541433D01*
X166791658Y-77154864D01*
X166804307Y-77064350D01*
X166850442Y-76533640D01*
X166822226Y-76144250D01*
X166720537Y-75900060D01*
X166546253Y-75804950D01*
X166519225Y-75803736D01*
X166397245Y-75820241D01*
X166297434Y-75887273D01*
X166204134Y-76031107D01*
X166101685Y-76278017D01*
X165974428Y-76654279D01*
X165930666Y-76791281D01*
X165711116Y-77343244D01*
X165451543Y-77735751D01*
X165147649Y-77974869D01*
X165067088Y-78010318D01*
X164650677Y-78086248D01*
X164245500Y-78013574D01*
X163892463Y-77807410D01*
X163632474Y-77482869D01*
X163630781Y-77479647D01*
X163537722Y-77200718D01*
X163474187Y-76807005D01*
X163443205Y-76350967D01*
X163447801Y-75885068D01*
X163491004Y-75461770D01*
X163508800Y-75365812D01*
X163607079Y-74892402D01*
X163962986Y-74979748D01*
X164184977Y-75036612D01*
X164322805Y-75076435D01*
X164341438Y-75084016D01*
X164340744Y-75169389D01*
X164318332Y-75379703D01*
X164278854Y-75672631D01*
X164270517Y-75729372D01*
X164219916Y-76257525D01*
X164247896Y-76638548D01*
X164355165Y-76875679D01*
X164542432Y-76972152D01*
X164542699Y-76972183D01*
X164694571Y-76970306D01*
X164812049Y-76905266D01*
X164913678Y-76750466D01*
X165018000Y-76479307D01*
X165121207Y-76142403D01*
X165305847Y-75600490D01*
X165505508Y-75208246D01*
X165733523Y-74946018D01*
X166003226Y-74794150D01*
X166045085Y-74780572D01*
X166480613Y-74720824D01*
X166858785Y-74809338D01*
G37*
D16*
%TO.C,C7*%
X168100000Y-54825000D02*
X168100000Y-61050000D01*
X176400000Y-51550000D02*
X176400000Y-61050000D01*
%TO.C,U7*%
X178750000Y-65000000D02*
X182250000Y-65000000D01*
X178750000Y-71500000D02*
X178750000Y-65000000D01*
X182250000Y-65000000D02*
X182250000Y-71500000D01*
X182250000Y-71500000D02*
X178750000Y-71500000D01*
X184525000Y-71375000D02*
X182775000Y-71375000D01*
%TO.C,C2*%
X160200000Y-54400000D02*
X160200000Y-59350000D01*
X166800000Y-51925000D02*
X166800000Y-59350000D01*
%TO.C,C1*%
X151700000Y-54400000D02*
X151700000Y-59350000D01*
X158300000Y-51925000D02*
X158300000Y-59350000D01*
D13*
%TO.C,R15*%
X185772936Y-96265000D02*
X186227064Y-96265000D01*
X185772936Y-97735000D02*
X186227064Y-97735000D01*
%TO.C,D1*%
X189265000Y-117200000D02*
X189265000Y-119660000D01*
X189265000Y-119660000D02*
X190735000Y-119660000D01*
X190735000Y-119660000D02*
X190735000Y-117200000D01*
%TO.C,C5*%
X176015000Y-101488748D02*
X176015000Y-102011252D01*
X177485000Y-101488748D02*
X177485000Y-102011252D01*
%TO.C,R3*%
X160272936Y-104265000D02*
X160727064Y-104265000D01*
X160272936Y-105735000D02*
X160727064Y-105735000D01*
%TO.C,J3*%
X190130000Y-59330000D02*
X190130000Y-58000000D01*
X191460000Y-59330000D02*
X190130000Y-59330000D01*
X192730000Y-56670000D02*
X195330000Y-56670000D01*
X192730000Y-59330000D02*
X192730000Y-56670000D01*
X192730000Y-59330000D02*
X195330000Y-59330000D01*
X195330000Y-59330000D02*
X195330000Y-56670000D01*
%TO.C,C3*%
X185783767Y-78990000D02*
X185491233Y-78990000D01*
X185783767Y-80010000D02*
X185491233Y-80010000D01*
%TO.C,R13*%
X138015000Y-84022936D02*
X138015000Y-84477064D01*
X139485000Y-84022936D02*
X139485000Y-84477064D01*
%TO.C,R9*%
X189265000Y-123022936D02*
X189265000Y-123477064D01*
X190735000Y-123022936D02*
X190735000Y-123477064D01*
%TO.C,R10*%
X186265000Y-123022936D02*
X186265000Y-123477064D01*
X187735000Y-123022936D02*
X187735000Y-123477064D01*
%TO.C,R12*%
X134765000Y-84022936D02*
X134765000Y-84477064D01*
X136235000Y-84022936D02*
X136235000Y-84477064D01*
%TO.C,C9*%
X167340000Y-66711252D02*
X167340000Y-65288748D01*
X169160000Y-66711252D02*
X169160000Y-65288748D01*
%TO.C,R2*%
X160272936Y-106765000D02*
X160727064Y-106765000D01*
X160272936Y-108235000D02*
X160727064Y-108235000D01*
%TO.C,C8*%
X174265000Y-109951248D02*
X174265000Y-110473752D01*
X175735000Y-109951248D02*
X175735000Y-110473752D01*
%TO.C,C4*%
X175515000Y-78988748D02*
X175515000Y-79511252D01*
X176985000Y-78988748D02*
X176985000Y-79511252D01*
D14*
%TO.C,J1*%
X186800000Y-66700000D02*
X186800000Y-66700000D01*
X186900000Y-66700000D02*
X186900000Y-66700000D01*
D16*
X189000000Y-62500000D02*
X198000000Y-62500000D01*
X189000000Y-63700000D02*
X189000000Y-62500000D01*
X189000000Y-69700000D02*
X189000000Y-73200000D01*
X189000000Y-73200000D02*
X190000000Y-73200000D01*
X198000000Y-62500000D02*
X198000000Y-67100000D01*
X198000000Y-71900000D02*
X198000000Y-73200000D01*
X198000000Y-73200000D02*
X194600000Y-73200000D01*
D14*
X186800000Y-66700000D02*
G75*
G02*
X186900000Y-66700000I50000J0D01*
G01*
X186900000Y-66700000D02*
G75*
G02*
X186800000Y-66700000I-50000J0D01*
G01*
D13*
%TO.C,R11*%
X131265000Y-84022936D02*
X131265000Y-84477064D01*
X132735000Y-84022936D02*
X132735000Y-84477064D01*
%TD*%
M02*
