%TF.GenerationSoftware,KiCad,Pcbnew,8.0.8*%
%TF.CreationDate,2025-02-20T12:29:39-05:00*%
%TF.ProjectId,Stardust,53746172-6475-4737-942e-6b696361645f,rev?*%
%TF.SameCoordinates,Original*%
%TF.FileFunction,Soldermask,Top*%
%TF.FilePolarity,Negative*%
%FSLAX46Y46*%
G04 Gerber Fmt 4.6, Leading zero omitted, Abs format (unit mm)*
G04 Created by KiCad (PCBNEW 8.0.8) date 2025-02-20 12:29:39*
%MOMM*%
%LPD*%
G01*
G04 APERTURE LIST*
G04 Aperture macros list*
%AMRoundRect*
0 Rectangle with rounded corners*
0 $1 Rounding radius*
0 $2 $3 $4 $5 $6 $7 $8 $9 X,Y pos of 4 corners*
0 Add a 4 corners polygon primitive as box body*
4,1,4,$2,$3,$4,$5,$6,$7,$8,$9,$2,$3,0*
0 Add four circle primitives for the rounded corners*
1,1,$1+$1,$2,$3*
1,1,$1+$1,$4,$5*
1,1,$1+$1,$6,$7*
1,1,$1+$1,$8,$9*
0 Add four rect primitives between the rounded corners*
20,1,$1+$1,$2,$3,$4,$5,0*
20,1,$1+$1,$4,$5,$6,$7,0*
20,1,$1+$1,$6,$7,$8,$9,0*
20,1,$1+$1,$8,$9,$2,$3,0*%
G04 Aperture macros list end*
%ADD10RoundRect,0.250000X-0.475000X0.337500X-0.475000X-0.337500X0.475000X-0.337500X0.475000X0.337500X0*%
%ADD11RoundRect,0.250000X0.475000X-0.337500X0.475000X0.337500X-0.475000X0.337500X-0.475000X-0.337500X0*%
%ADD12RoundRect,0.250000X-0.350000X-0.450000X0.350000X-0.450000X0.350000X0.450000X-0.350000X0.450000X0*%
%ADD13RoundRect,0.237500X0.237500X-0.287500X0.237500X0.287500X-0.237500X0.287500X-0.237500X-0.287500X0*%
%ADD14R,1.700000X1.700000*%
%ADD15O,1.700000X1.700000*%
%ADD16R,0.760000X5.000000*%
%ADD17R,8.800000X4.500000*%
%ADD18RoundRect,0.250000X-0.450000X0.350000X-0.450000X-0.350000X0.450000X-0.350000X0.450000X0.350000X0*%
%ADD19R,1.150000X1.150000*%
%ADD20C,1.150000*%
%ADD21R,2.150000X4.000000*%
%ADD22R,1.750000X0.950000*%
%ADD23R,1.750000X3.200000*%
%ADD24R,1.800000X3.150000*%
%ADD25RoundRect,0.237500X0.300000X0.237500X-0.300000X0.237500X-0.300000X-0.237500X0.300000X-0.237500X0*%
%ADD26RoundRect,0.250000X0.650000X-0.412500X0.650000X0.412500X-0.650000X0.412500X-0.650000X-0.412500X0*%
%ADD27R,5.385000X5.385000*%
%ADD28C,4.005000*%
%ADD29C,4.200000*%
%ADD30RoundRect,0.102000X0.754000X-0.754000X0.754000X0.754000X-0.754000X0.754000X-0.754000X-0.754000X0*%
%ADD31C,1.712000*%
%ADD32RoundRect,0.102000X0.765000X0.765000X-0.765000X0.765000X-0.765000X-0.765000X0.765000X-0.765000X0*%
%ADD33C,1.734000*%
%ADD34R,2.000000X2.000000*%
%ADD35O,2.000000X1.600000*%
G04 APERTURE END LIST*
D10*
%TO.C,C8*%
X171750000Y-54962500D03*
X171750000Y-57037500D03*
%TD*%
D11*
%TO.C,C6*%
X176250000Y-117037500D03*
X176250000Y-114962500D03*
%TD*%
D10*
%TO.C,C5*%
X176750000Y-100712500D03*
X176750000Y-102787500D03*
%TD*%
%TO.C,C4*%
X176250000Y-78212500D03*
X176250000Y-80287500D03*
%TD*%
D12*
%TO.C,R1*%
X159500000Y-99750000D03*
X161500000Y-99750000D03*
%TD*%
D13*
%TO.C,D2*%
X187000000Y-118875000D03*
X187000000Y-117125000D03*
%TD*%
D14*
%TO.C,J7*%
X135500000Y-88000000D03*
D15*
X138040000Y-88000000D03*
%TD*%
D16*
%TO.C,J2*%
X140425000Y-77550000D03*
X139155000Y-77550000D03*
X137885000Y-77550000D03*
X136615000Y-77550000D03*
X135345000Y-77550000D03*
X134075000Y-77550000D03*
D17*
X137250000Y-61500000D03*
%TD*%
D18*
%TO.C,R14*%
X142000000Y-83250000D03*
X142000000Y-85250000D03*
%TD*%
D19*
%TO.C,U8*%
X195275000Y-53450000D03*
D20*
X190195000Y-53450000D03*
%TD*%
D21*
%TO.C,C7*%
X180500000Y-53500000D03*
X180500000Y-60200000D03*
%TD*%
D22*
%TO.C,U7*%
X183650000Y-70550000D03*
X183650000Y-68250000D03*
X183650000Y-65950000D03*
D23*
X177350000Y-68250000D03*
%TD*%
D24*
%TO.C,C2*%
X163500000Y-53500000D03*
X163500000Y-58600000D03*
%TD*%
%TO.C,C1*%
X155000000Y-53500000D03*
X155000000Y-58600000D03*
%TD*%
D12*
%TO.C,R15*%
X185000000Y-97000000D03*
X187000000Y-97000000D03*
%TD*%
D13*
%TO.C,D1*%
X190000000Y-118875000D03*
X190000000Y-117125000D03*
%TD*%
D12*
%TO.C,R3*%
X159500000Y-105000000D03*
X161500000Y-105000000D03*
%TD*%
D14*
%TO.C,J3*%
X191460000Y-58000000D03*
D15*
X194000000Y-58000000D03*
%TD*%
D25*
%TO.C,C3*%
X186500000Y-79500000D03*
X184775000Y-79500000D03*
%TD*%
D18*
%TO.C,R13*%
X138750000Y-83250000D03*
X138750000Y-85250000D03*
%TD*%
%TO.C,R9*%
X190000000Y-122250000D03*
X190000000Y-124250000D03*
%TD*%
%TO.C,R10*%
X187000000Y-122250000D03*
X187000000Y-124250000D03*
%TD*%
%TO.C,R12*%
X135500000Y-83250000D03*
X135500000Y-85250000D03*
%TD*%
D26*
%TO.C,C9*%
X168000000Y-65562500D03*
X168000000Y-62437500D03*
%TD*%
D12*
%TO.C,R2*%
X159500000Y-107500000D03*
X161500000Y-107500000D03*
%TD*%
D27*
%TO.C,J1*%
X190000000Y-66700000D03*
D28*
X192300000Y-72000000D03*
D29*
X196000000Y-69500000D03*
%TD*%
D18*
%TO.C,R11*%
X132000000Y-83250000D03*
X132000000Y-85250000D03*
%TD*%
D30*
%TO.C,U2*%
X144890000Y-106000000D03*
D31*
X142350000Y-106000000D03*
X139810000Y-106000000D03*
X137270000Y-106000000D03*
X134730000Y-106000000D03*
X132190000Y-106000000D03*
X129650000Y-106000000D03*
X127110000Y-106000000D03*
X144890000Y-93300000D03*
X142350000Y-93300000D03*
X139810000Y-93300000D03*
X137270000Y-93300000D03*
X134730000Y-93300000D03*
X132190000Y-93300000D03*
X129650000Y-93300000D03*
X127110000Y-93300000D03*
%TD*%
D32*
%TO.C,U1*%
X182400000Y-76860000D03*
D33*
X182400000Y-79400000D03*
X182400000Y-81940000D03*
X182400000Y-84480000D03*
X182400000Y-87020000D03*
X182400000Y-89560000D03*
X182400000Y-92100000D03*
X182400000Y-94640000D03*
X182400000Y-97180000D03*
X182400000Y-99720000D03*
X182400000Y-102260000D03*
X182400000Y-104800000D03*
X182400000Y-107340000D03*
X182400000Y-109880000D03*
X182400000Y-112420000D03*
X182400000Y-114960000D03*
X182400000Y-117500000D03*
X182400000Y-120040000D03*
X182400000Y-122580000D03*
X157000000Y-122580000D03*
X157000000Y-120040000D03*
X157000000Y-117500000D03*
X157000000Y-114960000D03*
X157000000Y-112420000D03*
X157000000Y-109880000D03*
X157000000Y-107340000D03*
X157000000Y-104800000D03*
X157000000Y-102260000D03*
X157000000Y-99720000D03*
X157000000Y-97180000D03*
X157000000Y-94640000D03*
X157000000Y-92100000D03*
X157000000Y-89560000D03*
X157000000Y-87020000D03*
X157000000Y-84480000D03*
X157000000Y-81940000D03*
X157000000Y-79400000D03*
X157000000Y-76860000D03*
%TD*%
D30*
%TO.C,U3*%
X144780000Y-122700000D03*
D31*
X142240000Y-122700000D03*
X139700000Y-122700000D03*
X137160000Y-122700000D03*
X134620000Y-122700000D03*
X132080000Y-122700000D03*
X129540000Y-122700000D03*
X127000000Y-122700000D03*
X144780000Y-110000000D03*
X142240000Y-110000000D03*
X139700000Y-110000000D03*
X137160000Y-110000000D03*
X134620000Y-110000000D03*
X132080000Y-110000000D03*
X129540000Y-110000000D03*
X127000000Y-110000000D03*
%TD*%
D14*
%TO.C,J5*%
X151000000Y-120080000D03*
D15*
X151000000Y-117540000D03*
X151000000Y-115000000D03*
X151000000Y-112460000D03*
%TD*%
D14*
%TO.C,J6*%
X153000000Y-67460000D03*
D15*
X153000000Y-70000000D03*
X153000000Y-72540000D03*
%TD*%
D14*
%TO.C,J8*%
X195000000Y-77420000D03*
D15*
X195000000Y-79960000D03*
X195000000Y-82500000D03*
X195000000Y-85040000D03*
X195000000Y-87580000D03*
X195000000Y-90120000D03*
X195000000Y-92660000D03*
X195000000Y-95200000D03*
X195000000Y-97740000D03*
X195000000Y-100280000D03*
X195000000Y-102820000D03*
X195000000Y-105360000D03*
X195000000Y-107900000D03*
X195000000Y-110440000D03*
X195000000Y-112980000D03*
X195000000Y-115520000D03*
X195000000Y-118060000D03*
X195000000Y-120600000D03*
X195000000Y-123140000D03*
%TD*%
D14*
%TO.C,J4*%
X151000000Y-103300000D03*
D15*
X151000000Y-100760000D03*
X151000000Y-98220000D03*
X151000000Y-95680000D03*
%TD*%
D34*
%TO.C,U4*%
X148445000Y-59610000D03*
D35*
X148445000Y-62150000D03*
X148445000Y-64690000D03*
X148445000Y-67230000D03*
X148445000Y-69770000D03*
X148445000Y-72310000D03*
X148445000Y-74850000D03*
X148445000Y-77390000D03*
X125585000Y-77390000D03*
X125585000Y-74850000D03*
X125585000Y-72310000D03*
X125585000Y-69770000D03*
X125585000Y-67230000D03*
X125585000Y-64690000D03*
X125585000Y-62150000D03*
X125585000Y-59610000D03*
%TD*%
M02*
