M48
; DRILL file {KiCad 8.0.8} date 2025-02-20T12:29:36-0500
; FORMAT={-:-/ absolute / inch / decimal}
; #@! TF.CreationDate,2025-02-20T12:29:36-05:00
; #@! TF.GenerationSoftware,Kicad,Pcbnew,8.0.8
; #@! TF.FileFunction,Plated,1,2,PTH
FMAT,2
INCH
; #@! TA.AperFunction,Plated,PTH,ViaDrill
T1C0.0118
; #@! TA.AperFunction,Plated,PTH,ComponentDrill
T2C0.0295
; #@! TA.AperFunction,Plated,PTH,ComponentDrill
T3C0.0354
; #@! TA.AperFunction,Plated,PTH,ComponentDrill
T4C0.0394
; #@! TA.AperFunction,Plated,PTH,ComponentDrill
T5C0.0402
; #@! TA.AperFunction,Plated,PTH,ComponentDrill
T6C0.1051
; #@! TA.AperFunction,Plated,PTH,ComponentDrill
T7C0.1126
; #@! TA.AperFunction,Plated,PTH,ComponentDrill
T8C0.1413
%
G90
G05
T1
X5.0886Y-2.6575
X5.0886Y-2.8543
X5.2264Y-3.1988
X5.3285Y-2.9073
X5.3937Y-3.2579
X5.5217Y-3.2579
X5.5512Y-4.3898
X5.561Y-3.7205
X5.6496Y-3.4449
X5.689Y-3.2579
X5.7185Y-3.5138
X5.7382Y-4.7343
X5.7776Y-4.2717
X5.7776Y-4.7933
X5.8465Y-4.065
X5.9252Y-2.7461
X5.9449Y-3.0512
X5.9673Y-3.0291
X6.0039Y-3.1102
X6.0262Y-3.088
X6.0728Y-3.9469
X6.0728Y-4.0846
X6.1122Y-3.9469
X6.1122Y-4.0551
X6.2598Y-3.5138
X6.2992Y-3.5925
X6.3287Y-3.248
X6.3287Y-3.5531
X6.3484Y-3.7402
X6.3681Y-3.2504
X6.3681Y-3.5335
X6.4075Y-3.3488
X6.4075Y-3.5335
X6.4272Y-2.6575
X6.4469Y-3.4445
X6.4469Y-3.5335
X6.5059Y-2.6476
X6.5059Y-3.2087
X6.7126Y-2.6476
X6.7126Y-2.8346
X6.7618Y-4.0354
X6.7913Y-3.0118
X6.939Y-4.7638
X7.0571Y-3.5827
X7.0571Y-3.6713
X7.0768Y-3.7303
X7.1752Y-4.9311
X7.3917Y-3.1299
X7.4213Y-4.8917
X7.4902Y-3.7205
X7.5295Y-4.3504
X7.5394Y-3.6516
X7.5984Y-3.6614
X7.7559Y-3.748
X7.8051Y-4.9311
T2
X7.488Y-2.1043
X7.688Y-2.1043
T3
X4.9443Y-2.3469
X4.9443Y-2.4469
X4.9443Y-2.5469
X4.9443Y-2.6469
X4.9443Y-2.7469
X4.9443Y-2.8469
X4.9443Y-2.9469
X4.9443Y-3.0469
X5.8443Y-2.3469
X5.8443Y-2.4469
X5.8443Y-2.5469
X5.8443Y-2.6469
X5.8443Y-2.7469
X5.8443Y-2.8469
X5.8443Y-2.9469
X5.8443Y-3.0469
T4
X5.0Y-4.3307
X5.0Y-4.8307
X5.0043Y-3.6732
X5.0043Y-4.1732
X5.1Y-4.3307
X5.1Y-4.8307
X5.1043Y-3.6732
X5.1043Y-4.1732
X5.2Y-4.3307
X5.2Y-4.8307
X5.2043Y-3.6732
X5.2043Y-4.1732
X5.3Y-4.3307
X5.3Y-4.8307
X5.3043Y-3.6732
X5.3043Y-4.1732
X5.3346Y-3.4646
X5.4Y-4.3307
X5.4Y-4.8307
X5.4043Y-3.6732
X5.4043Y-4.1732
X5.4346Y-3.4646
X5.5Y-4.3307
X5.5Y-4.8307
X5.5043Y-3.6732
X5.5043Y-4.1732
X5.6Y-4.3307
X5.6Y-4.8307
X5.6043Y-3.6732
X5.6043Y-4.1732
X5.7Y-4.3307
X5.7Y-4.8307
X5.7043Y-3.6732
X5.7043Y-4.1732
X5.9449Y-3.7669
X5.9449Y-3.8669
X5.9449Y-3.9669
X5.9449Y-4.0669
X5.9449Y-4.4276
X5.9449Y-4.5276
X5.9449Y-4.6276
X5.9449Y-4.7276
X6.0236Y-2.6559
X6.0236Y-2.7559
X6.0236Y-2.8559
X7.5378Y-2.2835
X7.6378Y-2.2835
X7.6772Y-3.048
X7.6772Y-3.148
X7.6772Y-3.248
X7.6772Y-3.348
X7.6772Y-3.448
X7.6772Y-3.548
X7.6772Y-3.648
X7.6772Y-3.748
X7.6772Y-3.848
X7.6772Y-3.948
X7.6772Y-4.048
X7.6772Y-4.148
X7.6772Y-4.248
X7.6772Y-4.348
X7.6772Y-4.448
X7.6772Y-4.548
X7.6772Y-4.648
X7.6772Y-4.748
X7.6772Y-4.848
T5
X6.1811Y-3.026
X6.1811Y-3.126
X6.1811Y-3.226
X6.1811Y-3.326
X6.1811Y-3.426
X6.1811Y-3.526
X6.1811Y-3.626
X6.1811Y-3.726
X6.1811Y-3.826
X6.1811Y-3.926
X6.1811Y-4.026
X6.1811Y-4.126
X6.1811Y-4.226
X6.1811Y-4.326
X6.1811Y-4.426
X6.1811Y-4.526
X6.1811Y-4.626
X6.1811Y-4.726
X6.1811Y-4.826
X7.1811Y-3.026
X7.1811Y-3.126
X7.1811Y-3.226
X7.1811Y-3.326
X7.1811Y-3.426
X7.1811Y-3.526
X7.1811Y-3.626
X7.1811Y-3.726
X7.1811Y-3.826
X7.1811Y-3.926
X7.1811Y-4.026
X7.1811Y-4.126
X7.1811Y-4.226
X7.1811Y-4.326
X7.1811Y-4.426
X7.1811Y-4.526
X7.1811Y-4.626
X7.1811Y-4.726
X7.1811Y-4.826
T6
X7.5709Y-2.8346
T7
X7.7165Y-2.7362
T8
X7.4803Y-2.626
M30
