<?xml version="1.0" encoding="UTF-8"?><svg id="Layer_1" xmlns="http://www.w3.org/2000/svg" viewBox="0 0 1224 792"><defs><style>.cls-1{fill:none;stroke:#878787;stroke-miterlimit:10;stroke-width:.5px;}.cls-2{fill:#fff;}</style></defs><path d="M162.82,179.25l-2.22,9.03c-.93-.32-1.99-.63-3.2-.9-1.21-.28-2.46-.51-3.75-.69-1.3-.18-2.59-.32-3.89-.42-1.3-.09-2.55-.14-3.75-.14-2.73,0-4.82.37-6.25,1.11-1.44.74-2.15,1.9-2.15,3.47,0,.83.23,1.56.69,2.19.46.63,1.2,1.19,2.22,1.7,1.02.51,2.34,1.02,3.96,1.53,1.62.51,3.57,1.07,5.84,1.67,2.45.6,4.6,1.33,6.43,2.19,1.83.86,3.36,1.85,4.59,2.99,1.23,1.14,2.15,2.46,2.78,3.96.63,1.51.94,3.26.94,5.25,0,3.15-.83,5.81-2.5,7.99-1.67,2.18-4.12,3.83-7.37,4.97-3.24,1.13-7.23,1.7-11.95,1.7-1.57,0-3.2-.07-4.86-.21-1.67-.14-3.35-.34-5.04-.59-1.69-.25-3.32-.58-4.9-.97-1.58-.39-3.06-.84-4.45-1.36l2.22-8.96c1.39.46,2.83.88,4.31,1.25,1.48.37,2.99.68,4.52.94,1.53.26,3.05.45,4.55.59s2.93.21,4.27.21c2.08,0,3.79-.17,5.11-.52,1.32-.35,2.29-.87,2.92-1.56.62-.69.94-1.55.94-2.57,0-.88-.31-1.62-.94-2.22-.63-.6-1.56-1.17-2.81-1.7-1.25-.53-2.81-1.08-4.69-1.63-1.88-.56-4.04-1.2-6.5-1.95-2.08-.69-3.9-1.48-5.45-2.36-1.55-.88-2.86-1.89-3.93-3.02-1.07-1.13-1.87-2.44-2.4-3.93-.53-1.48-.8-3.15-.8-5,0-2.08.4-4.01,1.22-5.77.81-1.76,2.04-3.29,3.68-4.59,1.64-1.3,3.79-2.3,6.43-3.02,2.64-.72,5.77-1.08,9.38-1.08,2.13,0,4.25.12,6.36.35,2.11.23,4.06.53,5.87.9,1.81.37,3.34.76,4.59,1.18Z"/><path d="M208.47,187.86h-14.31v38.29h-11.74v-38.29h-14.31v-10.35h40.37v10.35Z"/><path d="M205.76,226.15l15.42-48.85h14.18l15.63,48.85h-12.92l-2.57-9.03h-14.87l-2.57,9.03h-12.3ZM222.79,207.46h10.56l-5.28-21.05-5.28,21.05Z"/><path d="M298.59,226.84c-1.44,0-2.87-.2-4.31-.59-1.44-.39-2.86-1.01-4.27-1.84-1.41-.83-2.86-1.91-4.34-3.23-1.48-1.32-3-2.91-4.55-4.76-1.55-1.85-3.16-4.01-4.83-6.46-.28.05-.66.07-1.15.07h-3.23c-.74,0-1.44-.02-2.08-.07v16.19h-11.81v-48.64c2.73-.18,5.25-.32,7.54-.42,2.29-.09,4.4-.16,6.32-.21,1.92-.05,3.69-.07,5.32-.07,3.84,0,7.12.29,9.83.87,2.71.58,4.93,1.47,6.67,2.67,1.74,1.21,3,2.77,3.79,4.69.79,1.92,1.18,4.23,1.18,6.91s-.42,5.08-1.25,7.05c-.83,1.97-2.03,3.58-3.58,4.83-1.55,1.25-3.37,2.22-5.45,2.92,1.2,1.48,2.35,2.76,3.44,3.82,1.09,1.07,2.11,1.97,3.06,2.71.95.74,1.85,1.29,2.71,1.63.86.35,1.68.52,2.47.52.14,0,.32-.01.56-.03.23-.02.42-.03.56-.03l.07,11.26c-.32.05-.69.09-1.11.14-.42.05-.93.07-1.53.07ZM277.05,201.41c1.62,0,3.03-.14,4.24-.42,1.2-.28,2.19-.73,2.95-1.36.76-.62,1.34-1.44,1.74-2.43.39-1,.59-2.23.59-3.72,0-1.81-.28-3.25-.83-4.34-.56-1.09-1.49-1.89-2.81-2.4-1.32-.51-3.14-.76-5.45-.76h-1.91c-.53,0-1.07.01-1.6.03-.53.02-1.12.06-1.77.1-.65.05-1.44.09-2.36.14v14.94c.69.05,1.32.08,1.88.1.56.02,1.11.05,1.67.07.56.02,1.12.03,1.7.03h1.98Z"/><path d="M328.05,226.84c-2.41,0-4.68-.02-6.81-.07s-4.18-.12-6.15-.21c-1.97-.09-3.93-.21-5.87-.35v-48.71c2.18-.18,4.25-.32,6.22-.42,1.97-.09,3.93-.16,5.87-.21,1.95-.05,4.01-.07,6.18-.07,5.7,0,10.31.87,13.83,2.61,3.52,1.74,6.08,4.45,7.68,8.13,1.6,3.68,2.4,8.47,2.4,14.35s-.86,10.46-2.57,14.14c-1.71,3.68-4.3,6.4-7.75,8.16-3.45,1.76-7.79,2.64-13.03,2.64ZM328.96,217.6c2.27,0,4.16-.52,5.66-1.56,1.51-1.04,2.65-2.71,3.44-5,.79-2.29,1.18-5.32,1.18-9.07,0-4.03-.38-7.18-1.15-9.45-.76-2.27-1.92-3.9-3.47-4.9-1.55-1-3.56-1.49-6.01-1.49-.83,0-1.7.01-2.61.04-.9.02-1.78.06-2.64.1-.86.05-1.63.09-2.33.14v30.92c.65,0,1.3.02,1.95.07.65.05,1.3.08,1.95.1.65.02,1.3.05,1.94.07.65.02,1.34.04,2.08.04Z"/><path d="M358.21,210.38v-32.87h11.6v33.01c0,1.02.14,1.92.42,2.71.28.79.69,1.44,1.25,1.95.56.51,1.2.93,1.95,1.25.74.32,1.56.57,2.47.73.9.16,1.84.24,2.81.24,1.07,0,2.05-.08,2.95-.24.9-.16,1.71-.41,2.43-.73.72-.32,1.34-.75,1.88-1.29.53-.53.94-1.19,1.22-1.98.28-.79.42-1.67.42-2.64v-33.01h11.6v32.87c0,2.41-.29,4.52-.87,6.32-.58,1.81-1.44,3.36-2.57,4.66-1.14,1.3-2.54,2.34-4.2,3.13-1.67.79-3.58,1.38-5.73,1.77-2.15.39-4.53.59-7.12.59s-4.96-.2-7.09-.59c-2.13-.39-4.03-.98-5.7-1.77-1.67-.79-3.07-1.83-4.2-3.13-1.14-1.3-2-2.85-2.61-4.66-.6-1.81-.9-3.91-.9-6.32Z"/><path d="M444.58,179.25l-2.22,9.03c-.93-.32-1.99-.63-3.2-.9-1.21-.28-2.46-.51-3.75-.69-1.3-.18-2.59-.32-3.89-.42-1.3-.09-2.55-.14-3.75-.14-2.73,0-4.82.37-6.25,1.11-1.44.74-2.15,1.9-2.15,3.47,0,.83.23,1.56.69,2.19.46.63,1.2,1.19,2.22,1.7,1.02.51,2.34,1.02,3.96,1.53,1.62.51,3.57,1.07,5.84,1.67,2.46.6,4.6,1.33,6.43,2.19,1.83.86,3.36,1.85,4.59,2.99,1.23,1.14,2.15,2.46,2.78,3.96.63,1.51.94,3.26.94,5.25,0,3.15-.83,5.81-2.5,7.99-1.67,2.18-4.12,3.83-7.37,4.97-3.24,1.13-7.23,1.7-11.95,1.7-1.57,0-3.2-.07-4.86-.21-1.67-.14-3.35-.34-5.04-.59-1.69-.25-3.32-.58-4.9-.97-1.58-.39-3.06-.84-4.45-1.36l2.22-8.96c1.39.46,2.83.88,4.31,1.25,1.48.37,2.99.68,4.52.94,1.53.26,3.05.45,4.55.59s2.93.21,4.27.21c2.08,0,3.79-.17,5.11-.52,1.32-.35,2.29-.87,2.92-1.56s.94-1.55.94-2.57c0-.88-.31-1.62-.94-2.22-.63-.6-1.56-1.17-2.81-1.7-1.25-.53-2.81-1.08-4.69-1.63-1.88-.56-4.04-1.2-6.5-1.95-2.08-.69-3.9-1.48-5.45-2.36-1.55-.88-2.86-1.89-3.93-3.02-1.07-1.13-1.87-2.44-2.4-3.93-.53-1.48-.8-3.15-.8-5,0-2.08.4-4.01,1.22-5.77.81-1.76,2.04-3.29,3.68-4.59,1.64-1.3,3.79-2.3,6.43-3.02,2.64-.72,5.77-1.08,9.38-1.08,2.13,0,4.25.12,6.36.35,2.11.23,4.06.53,5.87.9,1.81.37,3.33.76,4.59,1.18Z"/><path d="M490.92,187.86h-14.31v38.29h-11.74v-38.29h-14.31v-10.35h40.37v10.35Z"/><circle class="cls-2" cx="313.93" cy="356.04" r="1.17"/><path d="M266.52,531.91l-1.74,7.05c-.72-.25-1.56-.49-2.5-.7-.94-.22-1.92-.4-2.93-.54-1.01-.14-2.03-.25-3.04-.33-1.01-.07-1.99-.11-2.93-.11-2.14,0-3.76.29-4.88.87-1.12.58-1.68,1.48-1.68,2.71,0,.65.18,1.22.54,1.71.36.49.94.93,1.74,1.33.79.4,1.83.8,3.09,1.19,1.27.4,2.79.83,4.56,1.3,1.92.47,3.59,1.04,5.02,1.71,1.43.67,2.62,1.45,3.58,2.33.96.89,1.68,1.92,2.17,3.09.49,1.18.73,2.54.73,4.1,0,2.46-.65,4.54-1.95,6.24-1.3,1.7-3.22,2.99-5.75,3.88-2.53.89-5.64,1.33-9.33,1.33-1.23,0-2.5-.05-3.8-.16-1.3-.11-2.61-.26-3.93-.46-1.32-.2-2.6-.45-3.83-.76-1.23-.31-2.39-.66-3.47-1.06l1.74-7c1.09.36,2.21.69,3.36.98,1.16.29,2.33.53,3.53.73,1.19.2,2.38.35,3.55.46,1.18.11,2.29.16,3.34.16,1.63,0,2.96-.14,3.99-.41,1.03-.27,1.79-.68,2.28-1.22s.73-1.21.73-2.01c0-.69-.24-1.27-.73-1.74-.49-.47-1.22-.91-2.2-1.33-.98-.42-2.2-.84-3.66-1.27-1.47-.43-3.16-.94-5.07-1.52-1.63-.54-3.05-1.16-4.26-1.85-1.21-.69-2.23-1.47-3.07-2.36-.83-.89-1.46-1.91-1.87-3.07-.42-1.16-.62-2.46-.62-3.91,0-1.63.32-3.13.95-4.5.63-1.37,1.59-2.57,2.88-3.58,1.28-1.01,2.96-1.8,5.02-2.36,2.06-.56,4.5-.84,7.33-.84,1.66,0,3.32.09,4.97.27,1.65.18,3.17.42,4.59.71,1.41.29,2.6.6,3.58.92Z"/><path d="M302.18,538.64h-11.18v29.9h-9.17v-29.9h-11.18v-8.09h31.53v8.09Z"/><path d="M300.06,568.54l12.05-38.15h11.07l12.21,38.15h-10.09l-2.01-7.05h-11.61l-2.01,7.05h-9.6ZM313.35,553.94h8.25l-4.12-16.44-4.12,16.44Z"/><path d="M372.56,569.08c-1.12,0-2.24-.15-3.36-.46-1.12-.31-2.23-.79-3.34-1.44-1.1-.65-2.23-1.49-3.39-2.52-1.16-1.03-2.34-2.27-3.55-3.72-1.21-1.45-2.47-3.13-3.77-5.05-.22.04-.52.05-.9.05h-2.52c-.58,0-1.12-.02-1.63-.05v12.64h-9.22v-37.98c2.13-.14,4.1-.25,5.89-.33,1.79-.07,3.44-.13,4.94-.16,1.5-.04,2.88-.05,4.15-.05,3,0,5.56.23,7.68.68,2.12.45,3.85,1.15,5.21,2.09,1.36.94,2.34,2.16,2.96,3.66.61,1.5.92,3.3.92,5.4s-.33,3.97-.98,5.51c-.65,1.54-1.58,2.79-2.79,3.77-1.21.98-2.63,1.74-4.26,2.28.94,1.16,1.84,2.15,2.69,2.98.85.83,1.65,1.54,2.39,2.12.74.58,1.45,1,2.12,1.28.67.27,1.31.41,1.93.41.11,0,.25,0,.43-.03.18-.02.33-.03.43-.03l.05,8.79c-.25.03-.54.07-.87.11s-.72.05-1.19.05ZM355.73,549.22c1.27,0,2.37-.11,3.31-.33.94-.22,1.71-.57,2.31-1.06.6-.49,1.05-1.12,1.36-1.9.31-.78.46-1.75.46-2.9,0-1.41-.22-2.54-.65-3.39-.43-.85-1.17-1.47-2.2-1.87-1.03-.4-2.45-.6-4.26-.6h-1.49c-.42,0-.83,0-1.25.03-.42.02-.88.05-1.38.08-.51.04-1.12.07-1.84.11v11.67c.54.04,1.03.06,1.46.08.43.02.87.04,1.3.05.43.02.88.03,1.33.03h1.55Z"/><path d="M395.56,569.08c-1.88,0-3.65-.02-5.32-.05s-3.26-.09-4.8-.16c-1.54-.07-3.07-.16-4.58-.27v-38.04c1.7-.14,3.32-.25,4.86-.33,1.54-.07,3.07-.13,4.59-.16,1.52-.04,3.13-.05,4.83-.05,4.45,0,8.05.68,10.8,2.03,2.75,1.36,4.75,3.47,6,6.35,1.25,2.88,1.87,6.61,1.87,11.21s-.67,8.17-2.01,11.04c-1.34,2.88-3.36,5-6.05,6.38-2.7,1.37-6.09,2.06-10.17,2.06ZM396.27,561.86c1.77,0,3.25-.41,4.42-1.22s2.07-2.12,2.69-3.91c.61-1.79.92-4.15.92-7.08,0-3.15-.3-5.61-.9-7.38-.6-1.77-1.5-3.05-2.71-3.83-1.21-.78-2.78-1.17-4.69-1.17-.65,0-1.33,0-2.03.03s-1.39.05-2.06.08c-.67.04-1.27.07-1.82.11v24.15c.51,0,1.01.02,1.52.05.51.04,1.01.06,1.52.08.51.02,1.01.04,1.52.05.51.02,1.05.03,1.63.03Z"/><path d="M419.11,556.22v-25.67h9.06v25.78c0,.8.11,1.5.33,2.12.22.62.54,1.12.98,1.52.43.4.94.72,1.52.98.58.25,1.22.44,1.93.57.71.13,1.44.19,2.2.19.83,0,1.6-.06,2.31-.19.71-.13,1.34-.32,1.9-.57.56-.25,1.05-.59,1.47-1,.42-.42.73-.93.95-1.55.22-.61.33-1.3.33-2.06v-25.78h9.06v25.67c0,1.88-.23,3.53-.68,4.94-.45,1.41-1.12,2.62-2.01,3.64-.89,1.01-1.98,1.83-3.28,2.44-1.3.62-2.79,1.08-4.48,1.38-1.68.31-3.54.46-5.56.46s-3.87-.15-5.53-.46c-1.67-.31-3.15-.77-4.45-1.38-1.3-.61-2.4-1.43-3.28-2.44-.89-1.01-1.57-2.23-2.03-3.64-.47-1.41-.71-3.06-.71-4.94Z"/><path d="M486.56,531.91l-1.74,7.05c-.72-.25-1.56-.49-2.5-.7-.94-.22-1.92-.4-2.93-.54-1.01-.14-2.03-.25-3.04-.33-1.01-.07-1.99-.11-2.93-.11-2.14,0-3.76.29-4.88.87-1.12.58-1.68,1.48-1.68,2.71,0,.65.18,1.22.54,1.71.36.49.94.93,1.74,1.33.79.4,1.83.8,3.09,1.19,1.27.4,2.79.83,4.56,1.3,1.92.47,3.59,1.04,5.02,1.71,1.43.67,2.62,1.45,3.58,2.33.96.89,1.68,1.92,2.17,3.09.49,1.18.73,2.54.73,4.1,0,2.46-.65,4.54-1.95,6.24-1.3,1.7-3.22,2.99-5.75,3.88-2.53.89-5.64,1.33-9.33,1.33-1.23,0-2.5-.05-3.8-.16-1.3-.11-2.61-.26-3.93-.46-1.32-.2-2.6-.45-3.83-.76-1.23-.31-2.39-.66-3.47-1.06l1.74-7c1.09.36,2.21.69,3.36.98,1.16.29,2.33.53,3.53.73,1.19.2,2.38.35,3.55.46,1.18.11,2.29.16,3.34.16,1.63,0,2.96-.14,3.99-.41,1.03-.27,1.79-.68,2.28-1.22s.73-1.21.73-2.01c0-.69-.24-1.27-.73-1.74-.49-.47-1.22-.91-2.2-1.33-.98-.42-2.2-.84-3.66-1.27-1.47-.43-3.16-.94-5.07-1.52-1.63-.54-3.05-1.16-4.26-1.85-1.21-.69-2.23-1.47-3.07-2.36-.83-.89-1.46-1.91-1.87-3.07-.42-1.16-.62-2.46-.62-3.91,0-1.63.32-3.13.95-4.5.63-1.37,1.59-2.57,2.88-3.58,1.28-1.01,2.96-1.8,5.02-2.36,2.06-.56,4.5-.84,7.33-.84,1.66,0,3.32.09,4.97.27,1.65.18,3.17.42,4.59.71,1.41.29,2.6.6,3.58.92Z"/><path d="M522.76,538.64h-11.18v29.9h-9.17v-29.9h-11.18v-8.09h31.53v8.09Z"/><path d="M202.67,549.86c0,6.32-1.3,12.32-3.65,17.78-1.28-.52-2.69-1.19-4.16-2.07-2.09-1.24-3.76-2.56-5.03-3.71l-7.39,6.05h0c-1.03,1.01-2.11,1.89-3.22,2.64,0,0-.01,0-.02.01-4.29,2.87-9.07,3.77-12.98,2.19-1.11-.46-2.7-1.33-4.24-3.14-1.91,1.18-3.82,2.37-5.73,3.55-3.34,1.64-8.49,3.32-14.39,2.17-3.15-.61-5.64-1.87-7.4-2.98-3.73,2.13-7.47,4.26-11.2,6.39-6.56-7.81-10.5-17.88-10.5-28.87,0-24.83,20.13-44.96,44.96-44.96s44.96,20.13,44.96,44.96Z"/><path class="cls-2" d="M157.71,502.01c-26.38,0-47.85,21.47-47.85,47.85,0,13.93,5.99,26.49,15.51,35.23.35-.16.69-.33,1.02-.49.61-.31,1.18-.62,1.69-.92.75-.43,1.39-.85,1.94-1.22,1.94-1.32,2.98-2.04,3.81-3.4,1.28-2.09,1.22-4.33,1.09-5.49,2.6,4.11,10.02,4.94,10.02,4.94-2.51.49-10.3,4.21-15.13,6.6-.66.32-1.26.62-1.79.89-.39.18-.73.36-1.02.51,2.16,1.82,4.48,3.45,6.95,4.86.27-.13.56-.27.87-.41.27-.12.56-.26.86-.39.48-.22.99-.45,1.54-.69.02-.01.04-.02.06-.03,5.7-2.53,6.97-2.83,10.45-4.37,1.91-.85,3.55-1.58,4.98-2.28,0,0,0,0,0,0,3.62-1.76,5.82-3.27,7.33-5.75,1.32-2.16,1.73-4.31,1.88-5.67,1.37,1.71,3.71,4.06,7.13,5.16.61.2,1.22.34,1.79.45.99.19,1.85.27,2.35.31,2.13.18,3.93.04,5.22-.14-4.5,1.03-8.39,2.11-11.54,3.07h0c-.5.15-.99.3-1.46.45-6.17,1.95-10.97,3.88-16.13,6.02t0,0c-.6.25-1.2.5-1.81.75-2.78,1.16-5.31,2.27-7.55,3.27-.37.17-.74.33-1.09.49-.48.22-.94.43-1.39.63-.33.15-.65.3-.96.44,3.07,1.54,6.32,2.74,9.71,3.58.3-.12.6-.24.9-.36,1.36-.54,2.68-1.07,3.98-1.61.12-.05.23-.1.35-.15,12.37-5.08,22.15-9.8,28.17-13.36,2.21-1.31,3.91-2.45,5.05-3.41,1.16-.98,3.54-3,4.78-6.46,1.39-3.89.5-7.14.5-7.14,1.34,1.22,3.4,2.81,6.21,4.09.82.37,1.62.68,2.38.93.75.26,1.47.45,2.14.61.23.05.46.1.68.15,2.73-6.02,4.26-12.7,4.26-19.73,0-26.38-21.47-47.85-47.85-47.85ZM199.02,567.64c-1.28-.52-2.69-1.19-4.16-2.07-2.09-1.24-3.76-2.56-5.03-3.71l-7.39,6.05h0c-1.03,1.01-2.11,1.89-3.22,2.64,0,0-.01,0-.02.01-4.29,2.87-9.07,3.77-12.98,2.19-1.11-.46-2.7-1.33-4.24-3.14-1.91,1.18-3.82,2.37-5.73,3.55-3.34,1.64-8.49,3.32-14.39,2.17-3.15-.61-5.64-1.87-7.4-2.98-3.73,2.13-7.47,4.26-11.2,6.39-6.56-7.81-10.5-17.88-10.5-28.87,0-24.83,20.13-44.96,44.96-44.96s44.96,20.13,44.96,44.96c0,6.32-1.3,12.32-3.65,17.78Z"/><path class="cls-2" d="M198.78,574.39c-1.18,1.97-2.5,3.85-3.95,5.62h0c-.39.19-.79.37-1.18.56-2.01.94-4.01,1.89-6.02,2.84-4.3,2.03-8.61,4.06-12.91,6.09-3.38,1.6-6.76,3.19-10.14,4.79h0c-.92.43-1.84.87-2.76,1.31h0c-1.15.54-2.31,1.09-3.46,1.63h0c-.33.15-.65.31-.97.46h0c-2.57-.02-5.1-.23-7.56-.65.26-.11.5-.23.76-.34,1.45-.66,2.89-1.31,4.34-1.97.08-.04.16-.08.24-.11,7.63-3.47,15.27-6.93,22.9-10.4,2.37-1.07,4.73-2.15,7.1-3.22,2.59-1.05,5.32-2.27,8.16-3.7.4-.2.81-.4,1.22-.61,1.1-.57,2.17-1.14,3.19-1.71.36-.2.71-.4,1.05-.6Z"/><path class="cls-2" d="M157.71,526.17l.75,3.06c.91,3.71,3.8,6.6,7.51,7.51l3.06.75-3.06.75c-3.71.91-6.6,3.8-7.51,7.51l-.75,3.06-.75-3.06c-.91-3.71-3.8-6.6-7.51-7.51l-3.06-.75,3.06-.75c3.71-.91,6.6-3.8,7.51-7.51l.75-3.06Z"/><path class="cls-2" d="M182.43,567.91c-1.03,1-2.11,1.89-3.22,2.64l3.22-2.64Z"/><path class="cls-2" d="M191.33,583.87c-7.53,7.44-17.5,12.41-28.6,13.57.79-.37,1.57-.74,2.36-1.12h0c.16-.08.31-.15.47-.23h0c1.48-.7,2.96-1.41,4.44-2.11h0c6.52-3.1,13.03-6.19,19.55-9.28.59-.28,1.18-.56,1.77-.84Z"/><path d="M157.71,499.6c-27.72,0-50.27,22.55-50.27,50.26s22.55,50.26,50.27,50.26,50.26-22.55,50.26-50.26-22.55-50.26-50.26-50.26ZM146.17,596.3c-3.4-.84-6.65-2.05-9.71-3.58.31-.14.63-.29.96-.44.45-.2.91-.41,1.39-.63.35-.16.72-.33,1.09-.49,2.24-1,4.77-2.11,7.55-3.27.61-.26,1.22-.5,1.81-.75t0,0c5.17-2.14,9.96-4.07,16.13-6.02.47-.15.95-.3,1.46-.45h0c3.15-.97,7.03-2.05,11.54-3.07-1.29.18-3.09.33-5.22.14-.5-.04-1.36-.12-2.35-.31-.56-.11-1.17-.26-1.79-.45-3.42-1.1-5.76-3.45-7.13-5.16-.15,1.36-.55,3.51-1.88,5.67-1.51,2.47-3.71,3.98-7.33,5.75,0,0,0,0,0,0-1.43.69-3.07,1.43-4.98,2.28-3.48,1.54-4.75,1.83-10.45,4.37-.02.01-.04.02-.06.03-.55.24-1.06.47-1.54.69-.3.14-.59.27-.86.39-.31.14-.6.28-.87.41-2.46-1.41-4.79-3.04-6.95-4.86.29-.15.63-.33,1.02-.51.53-.27,1.13-.57,1.79-.89,4.84-2.39,12.63-6.1,15.13-6.6,0,0-7.42-.83-10.02-4.94.13,1.16.19,3.39-1.09,5.49-.83,1.36-1.87,2.08-3.81,3.4-.55.37-1.19.78-1.94,1.22-.52.3-1.08.61-1.69.92-.33.16-.67.33-1.02.49-9.53-8.75-15.51-21.3-15.51-35.23,0-26.38,21.47-47.85,47.85-47.85s47.85,21.47,47.85,47.85c0,7.03-1.52,13.71-4.26,19.73-.22-.04-.44-.09-.68-.15-.67-.16-1.38-.35-2.14-.61-.76-.25-1.56-.56-2.38-.93-2.82-1.28-4.87-2.87-6.21-4.09,0,0,.9,3.25-.5,7.14-1.24,3.46-3.62,5.48-4.78,6.46-1.14.96-2.84,2.11-5.05,3.41-6.02,3.56-15.8,8.28-28.17,13.36-.11.05-.23.1-.35.15-1.3.53-2.62,1.07-3.98,1.61-.3.12-.6.24-.9.36ZM162.73,597.44c.79-.37,1.57-.74,2.36-1.12h0c.16-.08.31-.15.47-.23h0c1.48-.7,2.96-1.41,4.44-2.11h0c6.52-3.1,13.03-6.19,19.55-9.28.59-.28,1.18-.56,1.77-.84-7.53,7.44-17.5,12.41-28.6,13.57ZM194.83,580.01h0c-.39.19-.79.37-1.18.56-2.01.94-4.01,1.89-6.02,2.84-4.3,2.03-8.61,4.06-12.91,6.09-3.38,1.6-6.76,3.19-10.14,4.79h0c-.92.43-1.84.87-2.76,1.31h0c-1.15.54-2.31,1.09-3.46,1.63h0c-.33.15-.65.31-.97.46h0c-2.57-.02-5.1-.23-7.56-.65.26-.11.5-.23.76-.34,1.45-.66,2.89-1.31,4.34-1.97.08-.04.16-.08.24-.11,7.63-3.47,15.27-6.93,22.9-10.4,2.37-1.07,4.73-2.15,7.1-3.22,2.59-1.05,5.32-2.27,8.16-3.7.4-.2.81-.4,1.22-.61,1.1-.57,2.17-1.14,3.19-1.71.36-.2.71-.4,1.05-.6-1.18,1.97-2.5,3.85-3.95,5.62Z"/><circle class="cls-2" cx="157.66" cy="557.82" r="1.76"/><circle class="cls-2" cx="178.03" cy="537.5" r="1.76"/><circle class="cls-2" cx="137.39" cy="537.5" r="1.76"/><path d="M798.85,258.21l-1.42,5.78c-.59-.21-1.27-.4-2.04-.58-.77-.18-1.57-.33-2.4-.44-.83-.12-1.66-.21-2.49-.27-.83-.06-1.63-.09-2.4-.09-1.75,0-3.08.24-4,.71-.92.47-1.38,1.22-1.38,2.22,0,.53.15,1,.44,1.4.3.4.77.76,1.42,1.09.65.33,1.5.65,2.53.98,1.04.33,2.28.68,3.73,1.07,1.57.39,2.94.85,4.11,1.4,1.17.55,2.15,1.19,2.93,1.91.78.73,1.38,1.57,1.78,2.53.4.96.6,2.08.6,3.36,0,2.02-.53,3.72-1.6,5.11-1.07,1.39-2.64,2.45-4.71,3.18-2.07.73-4.62,1.09-7.65,1.09-1.01,0-2.04-.04-3.11-.13-1.07-.09-2.14-.22-3.22-.38-1.08-.16-2.13-.37-3.13-.62-1.01-.25-1.96-.54-2.84-.87l1.42-5.73c.89.3,1.81.56,2.76.8.95.24,1.91.44,2.89.6.98.16,1.95.29,2.91.38.96.09,1.87.13,2.73.13,1.33,0,2.42-.11,3.27-.33.84-.22,1.47-.56,1.87-1s.6-.99.6-1.64c0-.56-.2-1.04-.6-1.42-.4-.38-1-.75-1.8-1.09-.8-.34-1.8-.69-3-1.04-1.2-.36-2.59-.77-4.16-1.24-1.33-.44-2.5-.95-3.49-1.51-.99-.56-1.83-1.21-2.51-1.93-.68-.73-1.19-1.56-1.53-2.51-.34-.95-.51-2.01-.51-3.2,0-1.33.26-2.56.78-3.69.52-1.13,1.3-2.1,2.36-2.93,1.05-.83,2.42-1.47,4.11-1.93,1.69-.46,3.69-.69,6-.69,1.36,0,2.72.07,4.07.22,1.35.15,2.6.34,3.76.58,1.16.24,2.13.49,2.93.76Z"/><path d="M828.05,263.72h-9.16v24.49h-7.51v-24.49h-9.16v-6.62h25.82v6.62Z"/><path d="M826.31,288.21l9.87-31.25h9.07l10,31.25h-8.27l-1.64-5.78h-9.51l-1.64,5.78h-7.87ZM837.2,276.25h6.76l-3.38-13.47-3.38,13.47Z"/><path d="M885.7,288.65c-.92,0-1.84-.13-2.76-.38-.92-.25-1.83-.64-2.73-1.18-.9-.53-1.83-1.22-2.78-2.07-.95-.84-1.92-1.86-2.91-3.04-.99-1.18-2.02-2.56-3.09-4.13-.18.03-.42.04-.73.04h-2.07c-.47,0-.92-.01-1.33-.04v10.36h-7.56v-31.11c1.75-.12,3.36-.21,4.82-.27,1.47-.06,2.81-.1,4.04-.13,1.23-.03,2.36-.04,3.4-.04,2.46,0,4.56.19,6.29.56,1.73.37,3.16.94,4.27,1.71,1.11.77,1.92,1.77,2.42,3,.5,1.23.76,2.7.76,4.42s-.27,3.25-.8,4.51c-.53,1.26-1.3,2.29-2.29,3.09-.99.8-2.16,1.42-3.49,1.87.77.95,1.5,1.76,2.2,2.44.7.68,1.35,1.26,1.96,1.73.61.47,1.19.82,1.73,1.04.55.22,1.07.33,1.58.33.09,0,.21,0,.36-.02.15-.01.27-.02.36-.02l.04,7.2c-.21.03-.44.06-.71.09s-.59.04-.98.04ZM871.92,272.38c1.04,0,1.94-.09,2.71-.27.77-.18,1.4-.47,1.89-.87.49-.4.86-.92,1.11-1.56.25-.64.38-1.43.38-2.38,0-1.16-.18-2.08-.53-2.78-.36-.7-.96-1.21-1.8-1.53-.84-.33-2.01-.49-3.49-.49h-1.22c-.34,0-.68,0-1.02.02-.34.02-.72.04-1.13.07-.42.03-.92.06-1.51.09v9.56c.44.03.84.05,1.2.07.36.02.71.03,1.07.04.36.02.72.02,1.09.02h1.27Z"/><path d="M904.54,288.65c-1.54,0-2.99-.01-4.36-.04s-2.67-.07-3.93-.13c-1.26-.06-2.51-.13-3.76-.22v-31.16c1.39-.12,2.72-.21,3.98-.27,1.26-.06,2.51-.1,3.76-.13,1.24-.03,2.56-.04,3.96-.04,3.65,0,6.59.56,8.85,1.67s3.89,2.84,4.91,5.2c1.02,2.36,1.53,5.42,1.53,9.18s-.55,6.69-1.64,9.05c-1.1,2.36-2.75,4.1-4.96,5.22-2.21,1.13-4.99,1.69-8.33,1.69ZM905.12,282.74c1.45,0,2.66-.33,3.62-1s1.7-1.73,2.2-3.2c.5-1.47.76-3.4.76-5.8,0-2.58-.24-4.59-.73-6.05-.49-1.45-1.23-2.5-2.22-3.13-.99-.64-2.27-.96-3.84-.96-.53,0-1.09,0-1.67.02s-1.14.04-1.69.07c-.55.03-1.04.06-1.49.09v19.78c.41,0,.83.02,1.24.04.41.03.83.05,1.24.07.41.02.83.03,1.24.04.41.02.86.02,1.33.02Z"/><path d="M923.83,278.12v-21.02h7.42v21.11c0,.65.09,1.23.27,1.73.18.5.44.92.8,1.24.36.33.77.59,1.24.8.47.21,1,.36,1.58.47.58.1,1.18.16,1.8.16.68,0,1.31-.05,1.89-.16.58-.1,1.1-.26,1.56-.47.46-.21.86-.48,1.2-.82.34-.34.6-.76.78-1.27.18-.5.27-1.07.27-1.69v-21.11h7.42v21.02c0,1.54-.19,2.89-.56,4.04-.37,1.16-.92,2.15-1.64,2.98-.73.83-1.62,1.5-2.69,2-1.07.5-2.29.88-3.67,1.13-1.38.25-2.9.38-4.56.38s-3.17-.13-4.53-.38c-1.36-.25-2.58-.63-3.65-1.13-1.07-.5-1.96-1.17-2.69-2-.73-.83-1.28-1.82-1.67-2.98-.39-1.16-.58-2.5-.58-4.04Z"/><path d="M979.08,258.21l-1.42,5.78c-.59-.21-1.27-.4-2.04-.58-.77-.18-1.57-.33-2.4-.44-.83-.12-1.66-.21-2.49-.27-.83-.06-1.63-.09-2.4-.09-1.75,0-3.08.24-4,.71-.92.47-1.38,1.22-1.38,2.22,0,.53.15,1,.44,1.4.3.4.77.76,1.42,1.09.65.33,1.5.65,2.53.98,1.04.33,2.28.68,3.73,1.07,1.57.39,2.94.85,4.11,1.4,1.17.55,2.15,1.19,2.93,1.91.78.73,1.38,1.57,1.78,2.53.4.96.6,2.08.6,3.36,0,2.02-.53,3.72-1.6,5.11-1.07,1.39-2.64,2.45-4.71,3.18-2.07.73-4.62,1.09-7.65,1.09-1.01,0-2.04-.04-3.11-.13-1.07-.09-2.14-.22-3.22-.38-1.08-.16-2.13-.37-3.13-.62-1.01-.25-1.96-.54-2.84-.87l1.42-5.73c.89.3,1.81.56,2.76.8.95.24,1.91.44,2.89.6.98.16,1.95.29,2.91.38.96.09,1.87.13,2.73.13,1.33,0,2.42-.11,3.27-.33.84-.22,1.47-.56,1.87-1s.6-.99.6-1.64c0-.56-.2-1.04-.6-1.42-.4-.38-1-.75-1.8-1.09-.8-.34-1.8-.69-3-1.04-1.2-.36-2.59-.77-4.16-1.24-1.33-.44-2.5-.95-3.49-1.51-.99-.56-1.83-1.21-2.51-1.93-.68-.73-1.19-1.56-1.53-2.51-.34-.95-.51-2.01-.51-3.2,0-1.33.26-2.56.78-3.69.52-1.13,1.3-2.1,2.36-2.93,1.05-.83,2.42-1.47,4.11-1.93,1.69-.46,3.69-.69,6-.69,1.36,0,2.72.07,4.07.22,1.35.15,2.6.34,3.76.58,1.16.24,2.13.49,2.93.76Z"/><path d="M1008.73,263.72h-9.16v24.49h-7.51v-24.49h-9.16v-6.62h25.82v6.62Z"/><path d="M944.88,167.89c0,8.69-1.79,16.95-5.02,24.45-1.76-.72-3.7-1.64-5.73-2.84-2.87-1.7-5.17-3.52-6.92-5.11l-10.17,8.32h0c-1.41,1.39-2.9,2.61-4.43,3.64,0,0-.01,0-.02.01-5.9,3.94-12.48,5.19-17.86,3.01-1.53-.63-3.72-1.83-5.84-4.31-2.63,1.63-5.26,3.26-7.88,4.89-4.6,2.26-11.68,4.56-19.8,2.98-4.34-.84-7.76-2.57-10.18-4.11-5.14,2.93-10.28,5.86-15.41,8.79-9.02-10.74-14.44-24.6-14.44-39.72,0-34.16,27.69-61.85,61.85-61.85s61.85,27.69,61.85,61.85Z"/><path class="cls-2" d="M883.03,102.07c-36.29,0-65.82,29.53-65.82,65.82,0,19.16,8.23,36.44,21.34,48.47.49-.22.96-.46,1.4-.68.84-.43,1.62-.85,2.33-1.27,1.04-.6,1.92-1.16,2.67-1.67,2.67-1.81,4.1-2.81,5.24-4.67,1.75-2.88,1.67-5.96,1.49-7.55,3.58,5.65,13.78,6.79,13.78,6.79-3.45.68-14.17,5.79-20.82,9.08-.91.44-1.74.86-2.46,1.22-.53.25-1,.49-1.4.7,2.97,2.5,6.17,4.74,9.55,6.68.37-.18.77-.37,1.2-.56.37-.17.77-.35,1.18-.54.66-.3,1.37-.62,2.12-.95.03-.01.05-.02.08-.04,7.84-3.49,9.58-3.89,14.37-6.01,2.63-1.17,4.89-2.18,6.85-3.14,0,0,0,0,0,0,4.98-2.43,8-4.5,10.08-7.91,1.82-2.97,2.38-5.93,2.58-7.79,1.88,2.36,5.11,5.58,9.81,7.1.84.27,1.68.46,2.46.62,1.37.26,2.55.37,3.24.43,2.93.25,5.4.06,7.18-.19-6.2,1.41-11.54,2.9-15.87,4.23h0c-.69.21-1.37.42-2.01.62-8.49,2.69-15.09,5.34-22.19,8.29t0,0c-.82.34-1.65.69-2.49,1.04-3.83,1.6-7.31,3.12-10.39,4.49-.52.23-1.02.46-1.5.68-.66.3-1.3.59-1.92.87-.45.21-.89.41-1.31.6,4.22,2.11,8.69,3.77,13.36,4.93.42-.16.83-.33,1.24-.49,1.87-.74,3.69-1.48,5.47-2.21.16-.07.32-.13.48-.2,17.02-6.99,30.47-13.48,38.75-18.38,3.04-1.8,5.37-3.37,6.94-4.7,1.6-1.34,4.87-4.13,6.58-8.88,1.92-5.35.69-9.82.69-9.82,1.84,1.67,4.67,3.86,8.55,5.62,1.13.52,2.23.94,3.28,1.28,1.04.35,2.02.62,2.94.84.32.07.63.14.93.2,3.76-8.28,5.86-17.47,5.86-27.13,0-36.29-29.53-65.82-65.82-65.82ZM939.86,192.35c-1.76-.72-3.7-1.64-5.73-2.84-2.87-1.7-5.17-3.52-6.92-5.11l-10.17,8.32h0c-1.41,1.39-2.9,2.61-4.43,3.64,0,0-.01,0-.02.01-5.9,3.94-12.48,5.19-17.86,3.01-1.53-.63-3.72-1.83-5.84-4.31-2.63,1.63-5.26,3.26-7.88,4.89-4.6,2.26-11.68,4.56-19.8,2.98-4.34-.84-7.76-2.57-10.18-4.11-5.14,2.93-10.28,5.86-15.41,8.79-9.02-10.74-14.44-24.6-14.44-39.72,0-34.16,27.69-61.85,61.85-61.85s61.85,27.69,61.85,61.85c0,8.69-1.79,16.95-5.02,24.45Z"/><path class="cls-2" d="M939.52,201.63c-1.62,2.71-3.43,5.29-5.43,7.73h0c-.54.26-1.08.52-1.62.77-2.76,1.3-5.52,2.61-8.28,3.91-5.92,2.79-11.84,5.58-17.76,8.38-4.65,2.19-9.3,4.39-13.95,6.59h0c-1.27.6-2.53,1.19-3.8,1.8h0c-1.58.75-3.17,1.49-4.76,2.25h0c-.45.21-.89.43-1.34.63h0c-3.54-.02-7.01-.32-10.4-.9.35-.16.69-.31,1.05-.47,1.99-.9,3.98-1.81,5.97-2.71.1-.05.22-.1.33-.15,10.5-4.77,21.01-9.54,31.51-14.3,3.25-1.48,6.51-2.96,9.76-4.43,3.56-1.44,7.32-3.12,11.23-5.08.55-.27,1.11-.55,1.67-.84,1.52-.78,2.98-1.57,4.39-2.36.49-.28.97-.54,1.45-.82Z"/><path class="cls-2" d="M883.03,135.3l1.45,5.9c1,4.07,4.17,7.24,8.24,8.24l5.9,1.45-5.9,1.45c-4.07,1-7.24,4.17-8.24,8.24l-1.45,5.9-1.45-5.9c-1-4.07-4.17-7.24-8.24-8.24l-5.9-1.45,5.9-1.45c4.07-1,7.24-4.17,8.24-8.24l1.45-5.9Z"/><path class="cls-2" d="M917.04,192.72c-1.41,1.38-2.9,2.6-4.43,3.63l4.43-3.63Z"/><path class="cls-2" d="M929.28,214.67c-10.35,10.23-24.07,17.07-39.34,18.67,1.08-.52,2.16-1.02,3.24-1.54h0c.22-.1.43-.21.65-.31h0c2.04-.96,4.07-1.93,6.11-2.9h0c8.97-4.26,17.92-8.51,26.89-12.76.81-.39,1.62-.77,2.43-1.16Z"/><path d="M883.03,98.75c-38.13,0-69.15,31.02-69.15,69.15s31.02,69.15,69.15,69.15,69.15-31.02,69.15-69.15-31.02-69.15-69.15-69.15ZM867.15,231.77c-4.67-1.16-9.14-2.81-13.36-4.93.43-.19.87-.4,1.31-.6.62-.28,1.25-.57,1.92-.87.49-.22.99-.45,1.5-.68,3.08-1.37,6.56-2.9,10.39-4.49.84-.35,1.67-.69,2.49-1.04t0,0c7.11-2.95,13.71-5.6,22.19-8.29.64-.2,1.31-.41,2.01-.62h0c4.33-1.33,9.67-2.81,15.87-4.23-1.78.25-4.26.45-7.18.19-.69-.06-1.87-.17-3.24-.43-.78-.16-1.61-.35-2.46-.62-4.7-1.52-7.93-4.74-9.81-7.1-.2,1.87-.76,4.82-2.58,7.79-2.08,3.4-5.1,5.48-10.08,7.91,0,0,0,0,0,0-1.96.96-4.23,1.96-6.85,3.14-4.79,2.12-6.53,2.52-14.37,6.01-.03.01-.05.02-.08.04-.75.33-1.46.65-2.12.95-.41.19-.81.37-1.18.54-.43.19-.83.38-1.2.56-3.39-1.94-6.58-4.18-9.55-6.68.4-.21.87-.45,1.4-.7.72-.37,1.55-.78,2.46-1.22,6.65-3.28,17.37-8.4,20.82-9.08,0,0-10.2-1.14-13.78-6.79.18,1.59.26,4.67-1.49,7.55-1.14,1.87-2.57,2.86-5.24,4.67-.75.51-1.63,1.07-2.67,1.67-.71.42-1.49.84-2.33,1.27-.45.22-.92.46-1.4.68-13.11-12.03-21.34-29.31-21.34-48.47,0-36.29,29.53-65.82,65.82-65.82s65.82,29.53,65.82,65.82c0,9.67-2.1,18.86-5.86,27.13-.3-.06-.61-.13-.93-.2-.92-.22-1.9-.49-2.94-.84-1.05-.34-2.14-.77-3.28-1.28-3.87-1.76-6.7-3.95-8.55-5.62,0,0,1.23,4.47-.69,9.82-1.71,4.76-4.98,7.54-6.58,8.88-1.57,1.32-3.9,2.9-6.94,4.7-8.28,4.9-21.73,11.38-38.75,18.38-.16.07-.31.13-.48.2-1.78.73-3.61,1.47-5.47,2.21-.41.16-.82.33-1.24.49ZM889.94,233.34c1.08-.52,2.16-1.02,3.24-1.54h0c.22-.1.43-.21.65-.31h0c2.04-.96,4.07-1.93,6.11-2.9h0c8.97-4.26,17.92-8.51,26.89-12.76.81-.39,1.62-.77,2.43-1.16-10.35,10.23-24.07,17.07-39.34,18.67ZM934.09,209.37h0c-.54.26-1.08.52-1.62.77-2.76,1.3-5.52,2.61-8.28,3.91-5.92,2.79-11.84,5.58-17.76,8.38-4.65,2.19-9.3,4.39-13.95,6.59h0c-1.27.6-2.53,1.19-3.8,1.8h0c-1.58.75-3.17,1.49-4.76,2.25h0c-.45.21-.89.43-1.34.63h0c-3.54-.02-7.01-.32-10.4-.9.35-.16.69-.31,1.05-.47,1.99-.9,3.98-1.81,5.97-2.71.1-.05.22-.1.33-.15,10.5-4.77,21.01-9.54,31.51-14.3,3.25-1.48,6.51-2.96,9.76-4.43,3.56-1.44,7.32-3.12,11.23-5.08.55-.27,1.11-.55,1.67-.84,1.52-.78,2.98-1.57,4.39-2.36.49-.28.97-.54,1.45-.82-1.62,2.71-3.43,5.29-5.43,7.73Z"/><circle class="cls-2" cx="882.95" cy="122.93" r="2.42"/><circle class="cls-2" cx="882.95" cy="178.83" r="2.42"/><circle class="cls-2" cx="910.98" cy="150.88" r="2.42"/><circle class="cls-2" cx="855.07" cy="150.88" r="2.42"/><path d="M952.82,556.27c0,9.19-1.9,17.94-5.32,25.87-1.86-.76-3.92-1.74-6.06-3.01-3.04-1.8-5.47-3.72-7.32-5.4l-10.76,8.8h0c-1.49,1.47-3.06,2.76-4.69,3.85,0,0-.02,0-.02.02-6.25,4.17-13.2,5.49-18.89,3.18-1.62-.66-3.93-1.93-6.18-4.56-2.78,1.72-5.56,3.45-8.34,5.17-4.87,2.39-12.36,4.83-20.94,3.15-4.59-.89-8.21-2.72-10.77-4.34-5.43,3.1-10.87,6.2-16.3,9.3-9.54-11.36-15.28-26.02-15.28-42.02,0-36.14,29.3-65.44,65.44-65.44s65.44,29.3,65.44,65.44Z"/><path class="cls-2" d="M887.39,486.63c-38.4,0-69.64,31.24-69.64,69.64,0,20.27,8.71,38.55,22.58,51.28.51-.24,1.01-.48,1.49-.72.89-.45,1.71-.9,2.46-1.34,1.1-.63,2.03-1.23,2.83-1.77,2.83-1.92,4.34-2.97,5.54-4.94,1.86-3.05,1.77-6.3,1.58-7.98,3.78,5.98,14.58,7.19,14.58,7.19-3.65.72-14.99,6.13-22.03,9.6-.96.47-1.84.91-2.61,1.3-.56.27-1.06.52-1.48.74,3.14,2.65,6.52,5.01,10.11,7.07.39-.19.81-.39,1.27-.59.39-.18.81-.37,1.25-.57.7-.32,1.44-.66,2.24-1,.03-.02.06-.02.09-.04,8.29-3.69,10.14-4.11,15.2-6.36,2.78-1.24,5.17-2.31,7.25-3.32,0,0,0,0,0,0,5.27-2.57,8.47-4.76,10.66-8.36,1.93-3.14,2.52-6.27,2.73-8.25,1.99,2.5,5.4,5.91,10.38,7.51.89.28,1.78.49,2.6.66,1.45.28,2.69.39,3.43.46,3.1.27,5.72.06,7.6-.21-6.56,1.49-12.21,3.06-16.79,4.47h0c-.73.22-1.45.44-2.12.66-8.98,2.84-15.96,5.65-23.48,8.77t0,0c-.87.36-1.75.73-2.64,1.1-4.05,1.69-7.73,3.3-10.99,4.75-.54.24-1.07.48-1.59.72-.7.32-1.37.62-2.03.92-.47.22-.94.43-1.39.64,4.46,2.23,9.19,3.99,14.14,5.21.44-.17.88-.35,1.31-.52,1.97-.78,3.9-1.56,5.79-2.34.17-.07.34-.14.51-.21,18.01-7.4,32.24-14.26,41-19.44,3.21-1.9,5.69-3.57,7.34-4.97,1.69-1.42,5.15-4.37,6.96-9.4,2.03-5.66.73-10.39.73-10.39,1.95,1.77,4.94,4.08,9.04,5.95,1.2.54,2.36,1,3.47,1.36,1.1.37,2.14.66,3.11.88.34.08.67.15.99.21,3.98-8.76,6.2-18.48,6.2-28.71,0-38.4-31.24-69.64-69.64-69.64ZM947.51,582.15c-1.86-.76-3.92-1.74-6.06-3.01-3.04-1.8-5.47-3.72-7.32-5.4l-10.76,8.8h0c-1.49,1.47-3.06,2.76-4.69,3.85,0,0-.02,0-.02.02-6.25,4.17-13.2,5.49-18.89,3.18-1.62-.66-3.93-1.93-6.18-4.56-2.78,1.72-5.56,3.45-8.34,5.17-4.87,2.39-12.36,4.83-20.94,3.15-4.59-.89-8.21-2.72-10.77-4.34-5.43,3.1-10.87,6.2-16.3,9.3-9.54-11.36-15.28-26.02-15.28-42.02,0-36.14,29.3-65.44,65.44-65.44s65.44,29.3,65.44,65.44c0,9.19-1.9,17.94-5.32,25.87Z"/><path class="cls-2" d="M947.15,591.97c-1.71,2.87-3.63,5.6-5.74,8.18h0c-.57.28-1.14.54-1.71.81-2.92,1.37-5.84,2.76-8.76,4.14-6.26,2.95-12.53,5.91-18.79,8.87-4.92,2.32-9.84,4.64-14.76,6.97h0c-1.34.63-2.68,1.26-4.02,1.9h0c-1.67.79-3.36,1.58-5.03,2.38h0c-.47.22-.94.45-1.41.67h0c-3.74-.02-7.42-.34-11-.95.37-.17.73-.33,1.11-.5,2.11-.96,4.21-1.91,6.32-2.87.11-.06.23-.11.35-.16,11.11-5.05,22.22-10.09,33.34-15.13,3.44-1.56,6.89-3.13,10.33-4.69,3.77-1.52,7.75-3.3,11.88-5.38.58-.28,1.18-.58,1.77-.89,1.6-.83,3.15-1.66,4.64-2.5.52-.29,1.03-.58,1.53-.87Z"/><path class="cls-2" d="M887.38,521.79h0c2,8.14,8.35,14.49,16.49,16.49h0s0,0,0,0c-8.14,2-14.49,8.35-16.49,16.49h0s0,0,0,0c-2-8.14-8.35-14.49-16.49-16.49h0s0,0,0,0c8.14-2,14.49-8.35,16.49-16.49h0Z"/><path class="cls-2" d="M923.37,582.54c-1.49,1.46-3.06,2.75-4.69,3.84l4.69-3.84Z"/><path class="cls-2" d="M936.32,605.77c-10.95,10.83-25.47,18.06-41.62,19.75,1.15-.54,2.28-1.08,3.43-1.63h0c.23-.11.46-.22.69-.33h0c2.16-1.02,4.3-2.05,6.46-3.06h0c9.49-4.51,18.96-9,28.45-13.5.86-.41,1.71-.81,2.57-1.22Z"/><path d="M887.39,483.12c-40.34,0-73.16,32.81-73.16,73.16s32.81,73.16,73.16,73.16,73.16-32.82,73.16-73.16-32.82-73.16-73.16-73.16ZM870.59,623.85c-4.94-1.22-9.67-2.98-14.14-5.21.45-.21.92-.42,1.39-.64.66-.29,1.33-.6,2.03-.92.51-.24,1.04-.47,1.59-.72,3.26-1.45,6.94-3.06,10.99-4.75.89-.37,1.77-.73,2.64-1.1t0,0c7.52-3.12,14.5-5.92,23.48-8.77.68-.21,1.39-.43,2.12-.66h0c4.58-1.41,10.24-2.98,16.79-4.47-1.88.27-4.5.47-7.6.21-.73-.06-1.98-.18-3.43-.46-.82-.17-1.71-.37-2.6-.66-4.98-1.6-8.39-5.01-10.38-7.51-.21,1.97-.81,5.1-2.73,8.25-2.2,3.6-5.39,5.8-10.66,8.36,0,0,0,0,0,0-2.08,1.01-4.47,2.08-7.25,3.32-5.06,2.24-6.91,2.67-15.2,6.36-.03.02-.06.02-.09.04-.8.35-1.54.69-2.24,1-.43.2-.85.39-1.25.57-.46.21-.88.4-1.27.59-3.59-2.05-6.97-4.42-10.11-7.07.43-.22.92-.47,1.48-.74.77-.39,1.64-.83,2.61-1.3,7.04-3.47,18.38-8.88,22.03-9.6,0,0-10.8-1.21-14.58-7.19.19,1.68.28,4.94-1.58,7.98-1.21,1.97-2.72,3.02-5.54,4.94-.8.54-1.73,1.14-2.83,1.77-.75.44-1.57.89-2.46,1.34-.47.24-.97.48-1.49.72-13.87-12.73-22.58-31.01-22.58-51.28,0-38.4,31.24-69.64,69.64-69.64s69.64,31.24,69.64,69.64c0,10.23-2.22,19.95-6.2,28.71-.32-.06-.65-.13-.99-.21-.97-.23-2.01-.51-3.11-.88-1.11-.36-2.27-.81-3.47-1.36-4.1-1.86-7.09-4.18-9.04-5.95,0,0,1.3,4.73-.73,10.39-1.81,5.03-5.27,7.98-6.96,9.4-1.66,1.4-4.13,3.06-7.34,4.97-8.76,5.18-22.99,12.04-41,19.44-.17.07-.33.14-.51.21-1.89.77-3.81,1.56-5.79,2.34-.43.17-.87.35-1.31.52ZM894.7,625.52c1.15-.54,2.28-1.08,3.43-1.63h0c.23-.11.46-.22.69-.33h0c2.16-1.02,4.3-2.05,6.46-3.06h0c9.49-4.51,18.96-9,28.45-13.5.86-.41,1.71-.81,2.57-1.22-10.95,10.83-25.47,18.06-41.62,19.75ZM941.41,600.15h0c-.57.28-1.14.54-1.71.81-2.92,1.37-5.84,2.76-8.76,4.14-6.26,2.95-12.53,5.91-18.79,8.87-4.92,2.32-9.84,4.64-14.76,6.97h0c-1.34.63-2.68,1.26-4.02,1.9h0c-1.67.79-3.36,1.58-5.03,2.38h0c-.47.22-.94.45-1.41.67h0c-3.74-.02-7.42-.34-11-.95.37-.17.73-.33,1.11-.5,2.11-.96,4.21-1.91,6.32-2.87.11-.06.23-.11.35-.16,11.11-5.05,22.22-10.09,33.34-15.13,3.44-1.56,6.89-3.13,10.33-4.69,3.77-1.52,7.75-3.3,11.88-5.38.58-.28,1.18-.58,1.77-.89,1.6-.83,3.15-1.66,4.64-2.5.52-.29,1.03-.58,1.53-.87-1.71,2.87-3.63,5.6-5.74,8.18Z"/><circle class="cls-2" cx="887.31" cy="508.7" r="2.57"/><circle class="cls-2" cx="887.31" cy="567.85" r="2.57"/><circle class="cls-2" cx="916.96" cy="538.27" r="2.57"/><circle class="cls-2" cx="857.81" cy="538.27" r="2.57"/><line class="cls-1" x1="609.26" y1="61.16" x2="609.26" y2="694.25"/><line class="cls-1" x1="1052.22" y1="385.15" x2="130.35" y2="385.15"/></svg>